<?xml version="1.0" encoding="utf-8"?>
<!-- Generator: Adobe Illustrator 20.1.0, SVG Export Plug-In . SVG Version: 6.00 Build 0)  -->
<svg version="1.1" id="Layer_1" xmlns="http://www.w3.org/2000/svg" xmlns:xlink="http://www.w3.org/1999/xlink" x="0px" y="0px"
	 width="300px" height="1200px" viewBox="0 0 300 1200" style="enable-background:new 0 0 300 1200;" xml:space="preserve">
<style type="text/css">
	.st0{clip-path:url(#SVGID_2_);}
	.st1{fill:#006600;}
	.st2{fill:none;stroke:#70706E;stroke-width:0.7484;stroke-miterlimit:10;}
	.st3{fill:#EAEAEA;}
	.st4{fill:#EAEAEA;stroke:#EAEAEA;stroke-width:0.2;stroke-miterlimit:10;}
	.st5{fill:#13B1D6;}
	.st6{fill:none;stroke:#13B1D6;stroke-width:1.25;stroke-miterlimit:10;}
	.st7{fill:none;}
	.st8{fill:none;stroke:#EAEAEA;stroke-width:1.25;stroke-miterlimit:10;}
	.st9{fill:#EAEAEA;stroke:#EAEAEA;stroke-width:0.3;stroke-linecap:square;stroke-linejoin:bevel;stroke-miterlimit:10;}
	.st10{fill:#FFFFFF;stroke:#EAEAEA;stroke-width:1.25;stroke-miterlimit:10;}
	.st11{fill:#EAEAEA;stroke:#EAEAEA;stroke-width:0.3;stroke-linecap:square;stroke-miterlimit:10;}
	.st12{fill:none;stroke:#050402;stroke-miterlimit:10;}
	.st13{fill:none;stroke:#050402;stroke-width:1.2;stroke-miterlimit:10;}
	.st14{fill:#FFFFFF;stroke:#050402;stroke-miterlimit:10;}
</style>
<g>
	<g>
		<defs>
			<rect id="SVGID_1_" x="-293.4" y="1.6" width="290.1" height="290.1"/>
		</defs>
		<clipPath id="SVGID_2_">
			<use xlink:href="#SVGID_1_"  style="overflow:visible;"/>
		</clipPath>
		<g class="st0">
			
				<image style="overflow:visible;enable-background:new    ;" width="513" height="513" xlink:href="3E3C806F523B04F7.jpg"  transform="matrix(0.5655 0 0 0.5655 -293.3777 1.5557)">
			</image>
		</g>
	</g>
</g>
<rect x="-1149" y="701" class="st1" width="116.1" height="116.1"/>
<rect x="340" y="0.6" class="st2" width="299.4" height="299.4"/>
<rect x="340" y="299.9" class="st2" width="299.4" height="299.4"/>
<rect x="339.5" y="600.8" class="st2" width="299.4" height="299.4"/>
<rect x="341" y="900" class="st2" width="299.4" height="299.4"/>
<path class="st3" d="M55.3,181.4l-9,20c0.3,0,0.6-0.1,1-0.1c0.3,0,0.7,0,1.1,0.1c0.6-2.7,1.6-5.3,2.7-7.8h7.3c1.1,2.7,2.2,5.4,3,7.8
	c0.4,0,1-0.1,1.6-0.1s1,0,1.6,0.1l-8.6-20H55.3z M51.7,192.4l3.1-7.4l3.2,7.4H51.7z"/>
<path class="st3" d="M68.9,185.8c0-2.1,1.7-3.3,3.7-3.3c1.7,0,3,0.9,3.5,2.4h0.3c0.2-0.8,0.4-1.7,0.8-2.3c-1.1-1-2.8-1.4-4.1-1.4
	c-3.4,0-6.4,1.8-6.4,5.5c0,6.4,9,4.1,9,9.5c0,2.4-1.6,4.2-3.9,4.2c-2.2,0-3.5-1.1-4.7-3h-0.3c-0.1,0.9-0.2,1.7-0.6,2.5
	c1,1.1,3.3,1.7,4.7,1.7c3.9,0,7.1-2.4,7.1-6.5C78,188.9,68.9,191.1,68.9,185.8z"/>
<path class="st3" d="M80,181.6c0,0.3,0.1,0.6,0.1,0.9s-0.1,0.6-0.1,0.9c1.5-0.1,3.3-0.3,6.2-0.3v18.4c0.3,0,0.8-0.1,1.2-0.1
	c0.4,0,0.8,0.1,1.2,0.1v-18.4c2.5,0,4.5,0.2,6,0.3c0-0.3-0.1-0.6-0.1-0.9s0.1-0.6,0.1-0.9H80z"/>
<path class="st3" d="M106.2,181.2c-6,0-10.6,4-10.6,10.3c0,6.2,4.2,10.2,10.6,10.2c6.3,0,10.9-4.1,10.9-10.6
	C117.1,184.2,111.6,181.2,106.2,181.2z M106.2,200.8c-4.3,0-7.9-3.1-7.9-8.9c0-5.9,3-9.6,8.1-9.6c2.3,0,4.5,1,6,2.8
	c1.6,1.9,1.9,4,1.9,6.3C114.5,194.6,112.3,200.8,106.2,200.8z"/>
<path class="st3" d="M136.3,181.7v14.8H136l-13.7-14.8h-1.1v19.7c0.2,0,0.6-0.1,0.8-0.1s0.6,0,0.8,0.1c-0.1,0-0.1-15.5-0.1-15.5h0.3
	l12.4,13.7c0.6,0.7,1.2,1.3,1.6,1.8h0.9v-19.7c-0.3,0-0.6,0.1-0.8,0.1C136.8,181.8,136.5,181.7,136.3,181.7z"/>
<path class="st3" d="M169.8,181.6c-2.9,5.2-5.5,10.2-8.3,15.1c-3.1-5.1-5.9-10.5-8.2-15.1h-0.8c-0.3,3.1-2,15.1-2.8,19.7
	c0.3,0,0.7-0.1,1-0.1s0.7,0,1,0.1c0.3-3.5,1-9.2,1.7-14.8c2,3.8,4,7.5,5.8,11.3l1.6,3.2h0.3c1.7-4,4.2-8.5,7.5-14.5
	c0.4,2.9,1,9.1,1.4,14.8c0.4,0,0.9-0.1,1.3-0.1c0.4,0,0.9,0,1.3,0.1c-0.8-5.5-1.6-12.5-2.3-19.7H169.8z"/>
<path class="st3" d="M183.7,181.4l-9,20c0.3,0,0.7-0.1,1-0.1s0.7,0,1.1,0.1c0.7-2.7,1.7-5.3,2.7-7.8h7.3c1.1,2.7,2.2,5.4,3,7.8
	c0.4,0,1-0.1,1.6-0.1s1,0,1.6,0.1l-8.6-20H183.7z M180.2,192.4l3.1-7.4l3.2,7.4H180.2z"/>
<path class="st3" d="M208.5,198.9l-6-7.5c3-0.4,5.9-2,5.9-5.4c0-2.9-2-4.4-6.4-4.4h-6.1v19.7c0.4,0,0.8-0.1,1.2-0.1s0.8,0,1.2,0.1
	v-9.6h1.1l2.3,2.7l3.4,4.4c0.6,0.8,1.2,1.7,1.9,2.5c0.4,0,1.1-0.1,1.7-0.1c0.6,0,1.1,0,1.7,0.1l-0.6-0.8L208.5,198.9z M198.4,190.7
	v-7.9c1.2-0.1,3.2-0.1,4.2,0c2.1,0.3,3.1,1.7,3.1,3.7c0.2,2.2-1.4,3.6-3.5,4.1C200.8,190.8,198.9,190.7,198.4,190.7z"/>
<path class="st3" d="M210.5,181.6c0,0.3,0.1,0.6,0.1,0.9s0,0.6-0.1,0.9c1.6-0.1,3.4-0.3,6.3-0.3v18.4c0.4,0,0.9-0.1,1.2-0.1
	c0.4,0,0.8,0.1,1.3,0.1v-18.4c2.5,0,4.5,0.2,6,0.3c0-0.3-0.1-0.6-0.1-0.9s0.1-0.6,0.1-0.9H210.5z"/>
<path class="st3" d="M228.8,181.7v19.7c0.4,0,0.9-0.1,1.2-0.1c0.4,0,0.8,0,1.2,0.1v-19.7c-0.4,0-0.9,0.1-1.2,0.1
	C229.6,181.8,229.1,181.7,228.8,181.7z"/>
<path class="st3" d="M251.8,181.7v14.8h-0.3l-13.6-14.8h-1.1v19.7c0.2,0,0.6-0.1,0.9-0.1c0.2,0,0.4,0,0.8,0.1l-0.1-15.5h0.3
	l12.4,13.7c0.6,0.7,1.2,1.3,1.4,1.8h0.9v-19.7c-0.3,0-0.6,0.1-0.8,0.1C252.3,181.8,252,181.7,251.8,181.7z"/>
<path class="st3" d="M286.5,111.4c-1-1.6-2.7-1.7-3.4-1.7H172.2c-3.1,0-5.7,1-7.6,2.8c-1.3,1.3-2.3,3.1-2.8,5.2c0,0-0.1,0.5-1.1,0.5
	h-21.9c-0.9,0-1.1-0.4-1.1-0.5c-0.5-2.1-1.4-3.9-2.8-5.2c-1.9-1.9-4.4-2.8-7.6-2.8H16.5c-0.7,0-2.5,0.1-3.4,1.7
	c-0.5,0.8-0.8,2.1,0.2,3.9l2,3.4c0.8,1.4,1.8,1.9,3.8,2c0,0,1,0.1,1.6,1.2l2.1,3.6c0.4,0.8,1.5,2.8,5,3.3c0.1,0,1.1,0.1,1.6,1.2
	l2.6,4.5c0.7,1.4,1.8,2,3.7,2.6l46.4,13.6c1.6,0.5,2.2,2.2,2.2,2.2c1.1,2.9,2.5,5.2,9.8,7.4l38,10.4c0.5,0.2,4.8,1.5,8.1-1.7
	l8.9-8.5c0,0,0.4-0.4,0.9-0.4l0,0c0.5,0,0.9,0.4,0.9,0.4l8.9,8.5c3.3,3.2,7.6,1.8,8.1,1.7l38-10.4c7.2-2.2,8.7-4.5,9.8-7.4
	c0,0,0.6-1.8,2.2-2.2l46.4-13.6c1.9-0.6,2.9-1.1,3.7-2.6c0,0,2.5-4.5,2.6-4.5c0.6-1.1,1.6-1.2,1.6-1.2c3.5-0.5,4.5-2.4,5-3.3
	l2.1-3.6c0.6-1.1,1.6-1.2,1.6-1.2c2-0.1,2.9-0.6,3.8-2l2-3.4C287.3,113.5,287,112.2,286.5,111.4z M163.9,118.1L163.9,118.1
	c0.4-1.7,1.1-3.1,2.2-4.2c1.5-1.5,3.5-2.2,6.1-2.2c0,0,24.8,0,51,0c-1.8,1.3-2.7,3-2.7,3.1c-0.6,1.1-1.3,2.4-2.2,3.8h-54.5
	C163.8,118.4,163.9,118.1,163.9,118.1L163.9,118.1z M206.3,130.4L206.3,130.4v-2.5l4.9,0.7c-0.7,0.8-1.3,1.6-2.1,2.5
	C207.9,130.7,206.9,130.5,206.3,130.4z M207.9,132.3c-0.5,0.6-1,1.1-1.6,1.7v-2L207.9,132.3z M206.3,126.2L206.3,126.2V124l7.9,0.5
	c-0.6,0.8-1.2,1.6-1.9,2.5L206.3,126.2z M206.3,122.3L206.3,122.3v-2.1h10.8c-0.6,0.9-1.2,1.8-1.8,2.7L206.3,122.3z M127.4,111.7
	L127.4,111.7L127.4,111.7c2.6,0,4.6,0.8,6.1,2.2c1.1,1.1,1.8,2.5,2.2,4.2c0,0,0.1,0.3,0.2,0.5H81.4c-0.8-1.4-2.2-3.8-2.2-3.8
	c-0.1-0.1-1-1.8-2.7-3.1C102.6,111.7,127.4,111.7,127.4,111.7z M90.4,130.9c-0.7-0.8-1.4-1.6-2.1-2.5l4.9-0.7v2.5L90.4,130.9z
	 M93.2,132v2c-0.5-0.6-1.1-1.1-1.6-1.7C92.3,132.2,92.8,132.1,93.2,132z M87.2,127c-0.7-0.8-1.3-1.7-1.9-2.5l7.9-0.5l0,0l0,0l0,0
	v2.2L87.2,127z M93.2,122.3l-9,0.6c-0.6-0.9-1.2-1.8-1.8-2.7h10.8V122.3L93.2,122.3z M19.2,118.6L19.2,118.6L19.2,118.6L19.2,118.6
	L19.2,118.6c-1.4-0.1-1.7-0.3-2.2-1c0,0-1.8-3.1-2-3.3c-0.3-0.6-0.4-1-0.4-1.3c0-0.8,0.5-1.3,1.9-1.4h55.3c3.7,0,5.9,3.8,5.9,3.8
	c0.5,0.9,1.1,1.9,1.7,3.1H19.2V118.6z M26.7,126.5L26.7,126.5L26.7,126.5c-1.4-0.5-1.9-1.3-2.1-1.9c-0.9-1.5-2-3.7-2.6-4.4h58.5
	c0.6,0.9,1.2,1.8,1.8,2.8L31,126.5C30.2,126.6,27.9,126.8,26.7,126.5z M36.2,133.9c-1.9,0.2-2.5-0.4-2.6-0.5l-2.5-4.3
	c-0.2-0.3-0.4-0.6-0.6-0.8c0.3,0,52.9-3.5,52.9-3.5c0.6,0.8,1.2,1.7,1.9,2.6L36.2,133.9L36.2,133.9z M48.1,138.6L48.1,138.6
	c-5.1-1.5-9.2-2.7-11-3.2l49.4-6.6c0.7,0.8,1.4,1.7,2.1,2.6l-33.8,7C53.6,138.5,50,139.1,48.1,138.6z M64.9,143.5L64.9,143.5
	L64.9,143.5c-3.8-1.1-7.7-2.3-11.5-3.4c1-0.1,1.7-0.3,1.8-0.3c0,0,24.5-5,34.7-7.1c1,1.1,2.1,2.3,3.2,3.4l-22.6,7
	C70.3,143.1,67.2,144.1,64.9,143.5z M82.5,148.7L82.5,148.7L82.5,148.7c-0.5-0.1-5.9-1.7-12.8-3.8c0.7-0.1,1.1-0.3,1.1-0.3
	s19-5.9,23.4-7.2c1.6,1.6,3.4,3.1,5.2,4.7l-12.2,5.7C86.5,148.2,84.1,149.1,82.5,148.7z M113.5,137.3h9.9l-13.9,9.9
	c-2.4-1.5-4.8-3.1-7-4.8C107.8,140,112.6,137.7,113.5,137.3L113.5,137.3L113.5,137.3z M127.8,155.1c-2.8-0.8-5.6-1.8-8.3-2.9
	c5.7-6,12.7-13.2,14.3-14.9l0,0h4.5L127.8,155.1z M140.2,137.3h3.8l-5.6,20c-3.1-0.4-6.1-1-9.1-1.8
	C133.4,148.7,138.8,139.6,140.2,137.3z M117.9,151.5c-2.3-1-4.6-2.2-6.8-3.4c6.6-4.7,13.4-9.6,15.1-10.8l0,0h5.3L117.9,151.5z
	 M101.2,141.3c-0.1-0.1-3.3-2.8-4.6-4h13.2L101.2,141.3z M92.3,157.6c-4.8-1.8-5.5-3.6-6.2-5.4c-0.1-0.2-0.4-1.1-1.2-2
	c1.6-0.3,3-1,3.1-1c0,0,6.5-3,12.9-6.1c2.3,1.8,4.8,3.5,7.2,5.1l-11.5,8.2C96.7,156.5,94.3,158.2,92.3,157.6z M106.1,161.5
	L106.1,161.5L96,158.7c1-0.4,1.7-1,1.8-1c0,0,5.7-4.1,12-8.6c2.3,1.3,4.6,2.6,7,3.6l-6.7,6.9C109.5,160.3,107.6,161.9,106.1,161.5z
	 M120.2,165.3L120.2,165.3L120.2,165.3l-10.9-3c1.1-0.6,1.9-1.5,2-1.5c0,0,3.1-3.3,7.1-7.4c2.8,1.2,5.7,2.2,8.7,3.1l-3.6,6.1
	C122.9,163.4,121.4,165.5,120.2,165.3z M134.4,168.3c-0.6,0.4-1.3,0.5-2.2,0.3l-9.5-2.6c1.2-1,2-2.3,2.1-2.6c0,0,1.6-2.7,3.8-6.5
	c3.1,0.8,6.2,1.4,9.5,1.9l-1.8,6.7l0,0C136.2,165.6,135.7,167.5,134.4,168.3z M138.6,167.5c-0.7,0.7-1.5,1.1-2.3,1.3
	c1.1-1.2,1.4-2.7,1.5-2.9l1.9-6.8c2.4,0.3,4.8,0.5,7.2,0.5C144.9,161.5,138.6,167.5,138.6,167.5z M149,158.1c-3,0-6-0.2-8.9-0.5l0,0
	l0,0l5.6-20.2h3.3L149,158.1L149,158.1z M94.9,135.7L94.9,135.7L94.9,135.7L94.9,135.7v-15.4h109.9v15.4l0,0H94.9z M161.3,137.3
	L161.3,137.3h4.5l14.3,14.9c-2.7,1.1-5.5,2.1-8.3,2.9L161.3,137.3z M170.2,155.5c-3,0.8-6,1.4-9.1,1.8l-5.6-20h3.8l0,0L170.2,155.5z
	 M168,137.3h5.3l15.1,10.8c-2.2,1.3-4.5,2.4-6.8,3.4C176.7,146.4,170.7,140.1,168,137.3z M176.1,137.3L176.1,137.3L176.1,137.3
	L176.1,137.3h9.9l11,5.1c-2.3,1.7-4.6,3.3-7,4.8C184.7,143.4,179.1,139.4,176.1,137.3z M189.8,137.3L189.8,137.3L189.8,137.3H203
	c-1.3,1.3-4.5,3.9-4.6,4C195.2,139.8,192.1,138.3,189.8,137.3z M150.6,158.1v-20.8h3.3l5.6,20.2C156.6,157.9,153.6,158,150.6,158.1z
	 M159.6,166.2L159.6,166.2c0,0-5.1-4.9-6.9-6.6c2.4-0.1,4.9-0.3,7.2-0.5l1.9,6.8c0.1,0.2,0.4,1.7,1.5,2.9
	C161.9,168.4,161.4,168,159.6,166.2z M167.4,168.6L167.4,168.6c-0.9,0.2-1.6,0.1-2.2-0.3c-1.3-0.8-1.8-2.7-1.8-2.8l-1.8-6.7
	c3.2-0.4,6.4-1.1,9.5-1.9l3.8,6.5c0.1,0.2,0.9,1.6,2.1,2.5L167.4,168.6z M179.4,165.3L179.4,165.3L179.4,165.3
	c-1.3,0.2-2.7-1.9-3.2-2.7l-3.6-6.1c3-0.9,5.9-1.9,8.7-3.1l7.1,7.4c0.1,0.1,0.8,0.9,2,1.5L179.4,165.3z M195.3,161L195.3,161
	l-1.8,0.5c-1.5,0.4-3.4-1.1-4-1.8c0,0-2.9-3-6.7-6.9c2.4-1.1,4.7-2.3,7-3.6l12,8.6c0,0,0.7,0.6,1.7,1C201,159.4,195.3,161,195.3,161
	z M213.5,152.2L213.5,152.2c-0.7,1.8-1.4,3.6-6.2,5.4c-2,0.6-4.3-1.1-4.4-1.2c0,0-5.4-3.8-11.5-8.2c2.5-1.5,4.9-3.2,7.2-5.1l13,6.1
	c0.1,0,1.4,0.7,3,1C213.9,151.1,213.5,152.1,213.5,152.2L213.5,152.2z M217.1,148.7L217.1,148.7c-1.6,0.4-4-0.5-4.8-0.9
	c0,0-6.1-2.8-12.3-5.7c1.9-1.5,3.6-3.1,5.2-4.7l23.5,7.2c0,0,0.5,0.2,1.1,0.3L217.1,148.7z M234.7,143.5L234.7,143.5
	c-2.4,0.6-5.5-0.4-5.5-0.4l0,0l0,0l-22.6-7c1.1-1.1,2.2-2.3,3.2-3.4l34.7,7.1c0.1,0,0.8,0.2,1.8,0.3L234.7,143.5L234.7,143.5z
	 M251.5,138.6L251.5,138.6c-1.9,0.5-5.5-0.1-6.7-0.3c0,0-23.1-4.8-33.8-6.9c0.7-0.9,1.4-1.7,2.1-2.6l49.4,6.6L251.5,138.6
	L251.5,138.6z M268.4,129L268.4,129c0,0-2,3.6-2.4,4.3c-0.1,0.1-0.7,0.8-2.6,0.5l-49.2-6.6c0.7-0.9,1.3-1.8,1.9-2.6l52.3,3.5
	c0.1,0,0.3,0,0.6,0.1C268.8,128.4,268.6,128.7,268.4,129z M277.1,120.9L277.1,120.9L277.1,120.9l-2.1,3.7c-0.3,0.5-0.7,1.4-2.1,1.9
	c-1.2,0.3-3.5,0.1-4.3,0l-51.3-3.4c0.7-1,1.3-1.9,1.8-2.8h58.5C277.4,120.4,277.3,120.6,277.1,120.9z M284.5,114.3L284.5,114.3
	L284.5,114.3l-2,3.3c-0.4,0.6-0.6,0.9-2.1,1h-60.3c0.7-1.1,1.3-2.2,1.7-3.1c0,0,2.2-3.8,5.9-3.8H283c0.6,0,1.3,0.1,1.7,0.7
	c0,0.1,0.2,0.3,0.2,0.6C284.9,113.4,284.8,113.8,284.5,114.3z"/>
<line class="st3" x1="176.1" y1="137.3" x2="176.1" y2="137.3"/>
<line class="st3" x1="189.8" y1="137.3" x2="189.8" y2="137.3"/>
<path class="st3" d="M102.1,122.7h-0.5L97,133.2h1.3v-0.1c0.4-1.3,0.9-2.5,1.3-3.7l0.1-0.2c0.1,0,3.5,0,3.6,0c0.5,1.1,1,2.4,1.5,3.9
	v0.1h1.8L102.1,122.7L102.1,122.7z M100.1,128.4c0.1-0.2,1.3-3.1,1.5-3.5c0.1,0.3,1.4,3.2,1.5,3.5
	C102.8,128.4,100.3,128.4,100.1,128.4z"/>
<path class="st3" d="M110.9,127.3c-1.1-0.4-2.1-0.8-2.1-2.1c0-0.9,0.7-1.6,1.8-1.6c0.8,0,1.4,0.4,1.8,1.2v0.1h0.3l0.4-1.3l0,0
	c-0.6-0.5-1.5-0.7-2.2-0.7c-2.1,0-3.4,1.1-3.4,2.9s1.4,2.3,2.5,2.8c1.1,0.4,2.1,0.8,2.1,2.1c0,1.2-0.9,2.1-2,2.1
	c-1,0-1.7-0.4-2.3-1.5l0,0h-0.3l-0.3,1.4l0,0c0.6,0.6,1.8,0.9,2.5,0.9c2.2,0,3.7-1.4,3.7-3.5C113.4,128.2,112.2,127.7,110.9,127.3z"
	/>
<path class="st3" d="M107.2,132.5L107.2,132.5L107.2,132.5z"/>
<path class="st3" d="M121.8,124v-1.1h-0.1H114v1.1h0.1c0.9-0.1,1.7-0.2,3.1-0.2c0,0.2,0,9.4,0,9.4h1.5c0,0,0-9.2,0-9.4
	c1,0,2.1,0.1,3,0.2L121.8,124z"/>
<path class="st3" d="M127.1,122.7c-3.3,0-5.6,2.2-5.6,5.4s2.2,5.3,5.5,5.3c3.4,0,5.7-2.2,5.7-5.5
	C132.8,124.3,129.9,122.7,127.1,122.7z M129.8,131.6c-0.7,0.8-1.6,1.2-2.7,1.2c-2.4,0-4-1.8-4-4.5c0-3,1.6-4.9,4.1-4.9
	c1.2,0,2.3,0.5,3,1.4c0.8,1,0.9,2,0.9,3.2c0,0.1,0,0.1,0,0.2C131.1,129.2,130.7,130.6,129.8,131.6z"/>
<path class="st3" d="M143,122.9h-0.9c0,0,0,7.4,0,7.6l0,0c-0.1-0.1-7-7.6-7-7.6h-0.7v10.3h1c0,0,0-7.8,0-8l0,0c0.1,0.1,6.4,7,6.4,7
	l0.8,0.9l0,0h0.5L143,122.9L143,122.9L143,122.9z"/>
<path class="st3" d="M159.8,123L159.8,123L159.8,123L159.8,123l-0.5-0.1l-2.5,4.5c0,0-1.6,2.9-1.7,3.1c-1.5-2.6-2.9-5.3-4.1-7.6l0,0
	h-0.5v0.1c-0.1,1.5-1,7.7-1.4,10.1v0.1h1.2v-0.1c0-1.4,0.3-3.6,0.5-5.9c0,0,0.1-1,0.2-1.4c0.2,0.3,2.1,4,2.9,5.5l0.8,1.7h0.3v-0.1
	c0.9-2,2.1-4.2,3.7-7.2c0.2,1.8,0.5,5.3,0.7,7.3v0.1h1.6V133C160.6,130.6,160.2,127.3,159.8,123z"/>
<path class="st3" d="M166.7,122.7h-0.5l-4.7,10.5h1.3v-0.1c0.4-1.3,0.9-2.5,1.4-3.7c0,0,0.1-0.1,0.1-0.2c0.1,0,3.5,0,3.6,0
	c0.5,1.1,1,2.5,1.5,3.9v0.1h1.8L166.7,122.7L166.7,122.7z M164.7,128.4c0.1-0.2,1.3-3.1,1.5-3.5c0.1,0.3,1.4,3.2,1.5,3.5
	C167.4,128.4,164.9,128.4,164.7,128.4z"/>
<path class="st3" d="M175.8,128.1c1.9-0.4,3-1.4,3-2.9c0-1.6-1.1-2.3-3.4-2.3h-3.2v10.3h1.5c0,0,0-4.8,0-4.9c0.1,0,0.4,0,0.4,0
	c0,0.1,1.2,1.4,1.2,1.4l1.7,2.3l1,1.3h0.1h1.9C179.8,133.2,175.9,128.3,175.8,128.1L175.8,128.1z M173.6,127.5c0-0.2,0-3.7,0-3.9
	c0.6,0,1.6-0.1,2.1,0c1,0.2,1.5,0.8,1.5,1.8s-0.7,1.8-1.8,2C174.8,127.6,174,127.6,173.6,127.5z"/>
<path class="st3" d="M187.3,122.9h-7.7v1.1h0.1c0.9-0.1,1.7-0.2,3.1-0.2c0,0.2,0,9.4,0,9.4h1.5c0,0,0-9.2,0-9.4c1,0,2,0.1,3,0.2h0.1
	L187.3,122.9L187.3,122.9L187.3,122.9z"/>
<rect x="188.6" y="122.9" class="st3" width="1.4" height="10.3"/>
<line class="st3" x1="199.9" y1="122.9" x2="199.9" y2="122.9"/>
<path class="st3" d="M199.9,130.5L199.9,130.5c-0.1-0.1-7-7.6-7-7.6h-0.7v10.3h1c0,0,0-7.8,0-8l0,0c0.1,0.1,6.4,7,6.4,7l0.8,0.9h0.6
	v-10.3h-1C199.9,122.9,199.9,130.4,199.9,130.5z"/>
<g>
	<path class="st4" d="M260.4,426.1c-0.8-1.3-2.2-1.4-2.8-1.4h-89.7c-2.5,0-4.6,0.8-6.1,2.3c-1.1,1.1-1.8,2.5-2.2,4.2
		c0,0-0.1,0.4-0.9,0.4H141c-0.8,0-0.9-0.4-0.9-0.4c-0.4-1.7-1.1-3.1-2.2-4.2c-1.5-1.5-3.6-2.3-6.1-2.3H42c-0.6,0-2,0.1-2.8,1.4
		c-0.4,0.6-0.6,1.7,0.2,3.2L41,432c0.7,1.1,1.4,1.5,3,1.6c0,0,0.8,0.1,1.3,1l1.7,2.9c0.4,0.7,1.2,2.3,4,2.6c0,0,0.9,0.1,1.3,1
		l2.1,3.6c0.6,1.2,1.4,1.6,3,2.1l37.5,11c1.3,0.4,1.8,1.8,1.8,1.8c0.9,2.3,2.1,4.2,7.9,6l30.7,8.4c0.4,0.1,3.9,1.2,6.5-1.4l7.2-6.9
		c0,0,0.3-0.3,0.7-0.3l0,0c0.4,0,0.7,0.3,0.7,0.3l7.2,6.9c2.6,2.6,6.2,1.5,6.5,1.4l30.7-8.4c5.9-1.8,7-3.7,7.9-6
		c0,0,0.5-1.4,1.8-1.8l37.5-11c1.5-0.5,2.4-0.9,3-2.1l2.1-3.6c0.5-0.9,1.3-1,1.3-1c2.8-0.4,3.7-2,4-2.6l1.7-2.9c0.5-0.9,1.3-1,1.3-1
		c1.6-0.1,2.4-0.5,3-1.6l1.6-2.7C261.1,427.8,260.8,426.8,260.4,426.1z M161.2,431.6L161.2,431.6c0.3-1.4,0.9-2.5,1.8-3.4
		c1.2-1.2,2.9-1.8,4.9-1.8c0,0,20.1,0,41.2,0c-1.4,1.1-2.2,2.4-2.2,2.5c-0.5,0.9-1.1,1.9-1.8,3.1H161
		C161.1,431.8,161.2,431.6,161.2,431.6L161.2,431.6z M195.5,441.5L195.5,441.5v-2.1l4,0.5c-0.5,0.7-1.1,1.3-1.7,2
		C196.8,441.8,196,441.6,195.5,441.5z M196.8,443.1c-0.4,0.5-0.8,0.9-1.3,1.4v-1.6L196.8,443.1z M195.5,438.1L195.5,438.1v-1.8
		l6.4,0.4c-0.5,0.7-1,1.3-1.5,2L195.5,438.1z M195.5,435L195.5,435v-1.7h8.8c-0.4,0.7-0.9,1.4-1.5,2.2L195.5,435z M131.7,426.4
		L131.7,426.4L131.7,426.4c2.1,0,3.7,0.6,4.9,1.8c0.9,0.9,1.5,2,1.8,3.4c0,0,0.1,0.2,0.1,0.4h-44c-0.7-1.1-1.8-3.1-1.8-3.1
		c0-0.1-0.8-1.4-2.2-2.5C111.6,426.4,131.7,426.4,131.7,426.4z M101.8,442c-0.6-0.7-1.1-1.3-1.7-2l3.9-0.5v2.1L101.8,442z
		 M104,442.8v1.6c-0.4-0.5-0.9-0.9-1.3-1.4C103.3,443,103.7,442.9,104,442.8z M99.2,438.8c-0.5-0.7-1-1.4-1.5-2l6.4-0.4l0,0l0,0l0,0
		v1.8L99.2,438.8z M104,435l-7.3,0.5c-0.5-0.8-1-1.5-1.5-2.2h8.7L104,435L104,435z M44.1,432L44.1,432L44.1,432L44.1,432L44.1,432
		c-1.1-0.1-1.4-0.2-1.7-0.8c0,0-1.5-2.5-1.6-2.7c-0.2-0.5-0.3-0.8-0.3-1c0-0.6,0.4-1.1,1.5-1.1h44.7c3,0,4.8,3.1,4.8,3.1
		c0.4,0.7,0.9,1.6,1.4,2.5H44.1z M50.2,438.3L50.2,438.3L50.2,438.3c-1.1-0.4-1.5-1.1-1.7-1.5c-0.7-1.2-1.6-3-2.1-3.5h47.3
		c0.5,0.7,0.9,1.5,1.5,2.3l-41.5,2.8C53.1,438.4,51.2,438.6,50.2,438.3z M57.9,444.3c-1.5,0.2-2-0.3-2.1-0.4l-2-3.5
		c-0.1-0.3-0.3-0.5-0.5-0.7c0.3,0,42.8-2.9,42.8-2.9c0.5,0.7,1,1.4,1.5,2.1L57.9,444.3L57.9,444.3z M67.5,448.1L67.5,448.1
		c-4.1-1.2-7.5-2.2-8.9-2.6l40-5.4c0.5,0.7,1.1,1.4,1.7,2.1L73,447.9C71.9,448.1,69,448.5,67.5,448.1z M81.1,452.1L81.1,452.1
		L81.1,452.1c-3.1-0.9-6.3-1.8-9.3-2.7c0.8-0.1,1.4-0.2,1.4-0.2s19.8-4.1,28.1-5.8c0.8,0.9,1.7,1.8,2.6,2.8l-18.3,5.7
		C85.5,451.8,83,452.6,81.1,452.1z M95.4,456.3L95.4,456.3L95.4,456.3c-0.4-0.1-4.7-1.4-10.4-3c0.5-0.1,0.9-0.2,0.9-0.3
		c0,0,15.4-4.7,19-5.9c1.3,1.3,2.7,2.5,4.2,3.8l-9.9,4.6C98.6,455.9,96.7,456.7,95.4,456.3z M120.5,447.1h8l-11.2,8
		c-1.9-1.2-3.8-2.5-5.7-3.9C115.8,449.3,119.7,447.4,120.5,447.1L120.5,447.1L120.5,447.1z M132,461.5c-2.3-0.6-4.5-1.4-6.7-2.3
		c4.6-4.8,10.2-10.7,11.6-12.1l0,0h3.7L132,461.5z M142,447.1h3.1l-4.5,16.2c-2.5-0.3-4.9-0.8-7.3-1.4
		C136.6,456.3,140.9,448.9,142,447.1z M124,458.6c-1.9-0.8-3.7-1.8-5.5-2.8c5.3-3.8,10.8-7.8,12.2-8.8l0,0h4.3L124,458.6z
		 M110.5,450.3c-0.1-0.1-2.7-2.2-3.7-3.3h10.7L110.5,450.3z M103.3,463.5c-3.9-1.5-4.5-2.9-5-4.3c0-0.1-0.3-0.9-1-1.6
		c1.3-0.2,2.4-0.8,2.5-0.8c0,0,5.2-2.5,10.5-4.9c1.9,1.5,3.8,2.9,5.9,4.1l-9.3,6.6C106.8,462.6,104.9,464,103.3,463.5z M114.4,466.7
		L114.4,466.7l-8.2-2.2c0.8-0.4,1.4-0.8,1.4-0.8s4.6-3.3,9.7-6.9c1.8,1.1,3.7,2.1,5.7,2.9l-5.4,5.6
		C117.2,465.7,115.7,467,114.4,466.7z M125.8,469.8L125.8,469.8L125.8,469.8l-8.8-2.4c0.9-0.5,1.6-1.2,1.6-1.2s2.5-2.6,5.7-6
		c2.3,1,4.6,1.8,7,2.5l-2.9,4.9C128,468.3,126.8,469.9,125.8,469.8z M137.3,472.2c-0.5,0.3-1.1,0.4-1.8,0.2l-7.7-2.1
		c0.9-0.8,1.6-1.9,1.7-2.1c0,0,1.3-2.2,3.1-5.2c2.5,0.7,5.1,1.2,7.7,1.5l-1.5,5.4l0,0C138.8,470,138.4,471.5,137.3,472.2z
		 M140.7,471.5c-0.6,0.6-1.2,0.9-1.9,1.1c0.9-1,1.2-2.2,1.2-2.4l1.5-5.5c1.9,0.2,3.9,0.4,5.8,0.4
		C145.8,466.7,140.7,471.5,140.7,471.5z M149.1,463.9c-2.5,0-4.9-0.2-7.2-0.4l0,0l0,0l4.5-16.4h2.7V463.9z M105.4,445.8L105.4,445.8
		L105.4,445.8C105.4,445.8,105.3,445.8,105.4,445.8v-12.5h88.9v12.5l0,0H105.4z M159.1,447.1L159.1,447.1h3.7l11.6,12.1
		c-2.2,0.9-4.4,1.7-6.7,2.3L159.1,447.1z M166.3,461.9c-2.4,0.6-4.8,1.1-7.3,1.4l-4.5-16.2h3.1l0,0L166.3,461.9z M164.5,447.1h4.3
		l12.2,8.8c-1.8,1-3.6,1.9-5.5,2.8C171.6,454.4,166.7,449.4,164.5,447.1z M171.1,447.1L171.1,447.1L171.1,447.1L171.1,447.1h8
		l8.9,4.1c-1.8,1.4-3.7,2.7-5.7,3.9C178,452.1,173.5,448.8,171.1,447.1z M182.2,447.1L182.2,447.1L182.2,447.1h10.7
		c-1.1,1.1-3.7,3.2-3.7,3.3C186.5,449.1,184,447.9,182.2,447.1z M150.4,463.9v-16.8h2.7l4.5,16.4
		C155.3,463.7,152.9,463.9,150.4,463.9z M157.7,470.5L157.7,470.5c0,0-4.2-4-5.6-5.3c2-0.1,3.9-0.2,5.8-0.4l1.5,5.5
		c0,0.2,0.3,1.4,1.2,2.4C159.6,472.3,159.2,471.9,157.7,470.5z M164,472.4L164,472.4c-0.7,0.2-1.3,0.1-1.8-0.2
		c-1.1-0.7-1.4-2.2-1.5-2.3l-1.5-5.4c2.6-0.4,5.2-0.9,7.7-1.5l3.1,5.3c0.1,0.2,0.7,1.3,1.7,2.1L164,472.4z M173.8,469.8L173.8,469.8
		L173.8,469.8c-1,0.2-2.2-1.5-2.6-2.2l-2.9-5c2.4-0.7,4.7-1.5,7-2.5l5.7,6c0.1,0,0.7,0.7,1.6,1.2L173.8,469.8z M186.6,466.3
		L186.6,466.3l-1.5,0.4c-1.2,0.3-2.7-0.9-3.2-1.4c0,0-2.4-2.5-5.4-5.6c1.9-0.9,3.8-1.9,5.7-2.9l9.7,7c0,0,0.6,0.4,1.4,0.8
		C191.2,465,186.6,466.3,186.6,466.3z M201.3,459.2L201.3,459.2c-0.6,1.4-1.1,2.9-5,4.3c-1.6,0.5-3.5-0.9-3.5-0.9s-4.3-3.1-9.3-6.6
		c2-1.2,4-2.6,5.9-4.1l10.5,4.9c0.1,0,1.1,0.6,2.4,0.8C201.6,458.3,201.3,459,201.3,459.2L201.3,459.2z M204.2,456.3L204.2,456.3
		c-1.3,0.4-3.2-0.4-3.9-0.7c0,0-4.9-2.3-9.9-4.6c1.5-1.2,2.9-2.5,4.2-3.8l19,5.9c0,0,0.4,0.1,0.9,0.2L204.2,456.3z M218.5,452.1
		L218.5,452.1c-1.9,0.5-4.4-0.3-4.5-0.3l0,0l0,0l-18.3-5.6c0.9-0.9,1.8-1.8,2.6-2.8l28.1,5.8c0.1,0,0.6,0.1,1.4,0.2L218.5,452.1
		L218.5,452.1z M232.1,448.1L232.1,448.1c-1.5,0.4-4.4-0.1-5.4-0.3c0,0-18.7-3.8-27.3-5.6c0.6-0.7,1.2-1.4,1.7-2.1l40,5.4
		L232.1,448.1L232.1,448.1z M245.8,440.4L245.8,440.4c0,0-1.6,2.9-2,3.5c-0.1,0.1-0.6,0.6-2.1,0.4l-39.8-5.3
		c0.5-0.7,1.1-1.4,1.5-2.1l42.3,2.8c0.1,0,0.2,0,0.5,0C246.1,439.9,245.9,440.2,245.8,440.4z M252.8,433.8L252.8,433.8L252.8,433.8
		l-1.7,3c-0.2,0.4-0.6,1.1-1.7,1.5c-1,0.2-2.8,0.1-3.5,0l-41.5-2.8c0.5-0.8,1-1.6,1.5-2.3h47.3C253.1,433.5,252.9,433.6,252.8,433.8
		z M258.8,428.5L258.8,428.5L258.8,428.5l-1.6,2.7c-0.3,0.5-0.5,0.7-1.7,0.8h-48.8c0.5-0.9,1-1.8,1.4-2.5c0,0,1.7-3.1,4.8-3.1h44.7
		c0.5,0,1.1,0.1,1.4,0.6c0,0.1,0.1,0.2,0.1,0.5C259.1,427.7,259,428.1,258.8,428.5z"/>
	<line class="st4" x1="171.1" y1="447.1" x2="171.1" y2="447.1"/>
	<line class="st4" x1="182.2" y1="447.1" x2="182.2" y2="447.1"/>
</g>
<g>
	<path class="st3" d="M-27.3,426.1c-0.8-1.3-2.2-1.4-2.8-1.4h-89.7c-2.5,0-4.6,0.8-6.1,2.3c-1.1,1.1-1.8,2.5-2.2,4.2
		c0,0-0.1,0.4-0.9,0.4h-17.7c-0.8,0-0.9-0.4-0.9-0.4c-0.4-1.7-1.1-3.1-2.2-4.2c-1.5-1.5-3.6-2.3-6.1-2.3h-89.8c-0.6,0-2,0.1-2.8,1.4
		c-0.4,0.6-0.6,1.7,0.2,3.2l1.6,2.7c0.7,1.1,1.4,1.5,3,1.6c0,0,0.8,0.1,1.3,1l1.7,2.9c0.4,0.7,1.2,2.3,4,2.6c0,0,0.9,0.1,1.3,1
		l2.1,3.6c0.6,1.2,1.4,1.6,3,2.1l37.5,11c1.3,0.4,1.8,1.8,1.8,1.8c0.9,2.3,2.1,4.2,7.9,6l30.7,8.4c0.4,0.1,3.9,1.2,6.5-1.4l7.2-6.9
		c0,0,0.3-0.3,0.7-0.3l0,0c0.4,0,0.7,0.3,0.7,0.3l7.2,6.9c2.6,2.6,6.2,1.5,6.5,1.4l30.7-8.4c5.9-1.8,7-3.7,7.9-6
		c0,0,0.5-1.4,1.8-1.8l37.5-11c1.5-0.5,2.4-0.9,3-2.1l2.1-3.6c0.5-0.9,1.3-1,1.3-1c2.8-0.4,3.7-2,4-2.6l1.7-2.9c0.5-0.9,1.3-1,1.3-1
		c1.6-0.1,2.4-0.5,3-1.6l1.6-2.7C-26.6,427.8-26.9,426.8-27.3,426.1z M-126.5,431.6L-126.5,431.6c0.3-1.4,0.9-2.5,1.8-3.4
		c1.2-1.2,2.9-1.8,4.9-1.8c0,0,20.1,0,41.2,0c-1.4,1.1-2.2,2.4-2.2,2.5c-0.5,0.9-1.1,1.9-1.8,3.1h-44.1
		C-126.6,431.8-126.5,431.6-126.5,431.6L-126.5,431.6z M-92.2,441.5L-92.2,441.5v-2.1l4,0.5c-0.5,0.7-1.1,1.3-1.7,2
		C-90.9,441.8-91.7,441.6-92.2,441.5z M-90.9,443.1c-0.4,0.5-0.8,0.9-1.3,1.4v-1.6L-90.9,443.1z M-92.2,438.1L-92.2,438.1v-1.8
		l6.4,0.4c-0.5,0.7-1,1.3-1.5,2L-92.2,438.1z M-92.2,435L-92.2,435v-1.7h8.8c-0.4,0.7-0.9,1.4-1.5,2.2L-92.2,435z M-156,426.4
		L-156,426.4L-156,426.4c2.1,0,3.7,0.6,4.9,1.8c0.9,0.9,1.5,2,1.8,3.4c0,0,0.1,0.2,0.1,0.4h-44c-0.7-1.1-1.8-3.1-1.8-3.1
		c0-0.1-0.8-1.4-2.2-2.5C-176.1,426.4-156,426.4-156,426.4z M-185.9,442c-0.6-0.7-1.1-1.3-1.7-2l3.9-0.5v2.1L-185.9,442z
		 M-183.7,442.8v1.6c-0.4-0.5-0.9-0.9-1.3-1.4C-184.4,443-184,442.9-183.7,442.8z M-188.5,438.8c-0.5-0.7-1-1.4-1.5-2l6.4-0.4l0,0
		l0,0l0,0v1.8L-188.5,438.8z M-183.7,435l-7.3,0.5c-0.5-0.8-1-1.5-1.5-2.2h8.7L-183.7,435L-183.7,435z M-243.6,432L-243.6,432
		L-243.6,432L-243.6,432L-243.6,432c-1.1-0.1-1.4-0.2-1.7-0.8c0,0-1.5-2.5-1.6-2.7c-0.2-0.5-0.3-0.8-0.3-1c0-0.6,0.4-1.1,1.5-1.1
		h44.7c3,0,4.8,3.1,4.8,3.1c0.4,0.7,0.9,1.6,1.4,2.5H-243.6z M-237.5,438.3L-237.5,438.3L-237.5,438.3c-1.1-0.4-1.5-1.1-1.7-1.5
		c-0.7-1.2-1.6-3-2.1-3.5h47.3c0.5,0.7,0.9,1.5,1.5,2.3l-41.5,2.8C-234.6,438.4-236.5,438.6-237.5,438.3z M-229.8,444.3
		c-1.5,0.2-2-0.3-2.1-0.4l-2-3.5c-0.1-0.3-0.3-0.5-0.5-0.7c0.3,0,42.8-2.9,42.8-2.9c0.5,0.7,1,1.4,1.5,2.1L-229.8,444.3
		L-229.8,444.3z M-220.2,448.1L-220.2,448.1c-4.1-1.2-7.5-2.2-8.9-2.6l40-5.4c0.5,0.7,1.1,1.4,1.7,2.1l-27.3,5.7
		C-215.8,448.1-218.7,448.5-220.2,448.1z M-206.6,452.1L-206.6,452.1L-206.6,452.1c-3.1-0.9-6.3-1.8-9.3-2.7
		c0.8-0.1,1.4-0.2,1.4-0.2s19.8-4.1,28.1-5.8c0.8,0.9,1.7,1.8,2.6,2.8l-18.3,5.7C-202.2,451.8-204.7,452.6-206.6,452.1z
		 M-192.3,456.3L-192.3,456.3L-192.3,456.3c-0.4-0.1-4.7-1.4-10.4-3c0.5-0.1,0.9-0.2,0.9-0.3c0,0,15.4-4.7,19-5.9
		c1.3,1.3,2.7,2.5,4.2,3.8l-9.9,4.6C-189.1,455.9-191,456.7-192.3,456.3z M-167.2,447.1h8l-11.2,8c-1.9-1.2-3.8-2.5-5.7-3.9
		C-171.9,449.3-168,447.4-167.2,447.1L-167.2,447.1L-167.2,447.1z M-155.7,461.5c-2.3-0.6-4.5-1.4-6.7-2.3
		c4.6-4.8,10.2-10.7,11.6-12.1l0,0h3.7L-155.7,461.5z M-145.7,447.1h3.1l-4.5,16.2c-2.5-0.3-4.9-0.8-7.3-1.4
		C-151.1,456.3-146.8,448.9-145.7,447.1z M-163.7,458.6c-1.9-0.8-3.7-1.8-5.5-2.8c5.3-3.8,10.8-7.8,12.2-8.8l0,0h4.3L-163.7,458.6z
		 M-177.2,450.3c-0.1-0.1-2.7-2.2-3.7-3.3h10.7L-177.2,450.3z M-184.4,463.5c-3.9-1.5-4.5-2.9-5-4.3c0-0.1-0.3-0.9-1-1.6
		c1.3-0.2,2.4-0.8,2.5-0.8c0,0,5.2-2.5,10.5-4.9c1.9,1.5,3.8,2.9,5.9,4.1l-9.3,6.6C-180.9,462.6-182.8,464-184.4,463.5z
		 M-173.3,466.7L-173.3,466.7l-8.2-2.2c0.8-0.4,1.4-0.8,1.4-0.8s4.6-3.3,9.7-6.9c1.8,1.1,3.7,2.1,5.7,2.9l-5.4,5.6
		C-170.5,465.7-172,467-173.3,466.7z M-161.9,469.8L-161.9,469.8L-161.9,469.8l-8.8-2.4c0.9-0.5,1.6-1.2,1.6-1.2s2.5-2.6,5.7-6
		c2.3,1,4.6,1.8,7,2.5l-2.9,4.9C-159.7,468.3-160.9,469.9-161.9,469.8z M-150.4,472.2c-0.5,0.3-1.1,0.4-1.8,0.2l-7.7-2.1
		c0.9-0.8,1.6-1.9,1.7-2.1c0,0,1.3-2.2,3.1-5.2c2.5,0.7,5.1,1.2,7.7,1.5l-1.5,5.4l0,0C-148.9,470-149.3,471.5-150.4,472.2z
		 M-147,471.5c-0.6,0.6-1.2,0.9-1.9,1.1c0.9-1,1.2-2.2,1.2-2.4l1.5-5.5c1.9,0.2,3.9,0.4,5.8,0.4C-141.9,466.7-147,471.5-147,471.5z
		 M-138.6,463.9c-2.5,0-4.9-0.2-7.2-0.4l0,0l0,0l4.5-16.4h2.7V463.9z M-182.3,445.8L-182.3,445.8L-182.3,445.8
		C-182.3,445.8-182.4,445.8-182.3,445.8v-12.5h88.9v12.5l0,0H-182.3z M-128.6,447.1L-128.6,447.1h3.7l11.6,12.1
		c-2.2,0.9-4.4,1.7-6.7,2.3L-128.6,447.1z M-121.4,461.9c-2.4,0.6-4.8,1.1-7.3,1.4l-4.5-16.2h3.1l0,0L-121.4,461.9z M-123.2,447.1
		h4.3l12.2,8.8c-1.8,1-3.6,1.9-5.5,2.8C-116.1,454.4-121,449.4-123.2,447.1z M-116.6,447.1L-116.6,447.1L-116.6,447.1L-116.6,447.1
		h8l8.9,4.1c-1.8,1.4-3.7,2.7-5.7,3.9C-109.7,452.1-114.2,448.8-116.6,447.1z M-105.5,447.1L-105.5,447.1L-105.5,447.1h10.7
		c-1.1,1.1-3.7,3.2-3.7,3.3C-101.2,449.1-103.7,447.9-105.5,447.1z M-137.3,463.9v-16.8h2.7l4.5,16.4
		C-132.4,463.7-134.8,463.9-137.3,463.9z M-130,470.5L-130,470.5c0,0-4.2-4-5.6-5.3c2-0.1,3.9-0.2,5.8-0.4l1.5,5.5
		c0,0.2,0.3,1.4,1.2,2.4C-128.1,472.3-128.5,471.9-130,470.5z M-123.7,472.4L-123.7,472.4c-0.7,0.2-1.3,0.1-1.8-0.2
		c-1.1-0.7-1.4-2.2-1.5-2.3l-1.5-5.4c2.6-0.4,5.2-0.9,7.7-1.5l3.1,5.3c0.1,0.2,0.7,1.3,1.7,2.1L-123.7,472.4z M-113.9,469.8
		L-113.9,469.8L-113.9,469.8c-1,0.2-2.2-1.5-2.6-2.2l-2.9-5c2.4-0.7,4.7-1.5,7-2.5l5.7,6c0.1,0,0.7,0.7,1.6,1.2L-113.9,469.8z
		 M-101.1,466.3L-101.1,466.3l-1.5,0.4c-1.2,0.3-2.7-0.9-3.2-1.4c0,0-2.4-2.5-5.4-5.6c1.9-0.9,3.8-1.9,5.7-2.9l9.7,7
		c0,0,0.6,0.4,1.4,0.8C-96.5,465-101.1,466.3-101.1,466.3z M-86.4,459.2L-86.4,459.2c-0.6,1.4-1.1,2.9-5,4.3
		c-1.6,0.5-3.5-0.9-3.5-0.9s-4.3-3.1-9.3-6.6c2-1.2,4-2.6,5.9-4.1l10.5,4.9c0.1,0,1.1,0.6,2.4,0.8C-86.1,458.3-86.4,459-86.4,459.2
		L-86.4,459.2z M-83.5,456.3L-83.5,456.3c-1.3,0.4-3.2-0.4-3.9-0.7c0,0-4.9-2.3-9.9-4.6c1.5-1.2,2.9-2.5,4.2-3.8l19,5.9
		c0,0,0.4,0.1,0.9,0.2L-83.5,456.3z M-69.2,452.1L-69.2,452.1c-1.9,0.5-4.4-0.3-4.5-0.3l0,0l0,0l-18.3-5.6c0.9-0.9,1.8-1.8,2.6-2.8
		l28.1,5.8c0.1,0,0.6,0.1,1.4,0.2L-69.2,452.1L-69.2,452.1z M-55.6,448.1L-55.6,448.1c-1.5,0.4-4.4-0.1-5.4-0.3
		c0,0-18.7-3.8-27.3-5.6c0.6-0.7,1.2-1.4,1.7-2.1l40,5.4L-55.6,448.1L-55.6,448.1z M-41.9,440.4L-41.9,440.4c0,0-1.6,2.9-2,3.5
		c-0.1,0.1-0.6,0.6-2.1,0.4l-39.8-5.3c0.5-0.7,1.1-1.4,1.5-2.1l42.3,2.8c0.1,0,0.2,0,0.5,0C-41.6,439.9-41.8,440.2-41.9,440.4z
		 M-34.9,433.8L-34.9,433.8L-34.9,433.8l-1.7,3c-0.2,0.4-0.6,1.1-1.7,1.5c-1,0.2-2.8,0.1-3.5,0l-41.5-2.8c0.5-0.8,1-1.6,1.5-2.3
		h47.3C-34.6,433.5-34.8,433.6-34.9,433.8z M-28.9,428.5L-28.9,428.5L-28.9,428.5l-1.6,2.7c-0.3,0.5-0.5,0.7-1.7,0.8H-81
		c0.5-0.9,1-1.8,1.4-2.5c0,0,1.7-3.1,4.8-3.1h44.7c0.5,0,1.1,0.1,1.4,0.6c0,0.1,0.1,0.2,0.1,0.5C-28.6,427.7-28.7,428.1-28.9,428.5z
		"/>
	<line class="st3" x1="-116.6" y1="447.1" x2="-116.6" y2="447.1"/>
	<line class="st3" x1="-105.5" y1="447.1" x2="-105.5" y2="447.1"/>
	<path class="st3" d="M-176.5,435.3h-0.4l-3.8,8.5h1l0,0c0.3-1,0.7-2,1.1-3c0,0,0.1-0.1,0.1-0.2c0.1,0,2.8,0,2.9,0
		c0.4,0.9,0.8,1.9,1.2,3.2l0,0h1.4L-176.5,435.3L-176.5,435.3z M-178.1,439.9c0.1-0.2,1.1-2.5,1.2-2.8c0.1,0.3,1.1,2.6,1.2,2.8
		C-175.9,439.9-177.9,439.9-178.1,439.9z"/>
	<path class="st3" d="M-169.4,439c-0.9-0.4-1.7-0.7-1.7-1.7c0-0.8,0.6-1.3,1.4-1.3c0.7,0,1.2,0.4,1.4,1l0,0h0.2l0.4-1.1l0,0
		c-0.5-0.4-1.2-0.6-1.8-0.6c-1.7,0-2.7,0.9-2.7,2.4s1.1,1.9,2.1,2.3c0.9,0.3,1.7,0.7,1.7,1.7c0,0.9-0.7,1.7-1.6,1.7
		c-0.8,0-1.4-0.4-1.9-1.2l0,0h-0.2l-0.2,1.2l0,0c0.4,0.5,1.5,0.7,2,0.7c1.8,0,3-1.1,3-2.8C-167.3,439.8-168.4,439.4-169.4,439z"/>
	<path class="st3" d="M-172.4,443.2L-172.4,443.2L-172.4,443.2z"/>
	<path class="st3" d="M-160.5,436.3v-0.9h-0.1h-6.3v0.9h0.1c0.7-0.1,1.4-0.1,2.5-0.1c0,0.1,0,7.6,0,7.6h1.2c0,0,0-7.5,0-7.6
		C-162.2,436.2-161.4,436.2-160.5,436.3L-160.5,436.3z"/>
	<path class="st3" d="M-156.3,435.3c-2.7,0-4.5,1.8-4.5,4.3c0,2.6,1.8,4.3,4.5,4.3c2.8,0,4.6-1.8,4.6-4.5
		C-151.7,436.6-154,435.3-156.3,435.3z M-154.1,442.5c-0.6,0.6-1.3,0.9-2.2,0.9c-1.9,0-3.2-1.4-3.2-3.6c0-2.4,1.3-3.9,3.3-3.9
		c1,0,1.9,0.4,2.4,1.1c0.6,0.8,0.7,1.6,0.7,2.6c0,0.1,0,0.1,0,0.2C-153,440.5-153.3,441.7-154.1,442.5z"/>
	<path class="st3" d="M-143.4,435.5h-0.7c0,0,0,6,0,6.2l0,0l-5.7-6.2h-0.6v8.3h0.8c0,0,0-6.3,0-6.4l0,0l5.1,5.7l0.6,0.7l0,0h0.4
		L-143.4,435.5L-143.4,435.5L-143.4,435.5z"/>
	<path class="st3" d="M-129.8,435.5L-129.8,435.5L-129.8,435.5L-129.8,435.5l-0.4-0.1l-2,3.7c0,0-1.3,2.3-1.4,2.5
		c-1.2-2.1-2.4-4.3-3.3-6.2l0,0h-0.4v0.1c-0.1,1.2-0.8,6.2-1.1,8.2v0.1h1v-0.1c0-1.2,0.2-2.9,0.4-4.8c0,0,0.1-0.8,0.1-1.1
		c0.1,0.3,1.7,3.2,2.3,4.5l0.7,1.4h0.2l0,0c0.7-1.6,1.7-3.4,3-5.8c0.2,1.4,0.4,4.3,0.6,5.9v0.1h1.3v-0.1
		C-129.2,441.7-129.5,439-129.8,435.5z"/>
	<path class="st3" d="M-124.2,435.3h-0.4l-3.8,8.5h1l0,0c0.3-1,0.7-2,1.1-3c0,0,0-0.1,0.1-0.2c0.1,0,2.8,0,2.9,0
		c0.4,0.9,0.8,2,1.2,3.2l0,0h1.4L-124.2,435.3L-124.2,435.3z M-125.9,439.9c0.1-0.2,1.1-2.5,1.2-2.8c0.1,0.3,1.1,2.6,1.2,2.8
		C-123.7,439.9-125.7,439.9-125.9,439.9z"/>
	<path class="st3" d="M-116.9,439.7c1.5-0.3,2.4-1.2,2.4-2.3c0-1.3-0.9-1.9-2.7-1.9h-2.6v8.3h1.2c0,0,0-3.8,0-4c0.1,0,0.3,0,0.3,0
		l0.9,1.1l1.4,1.8l0.8,1.1l0,0h1.5C-113.6,443.8-116.8,439.9-116.9,439.7L-116.9,439.7z M-118.6,439.2c0-0.1,0-3,0-3.1
		c0.5,0,1.3-0.1,1.7,0c0.8,0.1,1.3,0.6,1.3,1.4s-0.5,1.4-1.5,1.6C-117.7,439.2-118.3,439.2-118.6,439.2z"/>
	<path class="st3" d="M-107.6,435.5h-6.3v0.9h0.1c0.7-0.1,1.4-0.1,2.5-0.1c0,0.1,0,7.6,0,7.6h1.2c0,0,0-7.5,0-7.6
		c0.8,0,1.7,0,2.4,0.1h0.1V435.5L-107.6,435.5L-107.6,435.5z"/>
	<rect x="-106.5" y="435.5" class="st3" width="1.1" height="8.3"/>
	<line class="st3" x1="-97.3" y1="435.5" x2="-97.3" y2="435.5"/>
	<path class="st3" d="M-97.3,441.6L-97.3,441.6c-0.1,0-5.7-6.2-5.7-6.2h-0.6v8.3h0.8c0,0,0-6.3,0-6.4l0,0l5.2,5.7l0.6,0.7h0.5v-8.3
		h-0.8C-97.3,435.5-97.3,441.5-97.3,441.6z"/>
</g>
<g>
	<g>
		<path class="st5" d="M-30.1,538.5c0.9,0,1.2,0.4,1.3,0.5c0.1,0.2,0.3,0.5-0.3,1.3l-0.1,0.1l0,0.1l-1.6,2.7l0,0l0,0
			c-0.2,0.4-0.3,0.6-1.6,0.7l-0.1,0l-0.1,0c-0.8,0.1-1.9,0.6-2.6,1.9l-1.7,2.9l0,0.1l0,0.1c-0.2,0.3-0.7,1.4-2.7,1.6
			c-0.8,0.1-1.9,0.6-2.6,1.9l-2.1,3.6l0,0l0,0.1c-0.3,0.5-0.5,0.7-2,1.2l-37.5,11c-2,0.6-2.8,2.5-2.9,2.8c-0.7,1.7-1.3,3.3-6.8,4.9
			l-30.7,8.4l0,0l0,0c0,0-0.7,0.2-1.6,0.2c-1.3,0-2.3-0.4-3.1-1.2l-7.2-6.9c-0.2-0.2-0.9-0.8-1.9-0.8c-1,0-1.7,0.6-1.9,0.8l-7.2,6.9
			c-0.8,0.8-1.8,1.2-3.1,1.2c-0.8,0-1.4-0.2-1.7-0.2l-0.1,0l-30.7-8.4c-5.5-1.7-6.1-3.4-6.8-4.9c-0.1-0.4-0.9-2.2-2.9-2.9l-37.5-11
			c-1.5-0.5-1.7-0.7-2-1.2l0-0.1l0,0l-2.1-3.5c-0.6-1.3-1.8-1.8-2.7-1.9c-1.8-0.2-2.3-1-2.6-1.6l-0.1-0.1l-1.7-2.9
			c-0.7-1.2-1.8-1.8-2.6-1.9l-0.1,0l-0.1,0c-1.2-0.1-1.3-0.3-1.6-0.8l-1.6-2.6c-0.4-0.8-0.3-1.3-0.3-1.4l0,0l0,0
			c0.1-0.2,0.3-0.6,1.3-0.6h89.8c2,0,3.7,0.6,4.9,1.8c0.8,0.8,1.4,1.9,1.7,3.4c0.2,0.8,1,1.7,2.6,1.7h17.7c1.6,0,2.4-0.9,2.6-1.7
			c0.3-1.4,0.9-2.5,1.7-3.4c1.2-1.2,2.9-1.8,4.9-1.8H-30.1 M-30.1,536.7h-89.7c-2.5,0-4.6,0.8-6.1,2.3c-1.1,1.1-1.8,2.5-2.2,4.2
			c0,0-0.1,0.4-0.9,0.4h-17.7c-0.8,0-0.9-0.4-0.9-0.4c-0.4-1.7-1.1-3.1-2.2-4.2c-1.5-1.5-3.6-2.3-6.1-2.3h-89.8
			c-0.6,0-2,0.1-2.8,1.4c-0.4,0.6-0.6,1.7,0.2,3.2l1.6,2.7c0.7,1.1,1.4,1.5,3,1.6c0,0,0.8,0.1,1.3,1l1.7,2.9c0.4,0.7,1.2,2.3,4,2.6
			c0,0,0.9,0.1,1.3,1l2.1,3.6c0.6,1.2,1.4,1.6,3,2.1l37.5,11c1.3,0.4,1.8,1.8,1.8,1.8c0.9,2.3,2.1,4.2,7.9,6l30.7,8.4
			c0.2,0,1.1,0.3,2.2,0.3c1.3,0,2.9-0.3,4.3-1.7l7.2-6.9c0,0,0.3-0.3,0.7-0.3c0.4,0,0.7,0.3,0.7,0.3l7.2,6.9c1.4,1.4,3,1.7,4.3,1.7
			c1.2,0,2-0.3,2.2-0.3l30.7-8.4c5.9-1.8,7-3.7,7.9-6c0,0,0.5-1.4,1.8-1.8l37.5-11c1.5-0.5,2.4-0.9,3-2.1l2.1-3.6
			c0.5-0.9,1.3-1,1.3-1c2.8-0.4,3.7-2,4-2.6l1.7-2.9c0.5-0.9,1.3-1,1.3-1c1.6-0.1,2.4-0.5,3-1.6l1.6-2.7c1.1-1.5,0.8-2.5,0.4-3.2
			C-28.1,536.8-29.5,536.7-30.1,536.7L-30.1,536.7z"/>
	</g>
</g>
<g>
	<line class="st6" x1="-115.5" y1="582.3" x2="-128.3" y2="560.5"/>
	<line class="st6" x1="-103.9" y1="560.6" x2="-85" y2="569.6"/>
	<line class="st6" x1="-57" y1="561.5" x2="-91.6" y2="554.2"/>
	<line class="st6" x1="-132.8" y1="560.6" x2="-125.1" y2="585.4"/>
	<line class="st6" x1="-121.9" y1="560.6" x2="-103.6" y2="579.8"/>
	<line class="st6" x1="-114.8" y1="560.6" x2="-91.9" y2="576.5"/>
	<line class="st6" x1="-91.7" y1="559" x2="-70.6" y2="565.5"/>
	<line class="st6" x1="-91.8" y1="550.8" x2="-44.1" y2="557.2"/>
	<line class="st6" x1="-91.8" y1="547.7" x2="-38.9" y2="551.4"/>
</g>
<g>
	<polygon class="st7" points="-183.5,513.2 -178.4,513.2 -181,507.2 	"/>
	<path class="st7" d="M-134.4,507.3c-1.2-1.5-3-2.3-4.9-2.3c-4.1,0-6.6,3-6.6,7.8c0,4.7,2.9,7.2,6.4,7.2c4.9,0,6.7-5,6.6-7.6
		C-132.9,510.5-133.1,508.8-134.4,507.3z"/>
	<polygon class="st7" points="-79.6,513.2 -74.5,513.2 -77.1,507.2 	"/>
	<path class="st7" d="M-58.9,508.4c0-1.6-0.8-2.8-2.5-3c-0.8-0.1-2.4-0.1-3.4,0v6.4c0.4,0,1.9,0.1,3.1-0.1
		C-60.1,511.3-58.8,510.2-58.9,508.4z"/>
	<path d="M-180.6,504.3l-7.3,16.2c0.2,0,0.5-0.1,0.8-0.1c0.2,0,0.6,0,0.9,0.1c0.5-2.2,1.3-4.3,2.2-6.3h5.9c0.9,2.2,1.8,4.4,2.4,6.3
		c0.3,0,0.8-0.1,1.3-0.1s0.8,0,1.3,0.1l-7-16.2H-180.6z M-183.5,513.2l2.5-6l2.6,6H-183.5z"/>
	<path d="M-169.6,507.8c0-1.7,1.4-2.7,3-2.7c1.4,0,2.4,0.7,2.8,1.9h0.2c0.2-0.6,0.3-1.4,0.6-1.9c-0.9-0.8-2.3-1.1-3.3-1.1
		c-2.8,0-5.2,1.5-5.2,4.4c0,5.2,7.3,3.3,7.3,7.7c0,1.9-1.3,3.4-3.2,3.4c-1.8,0-2.8-0.9-3.8-2.4h-0.2c-0.1,0.7-0.2,1.4-0.5,2
		c0.8,0.9,2.7,1.4,3.8,1.4c3.2,0,5.7-1.9,5.7-5.3C-162.3,510.4-169.6,512.1-169.6,507.8z"/>
	<path d="M-160.6,504.4c0,0.2,0.1,0.5,0.1,0.7s-0.1,0.5-0.1,0.7c1.2-0.1,2.7-0.2,5-0.2v14.9c0.2,0,0.6-0.1,1-0.1
		c0.3,0,0.6,0.1,1,0.1v-14.9c2,0,3.6,0.2,4.9,0.2c0-0.2-0.1-0.5-0.1-0.7s0.1-0.5,0.1-0.7H-160.6z"/>
	<path d="M-139.4,504.1c-4.9,0-8.6,3.2-8.6,8.3c0,5,3.4,8.3,8.6,8.3c5.1,0,8.8-3.3,8.8-8.6C-130.6,506.5-135.1,504.1-139.4,504.1z
		 M-139.4,520c-3.5,0-6.4-2.5-6.4-7.2c0-4.8,2.4-7.8,6.6-7.8c1.9,0,3.6,0.8,4.9,2.3c1.3,1.5,1.5,3.2,1.5,5.1
		C-132.7,515-134.5,520-139.4,520z"/>
	<path d="M-115.1,504.5v12h-0.2l-11.1-12h-0.9v15.9c0.2,0,0.5-0.1,0.6-0.1s0.5,0,0.6,0.1c-0.1,0-0.1-12.5-0.1-12.5h0.2l10,11.1
		c0.5,0.6,1,1.1,1.3,1.5h0.7v-15.9c-0.2,0-0.5,0.1-0.6,0.1C-114.7,504.6-114.9,504.5-115.1,504.5z"/>
	<path d="M-88,504.4c-2.3,4.2-4.4,8.3-6.7,12.2c-2.5-4.1-4.8-8.5-6.6-12.2h-0.6c-0.2,2.5-1.6,12.2-2.3,15.9c0.2,0,0.6-0.1,0.8-0.1
		c0.2,0,0.6,0,0.8,0.1c0.2-2.8,0.8-7.4,1.4-12c1.6,3.1,3.2,6.1,4.7,9.1l1.3,2.6h0.2c1.4-3.2,3.4-6.9,6.1-11.7
		c0.3,2.3,0.8,7.4,1.1,12c0.3,0,0.7-0.1,1.1-0.1c0.3,0,0.7,0,1.1,0.1c-0.6-4.4-1.3-10.1-1.9-15.9L-88,504.4L-88,504.4z"/>
	<path d="M-76.7,504.3l-7.3,16.2c0.2,0,0.6-0.1,0.8-0.1s0.6,0,0.9,0.1c0.6-2.2,1.4-4.3,2.2-6.3h5.9c0.9,2.2,1.8,4.4,2.4,6.3
		c0.3,0,0.8-0.1,1.3-0.1s0.8,0,1.3,0.1l-7-16.2H-76.7z M-79.6,513.2l2.5-6l2.6,6H-79.6z"/>
	<path d="M-56.7,518.4l-4.9-6.1c2.4-0.3,4.8-1.6,4.8-4.4c0-2.3-1.6-3.6-5.2-3.6h-4.9v15.9c0.3,0,0.6-0.1,1-0.1c0.3,0,0.6,0,1,0.1
		v-7.8h0.9l1.9,2.2l2.8,3.6c0.5,0.6,1,1.4,1.5,2c0.3,0,0.9-0.1,1.4-0.1s0.9,0,1.4,0.1l-0.5-0.6L-56.7,518.4z M-64.9,511.8v-6.4
		c1-0.1,2.6-0.1,3.4,0c1.7,0.2,2.5,1.4,2.5,3c0.2,1.8-1.1,2.9-2.8,3.3C-62.9,511.9-64.4,511.8-64.9,511.8z"/>
	<path d="M-55.1,504.4c0,0.2,0.1,0.5,0.1,0.7s0,0.5-0.1,0.7c1.3-0.1,2.8-0.2,5.1-0.2v14.9c0.3,0,0.7-0.1,1-0.1s0.6,0.1,1.1,0.1
		v-14.9c2,0,3.6,0.2,4.9,0.2c0-0.2-0.1-0.5-0.1-0.7s0.1-0.5,0.1-0.7H-55.1z"/>
	<path d="M-40.3,504.5v15.9c0.3,0,0.7-0.1,1-0.1s0.6,0,1,0.1v-15.9c-0.3,0-0.7,0.1-1,0.1C-39.6,504.6-40,504.5-40.3,504.5z"/>
	<path d="M-21.6,504.5v12h-0.2l-11-12h-0.9v15.9c0.2,0,0.5-0.1,0.7-0.1s0.3,0,0.6,0.1l-0.1-12.5h0.2l10,11.1c0.5,0.6,1,1.1,1.1,1.5
		h0.7v-15.9c-0.2,0-0.5,0.1-0.6,0.1C-21.2,504.6-21.5,504.5-21.6,504.5z"/>
</g>
<rect x="-183.5" y="545" class="st6" width="91.5" height="15.6"/>
<line class="st6" x1="-243.7" y1="545" x2="-32.3" y2="545"/>
<line class="st6" x1="-138" y1="576" x2="-138" y2="560.6"/>
<g>
	<g>
		<path class="st5" d="M-176,549h-0.3l-3.3,7.3h0.9l0,0c0.3-0.9,0.6-1.7,0.9-2.6c0,0,0.1-0.1,0.1-0.2c0.1,0,2.4,0,2.5,0
			c0.3,0.8,0.7,1.6,1,2.8l0,0h1.2L-176,549L-176,549z M-177.4,553c0.1-0.2,0.9-2.2,1-2.4c0.1,0.3,0.9,2.2,1,2.4
			C-175.5,553-177.2,553-177.4,553z"/>
	</g>
	<g>
		<path class="st5" d="M-168.8,552.2c-0.8-0.3-1.5-0.6-1.5-1.5c0-0.7,0.5-1.1,1.2-1.1c0.6,0,1,0.3,1.2,0.9l0,0h0.2l0.3-0.9l0,0
			c-0.4-0.3-1-0.5-1.6-0.5c-1.5,0-2.3,0.8-2.3,2.1c0,1.3,0.9,1.6,1.8,2c0.8,0.3,1.5,0.6,1.5,1.5c0,0.8-0.6,1.5-1.4,1.5
			c-0.7,0-1.2-0.3-1.6-1l0,0h-0.2l-0.2,1l0,0c0.3,0.4,1.3,0.6,1.7,0.6c1.6,0,2.6-0.9,2.6-2.4C-167,552.9-167.9,552.6-168.8,552.2z"
			/>
	</g>
	<g>
		<path class="st5" d="M-160,549.9v-0.8h-0.1h-5.4v0.8h0.1c0.6-0.1,1.2-0.1,2.2-0.1c0,0.1,0,6.6,0,6.6h1c0,0,0-6.5,0-6.6
			C-161.5,549.8-160.8,549.8-160,549.9L-160,549.9z"/>
	</g>
	<g>
		<path class="st5" d="M-155.3,549c-2.3,0-3.9,1.6-3.9,3.7c0,2.2,1.6,3.7,3.9,3.7c2.4,0,4-1.6,4-3.9
			C-151.4,550.2-153.4,549-155.3,549z M-153.4,555.2c-0.5,0.5-1.1,0.8-1.9,0.8c-1.6,0-2.8-1.2-2.8-3.1c0-2.1,1.1-3.4,2.8-3.4
			c0.9,0,1.6,0.3,2.1,0.9c0.5,0.7,0.6,1.4,0.6,2.2c0,0.1,0,0.1,0,0.2C-152.5,553.5-152.8,554.6-153.4,555.2z"/>
	</g>
	<g>
		<path class="st5" d="M-143.1,549.2h-0.6c0,0,0,5.2,0,5.3l0,0l-4.9-5.3h-0.5v7.2h0.7c0,0,0-5.4,0-5.5l0,0l4.4,4.9l0.5,0.6l0,0h0.3
			L-143.1,549.2L-143.1,549.2L-143.1,549.2z"/>
	</g>
	<g>
		<path class="st5" d="M-130.3,549.2L-130.3,549.2L-130.3,549.2L-130.3,549.2l-0.3-0.1l-1.7,3.2c0,0-1.1,2-1.2,2.2
			c-1-1.8-2.1-3.7-2.8-5.3l0,0h-0.3v0.1c-0.1,1-0.7,5.3-0.9,7.1v0.1h0.9v-0.1c0-1,0.2-2.5,0.3-4.1c0,0,0.1-0.7,0.1-0.9
			c0.1,0.3,1.5,2.8,2,3.9l0.6,1.2h0.2l0,0c0.6-1.4,1.5-2.9,2.6-5c0.2,1.2,0.3,3.7,0.5,5.1v0.1h1.1v-0.1
			C-129.8,554.6-130.1,552.2-130.3,549.2z"/>
	</g>
	<g>
		<path class="st5" d="M-124.4,549h-0.3l-3.3,7.3h0.9l0,0c0.3-0.9,0.6-1.7,0.9-2.6c0,0,0-0.1,0.1-0.2c0.1,0,2.4,0,2.5,0
			c0.3,0.8,0.7,1.7,1,2.8l0,0h1.2L-124.4,549L-124.4,549z M-125.9,553c0.1-0.2,0.9-2.2,1-2.4c0.1,0.3,0.9,2.2,1,2.4
			C-124,553-125.7,553-125.9,553z"/>
	</g>
	<g>
		<path class="st5" d="M-117,552.8c1.3-0.3,2.1-1,2.1-2c0-1.1-0.8-1.6-2.3-1.6h-2.2v7.2h1c0,0,0-3.3,0-3.4c0.1,0,0.3,0,0.3,0
			l0.8,0.9l1.2,1.6l0.7,0.9l0,0h1.3C-114.2,556.4-117,553-117,552.8L-117,552.8z M-118.5,552.4c0-0.1,0-2.6,0-2.7
			c0.4,0,1.1-0.1,1.5,0c0.7,0.1,1.1,0.5,1.1,1.2s-0.4,1.2-1.3,1.4C-117.7,552.4-118.2,552.4-118.5,552.4z"/>
	</g>
	<g>
		<path class="st5" d="M-107.9,549.2h-5.4v0.8h0.1c0.6-0.1,1.2-0.1,2.2-0.1c0,0.1,0,6.6,0,6.6h1c0,0,0-6.5,0-6.6
			c0.7,0,1.5,0,2.1,0.1h0.1V549.2L-107.9,549.2L-107.9,549.2z"/>
	</g>
	<g>
		<rect x="-105.9" y="549.2" class="st5" width="0.9" height="7.2"/>
	</g>
	<g>
		<path class="st5" d="M-96.9,554.5L-96.9,554.5c-0.1,0-4.9-5.3-4.9-5.3h-0.5v7.2h0.7c0,0,0-5.4,0-5.5l0,0l4.5,4.9l0.5,0.6h0.4v-7.2
			h-0.7C-96.9,549.2-96.9,554.4-96.9,554.5z"/>
	</g>
</g>
<g>
	<path class="st6" d="M-138,576.8c-13.8,0-26.3-3.2-35.4-8.7c-28.3-17.2-23.9-30.5-35-30.5"/>
	<path class="st6" d="M-137.8,576.8c13.8,0,26.3-3.2,35.4-8.7c28.3-17.2,23.9-30.5,35-30.5"/>
</g>
<g>
	<line class="st6" x1="-159.9" y1="582.3" x2="-147.1" y2="560.5"/>
	<line class="st6" x1="-171.5" y1="560.6" x2="-190.4" y2="569.6"/>
	<line class="st6" x1="-218.3" y1="561.5" x2="-183.8" y2="554.2"/>
	<line class="st6" x1="-142.6" y1="560.6" x2="-150.2" y2="585.4"/>
	<line class="st6" x1="-153.5" y1="560.6" x2="-171.8" y2="579.8"/>
	<line class="st6" x1="-160.5" y1="560.6" x2="-183.5" y2="576.5"/>
	<line class="st6" x1="-183.7" y1="559" x2="-204.8" y2="565.5"/>
	<line class="st6" x1="-183.6" y1="550.8" x2="-231.2" y2="557.2"/>
	<line class="st6" x1="-183.6" y1="547.7" x2="-236.5" y2="551.4"/>
</g>
<g>
	<path class="st3" d="M-27.3,608.1c-0.8-1.3-2.2-1.4-2.8-1.4h-89.7c-2.5,0-4.6,0.8-6.1,2.3c-1.1,1.1-1.8,2.5-2.2,4.2
		c0,0-0.1,0.4-0.9,0.4h-17.7c-0.8,0-0.9-0.4-0.9-0.4c-0.4-1.7-1.1-3.1-2.2-4.2c-1.5-1.5-3.6-2.3-6.1-2.3h-89.8c-0.6,0-2,0.1-2.8,1.4
		c-0.4,0.6-0.6,1.7,0.2,3.2l1.6,2.7c0.7,1.1,1.4,1.5,3,1.6c0,0,0.8,0.1,1.3,1l1.7,2.9c0.4,0.7,1.2,2.3,4,2.6c0,0,0.9,0.1,1.3,1
		l2.1,3.6c0.6,1.2,1.4,1.6,3,2.1l37.5,11c1.3,0.4,1.8,1.8,1.8,1.8c0.9,2.3,2.1,4.2,7.9,6l30.7,8.4c0.4,0.1,3.9,1.2,6.5-1.4l7.2-6.9
		c0,0,0.3-0.3,0.7-0.3l0,0c0.4,0,0.7,0.3,0.7,0.3l7.2,6.9c2.6,2.6,6.2,1.5,6.5,1.4l30.7-8.4c5.9-1.8,7-3.7,7.9-6
		c0,0,0.5-1.4,1.8-1.8l37.5-11c1.5-0.5,2.4-0.9,3-2.1l2.1-3.6c0.5-0.9,1.3-1,1.3-1c2.8-0.4,3.7-2,4-2.6l1.7-2.9c0.5-0.9,1.3-1,1.3-1
		c1.6-0.1,2.4-0.5,3-1.6l1.6-2.7C-26.6,609.8-26.9,608.8-27.3,608.1z M-126.5,613.6L-126.5,613.6c0.3-1.4,0.9-2.5,1.8-3.4
		c1.2-1.2,2.9-1.8,4.9-1.8c0,0,20.1,0,41.2,0c-1.4,1.1-2.2,2.4-2.2,2.5c-0.5,0.9-1.1,1.9-1.8,3.1h-44.1
		C-126.6,613.8-126.5,613.6-126.5,613.6L-126.5,613.6z M-92.2,623.5L-92.2,623.5v-2.1l4,0.5c-0.5,0.7-1.1,1.3-1.7,2
		C-90.9,623.8-91.7,623.6-92.2,623.5z M-90.9,625.1c-0.4,0.5-0.8,0.9-1.3,1.4v-1.6L-90.9,625.1z M-92.2,620.1L-92.2,620.1v-1.8
		l6.4,0.4c-0.5,0.7-1,1.3-1.5,2L-92.2,620.1z M-92.2,617L-92.2,617v-1.7h8.8c-0.4,0.7-0.9,1.4-1.5,2.2L-92.2,617z M-156,608.4
		L-156,608.4L-156,608.4c2.1,0,3.7,0.6,4.9,1.8c0.9,0.9,1.5,2,1.8,3.4c0,0,0.1,0.2,0.1,0.4h-44c-0.7-1.1-1.8-3.1-1.8-3.1
		c0-0.1-0.8-1.4-2.2-2.5C-176.1,608.4-156,608.4-156,608.4z M-185.9,624c-0.6-0.7-1.1-1.3-1.7-2l3.9-0.5v2.1L-185.9,624z
		 M-183.7,624.8v1.6c-0.4-0.5-0.9-0.9-1.3-1.4C-184.4,625-184,624.9-183.7,624.8z M-188.5,620.8c-0.5-0.7-1-1.4-1.5-2l6.4-0.4l0,0
		l0,0l0,0v1.8L-188.5,620.8z M-183.7,617l-7.3,0.5c-0.5-0.8-1-1.5-1.5-2.2h8.7L-183.7,617L-183.7,617z M-243.6,614L-243.6,614
		L-243.6,614L-243.6,614L-243.6,614c-1.1-0.1-1.4-0.2-1.7-0.8c0,0-1.5-2.5-1.6-2.7c-0.2-0.5-0.3-0.8-0.3-1c0-0.6,0.4-1.1,1.5-1.1
		h44.7c3,0,4.8,3.1,4.8,3.1c0.4,0.7,0.9,1.6,1.4,2.5H-243.6z M-237.5,620.3L-237.5,620.3L-237.5,620.3c-1.1-0.4-1.5-1.1-1.7-1.5
		c-0.7-1.2-1.6-3-2.1-3.5h47.3c0.5,0.7,0.9,1.5,1.5,2.3l-41.5,2.8C-234.6,620.4-236.5,620.6-237.5,620.3z M-229.8,626.3
		c-1.5,0.2-2-0.3-2.1-0.4l-2-3.5c-0.1-0.3-0.3-0.5-0.5-0.7c0.3,0,42.8-2.9,42.8-2.9c0.5,0.7,1,1.4,1.5,2.1L-229.8,626.3
		L-229.8,626.3z M-220.2,630.1L-220.2,630.1c-4.1-1.2-7.5-2.2-8.9-2.6l40-5.4c0.5,0.7,1.1,1.4,1.7,2.1l-27.3,5.7
		C-215.8,630.1-218.7,630.5-220.2,630.1z M-206.6,634.1L-206.6,634.1L-206.6,634.1c-3.1-0.9-6.3-1.8-9.3-2.7
		c0.8-0.1,1.4-0.2,1.4-0.2s19.8-4.1,28.1-5.8c0.8,0.9,1.7,1.8,2.6,2.8l-18.3,5.7C-202.2,633.8-204.7,634.6-206.6,634.1z
		 M-192.3,638.3L-192.3,638.3L-192.3,638.3c-0.4-0.1-4.7-1.4-10.4-3c0.5-0.1,0.9-0.2,0.9-0.3c0,0,15.4-4.7,19-5.9
		c1.3,1.3,2.7,2.5,4.2,3.8l-9.9,4.6C-189.1,637.9-191,638.7-192.3,638.3z M-167.2,629.1h8l-11.2,8c-1.9-1.2-3.8-2.5-5.7-3.9
		C-171.9,631.3-168,629.4-167.2,629.1L-167.2,629.1L-167.2,629.1z M-155.7,643.5c-2.3-0.6-4.5-1.4-6.7-2.3
		c4.6-4.8,10.2-10.7,11.6-12.1l0,0h3.7L-155.7,643.5z M-145.7,629.1h3.1l-4.5,16.2c-2.5-0.3-4.9-0.8-7.3-1.4
		C-151.1,638.3-146.8,630.9-145.7,629.1z M-163.7,640.6c-1.9-0.8-3.7-1.8-5.5-2.8c5.3-3.8,10.8-7.8,12.2-8.8l0,0h4.3L-163.7,640.6z
		 M-177.2,632.3c-0.1-0.1-2.7-2.2-3.7-3.3h10.7L-177.2,632.3z M-184.4,645.5c-3.9-1.5-4.5-2.9-5-4.3c0-0.1-0.3-0.9-1-1.6
		c1.3-0.2,2.4-0.8,2.5-0.8c0,0,5.2-2.5,10.5-4.9c1.9,1.5,3.8,2.9,5.9,4.1l-9.3,6.6C-180.9,644.6-182.8,646-184.4,645.5z
		 M-173.3,648.7L-173.3,648.7l-8.2-2.2c0.8-0.4,1.4-0.8,1.4-0.8s4.6-3.3,9.7-6.9c1.8,1.1,3.7,2.1,5.7,2.9l-5.4,5.6
		C-170.5,647.7-172,649-173.3,648.7z M-161.9,651.8L-161.9,651.8L-161.9,651.8l-8.8-2.4c0.9-0.5,1.6-1.2,1.6-1.2s2.5-2.6,5.7-6
		c2.3,1,4.6,1.8,7,2.5l-2.9,4.9C-159.7,650.3-160.9,651.9-161.9,651.8z M-150.4,654.2c-0.5,0.3-1.1,0.4-1.8,0.2l-7.7-2.1
		c0.9-0.8,1.6-1.9,1.7-2.1c0,0,1.3-2.2,3.1-5.2c2.5,0.7,5.1,1.2,7.7,1.5l-1.5,5.4l0,0C-148.9,652-149.3,653.5-150.4,654.2z
		 M-147,653.5c-0.6,0.6-1.2,0.9-1.9,1.1c0.9-1,1.2-2.2,1.2-2.4l1.5-5.5c1.9,0.2,3.9,0.4,5.8,0.4C-141.9,648.7-147,653.5-147,653.5z
		 M-138.6,645.9c-2.5,0-4.9-0.2-7.2-0.4l0,0l0,0l4.5-16.4h2.7V645.9z M-182.3,627.8L-182.3,627.8L-182.3,627.8
		C-182.3,627.8-182.4,627.8-182.3,627.8v-12.5h88.9v12.5l0,0H-182.3z M-128.6,629.1L-128.6,629.1h3.7l11.6,12.1
		c-2.2,0.9-4.4,1.7-6.7,2.3L-128.6,629.1z M-121.4,643.9c-2.4,0.6-4.8,1.1-7.3,1.4l-4.5-16.2h3.1l0,0L-121.4,643.9z M-123.2,629.1
		h4.3l12.2,8.8c-1.8,1-3.6,1.9-5.5,2.8C-116.1,636.4-121,631.4-123.2,629.1z M-116.6,629.1L-116.6,629.1L-116.6,629.1L-116.6,629.1
		h8l8.9,4.1c-1.8,1.4-3.7,2.7-5.7,3.9C-109.7,634.1-114.2,630.8-116.6,629.1z M-105.5,629.1L-105.5,629.1L-105.5,629.1h10.7
		c-1.1,1.1-3.7,3.2-3.7,3.3C-101.2,631.1-103.7,629.9-105.5,629.1z M-137.3,645.9v-16.8h2.7l4.5,16.4
		C-132.4,645.7-134.8,645.9-137.3,645.9z M-130,652.5L-130,652.5c0,0-4.2-4-5.6-5.3c2-0.1,3.9-0.2,5.8-0.4l1.5,5.5
		c0,0.2,0.3,1.4,1.2,2.4C-128.1,654.3-128.5,653.9-130,652.5z M-123.7,654.4L-123.7,654.4c-0.7,0.2-1.3,0.1-1.8-0.2
		c-1.1-0.7-1.4-2.2-1.5-2.3l-1.5-5.4c2.6-0.4,5.2-0.9,7.7-1.5l3.1,5.3c0.1,0.2,0.7,1.3,1.7,2.1L-123.7,654.4z M-113.9,651.8
		L-113.9,651.8L-113.9,651.8c-1,0.2-2.2-1.5-2.6-2.2l-2.9-5c2.4-0.7,4.7-1.5,7-2.5l5.7,6c0.1,0,0.7,0.7,1.6,1.2L-113.9,651.8z
		 M-101.1,648.3L-101.1,648.3l-1.5,0.4c-1.2,0.3-2.7-0.9-3.2-1.4c0,0-2.4-2.5-5.4-5.6c1.9-0.9,3.8-1.9,5.7-2.9l9.7,7
		c0,0,0.6,0.4,1.4,0.8C-96.5,647-101.1,648.3-101.1,648.3z M-86.4,641.2L-86.4,641.2c-0.6,1.4-1.1,2.9-5,4.3
		c-1.6,0.5-3.5-0.9-3.5-0.9s-4.3-3.1-9.3-6.6c2-1.2,4-2.6,5.9-4.1l10.5,4.9c0.1,0,1.1,0.6,2.4,0.8C-86.1,640.3-86.4,641-86.4,641.2
		L-86.4,641.2z M-83.5,638.3L-83.5,638.3c-1.3,0.4-3.2-0.4-3.9-0.7c0,0-4.9-2.3-9.9-4.6c1.5-1.2,2.9-2.5,4.2-3.8l19,5.9
		c0,0,0.4,0.1,0.9,0.2L-83.5,638.3z M-69.2,634.1L-69.2,634.1c-1.9,0.5-4.4-0.3-4.5-0.3l0,0l0,0l-18.3-5.6c0.9-0.9,1.8-1.8,2.6-2.8
		l28.1,5.8c0.1,0,0.6,0.1,1.4,0.2L-69.2,634.1L-69.2,634.1z M-55.6,630.1L-55.6,630.1c-1.5,0.4-4.4-0.1-5.4-0.3
		c0,0-18.7-3.8-27.3-5.6c0.6-0.7,1.2-1.4,1.7-2.1l40,5.4L-55.6,630.1L-55.6,630.1z M-41.9,622.4L-41.9,622.4c0,0-1.6,2.9-2,3.5
		c-0.1,0.1-0.6,0.6-2.1,0.4l-39.8-5.3c0.5-0.7,1.1-1.4,1.5-2.1l42.3,2.8c0.1,0,0.2,0,0.5,0C-41.6,621.9-41.8,622.2-41.9,622.4z
		 M-34.9,615.8L-34.9,615.8L-34.9,615.8l-1.7,3c-0.2,0.4-0.6,1.1-1.7,1.5c-1,0.2-2.8,0.1-3.5,0l-41.5-2.8c0.5-0.8,1-1.6,1.5-2.3
		h47.3C-34.6,615.5-34.8,615.6-34.9,615.8z M-28.9,610.5L-28.9,610.5L-28.9,610.5l-1.6,2.7c-0.3,0.5-0.5,0.7-1.7,0.8H-81
		c0.5-0.9,1-1.8,1.4-2.5c0,0,1.7-3.1,4.8-3.1h44.7c0.5,0,1.1,0.1,1.4,0.6c0,0.1,0.1,0.2,0.1,0.5C-28.6,609.7-28.7,610.1-28.9,610.5z
		"/>
	<line class="st3" x1="-116.6" y1="629.1" x2="-116.6" y2="629.1"/>
	<line class="st3" x1="-105.5" y1="629.1" x2="-105.5" y2="629.1"/>
	<path class="st3" d="M-172.4,625.2L-172.4,625.2L-172.4,625.2z"/>
	<line class="st3" x1="-97.3" y1="617.5" x2="-97.3" y2="617.5"/>
	<path class="st3" d="M-176.5,618h-0.3l-3.3,7.3h0.9l0,0c0.3-0.9,0.6-1.7,0.9-2.6c0,0,0.1-0.1,0.1-0.2c0.1,0,2.4,0,2.5,0
		c0.3,0.8,0.7,1.6,1,2.8l0,0h1.2L-176.5,618L-176.5,618z M-177.9,622c0.1-0.2,0.9-2.2,1-2.4c0.1,0.3,0.9,2.2,1,2.4
		C-176,622-177.7,622-177.9,622z"/>
	<path class="st3" d="M-169.3,621.2c-0.8-0.3-1.5-0.6-1.5-1.5c0-0.7,0.5-1.1,1.2-1.1c0.6,0,1,0.3,1.2,0.9l0,0h0.2l0.3-0.9l0,0
		c-0.4-0.3-1-0.5-1.6-0.5c-1.5,0-2.3,0.8-2.3,2.1c0,1.3,0.9,1.6,1.8,2c0.8,0.3,1.5,0.6,1.5,1.5c0,0.8-0.6,1.5-1.4,1.5
		c-0.7,0-1.2-0.3-1.6-1l0,0h-0.2l-0.2,1l0,0c0.3,0.4,1.3,0.6,1.7,0.6c1.6,0,2.6-0.9,2.6-2.4C-167.5,621.9-168.4,621.6-169.3,621.2z"
		/>
	<path class="st3" d="M-160.5,618.9v-0.8h-0.1h-5.4v0.8h0.1c0.6-0.1,1.2-0.1,2.2-0.1c0,0.1,0,6.6,0,6.6h1c0,0,0-6.5,0-6.6
		C-162,618.8-161.3,618.8-160.5,618.9L-160.5,618.9z"/>
	<path class="st3" d="M-155.8,618c-2.3,0-3.9,1.6-3.9,3.7c0,2.2,1.6,3.7,3.9,3.7c2.4,0,4-1.6,4-3.9
		C-151.9,619.2-153.8,618-155.8,618z M-153.9,624.3c-0.5,0.5-1.1,0.8-1.9,0.8c-1.6,0-2.8-1.2-2.8-3.1c0-2.1,1.1-3.4,2.8-3.4
		c0.9,0,1.6,0.3,2.1,0.9c0.5,0.7,0.6,1.4,0.6,2.2c0,0.1,0,0.1,0,0.2C-153,622.5-153.2,623.6-153.9,624.3z"/>
	<path class="st3" d="M-143.6,618.2h-0.6c0,0,0,5.2,0,5.3l0,0l-4.9-5.3h-0.5v7.2h0.7c0,0,0-5.4,0-5.5l0,0l4.4,4.9l0.5,0.6l0,0h0.3
		L-143.6,618.2L-143.6,618.2L-143.6,618.2z"/>
	<path class="st3" d="M-130.8,618.2L-130.8,618.2L-130.8,618.2L-130.8,618.2l-0.3-0.1l-1.7,3.2c0,0-1.1,2-1.2,2.2
		c-1-1.8-2.1-3.7-2.8-5.3l0,0h-0.3v0.1c-0.1,1-0.7,5.3-0.9,7.1v0.1h0.9v-0.1c0-1,0.2-2.5,0.3-4.1c0,0,0.1-0.7,0.1-0.9
		c0.1,0.3,1.5,2.8,2,3.9l0.6,1.2h0.2l0,0c0.6-1.4,1.5-2.9,2.6-5c0.2,1.2,0.3,3.7,0.5,5.1v0.1h1.1v-0.1
		C-130.3,623.6-130.5,621.2-130.8,618.2z"/>
	<path class="st3" d="M-124.9,618h-0.3l-3.3,7.3h0.9l0,0c0.3-0.9,0.6-1.7,0.9-2.6c0,0,0-0.1,0.1-0.2c0.1,0,2.4,0,2.5,0
		c0.3,0.8,0.7,1.7,1,2.8l0,0h1.2L-124.9,618L-124.9,618z M-126.4,622c0.1-0.2,0.9-2.2,1-2.4c0.1,0.3,0.9,2.2,1,2.4
		C-124.5,622-126.2,622-126.4,622z"/>
	<path class="st3" d="M-117.5,621.8c1.3-0.3,2.1-1,2.1-2c0-1.1-0.8-1.6-2.3-1.6h-2.2v7.2h1c0,0,0-3.3,0-3.4c0.1,0,0.3,0,0.3,0
		l0.8,0.9l1.2,1.6l0.7,0.9l0,0h1.3C-114.7,625.4-117.4,622-117.5,621.8L-117.5,621.8z M-119,621.4c0-0.1,0-2.6,0-2.7
		c0.4,0,1.1-0.1,1.5,0c0.7,0.1,1.1,0.5,1.1,1.2c0,0.7-0.4,1.2-1.3,1.4C-118.2,621.4-118.7,621.4-119,621.4z"/>
	<path class="st3" d="M-108.4,618.2h-5.4v0.8h0.1c0.6-0.1,1.2-0.1,2.2-0.1c0,0.1,0,6.6,0,6.6h1c0,0,0-6.5,0-6.6c0.7,0,1.5,0,2.1,0.1
		h0.1V618.2L-108.4,618.2L-108.4,618.2z"/>
	<rect x="-106.4" y="618.2" class="st3" width="0.9" height="7.2"/>
	<path class="st3" d="M-97.4,623.5L-97.4,623.5c-0.1,0-4.9-5.3-4.9-5.3h-0.5v7.2h0.7c0,0,0-5.4,0-5.5l0,0l4.5,4.9l0.5,0.6h0.4v-7.2
		h-0.7C-97.4,618.2-97.4,623.4-97.4,623.5z"/>
</g>
<g>
	<g>
		<g>
			<path class="st3" d="M-86.9,738.2c0.4,0,0.5,0.1,0.5,0.2c0,0,0,0,0,0c0,0-0.1,0.2-0.2,0.4l-0.1,0.1l0,0.1l-1.2,2l0,0l0,0
				c-0.1,0.1-0.1,0.1-0.1,0.1l0,0c0,0-0.1,0.1-0.7,0.1l-0.1,0l-0.1,0c-0.7,0.1-1.7,0.6-2.2,1.6l-1.2,2.1l0,0.1l0,0.1
				c-0.1,0.2-0.4,0.8-1.6,0.9c-0.7,0.1-1.7,0.6-2.2,1.6l-1.5,2.6l0,0l0,0.1c-0.1,0.2-0.2,0.3-1.1,0.6l-27.2,8
				c-1.6,0.5-2.3,2-2.4,2.3c-0.5,1.2-0.9,2.2-4.6,3.3l-22.3,6.1l-0.1,0l0,0c0,0-0.4,0.1-1,0.1c-0.8,0-1.4-0.2-1.9-0.8l-5.2-5
				c-0.2-0.2-0.8-0.7-1.7-0.7c-0.9,0-1.6,0.6-1.7,0.7l-5.3,5c-0.5,0.5-1.1,0.7-1.9,0.7c-0.5,0-0.9-0.1-1.1-0.2l0,0l-22.3-6.1
				c-3.8-1.2-4.2-2.2-4.6-3.3c-0.1-0.3-0.8-1.8-2.4-2.4l-27.2-8c-1-0.3-1-0.4-1.1-0.6l0-0.1l0,0l-1.5-2.6c-0.5-1.1-1.6-1.6-2.3-1.7
				c-1.1-0.1-1.3-0.5-1.5-1l0-0.1l-1.2-2.1c-0.6-1.1-1.6-1.5-2.3-1.6l-0.1,0l-0.1,0c-0.6,0-0.6-0.1-0.8-0.3l-1.1-1.9
				c-0.2-0.3-0.2-0.5-0.2-0.6c0-0.1,0.1-0.2,0.5-0.2h65.3c1.3,0,2.4,0.4,3.2,1.2c0.5,0.5,0.9,1.3,1.1,2.2c0.2,0.8,1,1.6,2.4,1.6
				h12.9c1.3,0,2.2-0.8,2.4-1.6c0.2-1,0.6-1.7,1.1-2.2c0.8-0.8,1.9-1.2,3.2-1.2H-86.9 M-86.9,736.5h-65.2c-1.8,0-3.3,0.6-4.4,1.7
				c-0.8,0.8-1.3,1.8-1.6,3.1c0,0-0.1,0.3-0.7,0.3h-12.9c-0.6,0-0.7-0.3-0.7-0.3c-0.3-1.2-0.8-2.3-1.6-3.1c-1.1-1.1-2.6-1.7-4.4-1.7
				h-65.3c-0.4,0-1.5,0.1-2,1c-0.3,0.4-0.4,1.2,0.1,2.3l1.2,2c0.5,0.8,1,1.1,2.2,1.2c0,0,0.6,0.1,0.9,0.7l1.2,2.1
				c0.3,0.5,0.9,1.7,2.9,1.9c0,0,0.7,0.1,0.9,0.7l1.5,2.6c0.4,0.9,1,1.2,2.2,1.5l27.3,8c0.9,0.3,1.3,1.3,1.3,1.3
				c0.7,1.7,1.5,3.1,5.7,4.4l22.3,6.1c0.1,0,0.8,0.2,1.6,0.2c0.9,0,2.1-0.2,3.1-1.2l5.2-5c0,0,0.2-0.2,0.5-0.2
				c0.3,0,0.5,0.2,0.5,0.2l5.2,5c1,1,2.2,1.2,3.1,1.2c0.8,0,1.5-0.2,1.6-0.2l22.3-6.1c4.3-1.3,5.1-2.7,5.7-4.4c0,0,0.4-1,1.3-1.3
				l27.3-8c1.1-0.4,1.7-0.7,2.2-1.5l1.5-2.6c0.4-0.7,0.9-0.7,0.9-0.7c2-0.3,2.7-1.5,2.9-1.9l1.2-2.1c0.4-0.7,0.9-0.7,0.9-0.7
				c1.2-0.1,1.7-0.4,2.2-1.2l1.2-2c0.8-1.1,0.6-1.8,0.3-2.3C-85.4,736.5-86.5,736.5-86.9,736.5L-86.9,736.5z"/>
		</g>
	</g>
	<g>
		<line class="st8" x1="-148.9" y1="769.6" x2="-158.2" y2="753.8"/>
		<line class="st8" x1="-140.5" y1="753.8" x2="-126.8" y2="760.4"/>
		<line class="st8" x1="-106.5" y1="754.5" x2="-131.6" y2="749.2"/>
		<line class="st8" x1="-161.5" y1="753.8" x2="-155.9" y2="771.8"/>
		<line class="st8" x1="-153.6" y1="753.8" x2="-140.3" y2="767.8"/>
		<line class="st8" x1="-148.5" y1="753.8" x2="-131.8" y2="765.3"/>
		<line class="st8" x1="-131.6" y1="752.7" x2="-116.3" y2="757.4"/>
		<line class="st8" x1="-131.7" y1="746.7" x2="-97.1" y2="751.4"/>
		<line class="st8" x1="-131.7" y1="744.5" x2="-93.3" y2="747.1"/>
	</g>
	<rect x="-198.4" y="742.4" class="st8" width="66.5" height="11.3"/>
	<line class="st8" x1="-242.2" y1="742.4" x2="-88.5" y2="742.4"/>
	<line class="st8" x1="-165.3" y1="765" x2="-165.3" y2="753.8"/>
	<g>
		<path class="st9" d="M-192.9,745.4h-0.3l-2.4,5.3h0.6l0,0c0.2-0.6,0.4-1.3,0.7-1.9c0,0,0.1-0.1,0.1-0.1c0.1,0,1.8,0,1.8,0
			c0.3,0.6,0.5,1.2,0.8,2l0,0h0.9L-192.9,745.4L-192.9,745.4z M-193.9,748.3c0.1-0.1,0.7-1.6,0.8-1.8c0.1,0.2,0.7,1.6,0.8,1.8
			C-192.6,748.3-193.8,748.3-193.9,748.3z"/>
		<path class="st9" d="M-187.7,747.7c-0.6-0.3-1.1-0.4-1.1-1.1c0-0.5,0.4-0.8,0.9-0.8c0.4,0,0.8,0.3,0.9,0.6l0,0h0.1l0.3-0.7l0,0
			c-0.3-0.3-0.8-0.4-1.1-0.4c-1.1,0-1.7,0.6-1.7,1.5c0,0.9,0.7,1.2,1.3,1.4c0.6,0.2,1.1,0.4,1.1,1.1c0,0.6-0.4,1.1-1,1.1
			c-0.5,0-0.9-0.3-1.2-0.8l0,0h-0.1l-0.1,0.8l0,0c0.3,0.3,0.9,0.4,1.3,0.4c1.1,0,1.9-0.7,1.9-1.8
			C-186.4,748.2-187.1,748-187.7,747.7z"/>
		<path class="st9" d="M-181.3,746v-0.6h-0.1h-3.9v0.6h0.1c0.4-0.1,0.9-0.1,1.6-0.1c0,0.1,0,4.8,0,4.8h0.8c0,0,0-4.7,0-4.8
			C-182.4,746-181.9,746-181.3,746L-181.3,746z"/>
		<path class="st9" d="M-177.9,745.4c-1.7,0-2.8,1.1-2.8,2.7c0,1.6,1.1,2.7,2.8,2.7c1.8,0,2.9-1.1,2.9-2.8
			C-175,746.2-176.5,745.4-177.9,745.4z M-176.5,749.9c-0.4,0.4-0.8,0.6-1.4,0.6c-1.2,0-2-0.9-2-2.3c0-1.5,0.8-2.4,2.1-2.4
			c0.6,0,1.2,0.3,1.5,0.7c0.4,0.5,0.4,1,0.4,1.6c0,0.1,0,0.1,0,0.1C-175.8,748.7-176,749.4-176.5,749.9z"/>
		<path class="st9" d="M-169,745.5h-0.4c0,0,0,3.8,0,3.9l0,0l-3.6-3.9h-0.4v5.2h0.5c0,0,0-3.9,0-4l0,0l3.2,3.6l0.4,0.4l0,0h0.3
			L-169,745.5L-169,745.5L-169,745.5z"/>
		<path class="st9" d="M-159.7,745.5L-159.7,745.5L-159.7,745.5L-159.7,745.5l-0.3-0.1l-1.3,2.3c0,0-0.8,1.4-0.9,1.6
			c-0.8-1.3-1.5-2.7-2.1-3.9l0,0h-0.3v0.1c-0.1,0.8-0.5,3.9-0.7,5.1v0.1h0.6v-0.1c0-0.8,0.1-1.8,0.3-3c0,0,0.1-0.5,0.1-0.7
			c0.1,0.2,1.1,2,1.4,2.8l0.4,0.9h0.1l0,0c0.4-1,1.1-2.1,1.9-3.6c0.1,0.9,0.3,2.7,0.4,3.7v0.1h0.8v-0.1
			C-159.4,749.4-159.5,747.7-159.7,745.5z"/>
		<path class="st9" d="M-155.4,745.4h-0.3l-2.4,5.3h0.6l0,0c0.2-0.6,0.4-1.3,0.7-1.9c0,0,0-0.1,0.1-0.1c0.1,0,1.8,0,1.8,0
			c0.3,0.6,0.5,1.3,0.8,2l0,0h0.9L-155.4,745.4L-155.4,745.4z M-156.5,748.3c0.1-0.1,0.7-1.6,0.8-1.8c0.1,0.2,0.7,1.6,0.8,1.8
			C-155.1,748.3-156.4,748.3-156.5,748.3z"/>
		<path class="st9" d="M-150.1,748.2c0.9-0.2,1.5-0.8,1.5-1.4c0-0.8-0.6-1.2-1.7-1.2h-1.6v5.2h0.8c0,0,0-2.4,0-2.5
			c0.1,0,0.2,0,0.2,0l0.6,0.7l0.9,1.1l0.5,0.7l0,0h0.9C-148,750.7-150,748.3-150.1,748.2L-150.1,748.2z M-151.1,747.9
			c0-0.1,0-1.9,0-1.9c0.3,0,0.8-0.1,1.1,0c0.5,0.1,0.8,0.4,0.8,0.9c0,0.5-0.3,0.9-0.9,1C-150.6,747.9-151,747.9-151.1,747.9z"/>
		<path class="st9" d="M-143.5,745.5h-3.9v0.6h0.1c0.4-0.1,0.9-0.1,1.6-0.1c0,0.1,0,4.8,0,4.8h0.8c0,0,0-4.7,0-4.8
			c0.5,0,1.1,0,1.5,0.1h0.1V745.5L-143.5,745.5L-143.5,745.5z"/>
		<rect x="-142" y="745.5" class="st9" width="0.7" height="5.2"/>
		<path class="st9" d="M-135.4,749.4L-135.4,749.4c-0.1,0-3.6-3.9-3.6-3.9h-0.4v5.2h0.5c0,0,0-3.9,0-4l0,0l3.3,3.6l0.4,0.4h0.3v-5.2
			h-0.5C-135.4,745.5-135.4,749.3-135.4,749.4z"/>
	</g>
	<g>
		<path class="st8" d="M-165.3,765.6c-10,0-19.1-2.3-25.7-6.3c-20.6-12.5-17.4-22.1-25.4-22.1"/>
		<path class="st8" d="M-165.2,765.6c10,0,19.1-2.3,25.7-6.3c20.6-12.5,17.4-22.1,25.4-22.1"/>
	</g>
	<g>
		<line class="st8" x1="-181.2" y1="769.6" x2="-171.9" y2="753.8"/>
		<line class="st8" x1="-189.7" y1="753.8" x2="-203.4" y2="760.4"/>
		<line class="st8" x1="-223.7" y1="754.5" x2="-198.6" y2="749.2"/>
		<line class="st8" x1="-168.7" y1="753.8" x2="-174.2" y2="771.8"/>
		<line class="st8" x1="-176.6" y1="753.8" x2="-189.9" y2="767.8"/>
		<line class="st8" x1="-181.7" y1="753.8" x2="-198.4" y2="765.3"/>
		<line class="st8" x1="-198.5" y1="752.7" x2="-213.8" y2="757.4"/>
		<line class="st8" x1="-198.5" y1="746.7" x2="-233.1" y2="751.4"/>
		<line class="st8" x1="-198.5" y1="744.5" x2="-236.9" y2="747.1"/>
	</g>
</g>
<g>
	<g>
		<g>
			<path class="st3" d="M-84.2,789.2c0.7,0,1.1,0.1,1.2,0.2c0,0.1,0,0.5-0.5,1.4l0,0l0,0l-0.9,1.9l0,0l0,0.1
				c-0.1,0.2-0.5,0.8-1.8,0.8l-0.1,0l-0.9,0l-0.5,0.8l-3.9,5.6c-0.5,0.3-1.9,1.1-4.9,1.8l0,0l0,0l-27.3,8c-1.6,0.5-2.3,2-2.4,2.4
				c-0.5,1.2-0.9,2.2-4.6,3.3l-22.3,6.1l-0.1,0l0,0c0,0-0.4,0.1-1,0.1c-0.8,0-1.4-0.2-1.9-0.8l-5.2-5c-0.2-0.2-0.8-0.7-1.7-0.7
				c-0.9,0-1.6,0.6-1.7,0.7l-5.3,5c-0.5,0.5-1.1,0.7-1.9,0.7c-0.5,0-0.9-0.1-1.1-0.2l0,0l-22.3-6.1c-3.8-1.2-4.2-2.2-4.6-3.3
				c-0.1-0.3-0.8-1.8-2.4-2.4l-27.2-8c-1-0.3-1-0.4-1.1-0.6l0-0.1l0,0l-1.5-2.6c-0.5-1.1-1.6-1.6-2.3-1.7c-1.1-0.1-1.3-0.5-1.5-1
				l0-0.1l-1.2-2.1c-0.6-1.1-1.6-1.5-2.3-1.6l-0.1,0l-0.1,0c-0.6,0-0.6-0.1-0.8-0.3l-1.1-1.9c-0.2-0.3-0.2-0.5-0.2-0.6
				c0-0.1,0.1-0.2,0.5-0.2h64.3c1.6,0,3.6,0.5,4.2,1.2c0.1,0.1,0.6,0.8,1.1,3.2c0.2,0.8,1,1.6,2.4,1.6h12.9c1.3,0,2.2-0.8,2.4-1.6
				c0.1-0.3,0.1-0.7,0.2-1c0.1-0.9,0.2-1.5,0.9-2.2c1.2-1.2,3.5-1.2,5-1.2h0.1l0.1,0h63.4l0.1,0l0.1,0
				C-84.5,789.2-84.4,789.2-84.2,789.2L-84.2,789.2 M-84.2,787.5c-0.3,0-0.5,0-0.5,0h-63.4c-0.1,0-0.1,0-0.2,0c-1.8,0-4.5,0-6.2,1.7
				c-1.4,1.4-1.3,2.8-1.6,4.1c0,0-0.1,0.3-0.7,0.3h-12.9c-0.6,0-0.7-0.3-0.7-0.3c-0.3-1.2-0.8-3.3-1.6-4.1c-1.1-1.1-3.6-1.7-5.4-1.7
				h-64.3c-0.4,0-1.5,0.1-2,1c-0.3,0.4-0.4,1.2,0.1,2.3l1.2,2c0.5,0.8,1,1.1,2.2,1.2c0,0,0.6,0.1,0.9,0.7l1.2,2.1
				c0.3,0.5,0.9,1.7,2.9,1.9c0,0,0.7,0.1,0.9,0.7l1.5,2.6c0.4,0.9,1,1.2,2.2,1.5l27.3,8c0.9,0.3,1.3,1.3,1.3,1.3
				c0.7,1.7,1.5,3.1,5.7,4.4l22.3,6.1c0.1,0,0.8,0.2,1.6,0.2c0.9,0,2.1-0.2,3.1-1.2l5.2-5c0,0,0.2-0.2,0.5-0.2
				c0.3,0,0.5,0.2,0.5,0.2l5.2,5c1,1,2.2,1.2,3.1,1.2c0.8,0,1.5-0.2,1.6-0.2l22.3-6.1c4.3-1.3,5.1-2.7,5.7-4.4c0,0,0.4-1,1.3-1.3
				l27.3-8c4.2-1,5.8-2.3,5.8-2.3l4.1-5.9c0,0,0.1,0,0.1,0c2.7,0,3.4-1.8,3.4-1.8l0.9-1.9C-79.9,787.8-82.9,787.5-84.2,787.5
				L-84.2,787.5z"/>
		</g>
	</g>
	<g>
		<line class="st8" x1="-135.6" y1="806.1" x2="-124.4" y2="811.1"/>
		<line class="st8" x1="-155.9" y1="806.1" x2="-147.5" y2="820.6"/>
		<line class="st8" x1="-146.6" y1="806.1" x2="-132.6" y2="816.6"/>
		<line class="st8" x1="-131.6" y1="801.4" x2="-109.2" y2="807"/>
		<line class="st8" x1="-131.6" y1="797.1" x2="-93.1" y2="801.5"/>
	</g>
	<line class="st8" x1="-156.1" y1="794.2" x2="-86.9" y2="794.2"/>
	<line class="st8" x1="-163.3" y1="816" x2="-163.3" y2="804.8"/>
	<g>
		<path class="st8" d="M-163.3,816.6c-10,0-19.1-2.3-25.7-6.3c-20.6-12.5-17.4-22.1-25.4-22.1"/>
		<path class="st8" d="M-163.2,816.6c10,0,19.1-2.3,25.7-6.3c20.6-12.5,17.4-22.1,25.4-22.1"/>
	</g>
	<g>
		<line class="st8" x1="-179.2" y1="820.6" x2="-169.9" y2="804.8"/>
		<line class="st8" x1="-187.7" y1="804.8" x2="-201.4" y2="811.4"/>
		<line class="st8" x1="-221.7" y1="805.5" x2="-196.6" y2="800.2"/>
		<line class="st8" x1="-166.7" y1="804.8" x2="-172.2" y2="822.8"/>
		<line class="st8" x1="-174.6" y1="804.8" x2="-187.9" y2="818.8"/>
		<line class="st8" x1="-179.7" y1="804.8" x2="-196.4" y2="816.3"/>
		<line class="st8" x1="-196.5" y1="803.7" x2="-211.8" y2="808.4"/>
		<line class="st8" x1="-196.5" y1="797.7" x2="-231.1" y2="802.4"/>
		<line class="st8" x1="-196.5" y1="795.5" x2="-234.9" y2="798.1"/>
	</g>
	<rect x="-196.4" y="794.2" class="st10" width="65.5" height="11.9"/>
	<g>
		<path class="st11" d="M-191.9,797.5h-0.2l-2.4,5.3h0.6l0,0c0.2-0.6,0.4-1.2,0.7-1.9c0,0,0.1-0.1,0.1-0.1c0.1,0,1.7,0,1.8,0
			c0.2,0.6,0.5,1.2,0.7,2l0,0h0.9L-191.9,797.5L-191.9,797.5z M-192.9,800.4c0.1-0.1,0.7-1.6,0.7-1.7c0.1,0.2,0.7,1.6,0.7,1.7
			C-191.6,800.4-192.8,800.4-192.9,800.4z"/>
		<path class="st11" d="M-186.7,799.8c-0.6-0.2-1.1-0.4-1.1-1.1c0-0.5,0.4-0.8,0.9-0.8c0.4,0,0.7,0.2,0.9,0.6l0,0h0.1l0.2-0.7l0,0
			c-0.3-0.2-0.7-0.4-1.1-0.4c-1.1,0-1.7,0.6-1.7,1.5c0,0.9,0.7,1.2,1.3,1.4c0.6,0.2,1.1,0.4,1.1,1.1c0,0.6-0.4,1.1-1,1.1
			c-0.5,0-0.9-0.2-1.2-0.7l0,0h-0.1l-0.1,0.7l0,0c0.2,0.3,0.9,0.4,1.2,0.4c1.1,0,1.9-0.7,1.9-1.7
			C-185.4,800.3-186.1,800.1-186.7,799.8z"/>
		<path class="st11" d="M-180.4,798.1v-0.6h-0.1h-3.9v0.6h0.1c0.4-0.1,0.9-0.1,1.6-0.1c0,0.1,0,4.7,0,4.7h0.7c0,0,0-4.7,0-4.7
			C-181.5,798.1-181,798.1-180.4,798.1L-180.4,798.1z"/>
		<path class="st11" d="M-177,797.5c-1.7,0-2.8,1.1-2.8,2.7c0,1.6,1.1,2.7,2.8,2.7c1.7,0,2.9-1.1,2.9-2.8
			C-174.2,798.3-175.6,797.5-177,797.5z M-175.7,802c-0.4,0.4-0.8,0.6-1.4,0.6c-1.2,0-2-0.9-2-2.2c0-1.5,0.8-2.4,2.1-2.4
			c0.6,0,1.2,0.2,1.5,0.7c0.4,0.5,0.4,1,0.4,1.6c0,0.1,0,0.1,0,0.1C-175,800.7-175.2,801.5-175.7,802z"/>
		<path class="st11" d="M-168.2,797.6h-0.4c0,0,0,3.7,0,3.9l0,0l-3.5-3.9h-0.4v5.2h0.5c0,0,0-3.9,0-4l0,0l3.2,3.5l0.4,0.4l0,0h0.2
			L-168.2,797.6L-168.2,797.6L-168.2,797.6z"/>
		<path class="st11" d="M-159.2,797.6L-159.2,797.6L-159.2,797.6L-159.2,797.6l-0.2-0.1l-1.2,2.3c0,0-0.8,1.4-0.9,1.6
			c-0.7-1.3-1.5-2.7-2.1-3.9l0,0h-0.2v0.1c-0.1,0.7-0.5,3.9-0.7,5.1v0.1h0.6v-0.1c0-0.7,0.1-1.8,0.2-3c0,0,0.1-0.5,0.1-0.7
			c0.1,0.2,1.1,2,1.4,2.8l0.4,0.9h0.1l0,0c0.4-1,1.1-2.1,1.9-3.6c0.1,0.9,0.2,2.7,0.4,3.7v0.1h0.8v-0.1
			C-158.8,801.5-159,799.8-159.2,797.6z"/>
		<path class="st11" d="M-154.9,797.5h-0.2l-2.4,5.3h0.6l0,0c0.2-0.6,0.4-1.2,0.7-1.9c0,0,0-0.1,0.1-0.1c0.1,0,1.7,0,1.8,0
			c0.2,0.6,0.5,1.2,0.7,2l0,0h0.9L-154.9,797.5L-154.9,797.5z M-156,800.4c0.1-0.1,0.7-1.6,0.7-1.7c0.1,0.2,0.7,1.6,0.7,1.7
			C-154.6,800.4-155.8,800.4-156,800.4z"/>
		<path class="st11" d="M-149.6,800.2c0.9-0.2,1.5-0.7,1.5-1.4c0-0.8-0.6-1.2-1.7-1.2h-1.6v5.2h0.7c0,0,0-2.4,0-2.5
			c0.1,0,0.2,0,0.2,0l0.6,0.7l0.9,1.1l0.5,0.7l0,0h0.9C-147.5,802.8-149.5,800.4-149.6,800.2L-149.6,800.2z M-150.7,799.9
			c0-0.1,0-1.9,0-1.9c0.3,0,0.8-0.1,1.1,0c0.5,0.1,0.8,0.4,0.8,0.9c0,0.5-0.3,0.9-0.9,1C-150.1,799.9-150.5,799.9-150.7,799.9z"/>
		<path class="st11" d="M-143,797.6h-3.9v0.6h0.1c0.4-0.1,0.9-0.1,1.6-0.1c0,0.1,0,4.7,0,4.7h0.7c0,0,0-4.7,0-4.7
			c0.5,0,1.1,0,1.5,0.1h0.1V797.6L-143,797.6L-143,797.6z"/>
		<rect x="-141.6" y="797.6" class="st11" width="0.7" height="5.2"/>
		<path class="st11" d="M-135.1,801.4L-135.1,801.4c-0.1,0-3.5-3.9-3.5-3.9h-0.4v5.2h0.5c0,0,0-3.9,0-4l0,0l3.2,3.5l0.4,0.4h0.3
			v-5.2h-0.5C-135.1,797.6-135.1,801.4-135.1,801.4z"/>
	</g>
</g>
<g>
	<g>
		<g>
			<path class="st3" d="M123.2,742.6h-0.2l-2.3,5.1h0.6l0,0c0.2-0.6,0.4-1.2,0.7-1.8c0,0,0.1-0.1,0.1-0.1c0.1,0,1.7,0,1.7,0
				c0.2,0.5,0.5,1.1,0.7,1.9l0,0h0.8L123.2,742.6L123.2,742.6z M122.2,745.4c0.1-0.1,0.7-1.5,0.7-1.7c0.1,0.2,0.7,1.6,0.7,1.7
				C123.5,745.4,122.3,745.4,122.2,745.4z"/>
			<path class="st3" d="M125.3,747.9h-0.8l-0.1-0.1c-0.2-0.6-0.4-1.2-0.7-1.8h-1.5c0,0,0,0,0,0.1c-0.2,0.6-0.5,1.2-0.6,1.8l-0.1,0.1
				h-0.6l-0.1-0.2l2.3-5.1l0.1-0.1h0.2l0.1,0.1l2.1,5.1L125.3,747.9z M124.5,747.6h0.5l-2-4.8h0l-2.2,4.8h0.3
				c0.2-0.6,0.4-1.1,0.6-1.7l0-0.1l0.2-0.2h1.7l0.1,0.1C124.1,746.4,124.3,746.9,124.5,747.6z M123.7,745.5h-1.4l-0.1-0.2
				c0.1-0.1,0.7-1.5,0.7-1.7l0.3,0c0.1,0.2,0.7,1.5,0.7,1.7L123.7,745.5z M122.4,745.2h1c-0.1-0.3-0.4-0.8-0.5-1.2
				C122.8,744.4,122.6,744.9,122.4,745.2z"/>
		</g>
		<g>
			<path class="st3" d="M128.2,744.8c-0.5-0.2-1-0.4-1-1c0-0.5,0.4-0.8,0.8-0.8c0.4,0,0.7,0.2,0.8,0.6l0,0h0.1l0.2-0.7l0,0
				c-0.3-0.2-0.7-0.4-1.1-0.4c-1,0-1.6,0.5-1.6,1.4c0,0.9,0.7,1.1,1.3,1.4c0.5,0.2,1,0.4,1,1c0,0.5-0.4,1-1,1
				c-0.5,0-0.8-0.2-1.1-0.7l0,0h-0.1l-0.1,0.7l0,0c0.2,0.3,0.9,0.4,1.2,0.4c1.1,0,1.8-0.7,1.8-1.7
				C129.5,745.3,128.8,745.1,128.2,744.8z"/>
			<path class="st3" d="M127.7,748c-0.3,0-1-0.1-1.3-0.5l0-0.1l0.1-0.7l0.1-0.1h0.1l0.1,0.1c0.3,0.5,0.6,0.7,1,0.7
				c0.4,0,0.8-0.4,0.8-0.9c0-0.5-0.4-0.7-0.9-0.9l-0.1,0c-0.6-0.2-1.3-0.5-1.3-1.5c0-1,0.7-1.6,1.8-1.6c0.4,0,0.9,0.1,1.2,0.4l0,0.2
				l-0.2,0.7l-0.1,0.1h-0.1l-0.1-0.1c-0.1-0.3-0.4-0.5-0.7-0.5c-0.4,0-0.7,0.3-0.7,0.6c0,0.5,0.3,0.6,0.9,0.9l0.1,0.1
				c0.6,0.2,1.3,0.5,1.3,1.5C129.6,747.3,128.8,748,127.7,748z M126.6,747.4c0.2,0.2,0.7,0.3,1,0.3c1,0,1.7-0.6,1.7-1.5
				c0-0.8-0.5-1-1.1-1.2l-0.1-0.1c-0.5-0.2-1-0.5-1-1.1c0-0.5,0.4-0.9,1-0.9c0.4,0,0.7,0.2,0.9,0.5l0.1-0.4
				c-0.3-0.2-0.6-0.3-0.9-0.3c-0.9,0-1.5,0.5-1.5,1.3c0,0.8,0.5,1,1.1,1.2l0,0c0.6,0.2,1.1,0.5,1.1,1.2c0,0.6-0.5,1.2-1.1,1.2
				c-0.5,0-0.8-0.2-1.2-0.6L126.6,747.4z"/>
		</g>
		<g>
			<path class="st3" d="M134.3,743.2v-0.5h-0.1h-3.8v0.5h0.1c0.4-0.1,0.8-0.1,1.5-0.1c0,0.1,0,4.6,0,4.6h0.7c0,0,0-4.5,0-4.6
				C133.3,743.1,133.8,743.1,134.3,743.2L134.3,743.2z"/>
			<path class="st3" d="M132.8,747.9H132l-0.1-0.1v-4.4c-0.6,0-1,0-1.3,0.1l-0.1,0l-0.1-0.1v-0.5l0.1-0.1h3.9l0.1,0.1v0.5l-0.2,0.1
				c-0.5-0.1-0.9-0.1-1.4-0.1v4.4L132.8,747.9z M132.2,747.6h0.4v-4.4l0.1-0.1c0.5,0,0.9,0,1.4,0v-0.2h-3.6v0.2c0.4,0,0.8,0,1.4,0
				l0.1,0.1V747.6z"/>
		</g>
		<g>
			<path class="st3" d="M137.6,742.6c-1.6,0-2.7,1.1-2.7,2.6c0,1.6,1.1,2.6,2.7,2.6c1.7,0,2.8-1.1,2.8-2.7
				C140.4,743.4,139,742.6,137.6,742.6z M138.9,746.9c-0.4,0.4-0.8,0.5-1.3,0.5c-1.1,0-1.9-0.8-1.9-2.2c0-1.4,0.8-2.3,2-2.3
				c0.6,0,1.1,0.2,1.4,0.7c0.4,0.5,0.4,1,0.4,1.6c0,0.1,0,0.1,0,0.1C139.6,745.7,139.4,746.4,138.9,746.9z"/>
			<path class="st3" d="M137.6,747.9c-1.7,0-2.9-1.1-2.9-2.7c0-1.6,1.2-2.7,2.9-2.7c1.4,0,2.9,0.8,2.9,2.6
				C140.5,746.8,139.4,747.9,137.6,747.9z M137.6,742.7c-1.5,0-2.6,1-2.6,2.4c0,1.5,1,2.4,2.6,2.4c1.6,0,2.6-1,2.6-2.6
				C140.2,743.5,138.9,742.7,137.6,742.7z M137.6,747.6c-1.2,0-2.1-0.9-2.1-2.3c0-1.5,0.8-2.5,2.1-2.5c0.7,0,1.2,0.3,1.6,0.7
				c0.4,0.5,0.4,1,0.4,1.7v0.1c0.1,0.4-0.1,1.2-0.6,1.7l0,0l0,0l0,0C138.6,747.4,138.2,747.6,137.6,747.6z M137.7,743.1
				c-1.1,0-1.8,0.8-1.8,2.2c0,1.2,0.7,2,1.8,2c0.5,0,0.9-0.2,1.2-0.5l0,0c0.4-0.4,0.6-1.1,0.6-1.5l0-0.1c0-0.6-0.1-1-0.4-1.5
				C138.7,743.3,138.2,743.1,137.7,743.1z"/>
		</g>
		<g>
			<path class="st3" d="M146.1,742.7h-0.4c0,0,0,3.6,0,3.7l0,0l-3.4-3.7h-0.4v5h0.5c0,0,0-3.8,0-3.9l0,0l3.1,3.4l0.4,0.4l0,0h0.2
				L146.1,742.7L146.1,742.7L146.1,742.7z"/>
			<path class="st3" d="M146.1,747.9h-0.2l-0.1-0.1l-0.4-0.4l-2.8-3.1v3.5l-0.1,0.1h-0.5l-0.1-0.1v-5l0.1-0.1h0.4l0.1,0l3.2,3.5
				v-3.4l0.1-0.1h0.4l0.1,0.1l-0.1,5L146.1,747.9z M145.9,747.6L145.9,747.6l0.1-4.7h-0.1v3.6l-0.3,0.1l-3.4-3.7h-0.2v4.7h0.2v-3.7
				l0.3-0.1L145.9,747.6z"/>
		</g>
		<g>
			<path class="st3" d="M154.9,742.7L154.9,742.7L154.9,742.7L154.9,742.7l-0.2-0.1l-1.2,2.2c0,0-0.8,1.4-0.8,1.5
				c-0.7-1.3-1.4-2.6-2-3.7l0,0h-0.2v0.1c-0.1,0.7-0.5,3.7-0.7,4.9v0.1h0.6v-0.1c0-0.7,0.1-1.7,0.2-2.9c0,0,0.1-0.5,0.1-0.7
				c0.1,0.2,1,1.9,1.4,2.7l0.4,0.8h0.1l0,0c0.4-1,1-2,1.8-3.5c0.1,0.8,0.2,2.6,0.4,3.6v0.1h0.8v-0.1
				C155.3,746.4,155.1,744.8,154.9,742.7z"/>
			<path class="st3" d="M155.5,747.9h-0.8l-0.1-0.1v-0.1c-0.1-0.4-0.1-1.1-0.2-1.7c0-0.5-0.1-1-0.1-1.4l0,0.1
				c-0.7,1.2-1.2,2.1-1.5,3l-0.1,0.1h-0.1l-0.1-0.1l-0.4-0.8c-0.2-0.4-0.6-1.2-0.9-1.7c-0.1-0.2-0.2-0.4-0.3-0.5c0,0.1,0,0.1,0,0.1
				l0,0.4c-0.1,1-0.2,1.8-0.2,2.4v0.1l-0.1,0.1h-0.6l-0.1-0.1v-0.1c0.2-1.3,0.6-4.3,0.7-4.9l0,0l0.1-0.1h0.2l0.1,0.1
				c0.4,0.9,1.1,2.1,1.9,3.5c0.2-0.4,0.7-1.2,0.7-1.3l1.2-2.2l0.2-0.1l0.2,0.1l0.1,0.1c0.2,2.3,0.4,3.8,0.6,5l0,0.1L155.5,747.9z
				 M154.9,747.6h0.5c-0.2-1.1-0.4-2.6-0.6-4.8l0,0l-1.2,2.1c-0.2,0.4-0.8,1.4-0.8,1.5l-0.3,0c-0.8-1.4-1.5-2.7-2-3.7h0
				c-0.1,0.9-0.5,3.6-0.6,4.8h0.3c0-0.6,0.1-1.4,0.2-2.4l0-0.4c0,0,0.1-0.5,0.1-0.6l0.3,0c0,0.1,0.3,0.5,0.5,0.9
				c0.3,0.6,0.7,1.3,0.9,1.7l0.3,0.7c0.4-0.8,0.9-1.7,1.5-2.9l0.3-0.5l0.3,0c0.1,0.5,0.1,1.2,0.2,1.9
				C154.8,746.6,154.8,747.2,154.9,747.6z"/>
		</g>
		<g>
			<path class="st3" d="M159,742.6h-0.2l-2.3,5.1h0.6l0,0c0.2-0.6,0.4-1.2,0.7-1.8c0,0,0-0.1,0.1-0.1c0.1,0,1.7,0,1.7,0
				c0.2,0.5,0.5,1.2,0.7,1.9l0,0h0.8L159,742.6L159,742.6z M158,745.4c0.1-0.1,0.7-1.5,0.7-1.7c0.1,0.2,0.7,1.6,0.7,1.7
				C159.3,745.4,158.1,745.4,158,745.4z"/>
			<path class="st3" d="M161.2,747.9h-0.8l-0.1-0.1c-0.3-0.8-0.5-1.4-0.7-1.8h-1.6l0,0.1c-0.2,0.6-0.5,1.2-0.6,1.8l-0.1,0.1h-0.6
				l-0.1-0.2l2.3-5.1l0.1-0.1h0.2l0.1,0.1l2.1,5.1L161.2,747.9z M160.4,747.6h0.5l-2-4.8h0l-2.2,4.8h0.3c0.2-0.6,0.4-1.1,0.6-1.7
				l0,0c0,0,0-0.1,0.1-0.2l0.1,0h1.7l0.1,0.1C159.9,746.2,160.2,746.8,160.4,747.6z M159.5,745.5H158l-0.1-0.2
				c0.1-0.1,0.7-1.5,0.7-1.7l0.3,0c0.1,0.2,0.7,1.6,0.7,1.7L159.5,745.5z M158.2,745.2h1c-0.1-0.3-0.4-0.8-0.5-1.2
				C158.6,744.4,158.4,744.9,158.2,745.2z"/>
		</g>
		<g>
			<path class="st3" d="M164.2,745.2c0.9-0.2,1.4-0.7,1.4-1.4c0-0.8-0.5-1.1-1.6-1.1h-1.6v5h0.7c0,0,0-2.3,0-2.4c0.1,0,0.2,0,0.2,0
				l0.5,0.7l0.8,1.1l0.5,0.7l0,0h0.9C166.2,747.7,164.3,745.4,164.2,745.2L164.2,745.2z M163.2,744.9c0-0.1,0-1.8,0-1.9
				c0.3,0,0.8-0.1,1,0c0.5,0.1,0.8,0.4,0.8,0.8s-0.3,0.8-0.9,1C163.7,744.9,163.4,744.9,163.2,744.9z"/>
			<path class="st3" d="M166.1,747.9h-0.9l-0.1-0.1l-0.5-0.7l-0.8-1.1l-0.5-0.6v2.2l-0.1,0.1h-0.7l-0.1-0.1v-5l0.1-0.1h1.6
				c1.2,0,1.8,0.4,1.8,1.3c0,0.7-0.5,1.2-1.3,1.5c0.2,0.2,0.4,0.6,0.7,0.9c1.2,1.5,1.2,1.5,1.1,1.6L166.1,747.9z M165.3,747.6h0.6
				c-0.2-0.3-0.6-0.8-0.9-1.2c-0.6-0.8-0.8-1-0.8-1.1l0.1-0.2c0.8-0.2,1.3-0.6,1.3-1.2c0-0.4-0.2-1-1.5-1h-1.4v4.7h0.4v-2.3l0.1-0.1
				h0.2l0.1,0.1l0.5,0.7l0.8,1.1L165.3,747.6z M164.2,745.2L164.2,745.2L164.2,745.2z M163.2,745.1l-0.1-0.1v-1.9l0.1-0.1
				c0.1,0,0.2,0,0.3,0c0.3,0,0.5,0,0.7,0c0.6,0.1,0.9,0.4,0.9,1c0,0.6-0.4,1-1,1.1C163.7,745.1,163.4,745.1,163.2,745.1z
				 M163.3,743.2v1.6c0.2,0,0.5,0,0.7-0.1c0.5-0.1,0.8-0.4,0.8-0.8c0-0.4-0.2-0.6-0.7-0.7c-0.2,0-0.4,0-0.7,0
				C163.4,743.2,163.4,743.2,163.3,743.2z"/>
		</g>
		<g>
			<path class="st3" d="M170.6,742.7h-3.8v0.5h0.1c0.4-0.1,0.8-0.1,1.5-0.1c0,0.1,0,4.6,0,4.6h0.7c0,0,0-4.5,0-4.6
				c0.5,0,1,0,1.4,0.1h0.1V742.7L170.6,742.7L170.6,742.7z"/>
			<path class="st3" d="M169,747.9h-0.7l-0.1-0.1v-4.4c-0.6,0-1,0-1.3,0.1l-0.1,0l-0.1-0.1v-0.5l0.1-0.1h3.8l0.1,0.1v0.5l-0.1,0.1
				h-0.1c-0.4-0.1-0.9-0.1-1.3-0.1v4.4L169,747.9z M168.5,747.6h0.4v-4.4l0.1-0.1c0.4,0,0.9,0,1.4,0v-0.2h-3.5v0.2
				c0.4,0,0.8,0,1.4,0l0.1,0.1V747.6z"/>
		</g>
		<g>
			<rect x="172" y="742.7" class="st3" width="0.7" height="5"/>
			<path class="st3" d="M172.6,747.9H172l-0.1-0.1v-5l0.1-0.1h0.7l0.1,0.1v5L172.6,747.9z M172.1,747.6h0.4v-4.7h-0.4V747.6z"/>
		</g>
		<g>
			<path class="st3" d="M178.3,746.4L178.3,746.4c-0.1,0-3.4-3.7-3.4-3.7h-0.4v5h0.5c0,0,0-3.8,0-3.9l0,0l3.1,3.4l0.4,0.4h0.3v-5
				h-0.5C178.3,742.7,178.3,746.3,178.3,746.4z"/>
			<path class="st3" d="M178.8,747.8h-0.3l-0.1-0.1l-0.4-0.4l-2.9-3.2v3.5l-0.1,0.1h-0.5l-0.1-0.1v-5l0.1-0.1h0.4l0.1,0
				c1.1,1.2,2.6,2.9,3.2,3.5v-3.4l0.1-0.1h0.5l0.1,0.1v5L178.8,747.8z M178.5,747.5L178.5,747.5l0.1-4.7h-0.2v3.6l-0.1,0.1
				c-0.1,0-0.1,0-3.5-3.7h-0.2v4.7h0.2v-3.7l0.3-0.1L178.5,747.5z"/>
		</g>
	</g>
	<g>
		<path class="st7" d="M101.1,734.2H71.4l-0.1,0l-0.1,0c0,0-0.2,0-0.3,0h0c-0.7,0-1.1,0.1-1.2,0.2c0,0.1,0,0.5,0.5,1.4l0,0l0,0
			l0.9,1.9l0,0l0,0.1c0.1,0.2,0.5,0.8,1.8,0.8l0.1,0l0.6,0v0h31.7C103.8,736.4,102.8,734.9,101.1,734.2z"/>
		<path class="st7" d="M106.2,739.8H74.8l3.6,5.2c0.2,0.2,0.8,0.5,1.6,0.8l28.2-3.2C107.4,741.6,106.8,740.7,106.2,739.8z"/>
		<path class="st7" d="M117.7,739.8h-10c0.6,0.8,1.2,1.7,2,2.6l8-0.9V739.8z"/>
		<path class="st7" d="M120.8,752.4c1.1,0.8,2.3,1.6,3.6,2.4c0.5,0.3,1.1,0.6,1.6,0.9l5.3-4h-9L120.8,752.4z"/>
		<path class="st7" d="M123.8,755.8c-1.6-1-3-1.9-4.3-2.8l-7,3.2c0.4,0.5,0.5,0.9,0.6,1.1c0.5,1.2,0.9,2.2,4.6,3.3l1.4,0.4l5.9-4.4
			C124.6,756.3,124.2,756,123.8,755.8z"/>
		<path class="st7" d="M109.2,743.7l-26.3,3c0.1,0,0.3,0.1,0.4,0.1l0,0l0,0l14.1,4.1l14.9-3.8C111.2,746,110.1,744.8,109.2,743.7z"
			/>
		<path class="st7" d="M117.7,751.7L117.7,751.7L117.7,751.7c-1.6-1.2-2.9-2.3-4.1-3.4l-13.7,3.4l10.8,3.2c0.3,0.1,0.6,0.2,0.8,0.4
			l6.8-3.1C118.1,752,117.9,751.8,117.7,751.7z"/>
		<path class="st7" d="M117.7,742.8l-7,0.8c0.9,1,2,2.2,3.2,3.3l3.8-1V742.8z"/>
		<path class="st7" d="M189.3,743.6l-7-0.8v3.2l3.8,1C187.4,745.7,188.4,744.6,189.3,743.6z"/>
		<path class="st7" d="M117.7,747.2l-2.7,0.7c0.8,0.7,1.7,1.5,2.7,2.2V747.2z"/>
		<path class="st7" d="M193.2,738.6c0.1-0.2,0.2-0.4,0.4-0.5c1.1-1.6,2-2.9,3-3.8h-31.3l-0.1,0H165c-1.5,0-3.8,0-5,1.2
			c-0.7,0.7-0.8,1.3-0.9,2.2c0,0.3-0.1,0.6-0.2,0.9h23.4H193.2z"/>
		<path class="st7" d="M182.3,750.1c1-0.8,1.9-1.5,2.7-2.2l-2.7-0.7V750.1z"/>
		<path class="st7" d="M141.6,751.7h-8.1l-6.1,4.6c2.9,1.4,6.1,2.5,9.6,3.3L141.6,751.7z"/>
		<path class="st7" d="M192.3,739.8h-10v1.7l8,0.9C191.1,741.5,191.7,740.6,192.3,739.8z"/>
		<path class="st7" d="M106.8,738.6h10.8h23.4c-0.1-0.3-0.1-0.6-0.2-0.9c-0.1-0.9-0.2-1.5-0.9-2.2c-1.2-1.2-3.5-1.2-5-1.2h-0.1
			l-0.1,0h-31.3c1.1,1,2,2.3,3,3.8C106.6,738.2,106.7,738.4,106.8,738.6z"/>
		<path class="st7" d="M157,751.7h-6.4v8.7c0.5,0.1,0.8,0.4,1,0.5c3.5-0.1,6.9-0.4,10.1-1.1L157,751.7z"/>
		<path class="st7" d="M187.6,747.2l14.9,3.8l14.1-4.1l0,0l0,0c0.1,0,0.3-0.1,0.4-0.1l-26.3-3C189.9,744.8,188.8,746,187.6,747.2z"
			/>
		<path class="st7" d="M182.3,751.7L182.3,751.7L182.3,751.7c-0.2,0.2-0.4,0.3-0.6,0.5l6.8,3.1c0.2-0.2,0.5-0.3,0.8-0.4l10.8-3.2
			l-13.7-3.4C185.3,749.4,183.9,750.5,182.3,751.7z"/>
		<path class="st7" d="M176.2,755.8c-0.4,0.2-0.8,0.5-1.2,0.7l5.9,4.4l1.4-0.4c3.7-1.1,4.1-2.1,4.6-3.3c0.1-0.2,0.2-0.6,0.6-1.1
			l-7-3.2C179.2,753.9,177.8,754.8,176.2,755.8z"/>
		<path class="st7" d="M126.2,757.1l-5.6,4.2l13.2,3.6l2.5-4.2C132.6,759.9,129.2,758.7,126.2,757.1z"/>
		<path class="st7" d="M163.7,760.7l2.5,4.2l13.2-3.6l-5.6-4.2C170.8,758.7,167.4,759.9,163.7,760.7z"/>
		<path class="st7" d="M229.1,734.2c-0.2,0-0.3,0-0.3,0l-0.1,0l-0.1,0h-29.8c-1.6,0.7-2.7,2.2-4.2,4.3h31.7v0l0.6,0l0.1,0
			c1.3,0,1.7-0.6,1.8-0.8l0-0.1l0,0l0.9-1.9l0,0l0,0c0.4-0.8,0.5-1.2,0.5-1.4C230.2,734.3,229.8,734.2,229.1,734.2L229.1,734.2z"/>
		<path class="st7" d="M191.8,742.6l28.2,3.2c0.9-0.4,1.4-0.7,1.6-0.8l3.6-5.2h-31.4C193.2,740.7,192.6,741.6,191.8,742.6z"/>
		<path class="st7" d="M138.2,759.8c3.2,0.6,6.6,1,10.1,1.1c0.2-0.2,0.5-0.4,1-0.5v-8.7H143L138.2,759.8z"/>
		<path class="st7" d="M135.1,765.3l4.9,1.3l0.1,0l0,0c0,0,0.4,0.1,1,0.1c0.8,0,1.4-0.2,1.9-0.8l4.1-3.9c-3.3-0.1-6.5-0.5-9.5-1.1
			L135.1,765.3z"/>
		<path class="st7" d="M152.9,762.1l4.1,3.9c0.5,0.5,1.1,0.8,1.9,0.8c0.6,0,1-0.1,1-0.1l0,0l0.1,0l4.9-1.3l-2.5-4.3
			C159.4,761.6,156.2,762,152.9,762.1z"/>
		<polygon class="st7" points="181.1,739.8 157.3,739.8 150,739.8 142.7,739.8 118.9,739.8 118.9,750.4 150,750.4 181.1,750.4 		"/>
		<path class="st7" d="M158.4,751.7l4.6,7.9c3.5-0.8,6.7-1.9,9.6-3.3l-6.1-4.6H158.4z"/>
		<path class="st7" d="M175.5,754.7c1.3-0.8,2.5-1.6,3.6-2.4l-1.6-0.7h-9l5.3,4C174.5,755.4,175,755.1,175.5,754.7z"/>
		<path class="st3" d="M150.4,762.2c0.1,0,0.1,0.1,0.1,0.1l5.2,5c1,1,2.2,1.2,3.1,1.2c0.8,0,1.5-0.2,1.6-0.2l22.3-6.1
			c4.3-1.3,5.1-2.7,5.7-4.4c0,0,0.4-1,1.3-1.3l27.3-8c4.2-1,5.8-2.3,5.8-2.3l4.1-5.9c0,0,0.1,0,0.1,0c2.7,0,3.4-1.8,3.4-1.8l0.9-1.9
			c2.1-3.8-1-4.2-2.3-4.2c-0.3,0-0.5,0-0.5,0h-63.4c-0.1,0-0.1,0-0.2,0c-1.8,0-4.5,0-6.2,1.7c-1.4,1.4-1.3,2.8-1.6,4.1
			c0,0-0.1,0.3-0.7,0.3H150h-6.5c-0.6,0-0.7-0.3-0.7-0.3c-0.3-1.2-0.2-2.7-1.6-4.1c-1.7-1.6-4.4-1.7-6.2-1.7c-0.1,0-0.1,0-0.2,0
			H71.4c0,0-0.2,0-0.5,0c-1.3,0-4.3,0.4-2.3,4.2l0.9,1.9c0,0,0.8,1.8,3.4,1.8c0,0,0.1,0,0.1,0l4.1,5.9c0,0,1.5,1.3,5.8,2.3l13.1,3.8
			l0.1,0.3l0.4-0.1l13.7,4c0.9,0.3,1.3,1.3,1.3,1.3c0.7,1.7,1.5,3.1,5.7,4.4l22.3,6.1c0.1,0,0.7,0.2,1.6,0.2c0.9,0,2.1-0.2,3.1-1.2
			l5.2-5c0,0,0,0,0.1-0.1H150.4z M159.1,737.6c0.1-0.9,0.2-1.5,0.9-2.2c1.2-1.2,3.5-1.2,5-1.2h0.1l0.1,0h31.3c-1.1,1-2,2.3-3,3.8
			c-0.1,0.2-0.2,0.3-0.4,0.5h-10.8h-23.4C159,738.2,159,737.9,159.1,737.6z M182.3,745.9v-3.2l7,0.8c-0.9,1-2,2.2-3.2,3.3
			L182.3,745.9z M185,747.9c-0.8,0.7-1.7,1.5-2.7,2.2v-2.9L185,747.9z M182.3,741.5v-1.7h10c-0.6,0.8-1.2,1.7-2,2.6L182.3,741.5z
			 M134.8,734.2L134.8,734.2l0.2,0c1.5,0,3.8,0,5,1.2c0.7,0.7,0.8,1.3,0.9,2.2c0,0.3,0.1,0.6,0.2,0.9h-23.4h-10.8
			c-0.1-0.2-0.2-0.4-0.4-0.5c-1.1-1.6-2-2.9-3-3.8H134.8z M113.9,746.9c-1.2-1.2-2.3-2.3-3.2-3.3l7-0.8v3.2L113.9,746.9z
			 M117.7,747.2v2.9c-1-0.8-1.9-1.5-2.7-2.2L117.7,747.2z M109.7,742.4c-0.8-0.9-1.4-1.8-2-2.6h10v1.7L109.7,742.4z M73.6,738.6
			l-0.6,0l-0.1,0c-1.3,0-1.7-0.6-1.8-0.8l0-0.1l0,0l-0.9-1.9l0,0l0,0c-0.4-0.8-0.5-1.2-0.5-1.4c0.1-0.1,0.5-0.2,1.2-0.2h0
			c0.2,0,0.3,0,0.3,0l0.1,0l0.1,0h29.8c1.6,0.7,2.7,2.2,4.2,4.3L73.6,738.6L73.6,738.6z M78.4,745l-3.6-5.2h31.4
			c0.6,0.9,1.3,1.8,2.1,2.8L80,745.8C79.2,745.4,78.6,745.1,78.4,745z M83.4,746.9L83.4,746.9L83.4,746.9c-0.2-0.1-0.4-0.1-0.5-0.1
			l26.3-3c0.9,1.1,2,2.3,3.3,3.5L97.5,751L83.4,746.9z M110.7,754.9l-10.8-3.2l13.7-3.4c1.2,1.1,2.6,2.2,4.1,3.4v0h0
			c0.2,0.2,0.4,0.3,0.6,0.5l-6.8,3.1C111.3,755.1,111,755,110.7,754.9z M117.7,760.5c-3.7-1.1-4.1-2.1-4.6-3.3
			c-0.1-0.2-0.2-0.6-0.6-1.1l7-3.2c1.3,0.9,2.7,1.9,4.3,2.8c0.4,0.2,0.8,0.5,1.2,0.7l-5.9,4.4L117.7,760.5z M126.1,755.7
			c-0.6-0.3-1.1-0.6-1.6-0.9c-1.3-0.8-2.5-1.6-3.6-2.4l1.6-0.7h9L126.1,755.7z M133.5,751.7h8.1l-4.6,7.9c-3.5-0.8-6.7-1.9-9.6-3.3
			L133.5,751.7z M120.7,761.3l5.6-4.2c3,1.5,6.4,2.7,10.1,3.6l-2.5,4.2L120.7,761.3z M143,766c-0.5,0.5-1.1,0.8-1.9,0.8
			c-0.6,0-1-0.1-1-0.1l0,0l-0.1,0l-4.9-1.3l2.5-4.3c3,0.6,6.2,1,9.5,1.1L143,766z M149.4,760.4c-0.5,0.1-0.8,0.4-1,0.5
			c-3.5-0.1-6.9-0.4-10.1-1.1l4.8-8.2h6.4V760.4z M150,750.4h-31.1v-10.6h23.8h7.3h7.3h23.8v10.6H150z M168.6,751.7h9l1.6,0.7
			c-1.1,0.8-2.3,1.6-3.6,2.4c-0.5,0.3-1.1,0.6-1.6,0.9L168.6,751.7z M172.7,756.3c-2.9,1.4-6.1,2.5-9.6,3.3l-4.6-7.9h8.1
			L172.7,756.3z M150.6,760.4v-8.7h6.4l4.8,8.2c-3.2,0.6-6.6,1-10.1,1.1C151.4,760.8,151.1,760.5,150.6,760.4z M160,766.6L160,766.6
			L160,766.6c-0.1,0-0.5,0.2-1.1,0.2c-0.8,0-1.4-0.2-1.9-0.8l-4.1-3.9c3.3-0.1,6.5-0.5,9.5-1.1l2.5,4.3L160,766.6z M166.2,764.9
			l-2.5-4.2c3.7-0.8,7.1-2,10.1-3.6l5.6,4.2L166.2,764.9z M186.9,757.2c-0.5,1.2-0.9,2.2-4.6,3.3l-1.4,0.4l-5.9-4.4
			c0.4-0.2,0.8-0.5,1.2-0.7c1.6-1,3-1.9,4.3-2.8l7,3.2C187.1,756.6,187,757.1,186.9,757.2z M189.3,754.9c-0.3,0.1-0.6,0.2-0.8,0.4
			l-6.8-3.1c0.2-0.2,0.4-0.3,0.6-0.5h0v0c1.6-1.2,2.9-2.3,4.1-3.4l13.7,3.4L189.3,754.9z M216.7,746.8L216.7,746.8L216.7,746.8
			l-14.2,4.2l-14.9-3.8c1.3-1.2,2.3-2.4,3.3-3.5l26.3,3C217,746.8,216.8,746.8,216.7,746.8z M221.6,745c-0.2,0.2-0.8,0.5-1.6,0.8
			l-28.2-3.2c0.8-1,1.5-1.9,2.1-2.8h31.4L221.6,745z M229.9,735.8L229.9,735.8L229.9,735.8l-1,2l0,0l0,0.1c-0.1,0.2-0.5,0.8-1.8,0.8
			l-0.1,0l-0.6,0v0h-31.7c1.5-2.2,2.6-3.6,4.2-4.3h29.8l0.1,0l0.1,0c0,0,0.2,0,0.3,0h0c0.7,0,1.1,0.1,1.2,0.2
			C230.3,734.5,230.3,735,229.9,735.8z"/>
	</g>
</g>
<path class="st4" d="M111.3,413.2L111.3,413.2L111.3,413.2z"/>
<g>
	<path class="st4" d="M111.6,435.5h-0.4l-3.3,7.4h0.9l0,0c0.3-0.9,0.6-1.8,1-2.6c0,0,0.1-0.1,0.1-0.2c0.1,0,2.4,0,2.5,0
		c0.3,0.8,0.7,1.7,1,2.8l0,0h1.2L111.6,435.5L111.6,435.5z M110.2,439.5c0.1-0.2,1-2.2,1-2.4c0.1,0.3,1,2.3,1,2.4
		C112.1,439.5,110.3,439.5,110.2,439.5z"/>
	<path class="st4" d="M118.6,438.7c-0.8-0.3-1.5-0.6-1.5-1.5c0-0.7,0.5-1.1,1.2-1.1c0.6,0,1,0.3,1.2,0.9l0,0h0.2l0.4-1l0,0
		c-0.4-0.3-1-0.5-1.6-0.5c-1.5,0-2.4,0.8-2.4,2.1s1,1.7,1.8,2c0.8,0.3,1.5,0.6,1.5,1.5c0,0.8-0.6,1.5-1.4,1.5
		c-0.7,0-1.2-0.4-1.7-1.1l0,0h-0.2l-0.2,1.1l0,0c0.4,0.4,1.3,0.6,1.8,0.6c1.6,0,2.6-1,2.6-2.4C120.5,439.4,119.5,439.1,118.6,438.7z
		"/>
	<path class="st4" d="M127.3,436.4v-0.8h-0.1h-5.5v0.8h0.1c0.6-0.1,1.2-0.1,2.2-0.1c0,0.1,0,6.6,0,6.6h1c0,0,0-6.6,0-6.6
		C125.8,436.3,126.5,436.3,127.3,436.4L127.3,436.4z"/>
	<path class="st4" d="M131.9,435.5c-2.4,0-3.9,1.6-3.9,3.8c0,2.3,1.6,3.8,3.9,3.8c2.4,0,4-1.6,4-3.9
		C135.9,436.6,133.9,435.5,131.9,435.5z M133.8,441.8c-0.5,0.5-1.1,0.8-1.9,0.8c-1.7,0-2.8-1.2-2.8-3.1c0-2.1,1.1-3.4,2.9-3.4
		c0.9,0,1.7,0.4,2.1,1c0.5,0.7,0.6,1.4,0.6,2.3c0,0.1,0,0.1,0,0.2C134.7,440,134.5,441.1,133.8,441.8z"/>
	<path class="st4" d="M144,435.7h-0.6c0,0,0,5.2,0,5.4l0,0l-5-5.4h-0.5v7.3h0.7c0,0,0-5.5,0-5.6l0,0l4.5,5l0.5,0.6l0,0h0.3
		L144,435.7L144,435.7L144,435.7z"/>
	<path class="st4" d="M156.8,435.7L156.8,435.7L156.8,435.7L156.8,435.7l-0.3-0.1l-1.8,3.2c0,0-1.1,2-1.2,2.2
		c-1-1.8-2.1-3.8-2.9-5.4l0,0h-0.3v0.1c-0.1,1-0.7,5.4-1,7.2v0.1h0.9v-0.1c0-1.1,0.2-2.5,0.4-4.2c0,0,0.1-0.7,0.1-1
		c0.1,0.3,1.5,2.8,2,3.9l0.6,1.2h0.2l0,0c0.6-1.4,1.5-3,2.6-5.1c0.2,1.2,0.3,3.8,0.5,5.2v0.1h1.1v-0.1
		C157.3,441.1,157.1,438.7,156.8,435.7z"/>
	<path class="st4" d="M162.6,435.5h-0.4l-3.3,7.4h0.9l0,0c0.3-0.9,0.6-1.8,1-2.6c0,0,0-0.1,0.1-0.2c0.1,0,2.4,0,2.5,0
		c0.3,0.8,0.7,1.8,1,2.8l0,0h1.2L162.6,435.5L162.6,435.5z M161.1,439.5c0.1-0.2,1-2.2,1.1-2.4c0.1,0.3,1,2.3,1,2.4
		C163,439.5,161.3,439.5,161.1,439.5z"/>
	<path class="st4" d="M169.8,439.4c1.3-0.3,2.1-1.1,2.1-2c0-1.1-0.8-1.7-2.4-1.7h-2.3v7.3h1c0,0,0-3.3,0-3.5c0.1,0,0.3,0,0.3,0
		l0.8,1l1.2,1.6l0.7,1l0,0h1.3C172.7,442.9,169.9,439.5,169.8,439.4L169.8,439.4z M168.4,438.9c0-0.1,0-2.6,0-2.7
		c0.4,0,1.1-0.1,1.5,0c0.7,0.1,1.1,0.5,1.1,1.2c0,0.7-0.4,1.2-1.3,1.4C169.1,438.9,168.6,438.9,168.4,438.9z"/>
	<path class="st4" d="M178.9,435.7h-5.5v0.8h0.1c0.6-0.1,1.2-0.1,2.2-0.1c0,0.1,0,6.6,0,6.6h1c0,0,0-6.6,0-6.6c0.7,0,1.5,0,2.1,0.1
		h0.1V435.7L178.9,435.7L178.9,435.7z"/>
	<rect x="180.7" y="435.7" class="st4" width="1" height="7.3"/>
	<line class="st4" x1="189.6" y1="435.7" x2="189.6" y2="435.7"/>
	<path class="st4" d="M189.6,441L189.6,441c-0.1,0-5-5.4-5-5.4h-0.5v7.3h0.7c0,0,0-5.5,0-5.6l0,0l4.5,5l0.5,0.6h0.4v-7.3h-0.7
		C189.6,435.7,189.6,440.9,189.6,441z"/>
</g>
<path class="st3" d="M187.6,1041.4l-0.1-0.2c-0.6-0.7-1.4-0.8-1.7-0.8h-27.4c0,0-3.4,0.1-4.5,3.7h-7.9c-1.1-3.6-4.4-3.7-4.5-3.7
	h-27.4c-0.3,0-1.1,0.1-1.7,0.8l-0.1,0.3c-0.1,0.3-0.3,1,0.2,1.7l0.9,1.7c0.4,0.5,0.9,0.8,1.6,0.9c0,0,0,0,0.1,0.1l1.4,1.9
	c0.3,0.5,0.9,1.3,2.3,1.8l12.7,3.8c0,0,0.1,0.1,0.2,0.2c0.4,1,1,1.7,3,2.4l10,2.8l0.1,0c0.3,0.1,0.6,0.1,0.8,0.1
	c0.7,0,1.3-0.2,1.7-0.6l2.5-2l2.5,2c0.4,0.4,1,0.7,1.7,0.7c0.3,0,0.5,0,0.8-0.1l10.2-2.8c2-0.6,2.6-1.3,3-2.3c0-0.1,0.1-0.2,0.2-0.3
	l12.7-3.8c1.4-0.5,2-1.2,2.3-1.7l1.4-1.9l0.1-0.1c0-0.1,0.1-0.1,0.1-0.1c0.7-0.1,1.2-0.4,1.6-1l0.9-1.6
	C188,1042.5,187.7,1041.8,187.6,1041.4z M158.4,1041.6h14c-1.1,0.7-2,1.5-2.6,2.5h-14.6C156.1,1041.7,158.3,1041.6,158.4,1041.6z
	 M165.8,1050.6C165.8,1050.6,165.8,1050.6,165.8,1050.6c0.1,0,1-0.6,2.1-1.9l7.5,1.3l-7.2,2.2L165.8,1050.6z M155.4,1053.4l-1.4-2.6
	h2.1l2.3,2C157.4,1053,156.4,1053.2,155.4,1053.4z M159.3,1053.6l2.4,2.2l-4.4,1.2l-1.4-2.7C157.1,1054.1,158.2,1053.9,159.3,1053.6
	z M141.6,1052.8l2.3-2h2.1l-1.4,2.6C143.6,1053.2,142.6,1053,141.6,1052.8z M144.1,1054.3l-1.4,2.7l-4.4-1.2l2.4-2.2
	C141.8,1053.9,142.9,1054.1,144.1,1054.3z M131.8,1052.2l-7.2-2.2l7.5-1.3c1.1,1.3,2,1.9,2.1,1.9c0,0,0,0,0,0L131.8,1052.2z
	 M164.1,1045.1v4.7h-28.2v-4.7H164.1z M134.9,1047.2l-2.4,0.4c-0.5-0.7-1.1-1.5-1.7-2.5h4V1047.2z M134.9,1048.2v1.7
	c0,0-0.1-0.1-0.1-0.1c0,0-0.6-0.4-1.5-1.3L134.9,1048.2z M142.4,1050.8l-1.9,1.7c-1.5-0.5-2.9-1-4.1-1.7H142.4z M147.1,1050.8h2.4
	v2.9c-1.3,0-2.6-0.1-3.9-0.2L147.1,1050.8z M150.5,1050.8h2.4l1.5,2.7c-1.3,0.1-2.6,0.2-3.9,0.2V1050.8z M157.6,1050.8h6.1
	c-1.2,0.7-2.6,1.2-4.2,1.7L157.6,1050.8z M165.2,1049.8c0,0-0.1,0-0.1,0.1v-1.7l1.6,0.3C165.9,1049.4,165.3,1049.8,165.2,1049.8z
	 M165.1,1047.2v-2.1h4c-0.6,1-1.1,1.8-1.7,2.5L165.1,1047.2z M144.8,1044.1h-14.6c-0.7-0.9-1.5-1.8-2.6-2.5h14
	C141.7,1041.6,143.9,1041.7,144.8,1044.1z M113.6,1042.6c-0.2-0.3-0.2-0.4-0.1-0.7c0.2-0.3,0.5-0.3,0.7-0.3h9.9
	c2.1,0,3.8,1.1,4.9,2.5h-14.5L113.6,1042.6z M117.6,1047.2l-1.4-1.9c0-0.1-0.1-0.1-0.1-0.2h13.6c0.1,0.1,0.2,0.3,0.3,0.4
	c0.5,0.9,1,1.6,1.4,2.3l-8.9,1.6l-3.2-0.9C118.2,1048.1,117.9,1047.6,117.6,1047.2z M132.9,1053.2c0,0-0.1-0.2-0.2-0.4l2.4-1.6
	c1.3,0.8,2.8,1.5,4.4,2l-2.5,2.2l-2-0.6C133.3,1054.3,133.2,1053.8,132.9,1053.2z M146.7,1057.4c-0.4,0.4-1,0.3-1.5,0.3l-1.5-0.4
	l1.5-2.8c1.4,0.2,2.8,0.3,4.2,0.3c0,0,0.1,0,0.1,0v0.4L146.7,1057.4z M154.9,1057.6L154.9,1057.6c-0.5,0.1-1.1,0.2-1.6-0.3l-2.8-2.2
	v-0.4c0,0,0.1,0,0.1,0c1.4,0,2.8-0.1,4.2-0.3l1.5,2.8L154.9,1057.6z M164.9,1054.8l-2,0.6l-2.5-2.2c1.7-0.5,3.2-1.2,4.4-2l2.4,1.6
	c-0.1,0.2-0.2,0.4-0.2,0.4C166.9,1053.8,166.7,1054.3,164.9,1054.8z M182.4,1047.2c-0.3,0.4-0.6,0.9-1.7,1.2l-3.2,1l-8.9-1.6
	c0.5-0.6,1-1.4,1.5-2.3c0.1-0.1,0.2-0.3,0.3-0.4h13.6c0,0.1-0.1,0.1-0.1,0.2L182.4,1047.2z M186.4,1042.6l-0.8,1.5H171
	c1.1-1.4,2.8-2.5,4.9-2.5h9.9c0.1,0,0.4,0,0.7,0.3C186.6,1042.2,186.6,1042.3,186.4,1042.6z"/>
<line class="st12" x1="-71.2" y1="1081.5" x2="-71.2" y2="1087.2"/>
<g>
	<g>
		<path class="st13" d="M-71.3,1085.5L-71.3,1085.5"/>
	</g>
	<g>
		<path class="st13" d="M-71.3,1085.5L-71.3,1085.5"/>
	</g>
	<path class="st13" d="M-75.5,1076.4c-0.7-4.1-4.1-4.1-4.1-4.1H-107c-0.3,0-0.8,0.1-1.2,0.6c-0.1,0.3-0.3,0.7,0.1,1.3l0.9,1.6
		c0.3,0.4,0.6,0.6,1.2,0.7c0,0,0.3,0,0.5,0.4l1.4,1.9c0.3,0.5,0.8,1.1,2,1.5l12.7,3.8c0.4,0.1,0.6,0.6,0.6,0.6
		c0.3,0.8,0.7,1.4,2.6,2l10,2.8c0.1,0,1.3,0.4,2.1-0.4l2.9-2.3"/>
	<line class="st12" x1="-78.3" y1="1088.9" x2="-74.3" y2="1081.4"/>
	<path class="st12" d="M-71.3,1085.5L-71.3,1085.5c-6.1,0.1-11.9-1.5-15.4-4c0,0-2.2-1.4-4.1-4.9c-1.1-2.1-3.3-4.2-6.3-4.2"/>
	<line class="st12" x1="-77.3" y1="1081.4" x2="-84" y2="1087.3"/>
	<line class="st12" x1="-85.8" y1="1078.9" x2="-98.8" y2="1081.2"/>
	<g>
		<path class="st13" d="M-71.3,1085.5L-71.3,1085.5"/>
	</g>
	<g>
		<path class="st13" d="M-71.3,1085.5L-71.3,1085.5"/>
	</g>
	<path class="st12" d="M-89.4,1084.1l3.9-2.6"/>
	<g>
		<path class="st13" d="M-71,1085.5L-71,1085.5"/>
	</g>
	<g>
		<path class="st13" d="M-71,1085.5L-71,1085.5"/>
	</g>
	<path class="st13" d="M-71.1,1086.8l2.9,2.3c0.8,0.8,2,0.4,2.1,0.4l10-2.8c1.9-0.6,2.3-1.2,2.6-2c0,0,0.2-0.5,0.6-0.6l12.7-3.8
		c1.2-0.4,1.7-1,2-1.5l1.4-1.9c0.2-0.4,0.5-0.4,0.5-0.4c0.6-0.1,0.9-0.3,1.2-0.7l0.9-1.6c0.4-0.6,0.2-1,0.1-1.3
		c-0.4-0.5-0.9-0.6-1.2-0.6h-27.4c0,0-3.4,0-4.1,4.1"/>
	<line class="st12" x1="-68" y1="1081.4" x2="-64" y2="1088.9"/>
	<path class="st12" d="M-45.2,1072.4c-3,0-5.2,2.1-6.3,4.2c-1.9,3.5-4.1,4.9-4.1,4.9c-3.5,2.5-9.3,4.1-15.4,4l0,0"/>
	<line class="st12" x1="-58.3" y1="1087.3" x2="-65" y2="1081.4"/>
	<line class="st12" x1="-43.5" y1="1081.2" x2="-56.5" y2="1078.9"/>
	<g>
		<path class="st13" d="M-71,1085.5L-71,1085.5"/>
	</g>
	<g>
		<path class="st13" d="M-71,1085.5L-71,1085.5"/>
	</g>
	<path class="st12" d="M-56.9,1081.5l3.9,2.6"/>
	<polyline class="st14" points="-56.5,1075.9 -56.5,1081.5 -85.8,1081.5 -85.8,1075.9 	"/>
	<line class="st12" x1="-35.1" y1="1075.9" x2="-107.2" y2="1075.9"/>
</g>
<g>
	<g>
		<path class="st13" d="M-71.2,1047.3L-71.2,1047.3"/>
	</g>
	<g>
		<path class="st13" d="M-71.2,1047.3L-71.2,1047.3"/>
	</g>
	<path class="st13" d="M-75.4,1038.2c-0.7-4.1-4.1-4.1-4.1-4.1h-27.4c-0.3,0-0.8,0.1-1.2,0.6c-0.1,0.3-0.3,0.7,0.1,1.3l0.9,1.6
		c0.3,0.4,0.6,0.6,1.2,0.7c0,0,0.3,0,0.5,0.4l1.4,1.9c0.3,0.5,0.8,1.1,2,1.5l12.7,3.8c0.4,0.1,0.6,0.6,0.6,0.6
		c0.3,0.8,0.7,1.4,2.6,2l10,2.8c0.1,0,1.3,0.4,2.1-0.4l2.9-2.3"/>
	<line class="st12" x1="-78.2" y1="1050.7" x2="-74.2" y2="1043.2"/>
	<path class="st12" d="M-71.2,1047.3L-71.2,1047.3c-6.1,0.1-11.9-1.5-15.4-4c0,0-2.2-1.4-4.1-4.9c-1.1-2.1-3.3-4.2-6.3-4.2"/>
	<line class="st12" x1="-77.2" y1="1043.2" x2="-83.9" y2="1049.1"/>
	<line class="st12" x1="-85.7" y1="1040.7" x2="-98.7" y2="1043"/>
	<g>
		<path class="st13" d="M-71.2,1047.3L-71.2,1047.3"/>
	</g>
	<g>
		<path class="st13" d="M-71.2,1047.3L-71.2,1047.3"/>
	</g>
	<path class="st12" d="M-89.3,1045.9l3.9-2.6"/>
	<g>
		<path class="st13" d="M-70.9,1047.3L-70.9,1047.3"/>
	</g>
	<g>
		<path class="st13" d="M-70.9,1047.3L-70.9,1047.3"/>
	</g>
	<path class="st13" d="M-71,1048.6l2.9,2.3c0.8,0.8,2,0.4,2.1,0.4l10-2.8c1.9-0.6,2.3-1.2,2.6-2c0,0,0.2-0.5,0.6-0.6l12.7-3.8
		c1.2-0.4,1.7-1,2-1.5l1.4-1.9c0.2-0.4,0.5-0.4,0.5-0.4c0.6-0.1,0.9-0.3,1.2-0.7l0.9-1.6c0.4-0.6,0.2-1,0.1-1.3
		c-0.4-0.5-0.9-0.6-1.2-0.6h-27.4c0,0-3.4,0-4.1,4.1"/>
	<line class="st12" x1="-67.9" y1="1043.2" x2="-63.9" y2="1050.7"/>
	<polyline class="st12" points="-56.4,1038.2 -56.4,1043.2 -85.7,1043.2 -85.7,1038.2 	"/>
	<path class="st12" d="M-45.1,1034.2c-3,0-5.2,2.1-6.3,4.2c-1.9,3.5-4.1,4.9-4.1,4.9c-3.5,2.5-9.3,4.1-15.4,4l0,0"/>
	<line class="st12" x1="-58.2" y1="1049.1" x2="-64.9" y2="1043.2"/>
	<line class="st12" x1="-43.4" y1="1043" x2="-56.4" y2="1040.7"/>
	<g>
		<path class="st13" d="M-70.9,1047.3L-70.9,1047.3"/>
	</g>
	<g>
		<path class="st13" d="M-70.9,1047.3L-70.9,1047.3"/>
	</g>
	<path class="st12" d="M-56.8,1043.3l3.9,2.6"/>
	<line class="st12" x1="-36.7" y1="1038.4" x2="-105.4" y2="1038.4"/>
</g>
</svg>
