<?xml version="1.0" encoding="utf-8"?>
<!-- Generator: Adobe Illustrator 15.0.0, SVG Export Plug-In . SVG Version: 6.00 Build 0)  -->
<!DOCTYPE svg PUBLIC "-//W3C//DTD SVG 1.1//EN" "http://www.w3.org/Graphics/SVG/1.1/DTD/svg11.dtd">
<svg version="1.1" id="Layer_1" xmlns="http://www.w3.org/2000/svg" xmlns:xlink="http://www.w3.org/1999/xlink" x="0px" y="0px"
	 width="300px" height="1200px" viewBox="0 0 300 1200" enable-background="new 0 0 300 1200" xml:space="preserve">
<g>
	<path fill="#FFFFFF" d="M24.008,183.068c1.057,0,1.7-0.076,2.268-0.367c0.877-0.459,1.109-1.117,1.109-1.647
		c0-0.603-0.413-1.19-1.031-1.483c-0.619-0.293-1.264-0.274-2.346-0.274V183.068L24.008,183.068z M24.008,189.35
		c0.953,0,1.727,0.015,2.423-0.314c0.567-0.273,1.34-0.859,1.34-2.14c0-0.972-0.463-1.501-0.902-1.812
		c-0.799-0.552-2.268-0.552-2.861-0.552V189.35L24.008,189.35z M21.662,177.74h1.881c2.552,0,3.197,0.127,4.073,0.403
		c1.34,0.42,2.217,1.666,2.217,2.781c0,1.648-1.701,2.4-2.577,2.856c1.159,0.295,2.963,1.027,2.963,3.242
		c0,1.428-1.16,2.58-2.062,3.094c-1.211,0.695-1.855,0.786-4.614,0.786h-1.881V177.74L21.662,177.74z"/>
	<polygon fill="#FFFFFF" points="180.932,177.765 180.932,187.04 175.387,177.765 172.312,177.765 172.312,191.019 174.846,191.019 
		174.846,181.02 180.688,191.019 183.461,191.019 183.461,177.765 180.932,177.765 	"/>
	<path fill="#FFFFFF" d="M69.932,183.203h-2.577v1.808h2.577v4.003c-1.093,0.009-2.229,0.012-2.322,0.012
		c-2.599,0-4.398-2.048-4.398-4.887c0-2.769,1.936-4.889,4.48-4.889c1.039,0,2.397,0.047,3.444,0.653l0.822-1.58
		c-1.589-0.845-2.825-1-4.349-1c-3.527,0-6.359,3.02-6.359,6.706c0,3.793,2.917,6.934,6.391,6.934c0.088,0,4.353,0,4.353,0
		c0-0.439,0-7.76,0-7.76H69.932L69.932,183.203L69.932,183.203z"/>
	<path fill="#FFFFFF" d="M85.557,189.184c-1.21,0.029-2.24-0.754-2.296-2.077c-0.054-1.188,0.862-1.921,1.581-2.413l2.647,3.014
		C86.94,188.451,86.479,189.162,85.557,189.184L85.557,189.184L85.557,189.184z M90.221,187.768c0.246-0.38,0.89-1.345,1.176-2.065
		l-1.675-1.503c-0.263,0.619-0.635,1.186-1.057,1.77l-3.292-3.89c-0.609-0.658-1.054-1.181-1.08-1.796
		c-0.027-0.591,0.426-1.098,1.294-1.119c0.413-0.009,0.788,0.142,0.938,0.576l1.332-1.5c-0.565-0.617-1.445-0.877-2.426-0.854
		c-2.003,0.049-3.448,1.369-3.378,2.933c0.049,1.147,0.745,1.939,1.415,2.795c-1.528,1.282-2.854,2.305-2.776,4.046
		c0.102,2.312,2.015,3.867,4.913,3.798c1.318-0.033,2.153-0.314,3.298-1.52l1.27,1.493l2.728,0.01L90.221,187.768L90.221,187.768
		L90.221,187.768z"/>
	<path fill="#FFFFFF" d="M104.5,189.594c-1.04,0-2.053-0.44-2.849-1.236c-0.999-0.998-1.573-2.454-1.573-3.995
		s0.574-2.998,1.573-3.995c0.796-0.798,1.809-1.236,2.849-1.236c1.042,0,2.055,0.438,2.851,1.236c1,0.997,1.571,2.454,1.571,3.995
		C108.922,187.246,106.938,189.594,104.5,189.594L104.5,189.594L104.5,189.594z M108.629,179.088
		c-1.139-1.139-2.605-1.765-4.129-1.765c-3.433,0-6.228,3.156-6.228,7.039c0,2.015,0.764,3.938,2.101,5.273
		c1.137,1.14,2.604,1.767,4.127,1.767c1.524,0,2.99-0.627,4.129-1.767c1.335-1.335,2.101-3.259,2.101-5.273
		C110.73,182.344,109.964,180.423,108.629,179.088L108.629,179.088L108.629,179.088z"/>
	<polygon fill="#FFFFFF" points="116.1,188.788 116.1,177.731 113.929,177.731 113.929,190.96 121.703,190.96 121.703,188.788 
		116.1,188.788 	"/>
	<polygon fill="#FFFFFF" points="146.045,179.875 146.045,177.704 138.271,177.704 138.271,190.932 140.442,190.932 
		140.442,185.386 145.592,185.386 145.592,183.218 140.442,183.218 140.442,179.875 146.045,179.875 	"/>
	<polygon fill="#FFFFFF" points="168.641,179.916 168.641,177.748 160.865,177.748 160.865,190.943 168.641,190.943 
		168.641,188.775 163.037,188.775 163.037,185.432 168.188,185.432 168.188,183.261 163.037,183.261 163.037,179.916 
		168.641,179.916 	"/>
	<path fill="#FFFFFF" d="M132.368,177.731v8.889c0,1.454-1.404,2.593-3.194,2.593c-0.988,0-1.871-0.336-2.477-0.943
		c-0.462-0.461-0.717-1.048-0.717-1.649v-8.889h-2.168v8.889c0,1.184,0.48,2.312,1.351,3.183c1.018,1.019,2.442,1.578,4.011,1.578
		c1.57,0,2.994-0.56,4.012-1.578c0.871-0.871,1.351-1.999,1.351-3.183v-8.889L132.368,177.731L132.368,177.731L132.368,177.731z"/>
	<path fill="#FFFFFF" d="M148.666,190.447c0.083,0.021,2.191,1.011,3.615,1.011c1.475,0,2.619-0.401,3.412-1.189
		c0.691-0.691,1.058-1.658,1.058-2.792c0-1.887-0.979-2.859-1.629-3.261l-3.666-2.396c-0.485-0.301-0.683-0.476-0.683-1.019
		c0-0.26,0.181-0.579,0.369-0.767c0.441-0.443,1.239-0.621,1.7-0.621c1.099,0,2.808,0.963,2.808,0.963v-2.153
		c-0.076-0.016-1.25-0.913-2.808-0.913c-1.755,0-4.177,1.081-4.177,3.491c0,1.883,1.016,2.438,1.628,2.891l3.667,2.398
		c0.486,0.298,0.585,0.729,0.585,1.386c0,0.828-0.259,1.776-2.265,1.776c-0.664,0-3.615-0.952-3.615-0.952V190.447L148.666,190.447z
		"/>
	<path fill="#FFFFFF" d="M36.168,185.34l2.203-4.716l2.183,4.716H36.168L36.168,185.34L36.168,185.34z M39.423,177.731h-2.099
		l-6.165,13.212h2.394l1.603-3.433h6.401l1.589,3.433h2.391L39.423,177.731L39.423,177.731L39.423,177.731z"/>
	<polygon fill="#FFFFFF" points="55.727,186.903 50.246,177.731 47.472,177.731 47.472,190.951 49.643,190.951 49.643,180.883 
		55.485,190.951 57.896,190.951 57.896,177.731 55.727,177.731 	"/>
</g>
<g>
	<path fill="#FFFFFF" d="M75.432,493.564c1.004,0,1.615-0.071,2.154-0.35c0.831-0.435,1.052-1.061,1.052-1.562
		c0-0.572-0.392-1.13-0.979-1.407c-0.587-0.279-1.199-0.262-2.227-0.262V493.564L75.432,493.564z M75.432,499.527
		c0.905,0,1.64,0.015,2.301-0.299c0.537-0.26,1.271-0.815,1.271-2.031c0-0.921-0.439-1.425-0.855-1.721
		c-0.76-0.522-2.154-0.522-2.717-0.522V499.527L75.432,499.527z M73.206,488.508h1.786c2.423,0,3.034,0.12,3.866,0.382
		c1.271,0.399,2.104,1.582,2.104,2.642c0,1.563-1.614,2.277-2.445,2.711c1.1,0.279,2.812,0.975,2.812,3.078
		c0,1.354-1.101,2.448-1.957,2.936c-1.15,0.661-1.762,0.748-4.38,0.748h-1.786V488.508L73.206,488.508z"/>
	<polygon fill="#FFFFFF" points="224.393,488.531 224.393,497.335 219.129,488.531 216.211,488.531 216.211,501.112 
		218.615,501.112 218.615,491.619 224.162,501.112 226.793,501.112 226.793,488.531 224.393,488.531 	"/>
	<path fill="#FFFFFF" d="M119.027,493.692h-2.446v1.717h2.446v3.8c-1.038,0.008-2.116,0.011-2.204,0.011
		c-2.468,0-4.175-1.942-4.175-4.64c0-2.628,1.837-4.641,4.253-4.641c0.986,0,2.274,0.046,3.27,0.62l0.78-1.501
		c-1.508-0.801-2.681-0.947-4.128-0.947c-3.349,0-6.037,2.865-6.037,6.365c0,3.601,2.77,6.581,6.067,6.581c0.084,0,4.132,0,4.132,0
		c0-0.417,0-7.365,0-7.365H119.027L119.027,493.692L119.027,493.692z"/>
	<path fill="#FFFFFF" d="M133.86,499.369c-1.149,0.028-2.126-0.715-2.18-1.971c-0.051-1.128,0.819-1.824,1.501-2.292l2.513,2.86
		C135.172,498.675,134.735,499.349,133.86,499.369L133.86,499.369L133.86,499.369z M138.287,498.026
		c0.233-0.361,0.846-1.277,1.116-1.961l-1.59-1.429c-0.249,0.588-0.603,1.125-1.003,1.681l-3.125-3.691
		c-0.578-0.625-1-1.121-1.025-1.704c-0.025-0.562,0.404-1.043,1.229-1.062c0.392-0.009,0.748,0.135,0.891,0.547l1.264-1.424
		c-0.537-0.586-1.372-0.832-2.303-0.811c-1.9,0.046-3.273,1.3-3.207,2.783c0.047,1.089,0.707,1.842,1.344,2.653
		c-1.45,1.218-2.709,2.188-2.636,3.841c0.097,2.193,1.913,3.67,4.663,3.604c1.251-0.031,2.045-0.298,3.131-1.441l1.205,1.417
		l2.59,0.01L138.287,498.026L138.287,498.026L138.287,498.026z"/>
	<path fill="#FFFFFF" d="M151.842,499.759c-0.988,0-1.95-0.417-2.705-1.173c-0.948-0.948-1.493-2.33-1.493-3.793
		c0-1.462,0.545-2.846,1.493-3.792c0.755-0.758,1.716-1.173,2.705-1.173c0.989,0,1.951,0.415,2.705,1.173
		c0.949,0.946,1.492,2.33,1.492,3.792C156.039,497.53,154.156,499.759,151.842,499.759L151.842,499.759L151.842,499.759z
		 M155.762,489.787c-1.082-1.081-2.473-1.676-3.92-1.676c-3.259,0-5.913,2.996-5.913,6.682c0,1.913,0.725,3.739,1.994,5.006
		c1.079,1.081,2.473,1.677,3.918,1.677c1.447,0,2.839-0.596,3.921-1.677c1.266-1.267,1.993-3.093,1.993-5.006
		C157.756,492.878,157.027,491.054,155.762,489.787L155.762,489.787L155.762,489.787z"/>
	<polygon fill="#FFFFFF" points="162.854,498.995 162.854,488.5 160.793,488.5 160.793,501.056 168.172,501.056 168.172,498.995 
		162.854,498.995 	"/>
	<polygon fill="#FFFFFF" points="191.275,490.533 191.275,488.473 183.896,488.473 183.896,501.028 185.957,501.028 
		185.957,495.765 190.846,495.765 190.846,493.707 185.957,493.707 185.957,490.533 191.275,490.533 	"/>
	<polygon fill="#FFFFFF" points="212.725,490.573 212.725,488.516 205.346,488.516 205.346,501.04 212.725,501.04 212.725,498.982 
		207.406,498.982 207.406,495.809 212.295,495.809 212.295,493.748 207.406,493.748 207.406,490.573 212.725,490.573 	"/>
	<path fill="#FFFFFF" d="M135.498,443.179c2.526-1.211,4.858-2.842,6.86-4.846c4.265-4.262,6.612-9.771,6.612-15.514
		c0-6.402-2.605-12.68-7.146-17.222c-5.011-5.01-11.856-7.658-19.795-7.658h-2.574v76.183h8.409c3.16,0,8.104-1.254,11.643-4.795
		c2.823-2.821,4.314-6.684,4.314-11.161c0-5.047-1.557-9.162-4.63-12.235C138.053,444.791,136.79,443.891,135.498,443.179z
		 M124.603,403.205c5.437,0.489,10.096,2.55,13.581,6.035c3.581,3.584,5.637,8.532,5.637,13.58
		c0.001,9.578-8.894,17.672-19.218,17.672V403.205z M127.864,468.977h-3.261V445.64c3.158,0,8.049,1.027,10.949,3.931
		c2.07,2.07,3.121,4.963,3.121,8.596C138.673,468.681,127.972,468.977,127.864,468.977z"/>
	<path fill="#FFFFFF" d="M170.588,468.615c-4.303,0-8.348-1.678-11.391-4.719c-3.045-3.046-4.721-7.09-4.721-11.394
		c0-4.305,1.676-8.349,4.721-11.394c3.043-3.042,7.088-4.719,11.391-4.719c4.305,0,8.348,1.677,11.393,4.719
		c3.041,3.045,4.718,7.089,4.718,11.394C186.697,461.389,179.471,468.615,170.588,468.615L170.588,468.615L170.588,468.615z
		 M185.619,437.471c-4.016-4.014-9.352-6.226-15.031-6.226c-11.721,0-21.257,9.537-21.257,21.259c0,5.677,2.21,11.016,6.228,15.032
		c4.015,4.015,9.353,6.225,15.029,6.225c5.68,0,11.016-2.21,15.031-6.225c4.014-4.018,6.225-9.355,6.225-15.032
		C191.844,446.826,189.633,441.487,185.619,437.471L185.619,437.471L185.619,437.471z"/>
	<path fill="#FFFFFF" d="M172.07,421.385c-0.766,0.753-1.801,1.178-2.896,1.178c-1.111,0-2.156-0.436-2.943-1.22
		c-0.785-0.786-1.219-1.83-1.219-2.94c0-1.112,0.434-2.156,1.219-2.942l1.982-1.98c1.742,1.705,3.879,3.796,5.943,5.82
		L172.07,421.385L172.07,421.385L172.07,421.385z M170.809,396.213h-1.51c-4.037,0.382-7.207,3.79-7.207,7.925
		c0,2.126,0.828,4.124,2.334,5.629c0,0.001,0.037,0.039,0.109,0.109l-1.941,1.943c-1.76,1.759-2.727,4.095-2.727,6.582
		c0,2.483,0.967,4.821,2.727,6.58c1.756,1.759,4.092,2.727,6.58,2.727c2.455,0,4.77-0.946,6.52-2.665
		c0.007-0.006,0.914-0.914,2.146-2.144c2.445,2.397,4.246,4.159,4.246,4.159l3.603-3.678l0,0l-4.209-4.122
		c1.678-1.679,3.069-3.072,3.069-3.072l-3.641-3.64l-3.109,3.111l-9.752-9.553c-0.512-0.513-0.805-1.219-0.805-1.97
		c0-0.752,0.293-1.459,0.821-1.989c0.531-0.529,1.238-0.823,1.992-0.823c0.812,0,1.584,0.352,2.119,0.963l3.875-3.386
		C174.701,397.361,172.826,396.405,170.809,396.213L170.809,396.213z"/>
	<path fill="#FFFFFF" d="M178.295,488.5v8.438c0,1.38-1.332,2.461-3.031,2.461c-0.938,0-1.775-0.318-2.352-0.896
		c-0.439-0.438-0.682-0.994-0.682-1.564V488.5h-2.058v8.438c0,1.122,0.455,2.192,1.281,3.021c0.967,0.967,2.317,1.498,3.81,1.498
		c1.49,0,2.84-0.531,3.807-1.498c0.826-0.827,1.281-1.897,1.281-3.021V488.5H178.295L178.295,488.5L178.295,488.5z"/>
	<path fill="#FFFFFF" d="M193.764,500.57c0.08,0.018,2.08,0.959,3.432,0.959c1.398,0,2.488-0.382,3.238-1.13
		c0.658-0.656,1.004-1.574,1.004-2.65c0-1.791-0.93-2.714-1.547-3.096l-3.479-2.273c-0.461-0.285-0.648-0.451-0.648-0.967
		c0-0.247,0.172-0.55,0.353-0.729c0.418-0.42,1.178-0.59,1.614-0.59c1.041,0,2.662,0.915,2.662,0.915v-2.045
		c-0.069-0.016-1.186-0.867-2.662-0.867c-1.668,0-3.967,1.027-3.967,3.314c0,1.788,0.965,2.313,1.545,2.744l3.482,2.275
		c0.459,0.282,0.553,0.692,0.553,1.315c0,0.786-0.244,1.687-2.148,1.687c-0.631,0-3.432-0.902-3.432-0.902V500.57L193.764,500.57z"
		/>
	<path fill="#FFFFFF" d="M86.975,495.722l2.092-4.477l2.07,4.477H86.975L86.975,495.722L86.975,495.722z M90.065,488.5h-1.992
		l-5.852,12.54h2.272l1.522-3.258h6.076l1.508,3.258h2.27L90.065,488.5L90.065,488.5L90.065,488.5z"/>
	<polygon fill="#FFFFFF" points="105.542,497.205 100.338,488.5 97.707,488.5 97.707,501.048 99.766,501.048 99.766,491.489 
		105.313,501.048 107.601,501.048 107.601,488.5 105.542,488.5 	"/>
</g>
<g>
	<path fill="#FFFFFF" d="M111.326,783.201c0.752,0,1.211-0.053,1.615-0.26c0.623-0.326,0.789-0.798,0.789-1.175
		c0-0.43-0.295-0.848-0.734-1.055c-0.439-0.209-0.9-0.197-1.67-0.197V783.201L111.326,783.201z M111.326,787.674
		c0.68,0,1.23,0.012,1.725-0.223c0.404-0.195,0.953-0.613,0.953-1.525c0-0.688-0.328-1.067-0.641-1.289
		c-0.568-0.393-1.615-0.393-2.037-0.393V787.674L111.326,787.674z M109.656,779.41h1.34c1.816,0,2.275,0.09,2.898,0.285
		c0.953,0.301,1.578,1.188,1.578,1.979c0,1.174-1.211,1.709-1.834,2.033c0.826,0.211,2.109,0.731,2.109,2.309
		c0,1.019-0.824,1.839-1.469,2.203c-0.861,0.494-1.32,0.562-3.283,0.562h-1.34v-9.371H109.656z"/>
	<polygon fill="#FFFFFF" points="188.543,779.428 188.543,786.029 184.596,779.428 182.408,779.428 182.408,788.863 
		184.211,788.863 184.211,781.742 188.371,788.863 190.344,788.863 190.344,779.428 188.543,779.428 	"/>
	<path fill="#FFFFFF" d="M133.519,783.299h-1.834v1.287h1.834v2.85c-0.777,0.007-1.586,0.009-1.652,0.009
		c-1.852,0-3.131-1.457-3.131-3.48c0-1.971,1.379-3.479,3.189-3.479c0.74,0,1.705,0.032,2.451,0.465l0.586-1.125
		c-1.131-0.603-2.01-0.713-3.096-0.713c-2.512,0-4.527,2.149-4.527,4.774c0,2.699,2.078,4.937,4.551,4.937c0.062,0,3.1,0,3.1,0
		c0-0.312,0-5.523,0-5.523L133.519,783.299L133.519,783.299L133.519,783.299z"/>
	<path fill="#FFFFFF" d="M140.894,787.555c-0.861,0.021-1.594-0.535-1.635-1.477c-0.037-0.846,0.615-1.369,1.127-1.719l1.883,2.145
		C141.878,787.035,141.55,787.541,140.894,787.555L140.894,787.555L140.894,787.555z M144.214,786.549
		c0.176-0.271,0.635-0.959,0.838-1.471l-1.193-1.07c-0.186,0.439-0.451,0.844-0.752,1.26l-2.344-2.77
		c-0.434-0.469-0.75-0.84-0.77-1.277c-0.018-0.422,0.305-0.783,0.922-0.799c0.293-0.006,0.561,0.103,0.668,0.41l0.947-1.066
		c-0.402-0.438-1.029-0.625-1.727-0.606c-1.426,0.033-2.455,0.975-2.404,2.086c0.035,0.817,0.529,1.383,1.008,1.99
		c-1.088,0.914-2.033,1.641-1.979,2.881c0.074,1.646,1.436,2.752,3.498,2.703c0.938-0.023,1.533-0.224,2.348-1.082l0.904,1.063
		l1.943,0.006L144.214,786.549L144.214,786.549L144.214,786.549z"/>
	<path fill="#FFFFFF" d="M152.131,787.848c-0.74,0-1.461-0.312-2.028-0.879c-0.711-0.711-1.121-1.748-1.121-2.846
		c0-1.096,0.41-2.135,1.121-2.844c0.567-0.568,1.288-0.879,2.028-0.879c0.742,0,1.463,0.311,2.029,0.879
		c0.711,0.709,1.119,1.748,1.119,2.844C155.279,786.176,153.867,787.848,152.131,787.848L152.131,787.848L152.131,787.848z
		 M155.07,780.369c-0.812-0.812-1.854-1.258-2.939-1.258c-2.444,0-4.434,2.248-4.434,5.012c0,1.436,0.543,2.805,1.496,3.754
		c0.809,0.812,1.854,1.258,2.938,1.258c1.086,0,2.129-0.444,2.939-1.258c0.949-0.949,1.496-2.318,1.496-3.754
		S156.02,781.318,155.07,780.369L155.07,780.369L155.07,780.369z"/>
	<polygon fill="#FFFFFF" points="160.391,787.275 160.391,779.404 158.844,779.404 158.844,788.82 164.379,788.82 164.379,787.275 
		160.391,787.275 	"/>
	<polygon fill="#FFFFFF" points="172.707,780.928 172.707,779.383 167.172,779.383 167.172,788.801 168.719,788.801 
		168.719,784.852 172.385,784.852 172.385,783.309 168.719,783.309 168.719,780.928 172.707,780.928 	"/>
	<path fill="#FFFFFF" d="M128.83,743.398v3.86c2.369,0,5.908,0.771,8.082,2.947c1.553,1.553,2.342,3.721,2.342,6.445
		c0,7.887-8.025,8.108-8.107,8.108h-2.445v-49.33c4.078,0.367,7.572,1.912,10.186,4.527c2.686,2.688,4.229,6.398,4.229,10.184
		C143.115,737.328,136.572,743.398,128.83,743.398L128.83,743.398L128.83,743.398z M146.976,730.143
		c0-4.801-1.955-9.508-5.359-12.914c-3.758-3.758-8.893-5.745-14.846-5.745h-1.93v57.139h6.305c2.371,0,6.078-0.941,8.732-3.598
		c2.117-2.115,3.236-5.013,3.236-8.371c0-3.785-1.168-6.871-3.473-9.177c-0.854-0.854-1.801-1.528-2.77-2.063
		c1.895-0.908,3.643-2.131,5.145-3.633C145.214,738.582,146.976,734.449,146.976,730.143L146.976,730.143L146.976,730.143z"/>
	<path fill="#FFFFFF" d="M163.189,764.49c-3.228,0-6.263-1.258-8.543-3.539c-2.283-2.283-3.541-5.316-3.541-8.545
		c0-3.229,1.258-6.263,3.541-8.545c2.28-2.281,5.315-3.539,8.543-3.539c3.229,0,6.262,1.258,8.545,3.539
		c2.281,2.283,3.539,5.315,3.539,8.545C175.273,759.07,169.852,764.49,163.189,764.49L163.189,764.49L163.189,764.49z
		 M174.465,741.131c-3.012-3.01-7.016-4.668-11.275-4.668c-8.791,0-15.943,7.152-15.943,15.943c0,4.258,1.658,8.262,4.672,11.274
		c3.01,3.011,7.014,4.668,11.271,4.668c4.26,0,8.264-1.657,11.274-4.668c3.011-3.014,4.668-7.018,4.668-11.274
		C179.132,748.148,177.475,744.145,174.465,741.131L174.465,741.131L174.465,741.131z"/>
	<path fill="#FFFFFF" d="M164.301,729.066c-0.574,0.565-1.35,0.883-2.172,0.883c-0.834,0-1.617-0.326-2.207-0.914
		c-0.59-0.59-0.914-1.371-0.914-2.205s0.324-1.617,0.914-2.207l1.486-1.486c1.307,1.279,2.908,2.849,4.457,4.365L164.301,729.066
		L164.301,729.066L164.301,729.066z M163.355,710.188h-1.133c-3.027,0.287-5.404,2.845-5.404,5.945c0,1.594,0.619,3.092,1.75,4.221
		c0,0,0.027,0.029,0.082,0.082l-1.457,1.457c-1.32,1.32-2.045,3.072-2.045,4.938c0,1.863,0.725,3.617,2.045,4.936
		c1.315,1.318,3.07,2.045,4.936,2.045c1.842,0,3.576-0.711,4.889-2c0.006-0.004,0.687-0.686,1.609-1.606
		c1.836,1.799,3.186,3.121,3.186,3.121l2.701-2.761l0,0l-3.158-3.092c1.261-1.258,2.304-2.303,2.304-2.303l-2.729-2.729
		l-2.334,2.334l-7.313-7.164c-0.384-0.386-0.603-0.914-0.603-1.478s0.219-1.096,0.615-1.492c0.398-0.397,0.93-0.619,1.494-0.619
		c0.607,0,1.188,0.265,1.59,0.724l2.906-2.539C166.273,711.049,164.867,710.332,163.355,710.188L163.355,710.188z"/>
	<path fill="#FFFFFF" d="M174.572,788.457c0.061,0.012,1.561,0.719,2.574,0.719c1.049,0,1.865-0.287,2.43-0.848
		c0.492-0.492,0.752-1.18,0.752-1.988c0-1.342-0.697-2.035-1.16-2.32l-2.609-1.705c-0.346-0.215-0.485-0.34-0.485-0.727
		c0-0.186,0.129-0.412,0.264-0.545c0.313-0.314,0.884-0.443,1.211-0.443c0.781,0,1.998,0.688,1.998,0.688v-1.533
		c-0.053-0.012-0.889-0.65-1.998-0.65c-1.25,0-2.975,0.771-2.975,2.484c0,1.342,0.725,1.736,1.159,2.06l2.611,1.706
		c0.344,0.214,0.414,0.521,0.414,0.986c0,0.59-0.184,1.267-1.611,1.267c-0.473,0-2.573-0.679-2.573-0.679L174.572,788.457
		L174.572,788.457z"/>
	<polygon fill="#FFFFFF" points="123.406,785.932 119.503,779.404 117.531,779.404 117.531,788.814 119.076,788.814 
		119.076,781.646 123.236,788.814 124.951,788.814 124.951,779.404 123.406,779.404 	"/>
</g>
<g>
	<path fill="#FFFFFF" d="M134.562,1061.15v2.573c1.578,0,3.938,0.515,5.389,1.966c1.035,1.035,1.561,2.481,1.561,4.299
		c0,5.257-5.352,5.403-5.404,5.403h-1.631v-32.886c2.719,0.245,5.047,1.274,6.791,3.018c1.789,1.793,2.818,4.268,2.818,6.791
		C144.086,1057.104,139.725,1061.15,134.562,1061.15L134.562,1061.15L134.562,1061.15z M146.66,1052.314
		c0-3.201-1.303-6.341-3.574-8.61c-2.504-2.505-5.928-3.829-9.896-3.829h-1.287v38.091h4.205c1.58,0,4.051-0.627,5.82-2.396
		c1.412-1.41,2.158-3.343,2.158-5.58c0-2.523-0.779-4.582-2.316-6.118c-0.568-0.569-1.199-1.021-1.846-1.376
		c1.264-0.605,2.43-1.421,3.43-2.423C145.486,1057.939,146.66,1055.186,146.66,1052.314L146.66,1052.314L146.66,1052.314z"/>
	<path fill="#FFFFFF" d="M157.469,1075.213c-2.152,0-4.174-0.839-5.695-2.359c-1.522-1.522-2.36-3.545-2.36-5.696
		c0-2.152,0.838-4.174,2.36-5.696c1.521-1.521,3.543-2.358,5.695-2.358s4.174,0.839,5.695,2.358
		c1.521,1.521,2.359,3.544,2.359,5.696C165.523,1071.6,161.91,1075.213,157.469,1075.213L157.469,1075.213L157.469,1075.213z
		 M164.984,1059.641c-2.008-2.008-4.676-3.112-7.517-3.112c-5.86,0-10.629,4.769-10.629,10.629c0,2.839,1.105,5.508,3.113,7.517
		c2.008,2.007,4.676,3.112,7.516,3.112c2.841,0,5.509-1.105,7.517-3.112c2.008-2.009,3.113-4.678,3.113-7.517
		S166.992,1061.648,164.984,1059.641L164.984,1059.641L164.984,1059.641z"/>
	<path fill="#FFFFFF" d="M158.209,1051.598c-0.383,0.376-0.9,0.588-1.447,0.588c-0.557,0-1.078-0.217-1.473-0.608
		c-0.393-0.394-0.609-0.915-0.609-1.471c0-0.558,0.217-1.078,0.609-1.472l0.992-0.99c0.871,0.853,1.939,1.896,2.971,2.91
		L158.209,1051.598L158.209,1051.598L158.209,1051.598z M157.578,1039.012h-0.754c-2.02,0.19-3.604,1.896-3.604,3.962
		c0,1.063,0.413,2.062,1.166,2.814c0,0.001,0.02,0.02,0.055,0.055l-0.971,0.973c-0.88,0.879-1.363,2.047-1.363,3.291
		c0,1.241,0.483,2.411,1.363,3.29c0.879,0.88,2.047,1.362,3.291,1.362c1.227,0,2.385-0.474,3.26-1.333
		c0.002-0.002,0.457-0.457,1.071-1.07c1.224,1.198,2.123,2.08,2.123,2.08l1.802-1.84l0,0l-2.105-2.061
		c0.84-0.84,1.535-1.537,1.535-1.537l-1.818-1.819l-1.557,1.557l-4.875-4.775c-0.256-0.257-0.402-0.608-0.402-0.985
		c0-0.375,0.146-0.729,0.41-0.994c0.266-0.266,0.619-0.412,0.996-0.412c0.406,0,0.793,0.176,1.061,0.481l1.938-1.692
		C159.525,1039.586,158.588,1039.107,157.578,1039.012L157.578,1039.012z"/>
</g>
<rect x="397.478" fill="none" stroke="#70706E" stroke-width="0.7484" stroke-miterlimit="10" width="299.371" height="299.363"/>
<rect x="397.478" y="299.19" fill="none" stroke="#70706E" stroke-width="0.7484" stroke-miterlimit="10" width="299.371" height="299.361"/>
<rect x="397.478" y="600" fill="none" stroke="#70706E" stroke-width="0.7484" stroke-miterlimit="10" width="299.371" height="299.363"/>
<rect x="397.478" y="899.363" fill="none" stroke="#70706E" stroke-width="0.7484" stroke-miterlimit="10" width="299.371" height="299.361"/>
<g>
	<path fill="#FFFFFF" d="M218.979,158.861c2.662-1.275,5.117-2.994,7.229-5.105c4.49-4.49,6.964-10.295,6.964-16.343
		c0-6.744-2.745-13.356-7.526-18.142c-5.278-5.277-12.49-8.068-20.854-8.068h-2.711v80.255h8.858c3.328,0,8.537-1.32,12.265-5.05
		c2.976-2.973,4.545-7.04,4.545-11.758c0-5.316-1.642-9.652-4.877-12.891C221.672,160.56,220.34,159.61,218.979,158.861z
		 M207.503,116.749c5.728,0.515,10.636,2.687,14.306,6.357c3.772,3.776,5.938,8.988,5.938,14.307
		c0,10.09-9.188,18.617-20.065,18.617h-0.179V116.749z M210.938,186.038h-3.435v-24.584c3.327,0,8.478,1.083,11.533,4.14
		c2.181,2.183,3.288,5.229,3.288,9.057C222.324,185.727,211.051,186.038,210.938,186.038z"/>
	<path fill="#FFFFFF" d="M255.943,185.657c-4.532,0-8.795-1.767-11.998-4.971c-3.207-3.208-4.975-7.469-4.975-12.002
		c0-4.534,1.768-8.794,4.975-12.003c3.203-3.204,7.466-4.969,11.998-4.969c4.535,0,8.795,1.765,12.004,4.969
		c3.203,3.209,4.969,7.469,4.969,12.003C272.916,178.043,265.302,185.657,255.943,185.657L255.943,185.657L255.943,185.657z
		 M271.779,152.848c-4.229-4.229-9.852-6.56-15.836-6.56c-12.348,0-22.394,10.048-22.394,22.396c0,5.98,2.328,11.605,6.56,15.835
		c4.229,4.23,9.854,6.559,15.834,6.559c5.984,0,11.605-2.328,15.836-6.559c4.229-4.229,6.559-9.854,6.559-15.835
		S276.009,157.079,271.779,152.848L271.779,152.848L271.779,152.848z"/>
	<path fill="#FFFFFF" d="M257.506,135.902c-0.807,0.792-1.896,1.239-3.052,1.239c-1.17,0-2.271-0.458-3.101-1.284
		c-0.828-0.828-1.283-1.928-1.283-3.099c0-1.172,0.455-2.271,1.283-3.1l2.088-2.088c1.836,1.798,4.086,3.999,6.262,6.134
		L257.506,135.902L257.506,135.902L257.506,135.902z M256.178,109.384h-1.592c-4.253,0.401-7.592,3.992-7.592,8.348
		c0,2.239,0.871,4.345,2.458,5.93c0,0.002,0.039,0.041,0.114,0.115l-2.045,2.048c-1.854,1.853-2.871,4.313-2.871,6.934
		c0,2.617,1.018,5.08,2.871,6.932c1.85,1.853,4.312,2.872,6.933,2.872c2.586,0,5.022-0.996,6.866-2.807
		c0.008-0.007,0.964-0.963,2.261-2.259c2.578,2.526,4.476,4.383,4.476,4.383l3.795-3.874l0,0l-4.437-4.343
		c1.771-1.769,3.233-3.236,3.233-3.236l-3.832-3.835l-3.277,3.278l-10.275-10.062c-0.537-0.54-0.846-1.284-0.846-2.075
		c0-0.792,0.309-1.537,0.866-2.096c0.56-0.559,1.304-0.868,2.097-0.868c0.855,0,1.671,0.37,2.233,1.014l4.084-3.565
		C260.277,110.594,258.303,109.586,256.178,109.384L256.178,109.384z"/>
</g>
</svg>
