<?xml version="1.0" encoding="utf-8"?>
<!-- Generator: Adobe Illustrator 15.0.0, SVG Export Plug-In . SVG Version: 6.00 Build 0)  -->
<!DOCTYPE svg PUBLIC "-//W3C//DTD SVG 1.1//EN" "http://www.w3.org/Graphics/SVG/1.1/DTD/svg11.dtd">
<svg version="1.1" id="Layer_1" xmlns="http://www.w3.org/2000/svg" xmlns:xlink="http://www.w3.org/1999/xlink" x="0px" y="0px"
	 width="300px" height="1200px" viewBox="0 0 300 1200" enable-background="new 0 0 300 1200" xml:space="preserve">
<rect x="440.349" fill="none" stroke="#70706E" stroke-width="0.7484" stroke-miterlimit="10" width="299.371" height="299.363"/>
<rect x="440.349" y="300.637" fill="none" stroke="#70706E" stroke-width="0.7484" stroke-miterlimit="10" width="299.371" height="299.363"/>
<rect x="440.349" y="600" fill="none" stroke="#70706E" stroke-width="0.7484" stroke-miterlimit="10" width="299.371" height="299.363"/>
<rect x="440.349" y="899.363" fill="none" stroke="#70706E" stroke-width="0.7484" stroke-miterlimit="10" width="299.371" height="299.363"/>
<g>
	<path fill="#FFFFFF" d="M64.022,170.166c12.118,0,23.19-6.693,35.308-6.693c5.987,0,10.366,1.948,13.699,6.978
		c3.078-1.47,6.156-2.176,9.574-2.176c5.566,0,10.764,1.581,16.156,2.769c-6.213-9.547-18.218-13.783-29.178-13.783
		c-7.938,0-15.395,2.26-22.937,4.576c-5.396,1.638-11.101,3.783-16.807,3.783c-7.373,0-12.397-5.057-12.397-12.427
		c0-3.559,0.734-7.09,1.893-10.423c2.852-8.219,7.031-15.957,12.259-22.934c2.598-3.477,10.279-12.286,15.082-12.286
		c0.818,0,1.639,0.594,1.639,1.467c0,0.679-1.188,0.651-1.639,0.791c-1.949,0.707-3.473,3.362-3.473,5.396
		c0,1.101,0.873,2.482,2.117,2.482c3.869,0,5.847-5.422,5.847-8.612s-2.683-5.311-5.761-5.311c-8.588,0-18.673,8.953-23.813,14.913
		c-7.201,8.331-14.575,21.352-14.575,32.763C47.019,162.342,52.583,170.166,64.022,170.166z"/>
	<path fill="#FFFFFF" d="M86.534,120.088c-9.433,0-19.827,18.359-19.827,26.89c0,3.418,1.75,6.693,5.48,6.693
		c4.492,0,7.711-3.53,10.225-6.836c2.543-3.331,4.889-6.918,6.637-10.732c1.412-0.026,2.798-0.282,4.183-0.563
		c-1.385,3.275-3.249,6.777-3.249,10.394c0,3.729,2.176,7.823,6.327,7.823c5.622,0,10.282-4.547,14.124-8.105
		c-0.17,0.961-0.34,1.949-0.34,2.938c0,2.625,1.582,5.28,4.437,5.28c2.853,0,5.562-2.315,7.371-4.293
		c0.084,2.062,0.705,4.35,3.222,4.35c7.006,0,14.463-11.438,16.975-17.455h-3.219c-1.018,2.12-5.059,9.293-7.516,9.293
		c-0.227,0-0.366-0.113-0.366-0.339c0-0.536,0.366-1.243,0.595-1.694l11.946-23.443h-8.104l-0.735,1.301
		c-0.959-1.103-2.344-1.44-3.783-1.44c-5.339,0-10.849,6.071-13.36,10.364l-1.948,3.334l-1.046,1.553
		c-2.314,3.505-8.926,12.625-13.5,12.625c-1.611,0-2.315-1.468-2.315-2.881c0-4.151,2.569-8.247,4.659-11.608
		c1.271-2.088,5.168-9.318,8.331-9.15c0.427,0,1.047,0.058,1.047,0.623c0,0.562-4.718,1.101-4.718,5.62
		c0,1.157,0.818,2.315,2.033,2.315c3.08,0,5.509-5.169,5.509-7.767c0-2.995-2.033-5.028-4.998-5.028
		c-4.126,0-7.74,3.078-10.339,5.988l-2.57,2.853c-1.922,2.146-4.182,3.672-7.116,3.643c0.508-2.174,1.103-4.433,1.103-6.721
		C91.678,122.886,89.755,120.088,86.534,120.088z M77.187,146.328c-1.187,0-1.695-1.243-1.695-2.261
		c0-3.473,3.191-9.433,5.197-12.257c1.553,1.667,3.051,2.795,5.197,3.531C84.755,138.107,80.575,146.328,77.187,146.328z
		 M87.325,132.177c-0.197,0.451-2.4-0.902-2.57-1.073c-0.846-0.732-1.438-1.75-1.438-2.907c0-1.81,1.582-3.982,3.529-3.982
		c1.327,0,1.893,1.439,1.893,2.541C88.736,128.676,88.06,130.482,87.325,132.177z M131.899,124.522c0.424,0,0.764,0.368,0.764,0.764
		c0,0.649-0.198,1.299-0.481,1.863l-1.24,2.571l-2.46,5.281c-0.903,1.892-5.619,11.127-8.304,11.127
		c-0.705,0-0.961-0.932-0.934-1.496C119.441,140.454,127.941,124.522,131.899,124.522z"/>
	<path fill="#FFFFFF" d="M145.821,122.01l-3.276,6.467h5.791c1.781,0,2.602-0.28,3.391-1.922l3.021-6.212l-5.959,0.029
		C147.317,120.373,146.5,120.654,145.821,122.01z"/>
	<path fill="#FFFFFF" d="M155.002,170.166c11.809,0,22.879-16.354,22.879-27.312c0-3.304-2.203-6.411-5.707-6.411
		c-8.697,0-14.631,13.247-14.631,20.703c0,0.735,0.143,1.498,0.256,2.231c2.881-3.391,5.254-5.762,9.266-7.71
		c0.254-2.994,2.314-10.987,6.154-10.987c1.557,0,1.727,2.005,1.727,3.164c0,7.003-8.393,20.759-16.045,20.759
		c-3.811,0-5.592-3.106-5.592-6.608c0-3.222,0.623-6.411,1.666-9.435c3.105-9.179,7.852-17.82,13.781-25.475
		c3.646-4.662,9.066-10.847,14.207-13.87c1.471-0.847,2.939-1.241,4.633-1.354c-5.73,4.405-12.514,11.579-12.514,19.29
		c0,2.713,1.643,4.857,4.465,4.857c7.514,0,13.443-13.923,13.443-20.362c0-0.791-0.055-1.61-0.111-2.373
		c0.932-0.197,1.863-0.312,2.822-0.312c2.656,0,5.396,0.707,7.77,1.948c4.549,2.4,8.699,5.648,12.852,8.672l5.959-7.202
		c-6.1-4.718-12.652-8.841-20.645-8.841c-3.645,0-6.979,0.934-10.338,2.259c-1.525-1.384-3.391-2.005-5.451-2.005
		c-9.771,0-20.334,9.801-26.125,16.607c-7.77,9.123-16.242,24.29-16.242,36.773C143.478,164.093,147.714,170.166,155.002,170.166z
		 M186.832,122.065c-1.211,2.147-4.148,6.864-7.031,6.864c-1.045,0-1.582-0.961-1.582-1.922c0-6.129,6.525-13.613,11.609-16.607
		C189.631,114.581,188.924,118.366,186.832,122.065z"/>
	<path fill="#FFFFFF" d="M245.666,136.47h-7.936l-0.734,1.413l-0.395-0.283l-0.789-0.562c-0.682-0.537-1.754-0.707-2.629-0.707
		c-11.129,0-19.064,25.929-24.092,25.929c-0.768,0-0.99-0.904-0.99-1.526c0-6.41,5.256-18.583,8.02-24.374
		c3.391-7.117,7.939-15.225,13.191-21.212l5.055-5.762c0.736-0.818,1.865-2.175,3.051-2.175c0.17,0,0.312,0.198,0.312,0.368
		c0,0.451-0.338,0.959-0.623,1.299l-0.566,0.705c-0.111,0.17-0.336,0.537,0.061,0.537h0.113h0.082c1.133,0,2.459-2.288,2.459-3.307
		c0-1.637-1.439-3.049-3.051-3.049c-6.326,0-12.512,8.219-15.959,12.71c-7.398,9.631-13.135,20.562-17.342,31.944
		c-1.215,0.705-2.373,0.932-3.756,0.987c0.707-2.372,1.611-4.855,1.611-7.345c0-2.822-1.67-5.676-4.773-5.676
		c-9.18,0-19.717,18.302-19.717,26.662c0,3.192,1.525,7.061,5.256,7.061c3.219,0,6.352-2.569,8.387-4.801
		c3.418-3.7,5.678-8.135,7.881-12.597h0.789c1.045,0,2.008-0.113,2.967-0.509c-1.045,3.502-1.947,7.031-1.947,10.731
		c0,3.052,1.186,7.005,4.939,7.005c3.984,0,6.781-3.981,9.039-6.722c-0.025,0.479-0.025,0.961-0.025,1.44
		c0,2.599,1.07,5.254,4.037,5.254c2.992,0,5.396-2.516,7.373-4.492c-0.027,0.283-0.027,0.565-0.027,0.848
		c0,1.751,1.156,3.559,3.051,3.559c6.723,0,13.896-11.776,16.066-17.342h-2.881c-0.93,2.146-4.658,9.236-7.256,9.236
		c-0.256,0-0.34-0.283-0.34-0.509c0-0.621,0.367-1.186,0.621-1.722L245.666,136.47z M186.324,162.568
		c-1.24,0-1.666-1.47-1.666-2.456c0-3.757,2.938-8.869,4.859-12.033c1.383,1.894,2.824,3.503,5.168,4.124
		C193.387,154.941,189.941,162.568,186.324,162.568z M196.127,149.012c-1.836-0.793-3.504-1.838-3.504-4.069
		c0-1.807,1.104-4.488,3.248-4.488c1.188,0,1.895,1.215,1.895,2.26C197.766,144.859,197.031,147.091,196.127,149.012z
		 M231.459,150.057c-0.592,1.354-5.592,11.945-8.135,12.115c-0.705,0.057-1.074-0.705-1.074-1.299
		c0-4.435,4.463-12.174,7.006-15.676c0.734-1.018,3.418-4.548,4.973-4.548c0.449,0,0.707,0.481,0.707,0.875
		c0,0.367-0.143,0.734-0.281,1.073L231.459,150.057z"/>
	<path fill="#FFFFFF" d="M224.879,123.62c0.818,0.084,1.639,0.142,2.457,0.142c11.977,0,23.133-9.124,25.479-20.815
		c-6.75,7.089-11.471,11.691-21.693,12.005L224.879,123.62z"/>
	<path fill="#FFFFFF" d="M175.227,167.822c-0.936,0.593-1.836,1.214-2.797,1.724c-9.234,4.631-19.801,6.891-29.855,8.953
		c-14.038,2.852-28.272,4.716-42.623,4.716c-19.29,0-38.895-2.399-57.337-8.106c-7.402-2.258-14.632-5.11-21.835-7.936l0.113,32.566
		c7.287,1.468,14.604,2.908,21.976,3.783c7.628,0.933,15.31,1.355,22.964,1.355c25.957,0,51.577-5.338,75.644-15.054
		c12.596-5.086,25.165-10.959,35.614-19.742L175.227,167.822z"/>
	<path fill="#FFFFFF" d="M261.682,115.062c-8.953,2.117-17.65,5.422-25.76,9.715c-6.301,3.332-12.029,7.514-17.709,11.777
		l-2.625,5.904c5.982-3.729,12.029-6.864,18.863-8.729c7.484-2.032,15.338-2.822,23.105-2.822c7.201,0,14.404,0.847,21.551,1.75
		l0.113-20.394C273.348,112.971,267.443,113.707,261.682,115.062z"/>
	<path fill="#FFFFFF" d="M202.766,186.689c-6.244,0-11.695,5.31-11.695,11.637c0,0.735,0.145,1.439,0.285,2.146
		c-0.766,0.28-1.525,0.451-2.346,0.451c-3.361,0-5.598-3.105-5.598-6.3c0-5.195,3.311-13.217,9.439-13.217
		c2.82,0,4.939,1.609,6.27,4.012l1.555-6.921c-0.398,0.056-0.791,0.112-1.217,0.112c-0.508,0-1.07-0.086-1.582-0.143l-2.426-0.31
		c-0.736-0.113-1.471-0.17-2.203-0.17c-9.209,0-16.861,8.474-16.861,17.48c0,6.215,3.84,9.745,9.969,9.745
		c2.43,0,4.547-0.646,6.666-1.75c2.174,1.356,4.264,1.75,6.777,1.695c5.791-0.144,10.451-6.328,10.451-11.835
		C210.248,189.062,206.775,186.689,202.766,186.689z M198.867,203.098c-1.781,0-2.262-2.032-2.262-3.473
		c0-2.91,2.033-10.113,5.68-10.113c1.578,0,2.201,1.81,2.201,3.137C204.486,195.557,202.594,203.098,198.867,203.098z"/>
	<path fill="#FFFFFF" d="M229.852,187.169h-8.896c0.479,0.452,0.904,0.903,0.904,1.609c0,1.355-3.418,3.927-4.322,4.802l1.752-9.01
		h-7.033c0.904,0.594,1.383,1.271,1.383,2.344c0,0.282-0.027,0.564-0.082,0.848l-2.656,12.541l-0.311,1.355
		c-0.283,1.354-1.357,2.344-2.289,3.276h8.189c-0.537-0.536-0.959-0.989-0.959-1.78c0-0.508,0.059-1.044,0.17-1.524l0.959-3.868
		l2.854,7.175h6.611c-1.725-3.646-3.787-7.063-5.254-10.818C223.635,191.463,226.688,189.288,229.852,187.169z"/>
	<path fill="#FFFFFF" d="M236.092,186.491c-6.07,0-10.562,6.299-10.562,12.005c0,3.812,2.656,6.607,6.496,6.607
		c3.529,0,6.607-2.514,7.4-5.932c-1.242,1.188-3.051,2.204-4.803,2.204c-2.033,0-4.037-1.554-4.037-3.729
		c0-1.356,0.48-2.655,0.873-3.928l8.049,0.029c1.273,0,1.754-0.707,1.754-1.922C241.262,188.948,239.061,186.491,236.092,186.491z
		 M235.385,191.971h-3.02c0.537-1.299,1.467-2.796,3.078-2.796c0.877,0,1.299,0.706,1.299,1.497
		C236.74,191.772,236.43,191.971,235.385,191.971z"/>
	<path fill="#FFFFFF" d="M115.589,103.93c0.741-1.086,1.254-2.3,1.534-3.645c0.373-1.74,0.25-3.168-0.37-4.281
		c-0.695-1.236-1.912-1.854-3.652-1.854h-5.127l-2.689,12.657h5.109C112.564,106.808,114.298,105.849,115.589,103.93z
		 M107.315,105.343l2.062-9.71h3.043c1.385,0,2.297,0.433,2.734,1.3c0.439,0.866,0.492,2.083,0.158,3.649
		c-0.086,0.408-0.225,0.85-0.412,1.326c-0.314,0.798-0.698,1.45-1.146,1.963c-0.562,0.637-1.199,1.067-1.914,1.291
		c-0.396,0.12-0.883,0.181-1.463,0.181H107.315L107.315,105.343z"/>
	<path fill="#FFFFFF" d="M120.458,101.5c0.144-0.655,0.479-1.234,1.005-1.736c0.524-0.502,1.178-0.754,1.959-0.754
		c0.094,0,0.176,0.003,0.252,0.009c0.073,0.006,0.155,0.018,0.248,0.034l0.346-1.637c-0.161-0.019-0.274-0.028-0.346-0.034
		c-0.068-0.007-0.117-0.009-0.146-0.009c-0.613,0-1.205,0.223-1.771,0.668c-0.565,0.445-0.939,0.822-1.125,1.133l0.336-1.595h-1.473
		l-1.957,9.229h1.551L120.458,101.5z"/>
	<polygon fill="#FFFFFF" points="127.886,94.15 126.308,94.15 125.927,95.909 127.507,95.909 	"/>
	<polygon fill="#FFFFFF" points="125.195,106.808 127.144,97.623 125.566,97.623 123.62,106.808 	"/>
	<path fill="#FFFFFF" d="M129.091,106.808l1.023-4.834c0.128-0.603,0.266-1.065,0.411-1.392c0.146-0.324,0.381-0.64,0.7-0.943
		c0.402-0.379,0.83-0.631,1.283-0.758c0.254-0.074,0.564-0.112,0.933-0.112c0.726,0,1.164,0.288,1.317,0.861
		c0.092,0.345,0.078,0.799-0.043,1.361l-1.231,5.815h1.575l1.259-5.919c0.194-0.932,0.22-1.646,0.069-2.146
		c-0.266-0.912-1.051-1.369-2.36-1.369c-0.599,0-1.164,0.117-1.7,0.353c-0.537,0.236-1.082,0.624-1.634,1.163l0.274-1.31h-1.474
		l-1.957,9.229H129.091z"/>
	<polygon fill="#FFFFFF" points="139.542,103.344 141.095,102.155 142.989,106.808 144.972,106.808 142.464,101.036 146.731,97.58 
		144.748,97.58 139.931,101.5 141.5,94.15 140.009,94.15 137.319,106.808 138.81,106.808 	"/>
</g>
<g>
	<path fill="#FFFFFF" d="M81.219,463.32c9.694,0,18.553-5.354,28.246-5.354c4.791,0,8.293,1.559,10.959,5.581
		c2.465-1.176,4.926-1.739,7.659-1.739c4.453,0,8.608,1.265,12.927,2.214c-4.972-7.638-14.574-11.026-23.342-11.026
		c-6.351,0-12.314,1.81-18.352,3.66c-4.314,1.312-8.879,3.027-13.442,3.027c-5.898,0-9.921-4.045-9.921-9.941
		c0-2.847,0.588-5.672,1.515-8.338c2.282-6.575,5.628-12.766,9.808-18.347c2.078-2.78,8.225-9.829,12.065-9.829
		c0.655,0,1.312,0.475,1.312,1.174c0,0.542-0.95,0.521-1.312,0.633c-1.559,0.565-2.778,2.689-2.778,4.316
		c0,0.881,0.699,1.987,1.693,1.987c3.097,0,4.679-4.339,4.679-6.893c0-2.553-2.146-4.248-4.608-4.248
		c-6.871,0-14.938,7.163-19.05,11.933c-5.762,6.665-11.66,17.081-11.66,26.21C67.617,457.062,72.068,463.32,81.219,463.32z"/>
	<path fill="#FFFFFF" d="M99.229,423.261c-7.547,0-15.861,14.688-15.861,21.512c0,2.734,1.4,5.354,4.383,5.354
		c3.594,0,6.168-2.824,8.18-5.471c2.034-2.664,3.91-5.532,5.31-8.586c1.132-0.021,2.237-0.226,3.347-0.45
		c-1.105,2.62-2.599,5.424-2.599,8.313c0,2.983,1.737,6.259,5.062,6.259c4.498,0,8.227-3.638,11.299-6.482
		c-0.137,0.769-0.271,1.56-0.271,2.351c0,2.102,1.264,4.226,3.548,4.226c2.28,0,4.451-1.854,5.896-3.436
		c0.067,1.649,0.563,3.479,2.577,3.479c5.603,0,11.57-9.149,13.58-13.965h-2.576c-0.812,1.696-4.047,7.437-6.012,7.437
		c-0.182,0-0.295-0.091-0.295-0.271c0-0.429,0.295-0.993,0.478-1.354l9.559-18.755h-6.485l-0.588,1.04
		c-0.769-0.882-1.875-1.152-3.025-1.152c-4.271,0-8.68,4.856-10.688,8.292l-1.561,2.667l-0.836,1.242
		c-1.854,2.803-7.143,10.1-10.803,10.1c-1.289,0-1.854-1.174-1.854-2.305c0-3.321,2.057-6.599,3.729-9.287
		c1.019-1.671,4.136-7.455,6.664-7.32c0.342,0,0.838,0.047,0.838,0.498s-3.772,0.881-3.772,4.496c0,0.926,0.654,1.854,1.628,1.854
		c2.465,0,4.406-4.138,4.406-6.215c0-2.396-1.627-4.021-4.001-4.021c-3.3,0-6.19,2.463-8.271,4.791l-2.057,2.281
		c-1.537,1.718-3.346,2.938-5.693,2.914c0.406-1.739,0.881-3.547,0.881-5.377C103.343,425.498,101.806,423.261,99.229,423.261z
		 M91.751,444.251c-0.949,0-1.355-0.993-1.355-1.809c0-2.777,2.554-7.546,4.157-9.806c1.241,1.334,2.44,2.235,4.157,2.825
		C97.805,437.677,94.461,444.251,91.751,444.251z M99.862,432.932c-0.158,0.361-1.92-0.722-2.057-0.858
		c-0.679-0.587-1.152-1.398-1.152-2.324c0-1.447,1.267-3.188,2.824-3.188c1.062,0,1.515,1.151,1.515,2.033
		C100.992,430.131,100.45,431.574,99.862,432.932z M135.519,426.809c0.339,0,0.609,0.294,0.609,0.61c0,0.52-0.158,1.038-0.386,1.489
		l-0.993,2.059l-1.966,4.226c-0.724,1.514-4.496,8.901-6.644,8.901c-0.563,0-0.771-0.745-0.746-1.197
		C125.554,439.553,132.356,426.809,135.519,426.809z"/>
	<path fill="#FFFFFF" d="M146.66,424.798l-2.621,5.174h4.633c1.424,0,2.079-0.226,2.709-1.537l2.42-4.97l-4.768,0.021
		C147.857,423.486,147.203,423.713,146.66,424.798z"/>
	<path fill="#FFFFFF" d="M154.004,463.32c9.445,0,18.303-13.082,18.303-21.85c0-2.646-1.762-5.129-4.564-5.129
		c-6.961,0-11.703,10.598-11.703,16.562c0,0.588,0.109,1.198,0.201,1.785c2.309-2.712,4.203-4.608,7.412-6.168
		c0.203-2.396,1.855-8.79,4.928-8.79c1.24,0,1.379,1.604,1.379,2.531c0,5.603-6.713,16.605-12.836,16.605
		c-3.051,0-4.475-2.484-4.475-5.288c0-2.574,0.498-5.129,1.332-7.547c2.486-7.343,6.281-14.257,11.027-20.38
		c2.916-3.729,7.254-8.677,11.365-11.096c1.176-0.678,2.352-0.993,3.707-1.084c-4.586,3.523-10.012,9.264-10.012,15.433
		c0,2.169,1.312,3.887,3.572,3.887c6.01,0,10.754-11.14,10.754-16.289c0-0.635-0.043-1.289-0.092-1.898
		c0.744-0.158,1.492-0.249,2.262-0.249c2.125,0,4.314,0.565,6.215,1.559c3.637,1.923,6.959,4.521,10.279,6.938l4.768-5.762
		c-4.881-3.774-10.123-7.072-16.518-7.072c-2.914,0-5.58,0.746-8.271,1.807c-1.223-1.105-2.711-1.604-4.361-1.604
		c-7.814,0-16.27,7.84-20.898,13.286c-6.215,7.299-12.995,19.433-12.995,29.419C144.785,458.465,148.173,463.32,154.004,463.32z
		 M179.469,424.843c-0.969,1.718-3.32,5.49-5.625,5.49c-0.836,0-1.266-0.77-1.266-1.536c0-4.903,5.221-10.893,9.287-13.286
		C181.707,418.854,181.141,421.883,179.469,424.843z"/>
	<path fill="#FFFFFF" d="M226.535,436.364h-6.348l-0.588,1.132l-0.316-0.228l-0.633-0.451c-0.543-0.43-1.402-0.563-2.104-0.563
		c-8.9,0-15.252,20.742-19.271,20.742c-0.611,0-0.793-0.725-0.793-1.223c0-5.129,4.205-14.866,6.418-19.499
		c2.711-5.693,6.35-12.18,10.553-16.97l4.043-4.609c0.59-0.653,1.492-1.738,2.441-1.738c0.135,0,0.25,0.157,0.25,0.294
		c0,0.36-0.271,0.769-0.498,1.039l-0.453,0.563c-0.09,0.136-0.271,0.43,0.047,0.43h0.092h0.066c0.902,0,1.967-1.83,1.967-2.645
		c0-1.312-1.154-2.439-2.441-2.439c-5.061,0-10.01,6.575-12.768,10.168c-5.918,7.705-10.506,16.45-13.873,25.558
		c-0.971,0.562-1.898,0.744-3.006,0.79c0.564-1.897,1.289-3.887,1.289-5.875c0-2.26-1.334-4.541-3.818-4.541
		c-7.344,0-15.773,14.642-15.773,21.329c0,2.555,1.221,5.647,4.205,5.647c2.576,0,5.082-2.057,6.709-3.841
		c2.734-2.96,4.543-6.508,6.305-10.077h0.635c0.836,0,1.604-0.091,2.373-0.407c-0.838,2.803-1.562,5.626-1.562,8.586
		c0,2.441,0.949,5.604,3.955,5.604c3.186,0,5.424-3.187,7.23-5.377c-0.021,0.383-0.021,0.769-0.021,1.151
		c0,2.078,0.857,4.202,3.23,4.202c2.395,0,4.314-2.012,5.898-3.594c-0.023,0.228-0.023,0.453-0.023,0.678
		c0,1.401,0.926,2.849,2.441,2.849c5.375,0,11.113-9.422,12.854-13.873h-2.303c-0.746,1.718-3.729,7.39-5.809,7.39
		c-0.203,0-0.271-0.227-0.271-0.407c0-0.497,0.295-0.947,0.496-1.378L226.535,436.364z M179.062,457.244
		c-0.992,0-1.332-1.177-1.332-1.967c0-3.005,2.35-7.095,3.887-9.626c1.105,1.517,2.26,2.803,4.135,3.3
		C184.713,451.143,181.955,457.244,179.062,457.244z M186.904,446.397c-1.469-0.634-2.803-1.47-2.803-3.255
		c0-1.445,0.881-3.592,2.598-3.592c0.949,0,1.514,0.972,1.514,1.808C188.213,443.076,187.627,444.861,186.904,446.397z
		 M215.17,447.233c-0.475,1.084-4.475,9.559-6.508,9.692c-0.564,0.046-0.859-0.563-0.859-1.039c0-3.547,3.57-9.739,5.604-12.54
		c0.592-0.813,2.734-3.638,3.98-3.638c0.359,0,0.562,0.385,0.562,0.698c0,0.294-0.109,0.588-0.225,0.858L215.17,447.233z"/>
	<path fill="#FFFFFF" d="M209.906,426.086c0.654,0.065,1.309,0.111,1.967,0.111c9.578,0,18.504-7.3,20.377-16.651
		c-5.396,5.671-9.172,9.354-17.352,9.604L209.906,426.086z"/>
	<path fill="#FFFFFF" d="M170.182,461.445c-0.744,0.477-1.469,0.974-2.236,1.379c-7.389,3.705-15.84,5.515-23.883,7.163
		c-11.23,2.281-22.62,3.772-34.1,3.772c-15.434,0-31.116-1.92-45.87-6.485c-5.923-1.807-11.706-4.089-17.468-6.349l0.09,26.054
		c5.83,1.174,11.684,2.326,17.581,3.026c6.102,0.746,12.246,1.085,18.371,1.085c20.767,0,41.261-4.271,60.515-12.043
		c10.077-4.068,20.133-8.77,28.493-15.794L170.182,461.445z"/>
	<path fill="#FFFFFF" d="M239.346,419.238c-7.164,1.694-14.119,4.338-20.605,7.772c-5.039,2.665-9.625,6.01-14.168,9.422l-2.1,4.723
		c4.789-2.98,9.625-5.49,15.094-6.98c5.986-1.627,12.27-2.26,18.48-2.26c5.762,0,11.523,0.679,17.238,1.399l0.09-16.313
		C248.68,417.565,243.955,418.153,239.346,419.238z"/>
</g>
<g>
	<path fill="#FFFFFF" d="M98.463,769.584c7.272,0,13.915-4.018,21.186-4.018c3.595,0,6.222,1.17,8.22,4.188
		c1.848-0.881,3.695-1.305,5.744-1.305c3.34,0,6.457,0.947,9.695,1.66c-3.729-5.729-10.934-8.27-17.508-8.27
		c-4.762,0-9.235,1.354-13.763,2.744c-3.235,0.98-6.659,2.27-10.081,2.27c-4.425,0-7.44-3.033-7.44-7.457
		c0-2.135,0.439-4.254,1.136-6.252c1.712-4.932,4.22-9.574,7.355-13.76c1.56-2.086,6.168-7.373,9.049-7.373
		c0.492,0,0.983,0.354,0.983,0.881c0,0.406-0.713,0.391-0.983,0.475c-1.17,0.426-2.084,2.018-2.084,3.236
		c0,0.662,0.524,1.492,1.271,1.492c2.319,0,3.508-3.254,3.508-5.168c0-1.916-1.607-3.189-3.457-3.189
		c-5.15,0-11.203,5.373-14.287,8.947c-4.319,5-8.744,12.812-8.744,19.658C88.261,764.889,91.599,769.584,98.463,769.584z"/>
	<path fill="#FFFFFF" d="M111.97,739.539c-5.658,0-11.896,11.016-11.896,16.135c0,2.051,1.051,4.016,3.288,4.016
		c2.692,0,4.626-2.119,6.134-4.102c1.524-2,2.934-4.15,3.98-6.439c0.848-0.016,1.68-0.17,2.509-0.338
		c-0.829,1.965-1.948,4.066-1.948,6.234c0,2.236,1.305,4.691,3.797,4.691c3.375,0,6.17-2.729,8.475-4.859
		c-0.103,0.572-0.202,1.17-0.202,1.762c0,1.576,0.948,3.17,2.659,3.17c1.714,0,3.339-1.391,4.425-2.576
		c0.051,1.236,0.422,2.609,1.932,2.609c4.203,0,8.679-6.863,10.185-10.477h-1.93c-0.611,1.273-3.035,5.576-4.511,5.576
		c-0.135,0-0.219-0.064-0.219-0.203c0-0.318,0.219-0.746,0.354-1.018l7.168-14.064h-4.861l-0.441,0.779
		c-0.576-0.66-1.406-0.865-2.271-0.865c-3.202,0-6.51,3.646-8.017,6.223l-1.17,2l-0.627,0.932c-1.392,2.102-5.354,7.574-8.101,7.574
		c-0.969,0-1.393-0.879-1.393-1.73c0-2.49,1.545-4.949,2.799-6.965c0.762-1.254,3.1-5.592,4.998-5.49
		c0.256,0,0.627,0.033,0.627,0.373c0,0.338-2.83,0.66-2.83,3.371c0,0.695,0.492,1.391,1.221,1.391c1.849,0,3.306-3.102,3.306-4.658
		c0-1.797-1.222-3.02-3-3.02c-2.476,0-4.644,1.852-6.202,3.594l-1.543,1.713c-1.15,1.287-2.509,2.201-4.271,2.188
		c0.306-1.305,0.659-2.66,0.659-4.033C115.056,741.217,113.901,739.539,111.97,739.539z M106.36,755.281
		c-0.713,0-1.018-0.742-1.018-1.354c0-2.084,1.914-5.658,3.119-7.355c0.932,1,1.83,1.68,3.116,2.119
		C110.901,750.35,108.396,755.281,106.36,755.281z M112.442,746.791c-0.116,0.27-1.438-0.541-1.541-0.645
		c-0.508-0.439-0.862-1.051-0.862-1.744c0-1.086,0.948-2.391,2.117-2.391c0.797,0,1.136,0.863,1.136,1.523
		C113.292,744.689,112.886,745.773,112.442,746.791z M139.188,742.199c0.256,0,0.459,0.223,0.459,0.457
		c0,0.393-0.119,0.779-0.289,1.119l-0.744,1.541l-1.478,3.17c-0.541,1.137-3.371,6.68-4.979,6.68c-0.424,0-0.578-0.562-0.562-0.898
		C131.714,751.756,136.812,742.199,139.188,742.199z"/>
	<path fill="#FFFFFF" d="M147.544,740.689l-1.968,3.881h3.476c1.067,0,1.56-0.168,2.033-1.148l1.812-3.73l-3.576,0.02
		C148.438,739.709,147.949,739.877,147.544,740.689z"/>
	<path fill="#FFFFFF" d="M153.05,769.584c7.084,0,13.729-9.812,13.729-16.389c0-1.982-1.322-3.846-3.424-3.846
		c-5.223,0-8.779,7.947-8.779,12.422c0,0.439,0.086,0.898,0.154,1.338c1.729-2.033,3.15-3.457,5.559-4.625
		c0.152-1.797,1.389-6.594,3.693-6.594c0.932,0,1.035,1.203,1.035,1.898c0,4.199-5.035,12.457-9.627,12.457
		c-2.287,0-3.355-1.865-3.355-3.971c0-1.932,0.373-3.846,1-5.658c1.863-5.508,4.711-10.691,8.27-15.283
		c2.188-2.797,5.441-6.51,8.523-8.322c0.883-0.508,1.764-0.744,2.781-0.812c-3.439,2.645-7.51,6.947-7.51,11.574
		c0,1.627,0.982,2.914,2.68,2.914c4.508,0,8.064-8.354,8.064-12.217c0-0.475-0.031-0.967-0.066-1.424
		c0.559-0.119,1.119-0.189,1.695-0.189c1.594,0,3.234,0.424,4.658,1.168c2.729,1.441,5.223,3.393,7.711,5.203l3.574-4.32
		c-3.66-2.828-7.592-5.305-12.388-5.305c-2.187,0-4.187,0.562-6.202,1.355c-0.916-0.832-2.033-1.203-3.271-1.203
		c-5.86,0-12.198,5.879-15.674,9.965c-4.66,5.475-9.744,14.574-9.744,22.064C146.138,765.941,148.677,769.584,153.05,769.584z
		 M172.147,740.725c-0.727,1.287-2.489,4.117-4.219,4.117c-0.627,0-0.949-0.576-0.949-1.152c0-3.678,3.916-8.168,6.965-9.965
		C173.828,736.232,173.401,738.504,172.147,740.725z"/>
	<path fill="#FFFFFF" d="M207.449,749.367h-4.763l-0.44,0.852l-0.235-0.17l-0.476-0.34c-0.407-0.322-1.054-0.426-1.575-0.426
		c-6.68,0-11.438,15.561-14.455,15.561c-0.459,0-0.597-0.543-0.597-0.918c0-3.848,3.153-11.148,4.813-14.623
		c2.033-4.271,4.762-9.135,7.914-12.73l3.033-3.457c0.44-0.488,1.118-1.305,1.83-1.305c0.102,0,0.188,0.119,0.188,0.221
		c0,0.271-0.203,0.576-0.373,0.779l-0.34,0.424c-0.067,0.104-0.203,0.322,0.035,0.322h0.067h0.052c0.678,0,1.475-1.375,1.475-1.984
		c0-0.979-0.865-1.83-1.832-1.83c-3.795,0-7.506,4.936-9.574,7.629c-4.438,5.777-7.881,12.338-10.404,19.166
		c-0.729,0.426-1.425,0.561-2.255,0.594c0.427-1.422,0.968-2.914,0.968-4.406c0-1.693-1-3.406-2.863-3.406
		c-5.508,0-11.829,10.982-11.829,15.998c0,1.916,0.916,4.236,3.153,4.236c1.933,0,3.812-1.543,5.03-2.881
		c2.052-2.223,3.405-4.881,4.729-7.561h0.475c0.627,0,1.203-0.064,1.779-0.305c-0.627,2.102-1.17,4.219-1.17,6.439
		c0,1.83,0.711,4.201,2.967,4.201c2.389,0,4.064-2.389,5.422-4.031c-0.016,0.287-0.016,0.574-0.016,0.863
		c0,1.561,0.643,3.152,2.422,3.152c1.797,0,3.234-1.51,4.424-2.695c-0.02,0.17-0.02,0.34-0.02,0.508
		c0,1.053,0.695,2.137,1.832,2.137c4.031,0,8.336-7.066,9.643-10.406h-1.729c-0.561,1.289-2.795,5.543-4.354,5.543
		c-0.153,0-0.205-0.17-0.205-0.305c0-0.373,0.224-0.713,0.373-1.035L207.449,749.367z M171.843,765.025
		c-0.742,0-0.996-0.881-0.996-1.475c0-2.254,1.762-5.32,2.912-7.219c0.83,1.137,1.693,2.102,3.102,2.475
		C176.083,760.449,174.015,765.025,171.843,765.025z M177.726,756.891c-1.104-0.475-2.104-1.102-2.104-2.439
		c0-1.084,0.66-2.691,1.948-2.691c0.712,0,1.136,0.729,1.136,1.354C178.708,754.4,178.269,755.74,177.726,756.891z M198.925,757.518
		c-0.354,0.814-3.354,7.168-4.881,7.271c-0.423,0.033-0.646-0.424-0.646-0.779c0-2.66,2.679-7.305,4.203-9.404
		c0.443-0.607,2.051-2.729,2.984-2.729c0.271,0,0.424,0.287,0.424,0.523c0,0.221-0.084,0.439-0.17,0.645L198.925,757.518z"/>
	<path fill="#FFFFFF" d="M194.978,741.656c0.488,0.055,0.98,0.086,1.475,0.086c7.184,0,13.879-5.477,15.285-12.488
		c-4.049,4.254-6.881,7.016-13.016,7.203L194.978,741.656z"/>
</g>
<g>
	<g>
		<path fill="#FFFFFF" d="M137.021,1062.351c4.849,0,9.274-2.676,14.124-2.676c2.395,0,4.146,0.779,5.479,2.789
			c1.232-0.586,2.463-0.869,3.83-0.869c2.227,0,4.305,0.633,6.463,1.107c-2.486-3.818-7.287-5.514-11.67-5.514
			c-3.176,0-6.158,0.904-9.176,1.83c-2.156,0.654-4.439,1.514-6.723,1.514c-2.948,0-4.959-2.021-4.959-4.971
			c0-1.424,0.293-2.836,0.757-4.17c1.141-3.287,2.812-6.383,4.903-9.172c1.039-1.393,4.111-4.916,6.031-4.916
			c0.328,0,0.655,0.236,0.655,0.588c0,0.27-0.476,0.26-0.655,0.314c-0.777,0.283-1.39,1.346-1.39,2.158
			c0,0.439,0.351,0.994,0.849,0.994c1.547,0,2.338-2.17,2.338-3.445s-1.07-2.125-2.305-2.125c-3.436,0-7.471,3.582-9.523,5.967
			c-2.881,3.334-5.83,8.541-5.83,13.104C130.22,1059.222,132.445,1062.351,137.021,1062.351z"/>
		<path fill="#FFFFFF" d="M150.489,1045.88c-0.768,0.859-1.672,1.469-2.846,1.457c0.203-0.869,0.438-1.771,0.438-2.688
			c0-1.209-0.769-2.328-2.058-2.328c-3.771,0-7.931,7.344-7.931,10.756c0,1.367,0.699,2.678,2.19,2.678
			c1.798,0,3.085-1.412,4.091-2.734c1.018-1.332,1.955-2.768,2.654-4.293c0.562-0.01,1.119-0.111,1.674-0.225 M142.288,1052.817
			c-0.475,0-0.678-0.496-0.678-0.904c0-1.389,1.273-3.77,2.078-4.9c0.621,0.668,1.221,1.119,2.08,1.412
			C145.315,1049.528,143.644,1052.817,142.288,1052.817z M146.343,1047.155c-0.078,0.184-0.959-0.357-1.027-0.43
			c-0.338-0.293-0.576-0.699-0.576-1.162c0-0.725,0.635-1.594,1.412-1.594c0.531,0,0.759,0.576,0.759,1.018
			C146.909,1045.755,146.638,1046.478,146.343,1047.155z"/>
	</g>
	<g>
		<path fill="#FFFFFF" d="M160.204,1046.37c0,0.635-0.213,1.227-0.643,1.775c-0.449,0.611-0.979,0.918-1.59,0.918
			c-0.123,0-0.287-0.072-0.49-0.215c-0.205-0.143-0.309-0.275-0.309-0.396c0-0.773,0.367-1.396,1.104-1.865
			c0.389-0.021,0.664-0.215,0.826-0.582c-0.449-0.121-0.693-0.186-0.734-0.186c-0.305,0-0.908,0.48-1.805,1.439l-1.809,1.895
			c0.635,0.123,1.041,0.396,1.227,0.826c0.102,0.244,0.152,0.744,0.152,1.5c0,1.309-0.285,2.029-0.855,2.174l0.336,0.307
			c1.082,0,2.07-0.355,2.969-1.07c0.285-0.244,0.725-0.611,1.316-1.102l0.029,0.061c-0.104,0.449-0.525,1.088-1.271,1.912
			c-0.745,0.826-1.354,1.363-1.82,1.607c-0.65,0.365-1.5,0.551-2.539,0.551c-1.365,0-2.051-0.592-2.051-1.775
			c0-1.428,0.551-2.783,1.651-4.068c-0.53,0.041-0.888,0.061-1.069,0.061c-0.838,0-1.308-0.295-1.408-0.887l-2.662,5.385
			c-0.732,0.367-1.904,0.553-3.521,0.553c1.164-2.08,2.826-5.271,4.987-9.578c2.162-4.305,3.847-7.518,5.05-9.639
			c0.61-0.387,1.144-0.582,1.593-0.582c0.079,0,0.643,0.012,1.682,0.031c-0.633,1.406-1.578,3.492-2.846,6.262
			c-1.08,2.303-2.23,4.277-3.457,5.928l0.061,0.186l0.5,0.395c1.334-1.463,2.092-2.271,2.275-2.438
			c0.938-0.809,1.934-1.215,2.975-1.215c0.529,0,1.021,0.18,1.473,0.537C159.979,1045.427,160.204,1045.86,160.204,1046.37z"/>
		<path fill="#FFFFFF" d="M169.78,1046.065c0,1.432-0.744,2.674-2.232,3.732c-1.184,0.857-2.592,1.459-4.223,1.807
			c-0.307,0.773-0.459,1.377-0.459,1.807c0,0.488,0.184,0.732,0.551,0.732c0.855,0,1.723-0.367,2.6-1.102
			c0.39-0.326,1.041-1.01,1.959-2.051c0.652-0.734,1.104-1.102,1.347-1.102c0.082,0,0.123,0.051,0.123,0.152
			c0,0.225-0.623,1.109-1.866,2.66c-1.734,2.162-3.509,3.244-5.324,3.244c-1.713,0-2.568-0.814-2.568-2.447
			c0-1.98,0.865-4.039,2.602-6.182c1.836-2.266,3.713-3.395,5.631-3.395C169.159,1043.923,169.78,1044.638,169.78,1046.065z
			 M168.495,1045.792c0-0.309-0.051-0.553-0.152-0.734c-0.082-0.041-0.174-0.062-0.274-0.062c-0.674,0-1.541,0.826-2.603,2.479
			c-0.795,1.227-1.428,2.389-1.896,3.488c1.144-0.285,2.224-0.928,3.244-1.928C167.935,1047.952,168.495,1046.87,168.495,1045.792z"
			/>
	</g>
</g>
</svg>
