<?xml version="1.0" encoding="utf-8"?>
<!-- Generator: Adobe Illustrator 15.0.0, SVG Export Plug-In . SVG Version: 6.00 Build 0)  -->
<!DOCTYPE svg PUBLIC "-//W3C//DTD SVG 1.1//EN" "http://www.w3.org/Graphics/SVG/1.1/DTD/svg11.dtd">
<svg version="1.1" id="Layer_1" xmlns="http://www.w3.org/2000/svg" xmlns:xlink="http://www.w3.org/1999/xlink" x="0px" y="0px"
	 width="300px" height="1200px" viewBox="0 0 300 1200" enable-background="new 0 0 300 1200" xml:space="preserve">
<rect x="440.349" fill="none" stroke="#70706E" stroke-width="0.7484" stroke-miterlimit="10" width="299.371" height="299.363"/>
<rect x="440.349" y="299.854" fill="none" stroke="#70706E" stroke-width="0.7484" stroke-miterlimit="10" width="299.371" height="299.362"/>
<rect x="440.349" y="599.001" fill="none" stroke="#70706E" stroke-width="0.7484" stroke-miterlimit="10" width="299.371" height="299.362"/>
<rect x="440.349" y="899.359" fill="none" stroke="#70706E" stroke-width="0.7484" stroke-miterlimit="10" width="299.371" height="299.36"/>
<g>
	<path fill-rule="evenodd" clip-rule="evenodd" fill="#CA983A" d="M135.906,1035.102c0,0.838-0.279,1.118-1.119,1.118
		c-0.558,0-1.116-0.28-1.116-1.118c0-0.559,0.559-1.117,1.116-1.117C135.627,1033.984,135.906,1034.543,135.906,1035.102
		L135.906,1035.102z"/>
	<path fill-rule="evenodd" clip-rule="evenodd" fill="#CA983A" d="M163.289,1034.518L163.289,1034.518c0,0,0.557-0.559,0.838-0.559
		c0.836-0.559,0.559-1.117,0.559-1.117s-0.84-3.633-1.396-4.471c-0.28-0.839-0.561-0.839-1.117-0.279
		c-1.678,1.396-4.75,2.793-9.502,2.514l0,0c-5.029-0.279-7.822-2.793-11.455-3.352c-3.353-0.559-8.941,0.838-8.663,2.793
		c0,0.559,0.28,2.235,0.28,2.795c0,0-1.396,0.559-1.396,2.234c0,2.236,1.956,3.073,1.956,3.073l10.896,32.132
		c0.279,0.559,1.117,0.838,1.956,0.559c0.28-0.279,0.838-0.559,1.397-0.838c8.383-5.868,13.691-16.205,13.691-27.102
		c0-4.191-1.117-6.427-1.117-6.427c0.279-0.278,0.84-0.559,1.117-0.839c0,0,1.677,3.912,0.84,10.897
		c-1.117,9.78-6.147,18.44-13.972,23.749c0,0,0,0.559,1.396-0.279c8.663-5.309,13.693-13.97,14.531-23.748
		c0.279-1.678,0.279-3.074,0.279-4.472C164.127,1039.268,163.568,1035.355,163.289,1034.518L163.289,1034.518z M138.141,1031.445
		c0.838-1.119,3.074,0.279,3.074,0.279l-1.957,4.19C139.258,1035.915,137.583,1032.002,138.141,1031.445L138.141,1031.445z
		 M147.082,1051.002l-1.117-1.955l5.866-12.293c0.56,0,1.119,0.278,1.678,0.278L147.082,1051.002L147.082,1051.002z
		 M155.186,1037.312c0.278,0,0.558,0,1.117,0c0.279,0,0.559,0,0.839,0l-8.104,17.322l-1.117-1.955L155.186,1037.312
		L155.186,1037.312z M145.125,1047.371l-1.116-2.236l4.749-9.779c0.28,0.279,1.119,0.56,1.677,0.84L145.125,1047.371
		L145.125,1047.371z M143.17,1043.459l-0.838-2.234l3.354-7.266c0.558,0.279,1.117,0.559,1.676,0.838L143.17,1043.459
		L143.17,1043.459z M141.215,1039.547l-1.117-1.955l2.514-5.31c0.559,0.28,1.118,0.56,1.677,0.839L141.215,1039.547
		L141.215,1039.547z M147.641,1066.369l-11.176-29.896c0,0-0.559,0.839-1.678,0.839c-1.395,0-2.235-0.839-2.235-1.957
		c0-1.396,1.119-2.514,2.235-2.514c0.561,0,1.678,0.279,2.517,1.396c0.28,0.559,11.175,29.338,11.175,29.338
		s2.235-2.236,3.353-3.633l-1.676-3.074l8.663-19.837C158.818,1037.032,162.449,1054.635,147.641,1066.369L147.641,1066.369z
		 M154.906,1034.518c-4.751,0-8.663-1.955-11.177-3.353c-1.118-0.839-2.234-1.397-2.794-1.397c0,0-0.28,0-0.28-0.279l0,0
		c0,0,0,0,0-0.279c0.28,0,0.56,0,0.84,0c0.837,0,1.956,0.559,3.353,1.396c2.514,1.396,5.866,2.795,10.059,2.795
		c3.912,0.279,7.543-2.235,7.543-2.235h0.279l0,0c0,0,0.28,0.56,0.28,0.837C163.009,1032.562,158.259,1034.797,154.906,1034.518
		L154.906,1034.518z"/>
</g>
<g>
	<path fill-rule="evenodd" clip-rule="evenodd" fill="#FFFFFF" d="M244.833,496.295c0-1.752,1.46-2.917,3.21-2.917
		c1.752,0,3.211,1.166,3.211,2.917c0,1.751-1.459,2.92-3.211,2.92C246.293,499.216,244.833,498.047,244.833,496.295L244.833,496.295
		z M245.417,496.295c0,1.46,1.167,2.334,2.626,2.334c1.46,0,2.627-0.874,2.627-2.334c0-1.46-1.167-2.334-2.627-2.334
		C246.584,493.961,245.417,494.835,245.417,496.295L245.417,496.295z M249.503,497.756h-0.584l-0.876-1.46h-0.583v1.46h-0.584v-2.92
		h1.459c0.293,0,0.584,0,0.875,0c0.293,0.294,0.293,0.294,0.293,0.585c0,0.583-0.584,0.875-0.875,0.875L249.503,497.756
		L249.503,497.756z M248.043,496.004c0.292,0,0.876,0,0.876-0.583c0-0.292-0.291-0.292-0.584-0.292h-0.875v0.875H248.043
		L248.043,496.004z"/>
	<path fill-rule="evenodd" clip-rule="evenodd" fill="#FFFFFF" d="M62.133,469.737v2.334c4.96,0.292,5.835,0.876,5.835,7.587
		c0,6.715-1.75,9.633-6.128,9.633c-5.545,0-8.756-6.129-9.048-17.512c0-0.584,0-1.751,0-4.962c0-7.88,2.043-17.22,9.341-17.22
		c2.334,0,4.084,0.876,5.543,2.919c2.335,2.626,2.919,4.669,3.503,8.756h2.917v-13.717h-2.334v0.292
		c-0.583,1.168-0.875,1.751-1.167,1.751c-0.292,0-0.584-0.292-0.876-0.583c-0.292-0.292-0.874-0.292-1.167-0.583
		c-2.043-1.168-4.377-2.044-6.712-2.044c-8.172,0-16.928,8.464-16.928,23.057c0,16.343,9.34,23.056,16.635,23.056
		c2.335,0,4.378-0.583,5.838-1.166c1.46-0.877,2.918-2.043,3.21-2.043c0.875,0,1.751,2.334,1.751,2.334h2.626v-15.468
		c0-2.918,0.584-3.794,3.502-3.794v-2.626H62.133L62.133,469.737z"/>
	<path fill-rule="evenodd" clip-rule="evenodd" fill="#FFFFFF" d="M118.751,490.458c-2.043,0-2.626-1.458-2.626-3.209v-27.435
		c0-1.75,0.874-2.918,2.334-2.918v-1.459h-11.966v1.459c2.042,0,2.627,1.168,2.627,2.918v27.435c0,2.043-0.584,3.209-2.335,3.209
		v1.168h11.966V490.458L118.751,490.458z"/>
	<path fill-rule="evenodd" clip-rule="evenodd" fill="#FFFFFF" d="M129.843,490.458c-2.628,0-3.21-2.334-3.21-4.96v-16.928
		l-3.212-5.837v22.765c0,2.626-0.29,4.96-3.209,4.96v1.168h9.631V490.458L129.843,490.458z"/>
	<path fill-rule="evenodd" clip-rule="evenodd" fill="#FFFFFF" d="M149.689,456.895v-1.459h-9.632v1.459
		c2.627,0,3.211,2.335,3.211,4.67v17.803l-13.718-23.932h-9.338v1.459c0.875,0,2.042,0.292,2.626,1.459
		c0.583,1.168,19.263,33.271,19.263,33.271h4.377v-30.061C146.478,458.938,146.77,456.895,149.689,456.895L149.689,456.895z"/>
	<path fill-rule="evenodd" clip-rule="evenodd" fill="#FFFFFF" d="M160.488,490.458c-2.628,0-3.211-2.334-3.211-4.96v-16.928
		l-3.21-5.837v22.765c0,2.626-0.293,4.96-3.211,4.96v1.168h9.632V490.458L160.488,490.458z"/>
	<path fill-rule="evenodd" clip-rule="evenodd" fill="#FFFFFF" d="M180.041,456.895v-1.459h-9.631v1.459
		c2.919,0,3.21,2.335,3.21,4.67v17.803l-13.424-23.932h-9.34v1.459c0.874,0,1.75,0.292,2.334,1.459
		c0.877,1.168,19.556,33.271,19.556,33.271h4.378v-30.061C177.124,458.938,177.415,456.895,180.041,456.895L180.041,456.895z"/>
	<path fill-rule="evenodd" clip-rule="evenodd" fill="#FFFFFF" d="M105.035,456.895v-1.459H94.528v1.459h0.875
		c2.628,0,3.211,1.751,3.211,4.67v20.429c0,3.211-0.583,4.963-1.751,6.129c-0.875,1.169-2.335,1.46-4.086,1.46
		c-4.086,0-4.961-2.334-4.961-7.295v-22.475c0-2.042,0.875-2.918,3.209-2.918v-1.459H77.309v1.459h0.875
		c2.626,0,2.335,1.751,2.335,2.918v22.475c0,7.295,2.918,10.213,10.215,10.213c4.087,0,6.713-0.875,8.464-2.626
		c1.751-1.752,2.626-4.378,2.626-8.173v-20.137C101.824,458.646,102.115,457.187,105.035,456.895L105.035,456.895z"/>
	<path fill-rule="evenodd" clip-rule="evenodd" fill="#FFFFFF" d="M220.317,471.196c-0.876-0.583-4.377-3.502-4.377-3.502
		c-3.211-2.334-4.087-4.378-4.087-6.712c0-2.335,2.043-4.086,4.087-4.086c3.501,0,5.836,1.168,7.588,8.172h1.167v-8.756
		c0,0-1.167,1.168-1.167,1.459c-2.627-2.043-4.961-2.919-7.297-2.919c-5.837,0-9.338,4.671-9.338,9.047
		c0,3.794,0.874,7.005,6.127,11.091c5.254,4.086,8.464,6.712,8.464,10.798c0,2.334-2.043,4.086-4.377,4.086
		c-3.502,0-7.588-0.875-9.632-8.756h-1.167v10.216l1.752-1.169c2.626,1.169,5.836,2.335,9.047,2.335
		c4.961,0,9.631-4.669,9.631-10.213C226.738,479.659,226.155,475.574,220.317,471.196L220.317,471.196z"/>
	<path fill-rule="evenodd" clip-rule="evenodd" fill="#FFFFFF" d="M242.498,471.196c-0.584-0.583-4.086-3.502-4.377-3.502
		c-3.211-2.334-4.086-4.378-4.086-6.712c0-2.335,2.334-4.086,4.377-4.086c3.211,0,5.838,1.168,7.297,8.172h1.459v-8.756
		c0,0-1.168,1.168-1.459,1.459c-2.627-2.043-4.669-2.919-7.004-2.919c-5.838,0-9.631,4.671-9.631,9.047
		c0,3.794,0.874,7.005,6.419,11.091c5.254,4.086,8.464,6.712,8.464,10.798c0,2.334-2.043,4.086-4.377,4.086
		c-3.503,0-7.589-0.875-9.632-8.756h-1.459v10.216l2.044-1.169c2.626,1.169,5.544,2.335,9.047,2.335c4.962,0,9.63-4.669,9.63-10.213
		C249.21,479.659,248.628,475.574,242.498,471.196L242.498,471.196z"/>
	<path fill-rule="evenodd" clip-rule="evenodd" fill="#FFFFFF" d="M201.64,481.411c0,8.172-1.46,8.172-7.006,8.172h-1.46
		c-0.582,0-1.167,0-1.458-0.291c-0.292-0.292-0.292-0.877-0.292-1.752v-13.717h1.75c2.337,0,3.504,0.875,3.504,5.253h2.043v-12.258
		h-2.043c0,2.335-0.292,3.21-0.585,3.795c-0.582,0.583-1.166,0.583-2.626,0.583c0,0-1.46,0-2.043,0l-0.292-11.383
		c0-1.167,0.292-1.75,0.584-2.042c0.291-0.292,0.584-0.292,1.751-0.292h2.335c3.211,0,4.962,0,5.838,5.545h1.75v-7.588h-22.181
		v1.459c0.876,0,2.043,0,2.627,0.584c0.291,0.292,0.291,0.875,0.291,1.751v28.018c0,1.751-0.291,3.209-2.625,3.209v1.168h21.888
		v-10.215H201.64L201.64,481.411z"/>
	<path fill-rule="evenodd" clip-rule="evenodd" fill="#CA983A" d="M121.962,424.208c-0.291,0-0.291,0-0.584,0h-0.292
		c0-0.292,0.585-0.292,1.167-0.584c0.876-0.292,0.876-0.876,1.167-0.876v0.292c0,0.292,0,0.584,0,1.459v4.669
		c0,0.292,0,0.292,0,0.292c0,0.584,0,0.876,0.586,0.876c0.291,0.291,0.583,0.291,0.583,0.583c0,0,0,0-0.292,0c0,0-0.584,0-1.46,0
		c-0.583,0-1.166,0-1.166,0c-0.293,0-0.293,0-0.293,0c0-0.292,0.293-0.292,0.584-0.292c0.292-0.291,0.584-0.583,0.584-1.459v-4.377
		C122.546,424.208,122.254,424.208,121.962,424.208L121.962,424.208z"/>
	<path fill-rule="evenodd" clip-rule="evenodd" fill="#CA983A" d="M128.09,423.04c0.584,0,1.168,0,1.168,0
		c0.292,0,0.292,0,0.292,0.292c0,0.583-0.292,1.167-0.583,2.334c-0.583,1.751-1.46,2.919-1.46,4.086
		c0,0.875,0.293,1.167,0.293,1.459c0,0-0.293,0.292-0.876,0.292c-0.291,0-0.583-0.292-0.583-0.876c0-1.459,0.583-2.335,1.167-3.502
		c1.168-1.459,1.46-2.626,1.46-2.918c0,0,0,0-0.292,0l0,0h-2.042c-0.584,0-0.876,0-0.876,0.292
		c-0.292,0.292-0.292,0.583-0.292,0.583c-0.292,0-0.292,0-0.292-0.292c0-0.292,0-0.583,0.292-1.459c0-0.292,0.292-0.292,0.292-0.292
		c0.292,0,0.584,0,1.459,0H128.09L128.09,423.04z"/>
	<path fill-rule="evenodd" clip-rule="evenodd" fill="#CA983A" d="M169.243,423.624c0.291-0.584,0.291-0.584,0.582-0.584h1.753
		c0.291,0,0.584,0,0.875,0c0-0.292,0-0.292,0.293-0.292l0,0v0.292l-0.293,0.875c0,0.292-0.291,0.292-0.584,0.292h-1.751
		c-0.293,0-0.584,0-0.584,0.292v1.167l0,0c0,0.292,0,0.292,0,0.292s0.291-0.292,0.876-0.292c1.459,0,2.626,1.168,2.626,2.335
		c0,0.876-0.583,1.459-1.167,2.335c-0.583,0.583-1.167,0.875-2.044,0.875c-0.874,0-1.458-0.292-1.458-0.584c0,0,0,0,0.291,0
		c0,0,0.293,0,0.876,0c1.168,0,2.335-0.875,2.335-2.335c0-0.875-0.875-1.459-2.044-1.459c-0.291,0-0.582,0-0.874,0c0,0,0,0,0-0.292
		c0,0,0,0,0-0.292L169.243,423.624L169.243,423.624z"/>
	<path fill-rule="evenodd" clip-rule="evenodd" fill="#CA983A" d="M175.955,423.332c0.876,0,1.752,0.876,1.752,2.334
		c0,1.168-0.583,1.751-1.459,1.751s-1.46-0.875-1.46-2.335C174.788,423.916,175.081,423.332,175.955,423.332L175.955,423.332z
		 M177.415,427.418c-0.291,1.167-0.876,2.043-1.751,2.919c-0.876,0.291-1.459,0.291-1.459,0.583v0.292
		c0.583,0,1.75-0.584,2.626-1.167c1.168-0.876,2.043-2.334,2.043-4.086c0-1.75-1.167-2.918-2.626-2.918
		c-1.46,0-2.628,1.168-2.628,2.626c0,1.459,0.877,2.335,2.044,2.335C176.248,428.002,177.124,427.71,177.415,427.418
		L177.415,427.418z"/>
	<path fill-rule="evenodd" clip-rule="evenodd" fill="#CA983A" d="M135.096,408.155c0,0.876-0.292,1.168-1.168,1.168
		c-0.583,0-1.167-0.292-1.167-1.168c0-0.583,0.583-1.167,1.167-1.167C134.804,406.988,135.096,407.573,135.096,408.155
		L135.096,408.155z"/>
	<path fill-rule="evenodd" clip-rule="evenodd" fill="#CA983A" d="M163.698,407.573L163.698,407.573c0,0,0.583-0.584,0.876-0.584
		c0.874-0.584,0.583-1.167,0.583-1.167s-0.876-3.794-1.459-4.67c-0.293-0.875-0.585-0.875-1.168-0.292
		c-1.751,1.459-4.961,2.918-9.924,2.626l0,0c-5.252-0.292-8.171-2.918-11.965-3.502c-3.502-0.584-9.34,0.875-9.049,2.918
		c0,0.584,0.293,2.335,0.293,2.919c0,0-1.458,0.583-1.458,2.334c0,2.335,2.043,3.21,2.043,3.21l11.381,33.563
		c0.292,0.584,1.167,0.875,2.043,0.584c0.292-0.292,0.875-0.584,1.46-0.876c8.756-6.129,14.301-16.927,14.301-28.31
		c0-4.378-1.167-6.713-1.167-6.713c0.291-0.292,0.876-0.583,1.167-0.875c0,0,1.75,4.085,0.875,11.382
		c-1.166,10.216-6.42,19.263-14.593,24.808c0,0,0,0.584,1.458-0.292c9.048-5.545,14.302-14.592,15.178-24.807
		c0.291-1.752,0.291-3.21,0.291-4.67C164.574,412.533,163.99,408.447,163.698,407.573L163.698,407.573z M137.43,404.361
		c0.876-1.167,3.211,0.292,3.211,0.292l-2.044,4.378C138.597,409.031,136.848,404.945,137.43,404.361L137.43,404.361z
		 M146.77,424.792l-1.167-2.043l6.128-12.841c0.585,0,1.169,0.292,1.753,0.292L146.77,424.792L146.77,424.792z M155.234,410.491
		c0.291,0,0.583,0,1.167,0c0.292,0,0.584,0,0.876,0l-8.464,18.095l-1.167-2.043L155.234,410.491L155.234,410.491z M144.725,420.998
		l-1.165-2.335l4.96-10.216c0.293,0.292,1.169,0.584,1.752,0.876L144.725,420.998L144.725,420.998z M142.684,416.911l-0.876-2.334
		l3.503-7.589c0.583,0.292,1.167,0.584,1.75,0.875L142.684,416.911L142.684,416.911z M140.641,412.825l-1.167-2.043l2.626-5.545
		c0.583,0.292,1.167,0.584,1.751,0.876L140.641,412.825L140.641,412.825z M147.354,440.843l-11.675-31.229
		c0,0-0.583,0.876-1.752,0.876c-1.458,0-2.335-0.876-2.335-2.043c0-1.459,1.168-2.626,2.335-2.626c0.586,0,1.752,0.292,2.628,1.459
		c0.292,0.583,11.673,30.645,11.673,30.645s2.335-2.335,3.502-3.795l-1.75-3.21l9.049-20.722
		C159.029,410.199,162.822,428.585,147.354,440.843L147.354,440.843z M154.943,407.573c-4.963,0-9.049-2.043-11.676-3.502
		c-1.167-0.876-2.333-1.46-2.918-1.46c0,0-0.293,0-0.293-0.292l0,0c0,0,0,0,0-0.292c0.293,0,0.584,0,0.877,0
		c0.874,0,2.042,0.584,3.501,1.459c2.626,1.459,6.128,2.918,10.508,2.918c4.086,0.292,7.879-2.334,7.879-2.334h0.291l0,0
		c0,0,0.292,0.583,0.292,0.875C163.405,405.529,158.444,407.863,154.943,407.573L154.943,407.573z"/>
	<path fill="#CA983A" d="M162.822,437.925c-1.458,0-2.918,1.459-2.918,2.918c0,1.751,1.46,2.918,2.918,2.918
		c1.752,0,2.919-1.167,2.919-2.918C165.741,439.385,164.574,437.925,162.822,437.925z M162.822,443.178
		c-1.167,0-2.334-0.875-2.334-2.334c0-1.167,1.167-2.335,2.334-2.335c1.459,0,2.335,1.167,2.335,2.335
		C165.157,442.303,164.281,443.178,162.822,443.178z"/>
	<path fill="#CA983A" d="M164.281,440.26c0-0.292,0-0.584-0.291-0.584c-0.292-0.291-0.585-0.291-0.877-0.291h-1.167v2.918h0.291
		v-1.459h0.585l0.876,1.459h0.583l-0.876-1.459C163.99,440.843,164.281,440.843,164.281,440.26z M162.822,440.552h-0.585v-0.876
		h0.876c0.292,0,0.585,0,0.585,0.584C163.698,440.552,163.405,440.552,162.822,440.552z"/>
</g>
<g>
	<path fill-rule="evenodd" clip-rule="evenodd" fill="#FFFFFF" d="M88.616,765.18v1.635c3.473,0.204,4.086,0.613,4.086,5.312
		c0,4.702-1.226,6.744-4.291,6.744c-3.882,0-6.131-4.291-6.335-12.261c0-0.409,0-1.228,0-3.475c0-5.518,1.43-12.058,6.541-12.058
		c1.634,0,2.86,0.614,3.882,2.044c1.635,1.839,2.044,3.27,2.453,6.132h2.043v-9.606h-1.635v0.205
		c-0.408,0.817-0.613,1.226-0.817,1.226s-0.409-0.204-0.614-0.408c-0.204-0.205-0.612-0.205-0.817-0.408
		c-1.431-0.818-3.065-1.432-4.7-1.432c-5.722,0-11.853,5.927-11.853,16.145c0,11.444,6.54,16.145,11.648,16.145
		c1.635,0,3.066-0.409,4.088-0.817c1.022-0.613,2.043-1.431,2.248-1.431c0.613,0,1.227,1.636,1.227,1.636h1.839v-10.832
		c0-2.044,0.409-2.656,2.452-2.656v-1.839H88.616L88.616,765.18z"/>
	<path fill-rule="evenodd" clip-rule="evenodd" fill="#FFFFFF" d="M128.261,779.688c-1.431,0-1.839-1.021-1.839-2.247V758.23
		c0-1.225,0.612-2.043,1.635-2.043v-1.022h-8.379v1.022c1.431,0,1.839,0.818,1.839,2.043v19.211c0,1.43-0.409,2.247-1.635,2.247
		v0.818h8.379V779.688L128.261,779.688z"/>
	<path fill-rule="evenodd" clip-rule="evenodd" fill="#FFFFFF" d="M136.027,779.688c-1.84,0-2.248-1.636-2.248-3.475v-11.852
		l-2.249-4.088v15.939c0,1.839-0.203,3.475-2.247,3.475v0.818h6.744V779.688L136.027,779.688z"/>
	<path fill-rule="evenodd" clip-rule="evenodd" fill="#FFFFFF" d="M149.923,756.188v-1.022h-6.745v1.022
		c1.839,0,2.249,1.635,2.249,3.27v12.466l-9.605-16.758h-6.539v1.022c0.613,0,1.43,0.204,1.839,1.021
		c0.408,0.818,13.488,23.298,13.488,23.298h3.064v-21.05C147.674,757.618,147.879,756.188,149.923,756.188L149.923,756.188z"/>
	<path fill-rule="evenodd" clip-rule="evenodd" fill="#FFFFFF" d="M157.484,779.688c-1.841,0-2.248-1.636-2.248-3.475v-11.852
		l-2.248-4.088v15.939c0,1.839-0.205,3.475-2.248,3.475v0.818h6.744V779.688L157.484,779.688z"/>
	<path fill-rule="evenodd" clip-rule="evenodd" fill="#FFFFFF" d="M171.176,756.188v-1.022h-6.744v1.022
		c2.044,0,2.248,1.635,2.248,3.27v12.466l-9.399-16.758h-6.54v1.022c0.612,0,1.226,0.204,1.635,1.021
		c0.613,0.818,13.692,23.298,13.692,23.298h3.064v-21.05C169.132,757.618,169.337,756.188,171.176,756.188L171.176,756.188z"/>
	<path fill-rule="evenodd" clip-rule="evenodd" fill="#FFFFFF" d="M118.656,756.188v-1.022h-7.357v1.022h0.613
		c1.84,0,2.249,1.226,2.249,3.27v14.305c0,2.249-0.409,3.476-1.226,4.291c-0.613,0.818-1.635,1.023-2.861,1.023
		c-2.861,0-3.474-1.635-3.474-5.108V758.23c0-1.43,0.612-2.043,2.248-2.043v-1.022h-9.605v1.022h0.613
		c1.838,0,1.635,1.226,1.635,2.043v15.737c0,5.108,2.043,7.151,7.152,7.151c2.861,0,4.7-0.612,5.927-1.839
		c1.226-1.228,1.839-3.066,1.839-5.724v-14.1C116.408,757.413,116.612,756.392,118.656,756.188L118.656,756.188z"/>
	<path fill-rule="evenodd" clip-rule="evenodd" fill="#FFFFFF" d="M199.377,766.201c-0.612-0.409-3.064-2.452-3.064-2.452
		c-2.248-1.635-2.861-3.065-2.861-4.7c0-1.636,1.43-2.861,2.861-2.861c2.452,0,4.086,0.818,5.313,5.722h0.816v-6.13
		c0,0-0.816,0.817-0.816,1.021c-1.84-1.431-3.475-2.044-5.109-2.044c-4.087,0-6.539,3.271-6.539,6.335
		c0,2.657,0.612,4.905,4.291,7.767c3.679,2.859,5.926,4.698,5.926,7.561c0,1.634-1.43,2.861-3.065,2.861
		c-2.451,0-5.312-0.612-6.744-6.131h-0.816v7.152l1.226-0.818c1.839,0.818,4.087,1.636,6.335,1.636c3.475,0,6.745-3.27,6.745-7.151
		C203.874,772.127,203.465,769.266,199.377,766.201L199.377,766.201z"/>
	<path fill-rule="evenodd" clip-rule="evenodd" fill="#FFFFFF" d="M214.908,766.201c-0.409-0.409-2.861-2.452-3.064-2.452
		c-2.248-1.635-2.861-3.065-2.861-4.7c0-1.636,1.635-2.861,3.064-2.861c2.248,0,4.088,0.818,5.109,5.722h1.022v-6.13
		c0,0-0.817,0.817-1.022,1.021c-1.839-1.431-3.27-2.044-4.903-2.044c-4.088,0-6.744,3.271-6.744,6.335
		c0,2.657,0.613,4.905,4.495,7.767c3.679,2.859,5.927,4.698,5.927,7.561c0,1.634-1.432,2.861-3.065,2.861
		c-2.452,0-5.314-0.612-6.743-6.131H205.1v7.152l1.432-0.818c1.839,0.818,3.882,1.636,6.334,1.636c3.475,0,6.743-3.27,6.743-7.151
		C219.608,772.127,219.201,769.266,214.908,766.201L214.908,766.201z"/>
	<path fill-rule="evenodd" clip-rule="evenodd" fill="#FFFFFF" d="M186.298,773.354c0,5.722-1.021,5.722-4.904,5.722h-1.021
		c-0.409,0-0.818,0-1.021-0.205c-0.205-0.203-0.205-0.613-0.205-1.227v-9.604h1.227c1.636,0,2.452,0.613,2.452,3.678h1.432v-8.582
		h-1.432c0,1.635-0.204,2.247-0.409,2.656c-0.407,0.409-0.816,0.409-1.839,0.409c0,0-1.022,0-1.431,0l-0.204-7.971
		c0-0.817,0.204-1.225,0.409-1.43c0.203-0.204,0.409-0.204,1.226-0.204h1.635c2.248,0,3.475,0,4.087,3.882h1.227v-5.313h-15.531
		v1.022c0.613,0,1.431,0,1.84,0.409c0.204,0.204,0.204,0.612,0.204,1.226v19.619c0,1.227-0.204,2.247-1.839,2.247v0.818h15.326
		v-7.152H186.298L186.298,773.354z"/>
	<path fill-rule="evenodd" clip-rule="evenodd" fill="#CA983A" d="M139.705,722.059c0,0.613-0.204,0.818-0.818,0.818
		c-0.408,0-0.817-0.205-0.817-0.818c0-0.407,0.409-0.816,0.817-0.816C139.501,721.242,139.705,721.651,139.705,722.059
		L139.705,722.059z"/>
	<path fill-rule="evenodd" clip-rule="evenodd" fill="#CA983A" d="M159.731,721.651L159.731,721.651c0,0,0.408-0.409,0.614-0.409
		c0.612-0.409,0.407-0.818,0.407-0.818s-0.613-2.656-1.021-3.27c-0.204-0.612-0.409-0.612-0.817-0.203
		c-1.226,1.021-3.474,2.043-6.948,1.839l0,0c-3.678-0.205-5.721-2.044-8.378-2.452c-2.452-0.409-6.54,0.613-6.336,2.043
		c0,0.409,0.206,1.635,0.206,2.043c0,0-1.021,0.409-1.021,1.635c0,1.637,1.43,2.248,1.43,2.248l7.969,23.502
		c0.204,0.408,0.817,0.613,1.431,0.408c0.205-0.203,0.613-0.408,1.022-0.612c6.131-4.292,10.013-11.853,10.013-19.822
		c0-3.066-0.816-4.701-0.816-4.701c0.204-0.204,0.613-0.409,0.816-0.613c0,0,1.227,2.861,0.613,7.971
		c-0.816,7.152-4.495,13.488-10.217,17.37c0,0,0,0.408,1.021-0.204c6.334-3.883,10.013-10.219,10.627-17.37
		c0.203-1.227,0.203-2.248,0.203-3.271C160.346,725.125,159.937,722.264,159.731,721.651L159.731,721.651z M141.34,719.402
		c0.613-0.817,2.248,0.205,2.248,0.205l-1.431,3.064C142.157,722.672,140.932,719.811,141.34,719.402L141.34,719.402z
		 M147.879,733.708l-0.817-1.431l4.291-8.991c0.409,0,0.818,0.204,1.227,0.204L147.879,733.708L147.879,733.708z M153.805,723.695
		c0.205,0,0.409,0,0.818,0c0.204,0,0.409,0,0.613,0l-5.926,12.67l-0.817-1.432L153.805,723.695L153.805,723.695z M146.448,731.051
		l-0.816-1.634l3.473-7.153c0.205,0.204,0.818,0.408,1.227,0.613L146.448,731.051L146.448,731.051z M145.018,728.19l-0.613-1.635
		l2.453-5.313c0.408,0.205,0.816,0.409,1.226,0.612L145.018,728.19L145.018,728.19z M143.588,725.329l-0.817-1.431l1.839-3.883
		c0.408,0.204,0.817,0.408,1.226,0.613L143.588,725.329L143.588,725.329z M148.288,744.947l-8.174-21.866
		c0,0-0.409,0.614-1.227,0.614c-1.021,0-1.635-0.614-1.635-1.432c0-1.021,0.818-1.84,1.635-1.84c0.41,0,1.227,0.205,1.84,1.023
		c0.205,0.407,8.174,21.457,8.174,21.457s1.634-1.635,2.452-2.657l-1.225-2.248l6.334-14.509
		C156.462,723.49,159.119,736.365,148.288,744.947L148.288,744.947z M153.602,721.651c-3.474,0-6.335-1.432-8.174-2.452
		c-0.817-0.614-1.634-1.022-2.043-1.022c0,0-0.205,0-0.205-0.205l0,0c0,0,0,0,0-0.204c0.205,0,0.409,0,0.614,0
		c0.612,0,1.43,0.409,2.452,1.022c1.839,1.021,4.291,2.043,7.357,2.043c2.86,0.205,5.518-1.634,5.518-1.634h0.203l0,0
		c0,0,0.205,0.408,0.205,0.611C159.527,720.22,156.053,721.854,153.602,721.651L153.602,721.651z"/>
</g>
<g>
	<path fill-rule="evenodd" clip-rule="evenodd" fill="#FFFFFF" d="M99.363,207.387h2.794c2.444,0,3.842,1.047,3.842,3.492
		c0,2.096-1.397,3.491-3.842,3.491h-2.794V207.387L99.363,207.387z M101.808,205.64h-5.589v0.349c0.35,0,0.699,0,0.699,0.349v8.733
		c0,0.349-0.35,0.698-0.699,0.698v0.349h5.589c2.096,0,3.491-0.349,4.89-1.398c1.046-0.698,1.745-2.093,1.745-3.84
		c0-1.748-0.699-3.143-1.745-4.192C105.299,205.64,103.904,205.64,101.808,205.64L101.808,205.64z"/>
	<path fill-rule="evenodd" clip-rule="evenodd" fill="#FFFFFF" d="M118.57,207.387c2.097,0,2.795,0.349,2.795,1.396
		c0,1.05-0.698,1.398-2.795,1.398h-3.143v-2.794H118.57L118.57,207.387z M112.285,216.117h3.492v-0.349
		c-0.35,0-0.35-0.349-0.35-0.698v-3.146h2.796l2.443,3.146l0.35,0.349c0,0.349-0.35,0.349-0.699,0.349v0.349h4.192v-0.349
		c-0.699-0.349-1.05-0.349-1.398-1.049l-2.095-3.143c1.746-0.349,2.794-1.396,2.794-3.143s-1.396-2.794-4.539-2.794h-6.986v0.349
		c0.698,0,0.698,0,0.698,0.349v8.733c0,0.349,0,0.698-0.698,0.698V216.117L112.285,216.117z"/>
	<path fill-rule="evenodd" clip-rule="evenodd" fill="#FFFFFF" d="M132.542,208.084l2.097,3.84h-3.844L132.542,208.084
		L132.542,208.084z M126.255,216.117h3.492v-0.349c-0.349,0-0.349-0.349-0.349-0.349c0-0.349,0-0.349,0-0.349l0.698-1.747h4.89
		l1.046,1.747c0,0,0,0,0,0.349c0,0,0,0.349-0.349,0.349v0.349h3.844v-0.349c-0.699,0-0.699-0.349-1.05-1.049l-4.189-8.032
		c0-0.349,0-0.349,0-0.349c0-0.349,0-0.349,0.35-0.349v-0.349h-3.844v0.349c0.699,0,0.699,0,0.699,0.349c0,0,0,0,0,0.349
		l-4.19,8.032c-0.349,0.701-0.349,1.049-1.048,1.049V216.117L126.255,216.117z"/>
	<path fill-rule="evenodd" clip-rule="evenodd" fill="#FFFFFF" d="M148.606,214.37c2.446,0,3.145-0.698,3.145-2.445v-5.587
		c0-0.349,0-0.349-0.349-0.349v-0.349h3.143v0.349c-0.35,0-0.35,0-0.35,0.349v5.587c0,3.146-1.396,4.192-5.589,4.192
		c-3.84,0-5.587-1.047-5.587-4.192v-5.587c0-0.349,0-0.349-0.349-0.349v-0.349h3.491v0.349c-0.698,0-0.698,0-0.698,0.349v5.587
		C145.463,213.672,146.162,214.37,148.606,214.37L148.606,214.37z"/>
	<path fill-rule="evenodd" clip-rule="evenodd" fill="#FFFFFF" d="M171.309,214.37L171.309,214.37
		c-2.095,1.398-4.54,1.748-6.287,1.748c-3.84,0-6.285-2.445-6.285-5.239c0-3.143,2.445-5.587,6.636-5.587
		c2.445,0,3.842,1.046,4.19,1.046s0.349-0.349,0.699-0.349l0.349,0.349l-1.396,2.445l-0.351-0.349l0,0
		c0-0.349-1.745-1.398-3.842-1.398c-2.443,0-4.19,1.747-4.19,3.843c0,1.747,2.097,3.491,4.541,3.491
		c1.047,0,2.095-0.349,3.491-0.698v-1.398h-2.794c-0.349,0-0.697,0-0.697,0.352h-0.351v-2.445h0.351
		c0,0.698,0.349,0.698,0.697,0.698h5.239v0.349c-0.35,0-0.698,0-0.698,0.349v2.096C170.61,214.021,170.959,214.021,171.309,214.37
		L171.309,214.37z"/>
	<path fill-rule="evenodd" clip-rule="evenodd" fill="#FFFFFF" d="M178.643,215.768v0.349H175.5v-0.349
		c0.35,0,0.35-0.349,0.35-0.698v-8.733c0-0.349,0-0.349-0.35-0.349v-0.349h3.143v0.349c-0.349,0-0.349,0-0.349,0.349v3.143h6.287
		v-3.143c0-0.349,0-0.349-0.349-0.349v-0.349h3.143v0.349c-0.35,0-0.35,0-0.35,0.349v8.733c0,0.349,0,0.698,0.35,0.698v0.349h-3.143
		v-0.349c0.349,0,0.349-0.349,0.349-0.698v-3.494h-6.287v3.494C178.294,215.419,178.294,215.768,178.643,215.768L178.643,215.768z"
		/>
	<path fill-rule="evenodd" clip-rule="evenodd" fill="#FFFFFF" d="M191.565,207.736h-0.35v-2.793h0.35
		c0,0.697,0.35,0.697,0.699,0.697h9.08c0.349,0,0.697,0,0.697-0.697h0.351v3.142h-0.351c0-0.698-0.349-0.698-0.697-0.698h-3.493
		v7.684c0,0.349,0.349,0.698,0.699,0.698v0.349h-3.493v-0.349c0.349,0,0.349-0.349,0.349-0.698v-7.684h-3.142
		C191.915,207.387,191.565,207.387,191.565,207.736L191.565,207.736z"/>
	
		<polygon fill-rule="evenodd" clip-rule="evenodd" fill="#CA983A" stroke="#CA983A" stroke-width="1.8618" stroke-miterlimit="2.6131" points="
		85.391,213.323 37.544,210.878 85.391,210.878 85.391,213.323 	"/>
	
		<polygon fill-rule="evenodd" clip-rule="evenodd" fill="#CA983A" stroke="#CA983A" stroke-width="1.8618" stroke-miterlimit="2.6131" points="
		211.822,210.878 258.622,210.878 211.822,212.975 211.822,210.878 	"/>
	
		<polygon fill-rule="evenodd" clip-rule="evenodd" fill="#CA983A" stroke="#CA983A" stroke-width="1.8618" stroke-miterlimit="2.6131" points="
		126.604,130.899 37.544,130.899 125.905,128.455 126.604,130.899 	"/>
	
		<polygon fill-rule="evenodd" clip-rule="evenodd" fill="#CA983A" stroke="#CA983A" stroke-width="1.8618" stroke-miterlimit="2.6131" points="
		175.5,128.804 258.622,130.899 174.452,130.899 175.5,128.804 	"/>
	<path fill-rule="evenodd" clip-rule="evenodd" fill="#FFFFFF" d="M263.86,198.654c0-2.096,1.747-3.491,3.842-3.491
		c2.096,0,3.842,1.395,3.842,3.491s-1.746,3.495-3.842,3.495C265.607,202.148,263.86,200.75,263.86,198.654L263.86,198.654z
		 M264.56,198.654c0,1.748,1.396,2.794,3.143,2.794c1.747,0,3.143-1.046,3.143-2.794c0-1.747-1.396-2.793-3.143-2.793
		C265.956,195.86,264.56,196.907,264.56,198.654L264.56,198.654z M269.449,200.401h-0.699l-1.048-1.748h-0.698v1.748h-0.698v-3.495
		h1.745c0.351,0,0.699,0,1.048,0c0.351,0.352,0.351,0.352,0.351,0.701c0,0.698-0.699,1.046-1.048,1.046L269.449,200.401
		L269.449,200.401z M267.702,198.305c0.349,0,1.048,0,1.048-0.698c0-0.349-0.349-0.349-0.699-0.349h-1.047v1.046H267.702
		L267.702,198.305z"/>
	<path fill-rule="evenodd" clip-rule="evenodd" fill="#FFFFFF" d="M45.23,166.873v2.793c5.936,0.349,6.982,1.048,6.982,9.08
		c0,8.035-2.095,11.527-7.333,11.527c-6.636,0-10.479-7.334-10.827-20.956c0-0.699,0-2.096,0-5.938
		c0-9.43,2.444-20.606,11.178-20.606c2.793,0,4.888,1.049,6.634,3.493c2.794,3.143,3.493,5.588,4.192,10.478h3.491V140.33h-2.794
		v0.349c-0.697,1.398-1.047,2.095-1.396,2.095s-0.699-0.349-1.049-0.697c-0.349-0.35-1.046-0.35-1.396-0.699
		c-2.445-1.397-5.238-2.446-8.032-2.446c-9.779,0-20.257,10.128-20.257,27.592c0,19.557,11.177,27.59,19.906,27.59
		c2.794,0,5.239-0.698,6.986-1.396c1.747-1.05,3.492-2.445,3.842-2.445c1.048,0,2.096,2.793,2.096,2.793h3.143v-18.51
		c0-3.492,0.699-4.541,4.19-4.541v-3.143H45.23L45.23,166.873z"/>
	<path fill-rule="evenodd" clip-rule="evenodd" fill="#FFFFFF" d="M112.983,191.668c-2.445,0-3.143-1.744-3.143-3.84v-32.831
		c0-2.094,1.046-3.492,2.794-3.492v-1.746H98.315v1.746c2.444,0,3.144,1.398,3.144,3.492v32.831c0,2.445-0.699,3.84-2.795,3.84
		v1.398h14.319V191.668L112.983,191.668z"/>
	<path fill-rule="evenodd" clip-rule="evenodd" fill="#FFFFFF" d="M126.255,191.668c-3.145,0-3.842-2.793-3.842-5.936v-20.257
		l-3.844-6.985v27.242c0,3.143-0.347,5.936-3.84,5.936v1.398h11.525V191.668L126.255,191.668z"/>
	<path fill-rule="evenodd" clip-rule="evenodd" fill="#FFFFFF" d="M150.004,151.505v-1.746h-11.526v1.746
		c3.144,0,3.843,2.795,3.843,5.588v21.304l-16.416-28.639H114.73v1.746c1.047,0,2.444,0.35,3.143,1.747
		c0.697,1.398,23.051,39.815,23.051,39.815h5.238v-35.973C146.162,153.95,146.511,151.505,150.004,151.505L150.004,151.505z"/>
	<path fill-rule="evenodd" clip-rule="evenodd" fill="#FFFFFF" d="M162.928,191.668c-3.145,0-3.842-2.793-3.842-5.936v-20.257
		l-3.842-6.985v27.242c0,3.143-0.351,5.936-3.842,5.936v1.398h11.525V191.668L162.928,191.668z"/>
	<path fill-rule="evenodd" clip-rule="evenodd" fill="#FFFFFF" d="M186.326,151.505v-1.746h-11.525v1.746
		c3.493,0,3.842,2.795,3.842,5.588v21.304l-16.064-28.639h-11.176v1.746c1.046,0,2.094,0.35,2.793,1.747
		c1.049,1.398,23.401,39.815,23.401,39.815h5.238v-35.973C182.835,153.95,183.184,151.505,186.326,151.505L186.326,151.505z"/>
	<path fill-rule="evenodd" clip-rule="evenodd" fill="#FFFFFF" d="M96.569,151.505v-1.746H83.996v1.746h1.047
		c3.145,0,3.843,2.096,3.843,5.588v24.447c0,3.843-0.698,5.939-2.096,7.334c-1.048,1.398-2.794,1.747-4.89,1.747
		c-4.89,0-5.937-2.793-5.937-8.73v-26.895c0-2.444,1.047-3.492,3.841-3.492v-1.746H63.39v1.746h1.047
		c3.143,0,2.794,2.096,2.794,3.492v26.895c0,8.73,3.492,12.222,12.224,12.222c4.891,0,8.033-1.047,10.129-3.143
		c2.096-2.096,3.143-5.239,3.143-9.78v-24.098C92.726,153.601,93.075,151.854,96.569,151.505L96.569,151.505z"/>
	<path fill-rule="evenodd" clip-rule="evenodd" fill="#FFFFFF" d="M234.523,168.619c-1.048-0.698-5.238-4.191-5.238-4.191
		c-3.842-2.793-4.891-5.239-4.891-8.033c0-2.794,2.445-4.89,4.891-4.89c4.19,0,6.984,1.398,9.08,9.78h1.396v-10.478
		c0,0-1.396,1.397-1.396,1.747c-3.143-2.445-5.937-3.493-8.731-3.493c-6.984,0-11.175,5.589-11.175,10.827
		c0,4.541,1.046,8.383,7.333,13.272c6.286,4.89,10.128,8.032,10.128,12.922c0,2.794-2.444,4.89-5.238,4.89
		c-4.19,0-9.08-1.047-11.525-10.478h-1.396v12.225l2.096-1.398c3.143,1.398,6.984,2.794,10.826,2.794
		c5.938,0,11.525-5.588,11.525-12.222C242.207,178.746,241.509,173.857,234.523,168.619L234.523,168.619z"/>
	<path fill-rule="evenodd" clip-rule="evenodd" fill="#FFFFFF" d="M261.066,168.619c-0.699-0.698-4.89-4.191-5.238-4.191
		c-3.842-2.793-4.89-5.239-4.89-8.033c0-2.794,2.794-4.89,5.238-4.89c3.842,0,6.986,1.398,8.731,9.78h1.746v-10.478
		c0,0-1.397,1.397-1.746,1.747c-3.144-2.445-5.587-3.493-8.381-3.493c-6.986,0-11.525,5.589-11.525,10.827
		c0,4.541,1.047,8.383,7.682,13.272c6.287,4.89,10.129,8.032,10.129,12.922c0,2.794-2.445,4.89-5.238,4.89
		c-4.191,0-9.081-1.047-11.525-10.478h-1.746v12.225l2.445-1.398c3.143,1.398,6.635,2.794,10.826,2.794
		c5.938,0,11.524-5.588,11.524-12.222C269.099,178.746,268.401,173.857,261.066,168.619L261.066,168.619z"/>
	<path fill-rule="evenodd" clip-rule="evenodd" fill="#FFFFFF" d="M212.172,180.842c0,9.779-1.747,9.779-8.383,9.779h-1.747
		c-0.697,0-1.396,0-1.745-0.349c-0.35-0.349-0.35-1.05-0.35-2.096v-16.415h2.095c2.796,0,4.192,1.048,4.192,6.287h2.445V163.38
		h-2.445c0,2.794-0.349,3.842-0.699,4.541c-0.697,0.698-1.396,0.698-3.143,0.698c0,0-1.747,0-2.445,0l-0.35-13.622
		c0-1.396,0.35-2.094,0.699-2.444c0.349-0.349,0.699-0.349,2.096-0.349h2.794c3.842,0,5.938,0,6.985,6.636h2.095v-9.081h-26.543
		v1.746c1.048,0,2.444,0,3.144,0.699c0.349,0.349,0.349,1.047,0.349,2.096v33.528c0,2.096-0.349,3.84-3.142,3.84v1.398h26.192
		v-12.224H212.172L212.172,180.842z"/>
	<path fill-rule="evenodd" clip-rule="evenodd" fill="#CA983A" d="M116.826,112.389c-0.349,0-0.349,0-0.699,0h-0.35
		c0-0.35,0.7-0.35,1.397-0.698c1.049-0.35,1.049-1.048,1.396-1.048v0.349c0,0.35,0,0.699,0,1.747v5.588c0,0.349,0,0.349,0,0.349
		c0,0.699,0,1.049,0.701,1.049c0.349,0.348,0.697,0.348,0.697,0.698c0,0,0,0-0.349,0c0,0-0.699,0-1.747,0c-0.698,0-1.396,0-1.396,0
		c-0.351,0-0.351,0-0.351,0c0-0.35,0.351-0.35,0.699-0.35c0.349-0.348,0.698-0.698,0.698-1.746v-5.238
		C117.524,112.389,117.174,112.389,116.826,112.389L116.826,112.389z"/>
	<path fill-rule="evenodd" clip-rule="evenodd" fill="#CA983A" d="M124.159,110.992c0.699,0,1.397,0,1.397,0
		c0.349,0,0.349,0,0.349,0.35c0,0.698-0.349,1.397-0.698,2.793c-0.697,2.096-1.747,3.493-1.747,4.89
		c0,1.047,0.351,1.397,0.351,1.747c0,0-0.351,0.35-1.048,0.35c-0.349,0-0.698-0.35-0.698-1.049c0-1.746,0.698-2.794,1.396-4.191
		c1.398-1.747,1.747-3.143,1.747-3.492c0,0,0,0-0.349,0l0,0h-2.444c-0.699,0-1.049,0-1.049,0.349
		c-0.349,0.35-0.349,0.698-0.349,0.698c-0.35,0-0.35,0-0.35-0.349c0-0.35,0-0.699,0.35-1.747c0-0.35,0.349-0.35,0.349-0.35
		c0.35,0,0.699,0,1.746,0H124.159L124.159,110.992z"/>
	<path fill-rule="evenodd" clip-rule="evenodd" fill="#CA983A" d="M173.404,111.691c0.349-0.699,0.349-0.699,0.697-0.699h2.097
		c0.349,0,0.699,0,1.048,0c0-0.349,0-0.349,0.351-0.349l0,0v0.349l-0.351,1.048c0,0.35-0.349,0.35-0.699,0.35h-2.095
		c-0.351,0-0.699,0-0.699,0.349v1.396l0,0c0,0.35,0,0.35,0,0.35s0.349-0.35,1.048-0.35c1.746,0,3.143,1.398,3.143,2.795
		c0,1.048-0.697,1.746-1.396,2.794c-0.697,0.698-1.396,1.047-2.445,1.047c-1.046,0-1.745-0.35-1.745-0.699c0,0,0,0,0.349,0
		c0,0,0.351,0,1.048,0c1.397,0,2.794-1.047,2.794-2.794c0-1.047-1.047-1.746-2.445-1.746c-0.349,0-0.697,0-1.046,0c0,0,0,0,0-0.35
		c0,0,0,0,0-0.349L173.404,111.691L173.404,111.691z"/>
	<path fill-rule="evenodd" clip-rule="evenodd" fill="#CA983A" d="M181.437,111.341c1.048,0,2.097,1.048,2.097,2.793
		c0,1.398-0.698,2.096-1.746,2.096s-1.747-1.048-1.747-2.794C180.04,112.04,180.391,111.341,181.437,111.341L181.437,111.341z
		 M183.184,116.231c-0.349,1.397-1.048,2.444-2.096,3.493c-1.048,0.348-1.746,0.348-1.746,0.698v0.35
		c0.698,0,2.095-0.699,3.143-1.397c1.397-1.048,2.445-2.794,2.445-4.89c0-2.095-1.396-3.493-3.143-3.493
		c-1.747,0-3.145,1.397-3.145,3.143c0,1.747,1.049,2.795,2.445,2.795C181.787,116.93,182.835,116.581,183.184,116.231
		L183.184,116.231z"/>
	<path fill-rule="evenodd" clip-rule="evenodd" fill="#CA983A" d="M132.542,93.18c0,1.048-0.349,1.398-1.398,1.398
		c-0.697,0-1.396-0.35-1.396-1.398c0-0.697,0.698-1.396,1.396-1.396C132.193,91.783,132.542,92.482,132.542,93.18L132.542,93.18z"/>
	<path fill-rule="evenodd" clip-rule="evenodd" fill="#CA983A" d="M166.769,92.482L166.769,92.482c0,0,0.698-0.699,1.049-0.699
		c1.046-0.699,0.697-1.397,0.697-1.397s-1.048-4.541-1.746-5.588c-0.35-1.048-0.699-1.048-1.396-0.349
		c-2.096,1.746-5.938,3.492-11.876,3.143l0,0c-6.286-0.349-9.778-3.492-14.319-4.19c-4.19-0.699-11.177,1.048-10.828,3.492
		c0,0.699,0.351,2.794,0.351,3.493c0,0-1.745,0.698-1.745,2.793c0,2.795,2.444,3.842,2.444,3.842l13.62,40.165
		c0.349,0.699,1.396,1.047,2.444,0.699c0.35-0.35,1.048-0.699,1.747-1.048c10.478-7.334,17.114-20.256,17.114-33.877
		c0-5.24-1.396-8.033-1.396-8.033c0.349-0.349,1.048-0.698,1.396-1.047c0,0,2.095,4.889,1.048,13.621
		c-1.396,12.225-7.684,23.051-17.463,29.687c0,0,0,0.699,1.745-0.35c10.829-6.635,17.115-17.462,18.164-29.686
		c0.349-2.096,0.349-3.842,0.349-5.588C167.817,98.418,167.118,93.529,166.769,92.482L166.769,92.482z M135.335,88.64
		c1.048-1.397,3.842,0.35,3.842,0.35l-2.445,5.239C136.732,94.228,134.638,89.338,135.335,88.64L135.335,88.64z M146.511,113.088
		l-1.396-2.445l7.333-15.367c0.699,0,1.398,0.349,2.097,0.349L146.511,113.088L146.511,113.088z M156.641,95.975
		c0.349,0,0.697,0,1.396,0c0.35,0,0.699,0,1.049,0l-10.129,21.653l-1.396-2.445L156.641,95.975L156.641,95.975z M144.065,108.548
		l-1.395-2.794l5.936-12.225c0.351,0.35,1.398,0.699,2.097,1.048L144.065,108.548L144.065,108.548z M141.622,103.658l-1.048-2.793
		l4.192-9.081c0.697,0.35,1.396,0.699,2.095,1.047L141.622,103.658L141.622,103.658z M139.177,98.768l-1.396-2.445l3.143-6.636
		c0.698,0.35,1.397,0.699,2.096,1.048L139.177,98.768L139.177,98.768z M147.21,132.296l-13.971-37.37c0,0-0.698,1.048-2.097,1.048
		c-1.744,0-2.794-1.048-2.794-2.445c0-1.746,1.398-3.143,2.794-3.143c0.701,0,2.097,0.35,3.146,1.747
		c0.35,0.697,13.969,36.671,13.969,36.671s2.794-2.794,4.191-4.541l-2.095-3.841l10.829-24.797
		C161.182,95.625,165.721,117.628,147.21,132.296L147.21,132.296z M156.292,92.482c-5.939,0-10.829-2.445-13.971-4.191
		c-1.397-1.048-2.793-1.747-3.492-1.747c0,0-0.351,0-0.351-0.35l0,0c0,0,0,0,0-0.349c0.351,0,0.699,0,1.05,0
		c1.046,0,2.444,0.699,4.19,1.746c3.143,1.746,7.333,3.493,12.574,3.493c4.89,0.35,9.429-2.793,9.429-2.793h0.349l0,0
		c0,0,0.35,0.698,0.35,1.047C166.419,90.037,160.482,92.83,156.292,92.482L156.292,92.482z"/>
	<path fill="#CA983A" d="M165.721,128.804c-1.745,0-3.492,1.747-3.492,3.492c0,2.095,1.747,3.492,3.492,3.492
		c2.097,0,3.493-1.397,3.493-3.492C169.214,130.551,167.817,128.804,165.721,128.804z M165.721,135.09
		c-1.396,0-2.793-1.047-2.793-2.793c0-1.397,1.396-2.794,2.793-2.794c1.746,0,2.794,1.397,2.794,2.794
		C168.515,134.043,167.467,135.09,165.721,135.09z"/>
	<path fill="#CA983A" d="M167.467,131.598c0-0.349,0-0.699-0.349-0.699c-0.35-0.348-0.699-0.348-1.049-0.348h-1.396v3.492h0.349
		v-1.747h0.699l1.048,1.747h0.698l-1.048-1.747C167.118,132.296,167.467,132.296,167.467,131.598z M165.721,131.948h-0.699v-1.049
		h1.048c0.35,0,0.699,0,0.699,0.699C166.769,131.948,166.419,131.948,165.721,131.948z"/>
</g>
</svg>
