<?xml version="1.0" encoding="utf-8"?>
<!-- Generator: Adobe Illustrator 18.1.0, SVG Export Plug-In . SVG Version: 6.00 Build 0)  -->
<svg version="1.1" id="Layer_1" xmlns="http://www.w3.org/2000/svg" xmlns:xlink="http://www.w3.org/1999/xlink" x="0px" y="0px"
	 width="300px" height="1200px" viewBox="-489 -200 300 1200" enable-background="new -489 -200 300 1200" xml:space="preserve">
<rect x="-48.7" y="-200" fill="none" stroke="#70706E" stroke-width="0.7484" stroke-miterlimit="10" width="299.4" height="299.4"/>
<rect x="-48.7" y="99.9" fill="none" stroke="#70706E" stroke-width="0.7484" stroke-miterlimit="10" width="299.4" height="299.4"/>
<rect x="-48.7" y="399" fill="none" stroke="#70706E" stroke-width="0.7484" stroke-miterlimit="10" width="299.4" height="299.4"/>
<rect x="-48.7" y="699.4" fill="none" stroke="#70706E" stroke-width="0.7484" stroke-miterlimit="10" width="299.4" height="299.4"/>
<rect x="-700" y="-200" fill="#006600" width="116.1" height="116.1"/>
<g>
	<path fill-rule="evenodd" clip-rule="evenodd" fill="#FFFFFF" d="M-335.4-149.5l5.7,18.1c5.9,0.2,12.1-0.2,18.2,0
		c0.7,0.2,1.4,0.9,1.6,1.6c0.8,2.7-2.3,3.5-3.7,4.9c-3.7,2.9-7.7,5.7-11.2,8.9l5.5,18c0.1,0.9-0.4,2-1.3,2.6c-0.8,0.5-2,0.5-2.8-0.1
		l-14.2-10.5c-5.1,3.4-10,7.5-15.2,10.8c-0.7,0.3-1.5,0.1-2.1-0.2c-0.9-0.6-1.3-1.4-1.4-2.3c1.7-6.2,3.7-12.2,5.6-18.3l-14.6-11.3
		c-0.3-0.7-0.7-1.7-0.2-2.6c0.2-0.7,0.8-1.1,1.4-1.4c5.9-0.2,12,0.1,18.2,0l5.9-18.6c0.5-0.7,1.3-1,2.1-1
		C-336.8-151-335.8-150.4-335.4-149.5L-335.4-149.5z"/>
	<path fill-rule="evenodd" clip-rule="evenodd" fill="#FD0013" d="M-312.8-129l-15.2,11.8c1.9,6.4,4.1,12.7,5.9,19.1l-15.7-11.5
		l-15.7,11.5c1.9-6.4,4.2-12.7,5.9-19.2c-5-4-10.1-7.7-15.2-11.7h18.8c2.2-6.3,4-12.7,6.1-19.1l6.1,19.1H-312.8L-312.8-129z"/>
	<path fill-rule="evenodd" clip-rule="evenodd" fill="#FFFFFF" d="M-209.7-61.6c-1.5,0.8-3.1,2.1-4.2,3.7c-2.1,3.1-2.8,8-1,11.5
		c1.2,2.2,2.8,4.5,5.2,5.5l-7.5,26.4l-0.7,0.4l-43.4,9.1v-10.4h-155.2V-5l-44-9.2c-2.8-8.7-5.2-17.6-7.7-26.5
		c4.5-2.2,6.6-7.1,6.2-12c-0.7-3.5-2.7-7.2-6.2-8.6l7.6-26.5l44.1-9.3v10.4h155.2v-10.4l43.9,9.2L-209.7-61.6L-209.7-61.6z"/>
	<path fill-rule="evenodd" clip-rule="evenodd" fill="#231F20" d="M-419.4-18.3l160.8-0.1c0.4,3-0.1,6.4,0,9.6l38.6-7.8l0.5-0.4
		c2.2-7.5,4.3-14.9,6.3-22.4c-3-2.4-4.8-5.8-5.4-9.4c-0.7-5.6,1.2-10.8,5.4-14.2l-6.4-22.5l-39-8v9.8l-160.8,0.1v-9.8l-39.1,8.3
		l-6.3,22.3c2.7,2,4.3,4.9,5.1,7.9c1.5,5.8-0.5,12.2-5.1,15.7l6.3,22.6l39.1,8V-18.3L-419.4-18.3z"/>
	<path fill-rule="evenodd" clip-rule="evenodd" fill="#FFFFFF" d="M-255.7-90l33.7,6.9l5.6,18.9c-4.4,4.5-6.2,11.2-4.7,17.4
		c0.8,3.1,2,6.2,4.7,8.5l-5.4,19.1l-33.9,6.9v-8.9l-166.6,0c-0.4,2.9,0.1,6,0,8.8L-456-19l-0.3-0.5l-5.2-18.5
		c4.8-5,6.5-12.6,4.2-19.1c-0.8-2.6-2.1-4.9-4.2-6.9l5.5-18.9l4.5-1l29.3-5.9v8.9l166.6,0.1V-90L-255.7-90z"/>
	<polygon fill-rule="evenodd" clip-rule="evenodd" fill="#231F20" points="-252.7,-81 -252.7,-86.5 -226.5,-81 -252.7,-81 	"/>
	<path fill-rule="evenodd" clip-rule="evenodd" fill="#231F20" d="M-425.2-80.9h-26.2c8.7-1.9,17.5-3.7,26.2-5.4V-80.9L-425.2-80.9z
		"/>
	<path fill-rule="evenodd" clip-rule="evenodd" fill="#231F20" d="M-223.5-78c1.4,4.3,2.7,8.7,3.7,13.1c-5,6.3-6.2,16.1-2.6,23.4
		c0.7,1.4,1.5,2.8,2.7,4l-3.6,13.2l-231.4,0.2l-3.6-13.1c4.7-5.8,6.3-14.8,3.3-22c-0.8-2-1.7-3.8-3.3-5.6l3.6-13.1H-223.5L-223.5-78
		z"/>
	<path fill-rule="evenodd" clip-rule="evenodd" fill="#FFFFFF" d="M-375.9-70.5c0.9,0.9,1.3,2,1.3,3.3c-0.2,1.2-0.5,2.3-1.5,3.1
		c-1,1-2.6,1.4-4.1,1c-1.2-0.2-2.3-1.2-2.9-2.2c-0.8-1.5-0.7-3.6,0.5-4.9c0.8-1,2.1-1.5,3.3-1.7C-378-71.9-376.8-71.3-375.9-70.5
		L-375.9-70.5z"/>
	<path fill-rule="evenodd" clip-rule="evenodd" fill="#FFFFFF" d="M-304-71.1c0.6,0,0.7,0.7,0.9,1c0,5.7-0.1,11.5,0.1,17.3
		c1.9-1.6,3.8-3.3,5.4-5.1c-0.2-0.7-1.2-0.6-1.5-1.3c-0.1-0.9,0-1.6,0.4-2.3h10.9c0.7,0.6,1,1.2,0.6,2.1c-0.6,0.6-1.5,0.4-2.1,1
		c-2,1.9-4.2,3.3-5.6,5.6c2.1,4.4,4.4,8.7,7.1,12.9c0.9,0.6,2.7,0.7,2.6,2.1c-0.1,1.4-0.4,2.4-2.4,2.4h-6.6c-2.4-4-4.5-8-6.9-11.9
		l-1.9,1.7c-0.3,2.1-0.3,4.7,1.4,6.1c0.5,0.2,1,0.3,1.4,0.9c0,1.2,0.1,2.4-0.9,3.1h-12.2c-0.7-0.8-0.8-1.8-0.7-3
		c0.7-1,2.4-1.3,2.7-2.6V-66c-0.2-1.5-2-1.7-2.7-2.8c0-0.8-0.2-1.9,0.5-2.3H-304L-304-71.1z"/>
	<path fill-rule="evenodd" clip-rule="evenodd" fill="#FFFFFF" d="M-415.3-42.2c0.1,1-0.1,2.4,1,2.9c1,0.6,2.6,1,2.2,2.7
		c-0.2,0.5-0.1,1.1-0.7,1.3h-14.3c-0.9-0.6-0.5-1.8-0.5-2.7c0.8-0.8,2.3-0.7,2.8-2c0.2-3.8,0.7-7.8,0.3-11.7l-0.5-0.6h-7.5l-0.6,0.7
		c-0.4,4,0.1,7.8,0.3,11.7c0.7,1.2,2.2,1,2.9,2.1c-0.1,0.8,0.2,1.5-0.2,2.2l-0.6,0.3h-14.1c-0.9-0.7-0.5-1.9-0.4-2.8
		c0.9-0.8,2.4-0.9,2.9-2.2v-26c-0.7-1-2-1.2-2.9-1.9c-0.1-0.9-0.5-2.2,0.5-2.9h13.6c0.7,0.7,0.5,2,0.3,2.8c-0.7,0.8-2,0.8-2.3,2
		c-0.2,2.9-0.4,5.5-0.1,8.4l0.5,0.5h7.6l0.5-0.5c0.2-3,0.1-5.7-0.2-8.6c-0.5-1.2-1.9-0.9-2.3-2.1c0.1-0.8-0.2-1.9,0.6-2.4h13.6
		c0.9,0.7,0.6,2.1,0.3,3c-0.9,0.6-2.4,0.8-2.9,2.1V-42.2L-415.3-42.2z"/>
	<path fill-rule="evenodd" clip-rule="evenodd" fill="#FFFFFF" d="M-388.3-56.7c0.8,1.4,1.7,3.3,1,5c-4.3,4.3-10.1,5.2-15.6,7.1
		c-0.3,0.5-0.2,1,0,1.5c1.2,1.9,3.1,3.4,5.5,3.1c3.3,0.1,5.6-2.1,8-4.1c1-0.3,1.7,0.5,2.4,1.1c0.5,0.5,0.5,1.3,0.2,1.9
		c-2.8,4.3-7.6,6.4-12.7,6.3c-5.4,0-10.6-4.2-12.2-9.1c-1.6-5.9-0.2-12.4,4.8-16.1c3.6-2.9,9.7-3.5,13.6-1
		C-391.3-59.9-389.6-58.5-388.3-56.7L-388.3-56.7z"/>
	<path fill-rule="evenodd" clip-rule="evenodd" fill="#FFFFFF" d="M-260.8-54.4c0.4,0.7,0.4,1.7,0.1,2.6c-2,2.7-5.1,3.6-7.8,4.8
		l-7.8,2.5c-0.6,0.3-0.3,1.2-0.2,1.5c1.1,1.9,3,3.4,5.2,3.3c3.5,0.2,5.9-1.9,8.4-4.1c1.2-0.3,2.1,0.6,2.8,1.4
		c-0.2,4.1-4.8,6.2-7.9,7.3c-5.8,1.7-11.4-0.3-15.2-4.9c-3.6-4.2-3.3-11.3-0.7-16c3-4.8,8.5-7.5,14.2-6.1
		C-265.9-61.2-262.1-58.3-260.8-54.4L-260.8-54.4z"/>
	<path fill-rule="evenodd" clip-rule="evenodd" fill="#FFFFFF" d="M-316.2-56.2c0.5,1.2,1.4,2.4,1.1,4c-2.3,3.7-6.5,4.4-10,5.9
		l-5.7,1.7c-0.6,0.3-0.2,1.3,0,1.7c1,1.7,2.9,3,5.1,3c3.4,0.1,5.7-2,8.2-4.1c1.2-0.5,2.2,0.5,2.9,1.3c0.3,3-2.9,4.7-4.9,6.1
		c-3.6,2.1-9,2.6-12.8,0.7c-4.4-2.1-7.8-6.5-7.9-11.4c-0.2-5.6,1.9-10.8,6.9-13.6c3-1.7,7.3-2.1,10.7-0.8
		C-320.2-60.6-317.6-58.8-316.2-56.2L-316.2-56.2z"/>
	<path fill-rule="evenodd" clip-rule="evenodd" fill="#FFFFFF" d="M-235.7-60.3c0.9,1.3,1.3,2.7,1.5,4.2v15.9
		c0.8,1.6,1.7-0.8,2.9-0.1c0.8,0.5,0.9,1.4,0.7,2.1c-1.1,2.2-3.5,3.1-5.7,3.4c-2.1-0.2-4.5-0.8-5.5-3c-0.9-5.5,0-11.8-0.8-17.5
		c-0.4-0.6-1.1-1.2-1.9-1.2c-1.3,0.1-2.4,0.9-3.1,2.1c-0.7,4.7-0.7,10,0,14.6l2.1,1.6c-0.1,1,0.5,2.3-0.6,3h-12.5
		c-0.8-0.7-0.5-1.8-0.6-2.8c0.7-1,2.6-1.2,2.7-2.7l0-15.5c0.1-1.2-1.3-1.9-2-2.7c-0.1-0.9-0.3-2,0.5-2.6l9.4,0
		c0.5,0.3,0.3,1.8,1.4,1.3C-244-62.1-238.8-63.5-235.7-60.3L-235.7-60.3z"/>
	<path fill-rule="evenodd" clip-rule="evenodd" fill="#FFFFFF" d="M-346.3-60.3c0.9,1.3,1.3,2.7,1.5,4.2v15.9
		c0.8,1.6,1.7-0.8,2.9-0.1c0.8,0.5,0.9,1.4,0.7,2.1c-1.1,2.2-3.5,3.1-5.7,3.4c-2.1-0.2-4.5-0.8-5.5-3c-0.9-5.5,0-11.8-0.8-17.5
		c-0.3-0.6-1-1.2-1.9-1.2c-1.3,0.1-2.4,0.9-3.1,2.1c-0.7,4.7-0.7,10,0,14.6l2.1,1.6c-0.1,1,0.5,2.3-0.6,3h-12.5
		c-0.8-0.7-0.5-1.8-0.6-2.8c0.7-1,2.6-1.2,2.7-2.7l0-15.5c0.1-1.2-1.3-1.9-2-2.7c-0.1-0.9-0.3-2,0.5-2.6l9.4,0
		c0.5,0.3,0.4,1.8,1.4,1.3C-354.6-62.1-349.4-63.5-346.3-60.3L-346.3-60.3z"/>
	<path fill-rule="evenodd" clip-rule="evenodd" fill="#FFFFFF" d="M-374.3-60.8v19.4c-0.5,1.7,1.5,2.3,2.4,3.1
		c0,0.9,0.3,2.1-0.2,2.8l-0.5,0.2h-12.2c-0.8-0.7-0.5-1.8-0.6-2.8c0.7-1.2,2.6-1.2,2.6-2.8l0.1-15.3c-0.1-1-1.4-1.5-2.1-2.4
		c0-0.9-0.3-2.4,0.6-3h9.3L-374.3-60.8L-374.3-60.8z"/>
	<path fill-rule="evenodd" clip-rule="evenodd" fill="#231F20" d="M-395.9-55.8c0.6,1.2,1.3,3.1,0.2,4.3c-2,1.4-4.3,2-6.6,2.4
		c-1.6-0.1-1-2-1.4-2.9c0.1-2.2,0.8-4.3,2.4-5.6C-399.5-58.5-396.7-58.1-395.9-55.8L-395.9-55.8z"/>
	<path fill-rule="evenodd" clip-rule="evenodd" fill="#231F20" d="M-270.8-57.6c1.4,1.3,2.2,2.9,2.1,4.9c-0.3,1.9-2.4,2.1-3.7,2.8
		c-1.5,0.1-3.5,1.7-4.5,0c-0.4-2.8-0.2-5.9,2.2-7.7C-273.6-58.2-272-58.2-270.8-57.6L-270.8-57.6z"/>
	<path fill-rule="evenodd" clip-rule="evenodd" fill="#231F20" d="M-325.5-57.6c1.6,1.4,2.4,3.4,2.1,5.4c-0.6,1.4-2.2,1.7-3.5,2.3
		c-1.5,0-3.5,1.9-4.7,0c-0.5-2.8-0.1-6.1,2.4-7.7C-328.2-58.2-326.5-58.2-325.5-57.6L-325.5-57.6z"/>
	<polygon fill-rule="evenodd" clip-rule="evenodd" fill="#231F20" points="-252.7,-21.1 -226.3,-21.1 -252.7,-15.8 -252.7,-21.1 	
		"/>
	<path fill-rule="evenodd" clip-rule="evenodd" fill="#231F20" d="M-425.2-15.7l-26.5-5.4c8.7-0.1,17.6,0,26.5,0V-15.7L-425.2-15.7z
		"/>
	<path fill-rule="evenodd" clip-rule="evenodd" fill="#FFFFFF" d="M-389.2-106.7h-1.1v-5.7h1.7l0.6,2.6c0.1,0.4,0.2,0.9,0.2,1.3h0
		c0.1-0.6,0.1-0.9,0.2-1.3l0.6-2.6h1.7v5.7h-1.1v-1.8c0-1.1,0-2.3,0.1-3.4h0l-1.1,5.2h-0.6l-1.1-5.2h0c0.1,1.1,0.1,2.3,0.1,3.4
		V-106.7L-389.2-106.7z"/>
	<path fill-rule="evenodd" clip-rule="evenodd" fill="#FFFFFF" d="M-384.6-106.7l1.4-5.7h1.4l1.3,5.7h-1.1l-0.3-1.4h-1.2l-0.3,1.4
		H-384.6L-384.6-106.7z M-383-109h0.9l-0.3-1.6c-0.1-0.3-0.1-0.5-0.1-0.8c0-0.1,0-0.3,0-0.4h0c0,0.1,0,0.3,0,0.4
		c0,0.3-0.1,0.5-0.1,0.8L-383-109L-383-109z"/>
	<path fill-rule="evenodd" clip-rule="evenodd" fill="#FFFFFF" d="M-378.6-109.2v2.5h-1.1v-5.7h2c0.9,0,1.6,0.3,1.6,1.4
		c0,0.6-0.2,1.3-0.9,1.4v0c0.6,0.1,0.8,0.5,0.8,1c0,0.2,0,1.6,0.2,1.8v0.1h-1.2c-0.1-0.4-0.1-1.1-0.1-1.4c0-0.3,0-0.8-0.4-0.9
		c-0.3-0.1-0.6-0.1-0.9-0.1H-378.6L-378.6-109.2z M-378.6-110h0.8c0.3,0,0.6-0.3,0.6-0.8c0-0.6-0.3-0.7-0.7-0.8h-0.8V-110
		L-378.6-110z"/>
	<path fill-rule="evenodd" clip-rule="evenodd" fill="#FFFFFF" d="M-371.3-106.2l-0.6-0.6c-0.3,0.1-0.6,0.2-1,0.2
		c-1.7,0-1.9-1.1-1.9-2.6v-0.8c0-1.5,0.2-2.5,1.9-2.5c1.7,0,1.8,1.1,1.9,2.5v0.8c0,0.7,0,1.5-0.3,1.9l0.6,0.6L-371.3-106.2
		L-371.3-106.2z M-372.3-108.2L-372.3-108.2c0.1-0.1,0.1-0.3,0.1-0.5l0-1.6c0-0.4,0.1-1.4-0.8-1.4c-0.8,0-0.8,1-0.8,1.4v1.6
		c0,0.5,0,1.2,0.8,1.2c0.1,0,0.2,0,0.3,0l-0.2-0.2L-372.3-108.2L-372.3-108.2z"/>
	<path fill-rule="evenodd" clip-rule="evenodd" fill="#FFFFFF" d="M-367.3-112.4h1.1v4c0,1.3-0.4,1.9-1.8,1.9
		c-1.4,0-1.8-0.6-1.8-1.9v-4h1.1v3.9c0,0.5,0,1.1,0.8,1.1c0.7,0,0.7-0.5,0.7-1.1V-112.4L-367.3-112.4z"/>
	<polygon fill-rule="evenodd" clip-rule="evenodd" fill="#FFFFFF" points="-364.9,-106.7 -364.9,-112.4 -361.9,-112.4 
		-361.9,-111.6 -363.9,-111.6 -363.9,-110.2 -362.1,-110.2 -362.1,-109.3 -363.9,-109.3 -363.9,-107.6 -361.9,-107.6 -361.9,-106.7 
		-364.9,-106.7 	"/>
	<path fill-rule="evenodd" clip-rule="evenodd" fill="#FFFFFF" d="M-314.5-106.7v-5.7h2.2c0.3,0,0.8,0.1,1.1,0.6
		c0.2,0.4,0.3,1,0.3,2c0,1.1,0,2.4-0.9,2.9c-0.2,0.1-0.5,0.2-0.8,0.2H-314.5L-314.5-106.7z M-313-107.6c0.9,0,1-0.5,1-2.1
		c0-1.3-0.1-1.9-0.8-1.9h-0.7v4H-313L-313-107.6z"/>
	<polygon fill-rule="evenodd" clip-rule="evenodd" fill="#FFFFFF" points="-309.7,-106.7 -309.7,-112.4 -306.7,-112.4 
		-306.7,-111.6 -308.6,-111.6 -308.6,-110.2 -306.8,-110.2 -306.8,-109.3 -308.6,-109.3 -308.6,-107.6 -306.7,-107.6 -306.7,-106.7 
		-309.7,-106.7 	"/>
	<path fill-rule="evenodd" clip-rule="evenodd" fill="#FFFFFF" d="M-304.5-110h0.6c0.5,0,0.8-0.2,0.8-0.9c0-0.7-0.3-0.8-0.9-0.8
		h-0.5V-110L-304.5-110z M-305.6-106.7v-5.7h2.2c1,0,1.3,0.8,1.3,1.6c0,0.5-0.1,1-0.5,1.4c-0.3,0.3-0.8,0.3-1.2,0.3h-0.7v2.4H-305.6
		L-305.6-106.7z"/>
	<path fill-rule="evenodd" clip-rule="evenodd" fill="#FFFFFF" d="M-301.2-110c0-1.5,0.2-2.5,1.9-2.5c1.7,0,1.8,1.1,1.9,2.5v0.8
		c0,1.5-0.1,2.6-1.9,2.6c-1.7,0-1.9-1.1-1.9-2.6V-110L-301.2-110z M-300.1-108.7c0,0.5,0,1.2,0.8,1.2c0.8,0,0.8-0.8,0.8-1.3v-1.5
		c0-0.5,0-1.5-0.8-1.5c-0.8,0-0.8,1-0.8,1.4V-108.7L-300.1-108.7z"/>
	<path fill-rule="evenodd" clip-rule="evenodd" fill="#FFFFFF" d="M-294-110.7c0-0.5,0-1-0.6-1c-0.4,0-0.6,0.1-0.6,0.5
		c0,0.4,0.3,0.6,0.6,0.8c0.3,0.2,1,0.6,1.3,0.9c0.4,0.4,0.5,0.7,0.5,1.2c0,1.1-0.7,1.6-1.8,1.6c-1.3,0-1.7-0.7-1.7-1.7v-0.4h1.1v0.3
		c0,0.6,0.1,1,0.7,1c0.4,0,0.7-0.2,0.7-0.7c0-0.3-0.2-0.6-0.4-0.8c-0.6-0.4-1.2-0.7-1.7-1.3c-0.2-0.3-0.3-0.6-0.3-0.9
		c0-1,0.5-1.5,1.7-1.5c1.7,0,1.6,1.3,1.7,1.9H-294L-294-110.7z"/>
	<polygon fill-rule="evenodd" clip-rule="evenodd" fill="#FFFFFF" points="-291.7,-106.7 -291.7,-112.4 -288.7,-112.4 
		-288.7,-111.6 -290.7,-111.6 -290.7,-110.2 -288.9,-110.2 -288.9,-109.3 -290.7,-109.3 -290.7,-107.6 -288.7,-107.6 -288.7,-106.7 
		-291.7,-106.7 	"/>
	<polygon fill-rule="evenodd" clip-rule="evenodd" fill="#FFFFFF" points="-287.7,-106.7 -287.7,-112.4 -284.7,-112.4 
		-284.7,-111.6 -286.6,-111.6 -286.6,-110.2 -284.8,-110.2 -284.8,-109.3 -286.6,-109.3 -286.6,-107.6 -284.7,-107.6 -284.7,-106.7 
		-287.7,-106.7 	"/>
	<path fill-rule="evenodd" clip-rule="evenodd" fill="#FFFFFF" d="M-232.4-64.9c3.1,0,5.7-2.5,5.7-5.7c0-3.1-2.5-5.7-5.7-5.7
		c-3.1,0-5.7,2.5-5.7,5.7C-238-67.4-235.5-64.9-232.4-64.9L-232.4-64.9z"/>
	<path fill-rule="evenodd" clip-rule="evenodd" fill="#231F20" d="M-236.9-70.6c0-1.2,0.5-2.3,1.3-3.2c0.9-0.8,2-1.3,3.2-1.3
		c1.2,0,2.3,0.5,3.2,1.3c0.9,0.9,1.3,2,1.3,3.2c0,2.5-2,4.5-4.5,4.5c-1.2,0-2.3-0.5-3.2-1.3C-236.4-68.2-236.9-69.4-236.9-70.6
		L-236.9-70.6z"/>
	<path fill-rule="evenodd" clip-rule="evenodd" fill="#FFFFFF" d="M-234.3-73.4h2.8c1.5,0,1.7,1.1,1.7,1.5c0,0.6-0.3,1.1-0.8,1.3
		c0.4,0.2,0.7,0.4,0.7,1.4c0,0.8,0,1,0.2,1.1v0.1h-1.3c-0.1-0.3-0.1-0.5-0.1-1.1c0-0.7,0-1-0.9-1h-1.2v2.1h-1.1V-73.4L-234.3-73.4z
		 M-231.9-71c0.6,0,0.9-0.2,0.9-0.7c0-0.3-0.1-0.7-0.8-0.7h-1.4v1.5H-231.9L-231.9-71z"/>
</g>
<path fill="#FFFFFF" d="M-373.5,20.3c-0.6,1.3-2,1.6-3.3,1.7c-1.5,0.2-0.6,1.6-0.8,2.7c-0.2,1.3-2.6,2.1-1.5,3.4
	c1.5,0,2.7,0.5,4.1,0.7c2.4,1,3.4-2.8,5.9-1.6c1-0.6,1.4-2,2.3-2.8c0.7,0.4,1.7,0.5,2.3-0.1c2.2-2,2.8-4.8,3.7-7.3
	c0.7-1.5,2.2-2.2,3.8-2.3c0-0.5,0.3-1.6-0.6-1.5c-1,0.6-2.8,0.7-4,0.2c-0.8-0.7-1.9-1.4-1.6-2.7c0.2-1.1,1-1.9,2.1-2.1
	c1.7-0.1,1.2-2.1,2.5-2.8c0.2-0.7,0.1-1.4-0.5-1.9c-1.5-0.3-1.3-2.2-2.3-3c-2.4-0.8-4.8,1.2-7.1,0c-1,0.1-1.9,0.7-2.4,1.6
	c-0.6,1.1-0.5,2.6-1.7,3c-0.7-0.5-0.9-1-0.9-1.7c-0.6-1.7-2.1-3.3-4-3.5c-1,0.6-2.2,0-3.3-0.3c-0.9,0-2.1-0.2-2.9,0.2
	c0.1,0.2-0.1,0.5,0.2,0.7c0.5,0.5,0.7,1.2,0.3,1.9c0,0.8,0.9,0.9,1.4,1.4c0.2,0.2,0.6,0.7,0.2,0.9c-1.9,0.2-3.3-1.3-4.8-2
	c-0.8-0.1-1.4-0.5-2.1-0.7c-0.8-0.6-1.5,0.4-2.2,0.5c-3.4-0.4-7.3-0.6-10,1.5c0.3,1.3,2,0.8,2.9,1.4c1.6,0.5,2.6,2.1,2.9,3.6
	c0.9,0.7,3,0.1,2.9,2c2.4,2.3,4.9-1.4,7.3,0.1c0.5,0.4,0.4,1,0.1,1.4c-0.5,0.6-1,0.7-1.7,0.6c-1.5-0.1-3.1,0.6-4.7,0
	c-3-0.1-4.9,2.8-7.6,3.6c-1.3,0-2.7-0.2-3.6-1.4c-0.3-2.1,0.6-4.7-0.7-6.5c-0.6-1.7-2.3-2.1-3.5-3.3c-0.9-1-2.4-0.5-3.5-1.2
	c-2-0.6-3.6,0.5-5.5,0.7c-0.3,1.2-2,0.9-2.6,1.7c1,1.6-0.3,3.3,1,4.9c0.1,1.6,1.4,2.8,2.6,4v0.6c1,1,2.7,1,3.4,2.4
	c2.6,0.7,5.2,0.2,7-2c1.7-0.8,2.9,1.2,4.5,1.3c-0.2,1.2-0.7,2.7-0.1,3.8c0.9,1.6,2.8,2.8,4.8,2.8c1.1-0.3,2.3-0.9,2.8-2.1
	c0.2-0.6,0.2-1.5-0.3-2c-0.5-0.6-1.3-0.6-1.9-0.3c-1.2,0.5-0.5,1.9-0.6,2.8c-0.5,0.6-1.5,0.3-2.1,0.1c-1.2-0.5-1.7-1.4-2.1-2.3
	c0-0.9-0.2-2.2,0.9-2.7c3.4-0.1,5.1-4.8,8.9-3.8c2.6,0.7-0.5,2.1-0.5,3.1c1.2,1.3,2.1,2.4,2.6,4l3.7,0.5c3.6,2.3,5.8-2.3,8.7-3.4
	C-373.7,19-373.3,19.6-373.5,20.3z M-407.7,6.8c0.8,0.1,1.4,0.5,2,1c0,0.4,0,0.7-0.2,0.8C-406.6,8-408.3,8.1-407.7,6.8z
	 M-406.3,10.3c-0.6,0.8-2,0.5-2.9,0.8c-0.5-0.7-0.8-1.4-0.7-2.2C-408.6,8.9-407.2,9-406.3,10.3z M-410.9,5.9c0.6,0.1,1.5,0,1.9,0.7
	c0.3,1.4-1.2,0.7-1.7,0.9C-411.1,7.1-411.2,6.3-410.9,5.9z M-413.2,6.2c0.7-0.2,0.9,0.3,0.9,0.9c0,0.3-0.2,0.6-0.6,0.7
	c-0.5,0.1-0.8-0.5-0.8-0.8C-413.8,6.6-413.6,6.3-413.2,6.2z M-416.1,8.1c-0.1-0.3,0.2-0.6,0.6-0.7c0.3-0.1,0.8,0,0.7,0.6
	c0,0.3-0.2,0.5-0.6,0.7C-415.8,8.7-416.1,8.4-416.1,8.1z M-415.9,10.2c0.7-0.7,1.5,0.1,1.5,0.8c0.3,0.6-0.5,0.5-0.7,0.7
	C-415.8,11.6-415.8,10.7-415.9,10.2z M-412.8,14.6l-0.3,0.3c-0.7-0.6-1.4-0.9-1.5-1.9c0.4-0.3,0.7-0.5,1.2-0.6
	C-413.2,13.1-412.3,13.8-412.8,14.6z M-413.3,9.4c0.6-0.2,1.2-0.6,1.7-0.4c0.3,0.6,0.3,1.4,0.6,2c-0.3,0.3-0.9,0.5-1.4,0.5
	C-412.9,10.7-413.3,10.2-413.3,9.4z M-410.1,16.9c-0.7,0.3-1.5-0.2-2.2-0.6c0-0.2,0.2-0.7,0.6-0.8
	C-411.1,15.8-409.7,16.1-410.1,16.9z M-411.2,13.8c-0.3-0.5-0.5-1,0.2-1.3l0.8-0.1c0.2,1,1.2,1.7,1.3,2.9
	C-410,15.3-410.8,14.6-411.2,13.8z M-407.6,18.1l-1.2-0.1c-0.3-0.7,0.6-1.2,0.8-1.6l2.3,0.7C-405.8,17.9-406.9,17.9-407.6,18.1z
	 M-404.1,16c-1.5-0.1-3.1-0.5-3.7-2.1l-0.6-1.5c1.9-0.7,4.2-0.1,5.1,1.7C-403.4,14.7-403.1,15.9-404.1,16z M-403,12.3
	c-0.6-0.7-2.6-0.7-2-2.2l0.4-1.2C-403.4,9.6-402.7,10.9-403,12.3z M-380,21.2c-0.8,0.1-1.7,0.2-2.6-0.2l-3.1-0.1
	c-0.9-0.9-0.8-2.4-2-3.3c0.2-0.9,2.3-1.5,1.2-2.8c1.3-0.3,3-0.2,3.6-1.7c0.3-0.7,0-1.5-0.4-2.1c-0.5-0.7-1.3-0.9-2.1-1
	c-1.6-0.1-2.9,1-4.5,0.8c-0.5-1.7-2.4-1.9-3.8-2.4c-0.2-1.3-1-2.7-2.4-3.3c-0.5-0.3-1.1-0.2-1.5-0.5c2.3-1.5,5.8-0.8,8.6-0.3
	c0.2-0.3,0.6-1,1.2-0.6c2.3,1,4.3,3,7,2.8c0.6-0.1,0.9-0.7,1-1.3c0-0.8-0.4-1.6-1.3-1.9c-0.2-0.2-0.7-0.4-0.7-0.7
	c0.1-0.6,0.1-1.2,0.3-1.6c1.6-0.2,2.8,1.5,4.4,0.5c3,0.6,1.9,4.4,4.4,5.6c2.9-0.1,1.9-3.7,4.2-4.8c2.2,1.2,4.2-1.4,6.5-0.3
	c0.6,0.9,0.8,2.4,2.1,2.8c0.5,1-0.8,1.6-1.2,2.6c-1.2,0.5-2.4,1.2-3,2.3c-0.3,1.1-0.1,2.4,0.4,3.4c0.7,1,1.7,1.7,2.9,1.9
	c0.1,0.8-0.9,1.1-1.2,1.7c-1,2.2-1,5-3.5,6.5c-1.5-0.9-2.3,0.8-3.3,1.6l-0.8,1.3c-2-0.7-3,1.5-4.7,1.7l-3.4-0.7c0.3-1,1.7-2,1.2-3.1
	c0.6-1,2-0.8,2.8-1.6c0.7-0.6,1.5-1.4,1.4-2.3c-0.2-0.8-0.5-1.9-1.3-2.2C-376.6,16.3-377.4,20.8-380,21.2z"/>
<path fill="#FFFFFF" d="M-368.7,30.9c4.4,0.9,4.8-4.1,7.5-6.1c0.8-0.6,2.3-0.3,2.3-1.6l-0.2-0.6c-3.8-0.3-4.9,4.3-6.8,6.5
	c-2.3,2.3-5.4-0.6-7.9,0.9c-1,0.4-1.6,1.4-1.9,2.3c0.1,0.7,0.4,1.4,0.8,2c0.8,1.2,2.3,1,3.3,1.9c-0.7,1.9-2.6,3.3-4.4,3.4
	c-1.1,0.1-1.9-0.1-2.5-0.8c-0.5-0.6,0.1-1.3,0-1.6c-0.3-0.1-0.6,0-0.8,0.3c-0.4,0.4-0.2,1.2-0.1,1.6c0.9,0.9,2.1,1.2,3.4,1.2
	c2.4-0.2,4.2-2.1,5.4-4.2c1.5-0.2,2.9-0.5,4.1-1.6c0.3-0.5,0.5-1.3,0.3-1.9c-0.5-0.8-1.6-0.7-2.2-0.4c-1.4,0.4-2,1.9-2.7,2.9
	c-1,0-2-0.3-2.8-1c-0.7-0.5-1-1.3-0.7-2.1C-373.5,29.5-370.7,30.9-368.7,30.9z"/>
<path fill="#FFFFFF" d="M-350,28.5c-0.8-1,0.4-2.1,0.6-3.1c-1.2-1-1.5,1.2-2.3,1.5c-1.3,0.3-2.4-0.5-3.6-0.7
	c-2.4-0.1-4.2,1.4-5.8,3.1c0,1.6-1.5,3-2.1,4.5l0.5,0.7c-0.7,1.2-0.8,2.4-0.9,3.8c0,0.5-0.2,1.2,0.5,1.2l0.2,2.7
	c0.1,0.5,0.2,1.4,0.8,1.2l1.2,2.7l2.7-0.5c0.1,0.1,0.2,0.5,0.5,0.3c1.7-0.8,3.8-0.2,5.4-1.9c0.9-0.5,1.5-1.7,2.6-1.9
	c1.2-1.3,1.6-3,2.6-4.3c0.3-2.6,0.7-5.6-0.9-7.6C-348.7,29.4-349.9,29.3-350,28.5z M-354.8,27.8c-0.7,0.9-1.4,2.2-2.1,2.9
	c-0.8-0.2-1.6-0.5-2.3-0.9C-358.3,28.5-356.6,27.3-354.8,27.8z M-357.3,36.3c-0.5,0.1-0.9,0.5-1.5,0.2c-0.6-1.3-0.2-2.9,0.6-4
	c0.4-0.1,0.6-0.7,1.1-0.5c0.6,0.8,0.2,2,0.6,2.9C-356.3,35.6-356.7,36.2-357.3,36.3z M-359.9,31.3c0.4-0.1,0.7,0.2,0.5,0.6
	c-0.5,0.7-0.7,1.5-1.4,2.1l-0.7-0.2C-361.3,32.8-360.6,31.9-359.9,31.3z M-362.3,37.6c0.5-0.8,0-2.9,1.6-2.4c0,0.9,1,2.3,0,3
	C-361.1,37.8-362,38.3-362.3,37.6z M-361.4,41.8c-0.3-0.6-0.6-1.5-0.1-2.1c0.6-0.1,1.5-0.1,1.4,0.7c0.1,0.5,0,0.8,0,1.3
	C-360.5,41.8-361,42-361.4,41.8z M-358.9,43.9c0.1,0.5-0.4,0.5-0.6,0.7c-0.8,0.2-0.7-0.6-1-1c0.1-0.3,0.6-0.5,0.9-0.5
	C-359.2,43.2-358.7,43.3-358.9,43.9z M-358.8,41.4c-0.2-0.9-0.6-2-0.2-3c0.8-0.2,1.7-0.9,2.4-0.3c0.3,0.7,0.5,1.5,0.6,2.3
	C-356.8,41-357.7,41.7-358.8,41.4z M-356.8,44.3c-0.7,0.2-0.8-0.6-1-0.9c-0.1-0.7,0.7-0.7,1.2-0.9c0.8-0.1,0.7,0.8,1,1.3
	C-355.7,44.3-356.4,44.3-356.8,44.3z M-354.2,29.3c0.5-0.6,1.2-1,1.9-1.2c0.7,0,1.1,0.8,1.4,1.4c0.2,1.7-0.5,3.4-1.9,4.4l-2.1,0.9
	C-355.7,33.1-355.3,30.8-354.2,29.3z M-354,43.4c-0.3-0.6-0.8-1.2-0.8-2c1.2,0.1,2.1-1.5,3-0.5C-351.8,42.1-353.1,42.9-354,43.4z
	 M-354.6,39.7c-0.5-1-0.8-2.4,0-3.4c1.2,0.1,2.6-2,3.4-0.1C-351.5,37.8-352.8,39.3-354.6,39.7z M-350.4,40.1
	c-0.2,0.1-0.5-0.3-0.7-0.7c0.4-0.7,0.5-1.6,1.3-2.2c0.2,0,0.5,0.2,0.5,0.5C-349.3,38.7-350,39.3-350.4,40.1z M-348.4,35.1l-0.2,0.9
	c-0.7-0.3-1.7-0.9-2.1-1.9c0.5-0.9,0.8-2,1-3C-348.4,31.9-348.3,33.7-348.4,35.1z"/>
<path fill="#FFFFFF" d="M-331.9,21.2c-0.3-0.5-0.2-1,0.2-1.4c2.6-0.5,2.9,2.6,4.7,3.8c0.9,0.9,1.9-0.6,2.9,0.5
	c1.4,0.8,2.6-0.6,3.7-1.2c0.5-0.5,1.4-0.2,1.9-0.8c0.5-1.9,0-3.8-0.7-5.5c-0.8-3.5-4.9-1.9-6.6-4.1c0-0.4-0.2-0.9,0.2-1.2
	c1.7-1.3,2.3,1.7,4,1.3c1.2-0.6,2.8-0.6,3.4-2c-1.4-1.6-0.8-4.2-1.4-6.2c-0.3-2.3-3.3-1.7-3.8-3.7c-2-0.8-4.3-0.1-6.2,0.5
	c-0.4,0.1-0.7-0.1-0.7-0.5c-0.1-0.6-0.7-0.9-1.3-0.7c-1.6,0-2.7,1.7-3.9,2.4c-0.7,0.4-1.4,0.5-2.3-0.2c-0.8-1.4-0.3-2.8,0.3-4
	c0.3-0.6,0.7-1.2,0.9-1.7c-0.9-0.2-2.1-0.2-2.7,0.7l-0.6,1c-0.4,1.4,0.2,3.4-1.5,3.9c-2.6-1.2-5.4-2.3-8.4-2
	c-0.7,0.1-0.6,0.9-0.9,1.4c-1.7,0.7-3.7,0.7-5,2c0.8,1.6-1.2,2.8-1.7,4c0.2,1.3,0.4,2.7,0.1,3.8c1.2,1.2,2.6,1.9,4.2,2.1
	c2,0.2,2.4-2.7,4.4-2.6c0.5,0.2,0.7,0.7,0.7,1.2c-1.4,3.1-5.2,2-7.2,4.2c-1,1-2.1,2-1.9,3.5c1,0.8,1,2.2,0.8,3.4
	c0.4,1,1.9,0.7,2.7,1.2c1.7,0.9,2.8-0.9,4-1.7c2,1.2,2.3-1.6,3.7-2.1c0.7-0.2,1.3,0,1.7,0.6c0,1.9-2.4,1.4-3.3,2.7
	c-1,2-0.8,4.8,0.6,6.5c1.3-0.1,1.6,1.4,2.1,2.3c0.9,1.5,2.8,1.3,3.5,3.1c1.3,1,2.7,2.3,4.2,2.9c0.5-0.4,1-0.8,1.5-1.2
	c1.1-1.1,2.1-2.4,2.5-3.7c0.7-0.1,1.2-0.6,1.7-1c1.9-2.3,2.9-5.2,2.9-8.4C-328.9,22.6-330.8,22.5-331.9,21.2z M-330,27
	c-0.7,2.1-1.3,5-3.8,5.7c-0.5,1-1.1,2-1.8,2.9c-0.5,0.6-1,1.2-1.7,1.6c-1.4-0.8-2.7-1.9-3.7-3.1c-0.6-1.5-2.6-1-3.1-2.7
	c-0.3-0.7-0.5-1.9-1.5-2.2c-0.9,0-1-1.3-1.2-2.1c-0.6-2.3,2-2.8,3.3-4.1c0.8-0.5,0.8-1.5,0.6-2.3c-0.3-0.8-1.2-1.3-1.9-1.6
	c-1.7-0.1-2.8,1.4-3.8,2.4c-2.4-1.3-2.7,2.8-4.8,1.2c-0.5-0.1-1.4,0.2-1.4-0.6c0.3-1.4-1.4-2.3-0.7-3.7c2.1-3.7,9.4-1.5,8.5-7.3
	c-0.2-0.9-1.3-0.9-2-1.3c-1.9,0-2.4,1.7-3.8,2.4c-1.2-0.1-2.2-0.7-3.1-1.2c0.3-1.3-0.2-2.2,0.1-3.4c2.1-0.6,0.9-3.1,2.3-4.1
	c1.5-0.6,3.8,0.2,4.5-1.7c3.3-1,5.7,1.9,8.9,1.5l0.8-0.7c0.7,0.9,1.6,1.9,3,1.6c0.3-0.1,0.5-0.2,0.8-0.3c1.2-0.7,2.2-2,3.5-2.6
	c0.5,0.3,0.6,1.3,1.5,1.3c2,0.1,3.6-1.4,5.8-0.8c0.2,0.2,0.5,0.5,0.6,0.8c1.3,0.6,3,1.2,3.4,2.8c0.1,1.7,0,3.7,0.8,5.4
	c-0.7,0.4-1.5,0.7-2.4,0.6c-0.8-1-1.9-1.7-3.3-1.4c-0.7,0.1-1.3,0.8-1.6,1.5c-0.3,0.7,0,1.5,0.5,2.1c1.6,2.4,5.2,0.7,6.5,3.6
	c0.6,1.3,1.1,2.7,0.7,4.1c-1.7,0.6-3.5,2.4-5.4,0.9c-0.6,0-1,0.5-1.6,0.1c-1.6-1.5-2.7-5-5.6-3.6c-0.8,0.6-1.4,1.5-1.3,2.6
	C-332.6,23.2-328.6,24-330,27z"/>
<path fill="#FFFFFF" d="M-259.1,7.6c-0.5-0.7-1.5-0.7-2.2-1.2c0-0.6-0.7-0.5-1-0.7c-1.9-0.9-4.2-0.2-5.9-0.1
	c-1.3,0.2-2.3,1.5-3.5,1.6c-1.5,1.3-2.3,2.6-2.9,4.2c-0.3,1.6,0.6,3,0.1,4.5c-0.5,1-1.6,1.5-2.6,1.6c-3.8-0.5-6.5-5.2-10.8-3.1
	c-1.3-0.6-3,0-4.1-1c-0.2-0.6-0.1-1.4,0.3-1.7c2.4-0.5,4.7,2,7,0.3c-0.2-2,2.1-1.4,3-2.3c0.1-1.5,1.4-3.1,2.9-3.6
	c0.9-0.5,2.1-0.2,2.8-1c-2.6-2.3-6.8-2.1-10.1-1.7c-2.8-1.5-5,1.2-7.3,2.1c-0.6,0.2-1.3,0.3-1.6-0.1c0.1-0.8,0.9-0.9,1.4-1.3
	c0-1.3,0.3-2.4,0.9-3.5l-0.2-0.2c-2.1-0.5-3.8,1.1-5.9,0.4c-2.7,0.3-3.8,3.3-4.8,5.2c-0.3,0.2-0.5-0.2-0.6-0.2
	c-0.6-1.7-1.5-4.2-3.6-4.5c-2,1.2-4.1-0.5-6.4,0c-1.9,0.3-1.5,2.9-3.4,3.5c-0.7,1.6,1.3,2.3,1.3,3.7c1.2,0.7,3,0.9,3.3,2.6
	c0.1,1-0.2,1.9-1,2.6c-0.8,0.6-2,0.8-3,0.6c-0.7,0-1.7-1.2-2.2-0.1c-0.2,0.8,0.3,1.3,1.2,1.2c2.8,0.2,3.3,3.4,3.8,5.5
	c1,1.6,1.5,4.4,4,4.5c2.2-0.8,2.1,2.8,4.1,2.6c1.3-0.6,2.1,0.7,3,1.3c1.3,0.7,2.9,0,4.3-0.2c0.7-0.4,1.5,0.4,2.1-0.2
	c0.1-1.4-1.3-2.2-1.7-3.4l0.1-1.7c-0.9-1.6-3.8-0.7-4.2-3c0.3-0.3,0.3-1.2,1-1.2c2.6,1.2,4.2,4.4,7.3,4.1c1.4-1.2,3.6-0.5,4.9-1.4
	c0.1-1.6,1.9-2.4,2.3-3.8c0.1-0.8-0.8-0.9-1.3-1.5c-0.1-0.2-0.2-0.7,0.2-0.9c2.8-1.9,5.1,1.3,7.5,2.7c0.7,0.6,2,0.1,2.6,1.3
	c0.6,0.6,0.6,1.7,0.4,2.4c-0.5,0.9-1.3,1.9-2.2,2.2c-3.4,1.3-0.7-2.4-2.6-3.3c-0.7-0.2-1.6-0.1-2.1,0.5c-0.5,0.7-0.1,1.5,0,2.2
	c0.4,0.8,1.2,1.3,1.9,1.5c1.2,0.3,2.3,0.1,3.4-0.3c1.5-0.6,2.3-2.1,2.6-3.6c0.1-0.9-0.5-1.6-0.2-2.3c1.2-0.4,2.2-0.9,3.3-1.5
	c0.9,0,1.6,0.9,2.2,1.5c1.6,1.3,4,1.5,5.9,0.7c0.3-1.4,2.2-1.3,3.1-2.4c0-0.4,0-0.7,0.2-0.8c2-1.6,2.4-3.5,3.1-5.8
	C-260,9.6-259.2,8.5-259.1,7.6z M-288.8,18.3c-1.3,0.8-0.8,2.3-2,3c-1.4,0.2-2.8-0.2-4.1,0.5c-3.6,0.8-4.9-6.3-8.4-3.3
	c-0.6,0.8-1.3,1.9-0.6,2.8c0.8,1.5,2.3,2.1,3.7,2.6c-0.4,1.5,1,2.3,1.5,3.5l-3.5,0.7c-1.6-0.5-2.8-2.1-4.5-1.7
	c-1.2-1.1-1.5-2.6-3-3.1c-1,0.9-1.9-0.3-2.4-1c-1.4-2.1-1.3-5-3.3-6.6v-0.3c1.3-0.2,2.6-1,3.1-2.3c0.6-1.4,0-3-0.8-4.2l-2.1-1
	c-0.2-0.9-1.6-1.5-1.3-2.6c1.2-0.6,1.9-1.6,2.1-2.8c2.2-1,4.2,1.5,6.4,0.3c2.7,0.7,2,6.9,5.5,4.1c0.7-1.7,1.1-4.4,3.5-4.9
	c1.3,0.8,2.7-0.4,4.1-0.4c0.2,0.6,0.2,1.3,0.2,1.9c-0.7,0.6-1.7,0.9-1.9,1.9c0,0.6,0.1,1.2,0.6,1.5c3.1,1,5.2-1.9,8-2.7
	c0.9,1.9,2.6,0,4.1,0.3c1.7-0.1,3.4,0.1,5,0.6c-1.4,0.9-3.8,1.7-3.8,3.8c-1.3,0.6-3.3,0.8-3.7,2.4c-2.4,0-5.7-2.1-7.1,0.9
	c-0.2,0.9,0.2,1.6,0.8,2.3c0.8,0.6,1.8,0.7,2.8,0.8c0.2,0.5-0.5,0.8-0.1,1.4C-289.5,17.2-288.2,17.5-288.8,18.3z M-262.9,6.4
	c0.3,0.1,0.6,0.4,0.5,0.8c0,0.3-0.3,0.9-0.8,0.8c-0.3-0.1-0.6-0.4-0.6-0.7C-263.8,6.8-263.6,6.2-262.9,6.4z M-267.1,6.8
	c0.4-0.7,1.3-0.6,1.9-0.7c0.4,0.5,0.2,1.3-0.1,1.6C-265.9,7.4-267.4,8.1-267.1,6.8z M-266.8,11.3c-0.9-0.3-2.3,0-2.9-0.8
	c0.8-1.3,2.2-1.4,3.6-1.4C-266,9.9-266.4,10.6-266.8,11.3z M-268.3,7c0.6,1.3-1.2,1.2-1.7,1.9c-0.2-0.1-0.2-0.5-0.2-0.8
	C-269.7,7.4-269.2,7.1-268.3,7z M-271.5,9.1l0.4,1.2c0.6,1.5-1.4,1.5-2,2.2C-273.4,11.1-272.7,9.8-271.5,9.1z M-272,16.2
	c-1-0.1-0.7-1.3-0.8-1.9c0.9-1.9,3.3-2.4,5.1-1.7l-0.6,1.5C-268.8,15.7-270.4,16.1-272,16.2z M-267.3,18.2l-1.2,0.1
	c-0.7-0.2-1.9-0.2-2-1l2.3-0.7C-267.9,17-266.9,17.5-267.3,18.2z M-265.9,12.6l0.8,0.1c0.7,0.2,0.6,0.8,0.2,1.3
	c-0.5,0.8-1.3,1.5-2.3,1.5C-267.1,14.3-266.1,13.6-265.9,12.6z M-266,17.1c-0.3-0.8,1-1.2,1.6-1.4c0.3,0.1,0.6,0.6,0.6,0.8
	C-264.5,16.9-265.3,17.5-266,17.1z M-265.1,11.2c0.2-0.6,0.2-1.4,0.6-2c0.6-0.2,1.2,0.1,1.7,0.3c0,0.8-0.5,1.4-0.9,2.1
	C-264.1,11.6-264.7,11.5-265.1,11.2z M-263,15.1l-0.3-0.3c-0.5-0.8,0.5-1.5,0.7-2.1c0.5,0.1,0.8,0.2,1.2,0.6
	C-261.6,14.2-262.3,14.6-263,15.1z M-261,11.9c-0.2-0.2-1-0.1-0.7-0.7c0-0.7,0.8-1.5,1.5-0.8C-260.3,10.9-260.3,11.8-261,11.9z
	 M-259.9,8.3c0,0.4-0.3,0.6-0.7,0.6c-0.3-0.2-0.6-0.3-0.6-0.7c-0.1-0.6,0.4-0.7,0.7-0.6C-260.2,7.7-259.8,7.9-259.9,8.3z"/>
<path fill="#FFFFFF" d="M-367.5,15.3c-1.5,1.5-1.5,4-2.2,5.7l0.5-0.4l1.7-4c0.6-1.4,2.4-0.6,3.6-1c0.2-0.2,0.1-0.6-0.1-0.9
	c-0.9-0.5-2.2-0.5-3.1-1.2c-2.8-3.1,1.4-5.7,2.1-8.4c-1.3,1.9-3.6,3.1-4.2,5.2c-0.5,0.6,0.3,1.5-0.4,1.7c-0.9-0.6-2-0.9-2.9-1.4
	c-2.3-0.5-2.7-3.1-4.1-4.3l0.9,2.4l-0.2,0.3c-2.7-0.7-6.1-0.5-8.5-0.9c3.4,1.2,7.2,1.2,10.1,3c-2.6,0.9-4.5,3.4-6.3,5.1
	c1.9-0.8,3.4-2.7,5.2-3.6C-372.4,11.3-369.6,13.7-367.5,15.3z"/>
<path fill="#FFFFFF" d="M-333.3,14.1c-0.7-0.6-1.5-1.2-2.3-1.8c-1.3-1.2-2.5-2.5-2.2-4.4c0.8,0.1,1.5,0.1,2.2-0.1
	c2.6-0.6,4.6-2.6,7.7-1.8c-2.8-1.1-5.2,0.2-7.7,0.6c-0.6,0.1-1.1,0.1-1.7,0.1c-0.9-0.2-1.4-0.9-1.7-1.7c-1.5-0.8-0.6,1.3-1.5,1.5
	c-3.6,0.9-7.3-2-10.3,0.1c4-1.2,7.1,2.3,11.2,1c1.6,2.6-1.9,4-3.1,5.7c-1.4,1.2-3.3,1.6-4.2,2.9c1.6-1.3,3.7-1.6,5.6-2.7
	c0.9-0.5,1.7-1.6,2.8-2c0.3,2.3-0.5,4.4-0.7,6.6c-1,4,0.8,7.6,2,11c-0.2-2.7-1.1-5.2-1.2-8c-0.1-2.9,1.1-5.2,1.4-8
	c0.5,0.4,1,0.8,1.5,1.1c2.5,1.5,5.4,1.7,8.2,2.3L-333.3,14.1z"/>
<path fill="#FFFFFF" d="M-300.1,9.7l-0.4-0.2c0.2-0.8,0.7-1.9,0.6-2.6c-1,1-1.2,2.6-2.3,3.6c-1.5,0.6-3.1,1.4-4.7,1.9
	c0.2-2.2-1.3-4-3-5.2c-0.5-0.5-0.7-1.3-1.4-1.5c0.6,2.2,3.4,3.5,3.1,6.1c-0.1,0.9-0.2,2-1.3,2.4c-0.9,0.7-2.6,0.3-3,1.4
	c0.5,1.2,1.7,0.2,2.7,0.6c2.3,0.9,1.3,4,3.4,5.2c-0.7-1-0.7-2.4-0.9-3.6c-0.2-0.9-1.1-1.5-1.4-2.2l3-2c2.2-1.6,4.9-0.1,6.8,1
	c1.3,0.6,2.1,2.2,3.5,2.4c-1.7-1.7-4.2-4.2-6.4-5.5c2.8-2,6.6-1.6,9.8-2.9C-294.7,9-297.4,9.4-300.1,9.7z"/>
<path fill="#FFFFFF" d="M-297.9,37.7c-0.2,0.4,0,0.6,0.2,0.8c0.1,0.5,0,0.8-0.4,1.2c-1,0.6-2.6,0.5-3.7,0.1
	c-0.9-0.9-2.6-1.9-2.8-3.3c1.4-0.7,3.5-1.2,3.8-3c0.1-5.7-6.8-1.8-9.6-3.8c-1.5-2.6-2.9-6.6-6.6-6.8c-0.2,0.3-0.5,0.6-0.4,1
	c0.1,0.6,0.7,0.7,1.2,0.8c4,1,3.5,7.1,8.2,6.6c2,0,4.7-1.3,6.2,0.6c0.2,0.5,0.3,1.3,0.1,1.7c-0.7,1.3-2,1.5-3.1,1.9
	c-0.8-0.4-0.9-1.3-1.5-2c-0.8-0.8-2.1-1.6-3.3-1c-0.5,0.5-0.5,1-0.3,1.6c0.7,1.9,2.8,2,4.5,2.6c0.3,1.4,1.6,2.7,2.9,3.6
	c1.6,0.6,4.1,0.6,5.5-0.6c0.2-0.6,0.5-1.4,0-1.9C-297.2,37.6-297.7,37.5-297.9,37.7z"/>
<path fill="#FFFFFF" d="M-313.1,34.5l0.5-0.7c-0.6-1.5-2.1-2.9-2.1-4.5c-1.6-1.7-3.4-3.3-5.8-3.1c-1.2,0.2-2.3,1-3.6,0.7
	c-0.8-0.4-1.2-2.6-2.3-1.5c0.2,1.1,1.4,2.1,0.6,3.1c-0.1,0.8-1.3,0.9-1.6,1.9c-1.6,2-1.3,5-0.9,7.6c0.9,1.3,1.4,3,2.6,4.3
	c1,0.1,1.6,1.4,2.6,1.9c1.5,1.6,3.6,1,5.4,1.9c0.2,0.1,0.4-0.2,0.5-0.3l2.7,0.5l1.2-2.7c0.6,0.2,0.7-0.7,0.8-1.2l0.2-2.7
	c0.7,0,0.5-0.7,0.5-1.2C-312.2,37-312.4,35.7-313.1,34.5z M-316,31.3c0.7,0.6,1.4,1.5,1.6,2.4L-315,34c-0.7-0.6-0.9-1.4-1.4-2.1
	C-316.7,31.5-316.3,31.2-316,31.3z M-316.7,29.8c-0.7,0.5-1.5,0.7-2.3,0.9c-0.7-0.7-1.4-2-2.1-2.9
	C-319.4,27.3-317.6,28.5-316.7,29.8z M-317.1,36.5c-0.6,0.2-1-0.1-1.5-0.2c-0.6-0.1-0.9-0.7-0.7-1.3c0.4-0.9,0-2.1,0.6-2.9
	c0.5-0.2,0.7,0.3,1,0.5C-316.9,33.6-316.6,35.2-317.1,36.5z M-327.5,35.1c-0.1-1.4,0-3.3,1.3-4c0.2,1.1,0.6,2.1,1.1,3
	c-0.4,0.9-1.4,1.5-2.1,1.9L-327.5,35.1z M-325.5,40.1c-0.3-0.8-1-1.4-1-2.4c0-0.2,0.2-0.5,0.5-0.5c0.8,0.6,0.9,1.5,1.3,2.2
	C-325.1,39.8-325.3,40.3-325.5,40.1z M-321.9,43.4c-0.9-0.5-2.2-1.3-2.2-2.4c0.9-1,1.9,0.6,3,0.5C-321.1,42.2-321.6,42.8-321.9,43.4
	z M-321.3,39.7c-1.7-0.3-3-1.9-3.4-3.5c0.8-1.9,2.2,0.2,3.4,0.1C-320.5,37.2-320.9,38.6-321.3,39.7z M-321,34.9l-2.1-0.9
	c-1.4-1.1-2.1-2.7-1.9-4.4c0.4-0.6,0.7-1.4,1.4-1.4c0.7,0.1,1.4,0.6,1.9,1.2C-320.6,30.8-320.2,33.1-321,34.9z M-318.1,43.4
	c-0.2,0.3-0.3,1.2-1,0.9c-0.3,0-1,0-1.2-0.6c0.4-0.5,0.2-1.4,1-1.3C-318.8,42.7-318,42.7-318.1,43.4z M-319.9,40.4
	c0.1-0.8,0.2-1.6,0.6-2.3c0.7-0.6,1.6,0.1,2.4,0.3c0.4,1.1,0,2.1-0.2,3C-318.2,41.7-319.1,41-319.9,40.4z M-316.4,44.6
	c-0.2-0.2-0.7-0.2-0.6-0.7c-0.2-0.6,0.3-0.7,0.7-0.8c0.4,0,0.8,0.1,0.9,0.5C-315.7,44-315.6,44.8-316.4,44.6z M-314.5,41.8
	c-0.5,0.2-0.9,0-1.3-0.1c0-0.5-0.1-0.8,0-1.3c-0.1-0.8,0.8-0.8,1.4-0.7C-313.9,40.3-314.1,41.2-314.5,41.8z M-315.3,38.2
	c-1-0.7,0-2.1,0-3c1.6-0.5,1.2,1.6,1.6,2.4C-313.9,38.3-314.8,37.8-315.3,38.2z"/>
<g>
	<path fill-rule="evenodd" clip-rule="evenodd" fill="#FFFFFF" d="M-336,187.1l4.8,15.2c5,0.2,10.2-0.2,15.3,0
		c0.6,0.2,1.2,0.8,1.4,1.4c0.7,2.3-2,2.9-3.1,4.1c-3.1,2.5-6.5,4.8-9.4,7.5l4.6,15.1c0.1,0.8-0.3,1.7-1.1,2.2
		c-0.7,0.4-1.7,0.4-2.4-0.1l-12-8.8c-4.3,2.8-8.4,6.3-12.8,9.1c-0.6,0.3-1.3,0.1-1.8-0.2c-0.8-0.5-1.1-1.2-1.2-2
		c1.5-5.2,3.1-10.3,4.7-15.4l-12.3-9.5c-0.3-0.6-0.6-1.5-0.2-2.2c0.2-0.6,0.7-1,1.2-1.2c5-0.2,10.1,0.1,15.3,0l5-15.6
		c0.4-0.6,1.1-0.9,1.8-0.9C-337.2,185.8-336.3,186.3-336,187.1L-336,187.1z"/>
	<path fill-rule="evenodd" clip-rule="evenodd" fill="#FD0013" d="M-317,204.4l-12.8,9.9c1.6,5.4,3.4,10.7,5,16.1l-13.3-9.7
		l-13.3,9.7c1.6-5.4,3.5-10.7,5-16.2c-4.2-3.3-8.5-6.5-12.8-9.8h15.8c1.9-5.3,3.3-10.7,5.1-16.1l5.1,16.1H-317L-317,204.4z"/>
	<path fill-rule="evenodd" clip-rule="evenodd" fill="#FFFFFF" d="M-230.2,261.1c-1.3,0.7-2.7,1.8-3.5,3.1c-1.8,2.7-2.4,6.8-0.9,9.7
		c1,1.9,2.4,3.8,4.4,4.6l-6.3,22.2l-0.6,0.3l-36.6,7.7v-8.8h-130.7v8.8l-37.1-7.8c-2.4-7.4-4.4-14.8-6.5-22.3
		c3.8-1.9,5.6-6,5.2-10.1c-0.6-2.9-2.3-6.1-5.2-7.3l6.4-22.3l37.2-7.9v8.7h130.7v-8.8l37,7.8L-230.2,261.1L-230.2,261.1z"/>
	<path fill-rule="evenodd" clip-rule="evenodd" fill="#231F20" d="M-406.7,297.5l135.3,0c0.3,2.6-0.1,5.4,0,8l32.5-6.6l0.4-0.3
		c1.9-6.3,3.6-12.6,5.3-18.8c-2.6-2.1-4-4.9-4.5-8c-0.6-4.7,1-9.1,4.5-12l-5.4-18.9l-32.8-6.8v8.2l-135.3,0v-8.2l-32.9,7l-5.3,18.8
		c2.3,1.7,3.6,4.1,4.3,6.7c1.3,4.9-0.4,10.3-4.3,13.3l5.3,19l32.9,6.8V297.5L-406.7,297.5z"/>
	<path fill-rule="evenodd" clip-rule="evenodd" fill="#FFFFFF" d="M-268.9,237.2l28.4,5.8l4.7,15.9c-3.7,3.8-5.2,9.4-3.9,14.6
		c0.7,2.7,1.7,5.2,3.9,7.2l-4.5,16.1l-28.6,5.8v-7.5l-140.2,0c-0.3,2.5,0.1,5.1,0,7.4l-28.4-5.6l-0.3-0.4l-4.4-15.6
		c4-4.2,5.5-10.6,3.5-16.1c-0.7-2.2-1.8-4.1-3.5-5.8l4.6-15.9l3.8-0.9l24.7-5v7.5l140.2,0V237.2L-268.9,237.2z"/>
	<polygon fill-rule="evenodd" clip-rule="evenodd" fill="#231F20" points="-266.4,244.8 -266.4,240.2 -244.3,244.8 -266.4,244.8 	
		"/>
	<path fill-rule="evenodd" clip-rule="evenodd" fill="#231F20" d="M-411.6,244.8h-22.1c7.4-1.6,14.7-3.1,22.1-4.5V244.8
		L-411.6,244.8z"/>
	<path fill-rule="evenodd" clip-rule="evenodd" fill="#231F20" d="M-241.8,247.3c1.2,3.6,2.3,7.3,3.1,11c-4.2,5.3-5.2,13.5-2.2,19.7
		c0.6,1.2,1.3,2.4,2.3,3.3l-3,11.1l-194.8,0.1l-3-11c3.9-4.9,5.3-12.5,2.7-18.6c-0.7-1.7-1.5-3.2-2.7-4.7l3-11.1H-241.8
		L-241.8,247.3z"/>
	<path fill-rule="evenodd" clip-rule="evenodd" fill="#FFFFFF" d="M-370.1,253.6c0.8,0.8,1.1,1.7,1.1,2.7c-0.2,1-0.4,2-1.3,2.7
		c-0.9,0.9-2.2,1.2-3.4,0.9c-1-0.2-2-1-2.5-1.9c-0.7-1.3-0.6-3,0.4-4.1c0.7-0.9,1.8-1.3,2.7-1.5
		C-371.8,252.4-370.9,252.9-370.1,253.6L-370.1,253.6z"/>
	<path fill-rule="evenodd" clip-rule="evenodd" fill="#FFFFFF" d="M-309.5,253.1c0.5,0,0.6,0.6,0.8,0.9c0,4.8-0.1,9.7,0.1,14.5
		c1.6-1.4,3.2-2.7,4.5-4.3c-0.2-0.6-1-0.5-1.3-1.1c-0.1-0.8,0-1.3,0.4-1.9h9.2c0.6,0.5,0.8,1,0.5,1.8c-0.5,0.5-1.3,0.3-1.8,0.9
		c-1.7,1.6-3.5,2.7-4.7,4.7c1.8,3.7,3.7,7.4,6,10.9c0.8,0.5,2.3,0.6,2.2,1.8c-0.1,1.2-0.4,2-2.1,2h-5.6c-2.1-3.3-3.8-6.7-5.8-10
		l-1.6,1.5c-0.3,1.8-0.3,3.9,1.2,5.1c0.4,0.2,0.9,0.3,1.2,0.8c0,1,0.1,2-0.8,2.6h-10.3c-0.6-0.7-0.7-1.5-0.6-2.5
		c0.6-0.9,2-1.1,2.3-2.2v-21.2c-0.2-1.3-1.7-1.5-2.3-2.4c0-0.7-0.2-1.6,0.4-2H-309.5L-309.5,253.1z"/>
	<path fill-rule="evenodd" clip-rule="evenodd" fill="#FFFFFF" d="M-403.3,277.4c0.1,0.9-0.1,2.1,0.9,2.5c0.9,0.5,2.2,0.9,1.9,2.3
		c-0.2,0.4-0.1,0.9-0.6,1.1h-12.1c-0.8-0.5-0.4-1.5-0.4-2.3c0.7-0.7,2-0.6,2.4-1.7c0.2-3.2,0.6-6.6,0.3-9.8l-0.4-0.5h-6.3l-0.5,0.6
		c-0.3,3.3,0.1,6.6,0.3,9.8c0.6,1,1.9,0.9,2.5,1.8c-0.1,0.7,0.2,1.3-0.2,1.9l-0.5,0.2h-11.9c-0.8-0.6-0.4-1.6-0.3-2.4
		c0.8-0.7,2-0.8,2.4-1.9v-21.9c-0.6-0.9-1.7-1-2.4-1.6c-0.1-0.8-0.4-1.9,0.4-2.5h11.5c0.6,0.6,0.4,1.7,0.3,2.4
		c-0.6,0.7-1.7,0.7-2,1.7c-0.2,2.5-0.3,4.6-0.1,7.1l0.4,0.4h6.4l0.4-0.4c0.2-2.6,0.1-4.8-0.2-7.3c-0.4-1-1.6-0.8-2-1.8
		c0.1-0.7-0.2-1.6,0.5-2.1h11.5c0.8,0.6,0.5,1.8,0.3,2.6c-0.8,0.5-2.1,0.7-2.5,1.8V277.4L-403.3,277.4z"/>
	<path fill-rule="evenodd" clip-rule="evenodd" fill="#FFFFFF" d="M-380.5,265.3c0.7,1.2,1.5,2.7,0.9,4.2c-3.6,3.6-8.5,4.4-13.2,6
		c-0.3,0.4-0.2,0.9,0,1.3c1,1.6,2.7,2.8,4.6,2.7c2.7,0.1,4.7-1.8,6.8-3.4c0.9-0.3,1.5,0.4,2.1,0.9c0.4,0.4,0.4,1.1,0.2,1.6
		c-2.4,3.6-6.4,5.4-10.7,5.3c-4.5,0-8.9-3.5-10.3-7.7c-1.4-5-0.2-10.4,4-13.5c3-2.5,8.1-2.9,11.5-0.9
		C-383,262.5-381.6,263.7-380.5,265.3L-380.5,265.3z"/>
	<path fill-rule="evenodd" clip-rule="evenodd" fill="#FFFFFF" d="M-273.2,267.1c0.3,0.6,0.3,1.5,0.1,2.2c-1.7,2.3-4.3,3-6.6,4
		l-6.6,2.1c-0.5,0.3-0.3,1-0.2,1.3c0.9,1.6,2.6,2.8,4.4,2.7c2.9,0.2,5-1.6,7.1-3.4c1-0.3,1.8,0.5,2.4,1.2c-0.2,3.4-4,5.2-6.7,6.2
		c-4.9,1.5-9.6-0.3-12.8-4.1c-3-3.5-2.7-9.5-0.6-13.4c2.6-4,7.2-6.3,12-5.1C-277.5,261.4-274.3,263.9-273.2,267.1L-273.2,267.1z"/>
	<path fill-rule="evenodd" clip-rule="evenodd" fill="#FFFFFF" d="M-319.8,265.6c0.4,1,1.2,2.1,0.9,3.3c-2,3.1-5.5,3.7-8.4,5
		l-4.8,1.5c-0.5,0.3-0.2,1.1,0,1.5c0.9,1.5,2.5,2.6,4.3,2.6c2.8,0.1,4.8-1.7,6.9-3.4c1-0.4,1.9,0.4,2.5,1.1c0.3,2.6-2.5,3.9-4.1,5.1
		c-3,1.8-7.6,2.2-10.8,0.6c-3.7-1.8-6.6-5.5-6.7-9.6c-0.2-4.7,1.6-9.1,5.8-11.5c2.6-1.5,6.2-1.8,9-0.7
		C-323.1,261.9-321,263.5-319.8,265.6L-319.8,265.6z"/>
	<path fill-rule="evenodd" clip-rule="evenodd" fill="#FFFFFF" d="M-252.1,262.2c0.8,1.1,1.1,2.3,1.3,3.5v13.4
		c0.7,1.4,1.5-0.7,2.5-0.1c0.7,0.4,0.8,1.2,0.6,1.8c-0.9,1.9-2.9,2.7-4.8,2.8c-1.8-0.2-3.8-0.7-4.6-2.6c-0.8-4.6,0-9.9-0.7-14.7
		c-0.3-0.5-0.9-1-1.6-1c-1.1,0.1-2.1,0.8-2.7,1.8c-0.6,3.9-0.6,8.4,0,12.3l1.8,1.4c-0.1,0.9,0.4,1.9-0.5,2.5h-10.5
		c-0.7-0.6-0.4-1.5-0.5-2.3c0.6-0.9,2.2-1,2.3-2.3l0-13.1c0.1-1-1.1-1.6-1.7-2.3c-0.1-0.8-0.3-1.7,0.4-2.2l8,0
		c0.4,0.3,0.3,1.5,1.2,1.1C-259,260.6-254.6,259.5-252.1,262.2L-252.1,262.2z"/>
	<path fill-rule="evenodd" clip-rule="evenodd" fill="#FFFFFF" d="M-345.2,262.2c0.8,1.1,1.1,2.3,1.3,3.5v13.4
		c0.7,1.4,1.5-0.7,2.5-0.1c0.7,0.4,0.8,1.2,0.6,1.8c-0.9,1.9-2.9,2.7-4.8,2.8c-1.8-0.2-3.8-0.7-4.6-2.6c-0.8-4.6,0-9.9-0.7-14.7
		c-0.3-0.5-0.9-1-1.6-1c-1.1,0.1-2.1,0.8-2.7,1.8c-0.6,3.9-0.6,8.4,0,12.3l1.8,1.4c-0.1,0.9,0.4,1.9-0.5,2.5h-10.5
		c-0.7-0.6-0.4-1.5-0.5-2.3c0.6-0.9,2.2-1,2.3-2.3l0-13.1c0.1-1-1.1-1.6-1.7-2.3c-0.1-0.8-0.3-1.7,0.4-2.2l8,0
		c0.4,0.3,0.3,1.5,1.2,1.1C-352.2,260.6-347.7,259.5-345.2,262.2L-345.2,262.2z"/>
	<path fill-rule="evenodd" clip-rule="evenodd" fill="#FFFFFF" d="M-368.7,261.8v16.3c-0.4,1.5,1.3,2,2.1,2.7c0,0.8,0.3,1.8-0.2,2.4
		l-0.4,0.2h-10.3c-0.7-0.6-0.4-1.5-0.5-2.3c0.6-1,2.2-1,2.2-2.4l0.1-12.9c-0.1-0.9-1.2-1.3-1.8-2.1c0-0.8-0.3-2,0.5-2.5h7.9
		L-368.7,261.8L-368.7,261.8z"/>
	<path fill-rule="evenodd" clip-rule="evenodd" fill="#231F20" d="M-386.9,265.9c0.5,1,1.1,2.7,0.2,3.6c-1.7,1.2-3.6,1.7-5.6,2.1
		c-1.4-0.1-0.9-1.7-1.2-2.5c0.1-1.9,0.7-3.6,2.1-4.7C-389.9,263.7-387.5,264.1-386.9,265.9L-386.9,265.9z"/>
	<path fill-rule="evenodd" clip-rule="evenodd" fill="#231F20" d="M-281.6,264.5c1.2,1.1,1.9,2.5,1.8,4.1c-0.3,1.6-2.1,1.8-3.1,2.4
		c-1.3,0.1-2.9,1.5-3.8,0c-0.3-2.4-0.2-5,1.9-6.5C-284,264-282.6,264-281.6,264.5L-281.6,264.5z"/>
	<path fill-rule="evenodd" clip-rule="evenodd" fill="#231F20" d="M-327.7,264.5c1.4,1.2,2.1,2.8,1.8,4.5c-0.5,1.2-1.9,1.5-2.9,2
		c-1.3,0-2.9,1.6-3.9,0c-0.4-2.4-0.1-5.1,2.1-6.5C-329.9,264-328.4,264-327.7,264.5L-327.7,264.5z"/>
	<polygon fill-rule="evenodd" clip-rule="evenodd" fill="#231F20" points="-266.4,295.1 -244.1,295.1 -266.4,299.7 -266.4,295.1 	
		"/>
	<path fill-rule="evenodd" clip-rule="evenodd" fill="#231F20" d="M-411.6,299.7l-22.3-4.6c7.4-0.1,14.8,0,22.3,0V299.7
		L-411.6,299.7z"/>
	<path fill-rule="evenodd" clip-rule="evenodd" fill="#FFFFFF" d="M-249.2,258.3c2.6,0,4.8-2.1,4.8-4.8c0-2.6-2.1-4.8-4.8-4.8
		c-2.6,0-4.8,2.1-4.8,4.8C-254,256.2-251.9,258.3-249.2,258.3L-249.2,258.3z"/>
	<path fill-rule="evenodd" clip-rule="evenodd" fill="#231F20" d="M-253,253.5c0-1,0.4-2,1.1-2.7c0.7-0.7,1.7-1.1,2.7-1.1
		c1,0,2,0.4,2.7,1.1c0.7,0.7,1.1,1.7,1.1,2.7c0,2.1-1.7,3.8-3.8,3.8c-1,0-2-0.4-2.7-1.1C-252.6,255.5-253,254.6-253,253.5
		L-253,253.5z"/>
	<path fill-rule="evenodd" clip-rule="evenodd" fill="#FFFFFF" d="M-250.9,251.1h2.3c1.2,0,1.4,0.9,1.4,1.3c0,0.5-0.3,0.9-0.7,1.1
		c0.4,0.2,0.6,0.3,0.6,1.2c0,0.7,0,0.8,0.2,0.9v0.1h-1.1c-0.1-0.2-0.1-0.5-0.1-0.9c0-0.6,0-0.9-0.7-0.9h-1v1.8h-0.9V251.1
		L-250.9,251.1z M-248.8,253.2c0.5,0,0.7-0.2,0.7-0.6c0-0.2-0.1-0.6-0.7-0.6h-1.2v1.2H-248.8L-248.8,253.2z"/>
</g>
<g>
	<path fill-rule="evenodd" clip-rule="evenodd" fill="#FFFFFF" d="M-336.5,492.9l4,12.6c4.2,0.2,8.5-0.2,12.7,0
		c0.5,0.2,1,0.6,1.1,1.1c0.6,1.9-1.6,2.4-2.6,3.4c-2.6,2-5.4,4-7.8,6.2l3.8,12.5c0.1,0.7-0.2,1.4-0.9,1.8c-0.6,0.3-1.4,0.3-2-0.1
		l-9.9-7.3c-3.6,2.4-7,5.2-10.6,7.6c-0.5,0.2-1.1,0.1-1.5-0.2c-0.7-0.4-0.9-1-1-1.6c1.2-4.3,2.6-8.6,3.9-12.8l-10.2-7.9
		c-0.2-0.5-0.5-1.2-0.2-1.8c0.2-0.5,0.6-0.8,1-1c4.2-0.2,8.4,0.1,12.7,0l4.2-13c0.3-0.5,0.9-0.7,1.5-0.7
		C-337.5,491.9-336.8,492.3-336.5,492.9L-336.5,492.9z"/>
	<path fill-rule="evenodd" clip-rule="evenodd" fill="#FD0013" d="M-320.7,507.2l-10.6,8.2c1.3,4.5,2.9,8.9,4.2,13.4l-11-8.1
		l-11,8.1c1.3-4.5,2.9-8.9,4.2-13.4c-3.5-2.8-7.1-5.4-10.6-8.1h13.1c1.5-4.4,2.8-8.9,4.2-13.4l4.2,13.4H-320.7L-320.7,507.2z"/>
</g>
<path fill="#FFFFFF" d="M-367.8,553.3c1.1,0.2,2.1,0,2.9-0.7c0.7-0.6,0.9-1.4,1.1-2.2c0-0.9-0.2-1.6-0.9-2.3c-0.7-0.6-1.5-1-2.4-1
	c-0.8,0.2-1.7,0.5-2.3,1.2c-0.8,0.9-0.9,2.4-0.3,3.4C-369.4,552.4-368.6,553.1-367.8,553.3z"/>
<path fill="#FFFFFF" d="M-303.1,569.6c-1.9-2.9-3.5-5.9-5-9c1-1.6,2.5-2.6,3.9-3.9c0.4-0.5,1.1-0.3,1.5-0.7c0.2-0.7,0-1.1-0.4-1.5
	h-7.6c-0.3,0.5-0.4,0.9-0.3,1.6c0.2,0.5,0.9,0.4,1.1,0.9c-1.1,1.3-2.4,2.4-3.7,3.6c-0.2-4-0.1-8.1-0.1-12.1
	c-0.2-0.2-0.2-0.7-0.7-0.7h-6.7c-0.5,0.3-0.3,1.1-0.3,1.6c0.5,0.7,1.8,0.9,1.9,2v17.6c-0.2,0.9-1.4,1.1-1.9,1.8
	c-0.1,0.8,0,1.5,0.5,2.1h8.6c0.7-0.5,0.7-1.4,0.7-2.2c-0.2-0.4-0.7-0.5-1-0.7c-1.2-1-1.2-2.8-1-4.2l1.3-1.2c1.6,2.7,3.1,5.5,4.8,8.3
	h4.6c1.4,0,1.6-0.7,1.7-1.7C-301.2,570-302.5,570-303.1,569.6z"/>
<path fill="#FFFFFF" d="M-391.6,569.9c-0.8-0.3-0.7-1.3-0.7-2v-16.6c0.3-0.9,1.4-1.1,2-1.5c0.2-0.7,0.4-1.6-0.2-2.1h-9.5
	c-0.6,0.4-0.3,1.1-0.4,1.7c0.3,0.8,1.3,0.7,1.6,1.5c0.2,2,0.3,3.9,0.2,6l-0.3,0.3h-5.3l-0.3-0.3c-0.2-2-0.1-3.8,0.1-5.9
	c0.2-0.8,1.1-0.8,1.6-1.4c0.1-0.6,0.2-1.5-0.2-2h-9.5c-0.7,0.5-0.4,1.4-0.3,2c0.6,0.5,1.5,0.6,2,1.3v18.2c-0.3,0.9-1.3,1-2,1.5
	c-0.1,0.7-0.4,1.5,0.2,2h9.9l0.4-0.2c0.3-0.5,0.1-1,0.2-1.5c-0.5-0.7-1.5-0.7-2-1.5c-0.2-2.7-0.5-5.4-0.2-8.1l0.4-0.5h5.2l0.3,0.4
	c0.2,2.7-0.1,5.5-0.2,8.1c-0.3,0.9-1.4,0.8-2,1.4c0,0.7-0.3,1.5,0.3,1.9h10c0.4-0.2,0.3-0.6,0.5-0.9
	C-389.8,570.6-390.8,570.3-391.6,569.9z"/>
<path fill="#FFFFFF" d="M-374.1,566.6c-1.7,1.4-3.3,2.9-5.6,2.9c-1.6,0.2-3-0.9-3.8-2.2c-0.2-0.3-0.2-0.7,0-1.1
	c3.8-1.3,7.9-2,10.9-5c0.5-1.2-0.2-2.5-0.7-3.5c-0.9-1.3-2.1-2.3-3.4-3c-2.8-1.7-7-1.3-9.5,0.7c-3.5,2.6-4.5,7.1-3.3,11.2
	c1.1,3.4,4.8,6.4,8.6,6.4c3.6,0.1,6.9-1.4,8.9-4.4c0.2-0.4,0.2-1-0.2-1.3C-372.9,566.9-373.4,566.4-374.1,566.6z M-384.2,561
	c0.1-1.5,0.6-3,1.7-3.9c1.2-0.7,3.2-0.3,3.7,1.2c0.4,0.8,0.9,2.2,0.2,3c-1.4,1-3,1.4-4.6,1.7C-384.3,563-383.9,561.7-384.2,561z"/>
<path fill="#FFFFFF" d="M-285.9,566.6c-1.7,1.5-3.4,3-5.9,2.9c-1.5,0.1-2.9-1-3.7-2.3c-0.1-0.2-0.2-0.8,0.2-1.1l5.5-1.7
	c1.9-0.8,4.1-1.5,5.5-3.3c0.2-0.6,0.2-1.3-0.1-1.8c-0.9-2.7-3.6-4.7-6.2-5.4c-4-1-7.8,0.9-9.9,4.2c-1.8,3.3-2,8.2,0.5,11.2
	c2.6,3.2,6.5,4.6,10.6,3.4c2.2-0.8,5.4-2.3,5.5-5.1C-284.4,567-285,566.4-285.9,566.6z M-294.2,557.1c0.8-0.4,2-0.4,2.8,0
	c1,0.9,1.5,2,1.5,3.4c-0.2,1.3-1.7,1.5-2.6,2c-1.1,0.1-2.4,1.2-3.2,0C-296,560.5-295.9,558.3-294.2,557.1z"/>
<path fill="#FFFFFF" d="M-324.1,566.7c-1.7,1.5-3.3,2.9-5.7,2.9c-1.5,0-2.9-0.9-3.6-2.1c-0.2-0.3-0.4-1,0-1.2l4-1.2
	c2.4-1.1,5.4-1.5,7-4.2c0.2-1.1-0.4-2-0.7-2.8c-1-1.8-2.8-3.1-4.6-3.8c-2.4-0.9-5.4-0.7-7.5,0.6c-3.5,2-5,5.6-4.8,9.5
	c0.1,3.4,2.4,6.5,5.5,8c2.7,1.3,6.4,1,9-0.5c1.4-1,3.7-2.1,3.4-4.2C-322.5,567-323.2,566.4-324.1,566.7z M-333.8,562.5
	c-0.3-2-0.1-4.2,1.7-5.4c0.7-0.4,1.9-0.4,2.5,0c1.1,1,1.7,2.4,1.5,3.7c-0.4,1-1.5,1.2-2.4,1.6C-331.6,562.5-333,563.8-333.8,562.5z"
	/>
<path fill="#FFFFFF" d="M-263.8,569.1c-0.8-0.5-1.5,1.2-2,0.1v-11.1c-0.2-1.1-0.4-2-1.1-2.9c-2.1-2.3-5.8-1.3-8,0.1
	c-0.7,0.3-0.7-0.7-1-0.9l-6.6,0c-0.6,0.4-0.4,1.2-0.3,1.8c0.5,0.6,1.5,1.1,1.4,1.9l0,10.8c-0.1,1.1-1.4,1.1-1.9,1.9
	c0.1,0.7-0.2,1.4,0.4,1.9h8.7c0.7-0.5,0.3-1.4,0.4-2.1l-1.5-1.1c-0.5-3.2-0.5-6.9,0-10.2c0.5-0.8,1.3-1.4,2.2-1.5
	c0.6,0,1.1,0.4,1.3,0.8c0.6,4-0.1,8.4,0.5,12.2c0.7,1.5,2.4,2,3.9,2.1c1.5-0.2,3.3-0.8,4-2.4C-263.1,570.1-263.2,569.5-263.8,569.1z
	"/>
<path fill="#FFFFFF" d="M-341,569.1c-0.8-0.5-1.5,1.2-2,0.1v-11.1c-0.2-1.1-0.4-2-1.1-2.9c-2.1-2.3-5.8-1.3-8,0.1
	c-0.7,0.3-0.7-0.7-1-0.9l-6.6,0c-0.6,0.4-0.4,1.2-0.3,1.8c0.5,0.6,1.5,1.1,1.4,1.9l0,10.8c-0.1,1.1-1.4,1.1-1.9,1.9
	c0.1,0.7-0.2,1.4,0.4,1.9h8.7c0.7-0.5,0.3-1.4,0.4-2.1l-1.5-1.1c-0.5-3.2-0.5-6.9,0-10.2c0.5-0.8,1.3-1.4,2.2-1.5
	c0.6,0,1.1,0.4,1.3,0.8c0.6,4-0.1,8.4,0.5,12.2c0.7,1.5,2.4,2,3.9,2.1c1.5-0.2,3.3-0.8,4-2.4C-340.4,570.1-340.5,569.5-341,569.1z"
	/>
<path fill="#FFFFFF" d="M-363.6,568.4v-13.6l-0.4-0.5h-6.5c-0.7,0.4-0.4,1.4-0.4,2.1c0.5,0.7,1.4,1,1.5,1.7l-0.1,10.7
	c0,1.1-1.3,1.1-1.8,2c0.1,0.7-0.2,1.4,0.4,1.9h8.6l0.3-0.1c0.4-0.5,0.2-1.3,0.2-2C-362.6,570-364,569.6-363.6,568.4z"/>
<path fill="#FFFFFF" d="M-264.5,544.1c-2.2,0-4,1.8-4,4c0,2.2,1.8,4,4,4c2.2,0,4-1.8,4-4C-260.6,545.8-262.3,544.1-264.5,544.1z
	 M-264.5,551.2c-0.8,0-1.6-0.3-2.2-0.9c-0.6-0.6-0.9-1.4-0.9-2.2c0-0.8,0.3-1.6,0.9-2.2c0.6-0.6,1.4-0.9,2.2-0.9
	c0.8,0,1.6,0.3,2.2,0.9c0.6,0.6,0.9,1.4,0.9,2.2C-261.4,549.8-262.8,551.2-264.5,551.2z"/>
<path fill="#FFFFFF" d="M-262.9,549c0-0.7-0.2-0.8-0.5-1c0.4-0.1,0.6-0.5,0.6-0.9c0-0.3-0.2-1.1-1.2-1.1h-1.9v3.8h0.8v-1.5h0.8
	c0.6,0,0.6,0.2,0.6,0.7c0,0.4,0,0.6,0.1,0.8h0.9v-0.1C-262.9,549.7-262.9,549.5-262.9,549z M-264.2,547.7h-0.9v-1h1
	c0.5,0,0.6,0.3,0.6,0.5C-263.6,547.6-263.8,547.7-264.2,547.7z"/>
<g>
	<path fill-rule="evenodd" clip-rule="evenodd" fill="#FFFFFF" d="M-336.8,827.7l4,12.6c4.2,0.2,8.5-0.2,12.7,0
		c0.5,0.2,1,0.6,1.1,1.1c0.6,1.9-1.6,2.4-2.6,3.4c-2.6,2-5.4,4-7.8,6.2l3.8,12.5c0.1,0.7-0.2,1.4-0.9,1.8c-0.6,0.3-1.4,0.3-2-0.1
		l-9.9-7.3c-3.6,2.4-7,5.2-10.6,7.6c-0.5,0.2-1.1,0.1-1.5-0.2c-0.7-0.4-0.9-1-1-1.6c1.2-4.3,2.6-8.6,3.9-12.8l-10.2-7.9
		c-0.2-0.5-0.5-1.2-0.2-1.8c0.2-0.5,0.6-0.8,1-1c4.2-0.2,8.4,0.1,12.7,0l4.2-13c0.3-0.5,0.9-0.7,1.5-0.7
		C-337.8,826.6-337.1,827-336.8,827.7L-336.8,827.7z"/>
	<path fill-rule="evenodd" clip-rule="evenodd" fill="#FD0013" d="M-321,842l-10.6,8.2c1.3,4.5,2.9,8.9,4.2,13.4l-11-8.1l-11,8.1
		c1.3-4.5,2.9-8.9,4.2-13.4c-3.5-2.8-7.1-5.4-10.6-8.1h13.1c1.5-4.4,2.8-8.9,4.2-13.4l4.2,13.4H-321L-321,842z"/>
</g>
</svg>
