<?xml version="1.0" encoding="utf-8"?>
<!-- Generator: Adobe Illustrator 20.1.0, SVG Export Plug-In . SVG Version: 6.00 Build 0)  -->
<svg version="1.1" id="Layer_1" xmlns="http://www.w3.org/2000/svg" xmlns:xlink="http://www.w3.org/1999/xlink" x="0px" y="0px"
	 width="300px" height="1200px" viewBox="0 0 300 1200" style="enable-background:new 0 0 300 1200;" xml:space="preserve">
<style type="text/css">
	.st0{fill:none;stroke:#70706E;stroke-width:0.7484;stroke-miterlimit:10;}
	.st1{fill:#1D5983;}
	.st2{fill:#FFFFFF;}
	.st3{fill:#FFFFFF;stroke:#FFFFFF;stroke-width:2;}
	.st4{fill:#009540;}
	.st5{fill:none;stroke:#C59952;}
	.st6{fill:#00A84F;}
	.st7{fill:#C59952;}
	.st8{fill:#BF2F38;}
	.st9{fill:#D6B36A;}
	.st10{fill:#AD0F0A;}
	.st11{fill:#1D1D1B;}
</style>
<rect x="-414.7" y="0" class="st0" width="299.4" height="299.4"/>
<rect x="-414.7" y="300.6" class="st0" width="299.4" height="299.4"/>
<rect x="-414.7" y="600" class="st0" width="299.4" height="299.4"/>
<rect x="-414.7" y="899.4" class="st0" width="299.4" height="299.4"/>
<polygon class="st1" points="-299.1,1961.8 -299.1,1960.6 -299.5,1960.6 -299.5,1960.4 -298.5,1960.4 -298.5,1960.6 -298.9,1960.6 
	-298.9,1961.8 "/>
<path class="st1" d="M-299.6,1961.8v-1.4h0.3l0.3,1c0,0.1,0.1,0.2,0.1,0.2s0-0.1,0.1-0.2l0.3-0.9h0.2v1.4h-0.2v-1.1l-0.4,1.1h-0.2
	l-0.4-1.2L-299.6,1961.8L-299.6,1961.8L-299.6,1961.8z"/>
<path class="st1" d="M-299,1929.3c12.1,0,22,9.8,22,22s-9.8,22-22,22c-12.1,0-22-9.8-22-22S-311.1,1929.3-299,1929.3L-299,1929.3z
	 M-299,1932.6c-10.3,0-18.6,8.3-18.6,18.6s8.3,18.6,18.6,18.6c10.3,0,18.6-8.3,18.6-18.6S-288.7,1932.6-299,1932.6z"/>
<polygon class="st1" points="-299,1935.8 -299,1935.8 -295.6,1946.3 -284.5,1946.3 -293.5,1952.8 -290,1963.4 -299,1956.9 
	-308,1963.4 -304.5,1952.8 -313.5,1946.3 -302.4,1946.3 "/>
<g>
	<path class="st2" d="M162,1068.8h-24l-6.5-26.6c-0.9-3.6-0.7-4.2,1.7-4.2h4.7l0.1-0.2l-1.6-6.2c-0.1-0.2-0.2-0.6,0.7-1
		c1.1-0.5,3.2-1.1,4.8-1.5c2.3-0.6,5.3-1.2,8.1-1.2c4.3,0,8.7,1.2,12.8,2.6c1,0.3,0.9,0.8,0.8,1.1l-1.6,6.3c0.1,0.1,0.2,0.1,0.3,0.1
		h4.4c2.4,0,2.6,0.6,1.8,4.2L162,1068.8z"/>
	<path class="st3" d="M166.7,1038h-4.4c-0.1,0-0.2-0.1-0.3-0.1l1.6-6.3c0.1-0.3,0.1-0.8-0.8-1.1c-4.1-1.5-8.4-2.6-12.8-2.6
		c-2.7,0-5.8,0.6-8.1,1.2c-1.6,0.4-3.7,1-4.8,1.5c-0.9,0.4-0.7,0.8-0.7,1l1.6,6.2l-0.1,0.2h-4.7c-2.5,0-2.6,0.6-1.7,4.2l6.5,26.6h24
		l6.5-26.6C169.4,1038.5,169.1,1038,166.7,1038z M160.5,1066.9h-21l-6.6-27h5c0.8,0,2.3-1.2,1.9-2.5l-1.3-5.3c0,0,6.5-2.3,11.5-2.3
		l0,0c5,0,11.5,2.3,11.5,2.3l-1.3,5.3c-0.3,1.3,1.1,2.5,1.9,2.5h5L160.5,1066.9z"/>
	<g>
		<path class="st4" d="M150,1032.6c2.7,0,6,0.8,8.1,1.4l-0.7,2.7c-0.4,1.4-0.1,2.8,0.9,4s2.4,2,3.8,2h1.4l-5.2,21.4h-16.6l-5.2-21.4
			h1.4c1.4,0,2.8-0.8,3.8-2c0.9-1.2,1.2-2.6,0.9-4l-0.7-2.7C144.1,1033.3,147.4,1032.6,150,1032.6 M150,1030.6
			c-3.9,0-8.7,1.4-10.5,2l1.1,4.6c0.5,2-1.5,3.5-2.7,3.5h-4l6.2,25.4h19.7l6.2-25.4h-4c-1.2,0-3.2-1.5-2.7-3.5l1.1-4.6
			C158.8,1032,153.9,1030.6,150,1030.6L150,1030.6z"/>
	</g>
	<path class="st5" d="M160.2,1037.4l1.3-5.3c0,0-6.5-2.3-11.5-2.3l0,0c-5,0-11.5,2.3-11.5,2.3l1.3,5.3c0.3,1.3-1.1,2.5-1.9,2.5h-5
		l6.6,27h21l6.6-27h-5C161.3,1039.9,159.9,1038.7,160.2,1037.4z M159.9,1066.1h-19.7l-6.2-25.4h4c1.2,0,3.2-1.5,2.7-3.5l-1.1-4.6
		c1.8-0.6,6.6-2,10.5-2s8.7,1.4,10.5,2l-1.1,4.6c-0.5,2,1.5,3.5,2.7,3.5h4L159.9,1066.1z"/>
</g>
<g>
	<path id="path85-0" class="st2" d="M84.4,432c32.2-18.2,70.3-23.2,106.1-13.7c11.7,3.1,24,8,34.4,14.2c0.7,0.5,1.4,1.3,1.8,2.1
		c0.8,1.5,0.9,3.3,0.4,4.9c-2.3,5.5-4.7,11-6.1,16.7c-0.1,0.6-0.1,1.2,0.1,1.8c0.3,1.1,1,2,2,2.5c0.5,0.2,0.9,0.4,1.4,0.5
		c5.3,0.4,11-0.7,16.2,0.2c1.1,0.3,2,1,2.6,2c0.2,0.4,0.4,1,0.5,1.5v0.3v0.3v0.3v0.3v0.3l-0.1,0.3l-5.1,20.5H69.9l-5.1-20.5
		l-0.1-0.3v-0.3v-0.3v-0.3c0-0.4,0.1-0.8,0.2-1.3c0.3-0.9,0.9-1.7,1.7-2.2c4.6-2.5,16,1.6,19.7-1.7c0.7-0.6,1.2-1.5,1.3-2.4
		c0.1-0.4,0.1-0.9,0-1.3c-1.4-5.7-3.8-11.3-6.1-16.7C80.6,436.6,81.7,433.5,84.4,432"/>
	<path id="path97-4" d="M127.8,445.3c-0.3-1-0.4-2.2-0.3-3.3c-1.3,0.3-4.4,1.2-6,1.6c0.5,0.7,1,1.7,1.3,3.1l1.5,5.1l-5.4,1.7
		l-1.8-5.3c-0.5-1.3-0.5-2-0.6-3.1c-1.7,0.5-4.6,1.5-5.9,2c0.8,0.8,1.3,1.9,1.7,3.1l5.2,15.2c0.4,1.1,0.6,2,0.6,3.4
		c1.5-0.5,4.1-1.5,5.9-2c-0.9-1.3-1.3-2.1-1.5-2.8l-2.1-6.3l5.2-1.7l1.8,6.1c0.4,1.7,0.5,2.6,0.3,3.6c1.6-0.4,4.4-1.2,6-1.5
		c-0.7-0.8-1.1-2.1-1.4-3.3L127.8,445.3"/>
	<path id="path99-8" d="M151.5,458.5c0,1.3,0,2.6-0.5,3.6c0.8,0,1.9-0.1,3-0.1s2.3,0.1,3,0.1c-0.4-0.7-0.5-2.4-0.5-3.6v-16.4
		c0-1.2,0-1.9,0.5-3.2c-2-0.1-4.3-0.1-6.1,0c0.3,1,0.5,2.2,0.5,3.3L151.5,458.5"/>
	<path id="path101-8" d="M135.8,460.2c0.3,1.5,0.2,2.7,0,3.6c3.3-0.6,10.1-1.5,12.8-1.6l-0.4-5c0,0-1.2,0.9-3,1.1l-5,0.6l-0.7-5.4
		l3.1-0.4c1.4-0.1,2.5,0.3,2.5,0.3l-0.6-5.5c-0.3,0.2-0.6,0.5-2.4,0.7l-3.3,0.4l-0.7-4.8c0,0,2.2-0.4,5-0.7c2.2-0.3,3.4,0.2,3.4,0.2
		l-0.3-4.6c-4.8,0.4-9.2,1-14.1,1.9c0.6,1,0.8,1.9,1,3.3L135.8,460.2"/>
	<path id="path103-2" d="M160.6,458.9c-0.1,0.9-0.3,2.3-0.9,3.3c1.5,0.1,4,0.3,5.5,0.5c-0.4-1.1-0.3-2.5-0.1-3.4l1-10.4
		c0,0.1,3.8,12.7,4.5,14.5c1,0.2,3.3,0.6,4.6,0.9c-0.2-1.2-0.2-2,0-3.1l0,0l3.3-16.2c0.3-1.5,0.5-2.3,1.2-3.2
		c-1.4-0.3-4.1-0.9-5.5-1.1c0.2,0.9,0.2,1.8-0.2,3.5l-1.9,9.9l-4.4-14.3c-1.3-0.2-3.8-0.5-5.6-0.6c0.3,1.2,0.2,2.4,0.1,3.4
		L160.6,458.9"/>
	<path id="path105-4" d="M192.5,464c-0.9,0.2-2.7,0-3.7-0.3l-4.9-1.6l13.4-11.3l-0.8-4.1c-3.4-1.3-9.7-3.3-12.8-4l-1.3,4.6
		c0.8-0.3,2.5,0,3.3,0.2l6,1.8L178,460.8l0.3,4.3c3.4,0.8,9.2,2.7,12.4,3.9L192.5,464"/>
	<path id="path107-5" class="st6" d="M81.4,478.9h4.8c5.7,0,13.8,0,13.8,0c8.4,0,12.5-7.2,9.6-15.1l-7.6-20.5
		c9.4-4,29.3-11.3,52.3-11.3s42.9,7.3,52.3,11.3l-7.6,20.5c-3,7.9,1.2,15.1,9.6,15.1c0,0,8,0,13.8,0h10.4l1.3-4.4l-25.5,0.1
		c-4.4,0-7.5-3.2-5.5-9c0,0,6.3-17,9.2-24.6c-10-4.6-32.6-13.4-58-13.4s-48,8.8-58,13.4c2.9,7.6,9.2,24.6,9.2,24.6
		c2,5.9-1.3,9-5.5,9H74.4l1,4.4h6"/>
	<path id="path109-5" class="st7" d="M74.4,474.5l-1.4-5.8h23.6c2.7,0,3.6-1,2.4-4.3L89,438c6.4-3.3,33.3-16.4,65.3-16.4
		s58.9,13.1,65.3,16.4l-10,26.4c-1.3,3.3-0.4,4.3,2.4,4.3h23.6l-1.5,5.8c-1.8,0-3.5,0-6.1,0h0.1l-19.5,0.1c-4.4,0-7.5-3.2-5.5-9
		c0,0,6.3-17,9.2-24.6c-10-4.6-32.6-13.4-58-13.4s-48,8.8-58,13.4c2.9,7.6,9.2,24.6,9.2,24.6c2,5.9-1.3,9-5.5,9H80.4L74.4,474.5"/>
	<path id="path111-1" class="st8" d="M132.2,471.9c0-0.5,0-0.5-0.3-0.6h-0.1v-0.1c0.2,0,0.3,0,0.5,0h0.8c0.3,0,0.5,0,0.6,0
		c0,0.1,0.1,0.4,0.1,0.6h-0.1c-0.1-0.2-0.1-0.4-0.3-0.4c-0.1,0-0.2,0-0.4,0h-0.3c-0.1,0-0.1,0-0.1,0.2v0.9c0,0.1,0,0.1,0.1,0.1h0.2
		c0.2,0,0.3,0,0.4,0c0.1,0,0.1,0,0.1-0.2v-0.2h0.1c0,0.1,0,0.3,0,0.4c0,0.2,0,0.3,0,0.4h-0.1v-0.2c0-0.1,0-0.1-0.1-0.2
		c-0.1,0-0.2,0-0.3,0h-0.2c-0.1,0-0.1,0-0.1,0.1v0.6c0,0.2,0,0.4,0.1,0.5c0,0.1,0.1,0.1,0.5,0.1c0.3,0,0.5,0,0.5-0.1
		c0.1,0,0.2-0.2,0.3-0.4h0.1c0,0.2-0.1,0.5-0.2,0.6c-0.4,0-0.8,0-1.2,0h-0.4c-0.2,0-0.3,0-0.6,0v-0.1h0.1c0.2,0,0.3-0.1,0.3-0.6
		L132.2,471.9"/>
	<path id="path113-7" class="st8" d="M135.3,474.2c-0.4,0-0.6-0.1-0.7-0.2c-0.1-0.1-0.1-0.4-0.1-0.6h0.1c0.1,0.2,0.3,0.7,0.8,0.7
		c0.4,0,0.5-0.2,0.5-0.5c0-0.2,0-0.4-0.4-0.6l-0.4-0.3c-0.2-0.1-0.5-0.4-0.5-0.8s0.3-0.8,0.9-0.8c0.1,0,0.3,0,0.4,0.1
		c0.1,0,0.1,0,0.2,0c0,0.1,0.1,0.4,0.1,0.5h-0.1c-0.1-0.2-0.2-0.5-0.6-0.5c-0.4,0-0.5,0.3-0.5,0.5c0,0.3,0.2,0.4,0.4,0.5l0.4,0.2
		c0.3,0.2,0.5,0.4,0.6,0.8C136.2,473.9,135.8,474.2,135.3,474.2"/>
	<path id="path115-1" class="st8" d="M137.9,473.5c0,0.5,0,0.5,0.3,0.6h0.1v0.1c-0.2,0-0.4,0-0.6,0s-0.3,0-0.6,0v-0.1h0.2
		c0.2,0,0.3-0.1,0.3-0.6v-2c0-0.1,0-0.1-0.1-0.1h-0.2c-0.2,0-0.4,0-0.5,0.1s-0.1,0.2-0.2,0.3h-0.1c0.1-0.2,0.1-0.5,0.2-0.7h0.1
		c0,0.1,0.2,0.1,0.4,0.1h1.7c0.2,0,0.3,0,0.3-0.1h0.1c-0.1,0.2-0.1,0.5-0.1,0.7h-0.1c0-0.1,0-0.3-0.1-0.3c-0.1-0.1-0.3-0.1-0.5-0.1
		h-0.3c-0.1,0-0.1,0-0.1,0.2L137.9,473.5"/>
	<path id="path117-1" class="st8" d="M139.6,471.6c0-0.2,0-0.3-0.1-0.3h-0.1v-0.1c0.2,0,0.4,0,0.7,0c0.2,0,0.4,0,0.6,0.1
		c0.4,0.1,0.6,0.4,0.6,0.8s-0.2,0.7-0.5,0.8c-0.2,0.1-0.4,0.1-0.6,0.1c-0.2,0-0.3,0-0.4,0c-0.1,0-0.2,0-0.3,0v-0.1h0.1
		c0.2,0,0.2-0.1,0.2-0.3v-1 M139.8,472.6c0,0.1,0,0.2,0.1,0.3c0.1,0.1,0.2,0.1,0.3,0.1c0.5,0,0.8-0.4,0.8-0.9c0-0.3-0.1-0.8-0.9-0.8
		c-0.2,0-0.3,0-0.3,0s0,0.1,0,0.2L139.8,472.6L139.8,472.6z"/>
	<path id="path119-5" class="st8" d="M140.2,473.5c-0.2,0-0.3,0.1-0.3,0.3c0,0.2,0.1,0.3,0.3,0.3s0.3-0.1,0.3-0.3
		C140.5,473.7,140.4,473.5,140.2,473.5"/>
	<path id="path121-2" class="st8" d="M167.4,471.9c0-0.5,0-0.5-0.3-0.6H167v-0.1c0.2,0,0.3,0,0.5,0h0.8c0.3,0,0.5,0,0.6,0
		c0,0.1,0.1,0.4,0.1,0.6h-0.1c-0.1-0.2-0.1-0.4-0.3-0.4c-0.1,0-0.2,0-0.4,0h-0.3c-0.1,0-0.1,0-0.1,0.2v0.9c0,0.1,0,0.1,0.1,0.1h0.3
		c0.2,0,0.3,0,0.4,0c0.1,0,0.1,0,0.1-0.2v-0.2h0.1c0,0.1,0,0.3,0,0.4c0,0.2,0,0.3,0,0.4h-0.1v-0.2c0-0.1,0-0.1-0.1-0.2
		c-0.1,0-0.2,0-0.3,0H168c-0.1,0-0.1,0-0.1,0.1v0.6c0,0.2,0,0.4,0.1,0.5s0.1,0.1,0.5,0.1c0.3,0,0.5,0,0.6-0.1c0.1,0,0.2-0.2,0.3-0.4
		h0.1c0,0.2-0.1,0.5-0.2,0.6c-0.4,0-0.8,0-1.2,0h-0.4c-0.2,0-0.3,0-0.6,0v-0.1h0.1c0.2,0,0.3-0.1,0.3-0.6v-1.4"/>
	<path id="path123-7" class="st8" d="M170.5,474.2c-0.4,0-0.6-0.1-0.7-0.2c-0.1-0.1-0.1-0.4-0.1-0.6h0.1c0.1,0.2,0.3,0.7,0.8,0.7
		c0.4,0,0.5-0.2,0.5-0.5c0-0.2-0.1-0.4-0.4-0.6l-0.4-0.3c-0.2-0.1-0.5-0.4-0.5-0.8s0.3-0.8,0.9-0.8c0.1,0,0.3,0,0.4,0.1
		c0.1,0,0.1,0,0.1,0c0,0.1,0.1,0.4,0.1,0.5h-0.1c-0.1-0.2-0.2-0.5-0.6-0.5c-0.4,0-0.5,0.3-0.5,0.5c0,0.3,0.2,0.4,0.4,0.5l0.3,0.2
		c0.3,0.2,0.5,0.4,0.6,0.8C171.4,473.9,171.1,474.2,170.5,474.2"/>
	<path id="path125-6" class="st8" d="M173.2,473.5c0,0.5,0,0.5,0.3,0.6h0.1v0.1c-0.2,0-0.4,0-0.6,0s-0.3,0-0.6,0v-0.1h0.2
		c0.3,0,0.3-0.1,0.3-0.6v-2c0-0.1,0-0.1-0.1-0.1h-0.2c-0.2,0-0.4,0-0.5,0.1s-0.1,0.2-0.2,0.3h-0.1c0.1-0.2,0.1-0.5,0.2-0.7h0.1
		c0,0.1,0.2,0.1,0.4,0.1h1.7c0.2,0,0.3,0,0.3-0.1h0.1c0,0.2-0.1,0.5-0.1,0.7h-0.1c0-0.1,0-0.3-0.1-0.3c-0.1-0.1-0.3-0.1-0.5-0.1
		h-0.3c-0.1,0-0.1,0-0.1,0.2L173.2,473.5"/>
	<path id="path127-1" class="st8" d="M174.8,471.6c0-0.2,0-0.3-0.1-0.3h-0.1v-0.1c0.2,0,0.5,0,0.7,0s0.4,0,0.6,0.1
		c0.4,0.1,0.6,0.4,0.6,0.8s-0.2,0.7-0.5,0.8c-0.2,0.1-0.4,0.1-0.6,0.1c-0.2,0-0.3,0-0.4,0c-0.1,0-0.2,0-0.3,0v-0.1h0.1
		c0.2,0,0.2-0.1,0.2-0.3L174.8,471.6 M175.1,472.6c0,0.1,0,0.2,0.1,0.3c0.1,0.1,0.2,0.1,0.3,0.1c0.5,0,0.8-0.4,0.8-0.9
		c0-0.3-0.1-0.8-0.9-0.8c-0.2,0-0.3,0-0.3,0s0,0.1,0,0.2L175.1,472.6L175.1,472.6z"/>
	<path id="path129-4" class="st8" d="M175.5,473.5c-0.2,0-0.3,0.1-0.3,0.3c0,0.2,0.1,0.3,0.3,0.3s0.3-0.1,0.3-0.3
		C175.8,473.7,175.6,473.5,175.5,473.5"/>
	<path id="path131-2" class="st8" d="M145.4,469.3h0.2v5.4c0,0.8,0,1.1,1,1.1v0.2h-3.1v-0.2c0.9,0,1-0.1,1-0.9V471
		c0-0.7-0.1-0.9-0.5-0.9c-0.2,0-0.4,0.1-0.6,0.2l-0.1-0.2L145.4,469.3"/>
	<path id="path133-3" class="st8" d="M147.7,470.9c0-1,1.1-1.5,2.2-1.5c1.4,0,2.2,0.7,2.2,1.4c0,0.8-1,1.3-1.7,1.6
		c0.8,0.5,1.9,1.1,1.9,2.1c0,1.1-1.1,1.7-2.4,1.7c-1.9,0-2.3-1.2-2.3-1.6c0-0.8,0.9-1.4,1.6-1.8
		C148.4,472.2,147.7,471.7,147.7,470.9 M151.2,470.7c0-0.7-0.5-1.1-1.3-1.1c-0.7,0-1.4,0.4-1.4,0.9c0,0.8,1,1.2,1.6,1.6
		C150.8,471.7,151.2,471.4,151.2,470.7L151.2,470.7z M148.5,474.5c0,0.8,0.5,1.4,1.5,1.4c0.7,0,1.4-0.4,1.4-1s-0.5-1-2-2
		C148.9,473.3,148.5,473.9,148.5,474.5z"/>
	<path id="path135-2" class="st8" d="M158.5,469.5c-1.9,0-3.2,1.5-3.6,2.8c0.5-0.3,1.1-0.5,1.7-0.5c1.3,0,2.1,1,2.1,1.9
		c0,1.1-1,2.3-2.6,2.3c-1.8,0-2.6-1.5-2.6-2.7c0-2.1,2.2-4.1,4.7-4.1h0.3L158.5,469.5 M156,472.3c-0.4,0-0.9,0.2-1.2,0.4
		c-0.1,0.3-0.1,0.6-0.1,1c0,0.7,0.4,2.1,1.5,2.1c1,0,1.4-0.9,1.4-1.5C157.6,473.5,157.2,472.3,156,472.3L156,472.3z"/>
	<path id="path137-2" class="st8" d="M159.8,475.9c2,0,3.2-1.4,3.6-2.8c-0.5,0.3-1.1,0.5-1.7,0.5c-1.3,0-2.1-1-2.1-1.9
		c0-1.2,1-2.3,2.6-2.3c1.7,0,2.6,1.5,2.6,2.7c0,1.8-1.9,4.1-4.8,4.1h-0.2L159.8,475.9 M163.6,471.8c0-0.7-0.4-2.2-1.5-2.2
		c-1,0-1.4,0.9-1.4,1.6s0.3,2,1.5,2c0.4,0,1-0.2,1.3-0.4C163.6,472.4,163.6,472.1,163.6,471.8L163.6,471.8z"/>
</g>
<g>
	<path id="path85-0_1_" class="st2" d="M109.1,738c20.8-11.8,45.5-15,68.6-8.9c7.6,2,15.5,5.2,22.3,9.2c0.5,0.3,0.9,0.8,1.1,1.3
		c0.5,1,0.6,2.1,0.2,3.2c-1.5,3.5-3,7.1-3.9,10.8c-0.1,0.4,0,0.8,0.1,1.1c0.2,0.7,0.7,1.3,1.3,1.6c0.3,0.2,0.6,0.3,0.9,0.3
		c3.4,0.3,7.1-0.5,10.5,0.1c0.7,0.2,1.3,0.7,1.7,1.3c0.2,0.3,0.3,0.6,0.3,0.9v0.2v0.2v0.2v0.2v0.2v0.2l-3.3,13.2H99.7l-3.3-13.2
		v-0.2v-0.2v-0.2v-0.2c0-0.3,0-0.5,0.1-0.8c0.2-0.6,0.6-1.1,1.1-1.4c3-1.6,10.3,1,12.7-1.1c0.4-0.4,0.7-1,0.8-1.6c0-0.3,0-0.6,0-0.8
		c-0.9-3.7-2.5-7.3-3.9-10.8C106.6,741,107.4,739,109.1,738"/>
	<path id="path97-4_1_" d="M137.2,746.6c-0.2-0.7-0.3-1.4-0.2-2.1c-0.8,0.2-2.9,0.7-3.9,1c0.3,0.5,0.6,1.1,0.9,2l1,3.3l-3.5,1.1
		l-1.2-3.4c-0.3-0.8-0.3-1.3-0.4-2c-1.1,0.3-3,1-3.8,1.3c0.5,0.5,0.8,1.3,1.1,2l3.4,9.8c0.3,0.7,0.4,1.3,0.4,2.2
		c1-0.3,2.6-1,3.8-1.3c-0.6-0.8-0.8-1.3-1-1.8l-1.4-4.1l3.4-1.1l1.2,4c0.3,1.1,0.3,1.7,0.2,2.3c1-0.3,2.9-0.8,3.9-1
		c-0.4-0.5-0.7-1.3-0.9-2.1L137.2,746.6"/>
	<path id="path99-8_1_" d="M152.5,755.1c0,0.8,0,1.7-0.3,2.3c0.5,0,1.2-0.1,2-0.1c0.7,0,1.5,0,2,0c-0.3-0.4-0.3-1.6-0.3-2.3v-10.6
		c0-0.8,0-1.2,0.3-2.1c-1.3-0.1-2.8-0.1-3.9,0c0.2,0.6,0.3,1.4,0.3,2.2L152.5,755.1"/>
	<path id="path101-8_1_" d="M142.3,756.2c0.2,1,0.1,1.8,0,2.3c2.1-0.4,6.5-1,8.3-1.1l-0.2-3.3c0,0-0.8,0.6-1.9,0.7l-3.2,0.4
		l-0.5-3.5l2-0.2c0.9-0.1,1.6,0.2,1.6,0.2l-0.4-3.4c-0.2,0.1-0.4,0.4-1.5,0.5l-2.1,0.3l-0.5-3.1c0,0,1.4-0.3,3.3-0.5
		c1.4-0.2,2.2,0.1,2.2,0.1l-0.2-3c-3.1,0.3-5.9,0.7-9.1,1.3c0.4,0.7,0.5,1.2,0.7,2.2L142.3,756.2"/>
	<path id="path103-2_1_" d="M158.4,755.4c-0.1,0.6-0.2,1.5-0.6,2.1c1,0.1,2.6,0.2,3.6,0.3c-0.3-0.7-0.2-1.6-0.1-2.2l0.6-6.7
		c0,0.1,2.5,8.2,2.9,9.4c0.7,0.1,2.1,0.4,3,0.6c-0.2-0.8-0.1-1.3,0-2l0,0l2.2-10.5c0.2-0.9,0.3-1.5,0.8-2c-0.9-0.2-2.7-0.6-3.6-0.7
		c0.1,0.6,0.1,1.1-0.1,2.3l-1.2,6.4l-2.8-9.3c-0.8-0.1-2.4-0.3-3.6-0.4c0.2,0.8,0.1,1.6,0.1,2.2L158.4,755.4"/>
	<path id="path105-4_1_" d="M179,758.7c-0.6,0.1-1.7,0-2.4-0.2l-3.2-1l8.7-7.3l-0.5-2.6c-2.2-0.8-6.3-2.1-8.3-2.6l-0.8,3
		c0.5-0.2,1.6,0,2.2,0.2l3.9,1.2l-8.8,7.4l0.2,2.8c2.2,0.5,6,1.7,8,2.5L179,758.7"/>
	<path id="path107-5_1_" class="st6" d="M107.2,768.3h3.1c3.7,0,8.9,0,8.9,0c5.4,0,8.1-4.7,6.2-9.8l-4.9-13.3
		c6.1-2.6,18.9-7.3,33.8-7.3s27.8,4.7,33.8,7.3l-4.9,13.3c-1.9,5.1,0.8,9.8,6.2,9.8c0,0,5.2,0,8.9,0h6.7l0.8-2.9h-16.5
		c-2.8,0-4.8-2.1-3.6-5.8c0,0,4.1-11,5.9-15.9c-6.5-3-21.1-8.7-37.5-8.7s-31,5.7-37.5,8.7c1.9,4.9,5.9,15.9,5.9,15.9
		c1.3,3.8-0.8,5.8-3.6,5.8h-16.5l0.7,2.9H107.2"/>
	<path id="path109-5_1_" class="st7" d="M102.6,765.4l-0.9-3.8H117c1.8,0,2.3-0.6,1.5-2.8l-6.5-17.1c4.1-2.1,21.5-10.6,42.2-10.6
		s38.1,8.5,42.2,10.6l-6.5,17.1c-0.8,2.1-0.2,2.8,1.5,2.8h15.3l-1,3.8c-1.1,0-2.3,0-3.9,0h0.1h-12.6c-2.8,0-4.8-2.1-3.6-5.8
		c0,0,4.1-11,5.9-15.9c-6.5-3-21.1-8.7-37.5-8.7s-31,5.7-37.5,8.7c1.9,4.9,5.9,15.9,5.9,15.9c1.3,3.8-0.8,5.8-3.6,5.8h-12.6H102.6"
		/>
</g>
<g>
	<g>
		<path class="st2" d="M207,247.1l34-149.5c1.1-4.7-1.6-5.8-5.3-5.8H223c-2.2,0-6.6-1.2-4.6-6.5l3.7-9.6c4.8-12.6,5.7-11.4-6.1-17.1
			c-23.9-11.5-45.2-17.2-66.7-17.1c-21.4-0.1-42.8,5.6-66.7,17.1c-11.9,5.7-10.9,4.5-6.1,17.1l3.7,9.6c2,5.3-2.4,6.5-4.6,6.5H62.8
			c-3.7,0-6.4,1.1-5.3,5.8l34,149.5C130,247.1,168.5,247.1,207,247.1L207,247.1z"/>
		<path class="st9" d="M82.9,67.9l10.6,27.8c1.2,3.6,0.1,4.2-3.5,4.2H67L101.2,238h45.1h5.8h45.1l34.2-138.1h-23
			c-3.6,0-4.7-0.6-3.5-4.2l10.6-27.8C168.5,44.9,129.9,44.9,82.9,67.9L82.9,67.9z"/>
		<path class="st4" d="M89.6,70.5l10,26.1c1.9,5.1-0.4,8.4-4.2,8.4H73.7l31.5,127.4h88.1L224.8,105h-21.6c-3.9,0-6.2-3.4-4.2-8.4
			l10-26.1C168.3,51.6,130.2,51.6,89.6,70.5L89.6,70.5z"/>
		<polygon class="st2" points="105,96.6 105.1,97.3 105.2,98 105.3,98.7 105.4,99.3 105.4,100 105.4,100.7 105.3,101.4 105.2,102.1 
			105,102.8 104.9,103.4 104.6,104.1 104.4,104.7 104,105.4 103.7,106 103.3,106.5 102.8,107.1 102.4,107.6 101.9,108 101.3,108.4 
			100.8,108.8 100.2,109.1 99.6,109.4 99,109.7 98.4,109.9 97.8,110.1 97.2,110.2 96.6,110.3 95.9,110.3 95.4,110.3 80.3,110.3 
			109.2,227 189.3,227 218.1,110.3 203.1,110.3 202.5,110.3 201.9,110.3 201.3,110.2 200.6,110.1 200,109.9 199.4,109.7 
			198.8,109.4 198.2,109.1 197.6,108.8 197.1,108.4 196.6,108 196.1,107.6 195.6,107.1 195.1,106.5 194.8,106 194.4,105.4 
			194.1,104.7 193.8,104.1 193.6,103.4 193.4,102.8 193.2,102.1 193.1,101.4 193.1,100.7 193.1,100 193.1,99.3 193.1,98.7 193.2,98 
			193.3,97.3 193.5,96.6 193.7,95.9 193.9,95.2 194.1,94.6 202.2,73.3 199.4,72.1 195.7,70.7 192.1,69.3 188.5,68.1 184.9,67 
			181.3,66 177.7,65.1 174.1,64.3 170.5,63.6 167,63 163.4,62.5 159.8,62.1 156.3,61.9 152.8,61.7 149.2,61.7 145.7,61.7 
			142.1,61.9 138.6,62.1 135,62.5 131.5,63 127.9,63.6 124.4,64.3 120.8,65.1 117.2,66 113.6,67 110,68.1 106.3,69.3 102.7,70.7 
			99,72.1 96.2,73.3 104.3,94.6 104.6,95.2 104.8,95.9 		"/>
		<path class="st4" d="M130.1,191.5c1-0.2,2.4-0.8,3.4-2.7c0.5-0.9,0.7-1.3,1.5-1.7c1.6-0.9,3.8-1,5.4-1.7c1.4,0.4,2.6,0.1,3.7-0.3
			c0.9,0.3,2,0.2,2.9-0.1c0.8,0.3,1.6,0.5,2.4,0.3c0.7-0.1,1-0.1,1.6,0.1c0.7,0.2,1.5,0.2,2.3,0.1c1.3,0.8,2.4,0.8,3.6,0.6
			c3.1,1.6,7,2.1,9.9,4.6c2.7,2.3-0.2,5.7-3.8,4.8c-2.5-0.4-5.1-0.8-7.6-1.2c-0.8-0.1-1.5-0.2-2.3,0c-0.6,0.1-1,0.1-1.6-0.1
			c-0.7-0.2-1.4-0.2-1.9,0c-0.9,0.4-1.1,0.3-1.9,0.1c-0.6-0.1-1.3,0.1-2,0.5c-1.1,0.1-2.1,0.4-3.4,0.8c-2.5,0.9-4.8,0.6-6.7-0.1
			c-0.9-0.3-1.3-0.9-1.9-1.6c-0.8-0.9-1.6-0.8-2.4-0.5c-0.6,0.3-1.2,0.6-1.9,0.8C129.6,193.4,129.9,192.4,130.1,191.5L130.1,191.5z"
			/>
		<path class="st2" d="M139.4,192.9l-1.2-3.7l0.7-0.2l0.5,1.5l1.5-0.5l-0.5-1.5l0.7-0.2l1.2,3.7l-0.7,0.2l-0.6-1.7l-1.5,0.5l0.6,1.7
			L139.4,192.9L139.4,192.9z M156.9,192.2l0.2-0.6l2.2-2l-1.3-0.4l0.2-0.6l2,0.7l-0.2,0.6l-2.2,2.1l1.4,0.5l-0.2,0.6L156.9,192.2
			L156.9,192.2z M151.9,191.4l0.5-3.9l0.8,0.1l1.2,2.9l0.3-2.7l0.7,0.1l-0.5,3.9l-0.8-0.1l-1.2-2.9l-0.3,2.7L151.9,191.4
			L151.9,191.4z M148.9,191.4l0.1-3.9h0.8l-0.1,3.9H148.9L148.9,191.4z M144.5,191.7l-0.4-3.9l2.1-0.2l0.1,0.6l-1.3,0.1l0.1,0.9
			l1.2-0.1l0.1,0.6l-1.2,0.1l0.1,1.1l1.4-0.1l0.1,0.7L144.5,191.7L144.5,191.7z"/>
		<path class="st10" d="M135.4,104.5c0.1,0,0.3,0.1,0.3,0.3c0,0.1-0.1,0.3-0.3,0.3c-0.1,0-0.3-0.1-0.3-0.3
			C135.2,104.7,135.3,104.5,135.4,104.5L135.4,104.5z M134.3,102.8h-0.2c-0.1-0.2-0.1-0.4-0.2-0.5c-0.1-0.1-0.3-0.1-0.5-0.1h-0.2
			v1.9c0,0.2,0,0.4,0,0.5s0.1,0.2,0.2,0.3c0,0,0.2,0.1,0.3,0.1v0.2h-0.8h-0.8V105c0.1,0,0.1,0,0.1,0c0.1,0,0.1,0,0.2-0.1
			c0.1,0,0.1,0,0.1-0.1c0,0,0.1-0.1,0.1-0.2s0-0.3,0-0.5v-1.9h-0.2c-0.2,0-0.4,0-0.5,0.1s-0.2,0.2-0.2,0.5h-0.2l0.1-1h0.1l0.1,0.1h2
			l0.1-0.1h0.1L134.3,102.8L134.3,102.8z M131.4,104.2c0,0.3-0.1,0.5-0.3,0.7s-0.4,0.3-0.7,0.3s-0.6-0.1-0.8-0.3
			c0-0.2-0.1-0.4-0.1-0.6c0-0.1,0-0.2,0-0.2h0.2c0.1,0.3,0.2,0.5,0.3,0.7c0.1,0.1,0.3,0.2,0.5,0.2c0.1,0,0.2,0,0.3-0.1
			s0.1-0.2,0.1-0.3c0-0.2-0.1-0.4-0.4-0.6l-0.3-0.2c-0.1,0-0.1-0.1-0.2-0.2c-0.1-0.1-0.1-0.1-0.2-0.2c-0.1-0.1-0.1-0.3-0.1-0.5
			c0-0.3,0.1-0.5,0.3-0.7s0.4-0.2,0.6-0.2c0.1,0,0.2,0,0.3,0s0.2,0.1,0.3,0.2v0.3v0.4H131c0-0.3-0.1-0.5-0.2-0.6
			c-0.1-0.1-0.2-0.2-0.3-0.2s-0.2,0-0.3,0.1s-0.1,0.2-0.1,0.3c0,0.1,0,0.2,0.1,0.3c0.1,0.1,0.1,0.2,0.2,0.2l0.4,0.3
			c0.2,0.1,0.3,0.2,0.4,0.4C131.4,103.9,131.4,104.1,131.4,104.2L131.4,104.2z M129.2,104.1c0,0.1,0,0.2,0,0.3c0,0.1,0,0.2,0,0.3
			c0,0.1-0.1,0.3-0.1,0.5h-0.6h-1.7V105c0.2,0,0.3-0.1,0.4-0.1c0.1-0.1,0.1-0.2,0.1-0.4v-1.7c0-0.1,0-0.2,0-0.3
			c0-0.1-0.1-0.2-0.2-0.2s-0.1,0-0.2,0v-0.2h0.5h1.8v0.4c0,0,0,0.1,0,0.2s0,0.2,0,0.2H129c0-0.2,0-0.4-0.1-0.5s-0.2-0.1-0.5-0.1H128
			v1.1h0.3c0.1,0,0.2,0,0.2,0c0.1,0,0.1,0,0.2-0.1c0.1,0,0.1-0.2,0.1-0.3h0.2v1.2h-0.2c0-0.2,0-0.3-0.1-0.3
			c-0.1-0.1-0.2-0.1-0.4-0.1H128v0.7c0,0.2,0,0.4,0.1,0.4c0.1,0.1,0.2,0.1,0.5,0.1c0.2,0,0.4-0.1,0.5-0.2s0.2-0.3,0.2-0.6
			L129.2,104.1L129.2,104.1z M136.5,103c0,0.3-0.1,0.6-0.3,0.8c-0.2,0.2-0.5,0.3-0.8,0.3H135h-0.5V104c0.1,0,0.2,0,0.3-0.1
			c0,0,0.1-0.1,0.1-0.3v-1.1c0-0.1,0-0.2-0.1-0.3c0,0-0.1-0.1-0.2-0.1V102h0.5h0.3c0.4,0,0.7,0.1,0.9,0.3
			C136.3,102.4,136.5,102.6,136.5,103L136.5,103z M135.1,102.1v1.4c0,0.2,0,0.3,0.1,0.3c0,0.1,0.1,0.1,0.3,0.1s0.4-0.1,0.5-0.3
			c0.1-0.2,0.2-0.3,0.2-0.6c0-0.3-0.1-0.6-0.3-0.7C135.6,102.1,135.4,102.1,135.1,102.1L135.1,102.1z"/>
		<path class="st10" d="M170.9,104.5c0.1,0,0.3,0.1,0.3,0.3c0,0.1-0.1,0.3-0.3,0.3c-0.1,0-0.3-0.1-0.3-0.3
			C170.7,104.7,170.8,104.5,170.9,104.5L170.9,104.5z M169.8,102.8h-0.2c-0.1-0.2-0.1-0.4-0.2-0.5c-0.1-0.1-0.3-0.1-0.5-0.1h-0.2
			v1.9c0,0.2,0,0.4,0,0.5s0.1,0.2,0.2,0.3c0,0,0.2,0.1,0.3,0.1v0.2h-0.8h-0.8V105c0.1,0,0.1,0,0.1,0c0.1,0,0.1,0,0.2-0.1
			c0.1,0,0.1,0,0.1-0.1c0,0,0.1-0.1,0.1-0.2s0-0.3,0-0.5v-1.9H168c-0.2,0-0.4,0-0.5,0.1s-0.2,0.2-0.2,0.5h-0.2l0.1-1h0.1l0.1,0.1h2
			l0.1-0.1h0.1L169.8,102.8L169.8,102.8z M166.9,104.2c0,0.3-0.1,0.5-0.3,0.7s-0.4,0.3-0.7,0.3s-0.6-0.1-0.8-0.3
			c0-0.2-0.1-0.4-0.1-0.6c0-0.1,0-0.2,0-0.2h0.2c0.1,0.3,0.2,0.5,0.3,0.7c0.1,0.1,0.3,0.2,0.5,0.2c0.1,0,0.2,0,0.3-0.1
			s0.1-0.2,0.1-0.3c0-0.2-0.1-0.4-0.4-0.6l-0.3-0.2c-0.1,0-0.1-0.1-0.2-0.2c-0.1-0.1-0.1-0.1-0.2-0.2c-0.1-0.1-0.1-0.3-0.1-0.5
			c0-0.3,0.1-0.5,0.3-0.7s0.4-0.2,0.6-0.2c0.1,0,0.2,0,0.3,0s0.2,0.1,0.3,0.2v0.3v0.4h-0.2c0-0.3-0.1-0.5-0.2-0.6
			c-0.1-0.1-0.2-0.2-0.3-0.2s-0.2,0-0.3,0.1s-0.1,0.2-0.1,0.3c0,0.1,0,0.2,0.1,0.3c0.1,0.1,0.1,0.2,0.2,0.2l0.4,0.3
			c0.2,0.1,0.3,0.2,0.4,0.4C166.8,103.9,166.9,104.1,166.9,104.2L166.9,104.2z M164.6,104.1c0,0.1,0,0.2,0,0.3c0,0.1,0,0.2,0,0.3
			c0,0.1-0.1,0.3-0.1,0.5h-0.6h-1.7V105c0.2,0,0.3-0.1,0.4-0.1c0.1-0.1,0.1-0.2,0.1-0.4v-1.7c0-0.1,0-0.2,0-0.3
			c0-0.1-0.1-0.2-0.2-0.2c-0.1,0-0.1,0-0.2,0v-0.2h0.5h1.8v0.4c0,0,0,0.1,0,0.2s0,0.2,0,0.2h-0.2c0-0.2,0-0.4-0.1-0.5
			s-0.2-0.1-0.5-0.1h-0.4v1.1h0.3c0.1,0,0.2,0,0.2,0c0.1,0,0.1,0,0.2-0.1c0.1,0,0.1-0.2,0.1-0.3h0.2v1.2H164c0-0.2,0-0.3-0.1-0.3
			c-0.1-0.1-0.2-0.1-0.4-0.1h-0.3v0.7c0,0.2,0,0.4,0.1,0.4c0.1,0.1,0.2,0.1,0.5,0.1c0.2,0,0.4-0.1,0.5-0.2s0.2-0.3,0.2-0.6
			L164.6,104.1L164.6,104.1z M171.9,103c0,0.3-0.1,0.6-0.3,0.8c-0.2,0.2-0.5,0.3-0.8,0.3h-0.4H170V104c0.1,0,0.2,0,0.3-0.1
			c0,0,0.1-0.1,0.1-0.3v-1.1c0-0.1,0-0.2-0.1-0.3c0,0-0.1-0.1-0.2-0.1V102h0.5h0.3c0.4,0,0.7,0.1,0.9,0.3
			C171.8,102.4,171.9,102.6,171.9,103L171.9,103z M170.6,102.1v1.4c0,0.2,0,0.3,0.1,0.3c0,0.1,0.1,0.1,0.3,0.1s0.4-0.1,0.5-0.3
			c0.1-0.2,0.2-0.3,0.2-0.6c0-0.3-0.1-0.6-0.3-0.7C171.1,102.1,170.9,102.1,170.6,102.1L170.6,102.1z"/>
		<path class="st10" d="M155.2,107.2V107c0.5,0,1-0.1,1.4-0.3c0.4-0.2,0.9-0.5,1.3-1c0.4-0.5,0.7-1,0.9-1.6
			c-0.6,0.3-1.2,0.5-1.7,0.5c-0.6,0-1-0.2-1.4-0.6s-0.6-0.9-0.6-1.5s0.2-1.1,0.6-1.6c0.5-0.6,1.1-0.9,1.9-0.9c0.7,0,1.2,0.2,1.7,0.7
			c0.6,0.6,0.9,1.3,0.9,2.1c0,0.8-0.2,1.5-0.6,2.1c-0.4,0.7-1,1.2-1.8,1.6c-0.6,0.4-1.3,0.5-2.1,0.5h-0.5V107.2z M138.6,100.9
			l1.9-0.8h0.2v5.8c0,0.4,0,0.6,0.1,0.7c0,0.1,0.1,0.2,0.2,0.2c0.1,0.1,0.4,0.1,0.7,0.1v0.2h-3v-0.2c0.4,0,0.6,0,0.7-0.1
			c0.1,0,0.2-0.1,0.2-0.2s0.1-0.3,0.1-0.7v-3.7c0-0.5,0-0.8-0.1-1c0-0.1-0.1-0.2-0.1-0.2c-0.1-0.1-0.2-0.1-0.3-0.1s-0.3,0.1-0.6,0.2
			L138.6,100.9L138.6,100.9z M144.4,103.6c-0.6-0.4-1-0.8-1.2-1.1c-0.2-0.3-0.3-0.6-0.3-0.8c0-0.4,0.2-0.8,0.6-1.2
			c0.4-0.3,0.9-0.5,1.6-0.5c0.6,0,1.2,0.2,1.5,0.5c0.4,0.3,0.6,0.6,0.6,1c0,0.3-0.1,0.5-0.3,0.8s-0.6,0.6-1.3,0.9
			c0.7,0.5,1.1,0.8,1.4,1.1c0.3,0.3,0.4,0.7,0.4,1.1c0,0.5-0.2,0.9-0.6,1.2c-0.4,0.3-1,0.5-1.7,0.5c-0.8,0-1.3-0.2-1.8-0.6
			c-0.3-0.3-0.5-0.7-0.5-1.1c0-0.3,0.1-0.6,0.4-0.9C143.4,104.3,143.8,104,144.4,103.6L144.4,103.6z M145.3,103.1
			c0.5-0.4,0.8-0.7,0.9-0.9c0.1-0.2,0.2-0.5,0.2-0.7c0-0.4-0.1-0.6-0.3-0.8c-0.2-0.2-0.5-0.3-0.9-0.3s-0.7,0.1-1,0.3
			c-0.2,0.2-0.4,0.4-0.4,0.7c0,0.2,0.1,0.4,0.2,0.5c0.1,0.2,0.2,0.3,0.4,0.5L145.3,103.1L145.3,103.1z M144.7,103.8
			c-0.3,0.2-0.6,0.5-0.7,0.8c-0.2,0.3-0.2,0.6-0.2,0.9c0,0.4,0.1,0.8,0.4,1c0.3,0.3,0.6,0.4,1,0.4s0.8-0.1,1-0.3
			c0.3-0.2,0.4-0.5,0.4-0.7s-0.1-0.5-0.2-0.7C146.1,104.8,145.5,104.4,144.7,103.8L144.7,103.8z M153.7,100v0.2
			c-0.5,0-0.9,0.1-1.3,0.3c-0.3,0.1-0.6,0.3-1,0.6c-0.3,0.3-0.6,0.6-0.8,0.9s-0.4,0.7-0.5,1.2c0.6-0.3,1.1-0.5,1.7-0.5
			c0.5,0,1,0.2,1.4,0.6s0.6,0.9,0.6,1.5s-0.2,1.1-0.6,1.6c-0.5,0.6-1.1,0.9-1.9,0.9c-0.5,0-1-0.2-1.4-0.5c-0.7-0.6-1.1-1.4-1.1-2.4
			c0-0.6,0.1-1.2,0.4-1.8c0.3-0.6,0.7-1,1.2-1.5c0.5-0.4,1-0.7,1.5-0.9c0.5-0.1,0.9-0.2,1.4-0.2L153.7,100L153.7,100z M150,103.6
			c-0.1,0.5-0.1,0.8-0.1,1.1c0,0.3,0.1,0.7,0.2,1.1c0.1,0.4,0.3,0.7,0.6,0.9c0.2,0.2,0.4,0.2,0.7,0.2s0.6-0.1,0.9-0.4
			c0.3-0.3,0.4-0.7,0.4-1.2c0-0.6-0.1-1.1-0.4-1.5c-0.3-0.4-0.6-0.6-1.1-0.6c-0.1,0-0.3,0-0.5,0.1
			C150.6,103.3,150.4,103.4,150,103.6L150,103.6z M158.8,103.7c0.1-0.4,0.1-0.8,0.1-1.1c0-0.3-0.1-0.7-0.2-1.1
			c-0.1-0.4-0.3-0.7-0.5-0.9c-0.2-0.2-0.5-0.3-0.8-0.3s-0.7,0.1-0.9,0.4c-0.3,0.3-0.4,0.7-0.4,1.2c0,0.7,0.2,1.3,0.5,1.7
			c0.3,0.3,0.6,0.4,0.9,0.4c0.2,0,0.4,0,0.6-0.1C158.4,103.9,158.6,103.8,158.8,103.7L158.8,103.7z"/>
		<path class="st9" d="M139.7,206.5l1.5-4.8h1.5l1.5,4.8H143l-0.2-0.9h-1.7l-0.2,0.9H139.7L139.7,206.5z M128.4,202.2
			c-0.7,0.2-0.2-0.5,0-0.9c0.2-0.5,0.5-0.5,0.9-0.6c1,0,2.1,0,3.1,0c0.7-0.1,0.8,0.5,0.1,1.2c-1.5,1.4-2.2,3.1-2.6,4.9
			c0,0.3-0.2,0.5-0.5,0.5s-0.6,0-0.9,0c-0.4,0.1-0.4-0.1-0.3-0.6c0.3-1.7,1.7-3.3,2.9-4.8C130.1,201.9,129.1,201.9,128.4,202.2
			L128.4,202.2z M123.8,203.2c0.2-0.6,0.4-1,0.7-1.1c0.5-0.2,1.3-0.2,2.3,0.1c0.3-0.3,0.4-0.8,0.5-1.2c-0.8,0-1.6-0.1-2.3-0.1
			c-0.6-0.1-1.1,0.1-1.4,0.7c-0.5,0.7-0.9,1.4-1.4,2c-0.6,1,1.3,0.5,1.7,0.4c1.2-0.1,1.6,0.6,1.3,1.5c-0.4,1.6-2.7,1.6-2.5-0.2
			c-0.6-0.1-1.1-0.2-1.6,0.1c0.2,1.6,1.2,2.2,2.9,2.1c2.1,0,4.1-2.5,2.3-4C125.8,203.2,125.1,202.9,123.8,203.2L123.8,203.2z
			 M136.2,206.5l-1.6-4.8h1.4l0.7,3.3l0.7-3.3h1.4l-1.6,4.8h-0.5H136.2L136.2,206.5z M174.2,205c0.2,0.2,0.4,0.4,0.5,0.5
			c0.2,0.1,0.4,0.2,0.5,0.2c0.2,0,0.3,0,0.4-0.1c0.1-0.1,0.2-0.2,0.2-0.4s0-0.3-0.1-0.4c-0.1-0.1-0.3-0.2-0.6-0.3
			c-0.4-0.1-0.7-0.3-0.9-0.5s-0.3-0.5-0.3-0.8c0-0.5,0.1-0.8,0.4-1.1c0.3-0.3,0.7-0.4,1.1-0.4c0.2,0,0.5,0,0.7,0.1s0.4,0.2,0.6,0.3
			l-0.4,0.9c-0.1-0.1-0.3-0.2-0.4-0.3c-0.1-0.1-0.3-0.1-0.4-0.1c-0.1,0-0.3,0-0.4,0.1c-0.1,0.1-0.1,0.2-0.1,0.3s0,0.2,0.1,0.3
			s0.2,0.1,0.5,0.2h0.1c0.5,0.1,0.8,0.3,1,0.5c0.1,0.1,0.2,0.3,0.2,0.4c0.1,0.2,0.1,0.3,0.1,0.5c0,0.5-0.2,0.9-0.5,1.2
			s-0.7,0.5-1.2,0.5c-0.3,0-0.6-0.1-0.9-0.2c-0.3-0.1-0.5-0.3-0.7-0.5L174.2,205L174.2,205z M168.8,206.5v-4.8h2.7v1h-1.6v0.8h1.5v1
			h-1.5v0.8h1.6v1.1L168.8,206.5L168.8,206.5z M165.3,206.5v-4.8h1.2v4.8H165.3L165.3,206.5z M160.9,206.5v-3.6h-1v-1.1h3.2v1.1h-1
			v3.6H160.9L160.9,206.5z M155,206.5v-4.8h2.7v1h-1.6v0.8h1.5v1h-1.5v0.8h1.6v1.1L155,206.5L155,206.5z M151.5,206.5v-4.8h1.2v4.8
			H151.5L151.5,206.5z M145.9,206.5v-4.8h1.3c0.5,0,0.8,0,1,0.1c0.2,0,0.4,0.1,0.5,0.2c0.2,0.1,0.3,0.3,0.4,0.5
			c0.1,0.2,0.1,0.4,0.1,0.7c0,0.4-0.1,0.7-0.3,0.9s-0.4,0.4-0.7,0.5l1.2,1.9H148l-1-1.9v1.9L145.9,206.5L145.9,206.5z M147.1,204
			h0.2c0.3,0,0.5,0,0.6-0.1s0.2-0.2,0.2-0.4s-0.1-0.4-0.2-0.5c-0.1-0.1-0.3-0.2-0.6-0.2h-0.2V204L147.1,204z M141.5,204.5h1.2
			l-0.5-1.4c-0.1-0.2-0.1-0.5-0.3,0L141.5,204.5L141.5,204.5z"/>
		<path class="st11" d="M105.2,76.9l6-2c0,0.4,0.1,1.9,0.3,2.7l1.9,6.1l5.6-1.8l-1.7-6.2c-0.2-0.8-0.9-2.2-1.2-2.5l6.1-1.6
			c-0.2,1-0.2,1.7,0.1,2.8l2,7.3l0,0l2.8,10.2c0.3,1,0.6,2.4,1.4,3.1l-5.9,1.5c0-0.4,0-1.9-0.2-2.7l-2.1-7.4l-5.3,1.7l2.5,7.3
			c0.3,0.8,0.9,2.1,1.2,2.4l-6.1,1.9c0.2-1,0.2-1.9-0.2-3c-1.9-5.9-3.9-11.3-5.8-17.2C106.3,78.5,105.9,77.6,105.2,76.9L105.2,76.9z
			 M179.2,72.3l12.8,4.2l0.9,4.4l-13.3,11.8l4.8,1.7c0.8,0.3,2.7,0.5,3.8,0.1l-2,5.5c-4.3-1.7-8.4-3.1-12.4-4.2l-0.3-4.5l13.6-12
			l-6.1-2c-1.1-0.4-2.5-0.4-3.2-0.1L179.2,72.3L179.2,72.3z M157.4,68.5l5.8,0.5l4.3,15l2.1-10.9c0.2-1.1,0.2-2.2,0.1-3.1l5.6,1.2
			c-0.5,0.8-0.9,1.8-1.1,3l-3.3,17.1c-0.2,1.1-0.3,2.7-0.1,3.7c-1.4-0.4-2.9-0.7-4.6-0.9l-4.6-15l-0.3,4.1l-0.7,6.1
			c-0.2,1.8-0.1,3.4,0,4c-1.9-0.3-3.8-0.4-5.5-0.4c0.6-0.8,0.8-2,0.9-3.1l1.6-18.1C157.6,70.5,157.7,69.4,157.4,68.5L157.4,68.5z
			 M146.8,71.1c0-0.9-0.3-2.3-0.5-2.7c2,0,4,0,5.9,0c-0.2,0.4-0.5,1.8-0.5,2.7v18.7c0,1.5,0.2,2.1,0.5,2.6c-1.9-0.1-3.9,0-5.9,0.1
			c0.3-0.6,0.4-1.2,0.4-2.7V71.1H146.8z M127.2,70.5l14.2-1.9l0.4,4.8c-0.5-0.2-1.3-0.5-2.3-0.3l-6.2,0.9l0.7,4.9l3.6-0.3
			c0.9-0.1,1.6-0.4,2.2-0.8l0.6,5.8c-0.7-0.2-1.5-0.5-2.4-0.4l-3.3,0.4l0.8,5.5l4.2-0.4c1.7-0.1,2.9-0.6,3.9-1.3l0.4,5.2
			c-4.4,0.3-8.8,0.9-13.1,1.7c0.4-0.9,0.3-1.9,0.2-3l-2.7-18C128,72.3,127.7,71.3,127.2,70.5L127.2,70.5z"/>
	</g>
	<path class="st11" d="M134.6,141.5c1.5,0,3.1,0,4.6,0c-0.4-0.3-0.5-1.1-0.5-1.8v-9.1l3.9,6.9l3.9-6.9v9.1c0,0.7-0.2,1.5-0.5,1.8
		c1.5,0,3.1,0,4.6,0c-0.4-0.3-0.5-1.1-0.5-1.8c0-5.3,0-10.6,0-15.8c0-0.7,0.2-1.2,0.5-1.6c-1.2,0-2.5,0-3.7,0l-4.3,7.7l-4.3-7.7
		c-1.2,0-2.5,0-3.7,0c0.4,0.3,0.5,0.8,0.5,1.6c0,5.2,0,10.5,0,15.8C135.1,140.4,134.9,141.2,134.6,141.5z"/>
	<path class="st11" d="M125.3,141.5c4.2,0,7.6-4.4,7.6-9.7c0-5.4-3.4-9.7-7.6-9.7s-7.6,4.3-7.6,9.7
		C117.7,137.2,121.1,141.5,125.3,141.5z M125.3,125.5c2.1,0,3.8,2.8,3.8,6.2c0,3.4-1.7,6.2-3.8,6.2c-2.1,0-3.8-2.8-3.8-6.2
		C121.5,128.3,123.2,125.5,125.3,125.5z"/>
	<path class="st11" d="M156.4,140.2l0.6-3.5h4.4l0.6,3.5c0.1,0.5,0,0.9-0.1,1.2h4.4c-0.4-0.6-0.6-1.4-0.9-2.5l-3.5-14.9
		c-0.1-0.7,0-1.2,0.2-1.8h-2.9h-2.9c0.2,0.6,0.4,1.1,0.2,1.8l-3.5,14.9c-0.3,1.1-0.5,1.9-0.9,2.5h4.4
		C156.4,141.1,156.3,140.7,156.4,140.2z M159.2,127.2l1.6,6.1h-3.1L159.2,127.2z"/>
	<path class="st11" d="M116.8,122.3c-3.7,0-7.4,0-11.1,0l-0.5,4c0.5-0.5,1.2-0.8,2-0.8h2.2v14.1c0,0.7-0.1,1.5-0.5,1.8
		c1.5,0,3.1,0,4.6,0c-0.3-0.3-0.5-1.1-0.5-1.8v-14.1h2.3c0.8,0,1.5,0.4,2,0.8L116.8,122.3z"/>
	<path class="st11" d="M169.7,141.4c1.5,0,3.1,0,4.6,0c-0.3-0.3-0.5-1.1-0.5-1.8v-14.1h2.2c0.8,0,1.5,0.4,2,0.8l-0.5-4
		c-3.7,0-7.4,0-11.1,0l-0.4,4c0.5-0.5,1.2-0.8,2-0.8h2.2v14.1C170.2,140.3,170.1,141.1,169.7,141.4z"/>
	<path class="st11" d="M193.8,131.8c0-5.4-3.4-9.7-7.6-9.7s-7.6,4.3-7.6,9.7c0,5.4,3.4,9.7,7.6,9.7S193.8,137.1,193.8,131.8z
		 M186.2,137.9c-2.1,0-3.8-2.8-3.8-6.2c-0.1-3.4,1.7-6.2,3.8-6.2s3.8,2.8,3.8,6.2C190,135.1,188.3,137.9,186.2,137.9z"/>
	<path class="st11" d="M128.7,145.6l-0.4,4c0.5-0.5,1.2-0.8,2-0.8h2.2v14.1c0,0.7-0.1,1.5-0.5,1.8c1.5,0,3.1,0,4.6,0
		c-0.3-0.3-0.5-1.1-0.5-1.8v-14.1h2.2c0.8,0,1.5,0.4,2,0.8l-0.5-4C136.1,145.6,132.4,145.6,128.7,145.6z"/>
	<path class="st11" d="M180.3,147.2v10.9c0,2.5-1.2,3.2-2.5,3.2c-1.4,0-2.5-0.7-2.5-3.2l0.2-10.9c0-0.8,0.1-1.4,0.5-1.7
		c-1.5,0-3.1,0-4.6,0c0.3,0.3,0.5,1,0.5,1.7c0,1.2,0,9.5,0,10.9c0,4,1.8,6.6,6,6.6s6-2.6,6-6.6c0-1.4,0-9.7,0-10.9
		c0-0.8,0.1-1.4,0.5-1.7c-1.5,0-3.1,0-4.6,0C180.1,145.8,180.3,146.5,180.3,147.2z"/>
	<path class="st11" d="M163.9,145.6c0.3,0.3,0.5,1.1,0.5,1.8c0,1.9,0,3.8,0,5.7h-5.3c0-1.9,0-3.8,0-5.7c-0.1-0.8,0.1-1.5,0.5-1.8
		c-1.5,0-3.1,0-4.6,0c0.3,0.3,0.5,1.1,0.5,1.8c0,5.2,0,10.3,0,15.5c0,0.7-0.1,1.5-0.5,1.8c1.5,0,3.1,0,4.6,0
		c-0.3-0.3-0.5-1.1-0.5-1.8c0-2.1,0-4.1,0-6.2h5.3c0,2.1,0,4.1,0,6.2c0,0.7-0.1,1.5-0.5,1.8c1.5,0,3.1,0,4.6,0
		c-0.3-0.3-0.5-1.1-0.5-1.8c0-5.2,0-10.4,0-15.5c-0.1-0.8,0.1-1.5,0.5-1.8C167,145.6,165.4,145.6,163.9,145.6z"/>
	<path class="st11" d="M109.1,154.4l3.8-6.1c0.7-1,1.4-1.9,2.1-2.7h-4.8l-4,7.4v-5.6c0-0.7,0.1-1.5,0.5-1.8c-1.5,0-3.1,0-4.6,0
		c0.3,0.3,0.5,1.1,0.5,1.8v15.5c0,0.7-0.1,1.5-0.5,1.8c1.5,0,3.1,0,4.6,0c-0.3-0.3-0.5-1.1-0.5-1.8v-7.1l4.6,8.9h4.5
		c-0.7-0.8-2.1-3.2-2.7-4.2L109.1,154.4z"/>
	<path class="st11" d="M192.6,145.6h-6c0.3,0.3,0.5,1.1,0.5,1.8c0,5.2,0,10.3,0,15.5c0.1,0.7-0.1,1.5-0.5,1.8c1.5,0,3.1,0,4.6,0
		c-0.3-0.3-0.5-1.1-0.5-1.8c0-1.6-0.1-3.4,0-5v0.1h2.3C199.9,158,199.9,145.6,192.6,145.6z M192.5,155.1c-0.5,0.1-1.2,0.1-1.9,0.1
		c0.1-2.3,0.1-4.5,0-6.8c0.7,0,1.4-0.1,1.9,0.1c1.6,0.4,2.2,1.8,2.2,3.3S194.1,154.7,192.5,155.1z"/>
	<path class="st11" d="M121,161.5v-5.1h3c0.6,0,1,0.3,1.6,0.7v-4.5c-0.5,0.3-1,0.6-1.7,0.6H121v-4.4h3.6c0.8,0,1.5,0.3,2,0.7
		l-0.6-3.9c-1.5,0-7.6,0-9.1,0c0.3,0.3,0.5,1.1,0.5,1.8v15.5c0,0.7-0.1,1.5-0.5,1.8h9.3l0.6-3.8c-0.7,0.4-1.2,0.6-2.1,0.6H121z"/>
	<path class="st11" d="M144.3,154.8c0-6.7,5.3-7.3,8.4-4v-4.5c-6-3.4-11.6,0.9-12.1,8.1c-0.4,8.2,6.2,13.1,12.2,8.5v-4.5
		C149.8,162.5,144.3,162.3,144.3,154.8z"/>
</g>
</svg>
