<?xml version="1.0" encoding="utf-8"?>
<!-- Generator: Adobe Illustrator 18.1.0, SVG Export Plug-In . SVG Version: 6.00 Build 0)  -->
<svg version="1.1" id="Layer_1" xmlns="http://www.w3.org/2000/svg" xmlns:xlink="http://www.w3.org/1999/xlink" x="0px" y="0px"
	 width="300px" height="1200px" viewBox="-489 -200 300 1200" enable-background="new -489 -200 300 1200" xml:space="preserve">
<rect x="-52.7" y="-199.4" fill="none" stroke="#70706E" stroke-width="0.7484" stroke-miterlimit="10" width="299.4" height="299.4"/>
<rect x="-52.7" y="100.5" fill="none" stroke="#70706E" stroke-width="0.7484" stroke-miterlimit="10" width="299.4" height="299.4"/>
<rect x="-52.7" y="399.6" fill="none" stroke="#70706E" stroke-width="0.7484" stroke-miterlimit="10" width="299.4" height="299.4"/>
<rect x="-52.7" y="700" fill="none" stroke="#70706E" stroke-width="0.7484" stroke-miterlimit="10" width="299.4" height="299.4"/>
<g>
	<g>
		<path d="M-771.2,40.2l3.9-10.1h1l3.8,10.1h-1.1l-0.9-2.4h-4.7l-0.9,2.4H-771.2z M-764.7,36.9l-2-5.4c0,0,0,0-0.1,0
			c-0.1,0-0.1,0-0.1,0.1l-2,5.4h4.2V36.9z"/>
		<path d="M-672.7,33.1c-0.1-1.3-0.8-2.2-2.1-2.2c-2.5,0-2.6,3.6-2.6,4.5c0,0.8,0,4.4,2.6,4.4c1.6,0,2.1-1.3,2.3-2.4l0.9,0.3
			c-0.1,0.9-0.7,3-3.1,3c-0.5,0-1.7,0-2.7-1.4c-0.6-0.9-0.9-2.1-0.9-3.5c0-1.1,0.1-2.6,0.8-3.9c1-1.7,2.5-1.7,3-1.7
			c1.6,0,2.7,1.1,2.8,2.8L-672.7,33.1z"/>
		<path d="M-666.8,40.3c-2.1,0-2.8-1.9-2.8-3.8c0-1.8,0.8-3.7,2.9-3.7c2.2,0,2.9,2,2.9,3.8C-663.9,38.7-664.6,40.3-666.8,40.3z
			 M-666.8,33.7c-1.6,0-1.9,1.9-1.9,3.1c0,1.2,0.6,2.6,2,2.6c1.4,0,1.8-1.5,1.8-2.7C-664.9,35.5-665.2,33.7-666.8,33.7z"/>
		<path d="M-661.9,33.4l0.9-0.5v1.6c0,0.1,0,0.2,0.1,0.2c0.5-0.5,0.9-1.7,2.4-1.7c1.6,0,1.6,1.1,1.8,1.7c0,0.1,0.1,0,0.1,0
			c0.3-0.3,0.8-1.7,2.5-1.7c1.3,0,1.7,0.9,1.7,2.1v5.2h-0.9v-5.1c0-0.7-0.1-1.4-1-1.4c-1.1,0-2.3,1.6-2.3,1.7v4.7h-0.9v-5
			c0-0.7-0.1-1.5-1-1.5c-0.9,0-1.4,0.7-2.3,1.8v4.7h-0.9v-6.8H-661.9z"/>
		<path d="M-649.4,32.8v1.4v0.1l0,0c0.2-0.2,0.7-1.5,2.1-1.5c1.1,0,2.5,1,2.5,3.7c0,2.2-0.9,3.7-2.5,3.7c-1.3,0-1.9-1.2-2-1.4
			c0,0,0,0-0.1,0c-0.1,0-0.1,0.1-0.1,0.1v3.9h-1v-9.4L-649.4,32.8z M-647.4,39.4c1.4,0,1.7-1.7,1.7-2.7c0-1.2-0.2-3-1.8-3
			c-0.9,0-1.9,0.9-1.9,3C-649.4,37.9-648.7,39.4-647.4,39.4z"/>
		<path d="M-638.7,34.9c0-0.5,0-1.2-1.4-1.2c-0.8,0-1.4,0.3-2.2,0.8l-0.4-0.9c1.2-0.6,1.7-0.7,2.6-0.7c0.3,0,1.1,0,1.6,0.4
			c0.7,0.5,0.7,1.2,0.7,1.5v4c0,0.4,0.1,0.6,0.2,0.6c0.1,0.1,0.2,0.1,0.6,0.1v0.8c-0.6,0-0.9,0-1.1-0.2c-0.4-0.2-0.6-0.8-0.6-1.1
			c0-0.1,0-0.1,0-0.2l0,0l0,0c-0.7,0.8-1.4,1.4-2.6,1.4c-0.9,0-1.3-0.3-1.5-0.6c-0.4-0.5-0.5-1.1-0.5-1.3c0-1.4,1.1-2,1.6-2.2
			c1-0.4,2-0.4,3-0.4V34.9L-638.7,34.9z M-638.7,36.4c-0.8,0-1.6,0-2.3,0.3c-0.7,0.3-1.3,0.8-1.3,1.6c0,0.3,0.2,1.2,1.3,1.2
			c0.9,0,2-1,2.3-1.4V36.4z"/>
		<path d="M-635.4,33.4l0.9-0.5v1.6c0,0.1,0.1,0.1,0.1,0.1c0.3-0.2,0.9-1.7,2.5-1.7c1.4,0,1.7,1,1.7,2.2v5.1h-1v-5.1
			c0-0.7,0-1.4-0.9-1.4c-0.6,0-1.1,0.3-1.5,0.7c-0.4,0.4-0.7,0.8-0.9,1.2v4.6h-1L-635.4,33.4L-635.4,33.4z"/>
		<path d="M-628.5,41.2h0.3c0.1,0.2,0.2,0.4,0.7,0.4c1,0,1.2-1.2,1.4-1.9l-2.5-6.7h1.1l1.4,3.9c0.1,0.2,0.2,0.5,0.3,0.8
			c0.1,0.3,0.1,0.5,0.2,0.5c0.1,0,0.1-0.4,0.5-1.4l1.3-3.9h0.9l-2.6,7.4c-0.4,1.1-0.9,2.2-2.2,2.2c-0.4,0-0.6-0.1-1-0.2v-1.1H-628.5
			z"/>
	</g>
	<g>
		<g>
			<polygon fill="#231F20" points="-730.5,29.7 -730.5,29.9 -729.2,29.9 -725.5,40.7 -725.1,40.7 -722.6,33.6 -722.6,33.6 
				-720.1,40.7 -719.7,40.7 -715.9,29.9 -714.6,29.9 -714.6,29.7 -717.4,29.7 -717.4,29.9 -716.1,29.9 -718.9,37.8 -718.9,37.8 
				-721.6,29.9 -720.2,29.9 -720.2,29.7 -724.7,29.7 -724.7,29.9 -723.9,29.9 -722.7,33.3 -724.3,37.7 -724.3,37.7 -727,29.9 
				-725.9,29.9 -725.9,29.7 			"/>
		</g>
		<g>
			<path fill="#231F20" d="M-750.1,32.4h0.2v-2.7h-9.4v2.7h0.2c0.3-1,0.6-1.7,1.1-2c0.4-0.3,1-0.5,1.8-0.5h0.5v10.2h-1.4v0.2h4.9
				v-0.2h-1.4V29.9h0.5c0.8,0,1.3,0.2,1.8,0.5C-750.7,30.7-750.3,31.4-750.1,32.4L-750.1,32.4z"/>
		</g>
		<g>
			<path fill="#231F20" d="M-747.7,33.9v0.2h1v6h-1v0.2h3.7v-0.2h-0.9v-3.6c0-0.8,0.1-1.4,0.4-1.8c0.3-0.4,0.7-0.5,1.1-0.5
				c0.6,0,0.9,0.4,0.9,1.2v4.8h-0.9v0.2h3.6v-0.2h-0.9v-4.4c0-0.5,0.2-0.9,0.5-1.2c0.3-0.2,0.6-0.4,0.9-0.4c0.6,0,1,0.4,1,1.3v4.6
				h-0.9v0.2h3.7v-0.2h-1V36c0-0.6-0.1-1.1-0.3-1.4c-0.3-0.6-1-0.9-2-0.9c-0.9,0-1.6,0.4-2,1.2c-0.2-0.4-0.4-0.6-0.6-0.8
				c-0.3-0.2-0.8-0.4-1.4-0.4c-0.9,0-1.6,0.4-2.1,1.2l0,0v-1L-747.7,33.9L-747.7,33.9z"/>
		</g>
		<g>
			<polygon fill="#231F20" points="-751.7,33.9 -751.7,34.1 -750.7,34.1 -750.7,40.1 -751.7,40.1 -751.7,40.3 -747.9,40.3 
				-747.9,40.1 -748.9,40.1 -748.9,33.9 			"/>
		</g>
		<g>
			<path fill="#231F20" d="M-729.9,34.4c-0.5-0.5-1.2-0.7-2-0.7c-0.9,0-1.8,0.3-2.5,1s-1,1.4-1,2.3c0,1,0.4,1.9,1.1,2.5
				s1.6,0.9,2.6,0.9c0.8,0,1.4-0.2,1.9-0.7c0.4-0.3,0.6-0.7,0.7-1.2l-0.2-0.1c0,0.3-0.2,0.6-0.5,1c-0.4,0.5-1,0.7-1.7,0.7
				c-0.8,0-1.3-0.3-1.6-1c-0.2-0.4-0.3-1.1-0.3-2.1v-0.4h4.4C-728.9,35.6-729.2,34.9-729.9,34.4L-729.9,34.4z M-733.1,34.7
				c0.2-0.6,0.6-0.8,1.2-0.8c0.6,0,1,0.5,1,1.4v1h-2.4C-733.2,35.6-733.2,35-733.1,34.7L-733.1,34.7z"/>
		</g>
		<g>
			<path fill="#231F20" d="M-704.2,35c0-0.4-0.1-0.7-0.4-0.9s-0.6-0.3-1-0.3c-0.8,0-1.5,0.5-1.9,1.4l0,0V34h-2.8v0.2h1v6h-1v0.2h4
				v-0.2h-1.2v-3.8c0-0.6,0.2-1.1,0.5-1.5s0.5-0.5,0.8-0.5c0.2,0,0.3,0.1,0.3,0.4l-0.1,0.8c0,0.4,0.3,0.7,0.9,0.7
				C-704.5,36-704.2,35.7-704.2,35L-704.2,35z"/>
		</g>
		<g>
			<path fill="#231F20" d="M-704.4,33.9v0.2h1v6h-1v0.2h3.8v-0.2h-1v-3.2c0-0.9,0.2-1.6,0.5-2.1s0.8-0.7,1.3-0.7
				c0.6,0,0.9,0.4,0.9,1.2V40h-0.9v0.2h3.7V40h-1v-4.2c0-0.6-0.2-1.2-0.6-1.6c-0.4-0.4-0.9-0.6-1.5-0.6c-1.2,0-2,0.5-2.5,1.6l0,0
				v-1.5h-2.7V33.9z"/>
		</g>
		<g>
			<path fill="#231F20" d="M-690.4,34.4c-0.5-0.5-1.2-0.7-2-0.7c-0.9,0-1.8,0.3-2.5,1s-1,1.4-1,2.3c0,1,0.4,1.9,1.1,2.5
				s1.6,0.9,2.6,0.9c0.8,0,1.4-0.2,1.9-0.7c0.4-0.3,0.6-0.7,0.7-1.2l-0.2-0.1c0,0.3-0.2,0.6-0.5,1c-0.4,0.5-1,0.7-1.7,0.7
				c-0.8,0-1.3-0.3-1.6-1c-0.2-0.4-0.3-1.1-0.3-2.1v-0.4h4.4C-689.5,35.6-689.8,34.9-690.4,34.4L-690.4,34.4z M-692.5,33.9
				c0.6,0,1,0.5,1,1.4v1h-2.4c0-0.8,0.1-1.3,0.2-1.6C-693.4,34.2-693,33.9-692.5,33.9L-692.5,33.9z"/>
		</g>
		<g>
			<path fill="#231F20" d="M-689.1,33.9v0.2h1v6h-1v0.2h4v-0.2h-1.2v-3.8c0-0.6,0.2-1.1,0.5-1.5s0.6-0.5,0.8-0.5
				c0.3,0,0.4,0.1,0.4,0.4l-0.1,0.8c0,0.4,0.3,0.7,0.9,0.7c0.6,0,0.9-0.3,0.9-0.9c0-0.4-0.1-0.7-0.4-0.9s-0.6-0.3-1-0.3
				c-0.9,0-1.5,0.5-1.9,1.4l0,0v-1.2h-2.9V33.9z"/>
		</g>
		<g>
			<path fill="#231F20" d="M-714.2,33.7c-0.7,0-1.3,0.1-1.8,0.4c-0.5,0.3-0.8,0.7-0.8,1.2s0.3,0.8,0.9,0.8c0.6,0,0.9-0.2,0.9-0.6
				l-0.1-0.8c0-0.5,0.3-0.7,0.9-0.7c0.6,0,0.9,0.3,0.9,1v0.9c0,0.4-0.1,0.6-0.4,0.8c-0.2,0.1-0.7,0.3-1.6,0.6
				c-0.6,0.2-1.1,0.4-1.3,0.6c-0.4,0.3-0.6,0.7-0.6,1.2s0.2,0.9,0.7,1.2c0.4,0.2,0.9,0.3,1.4,0.3s0.9-0.1,1.2-0.2
				c0.3-0.1,0.5-0.4,0.7-0.8l0,0c0.1,0.7,0.7,1,1.6,1c0.7,0,1.2-0.1,1.3-0.5l-0.1-0.1c-0.2,0.2-0.4,0.3-0.6,0.3
				c-0.3,0-0.5-0.3-0.5-0.7v-3.7C-711.5,34.4-712.4,33.7-714.2,33.7L-714.2,33.7z M-713.3,36.6L-713.3,36.6v1.9
				c0,0.5-0.1,0.9-0.3,1.2c-0.2,0.3-0.4,0.4-0.7,0.4c-0.6,0-1-0.5-1-1.4c0-0.5,0.2-0.9,0.5-1.2c0.1-0.1,0.5-0.3,1.1-0.6
				C-713.5,36.8-713.4,36.7-713.3,36.6L-713.3,36.6z"/>
		</g>
	</g>
</g>
<g>
	<path fill="#231F20" d="M-718.8-110.5c0-1.3,0-1.6-1.1-1.6c-2,0-9.8,2.1-10.4,3.4c-0.8,1.4-0.7,9-0.7,11.9v1c0,2.2,0,4.3,0.1,6.4
		c3.6-0.5,7.7-0.9,12.3-1.3c-0.3-5.1-0.3-10.3-0.2-15.3C-718.9-107.5-718.8-109-718.8-110.5z"/>
	<path fill="#231F20" d="M-693.4-65c-0.3,0.5-0.3,2.7-0.2,6.4c0,0.5,0,0.9,0,1.1c0,7.9-0.1,15.9-0.1,23.6
		c-0.1,7.7-0.1,15.7-0.1,23.6c0,0.2,0,0.5,0,0.9c-0.1,1.4-0.3,4.2,0.5,5.1c0.1,0.1,0.3,0.2,0.5,0.2c0.5,0,1.1-0.3,1.5-0.6
		c0.1-0.1,0.2-0.1,0.4-0.2c28.5-17,37.2-37.6,39.6-45.6c0.5-1.3,0.7-2.6,0.7-4.5c0-1.4-0.3-3.8-1-4.5C-653.7-61.8-687.6-65-693.4-65
		z M-680.8-25.7l-0.9,0.9V-26c0.1-2.8,0.2-5.5,0.3-8.3c0.2-6.9,0.5-13.3,0.3-20v-0.9c0.7-2.5,7.1-4.3,8.9-4.3c5.5,0,8.5,2.8,8.5,7.8
		C-663.6-42.6-675.2-31.2-680.8-25.7z"/>
	<path fill="#231F20" d="M-690-91.1c3,0.1,6,0.2,8.9,0.4c0-1.9,0.1-3.8,0.1-5.6c0.1-1.9,0.1-3.9,0.1-5.8c0-0.8,0.4-1.3,1-1.3
		c1.5,0,3.9,0.6,7.1,1.9c4.7,1.9,14.5,5.9,15.2,13.3c3.9,0.5,8.1,1.3,13.2,2.6c0.3-0.9,0.4-1.8,0.4-2.8c0-3.1-1.2-6.4-3.1-8.6
		c-7.2-8.7-33.5-19.1-44.7-19.1c-1.3,0-1.6,0.3-1.7,1.4c-0.1,3.6-0.1,7.4,0,11.1c0,1.9,0,3.7,0,5.5v7
		C-692.2-91.2-691.1-91.2-690-91.1z"/>
	<path fill="#231F20" d="M-712.4-64.7v3.5c0,1,0,2,0,3c0.1,3.4,0.1,6.9-0.5,10.3l-0.2,1.1l-0.7-0.9c-1-1.3-3-14.3-3.4-16.7l-0.8-0.1
		c-3.2,0-6.6,0.5-9.9,1c-0.5,0.1-1,0.2-1.5,0.2c0,0.3,0,0.5,0.1,0.8c0,0.4,0.1,0.8,0.1,1.2c0,1.5-1.5,4-3.1,4
		c-1.5,0-2.4-3.5-2.8-5.2c-3.9,0.6-7.7,1.4-11.1,2.5c2.4,7.9,8.4,23.3,12.5,23.3c1.8,0,3-2.8,4.1-5.3c0.7-1.6,1.4-3.2,2.3-3.9
		l0.4-0.4l0.3,0.5c0.9,1.3,3.2,6.9,5.4,12.6c0.4,1,0.8,1.9,1,2.5c4.1,9.3,8.5,16.4,14.3,22.8c0.2,0.2,0.4,0.4,0.6,0.6
		c1.1,1.1,2.8,3,3.9,3c0.3,0,0.7-1.6,0.7-3.3c0-9.6,0.1-19.4,0.1-28.9c0.1-9.4,0.1-19.2,0.1-28.8c-0.7,0-1.4,0-2.1-0.1
		C-706-65.3-709.4-65.1-712.4-64.7z"/>
	<path fill="#231F20" d="M-711.4-114.2c-0.4,1-0.3,14.1-0.3,18.4v4.7c1.9,0,3.8,0,5.8-0.1c2,0,3.9-0.1,5.9-0.1
		c0.1-0.6,0.1-1.1,0.1-1.6c0-3.6,0.1-7.2,0.1-10.8c0.1-3.5,0.1-7.2,0.1-10.7c0-1.4-0.2-1.8-1.6-1.8
		C-704.4-116.1-710.7-115.5-711.4-114.2z"/>
	<path fill="#231F20" d="M-739-98.6c0-3.5-0.7-4-1.1-4c-2.5,0-7.9,3-9.3,5c-0.4,0.7-0.7,2.5-0.7,5.4c0,2,0.1,4,0.3,6.1
		c1.6-0.3,3.2-0.7,4.7-0.9c2-0.4,4.1-0.8,6.1-1.3c-0.1-2.2-0.1-4.5,0-6.7C-739.1-96.3-739-97.4-739-98.6z"/>
	<path fill="#231F20" d="M-758.9-83.8c-0.1-2.1-0.2-4.2-0.3-6.2c-0.2-3-0.4-5.9-0.4-8.7c0-1.7,0.1-3.4,0.7-4.2
		c0.7-1.4,4.2-1.7,9.1-2c1.9-0.1,3.7-0.2,4.6-0.4c0.7-0.2,1-1.6,1.2-2.9c0.3-1.7,0.6-3.6,2.1-4.2c1.1-0.4,2.5-0.4,3.4-0.4h1
		c0.3,0,0.6,0,1,0c0.4,0,0.8,0,1.2,0c1.6,0,3.7-0.1,4.9-0.6c1.4-0.5,1.8-2,2.2-3.7s0.8-3.5,2.5-4.3c2.7-1.4,25.8-4.4,29.3-4.4
		c3.3,0,25.6,3.2,28.6,4.4c1.7,0.8,2.2,2.8,2.6,4.7c0.2,1.1,0.5,2.1,0.9,2.8c0.8,1.1,4.3,1.2,7.2,1.3c2.7,0.1,5,0.1,6,0.8
		c1,0.7,1.3,2.3,1.5,3.8c0.2,1.3,0.5,2.8,1.2,3.1c0.9,0.4,3.1,0.4,5.3,0.5c3.9,0.1,7.6,0.2,8.6,1.8c0.4,0.9,0.4,2.2,0.4,3
		c0,5-0.4,10.1-0.8,15.1l-0.1,1.6c3.7,1.2,7.4,2.6,11.4,4.4c0.8-4.9,1.2-10.2,1.2-15.6c0-13.4-0.7-15.5-0.9-15.8
		c-0.7-1-5.2-1.4-8.6-1.7c-2.7-0.2-5-0.4-6.1-0.9c-1.8-0.6-2-2.2-2.2-3.5c-0.2-1.2-0.3-2.2-1.3-2.7c-1.6-0.8-3.6-0.9-5.7-1
		c-2-0.1-4-0.2-5.8-1c-2-0.8-2.5-2.7-2.9-4.5c-0.4-1.5-0.7-2.9-2-3.6c-1.7-1.1-34.5-6-37.7-6c-4.3,0-38.6,4.6-40.4,6
		c-1,0.7-1.4,2-1.7,3.5c-0.4,1.5-0.8,3.1-2.1,3.9c-1.7,1.1-4.2,1.3-6.6,1.5c-2.3,0.2-4.7,0.4-6.1,1.3c-0.6,0.5-0.8,1.6-0.9,2.7
		c-0.2,1.5-0.4,3.1-2,3.6c-0.9,0.3-2.8,0.4-4.9,0.5c-3.7,0.2-9.2,0.6-9.9,1.9c-0.2,0.3-0.7,2-0.7,12.6c0,5.3,0.1,11.7,0.8,18.2
		C-766-81.4-762.4-82.7-758.9-83.8z"/>
	<path fill="#231F20" d="M-639.9-73.9c0-1.1,0-2-1.1-2.5v4.3c0,0,0.2,0,0.4,0C-639.9-72.1-639.9-73.5-639.9-73.9z"/>
	<path fill="#231F20" d="M-674.1-80.3c0-0.7,0-2.4-1-2.6v5.2h0.2C-674.1-77.7-674.1-79.9-674.1-80.3z"/>
	<path fill="#231F20" d="M-724.6-80.5c0-0.6,0-2-0.7-2l-0.4,0.2v4.1C-724.6-78.4-724.6-79.5-724.6-80.5z"/>
	<path fill="#231F20" d="M-704.4-81.9c0-0.6,0-2-0.7-1.9h-0.3v4.1C-704.2-79.7-704.4-81-704.4-81.9z"/>
	<path fill="#231F20" d="M-712.4-81.8c0-0.6,0-1.9-0.7-1.9h-0.2v4.2C-712.4-79.5-712.4-81-712.4-81.8z"/>
	<path fill="#231F20" d="M-712.3-75.2c0-0.7,0-2.5-0.9-2.5l-0.2,0.2v4.7C-712.3-73-712.3-74.3-712.3-75.2z"/>
	<path fill="#231F20" d="M-696.7-73c1.1,0,0.9-4.3,0.9-4.9v-1.6c0-0.8,0.2-5.1-0.9-5.1c-1.1,0-1.1,4.3-1.1,4.8v1.9
		C-697.9-77.3-697.9-73-696.7-73z"/>
	<polygon fill="#231F20" points="-757.5,-72.6 -758.3,-67.8 -756.6,-68.3 	"/>
	<path fill="#231F20" d="M-748-76c0-0.4,0-1.7-0.5-1.7c-0.2,0-0.4,0-0.6,0v4.3C-748-73.8-748-74.8-748-76z"/>
	<path fill="#231F20" d="M-619.6-74.8c-6.9-3.4-13.5-5.9-20.3-7.7c-17.4-4.6-36.1-6.7-58.9-6.7c-12.1,0-53.4,1.1-76.4,15
		c-0.5,1.7-0.5,6.3-0.5,8.2c0,9.9,0.1,11.7,0.1,12c1.8,3.3,6.2,5,9.3,6.2c2.2,0.8,3.8,1.4,4.3,2.3c0.7,1.3,1.3,2.8,1.9,4.4
		c0.7,1.6,1.4,3.3,2.2,4.8c4,7.6,9,14.8,14.3,20.9c10.5,11.6,25.8,22.9,38.9,28.8h0.1c2.4,1.1,5.1,2.4,7.6,2.7l0.2,0.1
		c0.3,0.2,0.3,0.2,0.6,0.2c0.5,0,2-0.7,3-1.1c0.5-0.2,1-0.5,1.3-0.6c8-3.7,12.1-5.7,19.4-10.6c19.6-13.4,31.3-26.6,39.1-44.1
		l2.3-5.2c0.4-0.7,1.2-1.1,2.3-1.1h1.5c2.9,0,5.8-0.2,7.3-2c0.6-0.6,1.5-1.7,1.5-2.7v-23.2L-619.6-74.8z M-636.3-75.8v-0.7
		c1.6,0.6,3.8,1.9,5.7,1.9l0.2-0.2v4.5c-1.6-0.6,0.3-2.3-2.6-3.4v4.2c0,0,0.2,0.2,0.3,0.2c0.6,0,0.4-1.1,0.7-1.1
		c0.2,0,0.4,0,0.4,0.2v4.4c-1.1-0.3-0.2-1.5-1.5-2v5.1c0.2,0,1.1,0.4,1.3,0.4c1.1,0,0.7-2.5,1.3-2.5c0.2,0,0.3,0,0.5,0.2v4.7
		l-6.5-2.2c0-2,0.7-1.1,0.7-2v-9.7C-635.5-74.8-636.3-74.8-636.3-75.8z M-644.4-78.3V-79c3.9,1.1,7,1,7,5.6c0,1.1-0.4,2.6-1.9,2.6
		c-0.4,0-0.4,0-0.4,0c3,1.7,1.1,4.5,2.9,6.5c0.2,0.2,0.3,0.3,0.3,0.7v1l-2.8-0.8c0-0.2-0.7-6.7-1.7-6.9v4.1c0,0.7,0.6,0.7,0.6,1.7
		v0.7l-3.9-1.1c0-2,0.7-1.1,0.7-2v-9.7C-643.6-77.3-644.4-77.3-644.4-78.3z M-652.2-81l3.9,1c0,2-0.6,1.3-0.6,2v8.8c0,1,0.2,2,1.3,2
		c1,0,1-1.2,1-1.8v-8.4c0-0.8-0.7-0.6-0.7-1.7v-0.7l2.2,0.6c0,2-0.6,1.1-0.6,2.2v8.1c0,1.2,0,3.5-2,3.5c-2.8,0-3.8-2.3-3.8-4.8v-8.2
		c0-1.1-0.7-0.9-0.7-1.9L-652.2-81L-652.2-81z M-659.3-82.7c1.3,0.7,4.3,1.5,5.8,1.5h0.6v4.3c-1.5-0.2-0.2-2.5-2-2.9v10.4
		c0,0.7,0.7,0.6,0.7,1.6v0.8l-3.9-1v-0.7c0-1.1,0.7-0.6,0.7-1.3v-10.3c-0.2,0-0.4-0.2-0.4-0.2c-0.9,0-0.5,2.2-1.1,2.2
		c-0.2,0-0.4,0-0.4-0.2V-82.7L-659.3-82.7z M-663.8-83.4c1.3,0,2,1.1,2.5,1.1c0.2,0,0.6,0,0.6-0.2h0.6v4.8c-1.7-0.2-0.6-3.9-2.3-3.9
		c-1.1,0-1.1,4.7-1.1,5.2c0,1-0.2,6.1,1.5,6.1c0.9,0,1.1-2,1.3-2.6l0.7,0.6c0,1.5-0.4,3.9-2.5,3.9c-3.4,0-4.1-5.9-4.1-8.3
		C-666.6-78.3-666-83.4-663.8-83.4z M-671.1-70.7c0-1.1,0.7-0.6,0.7-1.3v-9.7c0-0.9-0.7-0.7-0.7-1.6v-0.8l3.9,0.6v0.7
		c0,1.1-0.7,0.6-0.7,1.6v9.7c0,0.8,0.7,0.6,0.7,1.6v0.7l-3.9-0.6V-70.7z M-678.4-84.2v-0.7c4.5,0.6,6.7,0,6.7,5.2
		c0,1.5-0.6,3.8-2.4,3.8c-0.4,0-0.8,0-1,0v3.2c0,1.1,0.6,0.7,0.6,1.6v1l-3.9-0.6c0-2,0.7-1.1,0.7-2.2v-9.5
		C-677.7-83.4-678.4-83.1-678.4-84.2z M-684.4-75.1c0.7,0,1.1,1.6,1.1,2.1c0,0.7-0.3,2-1.1,2c-1,0-1.1-1.7-1.1-2.3
		S-685.3-75.1-684.4-75.1z M-691.9-75.8c1.6,0,0.6,3,2.3,3c0.9,0,1.1-1,1.1-1.7c0-2.8-3.4-2.6-3.4-6.9c0-1.7,0.4-4.5,2.6-4.5
		c0.7,0,1.3,0.7,1.7,0.7c0.2,0,0.4-0.4,0.6-0.4h0.3v4.2c-1.3,0-0.7-2.9-2.2-2.9c-0.7,0-1,0.8-1,1.3c0,2,3.6,2.6,3.6,7.1
		c0,1.9-0.7,4.7-3,4.7c-0.7,0-1.3-0.7-1.6-0.7c-0.2,0-0.4,0.2-0.6,0.4h-0.4V-75.8z M-696.7-86.1c3.2,0,3.8,5.1,3.8,7.4
		c0,2.4-0.6,7.4-3.8,7.4c-3.4,0-3.9-5.1-3.9-7.4S-700.1-86.1-696.7-86.1z M-708.7-84.8v-0.7c1.5,0,2.9-0.2,4.7-0.2
		c1.6,0,2.2,2,2.2,3.4c0,1.7-0.6,3.2-2.5,3.6v0.2c3.2,0.3,1.6,4.1,2.9,5.4c0.2,0.2,0.3,0.2,0.3,0.6v0.9l-2.8,0.2
		c0-0.2-0.7-6.4-1.5-6.4h-0.2v4.1c0,1.1,0.7,0.6,0.7,1.6v0.7l-3.9,0.2c0-1.9,0.7-1.3,0.7-2.5V-83C-707.9-84.2-708.7-83.7-708.7-84.8
		z M-716.8-84.4v-0.7c1.7,0,3.4-0.4,4.9-0.4s2,1.9,2,3.2c0,1.1-0.6,3.2-1.9,3.2v0.2c1.7,0,2,2.1,2,3.6c0,4.8-2.8,4.1-7.1,4.5
		c0-1.7,0.7-1.5,0.7-2.5v-9.3C-716-83.8-716.8-83.3-716.8-84.4z M-728.9-82.9v-0.7c1.5-0.2,3.1-0.7,4.7-0.7c1.6,0,2,1.9,2,3.2
		c0,1.9-0.6,3.4-2.3,3.8v0.2c3.2,0.2,1.3,3.9,2.9,5.2c0.2,0.2,0.3,0.2,0.3,0.6v0.9l-2.8,0.4c0-0.2-0.9-6.2-1.5-6.2h-0.2v4.2
		c0,1.1,0.8,0.3,0.8,1.5v0.7l-3.9,0.6c0-2,0.5-1.5,0.5-2.6v-9.6C-728.4-82.5-728.9-81.8-728.9-82.9z M-736.2-81.6v-0.8
		c1.7-0.3,4.5-0.3,6.1-1.3v4.3c-0.2,0-0.2,0-0.4,0c-0.4,0-0.2-2-1.3-2c-0.4,0-0.7,0.2-1.1,0.2v4.1c1.6-0.2,0.4-1.5,1.7-1.6v4.4
		c0,0-0.2,0.2-0.4,0.2c-0.3,0-0.2-1.3-0.7-1.3c-0.2,0-0.3,0-0.6,0v5.1c3.9-0.8,1.6-3.4,3.2-3.8v4.8l-6.4,1.1c0-1.7,0.8-1.7,0.8-2.5
		v-9.5C-735.4-81.2-736.2-80.5-736.2-81.6z M-744.2-67.2c0-1.1,0.7-0.9,0.7-1.6v-9.7c0-0.7-0.7-0.4-0.7-1.3v-0.7l3-0.7l2.6,9.5
		l0.2-7.6c0-1.1-0.7-0.4-0.7-1.6v-0.7l2.2-0.6v0.7c0,1.1-0.7,0.7-0.7,1.9v11.8l-2.2,0.6l-2.6-9.2v7.3c0,1.1,0.7,0.4,0.7,1.5v0.8
		l-2.5,0.6V-67.2z M-752.3-77.7v-0.7c1.1-0.3,4.1-1.3,5-1.3c1.6,0,1.9,1.9,1.9,3c0,1.6-0.7,3.2-2.4,3.9v0.2c3.2-0.2,1.5,3.8,2.8,4.7
		c0.2,0.2,0.4,0.4,0.4,0.6v1.1l-2.9,0.7c-0.2-0.9-0.9-6-1.3-6c-0.2,0-0.2,0-0.3,0v3.9c0,1.1,0.7,0.3,0.7,1.5v0.7l-3.9,1.1
		c0-1.9,0.7-1.7,0.7-2.5v-9.5C-751.5-77.3-752.3-76.6-752.3-77.7z M-758.1-73.8c0.2-0.3,0.2-0.6,0.2-0.9c0-1.5,0.6-1.9,2-2.8
		l0.2,0.2l2,10.9c0.2,1.1,0.7,0.9,0.7,1.3v1.1l-4.1,1.3c0-2.2,0.7-1.3,0.7-2.4c0-0.6,0-1-0.2-1.6l-2.2,0.7c0,0.6-0.2,1-0.2,1.6
		c0,0.9,0.7,0.5,0.7,0.9v1.5l-2.9,1.1c0.4-2.6,0.8-2,1.1-3.8L-758.1-73.8z M-770.6-70.2v-1.1l3.5-1.5c0,1.1-0.6,1.5-0.6,2.2
		c0,2.1,0.6,4.2,1,6.2l0.7-5.5c0.2-0.9-0.6-1.9-0.6-2.2v-1.1l3.5-1.5c0,1.3-0.6,1.7-0.6,2.6c0,1.9,0.6,4.1,1,6
		c0.4-2,0.9-4.5,0.9-6.7c0-0.7-0.5-0.6-0.5-1.1v-0.9l2-1v1.1c0,0.6-0.4,1.1-0.6,1.7l-1.9,12.8l-1.7,0.6l-1.1-7.9l-1.6,9.4l-1.3,0.7
		l-1.6-11.8C-770-70.2-770.6-69.6-770.6-70.2z M-627.8-48.8c-1.3,0-1.4-0.6-1.4-0.9c0-0.3,0.2-0.9,0.8-2.7c0.1-0.2,0.1-0.4,0.2-0.6
		c-2.3-1-9.9-4-10.6-4.1c0,0,0,0-0.1,0c-0.1,0.1-0.1,0.2-0.3,0.3l-1.7,5.2c-3.1,9.8-10,21.3-18,30.1c-8.5,9.2-22.8,21-35.5,26.7
		c-0.7,0.2-1.6,0.4-2.5,0.4c-3.7,0-10.4-4.4-15-7.7c-9.6-6.7-18.2-14.4-25.5-23.1c-8.6-10-13.3-22-16.6-32.6c-2.6,0.5-6.1,2.1-9,3.4
		c-0.6,0.3-1.2,0.6-1.7,0.8v0.2c0.2,0.9,0.3,1.6,0.6,2.4l0.2,0.6h-0.7c-0.1,0-0.1,0-0.3,0.1c-0.2,0-0.4,0.1-0.6,0.1
		c-1.3,0-3.3-0.6-3.3-2.2c0-1.4,2.7-2.7,5.9-4.1c0.7-0.3,1.3-0.6,1.6-0.7c21.2-8.6,46.6-10.4,64-10.4c18.7,0,37.8,2.8,58.5,8.6
		l0.7,0.2c9.3,2.9,13.5,5.1,13.5,7.2C-624.5-49.8-626.5-48.8-627.8-48.8z M-625.1-58.2c-1.6,0-2.5-1.5-2.6-1.5c-0.2,0-0.4,0-0.6,0.2
		l-0.4-0.2V-64c1.3,0.4,0.7,3.9,2.5,3.9c0.7,0,0.9-0.7,0.9-1.3c0-2.8-3.4-3.9-3.4-8.4c0-1.1,0.2-3.5,1.9-3.5c1.3,0,2.2,1.5,2.6,1.5
		c0.2,0,0.2,0,0.4-0.2l0.3,0.2v4.3c-1.3-0.6-0.9-3.9-2.4-3.9c-0.6,0-0.8,0.7-0.8,1.1c0,2,3.6,4.1,3.6,8.6
		C-623-60.4-623.4-58.2-625.1-58.2z"/>
	<path fill="#231F20" d="M-684.4-70.9c0.7,0,1.1-1.3,1.1-2c0-0.6-0.3-2.1-1.1-2.1c-1,0-1.1,1.3-1.1,1.9S-685.3-70.9-684.4-70.9z"/>
</g>
<g>
	<path fill-rule="evenodd" clip-rule="evenodd" fill="#EE402F" d="M-396.2-48.2h-68.1l37.1-31.5c1-0.9,2.3-1.4,3.7-1.4h21.6
		c3.1,0,5.7,2.6,5.7,5.7V-48.2L-396.2-48.2z"/>
	<polygon fill-rule="evenodd" clip-rule="evenodd" fill="#EE402F" points="-396.2,-40.5 -396.2,-36.6 -452.8,-36.6 -457.4,-40.5 
		-396.2,-40.5 	"/>
	<path fill-rule="evenodd" clip-rule="evenodd" fill="#EE402F" d="M-396.5-17.2c-0.8,2.2-2.9,3.7-5.3,3.7h-21.6
		c-1.3,0-2.7-0.5-3.7-1.3l-2.8-2.4H-396.5L-396.5-17.2z"/>
	<polygon fill-rule="evenodd" clip-rule="evenodd" fill="#EE402F" points="-396.2,-23 -436.9,-23 -432.3,-19.1 -396.2,-19.2 
		-396.2,-23 	"/>
	<polygon fill-rule="evenodd" clip-rule="evenodd" fill="#EE402F" points="-396.2,-28.9 -443.7,-28.9 -439.1,-25 -396.2,-25 
		-396.2,-28.9 	"/>
	<polygon fill-rule="evenodd" clip-rule="evenodd" fill="#EE402F" points="-396.2,-34.7 -450.6,-34.7 -446,-30.8 -396.2,-30.8 
		-396.2,-34.7 	"/>
	<polygon fill-rule="evenodd" clip-rule="evenodd" fill="#EE402F" points="-396.2,-46.3 -464.3,-46.3 -459.7,-42.4 -396.2,-42.4 
		-396.2,-46.3 	"/>
	<path fill-rule="evenodd" clip-rule="evenodd" fill="#EE402F" d="M-236.8-14.6h7.9l2.6-19.6c0,1.7,0,2.9,0.2,3.5l1.8,16.1h6l7.2-16
		c0.4-0.8,0.8-2,1.3-3.6l-3.9,19.6h7.7l4.4-26.6h-10.7l-6.6,14.3c-0.5,0.9-0.7,2-1,3.2c0-0.4,0-0.8,0-1.2c0-0.6,0-1.3,0-2l-1.6-14.3
		h-10.5L-236.8-14.6L-236.8-14.6z"/>
	<polygon fill-rule="evenodd" clip-rule="evenodd" fill="#EE402F" points="-260,-14.6 -238.9,-14.6 -237.8,-20.3 -250.1,-20.3 
		-246.7,-41.1 -255.4,-41.1 -260,-14.6 	"/>
	<polygon fill-rule="evenodd" clip-rule="evenodd" fill="#EE402F" points="-270.6,-14.6 -261.9,-14.6 -257.4,-41.1 -266.1,-41.1 
		-270.6,-14.6 	"/>
	<polygon fill-rule="evenodd" clip-rule="evenodd" fill="#EE402F" points="-292,-17.3 -384.4,-17.3 -384.4,-13.4 -328.4,-13.4 
		-328.1,-15.2 -310,-15.2 -309.8,-16.1 -292.2,-16.1 -292.5,-14.6 -283.8,-14.6 -282.3,-24.1 -273.4,-24.1 -272.3,-30.4 
		-281.2,-30.4 -280.5,-34.7 -269.1,-34.7 -268,-41.1 -287.9,-41.1 -287.9,-40.5 -384.4,-40.5 -384.4,-36.6 -324.2,-36.6 
		-323.9,-38.4 -305.8,-38.4 -305.6,-39.4 -288.2,-39.4 -289,-34.7 -384.4,-34.7 -384.4,-30.8 -325.2,-30.8 -324.9,-32.6 
		-306.8,-32.5 -306.6,-33.6 -289.1,-33.6 -290,-28.9 -384.4,-28.9 -384.4,-25 -326.2,-25 -325.9,-26.8 -307.9,-26.8 -307.7,-27.8 
		-290.2,-27.8 -291,-23.1 -384.4,-23.1 -384.4,-19.2 -327.3,-19.2 -327,-21 -309,-21 -308.8,-22 -291.2,-22 -292,-17.3 	"/>
	<path fill-rule="evenodd" clip-rule="evenodd" fill="#EE402F" d="M-446-17.2l0.7,1c0.2,0.3,0.4,0.6,0.4,1c0,1-0.8,1.7-1.8,1.7
		h-21.8c-2.5,0-4.5-1.5-5.3-3.8L-446-17.2L-446-17.2z"/>
	<path fill-rule="evenodd" clip-rule="evenodd" fill="#EE402F" d="M-450.2-23h-23.9v3.8c0,0,0,0,0,0h26.7L-450.2-23L-450.2-23z"/>
	<polygon fill-rule="evenodd" clip-rule="evenodd" fill="#EE402F" points="-454.5,-28.9 -474.1,-28.9 -474.1,-25 -451.7,-25 
		-454.5,-28.9 	"/>
	<polygon fill-rule="evenodd" clip-rule="evenodd" fill="#EE402F" points="-458.7,-34.7 -474.1,-34.7 -474.1,-30.8 -455.9,-30.8 
		-458.7,-34.7 	"/>
	<polygon fill-rule="evenodd" clip-rule="evenodd" fill="#EE402F" points="-462.9,-40.5 -474.1,-40.5 -474.1,-36.6 -460.1,-36.6 
		-462.9,-40.5 	"/>
	<path fill-rule="evenodd" clip-rule="evenodd" fill="#EE402F" d="M-464.3-42.4h-9.8v-3.9h7.3c0.1,0.4,0.3,0.9,0.6,1.2L-464.3-42.4
		L-464.3-42.4z"/>
	<path fill-rule="evenodd" clip-rule="evenodd" fill="#EE402F" d="M-466.9-48.2h-7.3v-27.2c0-3.1,2.6-5.7,5.7-5.7h21.8
		c1,0,1.8,0.8,1.8,1.8c0,0.3-0.2,0.7-0.4,1l-20.9,28.8C-466.5-49.1-466.8-48.7-466.9-48.2L-466.9-48.2z"/>
	<path fill-rule="evenodd" clip-rule="evenodd" fill="#231F20" d="M-357.5-65.4c-0.2,1.1-0.3,2.7-0.3,3.8c0,1.3,0.2,2.7,0.3,3.8
		c0,0.2,0,0.3,0.1,0.5c0.6,3.9,4.4,7.4,8.4,7.7c0.9,0,2,0.1,3,0.1c1,0,2,0,2.8,0c4.1-0.3,7.9-3.7,8.6-7.7c0.2-1.2,0.4-2.8,0.4-4.3
		c0-1.4-0.2-3.3-0.4-4.4c-0.7-3.9-4.5-7.2-8.5-7.5c-0.9,0-1.8-0.1-2.8-0.1c-1,0-2,0-3,0.1c-3.9,0.3-7.7,3.6-8.4,7.5
		C-357.4-65.8-357.5-65.6-357.5-65.4L-357.5-65.4z M-293.6-54.7c0.4,0,0.9-0.1,1.2-0.3c2.1-1,2.1-3.6,2.2-5.7c0-0.1-0.2-0.5-0.5-0.5
		c-0.7,0-1.5,0.1-2,0.2c-0.3,0-0.6,0.1-0.9,0.2c-0.9,0.3-1.9,1-2.6,1.7c-0.9,0.9-1.1,3-0.1,3.8C-295.7-54.8-294.6-54.6-293.6-54.7
		L-293.6-54.7z M-293.6-64.6l1.9-0.4c1.7-0.3,1.9-3.2,0.2-3.7c-0.7-0.2-1.4-0.3-2.1-0.3c-0.4,0-0.9,0.1-1.5,0.2
		c-1.1,0.2-2.1,0.9-2.3,2h-5.4v-6.1h9.1h3.3c4.3,0,7.9,3.5,7.9,7.8v14.9h-5.9l-1.3-1.9c-1.1,1-2.6,1.7-4.1,2.1c-1,0.3-2,0.4-3.1,0.4
		c-4.2,0-8.4-2.1-8.4-6.8c0-4.6,4.8-7.2,8.6-7.9L-293.6-64.6L-293.6-64.6z M-256-50.1l-8.7-13.8l6.8-8.9h-7l-6.4,8.4v-17.9h-7.2
		v32.2h7.2v-12.1l7.6,12.1H-256L-256-50.1z M-319.7-54.5c0.4,0,0.8-0.1,1.1-0.2c1.2-0.3,2.1-1.2,2.6-2.3c0.2-0.5,0.4-1.2,0.5-1.7
		c0-0.8,0.2-1.8,0.2-2.7c0-1-0.1-2.2-0.2-3.1c-0.1-0.5-0.3-1.1-0.4-1.5c-0.4-1.1-1.4-2-2.6-2.3c-0.4-0.1-0.8-0.2-1.1-0.2h0
		c-0.3,0-0.7,0.1-1,0.1c-1.2,0.3-2.2,1.2-2.7,2.4c-0.2,0.4-0.4,0.9-0.4,1.4c-0.1,0.9-0.2,2.1-0.2,3.1c0,0.9,0.1,1.9,0.1,2.6
		c0.1,0.6,0.3,1.3,0.5,1.8c0.4,1.2,1.5,2.1,2.7,2.4C-320.5-54.6-320.1-54.5-319.7-54.5L-319.7-54.5L-319.7-54.5z M-319.7-73.5
		c1.6,0.2,3.2,0.8,4.5,1.6v-10.5h7.1v32.2h-5.5l-1.1-1.9c-1.4,1.2-3.2,2-5.1,2.3c-0.5,0.1-1.1,0.1-1.6,0.1c-0.4,0-1,0-1.4-0.1
		c-4.1-0.4-7.5-3.6-8.4-7.6c-0.2-1.3-0.4-2.8-0.4-4.3c0-1.4,0.2-3.2,0.4-4.5c1-3.9,4.4-7,8.4-7.5c0.5,0,1.2-0.1,1.7-0.1
		C-320.6-73.6-320.2-73.5-319.7-73.5L-319.7-73.5z M-346.1-54.5c-2.1,0-4.2-2.3-4.2-4.3c0-0.7-0.1-1.7-0.1-2.6c0-1,0.2-2.3,0.2-3.1
		c0-1.8,2.3-3.9,4.1-3.9c2,0,4.1,2,4.1,4c0,0.7,0.2,2.1,0.2,3.1c0,0.9-0.1,2-0.1,2.7C-341.8-56.6-344-54.5-346.1-54.5L-346.1-54.5z
		 M-357.5-50.6l0.3,0.4h-0.3h-8.7l-9.8-15.1c-0.1-0.2-0.3-0.3-0.6-0.3c-0.4,0-0.6,0.3-0.6,0.7v14.8h-7.2v-32.2h7.2v12.6
		c0,0.3,0.3,0.6,0.6,0.6c0.2,0,0.4-0.1,0.5-0.3l9.5-13h8.7l-10.7,14.6L-357.5-50.6L-357.5-50.6z"/>
</g>
<g>
	<path fill="none" d="M-683.4,956.1L-683.4,956.1C-683.4,956.2-683.3,956.3-683.4,956.1z"/>
	<path fill="#EE402F" d="M-622.5,923.9h-20.5c-1.3,0-2.6,0.5-3.5,1.3l-35.2,30.9l35.2,30.5c0.9,0.8,2.2,1.3,3.5,1.3h20.5
		c3,0,5.4-2.4,5.4-5.4v-26.5v-26.8C-617.1,926.3-619.5,923.9-622.5,923.9z"/>
	<path fill="#EE402F" d="M-683.4,956.1C-683.3,956.3-683.4,956.2-683.4,956.1L-683.4,956.1l19.8-29.5c0.2-0.3,0.3-0.7,0.3-1
		c0-0.9-0.8-1.7-1.7-1.7h-20.6c-3,0-5.4,2.4-5.4,5.4v26.8v26.5c0,3,2.4,5.4,5.4,5.4h20.6c0.9,0,1.7-0.8,1.7-1.7c0-0.3-0.2-0.7-0.3-1
		L-683.4,956.1z"/>
</g>
<g>
	<path fill="none" d="M-356.2,849.8L-356.2,849.8C-356.2,849.9-356.1,849.9-356.2,849.8z"/>
	<path fill="#EE402F" d="M-320.6,831h-11.9c-0.7,0-1.5,0.3-2,0.8l-20.5,18l20.5,17.8c0.5,0.5,1.3,0.8,2,0.8h11.9
		c1.7,0,3.1-1.4,3.1-3.1v-15.4v-15.6C-317.5,832.4-318.9,831-320.6,831z"/>
	<path fill="#EE402F" d="M-356.2,849.8C-356.1,849.9-356.2,849.9-356.2,849.8L-356.2,849.8l11.6-17.2c0.1-0.2,0.2-0.4,0.2-0.6
		c0-0.5-0.4-1-1-1h-12c-1.7,0-3.1,1.4-3.1,3.1v15.6v15.4c0,1.7,1.4,3.1,3.1,3.1h12c0.5,0,1-0.4,1-1c0-0.2-0.1-0.4-0.2-0.6
		L-356.2,849.8z"/>
</g>
<g>
	<path fill-rule="evenodd" clip-rule="evenodd" fill="#231F20" d="M-357.2,252.7c-0.2,1.5-0.4,3.6-0.4,5.1c0,1.7,0.2,3.5,0.4,5
		c0.1,0.2,0.1,0.4,0.1,0.6c0.9,5.2,5.9,9.8,11.2,10.1c1.2,0.1,2.6,0.1,3.9,0.1c1.3,0,2.7,0,3.7-0.1c5.5-0.4,10.5-4.9,11.4-10.2
		c0.2-1.6,0.5-3.8,0.5-5.7c0-1.8-0.3-4.3-0.5-5.9c-0.9-5.2-6-9.6-11.3-10c-1.1-0.1-2.4-0.1-3.8-0.1c-1.3-0.1-2.7,0-3.9,0.1
		c-5.2,0.4-10.2,4.8-11.1,9.9C-357.1,252.1-357.1,252.5-357.2,252.7L-357.2,252.7z M-272.5,266.9c0.6-0.1,1.1-0.2,1.6-0.4
		c2.8-1.3,2.8-4.8,2.9-7.5c0-0.2-0.3-0.7-0.6-0.7c-0.9,0-2,0.2-2.7,0.2c-0.4,0.1-0.8,0.1-1.1,0.3c-1.2,0.4-2.6,1.3-3.4,2.2
		c-1.2,1.2-1.5,3.9-0.1,5C-275.2,266.7-273.8,267-272.5,266.9L-272.5,266.9z M-272.5,253.7l2.5-0.5c2.2-0.4,2.5-4.2,0.2-4.9
		c-0.9-0.3-1.8-0.4-2.7-0.4c-0.6,0-1.2,0.1-1.9,0.3c-1.4,0.3-2.8,1.2-3,2.7h-7.1v-8.1h12.1h4.4c5.7,0,10.4,4.6,10.4,10.3v19.8h-7.8
		l-1.7-2.5c-1.5,1.3-3.4,2.3-5.4,2.8c-1.3,0.4-2.7,0.6-4.1,0.6c-5.5,0-11.2-2.7-11.2-9c0-6.1,6.4-9.6,11.4-10.4L-272.5,253.7
		L-272.5,253.7z M-222.6,272.9l-11.5-18.3l9.1-11.8h-9.3l-8.5,11.2v-23.7h-9.6v42.7h9.6v-16l10,16H-222.6L-222.6,272.9z
		 M-307.1,267.1c0.5,0,1-0.1,1.4-0.2c1.6-0.4,2.8-1.6,3.4-3.1c0.3-0.6,0.5-1.6,0.6-2.3c0.1-1,0.2-2.4,0.2-3.6c0-1.3-0.2-3-0.3-4.1
		c-0.1-0.6-0.4-1.4-0.6-1.9c-0.6-1.5-1.9-2.7-3.4-3.1c-0.5-0.1-1-0.2-1.5-0.2h-0.1c-0.4,0-0.9,0.1-1.3,0.2c-1.6,0.4-3,1.6-3.5,3.2
		c-0.3,0.5-0.5,1.2-0.6,1.9c-0.1,1.2-0.3,2.8-0.3,4.1c0,1.2,0.2,2.5,0.2,3.5c0.2,0.8,0.4,1.8,0.7,2.4c0.6,1.6,1.9,2.7,3.5,3.2
		C-308.1,267-307.6,267.1-307.1,267.1L-307.1,267.1L-307.1,267.1z M-307.1,241.9c2.1,0.3,4.2,1.1,6,2.1v-13.9h9.4v42.7h-7.2
		l-1.4-2.5c-1.9,1.6-4.2,2.7-6.7,3.1c-0.7,0.1-1.4,0.2-2.1,0.2c-0.6,0-1.3-0.1-1.8-0.1c-5.4-0.6-9.9-4.7-11.2-10.1
		c-0.2-1.8-0.5-3.8-0.5-5.7c0-1.8,0.3-4.2,0.5-5.9c1.3-5.2,5.8-9.2,11.1-9.9c0.7-0.1,1.6-0.2,2.3-0.2
		C-308.2,241.8-307.7,241.9-307.1,241.9L-307.1,241.9z M-342,267.1c-2.8,0-5.6-3.1-5.6-5.7c0-0.9-0.2-2.3-0.2-3.5
		c0-1.3,0.3-3.1,0.3-4.1c0-2.4,3.1-5.2,5.4-5.2c2.7,0,5.5,2.7,5.5,5.3c0,0.9,0.3,2.8,0.3,4.1c0,1.2-0.2,2.7-0.2,3.6
		C-336.4,264.3-339.2,267.1-342,267.1L-342,267.1z M-357.2,272.3l0.4,0.6h-0.4h-11.5l-12.9-20.1c-0.1-0.2-0.4-0.4-0.8-0.4
		c-0.5,0-0.9,0.4-0.9,0.9v19.6h-9.5v-42.7h9.5V247c0,0.4,0.4,0.9,0.9,0.9c0.3,0,0.6-0.2,0.7-0.4l12.6-17.2h11.5l-14.1,19.3
		L-357.2,272.3L-357.2,272.3z"/>
	<path fill-rule="evenodd" clip-rule="evenodd" fill="#EE402F" d="M-406.6,251.1h-42.7l23.3-19.7c0.6-0.5,1.5-0.9,2.3-0.9h13.5
		c2,0,3.6,1.6,3.6,3.6V251.1L-406.6,251.1z"/>
	<polygon fill-rule="evenodd" clip-rule="evenodd" fill="#EE402F" points="-406.6,256 -406.6,258.4 -442,258.4 -444.9,256 
		-406.6,256 	"/>
	<path fill-rule="evenodd" clip-rule="evenodd" fill="#EE402F" d="M-406.8,270.5c-0.5,1.4-1.8,2.3-3.3,2.3h-13.5
		c-0.8,0-1.7-0.3-2.3-0.8l-1.8-1.5H-406.8L-406.8,270.5z"/>
	<polygon fill-rule="evenodd" clip-rule="evenodd" fill="#EE402F" points="-406.6,266.9 -432,266.9 -429.2,269.3 -406.6,269.3 
		-406.6,266.9 	"/>
	<polygon fill-rule="evenodd" clip-rule="evenodd" fill="#EE402F" points="-406.6,263.2 -436.3,263.2 -433.4,265.7 -406.6,265.7 
		-406.6,263.2 	"/>
	<polygon fill-rule="evenodd" clip-rule="evenodd" fill="#EE402F" points="-406.6,259.6 -440.6,259.6 -437.7,262 -406.6,262 
		-406.6,259.6 	"/>
	<polygon fill-rule="evenodd" clip-rule="evenodd" fill="#EE402F" points="-406.6,252.3 -449.2,252.3 -446.3,254.8 -406.6,254.8 
		-406.6,252.3 	"/>
	<path fill-rule="evenodd" clip-rule="evenodd" fill="#EE402F" d="M-437.7,270.5l0.4,0.6c0.2,0.2,0.2,0.4,0.2,0.6
		c0,0.6-0.5,1.1-1.1,1.1h-13.6c-1.5,0-2.8-1-3.3-2.4L-437.7,270.5L-437.7,270.5z"/>
	<path fill-rule="evenodd" clip-rule="evenodd" fill="#EE402F" d="M-440.4,266.9h-15v2.4c0,0,0,0,0,0h16.7L-440.4,266.9
		L-440.4,266.9z"/>
	<polygon fill-rule="evenodd" clip-rule="evenodd" fill="#EE402F" points="-443,263.2 -455.4,263.2 -455.4,265.7 -441.3,265.7 
		-443,263.2 	"/>
	<polygon fill-rule="evenodd" clip-rule="evenodd" fill="#EE402F" points="-445.7,259.6 -455.4,259.6 -455.4,262 -443.9,262 
		-445.7,259.6 	"/>
	<polygon fill-rule="evenodd" clip-rule="evenodd" fill="#EE402F" points="-448.3,256 -455.4,256 -455.4,258.4 -446.6,258.4 
		-448.3,256 	"/>
	<path fill-rule="evenodd" clip-rule="evenodd" fill="#EE402F" d="M-449.2,254.8h-6.1v-2.4h4.6c0.1,0.3,0.2,0.5,0.4,0.8
		L-449.2,254.8L-449.2,254.8z"/>
	<path fill-rule="evenodd" clip-rule="evenodd" fill="#EE402F" d="M-450.8,251.1h-4.5v-17c0-2,1.6-3.6,3.6-3.6h13.6
		c0.6,0,1.1,0.5,1.1,1.1c0,0.2-0.1,0.4-0.2,0.6l-13.1,18.1C-450.6,250.6-450.7,250.8-450.8,251.1L-450.8,251.1z"/>
</g>
<g>
	<path fill-rule="evenodd" clip-rule="evenodd" fill="#EE402F" d="M-305,548.5h-59.4L-332,521c0.8-0.7,2-1.2,3.2-1.2h18.8
		c2.7,0,4.9,2.2,4.9,4.9V548.5L-305,548.5z"/>
	<polygon fill-rule="evenodd" clip-rule="evenodd" fill="#EE402F" points="-305,555.2 -305,558.6 -354.4,558.6 -358.4,555.2 
		-305,555.2 	"/>
	<path fill-rule="evenodd" clip-rule="evenodd" fill="#EE402F" d="M-305.3,575.5c-0.7,1.9-2.5,3.2-4.7,3.2h-18.8
		c-1.2,0-2.4-0.4-3.2-1.2l-2.4-2.1H-305.3L-305.3,575.5z"/>
	<polygon fill-rule="evenodd" clip-rule="evenodd" fill="#EE402F" points="-305,570.5 -340.5,570.5 -336.5,573.8 -305,573.8 
		-305,570.5 	"/>
	<polygon fill-rule="evenodd" clip-rule="evenodd" fill="#EE402F" points="-305,565.4 -346.4,565.4 -342.5,568.8 -305,568.8 
		-305,565.4 	"/>
	<polygon fill-rule="evenodd" clip-rule="evenodd" fill="#EE402F" points="-305,560.3 -352.4,560.3 -348.4,563.7 -305,563.7 
		-305,560.3 	"/>
	<polygon fill-rule="evenodd" clip-rule="evenodd" fill="#EE402F" points="-305,550.2 -364.4,550.2 -360.4,553.6 -305,553.6 
		-305,550.2 	"/>
	<path fill-rule="evenodd" clip-rule="evenodd" fill="#EE402F" d="M-348.4,575.5l0.6,0.8c0.2,0.2,0.3,0.6,0.3,0.9
		c0,0.8-0.7,1.5-1.6,1.5h-19c-2.2,0-4-1.3-4.7-3.3L-348.4,575.5L-348.4,575.5z"/>
	<path fill-rule="evenodd" clip-rule="evenodd" fill="#EE402F" d="M-352.1,570.5H-373v3.4c0,0,0,0,0,0h23.3L-352.1,570.5
		L-352.1,570.5z"/>
	<polygon fill-rule="evenodd" clip-rule="evenodd" fill="#EE402F" points="-355.8,565.4 -373,565.4 -373,568.8 -353.4,568.8 
		-355.8,565.4 	"/>
	<polygon fill-rule="evenodd" clip-rule="evenodd" fill="#EE402F" points="-359.5,560.3 -373,560.3 -373,563.7 -357,563.7 
		-359.5,560.3 	"/>
	<polygon fill-rule="evenodd" clip-rule="evenodd" fill="#EE402F" points="-363.2,555.2 -373,555.2 -373,558.6 -360.7,558.6 
		-363.2,555.2 	"/>
	<path fill-rule="evenodd" clip-rule="evenodd" fill="#EE402F" d="M-364.4,553.6h-8.5v-3.4h6.4c0.1,0.4,0.3,0.7,0.5,1.1
		L-364.4,553.6L-364.4,553.6z"/>
	<path fill-rule="evenodd" clip-rule="evenodd" fill="#EE402F" d="M-366.6,548.5h-6.3v-23.7c0-2.7,2.2-4.9,4.9-4.9h19
		c0.8,0,1.6,0.7,1.6,1.6c0,0.3-0.1,0.6-0.3,0.9l-18.2,25.1C-366.3,547.7-366.5,548.1-366.6,548.5L-366.6,548.5z"/>
</g>
</svg>
