<?xml version="1.0" encoding="utf-8"?>
<!-- Generator: Adobe Illustrator 20.1.0, SVG Export Plug-In . SVG Version: 6.00 Build 0)  -->
<svg version="1.1" id="Layer_1" xmlns="http://www.w3.org/2000/svg" xmlns:xlink="http://www.w3.org/1999/xlink" x="0px" y="0px"
	 width="300px" height="1200px" viewBox="0 0 300 1200" style="enable-background:new 0 0 300 1200;" xml:space="preserve">
<style type="text/css">
	.st0{fill:none;stroke:#2C2C2C;stroke-miterlimit:10;}
	.st1{fill:#010000;}
	.st2{fill:#205935;}
	.st3{fill:#E5274E;}
	.st4{fill:#205935;stroke:#205935;stroke-width:0.5;stroke-miterlimit:10;}
	.st5{fill:#FFFFFF;stroke:#FFFFFF;stroke-width:0.3;stroke-miterlimit:10;}
</style>
<rect x="330" y="900.2" class="st0" width="300" height="300"/>
<rect x="330" y="-0.5" class="st0" width="300" height="300"/>
<rect x="330.3" y="297.7" class="st0" width="300" height="300"/>
<rect x="330" y="599.3" class="st0" width="300" height="300"/>
<g>
	<path class="st1" d="M103.5,165.4c8.3,0,15.5-5.5,15.5-14.9s-7.2-14.9-15.5-14.9S88,141.1,88,150.5
		C88,159.9,95.4,165.4,103.5,165.4 M50.6,164.9h6l-13.7-28.6h-5.8l-12.7,28.6h5.3l2.8-6.5h15.2L50.6,164.9z M199,136.3h-21.7v28.6
		h22.2v-4.5h-17v-7.4H197v-4.5h-14.6v-7.4h16.6v-4.6H199z M122.9,162c1.1,0.9,4.6,3.4,10.7,3.4c6.2,0,11.1-3.3,11.1-8.6
		c0-10.8-15.8-7.4-15.8-13.3c0-1.7,1.3-3.1,5.1-3.1c4.3,0,7.2,2,8.3,2.8l2.1-4.2c-1.3-1.2-5.3-3.4-10.4-3.4
		c-7.6,0-10.7,4.2-10.7,8.5c0,9.9,15.8,7,15.8,12.9c0,2.5-2.5,3.5-5.3,3.5c-4.2,0-7.7-1.9-9.2-3L122.9,162z M73.1,140.7
		c4.2,0,6.7,2.3,8.1,3.5l3.5-3.5c-1.1-1.3-4.5-5.2-11.7-5.2c-8.2,0-15.5,5.5-15.5,14.9s7.2,14.9,15.4,14.9c6.3,0,10.6-3.4,12-4.6
		l-2.8-4c-2.3,1.9-5.8,3.6-9.1,3.6c-5.7,0-9.9-4.2-9.9-9.8C63.1,145.1,67.4,140.7,73.1,140.7 M103.5,160.3c-5.7,0-9.9-4.2-9.9-9.8
		c0-5.5,4.3-9.8,9.9-9.8c5.7,0,9.9,4.2,9.9,9.8C113.5,156.1,109.2,160.3,103.5,160.3 M157.7,140.8v24h5.1v-24h10v-4.5h-24.9v4.5
		H157.7z M5.7,136.3H0.6v28.6H21v-4.5H5.7V136.3z M39.8,141.2l5.8,12.7H34.4L39.8,141.2z"/>
	<path class="st2" d="M298.8,158.8c-0.6-0.4-1.1-0.4-1.8-0.6c-0.7-0.2-1-1.1-1.3-1.2c-0.5-0.2-1.1,0.6-1.4,0.5
		c-0.3-0.1-0.5-1.2-0.7-1.3c-0.5-0.2-1.1,0.7-1.4,0.5c-0.3-0.1-0.5-1.2-0.8-1.3c-0.6-0.2-1.1,0.7-1.5,0.6c-0.3-0.1-0.4-1.2-0.7-1.3
		c-0.6-0.2-1.1,0.7-1.8,0.6c-0.3,0-1.1-0.2-2.1-0.8c-0.3-0.2-0.8-0.6-0.9-0.7c-0.1,0-0.3-0.1-0.3,0.4c0.1,1.2,2.2,2.1,4.5,2.8
		c2.4,0.7,4.7,1.3,6.2,2c0.9,0.4,1.2,0.9,0.9,1.3c-0.2,0.4-0.8,0.4-1.5,0.1c-0.7-0.3-0.8-0.9-1.2-1c-0.5-0.1-1.2,0.9-1.7,0.8
		c-0.5-0.1-0.6-1.3-1.1-1.4c-0.6-0.2-1.3,0.8-1.8,0.7c-0.4-0.1-0.6-1.3-1-1.4c-0.7-0.2-1.3,0.9-1.9,0.8c-0.4-0.1-0.6-1.3-1-1.4
		c-0.7-0.3-1.5,0.7-2.6,0.2c-3.1-2.1-2.5-3.1-4.9-3.8c-1.2-0.4-2.7,0.1-3.6,0.2c-2.1,0.2-2-1.5-2-1.5c0.6,0.1,1.4,0.5,3-0.1
		c1.7-0.6,2.6-0.7,4.7,0c1.9,0.6,2.9,0.1,3.6-0.1c0.3-0.1,0.5-0.2,1.1,0.1c0.6,0.4,1.1,0.8,1.4,0.6c0.4-0.2,0.3-1.4,1-1.7
		c0.3-0.1,1.3,0.8,1.8,0.7c0.4-0.2,0.3-1.4,1-1.7c0.3-0.1,1.3,0.8,1.8,0.7c0.4-0.2,0.3-1.4,1-1.7c0.3-0.1,1.3,0.8,1.8,0.7
		c0.4-0.2,0.3-1.4,1-1.7c0.3-0.1,1.3,0.8,1.8,0.7l0,0c0.4-0.2,0.3-0.5,0.7-1.3c0.1-0.2,0.2-0.3,0.4-0.5c0.5-0.4,1.2-1.2,0.7-2.2
		c-0.4-0.8-1.1-0.8-2.9-0.4c-1.4,0.3-10.5,2.3-10.5,2.3c-1.4-2.6-2.4-0.9-4.4-1.1c-1.3-0.2-3.5-1.5-6.9,1.7
		c-1.9-0.5-3.4-0.1-4.6,0.6c-2.1-0.8-6-2.8-13.3-2.8c-2.1,0-7.1,0.4-15.1,2.5c-2.1,0.5-3.9,0.4-4.3-0.8c-0.4-1.2,1.1-2.6,4.2-4
		c7.6-3.6,12.7-2.8,23-8.3c5.5-2.9,5.9-6.3,5.9-7.1c0-0.5-0.6-0.7-0.9-0.3c-1.9,2.6-2.4,2.4-2.9,1.8c-0.7-0.7-1.2,0.4-2.1,1
		c-0.6,0.5-0.7-0.1-1.2-0.4c-0.8-0.5-1.7,1.1-2.4,1.4c-0.8,0.4-1,0-1.3-0.3c-0.2-0.2-0.6-0.2-0.8,0c-1.8,1.7-2,1.4-2.5,0.9
		c-0.4-0.4-0.6-0.7-1.8,0.4c-0.6,0.6-1.8,1.4-2.1,0.6c-0.3-0.8-0.6-1.3-2.3,0.1c-0.9,0.8-1.5,0.9-1.9,0.5c-0.3-0.4-0.2-1.5-1.8-0.3
		c-1.3,1-2.1,1.7-2.5,0.6s-1.4-0.1-2.2,0.5c-0.4,0.4-1,1.2-1.5,0.4c-0.5-0.9-1.3,0-2.5,1.1c-0.6,0.6-1,0.3-1.7-0.1
		c-0.7-0.5-1.4,1.2-2.5,2.4c-0.2,0.2-0.4,0.3-1-0.1c-0.8-0.5-2.1,2.2-2.4,2.9c-0.6,1.1-1.2-0.3-1.9,0.7c-1.5,2.3-3.2,4.9-3.7,9.4
		c-0.5,5.4,1.4,9.8,3.5,11.5c0,0-0.2,0.6-0.5,1.3c-0.5,1.5-0.8,3.5-0.1,4.9c0.7,1.3,2.4,3.5,3,1.4c0.3-1,0.6-0.9,1.5-0.3
		c1.4,1,1.1-0.8,1.4-1.4c0.2-0.4,0.4-0.5,1.7,0.2c0.7,0.4,0.9-0.2,1.1-1c0.6-2.7-0.6-3.3-1.9-3.6c-0.9-0.2-1.9,0-1.9,0
		c2-3.1,2.3-4.7,0-6.3c0.3-0.2,0.6-0.1,0.9,0c0.5,0.2,1,0.6,1.3,1.1c0.3,0.5,0.8,1.8-0.2,3.9c0.4,0,2.1,0.1,2.8,1.8
		c1,0.3,7.3,0.8,10.1,0.4c1-0.2,1.4-1,2.5-2c1.1-1,2.4-2.2,3.5-1.3c-2,0.8-3.3,2.3-3.3,4.2c0,1.4,0.6,2,1.7,2.9c0.9,0.7,1.2,2,1.5,3
		c0.4,1.2,1.3,1.2,1.5,0.1c0.3-1.5,0.7-1.3,1.3-0.6c0.7,0.8,1.3,0.7,1.3-0.5c0-1.1,0.3-1.7,1.5-0.4c0.5,0.5,1.1,0.5,1.1-0.6
		c0-1.4,0.6-1.2,1.4-0.6c0.3,0.2,0.4,0.4,0.6,0.3c0.6,0,1-1.2,0.5-2.2c-0.2-0.5-0.6-1.1-3.8-1.9c-1-0.2-0.8-0.9-0.8-0.9
		c7.8,0.4,14.4-0.6,18.8-3.3c5.4,1.3,13.2,1.4,15.8,1.3c2.6,0,4.5-0.1,6.2-0.9C299.8,160.5,299.5,159.3,298.8,158.8 M282.6,146.6
		c0.2-0.4,0.5-0.6,0.8-0.6c0.6,0,0.9,0.6,0.9,0.8l-1.4,0.3C282.5,147.2,282.5,147,282.6,146.6 M278.9,146.5c1,0,1.7,0.7,1.8,1.1
		c0,0-1.5,0.3-2.2,0.5c-0.4,0.1-0.7-0.1-0.7-0.4C277.6,147.3,278.1,146.5,278.9,146.5 M237.5,137.4c0.7-0.3,1.4-0.6,2.2-0.7
		c0.1,0,0.2,0,0.2,0.2c-0.1,0.5-0.2,1-0.3,1.5c0,0.1-0.1,0.2-0.3,0.1c-0.5-0.3-1.1-0.5-1.8-0.8C237.4,137.5,237.4,137.4,237.5,137.4
		 M234.2,139c0.7-0.3,1.4-0.5,2.2-0.7c0.1,0,0.2,0.1,0.2,0.2c-0.1,0.5-0.2,1-0.3,1.5c0,0.1-0.1,0.2-0.3,0.1
		c-0.5-0.3-1.1-0.5-1.8-0.8C234.1,139.1,234.1,139,234.2,139 M235.6,142.3c0.2,0,0.2,0,0.2,0.2c-0.1,0.5-0.2,1-0.3,1.5
		c0,0.1-0.1,0.2-0.2,0.1c-0.5-0.3-1.1-0.5-1.8-0.8c-0.1-0.1-0.1-0.2,0-0.2C234.2,142.7,234.9,142.5,235.6,142.3 M234.3,145.2
		c-0.1,0.5-0.2,1-0.3,1.5c0,0.1-0.1,0.2-0.3,0.1c-0.5-0.3-1.1-0.5-1.8-0.8c-0.1-0.1-0.1-0.2,0-0.2c0.7-0.3,1.4-0.5,2.2-0.7
		C234.2,145,234.3,145.1,234.3,145.2 M231.3,140.9c0.7-0.3,1.4-0.5,2.2-0.7c0.1,0,0.2,0.1,0.2,0.2c-0.1,0.5-0.2,1-0.3,1.5
		c0,0.1-0.1,0.2-0.3,0.1c-0.5-0.3-1.1-0.5-1.8-0.8C231.2,141,231.2,140.9,231.3,140.9 M229,143.5c0.7-0.3,1.4-0.5,2.2-0.7
		c0.1,0,0.2,0,0.2,0.2c-0.1,0.5-0.2,1-0.3,1.5c0,0.1-0.1,0.2-0.3,0.1c-0.5-0.3-1.1-0.5-1.8-0.8C228.9,143.6,228.9,143.5,229,143.5
		 M228.2,146.4c0.7-0.3,1.4-0.5,2.2-0.7c0.1,0,0.2,0.1,0.2,0.2c-0.1,0.5-0.2,1-0.3,1.5c0,0.1-0.1,0.2-0.3,0.1
		c-0.5-0.3-1.1-0.5-1.8-0.8C228.1,146.6,228.1,146.5,228.2,146.4 M228.6,149.7c-0.1-0.1-0.1-0.2,0-0.2c0.7-0.3,1.4-0.6,2.2-0.7
		c0.1,0,0.2,0,0.2,0.2c-0.1,0.5-0.2,1-0.3,1.5c0,0.1-0.1,0.2-0.3,0.1C229.8,150.2,229.2,150,228.6,149.7 M232.4,153.3
		c0,0.1-0.1,0.2-0.3,0.1c-0.5-0.3-1.1-0.5-1.8-0.8c-0.1-0.1-0.1-0.2,0-0.2c0.7-0.3,1.4-0.5,2.2-0.7c0.2,0,0.2,0,0.2,0.2
		C232.6,152.3,232.5,152.8,232.4,153.3 M232.2,148.9c-0.1-0.1-0.1-0.2,0-0.2c0.7-0.3,1.4-0.6,2.2-0.7c0.1,0,0.2,0.1,0.2,0.2
		c-0.1,0.5-0.2,1-0.3,1.5c0,0.1-0.1,0.2-0.3,0.1C233.5,149.5,232.9,149.2,232.2,148.9 M235.6,155c0,0.1-0.1,0.2-0.3,0.1
		c-0.5-0.3-1.1-0.5-1.8-0.8c-0.1-0.1-0.1-0.2,0-0.2c0.7-0.3,1.4-0.6,2.2-0.7c0.1,0,0.2,0,0.2,0.2C235.8,153.9,235.7,154.4,235.6,155
		 M236.4,151.8c0,0.1-0.1,0.2-0.3,0.1c-0.5-0.3-1.1-0.5-1.8-0.8c-0.1-0.1-0.1-0.2,0-0.2c0.7-0.3,1.4-0.5,2.2-0.7
		c0.1,0,0.2,0.1,0.2,0.2C236.6,150.8,236.5,151.2,236.4,151.8 M239.6,153.3c-0.1,0.5-0.2,1-0.3,1.5c0,0.1-0.1,0.2-0.2,0.1
		c-0.5-0.3-1.1-0.5-1.8-0.8c-0.1-0.1-0.1-0.2,0-0.2c0.7-0.3,1.4-0.5,2.2-0.7C239.5,153.1,239.6,153.2,239.6,153.3 M239.7,151.7
		c-0.5-0.3-1.1-0.5-1.8-0.8c-0.1-0.1-0.1-0.2,0-0.2c0.7-0.3,1.4-0.6,2.2-0.7c0.1,0,0.2,0,0.2,0.2c-0.1,0.5-0.2,1-0.3,1.5
		C240,151.7,239.8,151.8,239.7,151.7 M242.4,155.7c-0.1,0.5-0.2,1-0.3,1.5c0,0.1-0.1,0.2-0.3,0.1c-0.5-0.3-1.1-0.5-1.8-0.8
		c-0.1-0.1-0.1-0.2,0-0.2c0.7-0.3,1.4-0.6,2.2-0.7C242.4,155.5,242.6,155.6,242.4,155.7 M243.2,152.5c-0.1,0.5-0.2,1-0.3,1.5
		c0,0.1-0.1,0.2-0.3,0.1c-0.5-0.3-1.1-0.5-1.8-0.8c-0.1-0.1-0.1-0.2,0-0.2c0.7-0.3,1.4-0.5,2.2-0.7
		C243.1,152.3,243.2,152.3,243.2,152.5 M243.6,150.5c0,0.1-0.1,0.2-0.2,0.1c-0.5-0.3-1.1-0.5-1.8-0.8c-0.1-0.1-0.1-0.2,0-0.2
		c0.7-0.3,1.4-0.5,2.2-0.7c0.1,0,0.2,0.1,0.2,0.2C243.9,149.5,243.7,150,243.6,150.5 M245.9,156.1c0,0.1-0.1,0.2-0.3,0.1
		c-0.5-0.3-1.1-0.5-1.8-0.8c-0.1-0.1-0.1-0.2,0-0.2c0.7-0.3,1.4-0.5,2.2-0.7c0.1,0,0.2,0.1,0.2,0.2
		C246.1,155.1,246,155.6,245.9,156.1 M246.6,153c0,0.1-0.1,0.2-0.2,0.1c-0.5-0.3-1.1-0.5-1.8-0.8c-0.1-0.1-0.1-0.2,0-0.2
		c0.7-0.3,1.4-0.6,2.2-0.7c0.1,0,0.2,0.1,0.2,0.2C246.8,152,246.7,152.5,246.6,153 M247,149.8c-0.5-0.3-1.1-0.5-1.8-0.8
		c-0.1-0.1-0.1-0.2,0-0.2c0.7-0.3,1.4-0.6,2.2-0.7c0.2,0,0.2,0.1,0.2,0.2c-0.1,0.5-0.2,1-0.3,1.5C247.3,149.8,247.1,149.9,247,149.8
		 M250,153.8c-0.1,0.5-0.2,1-0.3,1.5c0,0.1-0.1,0.2-0.3,0.1c-0.5-0.3-1.1-0.5-1.8-0.8c-0.1-0.1-0.1-0.2,0-0.2
		c0.7-0.3,1.4-0.6,2.2-0.7C249.9,153.6,250,153.7,250,153.8 M250.6,150.6c-0.1,0.5-0.2,1-0.3,1.5c0,0.1-0.1,0.2-0.3,0.1
		c-0.5-0.3-1.1-0.5-1.8-0.8c-0.1-0.1-0.1-0.2,0-0.2c0.7-0.3,1.4-0.6,2.2-0.7C250.6,150.5,250.7,150.5,250.6,150.6 M250.7,149.2
		c-0.5-0.3-1.1-0.5-1.8-0.8c-0.1-0.1-0.1-0.2,0-0.2c0.7-0.3,1.4-0.5,2.2-0.7c0.1,0,0.2,0.1,0.2,0.2c-0.1,0.5-0.2,1-0.3,1.5
		C251,149.2,250.9,149.3,250.7,149.2 M253.6,153.4c-0.1,0.5-0.2,1-0.3,1.5c0,0.1-0.1,0.2-0.3,0.1c-0.5-0.3-1.1-0.5-1.8-0.8
		c-0.1-0.1-0.1-0.2,0-0.2c0.7-0.3,1.4-0.6,2.2-0.7C253.6,153.2,253.7,153.3,253.6,153.4 M254.3,150.3c-0.1,0.5-0.2,1-0.3,1.5
		c0,0.1-0.1,0.2-0.2,0.1c-0.5-0.3-1.1-0.5-1.8-0.8c-0.1-0.1-0.1-0.2,0-0.2c0.7-0.3,1.4-0.5,2.2-0.7
		C254.2,150.1,254.3,150.2,254.3,150.3 M254.6,148.8c0,0.1-0.1,0.2-0.2,0.1c-0.5-0.3-1.1-0.5-1.8-0.8c-0.1-0.1-0.1-0.2,0-0.2
		c0.7-0.3,1.4-0.6,2.2-0.7c0.1,0,0.2,0,0.2,0.2C254.8,147.7,254.7,148.3,254.6,148.8 M257.2,153.6c-0.1,0.5-0.2,1-0.3,1.5
		c0,0.1-0.1,0.2-0.3,0.1c-0.5-0.3-1.1-0.6-1.8-0.8c-0.1-0.1-0.1-0.2,0-0.2c0.7-0.3,1.4-0.6,2.2-0.7
		C257.2,153.4,257.3,153.5,257.2,153.6 M257.9,150.4c-0.1,0.5-0.2,1-0.3,1.5c0,0.1-0.1,0.2-0.3,0.1c-0.5-0.3-1.1-0.5-1.8-0.8
		c-0.1-0.1-0.1-0.2,0-0.2c0.7-0.3,1.4-0.5,2.2-0.7C257.8,150.2,257.9,150.3,257.9,150.4 M258.7,147.3c-0.1,0.5-0.2,1-0.3,1.5
		c0,0.1-0.1,0.2-0.3,0.1c-0.5-0.3-1.1-0.5-1.8-0.8c-0.1-0.1-0.1-0.2,0-0.2c0.7-0.3,1.4-0.6,2.2-0.7
		C258.6,147.1,258.7,147.2,258.7,147.3 M261.1,152.6c0,0.1-0.1,0.2-0.2,0.1c-0.5-0.3-1.1-0.5-1.8-0.8c-0.1-0.1-0.1-0.2,0-0.2
		c0.7-0.3,1.4-0.5,2.2-0.7c0.1,0,0.2,0.1,0.2,0.2C261.3,151.6,261.2,152.1,261.1,152.6 M262.2,147.9c-0.1,0.5-0.2,1-0.3,1.5
		c0,0.1-0.1,0.2-0.2,0.1c-0.5-0.3-1.1-0.5-1.8-0.8c-0.1-0.1-0.1-0.2,0-0.2c0.7-0.3,1.4-0.5,2.2-0.7
		C262.1,147.7,262.2,147.7,262.2,147.9 M265.5,149.1c-0.1,0.5-0.2,1-0.3,1.5c0,0.1-0.1,0.2-0.2,0.1c-0.5-0.3-1.1-0.5-1.8-0.8
		c-0.1-0.1-0.1-0.2,0-0.2c0.7-0.3,1.4-0.6,2.2-0.7C265.5,148.9,265.6,149,265.5,149.1"/>
	<path class="st3" d="M279.4,152.1c-2.2-0.7-3.1-0.6-4.7,0c-1.5,0.6-2.4,0.2-3,0.1c0,0-0.1,1.8,2,1.5c0.9-0.1,2.4-0.5,3.6-0.2
		c2.4,0.7,1.8,1.8,4.9,3.8c0.9,0.5,1.9-0.5,2.6-0.2c0.3,0.1,0.6,1.4,1,1.4c0.4,0.1,1.1-0.9,1.9-0.8c0.4,0.1,0.5,1.3,1,1.4
		c0.4,0.1,1.1-0.9,1.8-0.7c0.5,0.1,0.5,1.3,1.1,1.4c0.4,0.1,1.1-0.9,1.7-0.8c0.4,0.1,0.5,0.6,1.2,1c0.6,0.3,1.2,0.3,1.5-0.1
		c0.3-0.5-0.1-0.9-0.9-1.3c-1.4-0.6-3.8-1.3-6.2-2c-2.4-0.7-4.4-1.5-4.5-2.8c-0.1-0.5,0.2-0.4,0.3-0.4c-0.9-0.7-1.1-1.3-1-1.7l0,0
		l0,0l0,0c-0.1,0-0.2,0.1-0.2,0.1C282.3,152.2,281.3,152.7,279.4,152.1"/>
</g>
<path class="st1" d="M153,482.4c7.1,0,13.3-4.7,13.3-12.8s-6.2-12.8-13.3-12.8s-13.3,4.7-13.3,12.8C139.7,477.6,146,482.4,153,482.4
	 M107.5,481.8h5.1l-11.8-24.6h-5l-10.9,24.6h4.5l2.4-5.6h13L107.5,481.8z M235.1,457.3h-18.6v24.6h19.1v-3.9h-14.6v-6.4h12.5v-3.9
	h-12.5v-6.4h14.3L235.1,457.3L235.1,457.3z M169.7,479.4c1,0.8,4,2.9,9.2,2.9c5.3,0,9.6-2.8,9.6-7.4c0-9.3-13.6-6.4-13.6-11.4
	c0-1.4,1.2-2.7,4.3-2.7c3.7,0,6.2,1.7,7.1,2.4l1.8-3.6c-1.2-1.1-4.5-2.9-9-2.9c-6.6,0-9.2,3.6-9.2,7.3c0,8.5,13.6,6,13.6,11.1
	c0,2.1-2.1,3-4.5,3c-3.6,0-6.7-1.6-7.9-2.6L169.7,479.4z M126.8,461.2c3.6,0,5.8,2,6.9,3l3-3c-1-1.2-3.9-4.4-10-4.4
	c-7,0-13.3,4.7-13.3,12.8s6.2,12.8,13.2,12.8c5.4,0,9.1-2.9,10.3-4l-2.4-3.5c-2,1.6-5,3.1-7.8,3.1c-4.9,0-8.5-3.6-8.5-8.4
	C118.2,464.8,121.9,461.2,126.8,461.2 M153,478c-4.9,0-8.5-3.6-8.5-8.4c0-4.7,3.7-8.4,8.5-8.4c4.9,0,8.5,3.6,8.5,8.4
	C161.6,474.3,157.9,478,153,478 M199.6,461.2v20.7h4.3v-20.7h8.6v-3.9h-21.4v3.9H199.6z M68.9,457.3h-4.3v24.6H82v-3.9H68.9V457.3z
	 M98.2,461.6l5,10.9h-9.7L98.2,461.6z"/>
<g>
	<path class="st2" d="M-18.1,758.8c-0.6-0.4-1.2-0.4-1.8-0.6c-0.8-0.2-1-1.2-1.3-1.3c-0.6-0.2-1.1,0.7-1.5,0.6
		c-0.4-0.1-0.5-1.3-0.8-1.4c-0.6-0.2-1.2,0.7-1.5,0.6c-0.4-0.1-0.5-1.3-0.8-1.4c-0.6-0.2-1.2,0.7-1.5,0.6c-0.4-0.1-0.5-1.3-0.7-1.4
		c-0.6-0.2-1.2,0.7-1.8,0.6c-0.4,0-1.1-0.2-2.1-0.9c-0.3-0.2-0.9-0.7-0.9-0.7c-0.1,0-0.4-0.1-0.3,0.4c0.1,1.2,2.2,2.1,4.7,2.8
		c2.4,0.7,4.9,1.4,6.3,2c0.9,0.4,1.3,0.9,1,1.4c-0.3,0.4-0.9,0.4-1.5,0.1c-0.7-0.3-0.8-0.9-1.3-1c-0.6-0.1-1.3,0.9-1.7,0.8
		c-0.6-0.1-0.6-1.4-1.1-1.5c-0.7-0.2-1.4,0.8-1.8,0.8c-0.4-0.1-0.6-1.4-1-1.5c-0.7-0.2-1.4,0.9-1.9,0.8c-0.4-0.1-0.7-1.4-1.1-1.5
		c-0.7-0.3-1.6,0.8-2.6,0.3c-3.1-2.1-2.5-3.2-4.9-3.9c-1.2-0.4-2.8,0.1-3.7,0.2c-2.1,0.2-2-1.6-2-1.6c0.6,0.1,1.5,0.5,3.1-0.1
		c1.7-0.6,2.7-0.8,4.9,0c1.9,0.6,3,0.1,3.6-0.1c0.3-0.1,0.6-0.3,1.2,0.1c0.6,0.4,1.2,0.8,1.5,0.7c0.5-0.2,0.3-1.5,1.1-1.7
		c0.4-0.1,1.4,0.9,1.8,0.7c0.4-0.2,0.3-1.5,1.1-1.7c0.4-0.1,1.3,0.9,1.8,0.7c0.4-0.2,0.3-1.5,1.1-1.7c0.4-0.1,1.4,0.9,1.8,0.7
		c0.4-0.2,0.3-1.5,1.1-1.7c0.4-0.1,1.4,0.9,1.8,0.7l0,0c0.4-0.2,0.4-0.5,0.7-1.4c0.1-0.2,0.2-0.3,0.4-0.5c0.5-0.4,1.2-1.2,0.8-2.2
		c-0.4-0.9-1.2-0.8-3-0.5c-1.5,0.3-10.8,2.3-10.8,2.3c-1.4-2.7-2.4-0.9-4.6-1.2c-1.4-0.2-3.6-1.5-7,1.7c-1.9-0.5-3.5-0.1-4.7,0.6
		c-2.1-0.8-6.1-2.9-13.6-2.9c-2.1,0-7.2,0.4-15.3,2.6c-2.1,0.5-4,0.4-4.4-0.8c-0.5-1.3,1.2-2.6,4.3-4.1c7.8-3.7,13-2.9,23.4-8.4
		c5.6-3,6-6.5,6-7.3c0-0.6-0.6-0.8-0.9-0.3c-1.9,2.6-2.4,2.4-3,1.8c-0.8-0.8-1.3,0.5-2.2,1.1c-0.6,0.5-0.8-0.1-1.3-0.4
		c-0.9-0.6-1.6,1.1-2.4,1.5c-0.9,0.4-1,0-1.3-0.4c-0.2-0.2-0.6-0.2-0.9,0c-1.8,1.7-2.1,1.5-2.6,0.9c-0.4-0.4-0.6-0.7-1.8,0.5
		c-0.7,0.7-1.8,1.5-2.1,0.6c-0.3-0.8-0.6-1.3-2.3,0.2c-1,0.9-1.6,1-1.9,0.5c-0.3-0.4-0.3-1.6-1.8-0.4c-1.4,1.1-2.1,1.7-2.5,0.7
		s-1.4-0.2-2.2,0.6c-0.4,0.4-1.1,1.3-1.6,0.4c-0.5-0.9-1.4,0-2.5,1.2c-0.6,0.7-1,0.4-1.6-0.1c-0.7-0.5-1.5,1.3-2.5,2.4
		c-0.2,0.2-0.5,0.3-1.1-0.1c-0.8-0.5-2.1,2.3-2.4,3c-0.6,1.1-1.2-0.3-1.9,0.7c-1.6,2.3-3.3,4.9-3.8,9.5c-0.6,5.5,1.5,10,3.5,11.6
		c0,0-0.2,0.6-0.5,1.4c-0.6,1.5-0.8,3.6-0.1,5c0.7,1.4,2.4,3.6,3,1.5c0.3-1,0.6-1,1.6-0.3c1.5,1.1,1.1-0.9,1.4-1.5
		c0.2-0.4,0.5-0.6,1.7,0.3c0.7,0.5,1-0.2,1.2-1.1c0.7-2.7-0.6-3.4-1.9-3.7c-0.9-0.2-1.9,0-1.9,0c2-3.1,2.3-4.8,0-6.4
		c0.3-0.2,0.6-0.1,0.9,0c0.6,0.2,1,0.7,1.3,1.2c0.3,0.6,0.8,1.8-0.2,4c0.4,0,2.1,0.1,2.9,1.8c1,0.3,7.5,0.8,10.3,0.4
		c1-0.2,1.5-1.1,2.5-2c1.1-1,2.4-2.2,3.6-1.3c-2,0.8-3.4,2.3-3.4,4.3c0,1.5,0.6,2,1.7,2.9c0.9,0.8,1.2,2,1.6,3
		c0.4,1.2,1.4,1.3,1.6,0.1c0.3-1.6,0.8-1.3,1.4-0.6c0.8,0.8,1.4,0.7,1.4-0.5c0-1.1,0.4-1.7,1.6-0.4c0.5,0.5,1.1,0.5,1.1-0.7
		c0-1.4,0.6-1.3,1.4-0.7c0.3,0.2,0.5,0.4,0.6,0.4c0.6,0,1.1-1.3,0.6-2.2c-0.2-0.5-0.6-1.2-3.9-1.9c-1.1-0.2-0.9-1-0.9-1
		c8,0.4,14.7-0.6,19.2-3.3c5.5,1.3,13.5,1.4,16.1,1.4s4.6-0.2,6.3-0.9C-17.1,760.6-17.3,759.3-18.1,758.8 M-34.6,746.4
		c0.2-0.4,0.5-0.7,0.8-0.7c0.6,0,0.9,0.7,0.9,0.9l-1.5,0.3C-34.8,747-34.8,746.8-34.6,746.4 M-38.4,746.3c1,0,1.6,0.8,1.8,1.1
		c0,0-1.5,0.3-2.2,0.5c-0.4,0.1-0.7-0.1-0.8-0.4C-39.7,747.1-39.3,746.3-38.4,746.3 M-80.7,736.9c0.7-0.3,1.4-0.6,2.2-0.7
		c0.2,0,0.3,0,0.2,0.2c-0.1,0.5-0.2,1-0.3,1.5c0,0.1-0.1,0.2-0.3,0.1c-0.6-0.3-1.2-0.6-1.8-0.9C-80.8,737.1-80.8,737-80.7,736.9
		 M-84,738.5c0.7-0.3,1.4-0.6,2.2-0.7c0.2,0,0.2,0.1,0.2,0.2c-0.1,0.5-0.2,1-0.4,1.5c0,0.1-0.1,0.2-0.3,0.1
		c-0.6-0.3-1.2-0.6-1.8-0.9C-84.2,738.7-84.2,738.6-84,738.5 M-82.6,742c0.2,0,0.3,0,0.2,0.2c-0.1,0.5-0.2,1-0.4,1.5
		c0,0.1-0.1,0.2-0.3,0.1c-0.6-0.3-1.2-0.6-1.8-0.9c-0.1-0.1-0.1-0.2,0-0.2C-84.1,742.4-83.4,742.1-82.6,742 M-84,744.9
		c-0.1,0.5-0.2,1-0.4,1.5c0,0.1-0.1,0.2-0.3,0.1c-0.6-0.3-1.2-0.6-1.8-0.9c-0.1-0.1-0.1-0.2,0-0.2c0.7-0.3,1.4-0.6,2.2-0.7
		C-84.1,744.7-84,744.8-84,744.9 M-87,740.5c0.7-0.3,1.4-0.6,2.2-0.7c0.2,0,0.3,0.1,0.2,0.2c-0.1,0.5-0.2,1-0.3,1.5
		c0,0.1-0.2,0.2-0.3,0.1c-0.6-0.3-1.2-0.6-1.8-0.9C-87.2,740.7-87.2,740.6-87,740.5 M-89.3,743.2c0.7-0.3,1.4-0.6,2.2-0.7
		c0.2,0,0.3,0.1,0.2,0.2c-0.1,0.5-0.2,1-0.4,1.5c0,0.1-0.1,0.2-0.3,0.1c-0.6-0.3-1.2-0.6-1.8-0.9C-89.5,743.3-89.5,743.2-89.3,743.2
		 M-90.2,746.2c0.7-0.3,1.4-0.6,2.2-0.7c0.1,0,0.2,0.1,0.2,0.2c-0.1,0.5-0.2,1-0.3,1.5c0,0.1-0.1,0.2-0.3,0.1
		c-0.6-0.3-1.2-0.6-1.8-0.9C-90.3,746.4-90.3,746.3-90.2,746.2 M-89.8,749.5c-0.1-0.1-0.1-0.2,0-0.2c0.7-0.3,1.4-0.6,2.2-0.7
		c0.1,0,0.2,0.1,0.2,0.2c-0.1,0.5-0.2,1-0.4,1.5c0,0.1-0.1,0.2-0.3,0.1C-88.6,750.1-89.2,749.8-89.8,749.5 M-85.9,753.2
		c0,0.1-0.2,0.2-0.3,0.1c-0.6-0.3-1.2-0.6-1.8-0.9c-0.1-0.1-0.1-0.2,0-0.2c0.7-0.3,1.4-0.6,2.2-0.7c0.2,0,0.3,0,0.2,0.2
		C-85.7,752.2-85.8,752.7-85.9,753.2 M-86.1,748.7c-0.1-0.1-0.1-0.2,0-0.2c0.7-0.3,1.4-0.6,2.2-0.7c0.2,0,0.2,0.1,0.2,0.2
		c-0.1,0.5-0.2,1-0.4,1.5c0,0.1-0.1,0.2-0.3,0.1C-84.8,749.3-85.4,749-86.1,748.7 M-82.6,754.9c0,0.1-0.1,0.2-0.3,0.1
		c-0.6-0.3-1.2-0.6-1.8-0.9c-0.1-0.1-0.1-0.2,0-0.2c0.7-0.3,1.4-0.6,2.2-0.7c0.1,0,0.3,0.1,0.2,0.2
		C-82.4,753.9-82.5,754.4-82.6,754.9 M-81.9,751.7c0,0.1-0.2,0.2-0.3,0.1c-0.6-0.3-1.2-0.6-1.8-0.9c-0.1-0.1-0.1-0.2,0-0.2
		c0.7-0.3,1.4-0.6,2.2-0.7c0.1,0,0.2,0.1,0.2,0.2C-81.7,750.6-81.8,751.1-81.9,751.7 M-78.6,753.3c-0.1,0.5-0.2,1-0.4,1.5
		c0,0.1-0.1,0.2-0.3,0.1c-0.6-0.3-1.2-0.6-1.8-0.9c-0.1-0.1-0.1-0.2,0-0.2c0.7-0.3,1.4-0.6,2.2-0.7C-78.7,753-78.6,753.1-78.6,753.3
		 M-78.5,751.5c-0.6-0.3-1.2-0.6-1.8-0.9c-0.1-0.1-0.1-0.2,0-0.2c0.7-0.3,1.4-0.6,2.2-0.7c0.1,0,0.2,0,0.2,0.2
		c-0.1,0.5-0.2,1-0.4,1.5C-78.2,751.5-78.3,751.6-78.5,751.5 M-75.6,755.7c-0.1,0.5-0.2,1-0.3,1.5c0,0.1-0.1,0.2-0.3,0.1
		c-0.6-0.3-1.2-0.6-1.8-0.9c-0.1-0.1-0.1-0.2,0-0.2c0.7-0.3,1.4-0.6,2.2-0.7C-75.7,755.4-75.6,755.5-75.6,755.7 M-74.9,752.3
		c-0.1,0.5-0.2,1-0.3,1.5c0,0.1-0.1,0.2-0.3,0.1c-0.6-0.3-1.2-0.6-1.8-0.9c-0.1-0.1-0.1-0.2,0-0.2c0.7-0.3,1.4-0.6,2.2-0.7
		C-75,752.1-74.9,752.2-74.9,752.3 M-74.5,750.4c0,0.1-0.1,0.2-0.3,0.1c-0.6-0.3-1.2-0.6-1.8-0.9c-0.1-0.1-0.1-0.2,0-0.2
		c0.7-0.3,1.4-0.6,2.2-0.7c0.2,0,0.3,0.1,0.2,0.2C-74.2,749.3-74.3,749.8-74.5,750.4 M-72.2,756.1c0,0.1-0.1,0.2-0.3,0.1
		c-0.6-0.3-1.2-0.6-1.8-0.9c-0.1-0.1-0.1-0.2,0-0.2c0.7-0.3,1.4-0.6,2.2-0.7c0.1,0,0.2,0.1,0.2,0.2C-72,755-72.1,755.6-72.2,756.1
		 M-71.5,752.9c0,0.1-0.1,0.2-0.3,0.1c-0.6-0.3-1.2-0.6-1.8-0.9c-0.1-0.1-0.1-0.2,0-0.2c0.7-0.3,1.4-0.6,2.2-0.7
		c0.2,0,0.3,0.1,0.2,0.2C-71.2,751.8-71.4,752.3-71.5,752.9 M-71,749.6c-0.6-0.3-1.2-0.6-1.8-0.9c-0.1-0.1-0.1-0.2,0-0.2
		c0.7-0.3,1.4-0.6,2.2-0.7c0.2,0,0.3,0.1,0.2,0.2c-0.1,0.5-0.2,1-0.3,1.5C-70.7,749.6-70.9,749.7-71,749.6 M-68,753.7
		c-0.1,0.5-0.2,1-0.4,1.5c0,0.1-0.1,0.2-0.3,0.1c-0.6-0.3-1.2-0.6-1.8-0.9c-0.1-0.1-0.1-0.2,0-0.2c0.7-0.3,1.4-0.6,2.2-0.7
		C-68.1,753.5-68,753.6-68,753.7 M-67.3,750.5c-0.1,0.5-0.2,1-0.3,1.5c0,0.1-0.1,0.2-0.3,0.1c-0.6-0.3-1.2-0.6-1.8-0.9
		c-0.1-0.1-0.1-0.2,0-0.2c0.7-0.3,1.4-0.6,2.2-0.7C-67.4,750.3-67.3,750.4-67.3,750.5 M-67.2,749c-0.6-0.3-1.2-0.6-1.8-0.9
		c-0.1-0.1-0.1-0.2,0-0.2c0.7-0.3,1.4-0.6,2.2-0.7c0.1,0,0.2,0.1,0.2,0.2c-0.1,0.5-0.2,1-0.4,1.5C-66.9,749-67.1,749.1-67.2,749
		 M-64.2,753.3c-0.1,0.5-0.2,1-0.3,1.5c0,0.1-0.2,0.2-0.3,0.1c-0.6-0.3-1.2-0.6-1.8-0.9c-0.1-0.1-0.1-0.2,0-0.2
		c0.7-0.3,1.4-0.6,2.2-0.7C-64.3,753.1-64.2,753.2-64.2,753.3 M-63.6,750.2c-0.1,0.5-0.2,1-0.3,1.5c0,0.1-0.1,0.2-0.3,0.1
		c-0.6-0.3-1.2-0.6-1.8-0.9c-0.1-0.1-0.1-0.2,0-0.2c0.7-0.3,1.4-0.6,2.2-0.7C-63.6,750-63.5,750-63.6,750.2 M-63.2,748.6
		c0,0.1-0.1,0.2-0.3,0.1c-0.6-0.3-1.2-0.6-1.8-0.9c-0.1-0.1-0.1-0.2,0-0.2c0.7-0.3,1.4-0.6,2.2-0.7c0.2,0,0.2,0,0.2,0.2
		C-63,747.5-63.1,748-63.2,748.6 M-60.5,753.5c-0.1,0.5-0.2,1-0.3,1.5c0,0.1-0.1,0.2-0.3,0.1c-0.6-0.3-1.2-0.6-1.8-0.9
		c-0.1-0.1-0.1-0.2,0-0.2c0.7-0.3,1.4-0.6,2.2-0.7C-60.6,753.3-60.5,753.4-60.5,753.5 M-59.8,750.3c-0.1,0.5-0.2,1-0.3,1.5
		c0,0.1-0.2,0.2-0.3,0.1c-0.6-0.3-1.2-0.6-1.8-0.9c-0.1-0.1-0.1-0.2,0-0.2c0.7-0.3,1.4-0.6,2.2-0.7
		C-59.9,750.1-59.8,750.1-59.8,750.3 M-59.1,747.1c-0.1,0.5-0.2,1-0.4,1.5c0,0.1-0.1,0.2-0.3,0.1c-0.6-0.3-1.2-0.6-1.8-0.9
		c-0.1-0.1-0.1-0.2,0-0.2c0.7-0.3,1.4-0.6,2.2-0.7C-59.2,746.9-59.1,747-59.1,747.1 M-56.6,752.5c0,0.1-0.1,0.2-0.3,0.1
		c-0.6-0.3-1.2-0.6-1.8-0.9c-0.1-0.1-0.1-0.2,0-0.2c0.7-0.3,1.4-0.6,2.2-0.7c0.2,0,0.2,0.1,0.2,0.2C-56.4,751.4-56.5,752-56.6,752.5
		 M-55.5,747.7c-0.1,0.5-0.2,1-0.3,1.5c0,0.1-0.1,0.2-0.3,0.1c-0.6-0.3-1.2-0.6-1.8-0.9c-0.1-0.1-0.1-0.2,0-0.2
		c0.7-0.3,1.4-0.6,2.2-0.7C-55.6,747.5-55.5,747.6-55.5,747.7 M-52.1,748.9c-0.1,0.5-0.2,1-0.4,1.5c0,0.1-0.1,0.2-0.3,0.1
		c-0.6-0.3-1.2-0.6-1.8-0.9c-0.1-0.1-0.1-0.2,0-0.2c0.7-0.3,1.4-0.6,2.2-0.7C-52.2,748.7-52.1,748.8-52.1,748.9"/>
	<path class="st3" d="M-37.9,752c-2.2-0.8-3.2-0.6-4.9,0c-1.6,0.6-2.4,0.2-3.1,0.1c0,0-0.1,1.8,2,1.6c0.9-0.1,2.4-0.5,3.7-0.2
		c2.4,0.7,1.8,1.8,4.9,3.9c1,0.5,1.9-0.5,2.6-0.3c0.4,0.1,0.6,1.4,1.1,1.5c0.4,0.1,1.2-1,1.9-0.8c0.4,0.1,0.6,1.4,1,1.5
		s1.2-0.9,1.8-0.8c0.5,0.1,0.6,1.4,1.1,1.5c0.4,0.1,1.2-1,1.7-0.8c0.5,0.1,0.5,0.7,1.3,1c0.7,0.3,1.3,0.3,1.5-0.1
		c0.3-0.5-0.1-1-1-1.4c-1.5-0.7-3.9-1.3-6.3-2c-2.4-0.7-4.5-1.6-4.7-2.8c-0.1-0.5,0.2-0.5,0.3-0.4c-0.9-0.7-1.1-1.3-1.1-1.7l0,0l0,0
		l0,0c-0.1,0-0.2,0.1-0.3,0.1C-34.9,752-36.1,752.6-37.9,752"/>
</g>
<path class="st4" d="M-60.4,875.2c-0.6-0.4-1.2-0.4-1.8-0.6c-0.8-0.2-1-1.2-1.3-1.3c-0.6-0.2-1.1,0.7-1.5,0.6
	c-0.4-0.1-0.5-1.3-0.8-1.4c-0.6-0.2-1.2,0.7-1.5,0.6c-0.4-0.1-0.5-1.3-0.8-1.4c-0.6-0.2-1.2,0.7-1.5,0.6c-0.4-0.1-0.5-1.3-0.7-1.4
	c-0.6-0.2-1.2,0.7-1.8,0.6c-0.4,0-1.1-0.2-2.1-0.9c-0.3-0.2-0.9-0.7-0.9-0.7c-0.1,0-0.4-0.1-0.3,0.4c0.1,1.2,2.2,2.1,4.7,2.8
	c2.4,0.7,4.9,1.4,6.3,2c0.9,0.4,1.3,0.9,1,1.4c-0.3,0.4-0.9,0.4-1.5,0.1c-0.7-0.3-0.8-0.9-1.3-1c-0.6-0.1-1.3,0.9-1.7,0.8
	c-0.6-0.1-0.6-1.4-1.1-1.5c-0.7-0.2-1.4,0.8-1.8,0.8c-0.4-0.1-0.6-1.4-1-1.5c-0.7-0.2-1.4,0.9-1.9,0.8c-0.4-0.1-0.7-1.4-1.1-1.5
	c-0.7-0.3-1.6,0.8-2.6,0.3c-3.1-2.1-2.5-3.2-4.9-3.9c-1.2-0.4-2.8,0.1-3.7,0.2c-2.1,0.2-2-1.6-2-1.6c0.6,0.1,1.5,0.5,3.1-0.1
	c1.7-0.6,2.7-0.8,4.9,0c1.9,0.6,3,0.1,3.6-0.1c0.3-0.1,0.6-0.3,1.2,0.1c0.6,0.4,1.2,0.8,1.5,0.7c0.5-0.2,0.3-1.5,1.1-1.7
	c0.4-0.1,1.4,0.9,1.8,0.7c0.4-0.2,0.3-1.5,1.1-1.7c0.4-0.1,1.3,0.9,1.8,0.7c0.4-0.2,0.3-1.5,1.1-1.7c0.4-0.1,1.4,0.9,1.8,0.7
	c0.4-0.2,0.3-1.5,1.1-1.7c0.4-0.1,1.4,0.9,1.8,0.7l0,0c0.4-0.2,0.4-0.5,0.7-1.4c0.1-0.2,0.2-0.3,0.4-0.5c0.5-0.4,1.2-1.2,0.8-2.2
	c-0.4-0.9-1.2-0.8-3-0.5c-1.5,0.3-10.8,2.3-10.8,2.3c-1.4-2.7-2.4-0.9-4.6-1.2c-1.4-0.2-3.6-1.5-7,1.7c-1.9-0.5-3.5-0.1-4.7,0.6
	c-2.1-0.8-6.1-2.9-13.6-2.9c-2.1,0-7.2,0.4-15.3,2.6c-2.1,0.5-4,0.4-4.4-0.8c-0.5-1.3,1.2-2.6,4.3-4.1c7.8-3.7,13-2.9,23.4-8.4
	c5.6-3,6-6.5,6-7.3c0-0.6-0.6-0.8-0.9-0.3c-1.9,2.6-2.4,2.4-3,1.8c-0.8-0.8-1.3,0.5-2.2,1.1c-0.6,0.5-0.8-0.1-1.3-0.4
	c-0.9-0.6-1.6,1.1-2.4,1.5c-0.9,0.4-1,0-1.3-0.4c-0.2-0.2-0.6-0.2-0.9,0c-1.8,1.7-2.1,1.5-2.6,0.9c-0.4-0.4-0.6-0.7-1.8,0.5
	c-0.7,0.7-1.8,1.5-2.1,0.6c-0.3-0.8-0.6-1.3-2.3,0.2c-1,0.9-1.6,1-1.9,0.5c-0.3-0.4-0.3-1.6-1.8-0.4c-1.4,1.1-2.1,1.7-2.5,0.7
	s-1.4-0.2-2.2,0.6c-0.4,0.4-1.1,1.3-1.6,0.4c-0.5-0.9-1.4,0-2.5,1.2c-0.6,0.7-1,0.4-1.6-0.1c-0.7-0.5-1.5,1.3-2.5,2.4
	c-0.2,0.2-0.5,0.3-1.1-0.1c-0.8-0.5-2.1,2.3-2.4,3c-0.6,1.1-1.2-0.3-1.9,0.7c-1.6,2.3-3.3,4.9-3.8,9.5c-0.6,5.5,1.5,10,3.5,11.6
	c0,0-0.2,0.6-0.5,1.4c-0.6,1.5-0.8,3.6-0.1,5s2.4,3.6,3,1.5c0.3-1,0.6-1,1.6-0.3c1.5,1.1,1.1-0.9,1.4-1.5c0.2-0.4,0.5-0.6,1.7,0.3
	c0.7,0.5,1-0.2,1.2-1.1c0.7-2.7-0.6-3.4-1.9-3.7c-0.9-0.2-1.9,0-1.9,0c2-3.1,2.3-4.8,0-6.4c0.3-0.2,0.6-0.1,0.9,0
	c0.6,0.2,1.3,0.7,1.6,1.2c0.3,0.6,0.8,1.8-0.2,4c0.4,0,2.3-0.1,3.1,1.6c1,0.3,6.5,1,9.3,0.6c1-0.2,1.5-1.1,2.5-2
	c1.1-1,3.3-2.2,4.5-1.3c-2,0.8-3.6,2.3-3.6,4.3c0,1.5,0.6,2,1.7,2.9c0.9,0.8,1.1,2.3,1.5,3.3c0.4,1.2,1.4,1.3,1.6,0.1
	c0.3-1.6,0.8-1.3,1.4-0.6c0.8,0.8,1.4,0.7,1.4-0.5c0-1.1,0.4-1.7,1.6-0.4c0.5,0.5,1.1,0.5,1.1-0.7c0-1.4,0.6-1.3,1.4-0.7
	c0.3,0.2,0.5,0.4,0.6,0.4c0.6,0,1.1-1.3,0.6-2.2c-0.2-0.5-1-1.5-4.3-2.2c-1.1-0.2-0.9-1-0.9-1c8,0.4,15.1-0.6,19.6-3.3
	c5.5,1.3,13.5,1.4,16.1,1.4s4.6-0.2,6.3-0.9C-59.4,877-59.6,875.7-60.4,875.2 M-76.9,862.8c0.2-0.4,0.5-0.7,0.8-0.7
	c0.6,0,0.9,0.7,0.9,0.9l-1.5,0.3C-77.1,863.4-77.1,863.2-76.9,862.8 M-80.7,862.7c1,0,1.6,0.8,1.8,1.1c0,0-1.5,0.3-2.2,0.5
	c-0.4,0.1-0.7-0.1-0.8-0.4C-82,863.5-81.6,862.7-80.7,862.7 M-123,853.3c0.7-0.3,1.4-0.6,2.2-0.7c0.2,0,0.3,0,0.2,0.2
	c-0.1,0.5-0.2,1-0.3,1.5c0,0.1-0.1,0.2-0.3,0.1c-0.6-0.3-1.2-0.6-1.8-0.9C-123.1,853.5-123.1,853.4-123,853.3 M-126.3,854.9
	c0.7-0.3,1.4-0.6,2.2-0.7c0.2,0,0.2,0.1,0.2,0.2c-0.1,0.5-0.2,1-0.4,1.5c0,0.1-0.1,0.2-0.3,0.1c-0.6-0.3-1.2-0.6-1.8-0.9
	C-126.5,855.1-126.5,855-126.3,854.9 M-124.9,858.4c0.2,0,0.3,0,0.2,0.2c-0.1,0.5-0.2,1-0.4,1.5c0,0.1-0.1,0.2-0.3,0.1
	c-0.6-0.3-1.2-0.6-1.8-0.9c-0.1-0.1-0.1-0.2,0-0.2C-126.4,858.8-125.7,858.5-124.9,858.4 M-126.3,861.3c-0.1,0.5-0.2,1-0.4,1.5
	c0,0.1-0.1,0.2-0.3,0.1c-0.6-0.3-1.2-0.6-1.8-0.9c-0.1-0.1-0.1-0.2,0-0.2c0.7-0.3,1.4-0.6,2.2-0.7
	C-126.4,861.1-126.3,861.2-126.3,861.3 M-129.3,856.9c0.7-0.3,1.4-0.6,2.2-0.7c0.2,0,0.3,0.1,0.2,0.2c-0.1,0.5-0.2,1-0.3,1.5
	c0,0.1-0.2,0.2-0.3,0.1c-0.6-0.3-1.2-0.6-1.8-0.9C-129.5,857.1-129.5,857-129.3,856.9 M-131.6,859.6c0.7-0.3,1.4-0.6,2.2-0.7
	c0.2,0,0.3,0.1,0.2,0.2c-0.1,0.5-0.2,1-0.4,1.5c0,0.1-0.1,0.2-0.3,0.1c-0.6-0.3-1.2-0.6-1.8-0.9
	C-131.8,859.7-131.8,859.6-131.6,859.6 M-132.5,862.6c0.7-0.3,1.4-0.6,2.2-0.7c0.1,0,0.2,0.1,0.2,0.2c-0.1,0.5-0.2,1-0.3,1.5
	c0,0.1-0.1,0.2-0.3,0.1c-0.6-0.3-1.2-0.6-1.8-0.9C-132.6,862.8-132.6,862.7-132.5,862.6 M-132.1,865.9c-0.1-0.1-0.1-0.2,0-0.2
	c0.7-0.3,1.4-0.6,2.2-0.7c0.1,0,0.2,0.1,0.2,0.2c-0.1,0.5-0.2,1-0.4,1.5c0,0.1-0.1,0.2-0.3,0.1
	C-130.9,866.5-131.5,866.2-132.1,865.9 M-128.2,869.6c0,0.1-0.2,0.2-0.3,0.1c-0.6-0.3-1.2-0.6-1.8-0.9c-0.1-0.1-0.1-0.2,0-0.2
	c0.7-0.3,1.4-0.6,2.2-0.7c0.2,0,0.3,0,0.2,0.2C-128,868.6-128.1,869.1-128.2,869.6 M-128.4,865.1c-0.1-0.1-0.1-0.2,0-0.2
	c0.7-0.3,1.4-0.6,2.2-0.7c0.2,0,0.2,0.1,0.2,0.2c-0.1,0.5-0.2,1-0.4,1.5c0,0.1-0.1,0.2-0.3,0.1
	C-127.1,865.7-127.7,865.4-128.4,865.1 M-124.9,871.3c0,0.1-0.1,0.2-0.3,0.1c-0.6-0.3-1.2-0.6-1.8-0.9c-0.1-0.1-0.1-0.2,0-0.2
	c0.7-0.3,1.4-0.6,2.2-0.7c0.1,0,0.3,0.1,0.2,0.2C-124.7,870.3-124.8,870.8-124.9,871.3 M-124.2,868.1c0,0.1-0.2,0.2-0.3,0.1
	c-0.6-0.3-1.2-0.6-1.8-0.9c-0.1-0.1-0.1-0.2,0-0.2c0.7-0.3,1.4-0.6,2.2-0.7c0.1,0,0.2,0.1,0.2,0.2C-124,867-124.1,867.5-124.2,868.1
	 M-120.9,869.7c-0.1,0.5-0.2,1-0.4,1.5c0,0.1-0.1,0.2-0.3,0.1c-0.6-0.3-1.2-0.6-1.8-0.9c-0.1-0.1-0.1-0.2,0-0.2
	c0.7-0.3,1.4-0.6,2.2-0.7C-121,869.4-120.9,869.5-120.9,869.7 M-120.8,867.9c-0.6-0.3-1.2-0.6-1.8-0.9c-0.1-0.1-0.1-0.2,0-0.2
	c0.7-0.3,1.4-0.6,2.2-0.7c0.1,0,0.2,0,0.2,0.2c-0.1,0.5-0.2,1-0.4,1.5C-120.5,867.9-120.6,868-120.8,867.9 M-117.2,868.7
	c-0.1,0.5-0.2,1-0.3,1.5c0,0.1-0.1,0.2-0.3,0.1c-0.6-0.3-1.2-0.6-1.8-0.9c-0.1-0.1-0.1-0.2,0-0.2c0.7-0.3,1.4-0.6,2.2-0.7
	C-117.3,868.5-117.2,868.6-117.2,868.7 M-116.8,866.8c0,0.1-0.1,0.2-0.3,0.1c-0.6-0.3-1.2-0.6-1.8-0.9c-0.1-0.1-0.1-0.2,0-0.2
	c0.7-0.3,1.4-0.6,2.2-0.7c0.2,0,0.3,0.1,0.2,0.2C-116.5,865.7-116.6,866.2-116.8,866.8 M-113.8,869.3c0,0.1-0.1,0.2-0.3,0.1
	c-0.6-0.3-1.2-0.6-1.8-0.9c-0.1-0.1-0.1-0.2,0-0.2c0.7-0.3,1.4-0.6,2.2-0.7c0.2,0,0.3,0.1,0.2,0.2
	C-113.5,868.2-113.7,868.7-113.8,869.3 M-113.3,866c-0.6-0.3-1.2-0.6-1.8-0.9c-0.1-0.1-0.1-0.2,0-0.2c0.7-0.3,1.4-0.6,2.2-0.7
	c0.2,0,0.3,0.1,0.2,0.2c-0.1,0.5-0.2,1-0.3,1.5C-113,866-113.2,866.1-113.3,866 M-109.6,866.9c-0.1,0.5-0.2,1-0.3,1.5
	c0,0.1-0.1,0.2-0.3,0.1c-0.6-0.3-1.2-0.6-1.8-0.9c-0.1-0.1-0.1-0.2,0-0.2c0.7-0.3,1.4-0.6,2.2-0.7
	C-109.7,866.7-109.6,866.8-109.6,866.9 M-109.5,865.4c-0.6-0.3-1.2-0.6-1.8-0.9c-0.1-0.1-0.1-0.2,0-0.2c0.7-0.3,1.4-0.6,2.2-0.7
	c0.1,0,0.2,0.1,0.2,0.2c-0.1,0.5-0.2,1-0.4,1.5C-109.2,865.4-109.4,865.5-109.5,865.4 M-105.9,866.6c-0.1,0.5-0.2,1-0.3,1.5
	c0,0.1-0.1,0.2-0.3,0.1c-0.6-0.3-1.2-0.6-1.8-0.9c-0.1-0.1-0.1-0.2,0-0.2c0.7-0.3,1.4-0.6,2.2-0.7
	C-105.9,866.4-105.8,866.4-105.9,866.6 M-105.5,865c0,0.1-0.1,0.2-0.3,0.1c-0.6-0.3-1.2-0.6-1.8-0.9c-0.1-0.1-0.1-0.2,0-0.2
	c0.7-0.3,1.4-0.6,2.2-0.7c0.2,0,0.2,0,0.2,0.2C-105.3,863.9-105.4,864.4-105.5,865 M-102.1,866.7c-0.1,0.5-0.2,1-0.3,1.5
	c0,0.1-0.2,0.2-0.3,0.1c-0.6-0.3-1.2-0.6-1.8-0.9c-0.1-0.1-0.1-0.2,0-0.2c0.7-0.3,1.4-0.6,2.2-0.7
	C-102.2,866.5-102.1,866.5-102.1,866.7 M-101.4,863.5c-0.1,0.5-0.2,1-0.4,1.5c0,0.1-0.1,0.2-0.3,0.1c-0.6-0.3-1.2-0.6-1.8-0.9
	c-0.1-0.1-0.1-0.2,0-0.2c0.7-0.3,1.4-0.6,2.2-0.7C-101.5,863.3-101.4,863.4-101.4,863.5 M-98.9,868.9c0,0.1-0.1,0.2-0.3,0.1
	c-0.6-0.3-1.2-0.6-1.8-0.9c-0.1-0.1-0.1-0.2,0-0.2c0.7-0.3,1.4-0.6,2.2-0.7c0.2,0,0.2,0.1,0.2,0.2
	C-98.7,867.8-98.8,868.4-98.9,868.9 M-97.8,864.1c-0.1,0.5-0.2,1-0.3,1.5c0,0.1-0.1,0.2-0.3,0.1c-0.6-0.3-1.2-0.6-1.8-0.9
	c-0.1-0.1-0.1-0.2,0-0.2c0.7-0.3,1.4-0.6,2.2-0.7C-97.9,863.9-97.8,864-97.8,864.1 M-94.4,865.3c-0.1,0.5-0.2,1-0.4,1.5
	c0,0.1-0.1,0.2-0.3,0.1c-0.6-0.3-1.2-0.6-1.8-0.9c-0.1-0.1-0.1-0.2,0-0.2c0.7-0.3,1.4-0.6,2.2-0.7
	C-94.5,865.1-94.4,865.2-94.4,865.3"/>
<g>
	<path class="st5" d="M-76.9,862.8c0.2-0.4,0.5-0.7,0.8-0.7c0.6,0,0.9,0.7,0.9,0.9l-1.5,0.3C-77.1,863.4-77.1,863.2-76.9,862.8
		 M-80.7,862.7c1,0,1.6,0.8,1.8,1.1c0,0-1.5,0.3-2.2,0.5c-0.4,0.1-0.7-0.1-0.8-0.4C-82,863.5-81.6,862.7-80.7,862.7 M-123,853.3
		c0.7-0.3,1.4-0.6,2.2-0.7c0.2,0,0.3,0,0.2,0.2c-0.1,0.5-0.2,1-0.3,1.5c0,0.1-0.1,0.2-0.3,0.1c-0.6-0.3-1.2-0.6-1.8-0.9
		C-123.1,853.5-123.1,853.4-123,853.3 M-126.3,854.9c0.7-0.3,1.4-0.6,2.2-0.7c0.2,0,0.2,0.1,0.2,0.2c-0.1,0.5-0.2,1-0.4,1.5
		c0,0.1-0.1,0.2-0.3,0.1c-0.6-0.3-1.2-0.6-1.8-0.9C-126.5,855.1-126.5,855-126.3,854.9 M-124.9,858.4c0.2,0,0.3,0,0.2,0.2
		c-0.1,0.5-0.2,1-0.4,1.5c0,0.1-0.1,0.2-0.3,0.1c-0.6-0.3-1.2-0.6-1.8-0.9c-0.1-0.1-0.1-0.2,0-0.2
		C-126.4,858.8-125.7,858.5-124.9,858.4 M-126.3,861.3c-0.1,0.5-0.2,1-0.4,1.5c0,0.1-0.1,0.2-0.3,0.1c-0.6-0.3-1.2-0.6-1.8-0.9
		c-0.1-0.1-0.1-0.2,0-0.2c0.7-0.3,1.4-0.6,2.2-0.7C-126.4,861.1-126.3,861.2-126.3,861.3 M-129.3,856.9c0.7-0.3,1.4-0.6,2.2-0.7
		c0.2,0,0.3,0.1,0.2,0.2c-0.1,0.5-0.2,1-0.3,1.5c0,0.1-0.2,0.2-0.3,0.1c-0.6-0.3-1.2-0.6-1.8-0.9
		C-129.5,857.1-129.5,857-129.3,856.9 M-131.6,859.6c0.7-0.3,1.4-0.6,2.2-0.7c0.2,0,0.3,0.1,0.2,0.2c-0.1,0.5-0.2,1-0.4,1.5
		c0,0.1-0.1,0.2-0.3,0.1c-0.6-0.3-1.2-0.6-1.8-0.9C-131.8,859.7-131.8,859.6-131.6,859.6 M-132.5,862.6c0.7-0.3,1.4-0.6,2.2-0.7
		c0.1,0,0.2,0.1,0.2,0.2c-0.1,0.5-0.2,1-0.3,1.5c0,0.1-0.1,0.2-0.3,0.1c-0.6-0.3-1.2-0.6-1.8-0.9
		C-132.6,862.8-132.6,862.7-132.5,862.6 M-132.1,865.9c-0.1-0.1-0.1-0.2,0-0.2c0.7-0.3,1.4-0.6,2.2-0.7c0.1,0,0.2,0.1,0.2,0.2
		c-0.1,0.5-0.2,1-0.4,1.5c0,0.1-0.1,0.2-0.3,0.1C-130.9,866.5-131.5,866.2-132.1,865.9 M-128.2,869.6c0,0.1-0.2,0.2-0.3,0.1
		c-0.6-0.3-1.2-0.6-1.8-0.9c-0.1-0.1-0.1-0.2,0-0.2c0.7-0.3,1.4-0.6,2.2-0.7c0.2,0,0.3,0,0.2,0.2
		C-128,868.6-128.1,869.1-128.2,869.6 M-128.4,865.1c-0.1-0.1-0.1-0.2,0-0.2c0.7-0.3,1.4-0.6,2.2-0.7c0.2,0,0.2,0.1,0.2,0.2
		c-0.1,0.5-0.2,1-0.4,1.5c0,0.1-0.1,0.2-0.3,0.1C-127.1,865.7-127.7,865.4-128.4,865.1 M-124.9,871.3c0,0.1-0.1,0.2-0.3,0.1
		c-0.6-0.3-1.2-0.6-1.8-0.9c-0.1-0.1-0.1-0.2,0-0.2c0.7-0.3,1.4-0.6,2.2-0.7c0.1,0,0.3,0.1,0.2,0.2
		C-124.7,870.3-124.8,870.8-124.9,871.3 M-124.2,868.1c0,0.1-0.2,0.2-0.3,0.1c-0.6-0.3-1.2-0.6-1.8-0.9c-0.1-0.1-0.1-0.2,0-0.2
		c0.7-0.3,1.4-0.6,2.2-0.7c0.1,0,0.2,0.1,0.2,0.2C-124,867-124.1,867.5-124.2,868.1 M-120.9,869.7c-0.1,0.5-0.2,1-0.4,1.5
		c0,0.1-0.1,0.2-0.3,0.1c-0.6-0.3-1.2-0.6-1.8-0.9c-0.1-0.1-0.1-0.2,0-0.2c0.7-0.3,1.4-0.6,2.2-0.7
		C-121,869.4-120.9,869.5-120.9,869.7 M-120.8,867.9c-0.6-0.3-1.2-0.6-1.8-0.9c-0.1-0.1-0.1-0.2,0-0.2c0.7-0.3,1.4-0.6,2.2-0.7
		c0.1,0,0.2,0,0.2,0.2c-0.1,0.5-0.2,1-0.4,1.5C-120.5,867.9-120.6,868-120.8,867.9 M-117.2,868.7c-0.1,0.5-0.2,1-0.3,1.5
		c0,0.1-0.1,0.2-0.3,0.1c-0.6-0.3-1.2-0.6-1.8-0.9c-0.1-0.1-0.1-0.2,0-0.2c0.7-0.3,1.4-0.6,2.2-0.7
		C-117.3,868.5-117.2,868.6-117.2,868.7 M-116.8,866.8c0,0.1-0.1,0.2-0.3,0.1c-0.6-0.3-1.2-0.6-1.8-0.9c-0.1-0.1-0.1-0.2,0-0.2
		c0.7-0.3,1.4-0.6,2.2-0.7c0.2,0,0.3,0.1,0.2,0.2C-116.5,865.7-116.6,866.2-116.8,866.8 M-113.8,869.3c0,0.1-0.1,0.2-0.3,0.1
		c-0.6-0.3-1.2-0.6-1.8-0.9c-0.1-0.1-0.1-0.2,0-0.2c0.7-0.3,1.4-0.6,2.2-0.7c0.2,0,0.3,0.1,0.2,0.2
		C-113.5,868.2-113.7,868.7-113.8,869.3 M-113.3,866c-0.6-0.3-1.2-0.6-1.8-0.9c-0.1-0.1-0.1-0.2,0-0.2c0.7-0.3,1.4-0.6,2.2-0.7
		c0.2,0,0.3,0.1,0.2,0.2c-0.1,0.5-0.2,1-0.3,1.5C-113,866-113.2,866.1-113.3,866 M-109.6,866.9c-0.1,0.5-0.2,1-0.3,1.5
		c0,0.1-0.1,0.2-0.3,0.1c-0.6-0.3-1.2-0.6-1.8-0.9c-0.1-0.1-0.1-0.2,0-0.2c0.7-0.3,1.4-0.6,2.2-0.7
		C-109.7,866.7-109.6,866.8-109.6,866.9 M-109.5,865.4c-0.6-0.3-1.2-0.6-1.8-0.9c-0.1-0.1-0.1-0.2,0-0.2c0.7-0.3,1.4-0.6,2.2-0.7
		c0.1,0,0.2,0.1,0.2,0.2c-0.1,0.5-0.2,1-0.4,1.5C-109.2,865.4-109.4,865.5-109.5,865.4 M-105.9,866.6c-0.1,0.5-0.2,1-0.3,1.5
		c0,0.1-0.1,0.2-0.3,0.1c-0.6-0.3-1.2-0.6-1.8-0.9c-0.1-0.1-0.1-0.2,0-0.2c0.7-0.3,1.4-0.6,2.2-0.7
		C-105.9,866.4-105.8,866.4-105.9,866.6 M-105.5,865c0,0.1-0.1,0.2-0.3,0.1c-0.6-0.3-1.2-0.6-1.8-0.9c-0.1-0.1-0.1-0.2,0-0.2
		c0.7-0.3,1.4-0.6,2.2-0.7c0.2,0,0.2,0,0.2,0.2C-105.3,863.9-105.4,864.4-105.5,865 M-102.1,866.7c-0.1,0.5-0.2,1-0.3,1.5
		c0,0.1-0.2,0.2-0.3,0.1c-0.6-0.3-1.2-0.6-1.8-0.9c-0.1-0.1-0.1-0.2,0-0.2c0.7-0.3,1.4-0.6,2.2-0.7
		C-102.2,866.5-102.1,866.5-102.1,866.7 M-101.4,863.5c-0.1,0.5-0.2,1-0.4,1.5c0,0.1-0.1,0.2-0.3,0.1c-0.6-0.3-1.2-0.6-1.8-0.9
		c-0.1-0.1-0.1-0.2,0-0.2c0.7-0.3,1.4-0.6,2.2-0.7C-101.5,863.3-101.4,863.4-101.4,863.5 M-98.9,868.9c0,0.1-0.1,0.2-0.3,0.1
		c-0.6-0.3-1.2-0.6-1.8-0.9c-0.1-0.1-0.1-0.2,0-0.2c0.7-0.3,1.4-0.6,2.2-0.7c0.2,0,0.2,0.1,0.2,0.2
		C-98.7,867.8-98.8,868.4-98.9,868.9 M-97.8,864.1c-0.1,0.5-0.2,1-0.3,1.5c0,0.1-0.1,0.2-0.3,0.1c-0.6-0.3-1.2-0.6-1.8-0.9
		c-0.1-0.1-0.1-0.2,0-0.2c0.7-0.3,1.4-0.6,2.2-0.7C-97.9,863.9-97.8,864-97.8,864.1 M-94.4,865.3c-0.1,0.5-0.2,1-0.4,1.5
		c0,0.1-0.1,0.2-0.3,0.1c-0.6-0.3-1.2-0.6-1.8-0.9c-0.1-0.1-0.1-0.2,0-0.2c0.7-0.3,1.4-0.6,2.2-0.7
		C-94.5,865.1-94.4,865.2-94.4,865.3"/>
</g>
<path class="st2" d="M-60.7,966.7c-0.4-0.3-0.9-0.4-1.3-0.5c-0.2,0-0.4-0.1-0.6-0.2c-0.4-0.1-0.6-0.5-0.8-0.8
	c-0.1-0.2-0.3-0.4-0.5-0.5c-0.5-0.2-0.9,0.1-1.1,0.4c-0.1,0.1-0.3,0.2-0.4,0.2c-0.1,0-0.2-0.4-0.3-0.6c-0.1-0.4-0.2-0.7-0.5-0.8
	c-0.5-0.2-0.9,0.2-1.2,0.4c-0.1,0.1-0.3,0.2-0.3,0.2c-0.1,0-0.2-0.4-0.3-0.6c-0.1-0.4-0.2-0.7-0.5-0.8c-0.5-0.2-0.9,0.2-1.2,0.4
	c-0.1,0.1-0.3,0.2-0.3,0.2c-0.1,0-0.2-0.5-0.3-0.7c-0.1-0.3-0.2-0.6-0.4-0.7c-0.4-0.1-0.8,0.1-1.2,0.3c-0.3,0.2-0.5,0.3-0.7,0.3
	c-0.2,0-0.9-0.1-2-0.9c-0.3-0.2-0.9-0.7-0.9-0.7l-0.1-0.1h-0.1c-0.1,0-0.3,0-0.4,0.1c-0.2,0.2-0.1,0.5-0.1,0.5
	c0.1,1.2,1.6,2.1,4.9,3l0.8,0.2c2.1,0.6,4.2,1.2,5.4,1.7c0.7,0.3,0.9,0.6,0.9,0.7c0,0.1,0,0.2,0,0.3c-0.2,0.3-0.8,0.2-1.2,0
	c-0.3-0.1-0.5-0.3-0.6-0.5c-0.2-0.2-0.4-0.4-0.7-0.5c-0.4-0.1-0.8,0.2-1.2,0.5c-0.2,0.1-0.4,0.3-0.5,0.3c-0.2,0-0.3-0.4-0.4-0.6
	c-0.2-0.4-0.3-0.8-0.7-0.8c-0.5-0.2-1,0.2-1.4,0.5c-0.1,0.1-0.3,0.2-0.4,0.3c-0.1-0.1-0.2-0.4-0.3-0.6c-0.2-0.4-0.3-0.8-0.7-0.9
	c-0.5-0.1-1,0.2-1.3,0.5c-0.2,0.2-0.5,0.3-0.6,0.3c-0.1,0-0.3-0.4-0.4-0.6c-0.2-0.4-0.4-0.8-0.7-0.9c-0.4-0.2-0.8,0-1.2,0.2
	c-0.5,0.2-0.9,0.4-1.3,0.2c-1.4-0.9-2-1.7-2.5-2.3c-0.6-0.7-1.1-1.3-2.4-1.7c-1-0.3-2.1-0.1-3,0.1c-0.3,0.1-0.5,0.1-0.8,0.1
	c-0.6,0.1-1-0.1-1.3-0.3c-0.2-0.2-0.3-0.5-0.4-0.7c0.6,0.1,1.5,0.3,2.9-0.2c1.7-0.6,2.6-0.8,4.7,0c1.8,0.6,2.9,0.2,3.6,0l0.3-0.1
	c0.2-0.1,0.4-0.2,0.9,0.1c0.7,0.5,1.3,0.9,1.7,0.7c0.3-0.1,0.4-0.5,0.5-0.9c0.1-0.4,0.2-0.7,0.5-0.8c0.1,0,0.4,0.2,0.6,0.3
	c0.4,0.3,0.9,0.5,1.2,0.4c0.3-0.1,0.4-0.4,0.5-0.8c0.1-0.5,0.3-0.8,0.6-0.9c0.1,0,0.4,0.2,0.6,0.3c0.4,0.3,0.9,0.5,1.3,0.4
	c0.3-0.1,0.4-0.4,0.5-0.8c0.1-0.5,0.3-0.8,0.6-0.9c0.1,0,0.4,0.2,0.6,0.3c0.4,0.3,0.9,0.5,1.2,0.4c0.3-0.1,0.4-0.4,0.5-0.8
	c0.1-0.5,0.3-0.8,0.6-0.9c0.1,0,0.4,0.2,0.6,0.3c0.4,0.3,0.9,0.5,1.2,0.4c0.4-0.2,0.5-0.5,0.7-1.1c0-0.1,0.1-0.3,0.1-0.5
	c0.1-0.2,0.2-0.2,0.3-0.4c0.4-0.3,1.4-1.3,0.9-2.5c-0.5-1.1-1.5-0.9-3.3-0.6c-1.4,0.3-9.3,2-10.6,2.3c-1-1.8-1.9-1.6-2.9-1.3
	c-0.5,0.1-1.1,0.3-1.8,0.2c-0.2,0-0.4-0.1-0.7-0.2c-1.4-0.3-3.5-0.9-6.4,1.8c-2-0.5-3.6,0-4.7,0.6c-0.2-0.1-0.5-0.2-0.8-0.3
	c-2.3-1-6.2-2.6-12.8-2.6c-1.4,0-6.5,0.2-15.4,2.6c-1.7,0.4-3.7,0.5-4.1-0.6c-0.4-1,0.9-2.2,4.2-3.8c3.4-1.6,6.3-2.4,9.3-3.2
	c4-1.1,8.2-2.1,14.1-5.3c5.8-3.1,6.1-6.8,6.1-7.5c0-0.4-0.2-0.7-0.5-0.8c-0.3-0.1-0.6,0.1-0.8,0.4c-1,1.4-1.7,2-2.1,2.1
	c-0.2,0-0.3-0.1-0.5-0.3c-0.2-0.2-0.5-0.3-0.7-0.3c-0.4,0-0.8,0.4-1.1,0.7c-0.2,0.2-0.5,0.5-0.7,0.7c-0.3,0.2-0.3,0.2-0.6-0.1
	c-0.1-0.1-0.2-0.2-0.4-0.3c-0.8-0.5-1.4,0.2-1.9,0.8c-0.3,0.3-0.5,0.6-0.8,0.7c-0.6,0.3-0.7,0.1-0.9-0.2c0-0.1-0.1-0.1-0.1-0.2
	c-0.3-0.3-0.8-0.3-1.2,0c-0.6,0.5-1.4,1.3-1.8,1.3c0,0,0,0,0,0c-0.1,0-0.3-0.1-0.5-0.4l0,0c-0.2-0.2-0.4-0.4-0.7-0.4
	c-0.3,0-0.8,0.3-1.4,0.9c-0.6,0.6-1.2,1-1.5,0.9c0,0-0.1,0-0.2-0.2c-0.2-0.4-0.3-0.8-0.7-0.9c-0.5-0.1-1,0.2-2,1
	c-0.8,0.7-1.1,0.8-1.3,0.7c-0.1,0-0.1,0-0.2-0.2c0-0.1-0.1-0.2-0.1-0.3c-0.1-0.3-0.3-0.6-0.7-0.7c-0.4-0.1-0.8,0.1-1.4,0.6l-0.1,0.1
	c-0.8,0.6-1.4,1.1-1.7,1c-0.1,0-0.2-0.1-0.3-0.3c-0.1-0.3-0.4-0.5-0.6-0.6c-0.6-0.1-1.4,0.5-2,1.1l-0.1,0.1
	c-0.2,0.2-0.5,0.6-0.8,0.6c0,0,0,0,0,0c-0.1,0-0.2-0.1-0.3-0.3c-0.2-0.3-0.4-0.5-0.6-0.5c-0.6-0.1-1.3,0.6-2.3,1.6
	c-0.4,0.5-0.6,0.4-1.3-0.1c-0.2-0.1-0.3-0.2-0.5-0.1c-0.5,0.1-0.9,0.7-1.5,1.4c-0.3,0.4-0.6,0.8-0.9,1.1c-0.1,0.1-0.2,0.2-0.8-0.1
	c-0.2-0.1-0.4-0.1-0.6-0.1c-0.9,0.3-1.9,2.5-2.2,3.2c-0.2,0.4-0.3,0.3-0.6,0.3c-0.3-0.1-0.8-0.2-1.2,0.4c-1.4,2-3.3,4.8-3.8,9.6
	c-0.6,5.2,1.3,9.9,3.5,11.7c-0.1,0.2-0.2,0.7-0.4,1.2c-0.6,1.5-0.9,3.7-0.1,5.2c0.5,0.9,1.6,2.6,2.5,2.5c0.4,0,0.7-0.4,0.9-1
	c0.1-0.4,0.2-0.6,0.3-0.6c0.2-0.1,0.7,0.3,0.9,0.4c0.3,0.2,0.7,0.5,1.1,0.3c0.4-0.2,0.5-0.8,0.5-1.3c0-0.3,0.1-0.5,0.1-0.6
	c0.1-0.2,0.1-0.2,0.2-0.2c0.1,0,0.4,0,1.2,0.6c0.3,0.2,0.6,0.3,0.8,0.2c0.5-0.2,0.6-0.8,0.8-1.4c0.3-1.2,0.3-2.1-0.1-2.8
	c-0.5-0.8-1.3-1.1-1.9-1.2c-0.5-0.1-1.1-0.1-1.5-0.1c1.6-2.5,2-4.3,0.2-5.9c0.1,0,0.1,0,0.2,0.1c0.6,0.2,1.2,0.7,1.5,1.1
	c0.2,0.5,0.8,1.6-0.2,3.8l-0.2,0.4h0.5c0,0,0,0,0.1,0c1.4,0,2.3,0.5,2.8,1.5l0,0.1l0.1,0c1,0.3,6.6,1,9.4,0.6
	c0.8-0.2,1.3-0.7,1.8-1.3c0.2-0.3,0.5-0.5,0.8-0.8c1-0.9,2.6-1.8,3.7-1.5c-2,1-3.3,2.6-3.3,4.3c0,1.6,0.7,2.2,1.8,3.1
	c0.6,0.5,0.9,1.4,1.1,2.3c0.1,0.4,0.2,0.7,0.3,1c0.2,0.7,0.7,1.1,1.2,1.1c0,0,0,0,0.1,0c0.4,0,0.8-0.4,0.9-1.1c0.2-0.9,0.4-1,0.4-1
	c0,0,0.2,0,0.6,0.5c0.6,0.6,1.1,0.6,1.3,0.5c0.3-0.1,0.5-0.6,0.5-1.2c0-0.6,0.1-0.8,0.2-0.9c0,0,0.3-0.1,1,0.7
	c0.3,0.3,0.7,0.5,1,0.3c0.3-0.1,0.5-0.6,0.5-1.2c0-0.7,0.2-0.8,0.2-0.9c0.1,0,0.3-0.1,0.8,0.4c0.1,0.1,0.2,0.1,0.3,0.2
	c0.2,0.1,0.3,0.2,0.5,0.2c0.3,0,0.6-0.2,0.8-0.5c0.3-0.5,0.4-1.3,0.1-2c-0.2-0.6-1.1-1.7-4.5-2.4c-0.3-0.1-0.5-0.2-0.6-0.3
	c0-0.1-0.1-0.1-0.1-0.2c8.4,0.4,15.1-0.7,19.4-3.3c5.4,1.2,13,1.4,16.1,1.4c3,0,4.8-0.3,6.4-0.9c1-0.5,1.1-1.2,1.2-1.5
	C-59.9,967.5-60.2,967-60.7,966.7z M-94.7,957L-94.7,957c-0.1,0.5-0.2,1-0.4,1.5c0,0.1-0.1,0.2-0.1,0.2c0,0-0.1,0-0.2,0
	c-0.1,0-0.1,0-0.2-0.1l-1.8-0.9c-0.1-0.1-0.1-0.2-0.1-0.3c0-0.1,0.1-0.1,0.2-0.1c0.7-0.3,1.4-0.6,2.2-0.7
	C-94.8,956.6-94.7,956.8-94.7,957z M-102.4,958.4L-102.4,958.4l-0.3,1.5c0,0.1-0.1,0.2-0.2,0.2c0,0-0.1,0-0.1,0
	c-0.1,0-0.1,0-0.2-0.1l-1.8-0.9c-0.1-0.1-0.1-0.2-0.1-0.3c0-0.1,0.1-0.1,0.2-0.1c0.7-0.3,1.4-0.6,2.2-0.7
	C-102.7,958-102.4,958-102.4,958.4z M-104.4,956c-0.1-0.1-0.1-0.2-0.1-0.3c0-0.1,0.1-0.1,0.2-0.1c0.7-0.3,1.4-0.6,2.2-0.7
	c0,0,0,0,0,0c0.3,0,0.5,0.2,0.5,0.3l0,0c-0.1,0.5-0.2,1-0.4,1.5c0,0.1-0.1,0.2-0.1,0.2c0,0-0.1,0-0.2,0c-0.1,0-0.1,0-0.2-0.1
	L-104.4,956z M-100.8,956.2c0-0.1,0.1-0.1,0.2-0.1c0.7-0.3,1.4-0.6,2.2-0.7c0,0,0,0,0,0c0.2,0,0.4,0.2,0.4,0.3l0,0l-0.3,1.5
	c0,0.1,0,0.2-0.1,0.2c0,0-0.1,0-0.2,0c-0.1,0-0.1,0-0.2-0.1l-1.8-0.9C-100.9,956.5-100.9,956.3-100.8,956.2z M-101.6,959.5
	c0-0.1,0.1-0.1,0.2-0.1c0.7-0.3,1.4-0.6,2.2-0.7c0,0,0,0,0,0c0.4,0,0.4,0.3,0.4,0.3c-0.1,0.3-0.1,0.7-0.2,1c0,0.2-0.1,0.4-0.1,0.5
	c0,0.1-0.1,0.2-0.1,0.2c0,0-0.1,0-0.2,0c-0.1,0-0.1,0-0.2-0.1l-1.8-0.9C-101.7,959.8-101.7,959.6-101.6,959.5z M-82.2,954.7
	c0.3-0.3,0.7-0.5,1.1-0.5c1,0,1.6,0.7,1.9,1.2l0.1,0.2l-0.2,0c0,0-1.5,0.3-2.2,0.5c-0.1,0-0.2,0-0.2,0c-0.3,0-0.6-0.2-0.7-0.5
	C-82.5,955.3-82.5,955-82.2,954.7z M-77.5,954.4c0.2-0.5,0.6-0.8,0.9-0.8c0.7,0,1,0.8,1,1v0.1l-1.6,0.3c-0.1,0-0.1,0-0.2,0
	c-0.1,0-0.2,0-0.2-0.1C-77.7,954.9-77.6,954.6-77.5,954.4L-77.5,954.4z M-106.2,958.3l-0.3,1.5c0,0.1,0,0.2-0.1,0.2c0,0-0.1,0-0.2,0
	c-0.1,0-0.1,0-0.2-0.1l-1.8-0.9c-0.1-0.1-0.1-0.2-0.1-0.3c0-0.1,0.1-0.1,0.2-0.1c0.7-0.3,1.4-0.6,2.2-0.7c0.2,0,0.3,0,0.4,0.1
	C-106.1,958.1-106.2,958.3-106.2,958.3z M-108.1,956c-0.1-0.1-0.1-0.2-0.1-0.3c0-0.1,0.1-0.1,0.2-0.1c0.7-0.3,1.4-0.6,2.2-0.7
	c0,0,0,0,0,0c0.3,0,0.4,0.1,0.4,0.3c-0.1,0.4-0.2,0.9-0.3,1.5c0,0.1-0.1,0.2-0.1,0.2c0,0-0.1,0-0.2,0c-0.1,0-0.1,0-0.2-0.1
	L-108.1,956z M-109.6,957.2c-0.1,0.1-0.1,0.1-0.2,0.1c-0.1,0-0.1,0-0.2-0.1l-1.8-0.9c-0.1-0.1-0.1-0.2-0.1-0.3
	c0-0.1,0.1-0.1,0.2-0.1c0.7-0.3,1.4-0.6,2.2-0.7c0,0,0,0,0,0c0.2,0,0.4,0.2,0.4,0.3c-0.1,0.5-0.2,1-0.4,1.5
	C-109.5,957-109.6,957.1-109.6,957.2z M-110.3,958.2c0.2,0,0.4,0.2,0.4,0.3l0,0l-0.3,1.5c0,0.1,0,0.2-0.1,0.2c0,0-0.1,0-0.2,0
	c-0.1,0-0.1,0-0.2-0.1l-1.8-0.9c-0.1-0.1-0.1-0.2-0.1-0.3c0-0.1,0.1-0.1,0.2-0.1C-111.8,958.6-111.1,958.3-110.3,958.2
	C-110.3,958.2-110.3,958.2-110.3,958.2z M-117.5,960.4L-117.5,960.4l-0.3,1.5c0,0.1,0,0.2-0.1,0.2c0,0-0.1,0-0.2,0
	c-0.1,0-0.1,0-0.2-0.1l-1.8-0.9c-0.1-0.1-0.1-0.2-0.1-0.3c0-0.1,0.1-0.1,0.2-0.1c0.7-0.3,1.4-0.6,2.2-0.7c0,0,0,0,0,0
	C-117.7,960-117.5,960.2-117.5,960.4z M-119.5,957.4c0-0.1,0.1-0.1,0.2-0.1c0.7-0.3,1.4-0.6,2.2-0.7c0,0,0,0,0,0
	c0.2,0,0.3,0.1,0.4,0.2c0,0.1,0,0.1,0,0.2c0,0.4-0.1,0.9-0.3,1.5c0,0.1-0.1,0.2-0.1,0.2c0,0-0.1,0-0.2,0c-0.1,0-0.1,0-0.2-0.1
	l-1.8-0.9C-119.6,957.7-119.6,957.5-119.5,957.4z M-115.7,956.5c0-0.1,0.1-0.1,0.2-0.1c0.7-0.3,1.4-0.6,2.2-0.7c0,0,0,0,0,0
	c0.2,0,0.3,0.1,0.4,0.2c0,0.1,0,0.2,0,0.2l-0.3,1.5c0,0.1-0.1,0.2-0.2,0.2c0,0-0.1,0-0.1,0c-0.1,0-0.1,0-0.2-0.1l-1.8-0.9
	C-115.8,956.8-115.8,956.6-115.7,956.5z M-113.8,959.5c0,0.2-0.1,0.5-0.1,0.8c-0.1,0.2-0.1,0.4-0.2,0.7c0,0.1-0.1,0.2-0.1,0.2
	c0,0-0.1,0-0.2,0c-0.1,0-0.1,0-0.2-0.1l-1.8-0.9c-0.1-0.1-0.1-0.2-0.1-0.3c0-0.1,0.1-0.1,0.2-0.1c0.7-0.3,1.4-0.6,2.2-0.7
	c0,0,0,0,0,0c0.2,0,0.3,0.1,0.4,0.2C-113.7,959.4-113.7,959.5-113.8,959.5z M-123.5,944.8l0.1,0.1L-123.5,944.8
	c0.7-0.3,1.4-0.6,2.2-0.7c0.2,0,0.3,0,0.4,0.1c0.1,0.1,0,0.2,0,0.3l-0.3,1.5c0,0.1,0,0.2-0.1,0.2c0,0-0.1,0-0.2,0
	c-0.1,0-0.1,0-0.2-0.1l-1.8-0.9c-0.1,0-0.1-0.1-0.2-0.1C-123.7,945.1-123.7,945-123.5,944.8L-123.5,944.8z M-128.8,961.6
	c-0.1,0-0.1,0-0.2-0.1l-1.8-0.9c-0.1-0.1-0.1-0.2-0.1-0.3c0-0.1,0.1-0.1,0.2-0.1c0.7-0.3,1.4-0.6,2.2-0.7c0.2,0,0.3,0,0.4,0.1
	c0.1,0.1,0,0.2,0,0.3l-0.3,1.5c0,0.1-0.1,0.2-0.2,0.2C-128.7,961.5-128.8,961.6-128.8,961.6z M-129.7,948.6l-0.1-0.1
	c0.7-0.3,1.4-0.6,2.2-0.7c0,0,0,0,0,0c0.2,0,0.3,0.1,0.4,0.2c0,0.1,0,0.2,0,0.2l-0.3,1.5c0,0.1-0.1,0.2-0.2,0.2c0,0-0.1,0-0.1,0
	c-0.1,0-0.1,0-0.2-0.1l-1.8-0.9c-0.2,0-0.2-0.1-0.3-0.2c0-0.1,0-0.2,0.2-0.3l0,0L-129.7,948.6L-129.7,948.6z M-125,950.3
	c-0.1,0.5-0.2,1-0.4,1.5c0,0.1-0.1,0.2-0.1,0.2c0,0-0.1,0-0.2,0c-0.1,0-0.1,0-0.2-0.1l-1.8-0.9c-0.1-0.1-0.1-0.2-0.1-0.3
	c0-0.1,0.1-0.1,0.2-0.1l0.3-0.1c0.7-0.3,1.3-0.5,2-0.6l0,0c0.2,0,0.3,0,0.4,0.1C-124.9,950.1-125,950.3-125,950.3z M-129.4,953.4
	c0-0.1,0.1-0.1,0.2-0.1c0.7-0.3,1.4-0.6,2.2-0.7c0.3,0,0.5,0.2,0.5,0.3l0,0c-0.1,0.5-0.2,1-0.4,1.5c0,0.1-0.1,0.2-0.1,0.2
	c0,0-0.1,0-0.2,0c-0.1,0-0.1,0-0.2-0.1l-1.8-0.9C-129.5,953.7-129.5,953.5-129.4,953.4z M-124.6,947.6c0,0.1-0.1,0.2-0.1,0.2
	c0,0-0.1,0-0.2,0c-0.1,0-0.1,0-0.2-0.1l-1.8-0.9c-0.1,0-0.2-0.1-0.2-0.1c0-0.1,0-0.2,0.2-0.3l0,0l0.1,0.1l0,0l-0.1-0.1
	c0.7-0.3,1.4-0.6,2.2-0.7c0,0,0,0,0,0c0.4,0,0.4,0.3,0.4,0.3C-124.3,946.6-124.4,947.1-124.6,947.6z M-129.9,950.4
	c0.2,0,0.3,0.1,0.4,0.2c0,0.1,0,0.2,0,0.2c-0.1,0.5-0.2,1-0.4,1.5c0,0.1-0.1,0.2-0.1,0.2c0,0-0.1,0-0.2,0c-0.1,0-0.1,0-0.2-0.1
	l-1.8-0.9c-0.1-0.1-0.1-0.2-0.1-0.3c0-0.1,0.1-0.1,0.3-0.2C-131.4,950.8-130.7,950.5-129.9,950.4
	C-129.9,950.4-129.9,950.4-129.9,950.4z M-130.8,953.4C-130.8,953.4-130.8,953.4-130.8,953.4c0.2,0,0.4,0.2,0.4,0.3l-0.3,1.5
	c0,0.1,0,0.2-0.1,0.2c0,0-0.1,0-0.2,0c-0.1,0-0.1,0-0.2-0.1l-1.8-0.9c-0.1,0-0.1-0.1-0.2-0.1c0-0.1,0-0.2,0.1-0.3l0,0
	C-132.3,953.8-131.6,953.5-130.8,953.4z M-132.7,957.3c0-0.1,0.1-0.1,0.2-0.1c0.7-0.3,1.4-0.6,2.2-0.7c0,0,0,0,0,0
	c0.2,0,0.4,0.2,0.4,0.3c-0.1,0.5-0.2,1-0.4,1.5c0,0.1-0.1,0.2-0.1,0.2c0,0-0.1,0-0.2,0c-0.1,0-0.1,0-0.2-0.1
	c-0.5-0.3-1.1-0.6-1.7-0.9l0,0C-132.8,957.6-132.8,957.4-132.7,957.3z M-129,956.5c0-0.1,0.1-0.1,0.2-0.1c0.7-0.3,1.4-0.6,2.2-0.7
	c0,0,0,0,0,0c0.4,0,0.4,0.3,0.4,0.3c-0.1,0.5-0.2,1-0.4,1.5c0,0.1-0.1,0.2-0.1,0.2c0,0-0.1,0-0.2,0c-0.1,0-0.1,0-0.2-0.1
	c-0.4-0.3-0.9-0.6-1.7-0.9l0,0C-129.1,956.8-129.1,956.6-129,956.5z M-127.6,961.9c0-0.1,0.1-0.1,0.2-0.1c0.7-0.3,1.4-0.6,2.2-0.7
	c0,0,0,0,0,0c0.1,0,0.3,0.1,0.4,0.2c0,0.1,0,0.1,0,0.2l-0.3,1.5c0,0.1-0.1,0.2-0.1,0.2c0,0-0.1,0-0.2,0c-0.1,0-0.1,0-0.2-0.1
	l-1.8-0.9C-127.7,962.2-127.7,962-127.6,961.9z M-126.8,959.1c-0.1-0.1-0.1-0.2-0.1-0.3c0-0.1,0.1-0.1,0.2-0.1
	c0.7-0.3,1.4-0.6,2.2-0.7c0,0,0,0,0,0c0.2,0,0.4,0.2,0.4,0.3c-0.1,0.4-0.2,0.9-0.3,1.5c0,0.1-0.1,0.2-0.2,0.2c0,0-0.1,0-0.1,0
	c-0.1,0-0.1,0-0.2-0.1L-126.8,959.1z M-120.9,959.7c0,0.1-0.1,0.1-0.2,0.1c-0.1,0-0.1,0-0.2-0.1l-1.8-0.9c-0.1-0.1-0.1-0.2-0.1-0.3
	c0-0.1,0.1-0.1,0.2-0.1c0.7-0.3,1.4-0.6,2.2-0.7c0.1,0,0.4,0,0.4,0.3c-0.1,0.5-0.2,1-0.4,1.5C-120.8,959.5-120.8,959.6-120.9,959.7z
	 M-121.3,961c0.1,0,0.2,0.1,0.2,0.3l0,0c-0.1,0.5-0.2,1-0.4,1.5c0,0.1-0.1,0.2-0.1,0.2c0,0-0.1,0-0.2,0c-0.1,0-0.1,0-0.2-0.1
	l-1.8-0.9c-0.1-0.1-0.1-0.2-0.1-0.3c0-0.1,0.1-0.1,0.2-0.1c0.7-0.3,1.4-0.6,2.2-0.7C-121.5,960.9-121.4,961-121.3,961z"/>
<path class="st2" d="M168.8,1054.8c-0.2-0.1-0.4-0.2-0.6-0.2c-0.1,0-0.2,0-0.3-0.1c-0.2,0-0.3-0.2-0.4-0.4c-0.1-0.1-0.1-0.2-0.2-0.3
	c-0.2-0.1-0.4,0.1-0.6,0.2c-0.1,0-0.2,0.1-0.2,0.1c0,0-0.1-0.2-0.1-0.3c-0.1-0.2-0.1-0.3-0.2-0.4c-0.2-0.1-0.4,0.1-0.6,0.2
	c-0.1,0-0.1,0.1-0.1,0.1c0,0-0.1-0.2-0.1-0.3c-0.1-0.2-0.1-0.3-0.2-0.4c-0.2-0.1-0.4,0.1-0.6,0.2c-0.1,0-0.1,0.1-0.1,0.1
	c-0.1,0-0.1-0.3-0.2-0.4c-0.1-0.2-0.1-0.3-0.2-0.3c-0.2-0.1-0.4,0-0.6,0.2c-0.1,0.1-0.2,0.2-0.4,0.1c-0.1,0-0.4,0-1-0.4
	c-0.1-0.1-0.4-0.3-0.4-0.3l0,0h0c0,0-0.1,0-0.2,0.1c-0.1,0.1-0.1,0.2,0,0.3c0,0.6,0.8,1,2.4,1.5l0.4,0.1c1,0.3,2.1,0.6,2.7,0.9
	c0.4,0.2,0.4,0.3,0.5,0.4c0,0.1,0,0.1,0,0.1c-0.1,0.2-0.4,0.1-0.6,0c-0.1-0.1-0.2-0.2-0.3-0.3c-0.1-0.1-0.2-0.2-0.4-0.2
	c-0.2,0-0.4,0.1-0.6,0.2c-0.1,0.1-0.2,0.2-0.3,0.1c-0.1,0-0.1-0.2-0.2-0.3c-0.1-0.2-0.2-0.4-0.3-0.4c-0.3-0.1-0.5,0.1-0.7,0.3
	c-0.1,0-0.2,0.1-0.2,0.1c0,0-0.1-0.2-0.2-0.3c-0.1-0.2-0.2-0.4-0.3-0.4c-0.2-0.1-0.5,0.1-0.7,0.2c-0.1,0.1-0.2,0.2-0.3,0.2
	c0,0-0.1-0.2-0.2-0.3c-0.1-0.2-0.2-0.4-0.3-0.4c-0.2-0.1-0.4,0-0.6,0.1c-0.2,0.1-0.4,0.2-0.7,0.1c-0.7-0.5-1-0.8-1.3-1.1
	c-0.3-0.4-0.5-0.6-1.2-0.8c-0.5-0.2-1-0.1-1.5,0c-0.1,0-0.3,0-0.4,0.1c-0.3,0-0.5,0-0.7-0.2c-0.1-0.1-0.2-0.2-0.2-0.3
	c0.3,0.1,0.7,0.2,1.4-0.1c0.8-0.3,1.3-0.4,2.3,0c0.9,0.3,1.5,0.1,1.8,0l0.1,0c0.1,0,0.2-0.1,0.4,0.1c0.3,0.2,0.6,0.4,0.9,0.4
	c0.2-0.1,0.2-0.3,0.3-0.4c0.1-0.2,0.1-0.4,0.3-0.4c0,0,0.2,0.1,0.3,0.2c0.2,0.1,0.4,0.3,0.6,0.2c0.1-0.1,0.2-0.2,0.2-0.4
	c0.1-0.2,0.1-0.4,0.3-0.4c0,0,0.2,0.1,0.3,0.1c0.2,0.1,0.4,0.3,0.6,0.2c0.1-0.1,0.2-0.2,0.2-0.4c0.1-0.2,0.1-0.4,0.3-0.4
	c0,0,0.2,0.1,0.3,0.2c0.2,0.1,0.4,0.3,0.6,0.2c0.1-0.1,0.2-0.2,0.2-0.4c0.1-0.2,0.1-0.4,0.3-0.4c0,0,0.2,0.1,0.3,0.2
	c0.2,0.1,0.4,0.3,0.6,0.2c0.2-0.1,0.2-0.2,0.3-0.5c0-0.1,0-0.2,0.1-0.2c0-0.1,0.1-0.1,0.2-0.2c0.2-0.2,0.7-0.6,0.4-1.2
	c-0.2-0.5-0.8-0.5-1.6-0.3c-0.7,0.1-4.6,1-5.3,1.1c-0.5-0.9-0.9-0.8-1.4-0.7c-0.3,0.1-0.5,0.1-0.9,0.1c-0.1,0-0.2,0-0.3-0.1
	c-0.7-0.2-1.7-0.4-3.2,0.9c-1-0.2-1.8,0-2.3,0.3c-0.1,0-0.2-0.1-0.4-0.2c-1.1-0.5-3.1-1.3-6.3-1.3c-0.7,0-3.2,0.1-7.6,1.3
	c-0.9,0.2-1.8,0.2-2-0.3c-0.2-0.5,0.4-1.1,2.1-1.9c1.7-0.8,3.1-1.2,4.6-1.6c2-0.5,4.1-1.1,7-2.6c2.9-1.5,3-3.4,3-3.7
	c0-0.2-0.1-0.4-0.3-0.4c-0.2,0-0.3,0-0.4,0.2c-0.5,0.7-0.8,1-1,1c-0.1,0-0.1,0-0.3-0.2c-0.1-0.1-0.2-0.2-0.3-0.2
	c-0.2,0-0.4,0.2-0.5,0.4c-0.1,0.1-0.2,0.2-0.4,0.3c-0.1,0.1-0.2,0.1-0.3,0c-0.1-0.1-0.1-0.1-0.2-0.2c-0.4-0.3-0.7,0.1-0.9,0.4
	c-0.1,0.1-0.3,0.3-0.4,0.3c-0.3,0.1-0.3,0.1-0.4-0.1c0,0,0-0.1-0.1-0.1c-0.1-0.1-0.4-0.1-0.6,0c-0.3,0.3-0.7,0.6-0.9,0.6
	c0,0,0,0,0,0c-0.1,0-0.1-0.1-0.2-0.2l0,0c-0.1-0.1-0.2-0.2-0.3-0.2c-0.2,0-0.4,0.1-0.7,0.5c-0.3,0.3-0.6,0.5-0.7,0.5
	c0,0-0.1,0-0.1-0.1c-0.1-0.2-0.2-0.4-0.4-0.4c-0.2-0.1-0.5,0.1-1,0.5c-0.4,0.3-0.6,0.4-0.6,0.4c0,0-0.1,0-0.1-0.1c0,0,0-0.1-0.1-0.1
	c-0.1-0.1-0.1-0.3-0.3-0.4c-0.2,0-0.4,0-0.7,0.3l-0.1,0.1c-0.4,0.3-0.7,0.5-0.8,0.5c0,0-0.1-0.1-0.1-0.2c-0.1-0.2-0.2-0.3-0.3-0.3
	c-0.3-0.1-0.7,0.3-1,0.6l-0.1,0.1c-0.1,0.1-0.3,0.3-0.4,0.3c0,0,0,0,0,0c-0.1,0-0.1-0.1-0.1-0.1c-0.1-0.1-0.2-0.2-0.3-0.2
	c-0.3,0-0.7,0.3-1.1,0.8c-0.2,0.3-0.3,0.2-0.6-0.1c-0.1-0.1-0.2-0.1-0.3-0.1c-0.2,0-0.5,0.4-0.7,0.7c-0.1,0.2-0.3,0.4-0.4,0.6
	c0,0-0.1,0.1-0.4-0.1c-0.1-0.1-0.2-0.1-0.3,0c-0.5,0.1-1,1.2-1.1,1.6c-0.1,0.2-0.2,0.2-0.3,0.1c-0.2,0-0.4-0.1-0.6,0.2
	c-0.7,1-1.6,2.4-1.9,4.8c-0.3,2.6,0.7,4.9,1.7,5.8c0,0.1-0.1,0.3-0.2,0.6c-0.3,0.7-0.4,1.8,0,2.6c0.2,0.4,0.8,1.3,1.3,1.2
	c0.2,0,0.4-0.2,0.5-0.5c0.1-0.2,0.1-0.3,0.2-0.3c0.1,0,0.3,0.1,0.4,0.2c0.1,0.1,0.4,0.2,0.6,0.2c0.2-0.1,0.2-0.4,0.3-0.6
	c0-0.1,0-0.3,0.1-0.3c0-0.1,0.1-0.1,0.1-0.1c0.1,0,0.2,0,0.6,0.3c0.1,0.1,0.3,0.1,0.4,0.1c0.2-0.1,0.3-0.4,0.4-0.7
	c0.2-0.6,0.1-1.1-0.1-1.4c-0.2-0.4-0.7-0.5-1-0.6c-0.3-0.1-0.5-0.1-0.7,0c0.8-1.3,1-2.1,0.1-2.9c0,0,0.1,0,0.1,0
	c0.3,0.1,0.6,0.3,0.7,0.5c0.1,0.2,0.4,0.8-0.1,1.9l-0.1,0.2h0.2c0,0,0,0,0,0c0.7,0,1.1,0.2,1.4,0.7l0,0l0.1,0
	c0.5,0.2,3.2,0.5,4.6,0.3c0.4-0.1,0.6-0.3,0.9-0.6c0.1-0.1,0.2-0.3,0.4-0.4c0.5-0.4,1.3-0.9,1.8-0.8c-1,0.5-1.6,1.3-1.6,2.1
	c0,0.8,0.3,1.1,0.9,1.5c0.3,0.3,0.4,0.7,0.5,1.1c0.1,0.2,0.1,0.3,0.2,0.5c0.1,0.3,0.3,0.6,0.6,0.6c0,0,0,0,0,0
	c0.2,0,0.4-0.2,0.4-0.5c0.1-0.4,0.2-0.5,0.2-0.5c0,0,0.1,0,0.3,0.2c0.3,0.3,0.5,0.3,0.6,0.3c0.2-0.1,0.3-0.3,0.3-0.6
	c0-0.3,0.1-0.4,0.1-0.4c0,0,0.1,0,0.5,0.3c0.2,0.2,0.4,0.2,0.5,0.2c0.2-0.1,0.3-0.3,0.3-0.6c0-0.3,0.1-0.4,0.1-0.4
	c0,0,0.1,0,0.4,0.2c0.1,0,0.1,0.1,0.1,0.1c0.1,0.1,0.2,0.1,0.2,0.1c0.1,0,0.3-0.1,0.4-0.3c0.1-0.2,0.2-0.7,0-1
	c-0.1-0.3-0.6-0.8-2.2-1.2c-0.2,0-0.3-0.1-0.3-0.2c0,0,0-0.1,0-0.1c4.2,0.2,7.5-0.4,9.6-1.6c2.7,0.6,6.4,0.7,7.9,0.7
	c1.5,0,2.4-0.1,3.2-0.5c0.5-0.2,0.6-0.6,0.6-0.8C169.1,1055.2,169,1055,168.8,1054.8z M158.1,1048.9c0.1-0.2,0.3-0.3,0.5-0.3
	c0.5,0,0.8,0.4,1,0.6l0.1,0.1l-0.1,0c0,0-0.7,0.1-1.1,0.2c0,0-0.1,0-0.1,0c-0.2,0-0.3-0.1-0.4-0.3
	C158,1049.2,158,1049.1,158.1,1048.9z M160.5,1048.8c0.1-0.2,0.3-0.4,0.5-0.4c0.4,0,0.5,0.4,0.5,0.5v0.1l-0.8,0.2c0,0-0.1,0-0.1,0
	c0,0-0.1,0-0.1-0.1C160.4,1049,160.4,1048.9,160.5,1048.8L160.5,1048.8z"/>
<g>
	<path class="st2" d="M181.9,439.7c-0.5-0.3-1-0.3-1.5-0.5c-0.7-0.2-0.8-1-1.1-1.1c-0.5-0.2-0.9,0.6-1.3,0.5
		c-0.3-0.1-0.4-1.1-0.7-1.2c-0.5-0.2-1,0.6-1.3,0.5c-0.3-0.1-0.4-1.1-0.7-1.2c-0.5-0.2-1,0.6-1.3,0.5c-0.3-0.1-0.4-1.1-0.6-1.2
		c-0.5-0.2-1,0.6-1.5,0.5c-0.3,0-0.9-0.2-1.8-0.8c-0.3-0.2-0.8-0.6-0.8-0.6c-0.1,0-0.3-0.1-0.3,0.3c0.1,1,1.9,1.8,4,2.4
		c2,0.6,4.1,1.2,5.3,1.7c0.8,0.3,1.1,0.8,0.8,1.2c-0.3,0.3-0.8,0.3-1.3,0.1c-0.6-0.3-0.7-0.8-1.1-0.8c-0.5-0.1-1.1,0.8-1.4,0.7
		c-0.5-0.1-0.5-1.2-0.9-1.3c-0.6-0.2-1.2,0.7-1.5,0.7c-0.3-0.1-0.5-1.2-0.8-1.3c-0.6-0.2-1.2,0.8-1.6,0.7c-0.3-0.1-0.6-1.2-0.9-1.3
		c-0.6-0.3-1.4,0.7-2.2,0.3c-2.6-1.8-2.1-2.7-4.1-3.3c-1-0.3-2.4,0.1-3.1,0.2c-1.8,0.2-1.7-1.4-1.7-1.4c0.5,0.1,1.3,0.4,2.6-0.1
		c1.4-0.5,2.3-0.7,4.1,0c1.6,0.5,2.5,0.1,3-0.1c0.3-0.1,0.5-0.3,1,0.1c0.5,0.3,1,0.7,1.3,0.6c0.4-0.2,0.3-1.3,0.9-1.4
		c0.3-0.1,1.2,0.8,1.5,0.6c0.3-0.2,0.3-1.3,0.9-1.4c0.3-0.1,1.1,0.8,1.5,0.6c0.3-0.2,0.3-1.3,0.9-1.4c0.3-0.1,1.2,0.8,1.5,0.6
		c0.3-0.2,0.3-1.3,0.9-1.4c0.3-0.1,1.2,0.8,1.5,0.6l0,0c0.3-0.2,0.3-0.4,0.6-1.2c0.1-0.2,0.2-0.3,0.3-0.4c0.4-0.3,1-1,0.7-1.9
		c-0.3-0.8-1-0.7-2.5-0.4c-1.3,0.3-9.1,1.9-9.1,1.9c-1.2-2.3-2-0.8-3.9-1c-1.2-0.2-3-1.3-5.9,1.4c-1.6-0.4-3-0.1-4,0.5
		c-1.8-0.7-5.2-2.4-11.5-2.4c-1.8,0-6.1,0.3-12.9,2.2c-1.8,0.4-3.4,0.3-3.7-0.7c-0.4-1.1,1-2.2,3.6-3.5c6.6-3.1,11-2.4,19.8-7.1
		c4.7-2.5,5.1-5.5,5.1-6.2c0-0.5-0.5-0.7-0.8-0.3c-1.6,2.2-2,2-2.5,1.5c-0.7-0.7-1.1,0.4-1.9,0.9c-0.5,0.4-0.7-0.1-1.1-0.3
		c-0.8-0.5-1.4,0.9-2,1.3c-0.8,0.3-0.8,0-1.1-0.3c-0.2-0.2-0.5-0.2-0.8,0c-1.5,1.4-1.8,1.3-2.2,0.8c-0.3-0.3-0.5-0.6-1.5,0.4
		c-0.6,0.6-1.5,1.3-1.8,0.5c-0.3-0.7-0.5-1.1-1.9,0.2c-0.8,0.8-1.4,0.8-1.6,0.4c-0.3-0.3-0.3-1.4-1.5-0.3c-1.2,0.9-1.8,1.4-2.1,0.6
		c-0.3-0.8-1.2-0.2-1.9,0.5c-0.3,0.3-0.9,1.1-1.4,0.3c-0.4-0.8-1.2,0-2.1,1c-0.5,0.6-0.8,0.3-1.4-0.1c-0.6-0.4-1.3,1.1-2.1,2
		c-0.2,0.2-0.4,0.3-0.9-0.1c-0.7-0.4-1.8,1.9-2,2.5c-0.5,0.9-1-0.3-1.6,0.6c-1.4,1.9-2.8,4.1-3.2,8c-0.5,4.6,1.3,8.4,3,9.8
		c0,0-0.2,0.5-0.4,1.2c-0.5,1.3-0.7,3-0.1,4.2s2,3,2.5,1.3c0.3-0.8,0.5-0.8,1.4-0.3c1.3,0.9,0.9-0.8,1.2-1.3
		c0.2-0.3,0.4-0.5,1.4,0.3c0.6,0.4,0.8-0.2,1-0.9c0.6-2.3-0.5-2.9-1.6-3.1c-0.8-0.2-1.6,0-1.6,0c1.7-2.6,1.9-4.1,0-5.4
		c0.3-0.2,0.5-0.1,0.8,0c0.5,0.2,0.8,0.6,1.1,1c0.3,0.5,0.7,1.5-0.2,3.4c0.3,0,1.8,0.1,2.4,1.5c0.8,0.3,6.3,0.7,8.7,0.3
		c0.8-0.2,1.3-0.9,2.1-1.7c0.9-0.8,2-1.9,3-1.1c-1.7,0.7-2.9,1.9-2.9,3.6c0,1.3,0.5,1.7,1.4,2.4c0.8,0.7,1,1.7,1.4,2.5
		c0.3,1,1.2,1.1,1.4,0.1c0.3-1.4,0.7-1.1,1.2-0.5c0.7,0.7,1.2,0.6,1.2-0.4c0-0.9,0.3-1.4,1.4-0.3c0.4,0.4,0.9,0.4,0.9-0.6
		c0-1.2,0.5-1.1,1.2-0.6c0.3,0.2,0.4,0.3,0.5,0.3c0.5,0,0.9-1.1,0.5-1.9c-0.2-0.4-0.5-1-3.3-1.6c-0.9-0.2-0.8-0.8-0.8-0.8
		c6.8,0.3,12.4-0.5,16.2-2.8c4.6,1.1,11.4,1.2,13.6,1.2c2.2,0,3.9-0.2,5.3-0.8C182.7,441.2,182.6,440.1,181.9,439.7 M168,429.2
		c0.2-0.3,0.4-0.6,0.7-0.6c0.5,0,0.8,0.6,0.8,0.8l-1.3,0.3C167.8,429.7,167.8,429.6,168,429.2 M164.8,429.1c0.8,0,1.4,0.7,1.5,0.9
		c0,0-1.3,0.3-1.9,0.4c-0.3,0.1-0.6-0.1-0.7-0.3C163.7,429.8,164,429.1,164.8,429.1 M129.1,421.2c0.6-0.3,1.2-0.5,1.9-0.6
		c0.2,0,0.3,0,0.2,0.2c-0.1,0.4-0.2,0.8-0.3,1.3c0,0.1-0.1,0.2-0.3,0.1c-0.5-0.3-1-0.5-1.5-0.8C129,421.4,129,421.3,129.1,421.2
		 M126.3,422.6c0.6-0.3,1.2-0.5,1.9-0.6c0.2,0,0.2,0.1,0.2,0.2c-0.1,0.4-0.2,0.8-0.3,1.3c0,0.1-0.1,0.2-0.3,0.1
		c-0.5-0.3-1-0.5-1.5-0.8C126.1,422.7,126.1,422.6,126.3,422.6 M127.4,425.5c0.2,0,0.3,0,0.2,0.2c-0.1,0.4-0.2,0.8-0.3,1.3
		c0,0.1-0.1,0.2-0.3,0.1c-0.5-0.3-1-0.5-1.5-0.8c-0.1-0.1-0.1-0.2,0-0.2C126.2,425.8,126.8,425.6,127.4,425.5 M126.3,428
		c-0.1,0.4-0.2,0.8-0.3,1.3c0,0.1-0.1,0.2-0.3,0.1c-0.5-0.3-1-0.5-1.5-0.8c-0.1-0.1-0.1-0.2,0-0.2c0.6-0.3,1.2-0.5,1.9-0.6
		C126.2,427.8,126.3,427.9,126.3,428 M123.7,424.2c0.6-0.3,1.2-0.5,1.9-0.6c0.2,0,0.3,0.1,0.2,0.2c-0.1,0.4-0.2,0.8-0.3,1.3
		c0,0.1-0.2,0.2-0.3,0.1c-0.5-0.3-1-0.5-1.5-0.8C123.6,424.4,123.6,424.3,123.7,424.2 M121.8,426.5c0.6-0.3,1.2-0.5,1.9-0.6
		c0.2,0,0.3,0.1,0.2,0.2c-0.1,0.4-0.2,0.8-0.3,1.3c0,0.1-0.1,0.2-0.3,0.1c-0.5-0.3-1-0.5-1.5-0.8
		C121.6,426.6,121.6,426.5,121.8,426.5 M121,429.1c0.6-0.3,1.2-0.5,1.9-0.6c0.1,0,0.2,0.1,0.2,0.2c-0.1,0.4-0.2,0.8-0.3,1.3
		c0,0.1-0.1,0.2-0.3,0.1c-0.5-0.3-1-0.5-1.5-0.8C120.9,429.2,120.9,429.1,121,429.1 M121.4,431.8c-0.1-0.1-0.1-0.2,0-0.2
		c0.6-0.3,1.2-0.5,1.9-0.6c0.1,0,0.2,0.1,0.2,0.2c-0.1,0.4-0.2,0.8-0.3,1.3c0,0.1-0.1,0.2-0.3,0.1
		C122.4,432.3,121.9,432.1,121.4,431.8 M124.7,435c0,0.1-0.2,0.2-0.3,0.1c-0.5-0.3-1-0.5-1.5-0.8c-0.1-0.1-0.1-0.2,0-0.2
		c0.6-0.3,1.2-0.5,1.9-0.6c0.2,0,0.3,0,0.2,0.2C124.8,434.1,124.7,434.5,124.7,435 M124.5,431.2c-0.1-0.1-0.1-0.2,0-0.2
		c0.6-0.3,1.2-0.5,1.9-0.6c0.2,0,0.2,0.1,0.2,0.2c-0.1,0.4-0.2,0.8-0.3,1.3c0,0.1-0.1,0.2-0.3,0.1
		C125.6,431.7,125.1,431.4,124.5,431.2 M127.4,436.4c0,0.1-0.1,0.2-0.3,0.1c-0.5-0.3-1-0.5-1.5-0.8c-0.1-0.1-0.1-0.2,0-0.2
		c0.6-0.3,1.2-0.5,1.9-0.6c0.1,0,0.3,0.1,0.2,0.2C127.6,435.6,127.5,436,127.4,436.4 M128,433.7c0,0.1-0.2,0.2-0.3,0.1
		c-0.5-0.3-1-0.5-1.5-0.8c-0.1-0.1-0.1-0.2,0-0.2c0.6-0.3,1.2-0.5,1.9-0.6c0.1,0,0.2,0.1,0.2,0.2C128.2,432.8,128.1,433.2,128,433.7
		 M130.8,435c-0.1,0.4-0.2,0.8-0.3,1.3c0,0.1-0.1,0.2-0.3,0.1c-0.5-0.3-1-0.5-1.5-0.8c-0.1-0.1-0.1-0.2,0-0.2
		c0.6-0.3,1.2-0.5,1.9-0.6C130.7,434.8,130.8,434.9,130.8,435 M130.9,433.5c-0.5-0.3-1-0.5-1.5-0.8c-0.1-0.1-0.1-0.2,0-0.2
		c0.6-0.3,1.2-0.5,1.9-0.6c0.1,0,0.2,0,0.2,0.2c-0.1,0.4-0.2,0.8-0.3,1.3C131.2,433.5,131.1,433.6,130.9,433.5 M133.9,434.2
		c-0.1,0.4-0.2,0.8-0.3,1.3c0,0.1-0.1,0.2-0.3,0.1c-0.5-0.3-1-0.5-1.5-0.8c-0.1-0.1-0.1-0.2,0-0.2c0.6-0.3,1.2-0.5,1.9-0.6
		C133.9,434,133.9,434.1,133.9,434.2 M134.3,432.6c0,0.1-0.1,0.2-0.3,0.1c-0.5-0.3-1-0.5-1.5-0.8c-0.1-0.1-0.1-0.2,0-0.2
		c0.6-0.3,1.2-0.5,1.9-0.6c0.2,0,0.3,0.1,0.2,0.2C134.5,431.7,134.5,432.1,134.3,432.6 M136.8,434.7c0,0.1-0.1,0.2-0.3,0.1
		c-0.5-0.3-1-0.5-1.5-0.8c-0.1-0.1-0.1-0.2,0-0.2c0.6-0.3,1.2-0.5,1.9-0.6c0.2,0,0.3,0.1,0.2,0.2
		C137.1,433.8,136.9,434.2,136.8,434.7 M137.2,431.9c-0.5-0.3-1-0.5-1.5-0.8c-0.1-0.1-0.1-0.2,0-0.2c0.6-0.3,1.2-0.5,1.9-0.6
		c0.2,0,0.3,0.1,0.2,0.2c-0.1,0.4-0.2,0.8-0.3,1.3C137.5,431.9,137.3,432,137.2,431.9 M140.4,432.7c-0.1,0.4-0.2,0.8-0.3,1.3
		c0,0.1-0.1,0.2-0.3,0.1c-0.5-0.3-1-0.5-1.5-0.8c-0.1-0.1-0.1-0.2,0-0.2c0.6-0.3,1.2-0.5,1.9-0.6
		C140.3,432.5,140.4,432.6,140.4,432.7 M140.5,431.4c-0.5-0.3-1-0.5-1.5-0.8c-0.1-0.1-0.1-0.2,0-0.2c0.6-0.3,1.2-0.5,1.9-0.6
		c0.1,0,0.2,0.1,0.2,0.2c-0.1,0.4-0.2,0.8-0.3,1.3C140.7,431.4,140.5,431.5,140.5,431.4 M143.5,432.4c-0.1,0.4-0.2,0.8-0.3,1.3
		c0,0.1-0.1,0.2-0.3,0.1c-0.5-0.3-1-0.5-1.5-0.8c-0.1-0.1-0.1-0.2,0-0.2c0.6-0.3,1.2-0.5,1.9-0.6
		C143.5,432.3,143.6,432.3,143.5,432.4 M143.8,431.1c0,0.1-0.1,0.2-0.3,0.1c-0.5-0.3-1-0.5-1.5-0.8c-0.1-0.1-0.1-0.2,0-0.2
		c0.6-0.3,1.2-0.5,1.9-0.6c0.2,0,0.2,0,0.2,0.2C144,430.2,143.9,430.6,143.8,431.1 M146.7,432.5c-0.1,0.4-0.2,0.8-0.3,1.3
		c0,0.1-0.2,0.2-0.3,0.1c-0.5-0.3-1-0.5-1.5-0.8c-0.1-0.1-0.1-0.2,0-0.2c0.6-0.3,1.2-0.5,1.9-0.6
		C146.6,432.3,146.7,432.3,146.7,432.5 M147.3,429.8c-0.1,0.4-0.2,0.8-0.3,1.3c0,0.1-0.1,0.2-0.3,0.1c-0.5-0.3-1-0.5-1.5-0.8
		c-0.1-0.1-0.1-0.2,0-0.2c0.6-0.3,1.2-0.5,1.9-0.6C147.2,429.6,147.3,429.7,147.3,429.8 M149.4,434.4c0,0.1-0.1,0.2-0.3,0.1
		c-0.5-0.3-1-0.5-1.5-0.8c-0.1-0.1-0.1-0.2,0-0.2c0.6-0.3,1.2-0.5,1.9-0.6c0.2,0,0.2,0.1,0.2,0.2C149.6,433.4,149.5,434,149.4,434.4
		 M150.3,430.3c-0.1,0.4-0.2,0.8-0.3,1.3c0,0.1-0.1,0.2-0.3,0.1c-0.5-0.3-1-0.5-1.5-0.8c-0.1-0.1-0.1-0.2,0-0.2
		c0.6-0.3,1.2-0.5,1.9-0.6C150.2,430.2,150.3,430.2,150.3,430.3 M153.2,431.3c-0.1,0.4-0.2,0.8-0.3,1.3c0,0.1-0.1,0.2-0.3,0.1
		c-0.5-0.3-1-0.5-1.5-0.8c-0.1-0.1-0.1-0.2,0-0.2c0.6-0.3,1.2-0.5,1.9-0.6C153.1,431.2,153.2,431.2,153.2,431.3"/>
	<path class="st3" d="M165.2,434c-1.9-0.7-2.7-0.5-4.1,0c-1.4,0.5-2,0.2-2.6,0.1c0,0-0.1,1.5,1.7,1.4c0.8-0.1,2-0.4,3.1-0.2
		c2,0.6,1.5,1.5,4.1,3.3c0.8,0.4,1.6-0.4,2.2-0.3c0.3,0.1,0.5,1.2,0.9,1.3c0.3,0.1,1-0.8,1.6-0.7c0.3,0.1,0.5,1.2,0.8,1.3
		c0.3,0.1,1-0.8,1.5-0.7c0.4,0.1,0.5,1.2,0.9,1.3c0.3,0.1,1-0.8,1.4-0.7c0.4,0.1,0.4,0.6,1.1,0.8c0.6,0.3,1.1,0.3,1.3-0.1
		c0.3-0.4-0.1-0.8-0.8-1.2c-1.3-0.6-3.3-1.1-5.3-1.7s-3.8-1.4-4-2.4c-0.1-0.4,0.2-0.4,0.3-0.3c-0.8-0.6-0.9-1.1-0.9-1.4l0,0l0,0l0,0
		c-0.1,0-0.2,0.1-0.3,0.1C167.7,434,166.7,434.5,165.2,434"/>
</g>
<g>
	<path class="st2" d="M187.9,758.1c-0.4-0.3-0.9-0.4-1.3-0.5c-0.2,0-0.4-0.1-0.6-0.2c-0.4-0.1-0.6-0.5-0.8-0.8
		c-0.1-0.2-0.3-0.4-0.5-0.5c-0.5-0.2-0.9,0.1-1.1,0.4c-0.1,0.1-0.3,0.2-0.4,0.2c-0.1,0-0.2-0.4-0.3-0.6c-0.1-0.4-0.2-0.7-0.5-0.8
		c-0.5-0.2-0.9,0.2-1.2,0.4c-0.1,0.1-0.3,0.2-0.3,0.2c-0.1,0-0.2-0.4-0.3-0.6c-0.1-0.4-0.2-0.7-0.5-0.8c-0.5-0.2-0.9,0.2-1.2,0.4
		c-0.1,0.1-0.3,0.2-0.3,0.2c-0.1,0-0.2-0.5-0.3-0.7c-0.1-0.3-0.2-0.6-0.4-0.7c-0.4-0.1-0.8,0.1-1.2,0.3c-0.3,0.2-0.5,0.3-0.7,0.3
		c-0.2,0-0.9-0.1-2-0.9c-0.3-0.2-0.9-0.7-0.9-0.7l-0.1-0.1h-0.1c-0.1,0-0.3,0-0.4,0.1c-0.2,0.2-0.1,0.5-0.1,0.5
		c0.1,1.2,1.6,2.1,4.9,3l0.8,0.2c2.1,0.6,4.2,1.2,5.4,1.7c0.7,0.3,0.9,0.6,0.9,0.7c0,0.1,0,0.2,0,0.3c-0.2,0.3-0.8,0.2-1.2,0
		c-0.3-0.1-0.5-0.3-0.6-0.5c-0.2-0.2-0.4-0.4-0.7-0.5c-0.4-0.1-0.8,0.2-1.2,0.5c-0.2,0.1-0.4,0.3-0.5,0.3c-0.2,0-0.3-0.4-0.4-0.6
		c-0.2-0.4-0.3-0.8-0.7-0.8c-0.5-0.2-1,0.2-1.4,0.5c-0.1,0.1-0.3,0.2-0.4,0.3c-0.1-0.1-0.2-0.4-0.3-0.6c-0.2-0.4-0.3-0.8-0.7-0.9
		c-0.5-0.1-1,0.2-1.3,0.5c-0.2,0.2-0.5,0.3-0.6,0.3c-0.1,0-0.3-0.4-0.4-0.6c-0.2-0.4-0.4-0.8-0.7-0.9c-0.4-0.2-0.8,0-1.2,0.2
		c-0.5,0.2-0.9,0.4-1.3,0.2c-1.4-0.9-2-1.7-2.5-2.3c-0.6-0.7-1.1-1.3-2.4-1.7c-1-0.3-2.1-0.1-3,0.1c-0.3,0.1-0.5,0.1-0.8,0.1
		c-0.6,0.1-1-0.1-1.3-0.3c-0.2-0.2-0.3-0.5-0.4-0.7c0.6,0.1,1.5,0.3,2.9-0.2c1.7-0.6,2.6-0.8,4.7,0c1.8,0.6,2.9,0.2,3.6,0l0.3-0.1
		c0.2-0.1,0.4-0.2,0.9,0.1c0.7,0.5,1.3,0.9,1.7,0.7c0.3-0.1,0.4-0.5,0.5-0.9c0.1-0.4,0.2-0.7,0.5-0.8c0.1,0,0.4,0.2,0.6,0.3
		c0.4,0.3,0.9,0.5,1.2,0.4c0.3-0.1,0.4-0.4,0.5-0.8c0.1-0.5,0.3-0.8,0.6-0.9c0.1,0,0.4,0.2,0.6,0.3c0.4,0.3,0.9,0.5,1.3,0.4
		c0.3-0.1,0.4-0.4,0.5-0.8c0.1-0.5,0.3-0.8,0.6-0.9c0.1,0,0.4,0.2,0.6,0.3c0.4,0.3,0.9,0.5,1.2,0.4c0.3-0.1,0.4-0.4,0.5-0.8
		c0.1-0.5,0.3-0.8,0.6-0.9c0.1,0,0.4,0.2,0.6,0.3c0.4,0.3,0.9,0.5,1.2,0.4c0.4-0.2,0.5-0.5,0.7-1.1c0-0.1,0.1-0.3,0.1-0.5
		c0.1-0.2,0.2-0.2,0.3-0.4c0.4-0.3,1.4-1.3,0.9-2.5c-0.5-1.1-1.5-0.9-3.3-0.6c-1.4,0.3-9.3,2-10.6,2.3c-1-1.8-1.9-1.6-2.9-1.3
		c-0.5,0.1-1.1,0.3-1.8,0.2c-0.2,0-0.4-0.1-0.7-0.2c-1.4-0.3-3.5-0.9-6.4,1.8c-2-0.5-3.6,0-4.7,0.6c-0.2-0.1-0.5-0.2-0.8-0.3
		c-2.3-1-6.2-2.6-12.8-2.6c-1.4,0-6.5,0.2-15.4,2.6c-1.7,0.4-3.7,0.5-4.1-0.6c-0.4-1,0.9-2.2,4.2-3.8c3.4-1.6,6.3-2.4,9.3-3.2
		c4-1.1,8.2-2.1,14.1-5.3c5.8-3.1,6.1-6.8,6.1-7.5c0-0.4-0.2-0.7-0.5-0.8c-0.3-0.1-0.6,0.1-0.8,0.4c-1,1.4-1.7,2-2.1,2.1
		c-0.2,0-0.3-0.1-0.5-0.3c-0.2-0.2-0.5-0.3-0.7-0.3c-0.4,0-0.8,0.4-1.1,0.7c-0.2,0.2-0.5,0.5-0.7,0.7c-0.3,0.2-0.3,0.2-0.6-0.1
		c-0.1-0.1-0.2-0.2-0.4-0.3c-0.8-0.5-1.4,0.2-1.9,0.8c-0.3,0.3-0.5,0.6-0.8,0.7c-0.6,0.3-0.7,0.1-0.9-0.2c0-0.1-0.1-0.1-0.1-0.2
		c-0.3-0.3-0.8-0.3-1.2,0c-0.6,0.5-1.4,1.3-1.8,1.3c0,0,0,0,0,0c-0.1,0-0.3-0.1-0.5-0.4l0,0c-0.2-0.2-0.4-0.4-0.7-0.4
		c-0.3,0-0.8,0.3-1.4,0.9c-0.6,0.6-1.2,1-1.5,0.9c0,0-0.1,0-0.2-0.2c-0.2-0.4-0.3-0.8-0.7-0.9c-0.5-0.1-1,0.2-2,1
		c-0.8,0.7-1.1,0.8-1.3,0.7c-0.1,0-0.1,0-0.2-0.2c0-0.1-0.1-0.2-0.1-0.3c-0.1-0.3-0.3-0.6-0.7-0.7c-0.4-0.1-0.8,0.1-1.4,0.6
		l-0.1,0.1c-0.8,0.6-1.4,1.1-1.7,1c-0.1,0-0.2-0.1-0.3-0.3c-0.1-0.3-0.4-0.5-0.6-0.6c-0.6-0.1-1.4,0.5-2,1.1l-0.1,0.1
		c-0.2,0.2-0.5,0.6-0.8,0.6c0,0,0,0,0,0c-0.1,0-0.2-0.1-0.3-0.3c-0.2-0.3-0.4-0.5-0.6-0.5c-0.6-0.1-1.3,0.6-2.3,1.6
		c-0.4,0.5-0.6,0.4-1.3-0.1c-0.2-0.1-0.3-0.2-0.5-0.1c-0.5,0.1-0.9,0.7-1.5,1.4c-0.3,0.4-0.6,0.8-0.9,1.1c-0.1,0.1-0.2,0.2-0.8-0.1
		c-0.2-0.1-0.4-0.1-0.6-0.1c-0.9,0.3-1.9,2.5-2.2,3.2c-0.2,0.4-0.3,0.3-0.6,0.3c-0.3-0.1-0.8-0.2-1.2,0.4c-1.4,2-3.3,4.8-3.8,9.6
		c-0.6,5.2,1.3,9.9,3.5,11.7c-0.1,0.2-0.2,0.7-0.4,1.2c-0.6,1.5-0.9,3.7-0.1,5.2c0.5,0.9,1.6,2.6,2.5,2.5c0.4,0,0.7-0.4,0.9-1
		c0.1-0.4,0.2-0.6,0.3-0.6c0.2-0.1,0.7,0.3,0.9,0.4c0.3,0.2,0.7,0.5,1.1,0.3c0.4-0.2,0.5-0.8,0.5-1.3c0-0.3,0.1-0.5,0.1-0.6
		c0.1-0.2,0.1-0.2,0.2-0.2c0.1,0,0.4,0,1.2,0.6c0.3,0.2,0.6,0.3,0.8,0.2c0.5-0.2,0.6-0.8,0.8-1.4c0.3-1.2,0.3-2.1-0.1-2.8
		c-0.5-0.8-1.3-1.1-1.9-1.2c-0.5-0.1-1.1-0.1-1.5-0.1c1.6-2.5,2-4.3,0.2-5.9c0.1,0,0.1,0,0.2,0.1c0.6,0.2,1.2,0.7,1.5,1.1
		c0.2,0.5,0.8,1.6-0.2,3.8l-0.2,0.4h0.5c0,0,0,0,0.1,0c1.4,0,2.3,0.5,2.8,1.5l0,0.1l0.1,0c1,0.3,6.6,1,9.4,0.6
		c0.8-0.2,1.3-0.7,1.8-1.3c0.2-0.3,0.5-0.5,0.8-0.8c1-0.9,2.6-1.8,3.7-1.5c-2,1-3.3,2.6-3.3,4.3c0,1.6,0.7,2.2,1.8,3.1
		c0.6,0.5,0.9,1.4,1.1,2.3c0.1,0.4,0.2,0.7,0.3,1c0.2,0.7,0.7,1.1,1.2,1.1c0,0,0,0,0.1,0c0.4,0,0.8-0.4,0.9-1.1c0.2-0.9,0.4-1,0.4-1
		c0,0,0.2,0,0.6,0.5c0.6,0.6,1.1,0.6,1.3,0.5c0.3-0.1,0.5-0.6,0.5-1.2c0-0.6,0.1-0.8,0.2-0.9c0,0,0.3-0.1,1,0.7
		c0.3,0.3,0.7,0.5,1,0.3c0.3-0.1,0.5-0.6,0.5-1.2c0-0.7,0.2-0.8,0.2-0.9c0.1,0,0.3-0.1,0.8,0.4c0.1,0.1,0.2,0.1,0.3,0.2
		c0.2,0.1,0.3,0.2,0.5,0.2c0.3,0,0.6-0.2,0.8-0.5c0.3-0.5,0.4-1.3,0.1-2c-0.2-0.6-1.1-1.7-4.5-2.4c-0.3-0.1-0.5-0.2-0.6-0.3
		c0-0.1-0.1-0.1-0.1-0.2c8.4,0.4,15.1-0.7,19.4-3.3c5.4,1.2,13,1.4,16.1,1.4c3,0,4.8-0.3,6.4-0.9c1-0.5,1.1-1.2,1.2-1.5
		C188.7,758.9,188.4,758.4,187.9,758.1z M153.9,748.4L153.9,748.4c-0.1,0.5-0.2,1-0.4,1.5c0,0.1-0.1,0.2-0.1,0.2c0,0-0.1,0-0.2,0
		c-0.1,0-0.1,0-0.2-0.1l-1.8-0.9c-0.1-0.1-0.1-0.2-0.1-0.3c0-0.1,0.1-0.1,0.2-0.1c0.7-0.3,1.4-0.6,2.2-0.7
		C153.8,748,153.9,748.2,153.9,748.4z M146.2,749.8L146.2,749.8l-0.3,1.5c0,0.1-0.1,0.2-0.2,0.2c0,0-0.1,0-0.1,0
		c-0.1,0-0.1,0-0.2-0.1l-1.8-0.9c-0.1-0.1-0.1-0.2-0.1-0.3c0-0.1,0.1-0.1,0.2-0.1c0.7-0.3,1.4-0.6,2.2-0.7
		C146,749.4,146.2,749.4,146.2,749.8z M144.2,747.4c-0.1-0.1-0.1-0.2-0.1-0.3c0-0.1,0.1-0.1,0.2-0.1c0.7-0.3,1.4-0.6,2.2-0.7
		c0,0,0,0,0,0c0.3,0,0.5,0.2,0.5,0.3l0,0c-0.1,0.5-0.2,1-0.4,1.5c0,0.1-0.1,0.2-0.1,0.2c0,0-0.1,0-0.2,0c-0.1,0-0.1,0-0.2-0.1
		L144.2,747.4z M147.8,747.7c0-0.1,0.1-0.1,0.2-0.1c0.7-0.3,1.4-0.6,2.2-0.7c0,0,0,0,0,0c0.2,0,0.4,0.2,0.4,0.3l0,0l-0.3,1.5
		c0,0.1,0,0.2-0.1,0.2c0,0-0.1,0-0.2,0c-0.1,0-0.1,0-0.2-0.1l-1.8-0.9C147.8,747.9,147.7,747.8,147.8,747.7z M147,751
		c0-0.1,0.1-0.1,0.2-0.1c0.7-0.3,1.4-0.6,2.2-0.7c0,0,0,0,0,0c0.4,0,0.4,0.3,0.4,0.3c-0.1,0.3-0.1,0.7-0.2,1c0,0.2-0.1,0.4-0.1,0.5
		c0,0.1-0.1,0.2-0.1,0.2c0,0-0.1,0-0.2,0c-0.1,0-0.1,0-0.2-0.1l-1.8-0.9C147,751.2,146.9,751.1,147,751z M166.4,746.1
		c0.3-0.3,0.7-0.5,1.1-0.5c1,0,1.6,0.7,1.9,1.2l0.1,0.2l-0.2,0c0,0-1.5,0.3-2.2,0.5c-0.1,0-0.2,0-0.2,0c-0.3,0-0.6-0.2-0.7-0.5
		C166.1,746.8,166.2,746.4,166.4,746.1z M171.2,745.8c0.2-0.5,0.6-0.8,0.9-0.8c0.7,0,1,0.8,1,1v0.1l-1.6,0.3c-0.1,0-0.1,0-0.2,0
		c-0.1,0-0.2,0-0.2-0.1C170.9,746.3,171,746,171.2,745.8L171.2,745.8z M142.4,749.7l-0.3,1.5c0,0.1,0,0.2-0.1,0.2c0,0-0.1,0-0.2,0
		c-0.1,0-0.1,0-0.2-0.1l-1.8-0.9c-0.1-0.1-0.1-0.2-0.1-0.3c0-0.1,0.1-0.1,0.2-0.1c0.7-0.3,1.4-0.6,2.2-0.7c0.2,0,0.3,0,0.4,0.1
		C142.5,749.5,142.5,749.7,142.4,749.7z M140.5,747.4c-0.1-0.1-0.1-0.2-0.1-0.3c0-0.1,0.1-0.1,0.2-0.1c0.7-0.3,1.4-0.6,2.2-0.7
		c0,0,0,0,0,0c0.3,0,0.4,0.1,0.4,0.3c-0.1,0.4-0.2,0.9-0.3,1.5c0,0.1-0.1,0.2-0.1,0.2c0,0-0.1,0-0.2,0c-0.1,0-0.1,0-0.2-0.1
		L140.5,747.4z M139,748.6c-0.1,0.1-0.1,0.1-0.2,0.1c-0.1,0-0.1,0-0.2-0.1l-1.8-0.9c-0.1-0.1-0.1-0.2-0.1-0.3c0-0.1,0.1-0.1,0.2-0.1
		c0.7-0.3,1.4-0.6,2.2-0.7c0,0,0,0,0,0c0.2,0,0.4,0.2,0.4,0.3c-0.1,0.5-0.2,1-0.4,1.5C139.1,748.4,139.1,748.5,139,748.6z
		 M138.4,749.6c0.2,0,0.4,0.2,0.4,0.3l0,0l-0.3,1.5c0,0.1,0,0.2-0.1,0.2c0,0-0.1,0-0.2,0c-0.1,0-0.1,0-0.2-0.1l-1.8-0.9
		c-0.1-0.1-0.1-0.2-0.1-0.3c0-0.1,0.1-0.1,0.2-0.1C136.8,750,137.6,749.7,138.4,749.6C138.4,749.6,138.4,749.6,138.4,749.6z
		 M131.1,751.8L131.1,751.8l-0.3,1.5c0,0.1,0,0.2-0.1,0.2c0,0-0.1,0-0.2,0c-0.1,0-0.1,0-0.2-0.1l-1.8-0.9c-0.1-0.1-0.1-0.2-0.1-0.3
		c0-0.1,0.1-0.1,0.2-0.1c0.7-0.3,1.4-0.6,2.2-0.7c0,0,0,0,0,0C131,751.4,131.1,751.6,131.1,751.8z M129.1,748.9
		c0-0.1,0.1-0.1,0.2-0.1c0.7-0.3,1.4-0.6,2.2-0.7c0,0,0,0,0,0c0.2,0,0.3,0.1,0.4,0.2c0,0.1,0,0.1,0,0.2c0,0.4-0.1,0.9-0.3,1.5
		c0,0.1-0.1,0.2-0.1,0.2c0,0-0.1,0-0.2,0c-0.1,0-0.1,0-0.2-0.1l-1.8-0.9C129.1,749.1,129,749,129.1,748.9z M132.9,748
		c0-0.1,0.1-0.1,0.2-0.1c0.7-0.3,1.4-0.6,2.2-0.7c0,0,0,0,0,0c0.2,0,0.3,0.1,0.4,0.2c0,0.1,0,0.2,0,0.2l-0.3,1.5
		c0,0.1-0.1,0.2-0.2,0.2c0,0-0.1,0-0.1,0c-0.1,0-0.1,0-0.2-0.1l-1.8-0.9C132.9,748.2,132.8,748.1,132.9,748z M134.8,750.9
		c0,0.2-0.1,0.5-0.1,0.8c-0.1,0.2-0.1,0.4-0.2,0.7c0,0.1-0.1,0.2-0.1,0.2c0,0-0.1,0-0.2,0c-0.1,0-0.1,0-0.2-0.1l-1.8-0.9
		c-0.1-0.1-0.1-0.2-0.1-0.3c0-0.1,0.1-0.1,0.2-0.1c0.7-0.3,1.4-0.6,2.2-0.7c0,0,0,0,0,0c0.2,0,0.3,0.1,0.4,0.2
		C134.9,750.8,134.9,750.9,134.8,750.9z M125.1,736.2l0.1,0.1L125.1,736.2c0.7-0.3,1.4-0.6,2.2-0.7c0.2,0,0.3,0,0.4,0.1
		c0.1,0.1,0,0.2,0,0.3l-0.3,1.5c0,0.1,0,0.2-0.1,0.2c0,0-0.1,0-0.2,0c-0.1,0-0.1,0-0.2-0.1l-1.8-0.9c-0.1,0-0.1-0.1-0.2-0.1
		C124.9,736.5,125,736.4,125.1,736.2L125.1,736.2z M119.8,753c-0.1,0-0.1,0-0.2-0.1l-1.8-0.9c-0.1-0.1-0.1-0.2-0.1-0.3
		c0-0.1,0.1-0.1,0.2-0.1c0.7-0.3,1.4-0.6,2.2-0.7c0.2,0,0.3,0,0.4,0.1c0.1,0.1,0,0.2,0,0.3l-0.3,1.5c0,0.1-0.1,0.2-0.2,0.2
		C119.9,753,119.8,753,119.8,753z M118.9,740l-0.1-0.1c0.7-0.3,1.4-0.6,2.2-0.7c0,0,0,0,0,0c0.2,0,0.3,0.1,0.4,0.2
		c0,0.1,0,0.2,0,0.2l-0.3,1.5c0,0.1-0.1,0.2-0.2,0.2c0,0-0.1,0-0.1,0c-0.1,0-0.1,0-0.2-0.1l-1.8-0.9c-0.2,0-0.2-0.1-0.3-0.2
		c0-0.1,0-0.2,0.2-0.3l0,0L118.9,740L118.9,740z M123.6,741.7c-0.1,0.5-0.2,1-0.4,1.5c0,0.1-0.1,0.2-0.1,0.2c0,0-0.1,0-0.2,0
		c-0.1,0-0.1,0-0.2-0.1l-1.8-0.9c-0.1-0.1-0.1-0.2-0.1-0.3c0-0.1,0.1-0.1,0.2-0.1l0.3-0.1c0.7-0.3,1.3-0.5,2-0.6l0,0
		c0.2,0,0.3,0,0.4,0.1C123.7,741.5,123.7,741.7,123.6,741.7z M119.2,744.9c0-0.1,0.1-0.1,0.2-0.1c0.7-0.3,1.4-0.6,2.2-0.7
		c0.3,0,0.5,0.2,0.5,0.3l0,0c-0.1,0.5-0.2,1-0.4,1.5c0,0.1-0.1,0.2-0.1,0.2c0,0-0.1,0-0.2,0c-0.1,0-0.1,0-0.2-0.1l-1.8-0.9
		C119.2,745.1,119.1,745,119.2,744.9z M124,739c0,0.1-0.1,0.2-0.1,0.2c0,0-0.1,0-0.2,0c-0.1,0-0.1,0-0.2-0.1l-1.8-0.9
		c-0.1,0-0.2-0.1-0.2-0.1c0-0.1,0-0.2,0.2-0.3l0,0l0.1,0.1l0,0l-0.1-0.1c0.7-0.3,1.4-0.6,2.2-0.7c0,0,0,0,0,0c0.4,0,0.4,0.3,0.4,0.3
		C124.3,738,124.2,738.5,124,739z M118.8,741.8c0.2,0,0.3,0.1,0.4,0.2c0,0.1,0,0.2,0,0.2c-0.1,0.5-0.2,1-0.4,1.5
		c0,0.1-0.1,0.2-0.1,0.2c0,0-0.1,0-0.2,0c-0.1,0-0.1,0-0.2-0.1l-1.8-0.9c-0.1-0.1-0.1-0.2-0.1-0.3c0-0.1,0.1-0.1,0.3-0.2
		C117.2,742.2,118,741.9,118.8,741.8C118.8,741.8,118.8,741.8,118.8,741.8z M117.9,744.8C117.9,744.8,117.9,744.8,117.9,744.8
		c0.2,0,0.4,0.2,0.4,0.3l-0.3,1.5c0,0.1,0,0.2-0.1,0.2c0,0-0.1,0-0.2,0c-0.1,0-0.1,0-0.2-0.1l-1.8-0.9c-0.1,0-0.1-0.1-0.2-0.1
		c0-0.1,0-0.2,0.1-0.3l0,0C116.3,745.2,117,744.9,117.9,744.8z M115.9,748.8c0-0.1,0.1-0.1,0.2-0.1c0.7-0.3,1.4-0.6,2.2-0.7
		c0,0,0,0,0,0c0.2,0,0.4,0.2,0.4,0.3c-0.1,0.5-0.2,1-0.4,1.5c0,0.1-0.1,0.2-0.1,0.2c0,0-0.1,0-0.2,0c-0.1,0-0.1,0-0.2-0.1
		c-0.5-0.3-1.1-0.6-1.7-0.9l0,0C115.9,749,115.8,748.9,115.9,748.8z M119.6,748c0-0.1,0.1-0.1,0.2-0.1c0.7-0.3,1.4-0.6,2.2-0.7
		c0,0,0,0,0,0c0.4,0,0.4,0.3,0.4,0.3c-0.1,0.5-0.2,1-0.4,1.5c0,0.1-0.1,0.2-0.1,0.2c0,0-0.1,0-0.2,0c-0.1,0-0.1,0-0.2-0.1
		c-0.4-0.3-0.9-0.6-1.7-0.9l0,0C119.6,748.2,119.5,748.1,119.6,748z M121,753.4c0-0.1,0.1-0.1,0.2-0.1c0.7-0.3,1.4-0.6,2.2-0.7
		c0,0,0,0,0,0c0.1,0,0.3,0.1,0.4,0.2c0,0.1,0,0.1,0,0.2l-0.3,1.5c0,0.1-0.1,0.2-0.1,0.2c0,0-0.1,0-0.2,0c-0.1,0-0.1,0-0.2-0.1
		l-1.8-0.9C121,753.6,120.9,753.5,121,753.4z M121.8,750.5c-0.1-0.1-0.1-0.2-0.1-0.3c0-0.1,0.1-0.1,0.2-0.1c0.7-0.3,1.4-0.6,2.2-0.7
		c0,0,0,0,0,0c0.2,0,0.4,0.2,0.4,0.3c-0.1,0.4-0.2,0.9-0.3,1.5c0,0.1-0.1,0.2-0.2,0.2c0,0-0.1,0-0.1,0c-0.1,0-0.1,0-0.2-0.1
		L121.8,750.5z M127.7,751.1c0,0.1-0.1,0.1-0.2,0.1c-0.1,0-0.1,0-0.2-0.1l-1.8-0.9c-0.1-0.1-0.1-0.2-0.1-0.3c0-0.1,0.1-0.1,0.2-0.1
		c0.7-0.3,1.4-0.6,2.2-0.7c0.1,0,0.4,0,0.4,0.3c-0.1,0.5-0.2,1-0.4,1.5C127.8,750.9,127.8,751,127.7,751.1z M127.3,752.4
		c0.1,0,0.2,0.1,0.2,0.3l0,0c-0.1,0.5-0.2,1-0.4,1.5c0,0.1-0.1,0.2-0.1,0.2c0,0-0.1,0-0.2,0c-0.1,0-0.1,0-0.2-0.1l-1.8-0.9
		c-0.1-0.1-0.1-0.2-0.1-0.3c0-0.1,0.1-0.1,0.2-0.1c0.7-0.3,1.4-0.6,2.2-0.7C127.1,752.4,127.2,752.4,127.3,752.4z"/>
</g>
</svg>
