<?xml version="1.0" encoding="utf-8"?>
<!-- Generator: Adobe Illustrator 15.0.0, SVG Export Plug-In . SVG Version: 6.00 Build 0)  -->
<!DOCTYPE svg PUBLIC "-//W3C//DTD SVG 1.1//EN" "http://www.w3.org/Graphics/SVG/1.1/DTD/svg11.dtd">
<svg version="1.1" id="Layer_1" xmlns="http://www.w3.org/2000/svg" xmlns:xlink="http://www.w3.org/1999/xlink" x="0px" y="0px"
	 width="300px" height="1200px" viewBox="0 0 300 1200" enable-background="new 0 0 300 1200" xml:space="preserve">
<g>
	<path fill="#CE2828" d="M129.022,439.052c-3.233,0-4.43,2.736-4.43,3.9c0.726,0,9.285,0,9.285,0
		C133.904,440.818,132.255,439.052,129.022,439.052z"/>
	<path fill="#CE2828" d="M201.938,423.226h3.369c1.65,0,2.824-0.85,2.824-2.272c0-0.65-0.24-1.171-0.678-1.541h-5.516V423.226
		L201.938,423.226z"/>
	<path fill="#CE2828" d="M213.527,419.409c0.611,1.286,0.963,2.719,0.963,4.233c0,5.477-4.453,9.931-9.928,9.931
		c-5.477,0-9.932-4.454-9.932-9.931c0-1.517,0.354-2.944,0.965-4.232l-117.779,0.006l13.234,58.855
		c8.123-5.344,18.329-8.533,29.426-8.533c11.141,0,21.383,3.216,29.52,8.596c8.137-5.38,18.381-8.596,29.521-8.596
		c11.099,0,21.306,3.189,29.428,8.533l13.236-58.863L213.527,419.409z M115.882,455.144h-2.977h-2.626H97.447l-0.03-19.357h7.818
		v14.438h5.044h2.626h2.977V455.144L115.882,455.144z M130.122,451.685c3.03,0,4.039-1.551,4.189-2.106c1.468,0,6.288,0,7.116,0
		c-0.319,1.575-1.681,2.846-2.909,3.727c-2.96,2.107-7.549,2.4-9.043,2.4c-0.134,0-0.267,0-0.4,0
		c-6.751-0.318-12.708-2.741-12.708-10.363c0-9.193,10.252-10.472,12.573-10.447c0.028,0,0.082,0,0.135,0
		c3.176,0.057,6.91,0.724,9.443,3.441c1.683,1.789,2.83,4.727,2.909,8.702c0,0-16.069,0.022-16.835,0.022
		C124.593,449.897,127.093,451.685,130.122,451.685z M157.139,455.144h-1.457h-5.172l-10.925-19.034l-0.151-0.244h0.151h8.869
		l6.665,12.219l6-12.279h6.092L157.139,455.144z M175.889,455.142h-7.742v-19.355h7.742V455.142z M182.262,437.519
		c-0.117,1.102-0.9,2.073-1.967,2.5c-0.312,0.115-0.707,0.18-1.15,0.16v-0.807c1.264,0,1.199-1.574,1.102-1.938h-2.543v-3.469h2.594
		h1.969v3.552L182.262,437.519L182.262,437.519z M192.867,455.598c-6.332,0-9.461-2.381-9.799-6.143c3.27,0,2.402,0.026,5.646,0.054
		c0.584,2.472,1.979,2.916,4.8,2.892c1.437,0.106,3.508-0.688,3.508-2.059c0-1.33-1.41-1.731-4.519-2.419
		c-4.719-1.042-9.84-1.976-9.84-5.771c0-4.715,6.394-7.284,11.392-7.101c0.106,0,0.213,0,0.319,0c7.123,0,9.588,4.194,9.588,6.091
		l-5.767,0.055c-0.36-2.069-2.12-2.39-4.274-2.604c-0.187-0.023-0.371-0.023-0.56-0.023c-2.047,0-3.627,0.548-3.603,2.009
		c0.025,1.462,2.479,1.905,4.662,2.062c0.293,0.026,10.019,0.808,10.019,6.09C204.441,453.811,199.199,455.598,192.867,455.598z"/>
	<path fill="#CE2828" d="M209.387,420.903c0,1.836-1.256,2.898-2.979,3.216l3.369,4.481h-1.52l-3.186-4.265h-3.135v4.265h-1.24
		v-9.19h-3.732c-0.701,1.255-1.105,2.697-1.105,4.233c0,4.801,3.904,8.702,8.703,8.702s8.701-3.901,8.701-8.702
		c0-1.536-0.404-2.979-1.104-4.234l-3.145,0.001C209.25,419.847,209.387,420.344,209.387,420.903z"/>
	<polygon fill="#FFFFFF" points="110.279,450.222 105.235,450.222 105.235,435.784 97.417,435.784 97.447,455.144 110.279,455.144 
		112.905,455.144 115.882,455.144 115.882,450.222 112.905,450.222 	"/>
	<path fill="#FFFFFF" d="M138.519,438.334c-2.533-2.72-6.268-3.387-9.443-3.441c-0.053,0-0.106,0-0.135,0
		c-2.321-0.022-12.573,1.255-12.573,10.447c0,7.622,5.957,10.045,12.708,10.363c0.134,0,0.267,0,0.4,0
		c1.494,0,6.083-0.293,9.043-2.4c1.229-0.881,2.59-2.149,2.909-3.727c-0.828,0-5.648,0-7.116,0c-0.15,0.558-1.159,2.106-4.189,2.106
		c-3.029,0-5.529-1.785-5.529-4.624c0.766,0,16.835-0.022,16.835-0.022C141.349,443.061,140.201,440.123,138.519,438.334z
		 M124.593,442.952c0-1.164,1.196-3.9,4.43-3.9c3.232,0,4.882,1.769,4.855,3.9C133.878,442.952,125.318,442.952,124.593,442.952z"/>
	<path fill="#FFFFFF" d="M194.424,442.641c-2.182-0.157-4.637-0.603-4.662-2.062s1.555-2.009,3.602-2.009
		c0.188,0,0.373,0,0.561,0.023c2.154,0.214,3.914,0.532,4.275,2.604l5.766-0.055c0-1.896-2.465-6.091-9.588-6.091
		c-0.105,0-0.213,0-0.318,0c-4.998-0.186-11.393,2.386-11.393,7.101c0,3.798,5.121,4.729,9.84,5.771
		c3.105,0.688,4.52,1.089,4.52,2.419c0,1.371-2.072,2.165-3.508,2.059c-2.818,0.024-4.217-0.418-4.801-2.892
		c-3.242-0.025-2.377-0.054-5.646-0.054c0.339,3.762,3.468,6.143,9.8,6.143s11.573-1.786,11.573-6.866
		C204.441,443.446,194.717,442.667,194.424,442.641z"/>
	<path fill="#FFFFFF" d="M177.701,433.968v3.469h2.543c0.1,0.361,0.162,1.938-1.1,1.938v0.807c0.441,0.02,0.838-0.045,1.148-0.159
		c1.064-0.428,1.852-1.399,1.967-2.5v-3.552h-1.967L177.701,433.968L177.701,433.968z"/>
	<polygon fill="#FFFFFF" points="155.119,448.082 148.454,435.863 139.585,435.863 139.434,435.863 139.585,436.107 150.51,455.144 
		155.682,455.144 157.139,455.144 167.211,435.803 161.119,435.803 	"/>
	<rect x="168.146" y="435.784" fill="#FFFFFF" width="7.742" height="19.355"/>
	<path fill="#FFFFFF" d="M201.938,428.603v-4.265h3.137l3.186,4.265h1.521l-3.371-4.481c1.725-0.315,2.98-1.38,2.98-3.216
		c0-0.562-0.139-1.059-0.371-1.493h-1.562c0.438,0.37,0.678,0.891,0.678,1.541c0,1.425-1.174,2.272-2.824,2.272h-3.369v-3.813H200.7
		v9.19H201.938L201.938,428.603z"/>
	<path fill="#FFFFFF" d="M204.562,433.573c5.475,0,9.928-4.454,9.928-9.931c0-1.517-0.352-2.947-0.963-4.233h-1.369
		c0.701,1.255,1.105,2.698,1.105,4.233c0,4.802-3.902,8.703-8.701,8.703s-8.703-3.901-8.703-8.703c0-1.535,0.404-2.979,1.104-4.232
		h-1.369c-0.609,1.288-0.963,2.718-0.963,4.232C194.633,429.119,199.088,433.573,204.562,433.573z"/>
</g>
<g>
	<path fill="#CE2828" d="M138.692,744.388c-1.741,0-2.388,1.478-2.388,2.104c0.391,0,5.006,0,5.006,0
		C141.323,745.341,140.436,744.388,138.692,744.388z"/>
	<path fill="#CE2828" d="M111.09,733.804l7.134,31.729c4.378-2.88,9.879-4.602,15.862-4.602c6.005,0,11.527,1.734,15.913,4.635
		c4.388-2.899,9.907-4.635,15.914-4.635c5.981,0,11.483,1.72,15.862,4.602l7.135-31.731L111.09,733.804z M131.609,753.062h-1.605
		h-1.415h-6.917l-0.018-10.436h4.214v7.782h2.721h1.415h1.605V753.062z M139.285,751.198c1.633,0,2.178-0.836,2.259-1.136
		c0.791,0,3.391,0,3.836,0c-0.172,0.849-0.906,1.532-1.568,2.009c-1.597,1.136-4.069,1.294-4.876,1.294c-0.07,0-0.144,0-0.214,0
		c-3.64-0.171-6.852-1.478-6.852-5.586c0-4.956,5.525-5.646,6.778-5.633c0.015,0,0.042,0,0.072,0c1.711,0.03,3.724,0.39,5.09,1.856
		c0.905,0.964,1.525,2.547,1.568,4.69c0,0-8.663,0.014-9.075,0.014C136.305,750.235,137.651,751.198,139.285,751.198z
		 M153.848,753.062h-0.783h-2.79l-5.889-10.262l-0.082-0.131h0.082h4.781l3.595,6.586l3.232-6.62h3.285L153.848,753.062z
		 M163.956,753.062h-4.175v-10.436h4.175V753.062z M167.393,743.562c-0.062,0.593-0.484,1.116-1.062,1.347
		c-0.168,0.063-0.38,0.097-0.617,0.088v-0.435c0.68,0,0.646-0.85,0.594-1.044h-1.373v-1.87h1.396h1.062V743.562z M173.107,753.309
		c-3.412,0-5.101-1.282-5.282-3.312c1.764,0,1.296,0.015,3.045,0.028c0.315,1.332,1.067,1.571,2.588,1.559
		c0.771,0.059,1.894-0.371,1.894-1.109c0-0.717-0.763-0.936-2.438-1.305c-2.543-0.562-5.305-1.064-5.305-3.112
		c0-2.541,3.447-3.926,6.141-3.825c0.059,0,0.114,0,0.172,0c3.838,0,5.168,2.262,5.168,3.281l-3.105,0.029
		c-0.196-1.116-1.146-1.288-2.307-1.402c-0.101-0.015-0.201-0.015-0.3-0.015c-1.104,0-1.956,0.297-1.942,1.084
		c0.015,0.787,1.338,1.027,2.514,1.111c0.158,0.016,5.398,0.437,5.398,3.283C179.348,752.346,176.521,753.309,173.107,753.309z"/>
	<polygon fill="#FFFFFF" points="128.589,750.41 125.868,750.41 125.868,742.628 121.654,742.628 121.672,753.062 128.589,753.062 
		130.004,753.062 131.609,753.062 131.609,750.41 130.004,750.41 	"/>
	<path fill="#FFFFFF" d="M143.812,744.001c-1.365-1.465-3.378-1.823-5.09-1.854c-0.029,0-0.059,0-0.072,0
		c-1.252-0.013-6.778,0.677-6.778,5.633c0,4.106,3.212,5.415,6.852,5.586c0.07,0,0.144,0,0.214,0c0.806,0,3.278-0.158,4.876-1.294
		c0.662-0.478,1.396-1.16,1.568-2.009c-0.445,0-3.046,0-3.836,0c-0.081,0.299-0.624,1.136-2.258,1.136
		c-1.634,0-2.981-0.963-2.981-2.493c0.412,0,9.075-0.013,9.075-0.013C145.337,746.55,144.718,744.966,143.812,744.001z
		 M136.305,746.491c0-0.627,0.646-2.104,2.388-2.104c1.743,0,2.632,0.953,2.618,2.104
		C141.311,746.491,136.695,746.491,136.305,746.491z"/>
	<path fill="#FFFFFF" d="M173.948,746.323c-1.177-0.085-2.501-0.325-2.515-1.112c-0.015-0.788,0.838-1.084,1.942-1.084
		c0.099,0,0.2,0,0.301,0.014c1.16,0.115,2.109,0.288,2.306,1.403l3.106-0.028c0-1.021-1.33-3.282-5.169-3.282
		c-0.057,0-0.113,0-0.172,0c-2.693-0.1-6.141,1.286-6.141,3.825c0,2.049,2.761,2.551,5.305,3.112
		c1.674,0.369,2.438,0.587,2.438,1.305c0,0.738-1.121,1.168-1.895,1.109c-1.52,0.014-2.271-0.227-2.586-1.559
		c-1.75-0.016-1.281-0.028-3.047-0.028c0.184,2.027,1.871,3.312,5.283,3.312c3.416,0,6.24-0.965,6.24-3.702
		C179.348,746.758,174.105,746.338,173.948,746.323z"/>
	<path fill="#FFFFFF" d="M164.932,741.646v1.87h1.373c0.055,0.195,0.088,1.044-0.594,1.044v0.436
		c0.239,0.009,0.451-0.023,0.619-0.088c0.574-0.23,0.998-0.754,1.062-1.349v-1.914h-1.062L164.932,741.646L164.932,741.646z"/>
	<polygon fill="#FFFFFF" points="152.762,749.257 149.167,742.671 144.386,742.671 144.304,742.671 144.386,742.802 
		150.274,753.062 153.062,753.062 153.848,753.062 159.279,742.637 155.994,742.637 	"/>
	<rect x="159.781" y="742.628" fill="#FFFFFF" width="4.175" height="10.435"/>
</g>
<g>
	<g>
		<path fill="#CE2828" d="M129.981,1042.149l3.67,16.32c2.253-1.479,5.084-2.364,8.161-2.364c3.09,0,5.931,0.893,8.188,2.384
			c2.256-1.491,5.096-2.384,8.186-2.384c3.078,0,5.908,0.885,8.16,2.364l3.672-16.322L129.981,1042.149z"/>
	</g>
</g>
<g>
	<path fill="#231F20" d="M-214.403,206.73c0,0,32.97-12.279,56.546-12.279c23.572,0,30.451-2.701,64.586,5.894l-7.859-27.505
		c0,0-17.682-5.893-56.727-5.893c0,0-32.664,0.98-56.546,10.559l-0.16-0.168c-23.882-9.577-56.544-10.561-56.544-10.561
		c-39.047,0-56.728,5.895-56.728,5.895l-7.858,27.504c34.134-8.596,41.011-5.894,64.586-5.894s56.544,12.278,56.544,12.278
		L-214.403,206.73L-214.403,206.73z"/>
	<path fill="#FFFFFF" d="M-321.018,175.217l4.031-0.766l2.817,16.578l-3.486,0.615l-0.611-4.19l-3.671,0.655l-1.16,4.487
		l-3.349,0.581L-321.018,175.217L-321.018,175.217z M-318.555,184.939l-0.779-6.991l-1.901,7.476L-318.555,184.939L-318.555,184.939
		z"/>
	<path fill="#FFFFFF" d="M-307.653,172.975l-0.956,11.75c-0.179,2.41,0.131,3.408,1.931,3.195c1.777-0.211,2.189-1.32,2.319-3.754
		l0.711-11.703l2.866-0.368l-0.55,12.029c-0.063,1.667-0.154,2.925-0.979,4.085c-0.951,1.312-2.477,2.113-4.569,2.358
		c-4.089,0.477-5.228-1.065-4.867-5.19l1.159-12.029L-307.653,172.975L-307.653,172.975z"/>
	<polygon fill="#FFFFFF" points="-295.063,174.494 -298.424,174.727 -298.181,171.84 -288.704,171.17 -288.799,174.059 
		-292.147,174.292 -292.821,188.916 -295.961,189.117 	"/>
	<polygon fill="#FFFFFF" points="-286.137,171.062 -283.309,171.029 -283.656,177.912 -279.604,177.866 -279.402,170.983 
		-276.576,170.95 -276.814,188.492 -279.908,188.525 -279.682,180.571 -283.791,180.617 -284.183,188.572 -287.282,188.605 	"/>
	<polygon fill="#FFFFFF" points="-272.654,171.05 -264.794,171.621 -264.841,174.531 -269.955,174.165 -270.139,178.217 
		-265.277,178.557 -265.338,181.327 -270.269,180.988 -270.508,185.809 -264.951,186.182 -265.022,189.139 -273.752,188.559 	"/>
	<polygon fill="#FFFFFF" points="-261.14,172.04 -258.189,172.527 -254.651,185.334 -254.233,173.178 -251.497,173.625 
		-252.041,190.983 -255.268,190.5 -258.825,177.666 -259.599,189.845 -262.546,189.398 	"/>
	<polygon fill="#FFFFFF" points="-245.422,177.854 -248.836,177.042 -248.628,174.217 -238.888,176.546 -238.964,179.371 
		-242.43,178.559 -243.301,192.863 -246.497,192.158 	"/>
	<polygon fill="#FFFFFF" points="-236.246,177.324 -233.231,178.178 -234.324,195.11 -237.572,194.254 	"/>
	<path fill="#FFFFFF" d="M-220.243,193.188c-0.016,0.22-0.006,0.427-0.021,0.649c-0.294,3.859-2.179,5.176-5.776,4.082
		c-1.657-0.508-2.813-1.254-3.598-2.416c-1.312-1.928-1.146-4.359-0.733-8.172c0.312-3.193,0.72-5.227,1.424-6.09
		c1.018-1.255,2.33-1.455,4.335-0.795c3.397,1.107,4.788,3.265,4.633,7.152l-3.104-0.984c0.009-0.135,0.017-0.268,0.024-0.4
		c0.107-1.796-0.424-2.871-1.632-3.263c-1.936-0.63-2.063,1.12-2.415,5.379c-0.445,4.655-0.636,6.452,1.378,7.076
		c1.576,0.485,2.072-0.435,2.291-2.983c0.005-0.066,0.014-0.156,0.019-0.223L-220.243,193.188L-220.243,193.188z"/>
	<polygon fill="#FFFFFF" points="-210.21,180.763 -201.339,177.982 -201.277,180.813 -207.039,182.604 -207.021,186.7 
		-201.468,185.007 -201.359,187.767 -206.98,189.463 -206.753,197.076 -210.203,198.072 	"/>
	<path fill="#FFFFFF" d="M-197.269,178.625c1.047-1.92,2.305-2.799,4.373-3.331c2.059-0.53,3.297-0.288,4.33,1.116
		c0.777,1.047,1.125,3.271,1.273,6.729c0.178,3.436,0.033,5.816-0.688,7.244c-0.981,1.92-2.301,2.801-4.556,3.335
		c-2.266,0.536-3.646,0.296-4.771-1.104c-0.816-1.025-1.107-3.272-1.096-6.734C-198.363,182.416-198.05,180.033-197.269,178.625
		L-197.269,178.625z M-192.611,191.095c2.254-0.54,2.262-2.573,2.094-7.152c-0.119-4.583-0.246-6.593-2.373-6.052
		c-2.143,0.544-2.238,2.601-2.225,7.186C-195.054,189.659-194.896,191.641-192.611,191.095L-192.611,191.095z"/>
	<path fill="#FFFFFF" d="M-183.173,175.214c1-1.86,2.213-2.649,4.217-3.019c1.996-0.367,3.209-0.02,4.229,1.483
		c0.771,1.124,1.129,3.397,1.297,6.901c0.188,3.48,0.052,5.871-0.651,7.259c-0.963,1.86-2.252,2.651-4.459,3.024
		c-2.215,0.372-3.555,0.025-4.646-1.477c-0.791-1.099-1.069-3.398-1.058-6.906C-184.212,178.972-183.923,176.58-183.173,175.214
		L-183.173,175.214z M-178.609,188.205c2.197-0.373,2.203-2.426,2.031-7.068c-0.143-4.643-0.283-6.688-2.354-6.311
		c-2.076,0.375-2.156,2.452-2.127,7.096C-180.994,186.567-180.839,188.586-178.609,188.205L-178.609,188.205z"/>
	<polygon fill="#FFFFFF" points="-167.785,173.943 -171.193,174.261 -171.146,171.297 -161.55,170.389 -161.435,173.349 
		-164.826,173.666 -164.433,188.668 -167.644,188.947 	"/>
	<polygon fill="#FFFFFF" points="-159.486,170.242 -156.486,170.252 -154.519,183.906 -152.548,170.268 -150.146,170.275 
		-147.302,184.182 -146.246,170.289 -143.251,170.299 -145.136,188.275 -148.941,188.271 -151.189,176.899 -152.767,188.267 
		-156.591,188.261 	"/>
	<polygon fill="#FFFFFF" points="-140.373,170.547 -132.269,171.105 -132.019,174.083 -137.3,173.729 -137.085,177.879 
		-132.052,178.207 -131.837,181.043 -136.949,180.717 -136.724,185.654 -130.949,186.01 -130.728,189.037 -139.806,188.49 	"/>
	<path fill="#FFFFFF" d="M-126.46,171.713l4.025,0.484l5.58,18.268l-3.57-0.383l-1.215-4.577l-3.699-0.411l-0.594,4.395
		l-3.344-0.363L-126.46,171.713L-126.46,171.713z M-122.306,182.774l-1.939-7.626l-0.76,7.32L-122.306,182.774L-122.306,182.774z"/>
	<path fill="#FFFFFF" d="M-115.875,173.082l5.521,1.018c3.354,0.611,4.936,2.203,5.346,5.487c0.271,2.3-0.438,3.487-2.018,3.444
		c2.473,1.048,2.562,2.308,2.881,4.596l0.336,2.363c0.164,1.159,0.439,2.012,1.189,2.781l-4.047-0.665
		c-0.303-0.79-0.426-1.69-0.541-2.799l-0.207-1.863c-0.016-0.164-0.025-0.304-0.043-0.468c-0.211-2.301-1.203-2.843-3.527-3.244
		l-1.111-0.194l0.506,7.751l-3.234-0.54L-115.875,173.082L-115.875,173.082z M-110.421,181.424c1.861,0.326,2.418-0.223,2.217-2.195
		c-0.197-1.877-1.037-2.512-2.945-2.854l-1.539-0.28l0.412,5.002L-110.421,181.424L-110.421,181.424z"/>
	<g>
		<path fill="#CE2828" d="M-236.532,113.278c-3.397,0-4.655,2.876-4.655,4.101c0.764,0,9.76,0,9.76,0
			C-231.4,115.136-233.134,113.278-236.532,113.278z"/>
		<path fill="#CE2828" d="M-159.894,96.645h3.541c1.734,0,2.969-0.893,2.969-2.391c0-0.684-0.254-1.23-0.713-1.619h-5.797V96.645z"
			/>
		<path fill="#CE2828" d="M-147.712,92.634c0.643,1.352,1.014,2.858,1.014,4.452c0,5.754-4.684,10.435-10.438,10.435
			s-10.436-4.681-10.436-10.435c0-1.594,0.369-3.097,1.012-4.451l-123.788,0.007l13.91,61.858
			c8.537-5.615,19.264-8.968,30.928-8.968c11.708,0,22.474,3.379,31.025,9.034c8.554-5.655,19.319-9.034,31.026-9.034
			c11.664,0,22.391,3.354,30.928,8.968l13.914-61.867L-147.712,92.634z M-250.341,130.192h-3.129h-2.761h-13.486l-0.032-20.348
			h8.218v15.174h5.301h2.761h3.129L-250.341,130.192L-250.341,130.192z M-235.376,126.556c3.185,0,4.245-1.629,4.403-2.215
			c1.543,0,6.609,0,7.479,0c-0.336,1.655-1.767,2.99-3.058,3.917c-3.11,2.215-7.934,2.523-9.505,2.523c-0.14,0-0.279,0-0.421,0
			c-7.095-0.334-13.355-2.881-13.355-10.892c0-9.664,10.774-11.006,13.215-10.98c0.029,0,0.085,0,0.141,0
			c3.338,0.058,7.264,0.759,9.926,3.618c1.769,1.88,2.975,4.967,3.058,9.146c0,0-16.89,0.026-17.694,0.026
			C-241.187,124.679-238.56,126.556-235.376,126.556z M-206.98,130.192h-1.531h-5.436l-11.482-20.008l-0.159-0.256h0.159h9.321
			l7.007,12.842l6.305-12.906h6.402L-206.98,130.192z M-187.273,130.189h-8.137v-20.345h8.137V130.189z M-180.576,111.667
			c-0.121,1.156-0.945,2.179-2.066,2.628c-0.328,0.121-0.742,0.187-1.207,0.168v-0.848c1.324,0,1.258-1.655,1.154-2.035h-2.674
			v-3.646h2.727h2.066V111.667L-180.576,111.667z M-169.427,130.668c-6.654,0-9.943-2.501-10.299-6.455
			c3.436,0,2.525,0.027,5.934,0.056c0.615,2.599,2.082,3.065,5.043,3.038c1.512,0.114,3.688-0.721,3.688-2.162
			c0-1.398-1.481-1.822-4.746-2.543c-4.961-1.095-10.344-2.076-10.344-6.068c0-4.953,6.719-7.655,11.974-7.46
			c0.11,0,0.225,0,0.336,0c7.485,0,10.077,4.409,10.077,6.402l-6.059,0.056c-0.384-2.176-2.229-2.51-4.494-2.734
			c-0.197-0.027-0.394-0.027-0.588-0.027c-2.152,0-3.812,0.576-3.785,2.112c0.024,1.536,2.606,2.002,4.899,2.17
			c0.308,0.027,10.526,0.846,10.526,6.399C-157.263,128.792-162.773,130.668-169.427,130.668z"/>
		<path fill="#CE2828" d="M-152.064,94.205c0,1.93-1.32,3.048-3.135,3.379l3.545,4.713h-1.6l-3.348-4.482h-3.295v4.482h-1.305
			v-9.662h-3.924c-0.734,1.319-1.16,2.835-1.16,4.451c0,5.044,4.104,9.147,9.146,9.147c5.046,0,9.146-4.103,9.146-9.147
			c0-1.616-0.424-3.133-1.163-4.452l-3.302,0.001C-152.208,93.094-152.064,93.616-152.064,94.205z"/>
		<polygon fill="#FFFFFF" points="-256.231,125.018 -261.532,125.018 -261.532,109.844 -269.75,109.844 -269.717,130.192 
			-256.231,130.192 -253.47,130.192 -250.341,130.192 -250.341,125.018 -253.47,125.018 		"/>
		<path fill="#FFFFFF" d="M-226.55,112.525c-2.662-2.858-6.588-3.56-9.926-3.618c-0.056,0-0.111,0-0.141,0
			c-2.44-0.026-13.215,1.317-13.215,10.98c0,8.011,6.261,10.558,13.355,10.892c0.142,0,0.281,0,0.421,0
			c1.571,0,6.395-0.308,9.505-2.523c1.291-0.926,2.722-2.261,3.058-3.917c-0.87,0-5.937,0-7.479,0
			c-0.158,0.586-1.219,2.215-4.403,2.215s-5.812-1.877-5.812-4.859c0.805,0,17.694-0.026,17.694-0.026
			C-223.576,117.492-224.782,114.405-226.55,112.525z M-241.187,117.379c0-1.224,1.258-4.101,4.655-4.101s5.132,1.857,5.104,4.101
			C-231.427,117.379-240.423,117.379-241.187,117.379z"/>
		<path fill="#FFFFFF" d="M-167.791,117.051c-2.293-0.167-4.875-0.634-4.9-2.17c-0.027-1.536,1.633-2.112,3.785-2.112
			c0.195,0,0.391,0,0.588,0.027c2.264,0.225,4.111,0.559,4.494,2.734l6.059-0.056c0-1.993-2.592-6.402-10.078-6.402
			c-0.111,0-0.225,0-0.336,0c-5.254-0.195-11.973,2.507-11.973,7.46c0,3.992,5.383,4.973,10.344,6.068
			c3.264,0.721,4.746,1.145,4.746,2.543c0,1.44-2.178,2.275-3.688,2.162c-2.961,0.027-4.428-0.439-5.043-3.038
			c-3.408-0.028-2.498-0.056-5.936-0.056c0.354,3.954,3.646,6.455,10.301,6.455c6.652,0,12.162-1.877,12.162-7.218
			C-157.263,117.897-167.484,117.079-167.791,117.051z"/>
		<path fill="#FFFFFF" d="M-185.369,107.936v3.646h2.674c0.104,0.379,0.17,2.035-1.154,2.035v0.848
			c0.465,0.018,0.879-0.047,1.207-0.168c1.121-0.449,1.945-1.472,2.066-2.628v-3.731h-2.066h-2.727V107.936L-185.369,107.936z"/>
		<polygon fill="#FFFFFF" points="-209.101,122.771 -216.108,109.928 -225.429,109.928 -225.588,109.928 -225.429,110.184 
			-213.947,130.192 -208.511,130.192 -206.98,130.192 -196.394,109.864 -202.796,109.864 		"/>
		<rect x="-195.41" y="109.844" fill="#FFFFFF" width="8.137" height="20.345"/>
		<path fill="#FFFFFF" d="M-159.894,102.297v-4.482h3.295l3.346,4.482h1.602l-3.545-4.713c1.812-0.332,3.135-1.45,3.135-3.379
			c0-0.588-0.146-1.11-0.393-1.569h-1.643c0.459,0.389,0.713,0.936,0.713,1.619c0,1.498-1.234,2.391-2.969,2.391h-3.541v-4.01
			h-1.305v9.662L-159.894,102.297L-159.894,102.297z"/>
		<path fill="#FFFFFF" d="M-157.136,107.521c5.754,0,10.438-4.681,10.438-10.435c0-1.594-0.371-3.1-1.014-4.452h-1.439
			c0.738,1.318,1.164,2.836,1.164,4.452c0,5.044-4.104,9.147-9.146,9.147s-9.146-4.103-9.146-9.147c0-1.616,0.426-3.131,1.161-4.451
			h-1.438c-0.643,1.354-1.012,2.857-1.012,4.451C-167.572,102.84-162.89,107.521-157.136,107.521z"/>
	</g>
</g>
<g>
	<path fill-rule="evenodd" clip-rule="evenodd" fill="#CE2828" d="M56.456,113.823h187.087l-17.284,78.219
		c-26.292-10.75-51.42-10.967-76.331,0.072c-25.565-11.186-51.13-11.039-77.058-0.072L56.456,113.823L56.456,113.823z"/>
	<path fill-rule="evenodd" clip-rule="evenodd" fill="#EC1C24" d="M223.935,192.331c0.799,0,1.452,0.654,1.452,1.525
		c0,0.799-0.653,1.453-1.452,1.453c-0.872,0-1.525-0.654-1.525-1.453C222.409,192.985,223.062,192.331,223.935,192.331
		L223.935,192.331z M223.935,192.622c-0.654,0-1.235,0.582-1.235,1.234c0,0.582,0.581,1.162,1.235,1.162
		c0.653,0,1.161-0.58,1.161-1.162C225.096,193.204,224.588,192.622,223.935,192.622L223.935,192.622z M223.716,193.712h0.146
		c0.146,0,0.218,0,0.218,0c0.072-0.072,0.072-0.072,0.072-0.145s0-0.146-0.072-0.146c0,0-0.072-0.072-0.218-0.072h-0.146V193.712
		L223.716,193.712z M223.28,194.583h0.436v-0.58h0.146c0.073,0,0.146,0,0.146,0.072c0.072,0,0.072,0.072,0.072,0.072
		c0,0.072,0,0.072,0,0.219c0.072,0.072,0.072,0.145,0.072,0.217h0.437c0-0.072-0.072-0.145-0.072-0.289c0-0.146,0-0.219,0-0.219
		c-0.073-0.072-0.073-0.145-0.146-0.145c0-0.074-0.073-0.074-0.146-0.074c0.072,0,0.146-0.072,0.218-0.145
		c0.073-0.072,0.073-0.145,0.073-0.217c0-0.146,0-0.219-0.073-0.291c-0.146-0.072-0.291-0.072-0.436-0.072h-0.727V194.583
		L223.28,194.583z"/>
	<path fill-rule="evenodd" clip-rule="evenodd" fill="#FFFFFF" d="M215.219,172.069v-1.961h2.252v1.961H215.219L215.219,172.069z
		 M205.342,168.22c0-1.234,0.436-2.252,1.307-2.977c0.872-0.654,2.034-1.018,3.56-1.018c1.524,0,2.687,0.363,3.559,1.018
		c0.944,0.725,1.38,1.742,1.38,2.977s-0.436,2.252-1.38,2.979c-0.872,0.652-2.034,1.016-3.559,1.016
		c-1.525,0-2.688-0.363-3.56-1.016C205.777,170.472,205.342,169.454,205.342,168.22L205.342,168.22z M208.319,168.22
		c0,0.799,0.146,1.307,0.436,1.67c0.363,0.363,0.799,0.51,1.453,0.51c0.653,0,1.161-0.146,1.452-0.51s0.436-0.871,0.436-1.67
		s-0.145-1.307-0.436-1.67s-0.799-0.508-1.452-0.508c-0.654,0-1.09,0.145-1.453,0.508
		C208.465,166.913,208.319,167.493,208.319,168.22L208.319,168.22z M201.855,169.091h2.688c-0.073,1.018-0.509,1.744-1.234,2.324
		c-0.727,0.582-1.671,0.799-2.905,0.799c-1.453,0-2.542-0.363-3.341-1.016c-0.799-0.727-1.162-1.744-1.162-2.979
		s0.363-2.252,1.162-2.977c0.799-0.654,1.888-1.018,3.268-1.018c1.235,0,2.252,0.219,2.979,0.799
		c0.653,0.508,1.089,1.307,1.161,2.252h-2.687c0-0.363-0.146-0.654-0.363-0.871c-0.291-0.219-0.654-0.291-1.09-0.291
		c-0.508,0-0.944,0.145-1.234,0.508c-0.218,0.363-0.363,0.871-0.363,1.598s0.146,1.234,0.437,1.598
		c0.29,0.363,0.653,0.508,1.234,0.508c0.436,0,0.799-0.072,1.017-0.289C201.71,169.817,201.855,169.454,201.855,169.091
		L201.855,169.091z M190.09,172.069l-0.727-0.654c-0.436,0.291-0.943,0.51-1.38,0.654c-0.508,0.145-1.089,0.217-1.67,0.217
		c-0.871,0-1.598-0.217-2.106-0.58c-0.508-0.436-0.799-1.018-0.799-1.742c0-0.51,0.146-0.945,0.436-1.309
		c0.291-0.363,0.799-0.727,1.453-1.016c-0.291-0.219-0.509-0.436-0.654-0.654c-0.072-0.291-0.145-0.508-0.145-0.799
		c0-0.654,0.218-1.162,0.726-1.453c0.509-0.363,1.235-0.58,2.179-0.58c0.944,0,1.671,0.217,2.18,0.58
		c0.508,0.436,0.799,0.945,0.799,1.598c0,0.436-0.146,0.799-0.363,1.162c-0.218,0.291-0.581,0.582-1.09,0.799l0.727,0.654
		c0.146-0.072,0.218-0.145,0.363-0.291c0.072-0.072,0.145-0.217,0.29-0.363h2.252c-0.146,0.363-0.363,0.727-0.653,1.018
		c-0.219,0.291-0.509,0.654-0.872,0.943l2.033,1.816H190.09L190.09,172.069z M188.274,170.181l-1.09-1.09
		c-0.29,0.146-0.436,0.291-0.581,0.436c-0.145,0.146-0.218,0.291-0.218,0.51c0,0.145,0.073,0.289,0.218,0.436
		c0.146,0.072,0.291,0.145,0.581,0.145c0.146,0,0.363,0,0.581-0.072C187.911,170.472,188.129,170.325,188.274,170.181
		L188.274,170.181z M187.402,166.622c0.291-0.072,0.437-0.217,0.581-0.363c0.146-0.072,0.219-0.217,0.219-0.436
		c0-0.145-0.073-0.291-0.219-0.363c-0.145-0.145-0.29-0.217-0.508-0.217s-0.363,0.072-0.509,0.145
		c-0.145,0.145-0.145,0.291-0.145,0.436s0,0.291,0.145,0.436C187.04,166.331,187.185,166.478,187.402,166.622L187.402,166.622z
		 M163.218,169.673h2.905c0.073,0.291,0.218,0.508,0.436,0.58c0.218,0.146,0.509,0.219,0.944,0.219c0.363,0,0.653-0.072,0.799-0.146
		c0.218-0.145,0.363-0.217,0.363-0.436c0-0.289-0.436-0.508-1.308-0.652c-0.145-0.072-0.29-0.072-0.362-0.072
		c-0.727-0.146-1.235-0.291-1.671-0.438c-0.363-0.072-0.653-0.217-0.871-0.289c-0.363-0.219-0.654-0.51-0.8-0.799
		c-0.145-0.291-0.29-0.582-0.29-0.945c0-0.799,0.363-1.379,1.09-1.814c0.653-0.436,1.598-0.654,2.832-0.654s2.179,0.219,2.832,0.654
		c0.727,0.363,1.09,1.016,1.162,1.742h-2.832c-0.072-0.217-0.146-0.363-0.363-0.508c-0.218-0.072-0.436-0.146-0.799-0.146
		s-0.581,0-0.727,0.146c-0.146,0.072-0.29,0.217-0.29,0.363c0,0.289,0.436,0.436,1.234,0.652c0.073,0,0.146,0,0.218,0
		c0.072,0.074,0.291,0.074,0.509,0.146c1.089,0.217,1.815,0.436,2.106,0.58c0.436,0.219,0.726,0.51,0.943,0.799
		c0.146,0.291,0.291,0.582,0.291,1.018c0,0.799-0.363,1.453-1.09,1.889c-0.726,0.508-1.743,0.725-3.123,0.725
		c-1.234,0-2.179-0.217-2.904-0.725C163.727,171.126,163.291,170.472,163.218,169.673L163.218,169.673z M115.793,169.673h2.905
		c0.072,0.291,0.218,0.508,0.436,0.58c0.218,0.146,0.508,0.219,0.943,0.219c0.363,0,0.582-0.072,0.8-0.146
		c0.218-0.145,0.29-0.217,0.29-0.436c0-0.289-0.363-0.508-1.234-0.652c-0.146-0.072-0.291-0.072-0.363-0.072
		c-0.727-0.146-1.234-0.291-1.67-0.438c-0.363-0.072-0.727-0.217-0.872-0.289c-0.362-0.219-0.653-0.51-0.799-0.799
		c-0.218-0.291-0.29-0.582-0.29-0.945c0-0.799,0.363-1.379,1.017-1.814c0.726-0.436,1.671-0.654,2.905-0.654
		c1.162,0,2.105,0.219,2.832,0.654c0.654,0.363,1.09,1.016,1.162,1.742h-2.832c-0.072-0.217-0.146-0.363-0.363-0.508
		c-0.219-0.072-0.508-0.146-0.872-0.146c-0.29,0-0.508,0-0.726,0.146c-0.146,0.072-0.219,0.217-0.219,0.363
		c0,0.289,0.437,0.436,1.234,0.652c0.074,0,0.146,0,0.146,0c0.145,0.074,0.29,0.074,0.58,0.146c1.09,0.217,1.744,0.436,2.107,0.58
		c0.436,0.219,0.726,0.51,0.871,0.799c0.218,0.291,0.29,0.582,0.29,1.018c0,0.799-0.362,1.453-1.017,1.889
		c-0.727,0.508-1.743,0.725-3.123,0.725c-1.234,0-2.179-0.217-2.905-0.725C116.302,171.126,115.866,170.472,115.793,169.673
		L115.793,169.673z M171.934,169.673h2.978c0.072,0.291,0.218,0.508,0.436,0.58c0.146,0.146,0.509,0.219,0.872,0.219
		c0.362,0,0.653-0.072,0.871-0.146c0.218-0.145,0.29-0.217,0.29-0.436c0-0.289-0.436-0.508-1.234-0.652
		c-0.218-0.072-0.29-0.072-0.436-0.072c-0.654-0.146-1.234-0.291-1.598-0.438c-0.437-0.072-0.727-0.217-0.872-0.289
		c-0.363-0.219-0.653-0.51-0.871-0.799c-0.146-0.291-0.218-0.582-0.218-0.945c0-0.799,0.29-1.379,1.017-1.814
		s1.671-0.654,2.905-0.654c1.162,0,2.106,0.219,2.832,0.654c0.654,0.363,1.017,1.016,1.162,1.742h-2.905
		c0-0.217-0.146-0.363-0.362-0.508c-0.146-0.072-0.437-0.146-0.8-0.146c-0.29,0-0.58,0-0.726,0.146
		c-0.146,0.072-0.219,0.217-0.219,0.363c0,0.289,0.364,0.436,1.235,0.652c0.072,0,0.145,0,0.145,0
		c0.146,0.074,0.291,0.074,0.509,0.146c1.09,0.217,1.815,0.436,2.179,0.58c0.363,0.219,0.654,0.51,0.872,0.799
		c0.218,0.291,0.29,0.582,0.29,1.018c0,0.799-0.363,1.453-1.089,1.889c-0.727,0.508-1.743,0.725-3.051,0.725
		c-1.234,0-2.251-0.217-2.978-0.725C172.441,171.126,172.078,170.472,171.934,169.673L171.934,169.673z M153.559,164.444h3.051
		v4.721c0,0.436,0.145,0.725,0.363,0.871c0.217,0.217,0.58,0.289,1.161,0.289c0.509,0,0.872-0.072,1.09-0.289
		c0.218-0.146,0.363-0.436,0.363-0.871v-4.721h3.05v4.865c0,0.943-0.363,1.67-1.162,2.18c-0.799,0.508-1.888,0.797-3.341,0.797
		c-1.524,0-2.614-0.289-3.413-0.797c-0.799-0.51-1.162-1.236-1.162-2.18V164.444L153.559,164.444z M146.877,169.165h2.252
		l-1.089-2.688L146.877,169.165L146.877,169.165z M142.446,172.069l3.777-7.625h3.559l3.776,7.625h-3.269l-0.58-1.307h-3.414
		l-0.726,1.307H142.446L142.446,172.069z M133.441,172.069v-7.625h4.431c1.379,0,2.324,0.145,2.977,0.508
		c0.582,0.363,0.872,0.871,0.872,1.67c0,0.508-0.146,0.871-0.363,1.162c-0.29,0.291-0.653,0.582-1.161,0.727
		c0.508,0.072,0.943,0.291,1.161,0.508c0.218,0.291,0.363,0.654,0.363,1.162c0,0.654,0.073,1.234,0.073,1.889h-2.76
		c-0.073-0.219-0.073-0.363-0.146-0.508c0-0.146,0-0.219,0-0.291v-0.799c0-0.363-0.072-0.654-0.29-0.799
		c-0.218-0.146-0.509-0.219-0.944-0.219h-1.307v2.615H133.441L133.441,172.069z M136.347,167.712h1.38
		c0.436,0,0.799-0.072,0.944-0.146c0.217-0.145,0.29-0.289,0.29-0.58c0-0.219-0.073-0.436-0.29-0.58
		c-0.146-0.074-0.509-0.146-1.018-0.146h-1.307V167.712L136.347,167.712z M127.195,172.069v-6.102h-2.76v-1.523h8.497v1.523h-2.688
		v6.102H127.195L127.195,172.069z M108.966,172.069v-7.625h2.615v7.625H108.966L108.966,172.069z M97.927,164.444h3.051l2.251,5.01
		l2.179-5.01h2.76l-3.486,7.625h-3.123L97.927,164.444L97.927,164.444z M90.446,172.069v-7.625h6.973v1.523h-4.213v1.309h3.85v1.742
		h-3.85v1.453h4.357v1.598H90.446L90.446,172.069z M82.894,172.069v-7.625h2.687v6.027h3.849v1.598H82.894L82.894,172.069z"/>
	<path fill-rule="evenodd" clip-rule="evenodd" fill="#FFFFFF" d="M206.867,153.042c3.05,0,5.592-1.162,4.938-4.576l-0.146-0.363
		c-1.017-2.905-4.938-3.123-7.554-3.341c-5.81-0.508-11.329-1.525-11.838-8.352c-0.146-8.207,9.732-9.514,15.979-9.441
		c5.229,0.291,13.799,2.251,13.29,9.079h-10.312c-0.146-1.163-0.581-2.106-1.452-2.905c-1.816-1.453-5.811-1.743-7.408,0.073
		c-1.162,1.525-1.018,2.978-0.436,3.922c1.089,1.598,3.921,2.251,5.955,2.542c4.575,0.727,11.33,0.727,13.581,5.665
		c0.944,2.251,0.727,4.938-0.29,7.118c-2.034,4.212-7.118,5.738-11.476,6.173c-7.117,0.508-17.793-0.363-18.229-9.66h10.168
		C202.146,152.024,203.816,153.042,206.867,153.042L206.867,153.042z M180.431,128.203v29.921h-8.788v-29.921H180.431
		L180.431,128.203z M143.682,128.203L150,149.846l6.318-21.643h10.458l-11.838,29.921h-10.095l-11.476-29.921H143.682
		L143.682,128.203z M89.284,128.203v23.022h10.24v6.898H80.351v-29.921H89.284L89.284,128.203z M114.849,158.778
		c-7.625-0.871-12.273-6.318-12.637-14.525l-0.072-0.872c0.072-10.458,4.066-16.05,14.598-16.123
		c8.134,0.073,13.871,2.396,15.179,10.894c0.363,2.324,0.363,4.576,0.363,6.899h-20.481c-0.871,3.995,0.727,6.537,2.979,7.553
		c2.541,1.089,6.027,0.218,7.335-3.05h9.515C129.446,157.472,122.765,159.505,114.849,158.778L114.849,158.778z M122.475,140.404
		c-0.146-3.05,0.218-6.246-3.269-7.408c-1.525-0.363-3.268-0.363-4.793,0.145c-3.051,1.525-2.615,4.357-2.688,7.263H122.475
		L122.475,140.404z M187.911,131.907c2.47-0.944,4.357-4.358,3.486-6.9c-0.363-1.162-1.308-1.961-2.47-2.324
		c-0.871-0.291-1.67-0.363-2.542-0.073c-1.307,0.363-2.324,1.307-2.687,2.687c-0.437,2.034,1.017,3.704,2.978,4.14
		c0.726,0.218,1.38,0.363,2.251,0.436c-0.072,0.726-0.581,1.452-1.38,2.179L187.911,131.907L187.911,131.907z"/>
</g>
</svg>
