<?xml version="1.0" encoding="utf-8"?>
<!-- Generator: Adobe Illustrator 20.1.0, SVG Export Plug-In . SVG Version: 6.00 Build 0)  -->
<svg version="1.1" id="Layer_1" xmlns="http://www.w3.org/2000/svg" xmlns:xlink="http://www.w3.org/1999/xlink" x="0px" y="0px"
	 width="300px" height="1200px" viewBox="0 0 300 1200" style="enable-background:new 0 0 300 1200;" xml:space="preserve">
<style type="text/css">
	.st0{fill:none;}
	.st1{fill:#006600;}
	.st2{fill:none;stroke:#2C2C2C;stroke-miterlimit:10;}
	.st3{fill:#FDED02;}
</style>
<rect x="125.3" y="1027" class="st0" width="50" height="50"/>
<rect x="-1149" y="701" class="st1" width="116.1" height="116.1"/>
<rect x="330.3" y="900" class="st2" width="300" height="300"/>
<g>
	<path class="st0" d="M224.1,217.5c-1.4,0-2.6,1.1-2.6,2.8c0,1.7,1.2,2.8,2.6,2.8v0c1.4,0,2.6-1.1,2.6-2.8
		C226.7,218.6,225.5,217.5,224.1,217.5z M224.8,222.2l-0.9-1.7h-0.4v1.7h-0.8v-3.9h1.5c1,0,1.6,0.3,1.6,1.2c0,0.7-0.4,1-0.9,1l1,1.7
		H224.8z"/>
	<path class="st0" d="M224.1,219h-0.6v0.9h0.7c0.4,0,0.6-0.1,0.6-0.5C224.8,219,224.4,219,224.1,219z"/>
	<polygon points="121,165.2 111.4,155.5 111.4,212.6 121,205.4 	"/>
	<polygon points="149.7,161.8 149.7,154.3 132.1,168.8 144.6,166 	"/>
	<polygon points="134.8,81.8 130.5,78 112.8,69.8 128.8,87.8 	"/>
	<path d="M225.7,219.5c0-0.9-0.6-1.2-1.6-1.2h-1.5v3.9h0.8v-1.7h0.4l0.9,1.7h1l-1-1.7C225.3,220.5,225.7,220.2,225.7,219.5z
		 M224.2,219.9h-0.7V219h0.6c0.3,0,0.8,0,0.8,0.4C224.8,219.8,224.6,219.9,224.2,219.9z"/>
	<path d="M224.1,216.6c-1.9,0-3.7,1.3-3.7,3.7c0,2.3,1.7,3.6,3.7,3.6c1.9,0,3.7-1.3,3.7-3.6C227.7,218,226,216.6,224.1,216.6z
		 M224.1,223.1L224.1,223.1c-1.4,0-2.6-1.1-2.6-2.8c0-1.7,1.2-2.8,2.6-2.8c1.4,0,2.6,1.1,2.6,2.8
		C226.7,221.9,225.5,223.1,224.1,223.1z"/>
	<path d="M253,87.2c-1.6-1.1-4.5-1.7-7.4-1.4c-2.7,0.2-4.5,1.6-6,2.8c0,0-3.9,3.9-3.9,3.9l-1,1.7c0,0-3.5,4.4-3.5,4.4s0,0,0,0V74.5
		l-10.6-6.4l0,43.7l-0.1,0.2l-2.6,3V68.1H152l-23.4,23.3l-20.8-23.3H42.9v144.4h66v-63.6l19.4,20l23.9-20.3v63.9h65.6l0-60.9
		c0.5-0.9,0.9-1.6,0.9-1.6c0,0,0.6-0.8,0.6-0.8c0,0,0.6-0.9,1.2-1.9l0,65.2l10.6-7.3v-76.9c0.5-0.7,1.2-1.7,1.2-1.7
		c0.1-0.2,1.6-2.5,1.6-2.5c0,0,2.4-3.6,2.4-3.6c0-0.1,0.9-1.2,0.9-1.2l2.3-3.2c0.4-1,1.7-1.7,2.2-2l0.2-0.1l0.3-0.2l1.2-1.2
		c0,0,2-1.7,2-1.7l3.5-1.6l3.2-1.8c0,0,3-3.6,3-3.6l1.6-4.9c0,0,0.5-4.7,0.5-4.7C257.1,91.7,255.3,88.8,253,87.2z M173.9,126.5
		c0.1,0.5,0.3,4.7,0.3,5.4c0,2.1,0.1,4.4,0.1,5.4c-0.1,0.7,0,3.2,0,3.2c0.2,2,0.6,4.1,0.6,4.5c0.1,1-0.3,4.8-0.2,5.7
		c0,0.2,0.3,1.8,0.3,2.1c-0.2,1,0.1,2.2,0.1,2.6c-0.1,0.8-0.1,1.7-0.1,2.6c-0.1,1.4-0.1,2.9-0.2,4.1c0,0.3,0,2.6,0,2.6
		c-0.3,2.2-0.5,4.6-0.2,6.9c0.1,0.5,0,2,0,2.3c0.1,0.3,0.6,2.1,0.6,2.5c0.1,0.6,0.3,3.3,0.6,4c0.3,0.6,1.5,3.4,1.6,3.8
		c0.3,1.1,0.9,3.6,0.4,4.9c-0.5,1.2-1.1,4.2-1.6,4.9c-0.4,0.6-1,1-1.3,1.5c-0.3,0.4-0.8,0.8-1.3,1c-1.4,0.6-4,1-6.2,0.3
		c-0.9-0.3-2.3-0.2-3.8-1.1c-1.2-0.8-1.7-2.8-1.9-3.9c-0.1-0.5,0.1-1.9,0-2.1c0-0.3-0.5-2.4-0.5-3c0-0.3,0.1-1.7,0-2.6
		c-0.2-1.2-0.8-3.1-0.8-3.1c-0.2-0.8-0.6-2.5-0.6-2.5c-0.5-1.3-0.7-2.5-0.8-3.6c-0.2-1.9,0.2-3.5,0.7-5c0.2-0.8,0.5-1.6,0.6-2.4
		c0.1-0.6-0.4-3.2-0.3-4.1c0-0.4,0.3-1.5,0.3-1.7c0.1-0.7,0.1-2.7,0.1-3.1c0-0.4,0.3-2.1,0.2-3.8c0-0.7-0.1-1.4,0-2.1
		c0.1-0.8,0.2-2.7,0-3.6c-0.2-1.4-0.1-2.6-0.1-2.7c-0.1-1.4-0.2-3-0.1-4.2c0-0.2-0.2-2.4-0.2-3.1c0-0.4,0-3.1-0.1-3.4
		c-0.6-6.7-1.5-7.9-1.8-8.2c-0.4-0.2-1.3-0.2-1.9,0c-0.4,0.2-1.5,1.2-2.5,1.7c-0.9,0.5-2.6,1.3-3.2,1.7c-0.7,0.5-1.8,1.4-3.9,2.6
		c-0.5,0.3-1,0.8-1.5,1.2c-0.7,0.6-2.1,2-4.2,3.1c-1.1,0.5-2,1.2-2.8,1.9c-0.3,0.3-1.5,2.3-2.2,3c-0.7,0.7-1.2,1.7-1.3,2
		c-0.4,0.8-0.8,1.7-1.6,2.3c-1.2,0.9-3.9,1.1-5.6,0.4c-1-0.4-3.1-1.8-4-4.3c-0.9-2.4-0.2-5.5,1.7-7.5c1.2-1.3,3-1.9,4.8-2.4
		c1.1-0.3,2.2-0.6,3-1.1c0.4-0.2,1.7-1.2,2-1.4c0.4-0.3,1.9-1,2.1-1.2c0.3-0.2,1.8-1.5,2.8-2.1c1.7-0.9,3-1.7,3.8-2.2
		c0,0,2.3-1.3,3.8-2.7c0.3-0.3,1.8-0.9,3.4-1.8c0.4-0.2,2.1-0.8,2.5-1c0.3-0.1,1.4-1,1.8-1.2c1.5-0.8,2.2-1.7,1.8-4
		c-0.2-0.8-0.4-1.6-0.3-2.6c0-0.2,0.4-1.7,0.9-2.7c0.3-0.5,0.7-0.5,1-1c0.2-0.5,1.1-0.9,1.7-1c0.4-0.4,1.2-0.8,2.2-1
		c2.1-0.3,4.8,1.2,5.2,1.3c0.7,0.2,2,0.1,2.6-0.1c0.1,0,1-0.6,1.3-0.7c0.4-0.2,1.8-0.5,2-0.6c0.4-0.1,2.3-1.2,2.8-1.3
		c0.5-0.2,1.7-0.4,2.2-0.5c0.9-0.7,2.6-1.2,3.3-1.8c0.7-0.7,1.7-2.2,2-2.5c0.4-0.5,2.3-1.8,2.6-2c0.6-0.5,2-1.5,3-1.8
		c0.5-0.1,1.8,0.1,2.6,0.1c0.9,0,2.2,0.1,3.2,1.5c0.5,0.7,1.3,1.5,1.5,2.5c0.6,3.2-1.8,6.4-3.6,7.5c-0.2,0.1-1.1,0.4-1.6,0.5
		c-0.8,0.2-1.5,0.8-2,0.9c-1,0.3-1.5,1-1.9,1.2c-0.4,0.2-1.8,1.1-2.3,1.3c-0.3,0.2-0.9,1-2,1.3c-0.7,0.2-2.1,0.6-3.3,1.6
		c-0.5,0.4-2.4,0.8-3,0.9c-0.2,0.1-2.7,1.1-3,2.6c-0.3,1.5,0,1.9-0.3,4.1C173.7,124,173.8,125.6,173.9,126.5z M255.1,98.5
		c-0.2,0.9-0.7,3.1-1.4,4.4c-0.3,0.6-1.5,2.4-2.5,3.1c-0.9,0.7-2.2,1.3-2.8,1.5c-0.5,0.2-3,1.4-3.7,1.7c-1.2,0.7-1.9,1.4-2.5,2.1
		c-0.3,0.4-0.7,0.7-1,1.1c-0.2,0.1-2.4,1-3.2,2.9c-0.5,1.1-2.7,3.5-3.1,4.2c-0.6,1-1.4,2.5-2.2,3.3c-0.2,0.2-0.5,0.6-0.8,1
		c-0.3,0.4-0.5,0.8-0.8,1.3c-0.1,0.1-0.1,0.2-0.2,0.4c-0.5,0.9-1.1,1.9-1.5,2.2c-0.8,0.9-1.3,2.1-1.7,3.1c-0.2,0.4-1.6,2.4-2.1,3.8
		c-0.2,0.6-1.4,2.6-1.6,3c-0.3,0.7-1.8,2.2-2,2.5c-0.2,0.5-0.4,1.1-0.6,1.7c-0.2,0.6-0.7,1.7-0.8,2.2c-0.2,0.3-0.5,0.8-0.7,1.2
		c0,0,0,0,0,0c-0.2,0.3-0.4,0.7-0.6,1c-0.5,0.8-1,1.6-1.3,2.1c-0.2,0.3-0.4,0.6-0.6,0.9c-0.3,0.5-2.6,4.3-3.1,5.2
		c-0.2,0.4-0.5,0.8-0.8,1.3c-0.7,1-1.4,2.1-1.7,3.4c-0.2,0.8-0.8,2.2-0.9,2.3c-0.9,2.2-1.2,4.5-1.3,5.2c-0.1,1.1-0.1,2.2-0.1,3.2
		c0,1.1,0.1,2.2-0.1,3.2c-0.3,1.8-1,3.5-1.9,4.9c-0.2,0.4-1.1,1.6-2.1,2.5c-0.7,0.7-2,1-4.2,1c-3,0-4.3-1.1-5.9-3.5
		c-0.3-0.4-0.8-1.4-1.4-2.7c-0.8-1.7-1.5-3.3-2-5.3c-0.2-0.6-0.4-1.3-0.7-2c-0.3-0.7-0.8-2.8-0.9-3.1c-0.1-0.3-0.8-2.7-0.8-2.9
		c-0.3-1.5-0.7-2.8-1-4.1c-0.4-1.3-0.7-2.6-1-3.9c-0.2-1.3-0.9-3.3-1.4-4.8c0,0-0.9-3-1.2-4.1c-0.4-1.5-1.8-5.5-1.8-5.5
		c-0.5-1.4-1.7-4.6-1.8-5.1c-0.7-4.2-0.7-7.5,0-9c0.3-0.7,1.5-1.3,2.4-1.8c0.3-0.2,1.8-1.2,2.2-1.2c0.9-0.3,2.5-0.3,3.9-0.2
		c0.2,0,1.8,0,2.4,0.5c2.2,1.5,2.4,3.5,2.6,7.1c0,0,0.4,3.9,0.6,5.3c0.1,1.1,0.3,2.2,0.4,3.3c0.1,0.8,0.1,1.6,0.1,2.4
		c0.1,1.4,0.6,4.2,0.6,4.2c0.5,1.6,1,3.2,2.9,4c0.5,0.2,1.1,0.2,1.7-0.1c1.3-0.7,2.5-2.8,3-5.3c0-0.1,0.2-0.4,0.4-0.7
		c0.5-0.6,1.1-1.5,1.4-3c0.1-0.4,1-1.6,1.5-2.3c0.5-0.7,1-1.4,1.3-2c0.1-0.2,2.3-3.6,2.3-3.6s0.8-1.9,1.2-2.6
		c0.4-0.7,0.7-1.6,0.7-1.7c0.2-0.7,0.5-2.3,1.3-3.1c1-1.2,2.1-3.8,2.1-3.9c0.2-0.4,0.9-1.6,1.5-2.5c0,0,0.1-0.1,0.1-0.2v0
		c0,0,0,0,0-0.1c0.3-0.3,0.6-0.8,0.9-1.1l1.9-2.2c0.4-0.4,0.8-0.9,1.1-1.3c0.4-0.5,1.2-1.6,1.8-2.7c0.4-0.6,1.6-2.2,2-2.6
		c0.4-0.4,3.1-4.1,3.6-4.7c0.2-0.2,1.3-1.4,2-2.1c0,0,0,0,0,0c0.9-1,1.3-1.3,1.4-1.5c0.6-0.7,1.2-1.5,1.7-2.2
		c0.6-0.7,1.2-1.4,1.7-2.2c0.2-0.3,0.9-1.5,1.1-1.7c0.6-0.8,3.5-3.5,3.6-3.6c1.4-1.1,2.9-2.2,5.1-2.4c2.4-0.2,5,0.2,6.3,1.1
		c1.8,1.2,3.4,3.7,3.5,5.6C255.6,96,255.4,96.7,255.1,98.5z"/>
	<polygon points="50.2,225.9 50.2,225.9 48.4,216.8 42.8,216.8 42.8,232.3 46.5,232.3 46.5,222.4 46.5,222.4 48.7,232.3 51.7,232.3 
		53.9,222.4 53.9,222.4 53.9,232.3 57.6,232.3 57.6,216.8 52,216.8 	"/>
	<path d="M66.6,225.3c0,1.6,0,3.5-1.9,3.5c-1.9,0-1.9-2-1.9-3.5v-8.4H59v9.5c0,4.3,1.9,6.3,5.8,6.3c3.9,0,5.8-2.1,5.8-6.3v-9.5h-3.9
		V225.3z"/>
	<path d="M79.5,222.9c-1.8-0.6-3.6-0.8-3.7-1.9c0-0.9,0.9-1,1.4-1c0.4,0,0.8,0.1,1.2,0.4c0.3,0.3,0.5,0.7,0.5,1.2h3.7
		c-0.1-3.8-2.5-5-5.3-5c-2.6,0-5.1,1.5-5.1,5.1c0,3.1,2.3,3.8,4.3,4.5c2.2,0.8,2.7,1,2.7,1.8c0,1.2-1,1.4-1.6,1.4
		c-0.7,0-1.6-0.2-1.9-1.1c-0.1-0.3-0.1-0.6-0.1-1h-3.9c0,4.9,4.1,5.6,5.6,5.6c2.8,0,5.9-1.3,5.9-5.3
		C83.1,224.5,81.4,223.5,79.5,222.9z"/>
	<rect x="84.4" y="216.8" width="3.9" height="15.4"/>
	<path d="M96.1,228.8c-1.8,0-2.4-2.2-2.4-4.2c0-2.1,0.6-4.2,2.4-4.2c1.6,0,2,1.7,2.1,2.3h3.8c-0.3-3.9-2.3-6.1-5.7-6.1
		c-3.9,0-6.4,3.2-6.4,8.1c0,4.6,2.3,8.1,6.4,8.1c3.7,0,5.8-3.3,5.8-6.4h-3.8C98,227.7,97.4,228.8,96.1,228.8z"/>
	<polygon points="108.6,220.8 112.2,220.8 112.2,232.3 116.1,232.3 116.1,220.8 119.6,220.8 119.6,216.8 108.6,216.8 	"/>
	<polygon points="124.7,226.4 130.7,226.4 130.7,222.7 124.7,222.7 124.7,220.8 131.3,220.8 131.3,216.8 120.8,216.8 120.8,232.3 
		131.5,232.3 131.5,228.3 124.7,228.3 	"/>
	<polygon points="136.6,216.8 132.7,216.8 132.7,232.3 142.2,232.3 142.2,228.3 136.6,228.3 	"/>
	<polygon points="147.1,226.4 153.1,226.4 153.1,222.7 147.1,222.7 147.1,220.8 153.7,220.8 153.7,216.8 143.2,216.8 143.2,232.3 
		153.9,232.3 153.9,228.3 147.1,228.3 	"/>
	<polygon points="161,226.2 161,226.2 158.9,216.8 154.9,216.8 158.7,232.3 163.1,232.3 167,216.8 163,216.8 	"/>
	<rect x="168.5" y="216.8" width="3.9" height="15.4"/>
	<path d="M181.8,222.9c-1.8-0.6-3.6-0.8-3.7-1.9c0-0.9,0.9-1,1.4-1c0.4,0,0.8,0.1,1.2,0.4c0.3,0.3,0.5,0.7,0.5,1.2h3.7
		c-0.1-3.8-2.5-5-5.3-5c-2.6,0-5.1,1.5-5.1,5.1c0,3.1,2.3,3.8,4.3,4.5c2.2,0.8,2.7,1,2.7,1.8c0,1.2-1,1.4-1.6,1.4
		c-0.7,0-1.6-0.2-1.9-1.1c-0.1-0.3-0.1-0.6-0.1-1H174c0,4.9,4.1,5.6,5.6,5.6c2.8,0,5.9-1.3,5.9-5.3
		C185.4,224.5,183.6,223.5,181.8,222.9z"/>
	<rect x="186.7" y="216.8" width="3.9" height="15.4"/>
	<path d="M198.3,216.5c-3.9,0-6.4,3.4-6.4,8.1c0,4.7,2.6,8.1,6.4,8.1c3.9,0,6.4-3.4,6.4-8.1C204.8,219.9,202.2,216.5,198.3,216.5z
		 M198.3,228.8c-1,0-2.5-0.8-2.5-4.2c0-3.4,1.5-4.2,2.5-4.2c1,0,2.5,0.8,2.5,4.2C200.9,228,199.3,228.8,198.3,228.8z"/>
	<polygon points="214,225.1 213.9,225.1 210.2,216.8 206.2,216.8 206.2,232.3 209.9,232.3 209.9,223.9 210,223.9 213.9,232.3 
		217.7,232.3 217.7,216.8 214,216.8 	"/>
</g>
<polygon points="133.5,504 140.7,498.6 140.7,468.6 133.5,461.3 "/>
<polygon points="158.4,469.2 162.2,466.1 162.2,460.4 149,471.3 "/>
<polygon points="151.1,406.2 147.8,403.4 134.6,397.3 146.6,410.7 "/>
<path d="M247.9,413.9c-0.1-2-1.6-4.5-3.5-5.7c-1.1-0.8-3-1.2-4.9-1.2c-0.4,0-0.7,0-1.1,0c-2.4,0.2-4,1.5-4.9,2.3c0,0-2.4,2.2-3,3
	c-0.1,0.2-0.2,0.3-0.4,0.7c-0.1,0.2-0.3,0.4-0.3,0.6c-0.4,0.5-0.8,1-1.2,1.5l-0.1,0.1l-0.1,0.1c-0.4,0.5-0.8,1-1.3,1.6
	c-0.1,0.1-0.4,0.4-0.8,0.8l-0.1,0.1l-0.3,0.3l-0.3,0.3l0,0c-0.9,0.9-1,1.1-1.1,1.1l-0.4,0.5c-0.1,0.2-0.4,0.5-0.7,0.9
	c-0.3,0.4-0.7,0.9-1,1.3V401l-7-4.2l0,34.3c-0.4,0.6-0.7,1.2-0.9,1.6l0,0l0,0c0,0,0,0.1-0.1,0.1c0,0,0,0,0,0c-0.5,1.1-0.8,1.7-1,2
	c-0.1,0.2-0.2,0.3-0.2,0.3c-0.3,0.4-0.6,0.8-0.8,1.3l0-40.1h-48.5l-17.7,17.6l-15.8-17.6H82.8v107h48.4v-48.3l15.1,15.5l18.3-15.6
	v48.4h48.1l0-28c0.3-0.7,0.5-1.5,0.7-2.3c0.2-1,0.1-2,0.1-2.8c0-0.7-0.1-1.4,0-2.1c0-0.4,0.1-0.7,0.2-1c0.2-0.9,0.4-1.7,0.7-2.3
	l0-0.1c0.1-0.2,0.2-0.5,0.3-0.7c0.2-0.4,0.3-0.8,0.4-1.2c0.1-0.4,0.3-0.8,0.6-1.3l0,41.3l6.9-4.8v-48.9c0,0,0-0.1,0-0.1
	c0.1-0.1,0.1-0.2,0.2-0.2c0.3-0.3,0.5-0.6,0.7-0.9c0.3-0.3,0.5-0.6,0.6-1c0.1-0.1,0.2-0.3,0.3-0.5c0.5-0.8,0.8-1.4,0.9-1.8
	c0.2-0.5,0.7-1.4,1-1.9c0.3-0.4,0.4-0.6,0.5-0.9c0.3-0.6,0.5-1.3,0.9-1.7c0.4-0.4,0.7-1,1.3-1.9l0.1-0.1l0.1-0.1l0.1-0.1
	c0.2-0.4,0.4-0.6,0.6-0.9c0.2-0.3,0.3-0.4,0.3-0.4c0.8-0.8,1.4-1.9,1.9-2.8l0-0.1c0.1-0.1,0.4-0.5,0.6-0.8c0.9-1,1.5-1.8,1.8-2.6
	c0.2-0.4,0.6-0.7,1.3-1.1c0.2-0.1,0.3-0.2,0.5-0.3c0.4-0.4,0.7-0.7,1-1l0,0c0.4-0.5,0.7-0.8,1.3-1.1c0.5-0.2,2.2-1,2.5-1.2
	c0.6-0.2,1.8-0.8,2.6-1.4c1-0.8,2.1-2.4,2.4-3c0.5-0.8,0.9-2.1,1.2-3.8C247.8,416.2,247.9,415.5,247.9,413.9z M245.6,417.2
	c-0.1,0.7-0.5,2.3-1,3.3c-0.2,0.4-1.1,1.8-1.8,2.3c-0.7,0.5-1.7,1-2.1,1.1c-0.4,0.1-2.3,1-2.8,1.3c-0.9,0.5-1.4,1-1.9,1.6
	c-0.2,0.3-0.5,0.5-0.8,0.8c-0.1,0.1-1.8,0.8-2.4,2.2c-0.4,0.9-2,2.6-2.3,3.1c-0.4,0.7-1,1.8-1.6,2.4c-0.2,0.2-0.4,0.4-0.6,0.8
	c-0.2,0.3-0.4,0.6-0.6,1c-0.1,0.1-0.1,0.2-0.2,0.3c-0.4,0.6-0.8,1.4-1.1,1.7c-0.6,0.7-1,1.6-1.3,2.3c-0.1,0.3-1.2,1.8-1.6,2.8
	c-0.2,0.5-1.1,2-1.2,2.2c-0.2,0.5-1.4,1.6-1.5,1.8c-0.2,0.3-0.3,0.8-0.5,1.3c-0.1,0.4-0.5,1.3-0.6,1.6c-0.2,0.3-0.3,0.6-0.6,0.9
	c0,0,0,0,0,0c-0.2,0.3-0.3,0.5-0.5,0.8c-0.4,0.6-0.7,1.2-1,1.5c-0.2,0.2-0.3,0.4-0.5,0.7c-0.2,0.3-1.9,3.2-2.3,3.9
	c-0.2,0.3-0.4,0.6-0.6,1c-0.5,0.8-1,1.6-1.3,2.5c-0.2,0.6-0.6,1.6-0.7,1.7c-0.7,1.6-0.9,3.4-1,3.9c-0.1,0.8-0.1,1.6,0,2.4
	c0,0.9,0.1,1.7-0.1,2.4c-0.3,1.3-0.8,2.6-1.5,3.7c-0.2,0.3-0.8,1.2-1.6,1.9c-0.6,0.5-1.5,0.7-3.1,0.7c0,0,0,0,0,0
	c-2.2,0-3.2-0.8-4.4-2.6c-0.2-0.3-0.6-1-1-2c-0.6-1.3-1.1-2.4-1.5-4c-0.1-0.5-0.3-1-0.5-1.5c-0.2-0.5-0.6-2.1-0.7-2.3
	c0-0.3-0.6-2-0.6-2.2c-0.2-1.1-0.5-2.1-0.8-3.1c-0.3-1-0.6-2-0.7-2.9c-0.2-0.9-0.7-2.5-1-3.6c0,0-0.7-2.2-0.9-3
	c-0.3-1.1-1.3-4.1-1.3-4.1c-0.4-1-1.3-3.4-1.3-3.8c-0.5-3.1-0.5-5.6,0-6.7c0.3-0.5,1.1-1,1.8-1.4c0.2-0.1,1.4-0.9,1.6-0.9
	c0.5-0.1,1.2-0.2,1.9-0.2c0.3,0,0.7,0,1,0.1c0.1,0,1.4,0,1.8,0.3c1.6,1.1,1.8,2.6,2,5.3c0,0,0.3,2.9,0.4,4c0.1,0.8,0.2,1.6,0.3,2.5
	c0.1,0.6,0.1,1.2,0.1,1.8c0,1.1,0.4,3.1,0.4,3.1c0.4,1.2,0.7,2.4,2.2,3c0.2,0.1,0.3,0.1,0.5,0.1c0.2,0,0.5-0.1,0.7-0.2
	c1-0.5,1.9-2.1,2.2-4c0-0.1,0.2-0.3,0.3-0.5c0.3-0.5,0.8-1.1,1.1-2.2c0.1-0.3,0.7-1.2,1.1-1.7c0.4-0.6,0.8-1.1,1-1.5
	c0.1-0.1,1.7-2.7,1.7-2.7s0.6-1.4,0.9-1.9c0.3-0.5,0.5-1.2,0.5-1.3c0.1-0.6,0.4-1.7,0.9-2.3c0.7-0.9,1.5-2.8,1.6-2.9
	c0.2-0.3,0.7-1.2,1.1-1.9c0,0,0.1-0.1,0.1-0.1v0c0,0,0,0,0,0c0.2-0.3,0.5-0.6,0.6-0.8l1.4-1.7c0.3-0.3,0.6-0.6,0.8-1
	c0.3-0.4,0.9-1.2,1.4-2c0.3-0.5,1.2-1.7,1.5-2c0.3-0.3,2.3-3.1,2.7-3.5c0.1-0.2,1-1,1.5-1.5c0,0,0,0,0,0c0.7-0.7,1-1,1.1-1.1
	c0.4-0.6,0.9-1.1,1.3-1.6s0.9-1.1,1.3-1.6c0.2-0.2,0.7-1.1,0.8-1.3c0.4-0.6,2.6-2.6,2.7-2.7c1-0.8,2.1-1.7,3.8-1.8
	c0.3,0,0.6,0,0.9,0c1.5,0,3,0.3,3.8,0.9c1.4,0.9,2.5,2.8,2.6,4.2C245.9,415.3,245.8,415.9,245.6,417.2z M185.6,489.7
	c-0.2,0.3-0.6,0.6-1,0.8c-0.7,0.3-1.7,0.5-2.7,0.5c-0.6,0-1.3-0.1-1.9-0.3c-0.7-0.2-1.7-0.1-2.8-0.8c-0.9-0.6-1.3-2.1-1.4-2.9
	c-0.1-0.4,0-1.4,0-1.6c0-0.2-0.4-1.8-0.4-2.3c0-0.2,0.1-1.3,0-2c-0.1-0.9-0.6-2.3-0.6-2.3c-0.1-0.6-0.4-1.9-0.4-1.9
	c-0.3-0.9-0.5-1.9-0.6-2.7c-0.2-1.4,0.2-2.6,0.5-3.7c0.2-0.6,0.4-1.2,0.4-1.8c0-0.4-0.3-2.4-0.2-3.1c0-0.3,0.2-1.1,0.3-1.2
	c0.1-0.6,0.1-2.1,0.1-2.3c0-0.3,0.2-1.6,0.2-2.9c0-0.5-0.1-1,0-1.6c0.1-0.6,0.1-2,0-2.7c-0.2-1-0.1-1.9-0.1-2
	c-0.1-1.1-0.1-2.2-0.1-3.2c0-0.2-0.2-1.8-0.2-2.3c0-0.3,0-2.3,0-2.6c-0.4-5-1.1-5.9-1.4-6.1c-0.1-0.1-0.4-0.1-0.6-0.1
	c-0.3,0-0.6,0.1-0.8,0.2c-0.3,0.1-1.1,0.9-1.9,1.2c-0.7,0.4-2,1-2.4,1.3c-0.5,0.4-1.3,1-3,1.9c-0.4,0.2-0.7,0.6-1.1,0.9
	c-0.5,0.5-1.5,1.5-3.2,2.3c-0.8,0.4-1.5,0.9-2.1,1.4c-0.2,0.2-1.1,1.7-1.7,2.2c-0.5,0.5-0.9,1.3-1,1.5c-0.3,0.6-0.6,1.3-1.2,1.7
	c-0.5,0.4-1.5,0.6-2.4,0.6c-0.6,0-1.3-0.1-1.8-0.3c-0.8-0.3-2.3-1.4-3-3.2c-0.7-1.8-0.1-4.1,1.2-5.6c0.9-1,2.3-1.4,3.6-1.8
	c0.8-0.2,1.6-0.5,2.2-0.8c0.3-0.2,1.3-0.9,1.5-1c0.3-0.2,1.4-0.7,1.6-0.9c0.2-0.1,1.3-1.1,2.1-1.6c1.3-0.7,2.3-1.3,2.9-1.7
	c0,0,1.7-1,2.9-2.1c0.3-0.2,1.3-0.6,2.5-1.3c0.3-0.2,1.5-0.6,1.9-0.7c0.2-0.1,1.1-0.7,1.3-0.9c1.1-0.6,1.7-1.3,1.4-3
	c-0.1-0.6-0.3-1.2-0.2-1.9c0-0.2,0.3-1.3,0.7-2c0.2-0.4,0.5-0.4,0.7-0.7c0.2-0.4,0.8-0.7,1.2-0.8c0.3-0.3,0.9-0.6,1.6-0.7
	c0.2,0,0.3,0,0.5,0c1.5,0,3.1,0.9,3.4,1c0.2,0,0.4,0.1,0.7,0.1c0.5,0,1-0.1,1.3-0.2c0.1,0,0.7-0.4,1-0.5c0.3-0.1,1.3-0.4,1.5-0.5
	c0.3-0.1,1.7-0.9,2.1-1c0.4-0.1,1.2-0.3,1.7-0.4c0.7-0.5,2-0.9,2.5-1.3c0.6-0.5,1.3-1.7,1.5-1.9c0.3-0.4,1.7-1.3,1.9-1.5
	c0.5-0.4,1.5-1.1,2.2-1.3c0.1,0,0.2,0,0.3,0c0.4,0,1.2,0.1,1.7,0.1c0,0,0,0,0,0c0.7,0,1.7,0,2.4,1.1c0.4,0.6,1,1.1,1.1,1.9
	c0.5,2.4-1.3,4.8-2.7,5.6c-0.1,0.1-0.8,0.3-1.2,0.4c-0.6,0.2-1.1,0.6-1.5,0.7c-0.8,0.2-1.1,0.7-1.4,0.9c-0.3,0.2-1.4,0.8-1.7,1
	c-0.3,0.1-0.7,0.7-1.5,1c-0.5,0.2-1.6,0.5-2.5,1.2c-0.4,0.3-1.8,0.6-2.2,0.7c-0.2,0-2,0.8-2.2,1.9c-0.2,1.1,0,1.4-0.3,3.1
	c-0.1,1-0.1,2.2,0,2.9c0.1,0.3,0.2,3.5,0.2,4.1c0,1.6,0.1,3.3,0,4c0,0.5,0,2.4,0,2.4c0.1,1.5,0.4,3.1,0.5,3.3
	c0.1,0.7-0.2,3.6-0.1,4.2c0,0.1,0.2,1.3,0.2,1.6c-0.1,0.7,0.1,1.6,0.1,2c0,0.6-0.1,1.3-0.1,2c0,1.1-0.1,2.1-0.2,3.1
	c0,0.2,0,1.9,0,1.9c-0.2,1.7-0.4,3.4-0.1,5.1c0.1,0.3,0,1.5,0,1.7c0,0.3,0.4,1.6,0.5,1.9c0.1,0.4,0.2,2.5,0.5,3
	c0.2,0.5,1.1,2.6,1.2,2.8c0.3,0.8,0.7,2.7,0.3,3.7c-0.3,0.9-0.9,3.1-1.2,3.7C186.3,489,185.9,489.3,185.6,489.7z"/>
<g>
	<polygon points="132.5,776.5 136.2,773.7 136.2,760.2 132.5,756.4 	"/>
	<polygon points="145.3,760.5 147.3,758.9 147.3,756 140.5,761.6 	"/>
	<polygon points="141.5,728 139.9,726.5 134,724.4 139.2,730.3 	"/>
	<path d="M192.5,731.9c-0.1-1.3-1-2.9-2.2-3.7c-1-0.7-2.5-0.8-3.1-0.8c-0.2,0-0.4,0-0.6,0c-1.5,0.1-2.6,1-3.1,1.4
		c0,0-1.3,1.2-1.7,1.7c0,0.1-0.2,0.2-0.3,0.4c0,0.1-0.1,0.2-0.1,0.2c-0.2,0.3-0.4,0.5-0.6,0.7l-0.1,0.1c-0.2,0.3-0.4,0.5-0.6,0.8
		c-0.1,0.1-0.2,0.2-0.4,0.4l-0.1,0.1l-0.6,0.6v0l0,0v0c-0.3,0.3-0.3,0.3-0.4,0.4l0,0v-7.1l-4.1-2.5l0,14.9c-0.1,0.1-0.1,0.2-0.2,0.2
		l-0.5,0.5v0.3c-0.1,0.3-0.3,0.5-0.4,0.6c0,0,0,0,0,0l0,0l0,0l0,0l0,0.1c-0.3,0.7-0.5,1-0.5,1c-0.5,0.6-0.8,1.5-0.9,1.9c0,0,0,0,0,0
		l0-20.2h-23.3l-8.6,8.6l-1.1,1.1l-1.1-1.2l-7.6-8.5h-22.9v52.7H130v-23.1v-3.7l2.6,2.7l6.5,6.7l8.1-6.9l2.5-2.1v3.2v23.2h22.3l0-10
		c0.1-0.1,0.3-0.2,0.4-0.3c0.5-0.5,1-1.1,1.1-1.3c0,0,0,0,0,0c0.5-0.7,0.8-1.6,1-2.6l0,13.7l4.1-2.8v-21.4l0,0l0.1-0.2l0.1-0.2
		c0,0,0-0.1,0.1-0.2c0.1-0.2,0.2-0.5,0.3-0.7c0-0.1,0-0.1,0.1-0.2c0.4-0.4,0.7-0.7,0.8-1.1c0-0.1,0.1-0.1,0.1-0.2
		c0.3-0.5,0.4-0.8,0.6-1.1c0.1-0.2,0.3-0.6,0.4-0.8c0.1-0.2,0.2-0.4,0.3-0.6c0.1-0.2,0.2-0.5,0.3-0.6c0.2-0.3,0.5-0.6,0.8-1.1l0,0
		l0,0l0-0.1c0.1-0.2,0.2-0.3,0.3-0.4c0-0.1,0.1-0.1,0.1-0.1c0.4-0.5,0.8-1,1.1-1.6c0.1-0.1,0.2-0.2,0.3-0.3c0.5-0.6,0.8-1,1-1.5
		c0,0,0.1-0.1,0.3-0.2c0.1-0.1,0.3-0.1,0.5-0.3c0.2-0.2,0.4-0.4,0.6-0.6c0.2-0.2,0.3-0.3,0.4-0.4c0.2-0.1,1-0.5,1.2-0.5
		c0.4-0.1,1-0.5,1.6-0.9c0.8-0.6,1.5-1.8,1.5-1.8c0.3-0.5,0.5-1.3,0.7-2.2C192.4,733.3,192.5,732.8,192.5,731.9z M190.3,733.7
		c-0.1,0.3-0.3,1.2-0.5,1.7c-0.1,0.2-0.6,0.9-1,1.2c-0.4,0.3-0.9,0.5-1.1,0.6c-0.2,0.1-1.2,0.5-1.4,0.7c-0.5,0.3-0.7,0.5-1,0.8
		c-0.1,0.1-0.3,0.3-0.4,0.4c-0.1,0.1-0.9,0.4-1.2,1.1c-0.2,0.4-1,1.4-1.2,1.6c-0.2,0.4-0.5,1-0.8,1.3c-0.1,0.1-0.2,0.2-0.3,0.4
		c-0.1,0.1-0.2,0.3-0.3,0.5c0,0-0.1,0.1-0.1,0.1c-0.2,0.3-0.4,0.7-0.6,0.9c-0.3,0.4-0.5,0.8-0.7,1.2c-0.1,0.1-0.6,0.9-0.8,1.4
		c-0.1,0.2-0.6,1-0.6,1.1c-0.1,0.3-0.7,0.8-0.8,0.9c-0.1,0.2-0.2,0.4-0.2,0.7c-0.1,0.2-0.3,0.7-0.3,0.8c-0.1,0.1-0.2,0.3-0.3,0.5
		c0,0,0,0,0,0c-0.1,0.1-0.2,0.3-0.2,0.4c-0.2,0.3-0.4,0.6-0.5,0.8c-0.1,0.1-0.2,0.2-0.2,0.3c-0.1,0.2-1,1.7-1.2,2
		c-0.1,0.2-0.2,0.3-0.3,0.5c-0.3,0.4-0.5,0.8-0.7,1.3c-0.1,0.3-0.3,0.8-0.3,0.9c-0.3,0.8-0.5,1.7-0.5,2c-0.1,0.4,0,0.8,0,1.2
		c0,0.4,0,0.9,0,1.2c-0.1,0.7-0.4,1.4-0.8,1.9c-0.1,0.1-0.4,0.6-0.8,1c-0.3,0.3-0.8,0.4-1.6,0.4c0,0,0,0,0,0c-1.1,0-1.6-0.4-2.3-1.3
		c-0.1-0.1-0.3-0.5-0.5-1c-0.3-0.7-0.6-1.3-0.8-2c-0.1-0.2-0.2-0.5-0.3-0.8c-0.1-0.3-0.3-1.1-0.3-1.2c0-0.1-0.3-1-0.3-1.1
		c-0.1-0.6-0.3-1.1-0.4-1.6c-0.1-0.5-0.3-1-0.4-1.5c-0.1-0.5-0.3-1.3-0.5-1.8c0,0-0.4-1.2-0.5-1.6c-0.2-0.6-0.7-2.1-0.7-2.1
		c-0.2-0.5-0.7-1.8-0.7-2c-0.3-1.6-0.3-2.9,0-3.5c0.1-0.3,0.6-0.5,0.9-0.7c0.1-0.1,0.7-0.4,0.8-0.5c0.2-0.1,0.6-0.1,1-0.1
		c0.2,0,0.4,0,0.5,0c0.1,0,0.7,0,0.9,0.2c0.8,0.6,0.9,1.4,1,2.7c0,0,0.1,1.5,0.2,2.1c0.1,0.4,0.1,0.8,0.1,1.3c0,0.3,0,0.6,0.1,0.9
		c0,0.6,0.2,1.6,0.2,1.6c0.2,0.6,0.4,1.2,1.1,1.6c0.1,0,0.2,0.1,0.3,0.1c0.1,0,0.3,0,0.4-0.1c0.5-0.3,1-1.1,1.2-2.1
		c0-0.1,0.1-0.2,0.2-0.3c0.2-0.2,0.4-0.6,0.5-1.1c0-0.1,0.4-0.6,0.6-0.9c0.2-0.3,0.4-0.6,0.5-0.8c0-0.1,0.9-1.4,0.9-1.4
		s0.3-0.7,0.5-1c0.1-0.3,0.3-0.6,0.3-0.7c0.1-0.3,0.2-0.9,0.5-1.2c0.4-0.4,0.8-1.5,0.8-1.5c0.1-0.2,0.3-0.6,0.6-1c0,0,0,0,0.1-0.1v0
		c0,0,0,0,0,0c0.1-0.1,0.2-0.3,0.3-0.4l0.7-0.9c0.1-0.2,0.3-0.3,0.4-0.5c0.1-0.2,0.4-0.6,0.7-1c0.2-0.2,0.6-0.9,0.8-1
		c0.1-0.1,1.2-1.6,1.4-1.8c0.1-0.1,0.5-0.5,0.8-0.8c0,0,0,0,0,0c0.4-0.4,0.5-0.5,0.5-0.6c0.2-0.3,0.4-0.6,0.7-0.8
		c0.2-0.3,0.5-0.5,0.7-0.8c0.1-0.1,0.3-0.6,0.4-0.6c0.2-0.3,1.4-1.3,1.4-1.4c0.5-0.4,1.1-0.9,2-0.9c0.2,0,0.3,0,0.5,0
		c0.8,0,1.6,0.2,2,0.5c0.7,0.5,1.3,1.4,1.3,2.1C190.5,732.7,190.4,733,190.3,733.7z M159.9,770.5c-0.2,0.2-0.4,0.4-0.5,0.6
		c-0.1,0.2-0.3,0.3-0.5,0.4c-0.3,0.1-0.9,0.2-1.4,0.2c-0.3,0-0.7,0-1-0.1c-0.3-0.1-0.9-0.1-1.5-0.4c-0.5-0.3-0.6-1.1-0.7-1.5
		c0-0.2,0-0.7,0-0.8c0-0.1-0.2-0.9-0.2-1.2c0-0.1,0-0.7,0-1c-0.1-0.5-0.3-1.2-0.3-1.2c-0.1-0.3-0.2-1-0.2-1c-0.2-0.5-0.3-1-0.3-1.4
		c-0.1-0.7,0.1-1.4,0.3-1.9c0.1-0.3,0.2-0.6,0.2-0.9c0-0.2-0.1-1.2-0.1-1.6c0-0.1,0.1-0.6,0.1-0.6c0-0.3,0.1-1.1,0.1-1.2
		c0-0.2,0.1-0.8,0.1-1.5c0-0.3,0-0.5,0-0.8c0-0.3,0.1-1,0-1.4c-0.1-0.5-0.1-1-0.1-1c0-0.6-0.1-1.1,0-1.6c0-0.1-0.1-0.9-0.1-1.2
		c0-0.2,0-1.2,0-1.3c-0.2-2.6-0.6-3.1-0.7-3.2c-0.1,0-0.2-0.1-0.3-0.1c-0.1,0-0.3,0-0.4,0.1c-0.2,0.1-0.6,0.4-1,0.6
		c-0.4,0.2-1,0.5-1.2,0.7c-0.3,0.2-0.7,0.5-1.5,1c-0.2,0.1-0.4,0.3-0.6,0.5c-0.3,0.2-0.8,0.8-1.6,1.2c-0.4,0.2-0.8,0.4-1.1,0.7
		c-0.1,0.1-0.6,0.9-0.9,1.2c-0.3,0.3-0.5,0.6-0.5,0.8c-0.1,0.3-0.3,0.7-0.6,0.9c-0.3,0.2-0.8,0.3-1.2,0.3c-0.3,0-0.7-0.1-0.9-0.2
		c-0.4-0.2-1.2-0.7-1.6-1.6c-0.4-0.9-0.1-2.1,0.6-2.9c0.5-0.5,1.2-0.7,1.9-0.9c0.4-0.1,0.8-0.2,1.2-0.4c0.2-0.1,0.6-0.5,0.8-0.5
		c0.2-0.1,0.7-0.4,0.8-0.4c0.1-0.1,0.7-0.6,1.1-0.8c0.7-0.4,1.2-0.7,1.5-0.9c0,0,0.9-0.5,1.5-1.1c0.1-0.1,0.7-0.3,1.3-0.7
		c0.2-0.1,0.8-0.3,1-0.4c0.1-0.1,0.6-0.4,0.7-0.4c0.6-0.3,0.9-0.7,0.7-1.5c-0.1-0.3-0.2-0.6-0.1-1c0-0.1,0.1-0.7,0.4-1
		c0.1-0.2,0.3-0.2,0.4-0.4c0.1-0.2,0.4-0.3,0.6-0.4c0.2-0.1,0.5-0.3,0.8-0.4c0.1,0,0.2,0,0.3,0c0.8,0,1.6,0.5,1.7,0.5
		c0.1,0,0.2,0,0.3,0c0.2,0,0.5,0,0.7-0.1c0.1,0,0.4-0.2,0.5-0.3c0.2-0.1,0.7-0.2,0.8-0.2c0.2-0.1,0.9-0.4,1.1-0.5
		c0.2-0.1,0.6-0.2,0.9-0.2c0.4-0.3,1-0.5,1.3-0.7c0.3-0.3,0.7-0.9,0.8-1c0.1-0.2,0.9-0.7,1-0.8c0.2-0.2,0.8-0.6,1.2-0.7
		c0,0,0.1,0,0.1,0c0.2,0,0.6,0.1,0.9,0.1c0,0,0,0,0,0c0.4,0,0.9,0,1.2,0.6c0.2,0.3,0.5,0.6,0.6,1c0.2,1.2-0.7,2.5-1.4,2.9
		c-0.1,0-0.4,0.1-0.6,0.2c-0.3,0.1-0.6,0.3-0.8,0.4c-0.4,0.1-0.6,0.4-0.7,0.5c-0.2,0.1-0.7,0.4-0.9,0.5c-0.1,0.1-0.4,0.4-0.8,0.5
		c-0.3,0.1-0.8,0.2-1.3,0.6c-0.2,0.2-0.9,0.3-1.2,0.4c-0.1,0-1,0.4-1.1,1c-0.1,0.6,0,0.7-0.1,1.6c-0.1,0.5,0,1.1,0,1.5
		c0,0.2,0.1,1.8,0.1,2.1c0,0.8,0.1,1.7,0,2.1c0,0.3,0,1.2,0,1.2c0.1,0.8,0.2,1.6,0.2,1.7c0,0.4-0.1,1.8-0.1,2.2
		c0,0.1,0.1,0.7,0.1,0.8c-0.1,0.4,0,0.8,0,1c0,0.3,0,0.6,0,1c0,0.5,0,1.1-0.1,1.6c0,0.1,0,1,0,1c-0.1,0.9-0.2,1.8-0.1,2.7
		c0,0.2,0,0.8,0,0.9c0,0.1,0.2,0.8,0.2,1c0,0.2,0.1,1.3,0.2,1.5c0.1,0.2,0.6,1.3,0.6,1.5c0.1,0.4,0.3,1.4,0.2,1.9
		C160.3,769.1,160.1,770.2,159.9,770.5z"/>
</g>
<path class="st3" d="M149.9,1051.7C149.9,1051.7,149.9,1051.7,149.9,1051.7l0.8,0.7L149.9,1051.7z"/>
<path class="st3" d="M149.9,1051.7l0.8,0.5c0,0,0,0,0,0L149.9,1051.7L149.9,1051.7z"/>
<g>
	<path class="st0" d="M170.2,1040.3c-0.2-0.1-0.6-0.2-1-0.2c-0.1,0-0.2,0-0.2,0c-0.4,0-0.7,0.3-1,0.5c0,0-0.6,0.6-0.7,0.7
		c0,0-0.2,0.3-0.2,0.3c-0.1,0.2-0.2,0.3-0.3,0.4c-0.1,0.1-0.2,0.3-0.3,0.4c0,0-0.1,0.1-0.3,0.3c0,0,0,0,0,0
		c-0.1,0.1-0.4,0.4-0.4,0.4c-0.1,0.1-0.6,0.9-0.7,0.9c-0.1,0.1-0.3,0.4-0.4,0.5c-0.1,0.2-0.3,0.4-0.4,0.5c-0.1,0.1-0.1,0.2-0.2,0.3
		l-0.4,0.4c-0.1,0.1-0.1,0.2-0.2,0.2c0,0,0,0,0,0v0c0,0,0,0,0,0c-0.1,0.2-0.2,0.4-0.3,0.5c0,0-0.2,0.5-0.4,0.8
		c-0.1,0.2-0.2,0.5-0.3,0.6c0,0-0.1,0.2-0.1,0.3c-0.1,0.1-0.2,0.5-0.2,0.5s-0.4,0.7-0.5,0.7c-0.1,0.1-0.2,0.2-0.3,0.4
		c-0.1,0.1-0.3,0.4-0.3,0.5c-0.1,0.3-0.2,0.5-0.3,0.6c0,0.1-0.1,0.1-0.1,0.1c-0.1,0.5-0.3,0.9-0.6,1.1c-0.1,0-0.1,0.1-0.2,0.1
		c0,0-0.1,0-0.1,0c-0.4-0.2-0.5-0.5-0.6-0.8c0,0-0.1-0.5-0.1-0.8c0-0.2,0-0.3,0-0.5c0-0.2-0.1-0.4-0.1-0.7c0-0.3-0.1-1.1-0.1-1.1
		c-0.1-0.7-0.1-1.1-0.5-1.4c-0.1-0.1-0.4-0.1-0.5-0.1c-0.1,0-0.2,0-0.3,0c-0.2,0-0.4,0-0.5,0.1c-0.1,0-0.4,0.2-0.4,0.2
		c-0.2,0.1-0.4,0.2-0.5,0.4c-0.1,0.3-0.2,1,0,1.8c0,0.1,0.3,0.7,0.4,1c0,0,0.3,0.8,0.4,1.1c0.1,0.2,0.2,0.8,0.2,0.8
		c0.1,0.3,0.2,0.7,0.3,0.9c0,0.3,0.1,0.5,0.2,0.8c0.1,0.3,0.2,0.5,0.2,0.8c0,0,0.2,0.5,0.2,0.6c0,0.1,0.1,0.5,0.2,0.6
		c0,0.1,0.1,0.3,0.1,0.4c0.1,0.4,0.2,0.7,0.4,1.1c0.1,0.3,0.2,0.5,0.3,0.5c0.3,0.5,0.6,0.7,1.2,0.7c0,0,0,0,0,0
		c0.4,0,0.7-0.1,0.8-0.2c0.2-0.2,0.4-0.4,0.4-0.5c0.2-0.3,0.3-0.6,0.4-1c0-0.2,0-0.4,0-0.6c0-0.2,0-0.4,0-0.6c0-0.1,0.1-0.6,0.3-1
		c0,0,0.1-0.3,0.2-0.5c0.1-0.3,0.2-0.5,0.3-0.7c0.1-0.1,0.1-0.2,0.2-0.3c0.1-0.2,0.6-1,0.6-1c0-0.1,0.1-0.1,0.1-0.2
		c0.1-0.1,0.2-0.3,0.3-0.4c0-0.1,0.1-0.1,0.1-0.2c0,0,0,0,0,0c0.1-0.1,0.1-0.2,0.1-0.2c0-0.1,0.1-0.3,0.2-0.4c0-0.1,0.1-0.3,0.1-0.3
		c0-0.1,0.3-0.4,0.4-0.5c0-0.1,0.3-0.5,0.3-0.6c0.1-0.3,0.4-0.7,0.4-0.7c0.1-0.2,0.2-0.4,0.3-0.6c0.1-0.1,0.2-0.3,0.3-0.4
		c0,0,0,0,0,0c0,0,0,0,0,0c0.1-0.1,0.1-0.2,0.2-0.3c0.1-0.1,0.1-0.2,0.2-0.2c0.2-0.2,0.3-0.5,0.4-0.7c0.1-0.1,0.5-0.6,0.6-0.8
		c0.2-0.4,0.6-0.6,0.6-0.6c0.1-0.1,0.1-0.1,0.2-0.2c0.1-0.1,0.3-0.3,0.5-0.4c0.1-0.1,0.6-0.3,0.7-0.3c0.1,0,0.4-0.2,0.6-0.3
		c0.2-0.1,0.4-0.5,0.5-0.6c0.1-0.3,0.2-0.7,0.3-0.9c0.1-0.4,0.1-0.5,0.1-0.9C170.9,1041.1,170.6,1040.6,170.2,1040.3z"/>
	<path class="st0" d="M154.7,1046.3c0-0.3,0.5-0.5,0.6-0.5c0.1,0,0.5-0.1,0.6-0.2c0.2-0.2,0.5-0.3,0.7-0.3c0.2-0.1,0.3-0.2,0.4-0.3
		c0.1,0,0.4-0.2,0.5-0.3c0.1,0,0.2-0.2,0.4-0.2c0.1,0,0.3-0.1,0.4-0.2c0.1,0,0.3-0.1,0.3-0.1c0.4-0.2,0.8-0.9,0.7-1.5
		c0-0.2-0.2-0.4-0.3-0.5c-0.2-0.3-0.5-0.3-0.6-0.3c0,0,0,0,0,0c-0.1,0-0.3,0-0.4,0c0,0-0.1,0-0.1,0c-0.2,0.1-0.5,0.3-0.6,0.4
		c-0.1,0-0.4,0.3-0.5,0.4c0,0.1-0.2,0.4-0.4,0.5c-0.1,0.1-0.5,0.2-0.7,0.4c-0.1,0-0.3,0.1-0.4,0.1c-0.1,0-0.5,0.2-0.6,0.3
		c-0.1,0-0.3,0.1-0.4,0.1c-0.1,0-0.2,0.1-0.3,0.1c-0.1,0-0.2,0-0.4,0c-0.1,0-0.1,0-0.2,0c-0.1,0-0.5-0.3-0.9-0.3c0,0-0.1,0-0.1,0
		c-0.2,0-0.4,0.1-0.4,0.2c-0.1,0-0.3,0.1-0.3,0.2c0,0.1-0.1,0.1-0.2,0.2c-0.1,0.2-0.2,0.5-0.2,0.5c0,0.2,0,0.4,0.1,0.5
		c0.1,0.5-0.1,0.6-0.4,0.8c-0.1,0-0.3,0.2-0.4,0.2c-0.1,0-0.4,0.1-0.5,0.2c-0.3,0.2-0.6,0.3-0.7,0.4c-0.3,0.3-0.8,0.5-0.8,0.5
		c-0.2,0.1-0.4,0.3-0.8,0.4c-0.2,0.1-0.5,0.4-0.6,0.4c-0.1,0-0.3,0.2-0.4,0.2c-0.1,0-0.3,0.2-0.4,0.3c-0.2,0.1-0.4,0.2-0.6,0.2
		c-0.4,0.1-0.7,0.2-1,0.5c-0.4,0.4-0.5,1-0.3,1.5c0.2,0.5,0.6,0.8,0.8,0.8c0.1,0.1,0.3,0.1,0.5,0.1c0.2,0,0.5-0.1,0.6-0.2
		c0.2-0.1,0.2-0.3,0.3-0.5c0-0.1,0.1-0.3,0.3-0.4c0.1-0.1,0.4-0.5,0.4-0.6c0.2-0.1,0.3-0.3,0.6-0.4c0.4-0.2,0.7-0.5,0.8-0.6
		c0.1-0.1,0.2-0.2,0.3-0.2c0.4-0.2,0.7-0.4,0.8-0.5c0.1-0.1,0.5-0.2,0.6-0.3c0.2-0.1,0.4-0.3,0.5-0.3c0.1,0,0.1,0,0.2,0
		c0.1,0,0.1,0,0.2,0c0.1,0,0.3,0.3,0.4,1.6c0,0.1,0,0.6,0,0.7c0,0.1,0.1,0.6,0,0.6c0,0.3,0,0.6,0,0.8c0,0,0,0.3,0,0.5
		c0,0.2,0,0.6,0,0.7c0,0.1,0,0.3,0,0.4c0,0.3,0,0.7,0,0.8c0,0.1,0,0.5,0,0.6c0,0-0.1,0.3-0.1,0.3c0,0.2,0.1,0.7,0.1,0.8
		c0,0.2-0.1,0.3-0.1,0.5c-0.1,0.3-0.2,0.6-0.1,1c0,0.2,0.1,0.5,0.2,0.7c0,0,0.1,0.3,0.1,0.5c0,0,0.1,0.4,0.2,0.6c0,0.2,0,0.5,0,0.5
		c0,0.1,0.1,0.5,0.1,0.6c0,0,0,0.3,0,0.4c0,0.2,0.1,0.6,0.4,0.8c0.3,0.2,0.6,0.2,0.8,0.2c0.2,0.1,0.3,0.1,0.5,0.1
		c0.3,0,0.6-0.1,0.7-0.1c0.1,0,0.2-0.1,0.3-0.2c0.1-0.1,0.2-0.2,0.3-0.3c0.1-0.1,0.2-0.7,0.3-1c0.1-0.3,0-0.8-0.1-1
		c0-0.1-0.3-0.6-0.3-0.8c-0.1-0.1-0.1-0.7-0.1-0.8c0-0.1-0.1-0.4-0.1-0.5c0-0.1,0-0.4,0-0.5c-0.1-0.5,0-0.9,0-1.4c0,0,0-0.4,0-0.5
		c0-0.3,0-0.5,0-0.8c0-0.2,0-0.4,0-0.5c0-0.1-0.1-0.3,0-0.5c0-0.1,0-0.4-0.1-0.4c0-0.2,0.1-0.9,0-1.1c0-0.1-0.1-0.5-0.1-0.9
		c0,0,0-0.5,0-0.6c0-0.2,0-0.7,0-1.1c0-0.1,0-1-0.1-1.1c0-0.2,0-0.5,0-0.8C154.7,1046.7,154.6,1046.6,154.7,1046.3z"/>
	<path d="M172.9,1041.4c0-1-0.7-2.1-1.6-2.7c-0.7-0.5-1.7-0.6-2.1-0.6c-0.1,0-0.3,0-0.4,0c-1.1,0.1-1.8,0.7-2.1,0.9c0,0-0.8,0.7-1,1
		c0,0-0.1,0.2-0.2,0.3l0,0.1c-0.1,0.1-0.2,0.2-0.2,0.3l0,0c-0.1,0.1-0.2,0.3-0.3,0.4c0,0-0.1,0.1-0.1,0.1l-0.1,0.1l-0.5,0.5v0
		l-0.1,0.1c-0.1,0.2-0.4,0.6-0.5,0.7c-0.2,0.2-0.5,0.6-0.6,0.7c-0.1,0.1-0.1,0.2-0.2,0.3c0,0-0.1,0.1-0.1,0.1c0,0.1-0.1,0.1-0.1,0.1
		l0,0l0,0l-0.4,0.4c-0.1,0.1-0.1,0.1-0.2,0.2l-0.2,0.2l0-6.9h-12.4l-4.9,4.9l-4.4-4.9h-12.2v27.8h12.2v-13.4l4.4,4.5l5.2-4.5v13.3
		h12.1l0-5.4c0.2-0.1,0.4-0.2,0.6-0.4c0.2-0.1,0.3-0.3,0.4-0.5c0.1-0.2,0.2-0.3,0.3-0.4c0.3-0.5,0.5-1.1,0.7-1.7
		c0.1-0.4,0.1-0.8,0.1-1.1c0-0.1,0-0.2,0-0.3c0-0.2,0.1-0.4,0.1-0.5c0.1-0.2,0.2-0.4,0.2-0.6c0,0,0.1-0.1,0.1-0.1l0,0l0,0
		c0.1-0.1,0.2-0.2,0.2-0.4c0.1-0.1,0.4-0.8,0.5-0.9l0,0l0.1-0.1l0-0.1c0.1-0.1,0.2-0.3,0.3-0.4l0.1-0.2l0,0l0.1-0.2l0.1-0.1l0.1-0.2
		l0.1-0.2l0-0.1c0-0.1,0.1-0.2,0.1-0.4c0.2-0.2,0.3-0.4,0.4-0.6l0-0.1c0.1-0.3,0.3-0.5,0.3-0.7c0-0.1,0.1-0.2,0.2-0.3
		c0.1-0.1,0.2-0.3,0.2-0.4c0,0,0-0.1,0-0.1c0.2-0.2,0.3-0.4,0.4-0.7l0.2-0.3c0.3-0.3,0.5-0.6,0.6-0.9c0,0,0-0.1,0.1-0.1
		c0.2-0.2,0.4-0.5,0.5-0.7l0.1,0l0.2-0.2c0.2-0.1,0.3-0.3,0.4-0.4l0,0c0.1-0.1,0.3-0.2,0.4-0.2c0.3-0.1,0.7-0.3,1-0.6
		c0.6-0.5,1-1.2,1.1-1.3c0.2-0.3,0.3-0.8,0.5-1.4C172.8,1042.2,172.9,1041.9,172.9,1041.4z M154.6,1047.9c0,0.1,0.1,0.9,0.1,1.1
		c0,0.4,0,0.9,0,1.1c0,0.1,0,0.6,0,0.6c0,0.4,0.1,0.8,0.1,0.9c0,0.2-0.1,1,0,1.1c0,0,0.1,0.4,0.1,0.4c0,0.2,0,0.4,0,0.5
		c0,0.2,0,0.3,0,0.5c0,0.3,0,0.6,0,0.8c0,0.1,0,0.5,0,0.5c-0.1,0.4-0.1,0.9,0,1.4c0,0.1,0,0.4,0,0.5c0,0.1,0.1,0.4,0.1,0.5
		c0,0.1,0.1,0.7,0.1,0.8c0.1,0.1,0.3,0.7,0.3,0.8c0.1,0.2,0.2,0.7,0.1,1c-0.1,0.2-0.2,0.8-0.3,1c-0.1,0.1-0.2,0.2-0.3,0.3
		c-0.1,0.1-0.2,0.2-0.3,0.2c-0.2,0.1-0.4,0.1-0.7,0.1c-0.2,0-0.3,0-0.5-0.1c-0.2-0.1-0.5,0-0.8-0.2c-0.2-0.2-0.3-0.6-0.4-0.8
		c0-0.1,0-0.4,0-0.4c0-0.1-0.1-0.5-0.1-0.6c0-0.1,0-0.3,0-0.5c0-0.2-0.2-0.6-0.2-0.6c0-0.2-0.1-0.5-0.1-0.5
		c-0.1-0.3-0.1-0.5-0.2-0.7c0-0.4,0-0.7,0.1-1c0-0.2,0.1-0.3,0.1-0.5c0-0.1-0.1-0.6-0.1-0.8c0-0.1,0.1-0.3,0.1-0.3
		c0-0.1,0-0.5,0-0.6c0-0.1,0.1-0.4,0-0.8c0-0.1,0-0.3,0-0.4c0-0.2,0-0.5,0-0.7c0-0.3,0-0.5,0-0.5c0-0.3,0-0.6,0-0.8c0,0,0-0.5,0-0.6
		c0-0.1,0-0.6,0-0.7c-0.1-1.3-0.3-1.6-0.4-1.6c0,0-0.1,0-0.2,0c-0.1,0-0.2,0-0.2,0c-0.1,0-0.3,0.2-0.5,0.3c-0.2,0.1-0.5,0.3-0.6,0.3
		c-0.1,0.1-0.4,0.3-0.8,0.5c-0.1,0.1-0.2,0.2-0.3,0.2c-0.1,0.1-0.4,0.4-0.8,0.6c-0.2,0.1-0.4,0.2-0.6,0.4c-0.1,0.1-0.3,0.5-0.4,0.6
		c-0.1,0.1-0.2,0.3-0.3,0.4c-0.1,0.2-0.2,0.3-0.3,0.5c-0.1,0.1-0.4,0.2-0.6,0.2c-0.2,0-0.3,0-0.5-0.1c-0.2-0.1-0.6-0.4-0.8-0.8
		c-0.2-0.5,0-1.1,0.3-1.5c0.2-0.3,0.6-0.4,1-0.5c0.2-0.1,0.4-0.1,0.6-0.2c0.1,0,0.3-0.2,0.4-0.3c0.1-0.1,0.4-0.2,0.4-0.2
		c0.1,0,0.4-0.3,0.6-0.4c0.3-0.2,0.6-0.3,0.8-0.4c0,0,0.5-0.3,0.8-0.5c0.1-0.1,0.4-0.2,0.7-0.4c0.1,0,0.4-0.2,0.5-0.2
		c0.1,0,0.3-0.2,0.4-0.2c0.3-0.2,0.4-0.3,0.4-0.8c0-0.2-0.1-0.3-0.1-0.5c0,0,0.1-0.3,0.2-0.5c0.1-0.1,0.1-0.1,0.2-0.2
		c0-0.1,0.2-0.2,0.3-0.2c0.1-0.1,0.2-0.2,0.4-0.2c0,0,0.1,0,0.1,0c0.4,0,0.8,0.2,0.9,0.3c0,0,0.1,0,0.2,0c0.1,0,0.3,0,0.4,0
		c0,0,0.2-0.1,0.3-0.1c0.1,0,0.4-0.1,0.4-0.1c0.1,0,0.5-0.2,0.6-0.3c0.1,0,0.3-0.1,0.4-0.1c0.2-0.1,0.5-0.2,0.7-0.4
		c0.1-0.1,0.3-0.4,0.4-0.5c0.1-0.1,0.5-0.4,0.5-0.4c0.1-0.1,0.4-0.3,0.6-0.4c0,0,0,0,0.1,0c0.1,0,0.3,0,0.4,0c0,0,0,0,0,0
		c0.2,0,0.4,0,0.6,0.3c0.1,0.1,0.3,0.3,0.3,0.5c0.1,0.6-0.4,1.3-0.7,1.5c0,0-0.2,0.1-0.3,0.1c-0.2,0-0.3,0.2-0.4,0.2
		c-0.2,0.1-0.3,0.2-0.4,0.2c-0.1,0-0.4,0.2-0.5,0.3c-0.1,0-0.2,0.2-0.4,0.3c-0.1,0-0.4,0.1-0.7,0.3c-0.1,0.1-0.5,0.2-0.6,0.2
		c0,0-0.5,0.2-0.6,0.5c-0.1,0.3,0,0.4-0.1,0.8C154.6,1047.4,154.6,1047.7,154.6,1047.9z M170.8,1042.3c0,0.2-0.1,0.6-0.3,0.9
		c-0.1,0.1-0.3,0.5-0.5,0.6c-0.2,0.1-0.4,0.3-0.6,0.3c-0.1,0-0.6,0.3-0.7,0.3c-0.2,0.1-0.4,0.3-0.5,0.4c-0.1,0.1-0.1,0.1-0.2,0.2
		c0,0-0.5,0.2-0.6,0.6c-0.1,0.2-0.5,0.7-0.6,0.8c-0.1,0.2-0.3,0.5-0.4,0.7c0,0-0.1,0.1-0.2,0.2c-0.1,0.1-0.1,0.2-0.2,0.3
		c0,0,0,0,0,0c0,0,0,0,0,0c-0.1,0.2-0.2,0.4-0.3,0.4c-0.2,0.2-0.3,0.4-0.3,0.6c0,0.1-0.3,0.5-0.4,0.7c0,0.1-0.3,0.5-0.3,0.6
		c-0.1,0.1-0.4,0.4-0.4,0.5c0,0.1-0.1,0.2-0.1,0.3c0,0.1-0.1,0.3-0.2,0.4c0,0.1-0.1,0.2-0.1,0.2c0,0,0,0,0,0c0,0.1-0.1,0.1-0.1,0.2
		c-0.1,0.2-0.2,0.3-0.3,0.4c0,0.1-0.1,0.1-0.1,0.2c-0.1,0.1-0.5,0.9-0.6,1c0,0.1-0.1,0.2-0.2,0.3c-0.1,0.2-0.3,0.4-0.3,0.7
		c0,0.2-0.2,0.4-0.2,0.5c-0.2,0.4-0.2,0.9-0.3,1c0,0.2,0,0.4,0,0.6c0,0.2,0,0.4,0,0.6c-0.1,0.4-0.2,0.7-0.4,1c0,0.1-0.2,0.3-0.4,0.5
		c-0.1,0.1-0.4,0.2-0.8,0.2c0,0,0,0,0,0c-0.6,0-0.9-0.2-1.2-0.7c-0.1-0.1-0.2-0.3-0.3-0.5c-0.2-0.3-0.3-0.7-0.4-1.1
		c0-0.1-0.1-0.3-0.1-0.4c-0.1-0.1-0.2-0.6-0.2-0.6c0-0.1-0.2-0.5-0.2-0.6c-0.1-0.3-0.1-0.6-0.2-0.8c-0.1-0.3-0.1-0.5-0.2-0.8
		c0-0.3-0.2-0.7-0.3-0.9c0,0-0.2-0.6-0.2-0.8c-0.1-0.3-0.4-1.1-0.4-1.1c-0.1-0.3-0.3-0.9-0.4-1c-0.1-0.8-0.1-1.5,0-1.8
		c0.1-0.1,0.3-0.3,0.5-0.4c0.1,0,0.4-0.2,0.4-0.2c0.1,0,0.3-0.1,0.5-0.1c0.1,0,0.2,0,0.3,0c0,0,0.4,0,0.5,0.1
		c0.4,0.3,0.5,0.7,0.5,1.4c0,0,0.1,0.8,0.1,1.1c0,0.2,0.1,0.4,0.1,0.7c0,0.2,0,0.3,0,0.5c0,0.3,0.1,0.8,0.1,0.8
		c0.1,0.3,0.2,0.6,0.6,0.8c0,0,0.1,0,0.1,0c0.1,0,0.1,0,0.2-0.1c0.3-0.1,0.5-0.6,0.6-1.1c0,0,0-0.1,0.1-0.1c0.1-0.1,0.2-0.3,0.3-0.6
		c0-0.1,0.2-0.3,0.3-0.5c0.1-0.1,0.2-0.3,0.3-0.4c0,0,0.5-0.7,0.5-0.7s0.2-0.4,0.2-0.5c0.1-0.1,0.1-0.3,0.1-0.3
		c0-0.1,0.1-0.5,0.3-0.6c0.2-0.2,0.4-0.8,0.4-0.8c0-0.1,0.2-0.3,0.3-0.5c0,0,0,0,0,0v0c0,0,0,0,0,0c0.1-0.1,0.1-0.2,0.2-0.2l0.4-0.4
		c0.1-0.1,0.2-0.2,0.2-0.3c0.1-0.1,0.2-0.3,0.4-0.5c0.1-0.1,0.3-0.4,0.4-0.5c0.1-0.1,0.6-0.8,0.7-0.9c0,0,0.3-0.3,0.4-0.4
		c0,0,0,0,0,0c0.2-0.2,0.3-0.3,0.3-0.3c0.1-0.1,0.2-0.3,0.3-0.4c0.1-0.1,0.2-0.3,0.3-0.4c0-0.1,0.2-0.3,0.2-0.3
		c0.1-0.2,0.7-0.7,0.7-0.7c0.3-0.2,0.6-0.4,1-0.5c0.1,0,0.2,0,0.2,0c0.4,0,0.8,0.1,1,0.2c0.4,0.2,0.7,0.7,0.7,1.1
		C170.9,1041.8,170.9,1041.9,170.8,1042.3z"/>
</g>
<polygon points="150.3,1052 150.3,1052 150.3,1052 "/>
<rect x="330" y="0.4" class="st2" width="300" height="300"/>
<rect x="330.3" y="300" class="st2" width="300" height="300"/>
<rect x="330" y="600.5" class="st2" width="300" height="300"/>
<rect x="100" y="700.5" class="st0" width="100" height="100"/>
<rect x="55.6" y="344" class="st0" width="200" height="200"/>
<rect x="25" y="25.4" class="st0" width="250" height="250"/>
</svg>
