<?xml version="1.0" encoding="utf-8"?>
<!-- Generator: Adobe Illustrator 20.1.0, SVG Export Plug-In . SVG Version: 6.00 Build 0)  -->
<svg version="1.1" id="Layer_1" xmlns="http://www.w3.org/2000/svg" xmlns:xlink="http://www.w3.org/1999/xlink" x="0px" y="0px"
	 width="300px" height="1200px" viewBox="0 0 300 1200" style="enable-background:new 0 0 300 1200;" xml:space="preserve">
<style type="text/css">
	.st0{fill:none;}
	.st1{fill:#FFFFFF;}
</style>
<rect x="0.3" y="300.1" class="st0" width="299.4" height="299.4"/>
<rect x="0.3" y="601.2" class="st0" width="299.4" height="299.4"/>
<g>
	<path class="st1" d="M74.5,489.6v-13.7h3.1v1.2c0.6-0.5,1.7-1.7,3.8-1.7c1.2,0,3,0.5,4.2,1.9c1.3,1.5,1.3,3.8,1.3,4.9v7.4h-3.3
		v-6.8c0-1.2,0-4.4-2.7-4.4c-0.6,0-1.7,0.3-2.2,1.2c-0.6,0.8-0.6,2.3-0.6,3.5v6.5H74.5 M90.9,481.6h7.6c-0.4-2.2-2.1-3.2-3.7-3.2
		C93.6,478.4,91.5,479,90.9,481.6 M91,484.3c0.1,0.9,1.5,2.8,3.8,2.8c1.5,0,2.6-0.6,3.2-1.7h3.5c-0.8,2.5-3.5,4.8-6.6,4.8
		c-4.1,0-7.3-3.3-7.3-7.3c0-3.9,3-7.5,7.2-7.5c4.3,0,7.1,3.8,7.1,7.2c0,0.6-0.1,1.2-0.2,1.7H91L91,484.3z M106.1,489.6h2l2.6-8.9
		h0.1l2.6,8.9h2l5-13.7H117l-2.6,8.4h-0.1l-2.2-8.4h-2.6l-2.2,8.4h-0.1l-2.5-8.4h-3.5L106.1,489.6z M129.9,482.6
		c0,3.1,2.2,4.5,4.2,4.5c2.2,0,4-1.7,4-4.3s-1.9-4.3-4-4.3C131.5,478.4,129.9,480.6,129.9,482.6 M126.8,471.3h3.3v5.8
		c1.2-1.2,2.7-1.7,4.3-1.7c4.2,0,6.9,3.6,6.9,7.3c0,2.7-1.8,7.4-6.8,7.4c-2.7,0-3.8-1.2-4.7-2.1v1.7h-3V471.3z M153.6,482.7
		c0-2.9-2-4.3-4-4.3c-2.7,0-4.1,2.3-4.1,4.4c0,2.3,1.7,4.2,4.1,4.2C151.8,487.1,153.6,485.3,153.6,482.7 M156.7,489.6h-3v-1.7
		c-1,1.2-3.1,2.2-4.8,2.2c-3.5,0-6.7-2.8-6.7-7.4c0-4.2,3.1-7.3,6.9-7.3c2.8,0,4.5,2,4.5,2.2h0.1v-1.7h3V489.6L156.7,489.6z
		 M161.8,471.3h-3.3v18.3h3.3V471.3z M174.1,482.7c0-2.9-2-4.3-4-4.3c-2.7,0-4.1,2.3-4.1,4.4c0,2.3,1.7,4.2,4.1,4.2
		C172.4,487.1,174.1,485.3,174.1,482.7 M177.3,489.6h-3v-1.7c-1,1.2-3.1,2.2-4.8,2.2c-3.5,0-6.7-2.8-6.7-7.4c0-4.2,3.1-7.3,6.9-7.3
		c2.8,0,4.5,2,4.5,2.2h0.1v-1.7h3V489.6L177.3,489.6z M179,489.6h3.3v-6.5c0-1.2,0-2.6,0.6-3.5s1.7-1.2,2.2-1.2
		c2.7,0,2.7,3.3,2.7,4.4v6.8h3.3v-7.4c0-1.1,0-3.4-1.3-4.9c-1.2-1.4-2.9-1.9-4.2-1.9c-2.1,0-3.2,1.2-3.8,1.7v-1.2h-3.1L179,489.6
		 M203,485.2c-0.9,1.4-2,1.9-3.1,1.9c-2.5,0-4.2-2-4.2-4.3c0-2.8,2-4.3,4-4.3s2.8,1.3,3.2,2h3.7c-1.4-4.2-5.2-5-6.9-5
		c-3.8,0-7.3,3.1-7.3,7.3c0,4.5,3.8,7.4,7.3,7.4c3.2,0,5.8-1.9,6.9-4.9L203,485.2 M210.6,481.6h7.6c-0.4-2.2-2.1-3.2-3.7-3.2
		C213.3,478.4,211.2,479,210.6,481.6 M210.6,484.3c0.1,0.9,1.4,2.8,3.8,2.8c1.5,0,2.6-0.6,3.2-1.7h3.5c-0.8,2.5-3.5,4.8-6.6,4.8
		c-4.1,0-7.3-3.3-7.3-7.3c0-3.9,3-7.5,7.2-7.5c4.3,0,7.1,3.8,7.1,7.2c0,0.6-0.1,1.2-0.2,1.7H210.6L210.6,484.3z M150.6,428.2l16,1
		l-0.6,1.1l-54.8,3.6l-2.4,4.2l50.9,3.2l-0.6,1.1l-28.4,1.7l2.2,8.1l19.9,1.2l-0.6,1.1l-18.3,1.3l1.7,6.8h35.1
		c8.4,0,23.6-5.6,25.4-17.3c1-6.6-4.8-9.1-7.1-9.5c10.9-3.1,14.6-10.4,15.4-13.3c2.6-9.6-4.2-12.8-13.3-12.8h-29.7l-3.6,6.5l16,1.1
		l-0.6,1.1l-17.3,1.1L150.6,428.2 M179.4,419.8h4.9c2.1,0,3.7,2.5,2.5,5.4c-1.3,3.1-4.8,4.7-8.2,4.7h-5L179.4,419.8z M173.5,440
		c1.8,0,4.3,1.9,2.9,5.4c-1.5,3.8-6.3,5.2-9,5.2h-5.8l6.1-10.5h5.8V440z M97.2,458.2l-2.4,4.2H120l3.5-6.1L97.2,458.2z M122.8,413.8
		l24.2,1.5l-1.5-5.8h-20.3L122.8,413.8z M118.2,421.7l-2.4,4.2l34.6,2.3l-2.2-8.4L118.2,421.7z M104.2,446l-2.4,4.2l24.4,1.3
		l4.4-7.6L104.2,446z M225.3,488c0-0.9-0.6-1.5-1.5-1.5c-0.8,0-1.5,0.6-1.5,1.5s0.6,1.5,1.5,1.5C224.6,489.6,225.3,488.9,225.3,488
		 M221.9,488c0-1.1,0.9-1.9,1.9-1.9s1.9,0.8,1.9,1.9s-0.9,1.9-1.9,1.9C222.8,489.9,221.9,489,221.9,488 M223.4,487.8h0.4
		c0.4,0,0.5-0.1,0.5-0.4c0-0.2-0.1-0.3-0.5-0.3h-0.4V487.8L223.4,487.8z M223.4,489H223v-2.2h0.8c0.5,0,0.8,0.2,0.8,0.6
		s-0.3,0.6-0.6,0.6l0.6,1h-0.4l-0.6-1h-0.4v1H223.4z"/>
</g>
<rect x="0.3" y="900.6" class="st0" width="299.4" height="299.4"/>
<g>
	<polygon class="st1" points="126.2,1061.7 137.1,1061.7 138.6,1059.1 139.1,1058.1 127.8,1058.9 	"/>
	<path class="st1" d="M167.9,1038.9h-12.8l-2.2,3.7l6.9,0.5l-0.3,0.6l-7.5,0.5l-1.6,2.6l-0.7-2.5l-13.9,0.9l-0.4,0.7l-1.5,2.6
		l21.9,1.4l-0.3,0.6l-23.7,1.5l-1.9,3.2l10.5,0.7l1.3-2.2l0.7,2.4l9.5,0.6l-0.3,0.6l-8.7,0.6l1,3.7h6.4h8.7c3.6,0,10.2-2.4,11-7.5
		c0.4-2.9-2.1-4-3.1-4.1c4.7-1.3,6.3-4.5,6.6-5.7C174.8,1040.3,171.9,1038.9,167.9,1038.9z M161.6,1054.4c-0.6,1.7-2.7,2.2-3.9,2.2
		h-2.5l2.6-4.6h2.5C161.1,1052.1,162.2,1052.9,161.6,1054.4z M166.1,1045.7c-0.6,1.4-2.1,2-3.5,2h-2.2l2.5-4.4h2.1
		C165.9,1043.4,166.6,1044.4,166.1,1045.7z"/>
	<polygon class="st1" points="148.3,1038.9 139.6,1038.9 138.5,1040.7 137.9,1041.7 149.2,1042.5 	"/>
</g>
<g>
	<path class="st1" d="M180.6,731.4h-21.9l-2.7,4.8l11.8,0.9l-0.5,0.9l-12.8,0.9l-3.8,6.5l11.8,0.7L162,747l-40.5,2.6l-1.9,3.1
		l37.6,2.4l-0.5,0.9l-20.8,1.2l1.5,6l14.7,0.9l-0.5,0.9l-13.5,1l1.2,5h25.8c6.1,0,17.4-4.1,18.8-12.8c0.7-5-3.6-6.8-5.3-7
		c8-2.2,10.8-7.7,11.3-9.7C192.4,733.7,187.2,731.4,180.6,731.4z M169.8,757.8c-1,2.9-4.6,3.8-6.7,3.8h-4.3l4.4-7.9h4.3
		C169,753.9,170.9,755.3,169.8,757.8z M177.3,743c-1,2.4-3.6,3.4-6,3.4h-3.8l4.3-7.5h3.6C177.2,738.9,178.4,740.7,177.3,743z"/>
	<polygon class="st1" points="109.6,770.3 128.2,770.3 130.7,765.8 111.4,767.2 	"/>
	<polygon class="st1" points="147,731.4 132.1,731.4 130.2,734.4 148.2,735.6 	"/>
	<polygon class="st1" points="149,738.9 127,740.2 125.1,743.5 150.5,745 	"/>
	<polygon class="st1" points="114.9,761.4 132.8,762.4 136,756.8 116.6,758.2 	"/>
</g>
<rect x="0.3" y="0" class="st0" width="299.4" height="299.4"/>
<g>
	<g>
		<polygon class="st1" points="128.2,140.3 99,141.3 126.7,142.8 		"/>
		<polygon class="st1" points="124.7,146.4 95.5,147.4 123.3,149 		"/>
		<polygon class="st1" points="121.2,152.6 92,153.6 119.8,155.1 		"/>
		<polygon class="st1" points="117.8,158.7 88.5,159.8 116.3,161.3 		"/>
		<polygon class="st1" points="153.6,109.3 116.3,110.6 153.7,112.7 		"/>
		<polygon class="st1" points="153.3,103.2 119.9,104.4 153.4,106.3 		"/>
		<polygon class="st1" points="153.1,97.3 123.3,98.3 153.2,100 		"/>
		<polygon class="st1" points="152.9,91.3 126.8,92.2 153,93.7 		"/>
		<polygon class="st1" points="152.7,86.4 130,86.4 152.8,87.6 		"/>
		<polygon class="st1" points="114.3,164.9 85.1,165.9 113.7,165.9 		"/>
		<path class="st1" d="M213.2,86.6h-42.1l-1.2,2.1l21.1,1.1c0.2,0,0.2,0.4-0.1,0.4l-22.2,0.7l-2.1,3.7l20.9,1.2c0.3,0,0.2,0.4,0,0.4
			l-22.2,0.7l-2.1,3.6l20.9,1.2c0.5,0,0.5,0.4,0,0.4l-22.2,0.8l-2.1,3.7l20.8,1.2c0.5,0,0.4,0.5,0,0.5l-22.2,0.8l-2.1,3.7l20.8,1.2
			c0.3,0,0.4,0.4-0.1,0.4l-63.9,2.1l60.6,3.4c0.4,0,0.4,0.5-0.1,0.5l-64,2.3l60.6,3.4c0.3,0,0.4,0.5-0.1,0.5l-64.1,2.3l60.6,3.4
			c0.2,0,0.5,0.5,0,0.5l-64,2.3l60.6,3.4c0.2,0,0.4,0.5-0.1,0.5l-32.2,1.1l0.1,2.9l28.7,1.6c0.2,0,0.3,0.5-0.1,0.5l-28.5,1l0.1,3.2
			l24.9,1.4c0.2,0,0.4,0.5-0.1,0.5l-24.7,0.9l0.1,3.6l21.2,1.2c0.2,0,0.3,0.5-0.1,0.5l-21,0.7l0.1,3.9l17.5,1c0.2,0,0.2,0.5-0.1,0.5
			l-17.4,0.6l0.1,1.7h56.6c15,0,28.5-10.9,31-19.6c2.5-8.7,2.5-16.6-9.5-20.5c6.7-1.5,18.5-9.1,20.8-19.6
			C233.1,96.4,229.6,86.7,213.2,86.6z M184.7,147.6h-17.4l9.8-17.4H190C203.4,130.2,196.9,147.6,184.7,147.6z M207.2,110.2
			c-0.6,2.1-4.8,7.4-10.1,7.4h-12.9l8.3-14.6h6.6C207.5,103.4,207.8,108.1,207.2,110.2z"/>
	</g>
	<path class="st1" d="M276.9,200c0-6.7-5.6-12.4-12.3-12.4c-6.9,0-12.6,5.7-12.6,12.8c0,7,5.6,12.6,12.6,12.6c5.1,0,10-3.5,11.4-8.3
		h-6.4c-1.3,2-2.9,2.9-5.2,2.9c-2.9,0-5.5-2-6.3-4.8h18.5C276.9,201.5,276.9,200.8,276.9,200z M258,198.3c0.8-3.3,3.5-5.4,6.7-5.4
		s5.8,2.1,6.6,5.4H258z"/>
	<path class="st1" d="M193.9,188.7v2c-1.8-2-4.5-3.1-7.3-3.1c-6.3,0-11.7,5.4-11.7,12.4c0,6.6,4.8,12.5,11.8,12.5
		c3.1,0,5.5-0.7,7.7-3.3v3.1h5.3v-23.7h-5.8V188.7z M187.4,207.5c-4.1,0-7.3-3.3-7.3-7.3c0-4.1,3.3-7.3,7.3-7.3
		c4.1,0,7.3,3.3,7.3,7.3C194.8,204.2,191.5,207.5,187.4,207.5z"/>
	<path class="st1" d="M34.7,187.6c-2.4,0-4.2,0.8-6.3,2.9v-2.3H23v24.3h5.8V201c0-3.1,0.3-8.1,4.6-8.1c4,0,4.5,4.6,4.5,7.6v11.9h5.8
		v-13c0-3.4-0.3-5-1.2-7C41.2,189.5,38,187.6,34.7,187.6z"/>
	<path class="st1" d="M70.9,200c0-6.7-5.6-12.4-12.3-12.4c-6.9,0-12.6,5.7-12.6,12.8c0,7,5.6,12.6,12.6,12.6c5.1,0,10-3.5,11.4-8.3
		h-6.4c-1.3,2-2.9,2.9-5.2,2.9c-2.9,0-5.5-2-6.3-4.8h18.5C70.8,201.5,70.9,200.8,70.9,200z M51.9,198.3c0.8-3.3,3.5-5.4,6.7-5.4
		s5.8,2.1,6.6,5.4H51.9z"/>
	<rect x="166.7" y="180" class="st1" width="5.8" height="32.4"/>
	<path class="st1" d="M215.1,187.6c-2.4,0-4.2,0.8-6.3,2.9v-2.3h-5.4v24.3h5.8V201c0-3.1,0.3-8.1,4.6-8.1c4,0,4.5,4.6,4.5,7.6v11.9
		h5.8v-13c0-3.4-0.3-5-1.2-7C221.6,189.5,218.4,187.6,215.1,187.6z"/>
	<path class="st1" d="M238.7,192.9c2.7,0,4.2,0.9,5.6,3.3h6.6c-1.8-5.2-6.4-8.7-12-8.7c-7.1,0-12.8,5.6-12.8,12.6
		s5.7,12.8,12.8,12.8c3.6,0,7.1-1.6,9.5-4.2c1.2-1.4,1.7-2.1,2.5-4.3h-6.6c-1.4,2.1-3.1,3.2-5.3,3.2c-4.1,0-7.1-3.2-7.1-7.4
		C231.9,196,234.8,192.9,238.7,192.9z"/>
	<polygon class="st1" points="93.1,202.9 89,188.1 84.3,188.1 80.2,202.9 75.2,188.1 70.1,188.1 78.2,212.4 81.9,212.4 86.7,196.7 
		91.3,212.4 95.2,212.4 102.9,188.1 98.1,188.1 	"/>
	<path class="st1" d="M124.3,187.6c-2.8,0-5.5,1.1-7.3,3.1V180h-5.8v32.4h5.3v-3.1c2.2,2.5,4.6,3.3,7.7,3.3c7,0,11.8-5.9,11.8-12.5
		C136,193,130.7,187.6,124.3,187.6z M123.5,207.5c-4.1,0-7.3-3.3-7.3-7.3c0-4.1,3.3-7.3,7.3-7.3c4.1,0,7.3,3.3,7.3,7.3
		C130.9,204.2,127.6,207.5,123.5,207.5z"/>
	<path class="st1" d="M157,188.7v2c-1.8-2-4.5-3.1-7.3-3.1c-6.3,0-11.7,5.4-11.7,12.4c0,6.6,4.8,12.5,11.8,12.5
		c3.1,0,5.5-0.7,7.7-3.3v3.1h5.3v-23.7H157V188.7z M150.5,207.5c-4.1,0-7.3-3.3-7.3-7.3c0-4.1,3.3-7.3,7.3-7.3
		c4.1,0,7.3,3.3,7.3,7.3S154.5,207.5,150.5,207.5z"/>
</g>
</svg>
