<?xml version="1.0" encoding="utf-8"?>
<!-- Generator: Adobe Illustrator 18.1.0, SVG Export Plug-In . SVG Version: 6.00 Build 0)  -->
<svg version="1.1" id="Layer_1" xmlns="http://www.w3.org/2000/svg" xmlns:xlink="http://www.w3.org/1999/xlink" x="0px" y="0px"
	 width="300px" height="1200px" viewBox="-489 -200 300 1200" enable-background="new -489 -200 300 1200" xml:space="preserve">
<rect x="-154.8" y="-198.7" fill="none" stroke="#70706E" stroke-width="0.7484" stroke-miterlimit="10" width="299.4" height="299.4"/>
<rect x="-154.8" y="100.6" fill="none" stroke="#70706E" stroke-width="0.7484" stroke-miterlimit="10" width="299.4" height="299.4"/>
<rect x="-154.8" y="400" fill="none" stroke="#70706E" stroke-width="0.7484" stroke-miterlimit="10" width="299.4" height="299.4"/>
<rect x="-154.8" y="699.4" fill="none" stroke="#70706E" stroke-width="0.7484" stroke-miterlimit="10" width="299.4" height="299.4"/>
<g>
	<path d="M-379.7,209.8c3.5,0,7,0,10.5,0c-0.5,6.4-0.8,12.2-1.2,18.6c1.4-3,2.5-6.1,3.6-9.2c1.2-3.1,2.4-6.3,3.5-9.4
		c3.3,0,6.6,0,9.9,0c-5.2,14.1-10.5,28.1-15.7,42.1c-3.5,0-7.1,0-10.6,0c0.3-6.3,0.8-12.2,1.1-18.5c-2.4,6.1-4.6,12.3-7,18.5
		c-3.3,0-6.6,0-9.9,0C-390.3,237.9-385.2,223.7-379.7,209.8z"/>
	<path d="M-352,209.8c3.3,0,6.6,0,9.9,0c-5.3,14-10.6,27.9-15.7,42.1c-3.3,0-6.7,0-10,0C-362.6,237.9-357.4,223.7-352,209.8z"/>
	<path d="M-303.7,233.4h-9.5l-4,10.4c3.9,0,7.7,0,11.6,0c-0.4,1-0.8,2.1-1.1,3.1c11.2-2.7,22.7-6.1,34.1-9.1c1.9-0.5,3.9-1,5.7-1.5
		c1.9-0.5,3.7-1.3,5.6-1.2c-0.3,1-1.5,1.1-2.2,1.4c-25.2,10.8-50.7,22.2-76,33.1c-6.5,2.8-13.1,5.6-19.7,8.5
		c-6.6,2.8-13.2,5.7-19.9,8.4c-6.3,2.5-15,5.6-23.2,4c-3.7-0.7-7-2.3-9.6-4.5c-2.6-2.2-4.5-5.3-4.7-9.2c-0.3-4.6,1-8.8,2.4-12.4
		c4.1-10.4,10.9-18.5,17.2-26.6c-2.1,5.1-5.4,12.4-3.2,19.4c2.1,6.8,8.4,10.6,17.7,10.1c2.6-0.1,5-0.9,7.5-1.6
		c16.4-4.5,34.2-9.2,50.2-13.5c-4.5-0.3-9.4,0-14.1-0.1c-0.2-6.1-0.2-11.7-0.5-17.5c-2.3,5.8-4.5,11.6-6.6,17.5c-3.3,0-6.7,0-10,0
		c5.2-14,10.5-28,15.6-42.1c3.4,0,6.7,0,10.1,0c-1.6,4.1-3.1,8.3-4.7,12.4c3.5-3.6,6.9-8.4,10.5-12.4c10.1,0,20.1,0,30.2,0
		c-0.7,2.4-1.8,4.5-2.5,6.9c-3.3,0-6.7,0-10,0l-3.5,9c3.2,0,6.4,0,9.6,0L-303.7,233.4z M-329.8,227.4l0.7,21.5
		c4.7-12.7,9.5-25.3,14.2-38.1c0-0.1,0-0.1-0.1-0.1L-329.8,227.4z"/>
</g>
<g>
	<path d="M-604.7,514.7c2.2,0,4.5,0,6.7,0c-0.3,4.1-0.5,7.8-0.8,11.8c0.9-1.9,1.6-3.9,2.3-5.9c0.7-2,1.5-4,2.2-6c2.1,0,4.2,0,6.3,0
		c-3.3,9-6.7,17.9-10,26.8c-2.3,0-4.5,0-6.8,0c0.2-4,0.5-7.8,0.7-11.8c-1.6,3.9-3,7.9-4.5,11.8c-2.1,0-4.2,0-6.3,0
		C-611.5,532.6-608.2,523.6-604.7,514.7z"/>
	<path d="M-563.5,529.8h-6l-2.5,6.6c2.5,0,4.9,0,7.4,0c-0.3,0.6-0.5,1.3-0.7,2c7.2-1.7,14.4-3.9,21.7-5.8c1.2-0.3,2.5-0.6,3.7-1
		c1.2-0.3,2.3-0.8,3.6-0.8c-0.2,0.6-1,0.7-1.4,0.9c-16.1,6.9-32.3,14.1-48.4,21.1c-4.1,1.8-8.3,3.6-12.6,5.4
		c-4.2,1.8-8.4,3.6-12.6,5.3c-4,1.6-9.6,3.6-14.8,2.5c-2.4-0.5-4.4-1.5-6.1-2.9c-1.6-1.4-2.8-3.3-3-5.9c-0.2-3,0.6-5.6,1.5-7.9
		c2.6-6.6,7-11.8,11-16.9c-1.4,3.3-3.4,7.9-2.1,12.3c1.3,4.3,5.3,6.8,11.3,6.4c1.6-0.1,3.2-0.6,4.8-1c10.4-2.8,21.8-5.8,32-8.6
		c-2.8-0.2-6,0-9-0.1c-0.1-3.9-0.2-7.5-0.3-11.1c-1.4,3.7-2.9,7.4-4.2,11.1c-2.1,0-4.2,0-6.4,0c3.3-8.9,6.7-17.8,9.9-26.8
		c2.1,0,4.3,0,6.4,0c-1,2.6-2,5.3-3,7.9c2.2-2.3,4.4-5.4,6.7-7.9c6.4,0,12.8,0,19.2,0c-0.5,1.5-1.1,2.8-1.6,4.4c-2.1,0-4.2,0-6.4,0
		l-2.2,5.7c2,0,4.1,0,6.1,0L-563.5,529.8z M-580.1,525.9l0.5,13.7c3-8.1,6.1-16.1,9.1-24.2c0,0,0-0.1-0.1-0.1L-580.1,525.9z"/>
</g>
<path d="M-355.6,868.9c-2.6,1-6.2,2.3-9.6,1.6c-1.5-0.3-2.9-0.9-4-1.9c-1.1-0.9-1.8-2.2-2-3.8c-0.1-1.9,0.4-3.6,1-5.1
	c1.7-4.3,4.5-7.6,7.1-11c-0.9,2.1-2.2,5.1-1.3,8c0.8,2.8,3.5,4.4,7.3,4.2c1.1-0.1,2.1-0.4,3.1-0.7l47-12.6L-355.6,868.9z"/>
<g>
	<g>
		<g>
			<path d="M-393.7-103.7c4.7,0,9.4,0,14.1,0c-0.6,8.6-1,16.4-1.7,25c1.9-4,3.3-8.2,4.9-12.4c1.6-4.2,3.2-8.4,4.7-12.6
				c4.4,0,8.8,0,13.3,0c-6.9,19-14.1,37.7-21.1,56.5c-4.8,0-9.5,0-14.3,0c0.4-8.4,1.1-16.4,1.5-24.8c-3.3,8.1-6.2,16.6-9.4,24.8
				c-4.4,0-8.8,0-13.3,0C-408-66.1-401-85.1-393.7-103.7z"/>
			<path d="M-356.5-103.7c4.4,0,8.8,0,13.3,0c-7.1,18.8-14.2,37.5-21.1,56.5c-4.5,0-8.9,0-13.4,0C-370.7-66-363.8-85-356.5-103.7z"
				/>
			<path d="M-291.6-72h-12.7l-5.4,13.9c5.2,0,10.4,0,15.6,0c-0.5,1.4-1,2.8-1.5,4.2c15.1-3.6,30.5-8.3,45.8-12.2
				c2.6-0.7,5.2-1.3,7.7-2c2.5-0.7,4.9-1.8,7.5-1.7c-0.4,1.4-2,1.4-3,1.8c-33.9,14.5-68.1,29.8-102.2,44.5
				c-8.7,3.8-17.6,7.6-26.5,11.4c-8.8,3.8-17.7,7.6-26.7,11.2c-8.5,3.4-20.2,7.5-31.2,5.4c-5-1-9.3-3.1-12.9-6
				c-3.5-2.9-6-7.1-6.4-12.4c-0.5-6.2,1.3-11.9,3.2-16.6c5.5-14,14.7-24.9,23.1-35.7c-2.9,6.9-7.2,16.6-4.4,26
				c2.8,9.1,11.3,14.3,23.8,13.6c3.5-0.2,6.7-1.3,10.1-2.2c22-6,45.9-12.3,67.4-18.1c-6-0.4-12.7-0.1-19-0.2
				c-0.2-8.1-0.3-15.8-0.7-23.5c-3,7.8-6.1,15.5-8.9,23.5c-4.5,0-8.9,0-13.4,0c7-18.9,14.1-37.6,21-56.5c4.5,0,9.1,0,13.6,0
				c-2.2,5.5-4.2,11.1-6.4,16.6c4.6-4.9,9.2-11.3,14.1-16.6c13.5,0,27.1,0,40.6,0c-1,3.2-2.4,6-3.4,9.2c-4.5,0-8.9,0-13.4,0
				l-4.7,12.1c4.3,0,8.6,0,12.9,0L-291.6-72z M-326.6-80.1l1,28.9c6.3-17.1,12.8-34,19.1-51.2c0-0.1,0-0.2-0.2-0.2L-326.6-80.1z"/>
		</g>
	</g>
	<g>
		<path fill="none" d="M-271.1-22.4c1.1,0,2-0.1,2.7-0.4c0.7-0.3,1.3-0.7,1.8-1.2c0.5-0.6,0.9-1.2,1.3-2.1c0.4-0.8,0.7-1.8,1-3
			c0.3-1.1,0.5-2.1,0.7-3c0.1-0.8,0.1-1.5-0.1-2c-0.2-0.5-0.5-0.9-1-1.1c-0.6-0.3-1.4-0.4-2.5-0.4h-3l-3.8,13.2L-271.1-22.4
			L-271.1-22.4z"/>
		<polygon fill="none" points="-308.8,-26.9 -315.4,-13.2 -310.1,-13.2 		"/>
		<path d="M-307.4-42.6L-331,3.6h7.6l4.7-9.7h8l-0.9,9.7h7.4l2.9-46.2H-307.4L-307.4-42.6z M-308.8-26.9l-1.3,13.7h-5.3L-308.8-26.9
			z"/>
		<polygon points="-288.6,-42.6 -301.9,3.6 -294.4,3.6 -281.2,-42.6 		"/>
		<path d="M-257.5-39.7c-1.5-1.9-4-2.9-7.6-2.9h-10.8l-13.2,46.2h7.5l5.5-19.3h3.1l0.5,19.3h7.8l-1.1-20.8c2.3-1.2,4.2-2.7,5.5-4.6
			c1.4-1.9,2.5-4.2,3.2-6.9C-255.6-33.7-255.7-37.4-257.5-39.7z M-267.4-35.6c1.1,0,2,0.1,2.5,0.4c0.5,0.2,0.9,0.6,1,1.1
			c0.2,0.5,0.2,1.2,0.1,2c-0.1,0.8-0.3,1.8-0.7,3c-0.3,1.1-0.7,2.1-1,3c-0.4,0.8-0.8,1.5-1.3,2.1c-0.5,0.5-1.1,1-1.8,1.2
			c-0.7,0.3-1.6,0.4-2.7,0.4h-3.1l3.8-13.2L-267.4-35.6L-267.4-35.6z"/>
	</g>
</g>
<g>
	<g>
		<path fill="none" d="M-329.5,537.9c1.5-3.9,2.9-7.8,4.4-11.7l-8.3,9.4l0.4,11.8C-331.9,544.2-330.7,541.1-329.5,537.9z"/>
		<path d="M-348.6,525h-5.5c-0.4,1.1-0.8,2.3-1.3,3.4c-0.3,0.7-0.5,1.4-0.8,2.1c-0.1,0.4-0.3,0.8-0.4,1.1c-0.6,1.5-1.1,3.1-1.8,4.5
			l-0.6,1.2l0.1-1.4c0.2-2.2,0.3-4.4,0.4-6.5c0.1-1.5,0.2-3.1,0.3-4.7h-6c-2.4,6.2-4.8,12.7-7.1,18.9c-0.8,2.1-1.6,4.3-2.4,6.4h5.5
			c0.6-1.4,1.1-2.9,1.6-4.4c0.8-2.2,1.7-4.6,2.6-6.8l0.6-1.4l-0.1,1.5c-0.1,1.8-0.2,3.6-0.3,5.3c-0.1,1.9-0.3,3.8-0.3,5.7h6.1
			c0.9-2.5,1.8-4.9,2.8-7.4C-353.1,537-350.8,531-348.6,525z"/>
		<path d="M-341.7,525h-5.5c-2,5.2-4,10.6-6,15.8c-1.2,3.2-2.4,6.4-3.6,9.5h5.6c2.4-6.7,5-13.4,7.4-19.9
			C-343,528.6-342.3,526.8-341.7,525z"/>
		<path d="M-333.5,528.6c-1.1,1.4-2.2,2.7-3.3,3.9l-0.9,0.9l0.5-1.2c0.4-1.1,0.9-2.3,1.3-3.5c0.5-1.3,1-2.5,1.4-3.8h-5.7
			c-2,5.4-4,10.8-6,16.1c-1.1,3.1-2.3,6.1-3.4,9.2h5.6c1.3-3.6,2.7-7.2,4-10.6l0.4-1.1l0.1,1.2c0.1,2.6,0.2,5.2,0.2,7.9
			c0,0.9,0,1.7,0.1,2.6c1.3,0,4.5,0,8.2,0c3.2,0,6.9,0,10,0c0.7-1.8,1.4-3.6,1.7-4.4h-7.1l2.6-6.9h5.8l1.6-4.2h-5.9l2.3-6h6.1
			c0.2-0.7,0.5-1.3,0.7-1.9c0.2-0.6,0.5-1.2,0.7-1.8h-18.1C-331.5,526.1-332.5,527.4-333.5,528.6z M-324.6,525c0,0,0.3,0,0.3,0.3
			l0,0.1l0,0.1c-1.6,4.2-3.1,8.4-4.7,12.6c-1.3,3.6-2.7,7.1-4,10.7l-0.4,1.2l-0.5-14.5l0.1-0.1l9.2-10.3L-324.6,525z"/>
	</g>
	<g>
		<path d="M-298.3,541.9c1.2-0.3,2.4-0.6,3.5-0.9c1.1-0.3,2.2-0.8,3.4-0.8c-0.2,0.6-0.9,0.6-1.4,0.8c-15.5,6.6-31.1,13.6-46.6,20.3
			c-4,1.7-8,3.5-12.1,5.2c-4,1.7-8.1,3.5-12.2,5.1c-3.9,1.6-9.2,3.4-14.2,2.4c-2.3-0.4-4.3-1.4-5.9-2.8c-1.6-1.3-2.7-3.2-2.9-5.7
			c-0.2-2.8,0.6-5.4,1.5-7.6c2.5-6.4,6.7-11.4,10.6-16.3c-1.3,3.1-3.3,7.6-2,11.9c1.3,4.1,5.1,6.5,10.9,6.2c1.6-0.1,3.1-0.6,4.6-1
			L-298.3,541.9z"/>
	</g>
</g>
</svg>
