<?xml version="1.0" encoding="utf-8"?>
<!-- Generator: Adobe Illustrator 15.0.0, SVG Export Plug-In . SVG Version: 6.00 Build 0)  -->
<!DOCTYPE svg PUBLIC "-//W3C//DTD SVG 1.1//EN" "http://www.w3.org/Graphics/SVG/1.1/DTD/svg11.dtd">
<svg version="1.1" id="Layer_1" xmlns="http://www.w3.org/2000/svg" xmlns:xlink="http://www.w3.org/1999/xlink" x="0px" y="0px"
	 width="300px" height="1200px" viewBox="0 0 300 1200" enable-background="new 0 0 300 1200" xml:space="preserve">
<rect x="334.182" y="1.277" fill="none" stroke="#70706E" stroke-width="0.7484" stroke-miterlimit="10" width="299.371" height="299.363"/>
<rect x="334.182" y="300.641" fill="none" stroke="#70706E" stroke-width="0.7484" stroke-miterlimit="10" width="299.371" height="299.359"/>
<rect x="334.182" y="600" fill="none" stroke="#70706E" stroke-width="0.7484" stroke-miterlimit="10" width="299.371" height="299.363"/>
<rect x="334.182" y="899.363" fill="none" stroke="#70706E" stroke-width="0.7484" stroke-miterlimit="10" width="299.371" height="299.359"/>
<g>
	<path fill="#FFFFFF" d="M227.771,776.531l4.42,6.622c0.42,0.656,0.938,1.08,1.408,1.361c0.235,0.143,0.846,0.471,1.268,0.471v0.893
		h-7.328v-0.893c0.049,0,0.703-0.096,1.125-0.281c0.424-0.188,0.562-0.707,0.189-1.174l-2.959-4.463l-3.379,4.556
		c-0.611,0.703-0.097,1.268,0.75,1.362v0.893h-5.449v-0.938c1.266-0.189,1.738-0.705,2.301-1.457l4.602-6.199l-4.084-6.058
		c-0.658-0.987-1.689-1.599-2.678-1.599v-0.894h7.471v0.894c-0.846,0.094-2.068,0.377-1.457,1.362l2.584,3.852l2.912-3.852
		c0.61-0.752,0.139-1.315-0.803-1.362v-0.894h5.5v0.894c-0.893,0.047-1.363,0.424-1.881,0.938L227.771,776.531 M203.21,777.141
		c-0.047,3.521,1.081,7.327,4.603,7.327c3.572,0,4.512-3.898,4.418-7.422c-0.096-3.428-0.705-6.996-4.418-6.996
		C203.916,770.003,203.258,773.665,203.21,777.141 M215.891,777.423c-0.096,4.508-3.098,8.829-8.029,8.829s-8.174-3.944-8.27-8.924
		c-0.046-4.647,3.148-9.018,8.221-9.018C212.842,768.312,215.986,772.774,215.891,777.423 M194.52,785.877h-0.658l-10.85-12.633
		v10.286c0,0.421,0.283,0.796,0.754,1.127c0.467,0.281,0.844,0.281,1.269,0.328v0.893h-5.779v-0.893
		c0.284-0.047,0.659-0.096,0.988-0.236c0.562-0.188,0.985-0.608,0.985-1.219v-12.26c-0.424-0.847-1.361-1.646-2.439-1.646v-0.893
		h4.458l9.442,11.227v-8.877c0-0.938-1.129-1.457-1.973-1.457v-0.893h5.82v0.893c-0.982,0.095-2.02,0.377-2.02,1.41v14.842H194.52z
		 M172.633,783.575c0,0.564,0.281,0.846,0.844,1.082c0.33,0.141,0.801,0.281,1.129,0.328v0.892h-6.901v-0.892
		c0.233-0.047,0.983-0.236,1.221-0.377c0.423-0.232,0.748-0.469,0.748-1.078v-12.494c0-0.938-1.172-1.315-1.969-1.41v-0.893h6.901
		v0.893c-0.938,0.188-1.973,0.377-1.973,1.457V783.575L172.633,783.575z M155.16,770.47c-0.141,0-0.799,0.049-1.785,0.143v7.279
		h2.912c2.162-0.14,3.055-1.269,3.055-3.851C159.342,770.847,157.413,770.47,155.16,770.47 M164.18,785.877h-4.181l-3.712-6.435
		h-2.959v4.088c0,0.656,0.471,1.269,2.113,1.455l0.049,0.893h-7.234v-0.938c0.47,0,0.894-0.096,1.316-0.281
		c0.423-0.188,0.846-0.66,0.846-1.176v-12.166c0-1.125-1.174-1.549-2.351-1.689v-0.893h8.22c2.867,0,6.342,1.928,6.342,5.215
		c0,1.691-0.752,4.133-3.521,5.025l2.816,4.648c0.471,0.753,1.08,1.268,2.209,1.362L164.18,785.877z M132.053,777.188
		c-0.092,3.521,1.081,7.326,4.555,7.326c3.617,0,4.509-3.897,4.417-7.422c-0.092-3.429-0.655-6.996-4.417-6.996
		C132.709,770.097,132.101,773.712,132.053,777.188 M144.687,777.47c-0.094,4.508-3.099,8.83-7.985,8.83
		c-4.978,0-8.173-3.945-8.267-8.926c-0.093-4.648,3.101-9.019,8.218-9.019C141.634,768.356,144.781,772.821,144.687,777.47
		 M120.732,770.565v12.871c0,0.606,0.422,1.078,1.082,1.312c0.328,0.142,0.704,0.189,1.125,0.236v0.892h-7.185v-0.892
		c0.422-0.047,0.752-0.096,1.267-0.281c0.518-0.188,0.941-0.66,0.941-1.318l-0.049-12.819h-2.252c-1.363,0-1.786,0.562-2.021,1.176
		c-0.187,0.516-0.234,1.033-0.234,1.549l-0.985-0.046v-4.511h13.853v4.557h-1.031c-0.048-0.705-0.143-1.314-0.376-1.784
		c-0.33-0.658-0.845-0.939-1.503-0.939L120.732,770.565L120.732,770.565z M109.18,768.733l0.092,4.789h-0.892
		c-0.234-0.938-0.471-1.736-0.893-2.298c-0.611-0.801-1.503-1.175-2.818-1.175c-4.368,0-4.79,4.364-4.79,7.184
		c0,2.865,0.516,7.327,5.119,7.234c1.408-0.047,3.522-0.846,4.93-2.676l0.143-0.19l0.938,0.706l-0.048,0.092
		c-1.596,2.82-4.649,3.854-6.576,3.854c-5.448,0-8.219-4.84-8.219-8.878c0-3.286,2.02-8.971,7.233-8.971
		c2.021,0,3.523,0.469,4.791,1.127l0.188-0.799H109.18L109.18,768.733z M91.097,783.575c0,0.564,0.28,0.846,0.844,1.082
		c0.328,0.141,0.799,0.281,1.128,0.328v0.892h-6.904v-0.892c0.233-0.047,0.984-0.236,1.219-0.377
		c0.424-0.232,0.752-0.469,0.752-1.078v-12.494c0-0.938-1.174-1.315-1.972-1.41v-0.893h6.904v0.893
		c-0.94,0.188-1.973,0.377-1.973,1.457v12.492H91.097z M75.08,781.649l3.899-10.566c0.234-0.706-0.095-1.222-1.363-1.409v-0.939
		h5.823v0.939c-1.033,0.047-1.877,0.233-2.347,1.504l-5.778,15.123h-1.27l-6.433-15.218c-0.562-1.315-1.55-1.362-2.02-1.362v-0.986
		h6.718v0.939c-1.082,0.188-1.363,0.797-1.222,1.221L75.08,781.649z"/>
	<path fill="#FFFFFF" d="M136.132,732.133c0-4.631-0.783-9.088-2.125-13.279l0.026-0.061c1.081-0.523,3.28-1.656,5.493-2.848
		c2.4-1.291,5.033-2.512,6.373-2.779c1.738-0.348,3.359,0.178,4.333,1.672c0.973-1.494,2.592-2.02,4.331-1.672
		c1.34,0.268,3.974,1.488,6.373,2.779c2.213,1.189,4.412,2.322,5.49,2.842l0.027,0.062c-1.34,4.191-2.122,8.65-2.122,13.283
		c0,4.434,0.849,8.68,2.082,12.713l-0.031,0.062c-7.378,2.732-11.864,6.162-16.106,10.582h-0.074
		c-4.248-4.42-8.693-7.834-16.119-10.574l-0.03-0.062C135.285,740.812,136.132,736.568,136.132,732.133"/>
	<path fill="none" stroke="#AD1E3C" stroke-width="0.3392" stroke-miterlimit="3.864" d="M136.132,732.133
		c0-4.631-0.783-9.088-2.125-13.279l0.026-0.061c1.081-0.523,3.28-1.656,5.493-2.848c2.4-1.291,5.033-2.512,6.373-2.779
		c1.738-0.348,3.359,0.178,4.333,1.672c0.973-1.494,2.592-2.02,4.331-1.672c1.34,0.268,3.974,1.488,6.373,2.779
		c2.213,1.189,4.412,2.322,5.49,2.842l0.027,0.062c-1.34,4.191-2.122,8.65-2.122,13.283c0,4.434,0.849,8.68,2.082,12.713
		l-0.031,0.062c-7.378,2.732-11.864,6.162-16.106,10.582h-0.074c-4.248-4.42-8.693-7.834-16.119-10.574l-0.03-0.062
		C135.285,740.812,136.132,736.568,136.132,732.133z"/>
	<path fill="#AD1E3C" d="M158.784,718.123c-1.858-0.924-3.781-1.807-4.815-2.014c-1.963-0.393-3.461,1.172-3.7,2.117l-0.049,0.193
		l-0.049-0.193c-0.239-0.947-1.701-2.51-3.666-2.117c-1.034,0.207-2.956,1.09-4.816,2.014c-1.826,0.91-3.586,1.857-4.37,2.234
		c1.061,3.49,1.633,7.135,1.652,10.998h2.631v-1.984h5.966v-5.965h5.216v5.965h5.967v1.984h2.754c0.019-3.863,0.588-7.508,1.647-11
		C162.371,719.98,160.611,719.033,158.784,718.123"/>
	<path fill="#AD1E3C" d="M150.221,751.584c3.58-3.381,8.035-6.658,12.882-8.338c-0.483-1.674-0.973-3.996-1.256-6.297
		c-0.258-2.105-0.32-4.045-0.35-4.35h-2.746v1.986h-5.965v5.967h-5.216v-5.967h-5.966v-1.984h-2.644
		c-0.088,3.559-0.688,7.484-1.607,10.645C142.199,744.924,146.64,748.203,150.221,751.584"/>
</g>
<g>
	<path fill="#FFFFFF" d="M136.132,1046.9c0-4.634-0.783-9.09-2.125-13.28l0.026-0.061c1.081-0.524,3.28-1.657,5.493-2.849
		c2.4-1.291,5.033-2.512,6.373-2.78c1.738-0.347,3.359,0.179,4.333,1.672c0.973-1.493,2.592-2.019,4.331-1.672
		c1.34,0.27,3.974,1.489,6.373,2.78c2.213,1.189,4.412,2.321,5.49,2.842l0.027,0.062c-1.34,4.194-2.122,8.651-2.122,13.285
		c0,4.434,0.849,8.679,2.082,12.713l-0.031,0.062c-7.378,2.733-11.864,6.162-16.106,10.583h-0.074
		c-4.248-4.421-8.693-7.834-16.119-10.576l-0.03-0.062C135.285,1055.58,136.132,1051.335,136.132,1046.9"/>
	<path fill="none" stroke="#AD1E3C" stroke-width="0.3392" stroke-miterlimit="3.864" d="M136.132,1046.9
		c0-4.634-0.783-9.09-2.125-13.28l0.026-0.061c1.081-0.524,3.28-1.657,5.493-2.849c2.4-1.291,5.033-2.512,6.373-2.78
		c1.738-0.347,3.359,0.179,4.333,1.672c0.973-1.493,2.592-2.019,4.331-1.672c1.34,0.27,3.974,1.489,6.373,2.78
		c2.213,1.189,4.412,2.321,5.49,2.842l0.027,0.062c-1.34,4.194-2.122,8.651-2.122,13.285c0,4.434,0.849,8.679,2.082,12.713
		l-0.031,0.062c-7.378,2.733-11.864,6.162-16.106,10.583h-0.074c-4.248-4.421-8.693-7.834-16.119-10.576l-0.03-0.062
		C135.285,1055.58,136.132,1051.335,136.132,1046.9z"/>
	<path fill="#AD1E3C" d="M158.784,1032.89c-1.858-0.925-3.781-1.808-4.815-2.015c-1.963-0.392-3.461,1.172-3.7,2.118l-0.049,0.194
		l-0.049-0.194c-0.239-0.948-1.701-2.51-3.666-2.118c-1.034,0.207-2.956,1.09-4.816,2.015c-1.826,0.91-3.586,1.856-4.37,2.233
		c1.061,3.491,1.633,7.136,1.652,11h2.631v-1.985h5.966v-5.966h5.216v5.966h5.967v1.985h2.754c0.019-3.864,0.588-7.51,1.647-11
		C162.371,1034.746,160.611,1033.799,158.784,1032.89"/>
	<path fill="#AD1E3C" d="M150.221,1066.35c3.58-3.381,8.035-6.66,12.882-8.337c-0.483-1.675-0.973-3.995-1.256-6.296
		c-0.258-2.109-0.32-4.046-0.35-4.352h-2.746v1.986h-5.965v5.967h-5.216v-5.967h-5.966v-1.984h-2.644
		c-0.088,3.561-0.688,7.485-1.607,10.646C142.199,1059.689,146.64,1062.971,150.221,1066.35"/>
</g>
<g>
	<path fill="#FFFFFF" d="M280.161,138.548l5.749,8.619c0.547,0.854,1.224,1.406,1.833,1.771c0.308,0.186,1.101,0.613,1.651,0.613
		v1.161h-9.536v-1.161c0.061,0,0.915-0.124,1.464-0.367c0.548-0.246,0.731-0.919,0.245-1.527l-3.851-5.809l-4.399,5.929
		c-0.796,0.915-0.124,1.649,0.978,1.773v1.161h-7.092v-1.222c1.647-0.246,2.262-0.917,2.995-1.897l5.988-8.067l-5.313-7.883
		c-0.858-1.285-2.2-2.08-3.486-2.08v-1.162h9.723v1.162c-1.102,0.121-2.691,0.49-1.896,1.774l3.361,5.011l3.79-5.011
		c0.796-0.979,0.181-1.713-1.043-1.774v-1.162h7.155v1.162c-1.161,0.062-1.773,0.551-2.448,1.224L280.161,138.548 M248.196,139.341
		c-0.061,4.584,1.407,9.537,5.99,9.537c4.646,0,5.869-5.075,5.747-9.661c-0.124-4.458-0.917-9.104-5.747-9.104
		C249.116,130.052,248.258,134.817,248.196,139.341 M264.697,139.708c-0.124,5.866-4.03,11.493-10.449,11.493
		c-6.417,0-10.637-5.137-10.761-11.614c-0.059-6.051,4.098-11.735,10.699-11.735C260.73,127.851,264.821,133.658,264.697,139.708
		 M236.885,150.711h-0.854l-14.118-16.441v13.387c0,0.546,0.368,1.035,0.979,1.466c0.608,0.367,1.102,0.367,1.649,0.427v1.161h-7.52
		v-1.161c0.37-0.062,0.858-0.124,1.287-0.308c0.731-0.246,1.283-0.793,1.283-1.585v-15.955c-0.552-1.103-1.773-2.141-3.178-2.141
		V128.4h5.802l12.287,14.609v-11.552c0-1.222-1.468-1.895-2.565-1.895v-1.162h7.573v1.162c-1.279,0.121-2.627,0.49-2.627,1.834
		L236.885,150.711L236.885,150.711z M208.403,147.714c0,0.736,0.369,1.103,1.101,1.409c0.426,0.183,1.039,0.367,1.467,0.427v1.161
		h-8.983v-1.161c0.306-0.062,1.281-0.308,1.589-0.491c0.551-0.303,0.976-0.61,0.976-1.403v-16.261c0-1.223-1.525-1.714-2.564-1.834
		v-1.162h8.983v1.162c-1.222,0.244-2.567,0.49-2.567,1.895V147.714L208.403,147.714z M185.665,130.66
		c-0.183,0-1.039,0.063-2.321,0.186v9.473h3.788c2.814-0.181,3.975-1.649,3.975-5.011C191.106,131.15,188.597,130.66,185.665,130.66
		 M197.402,150.711h-5.44l-4.832-8.374h-3.848v5.319c0,0.854,0.611,1.649,2.749,1.893l0.062,1.161h-9.414v-1.222
		c0.612,0,1.163-0.124,1.712-0.367c0.551-0.245,1.104-0.858,1.104-1.531v-15.832c0-1.463-1.529-2.017-3.06-2.198v-1.162h10.696
		c3.731,0,8.256,2.508,8.256,6.788c0,2.2-0.981,5.378-4.584,6.54l3.665,6.051c0.614,0.979,1.407,1.649,2.875,1.772L197.402,150.711z
		 M155.593,139.403c-0.12,4.583,1.407,9.535,5.927,9.535c4.707,0,5.869-5.073,5.748-9.659c-0.119-4.461-0.854-9.105-5.748-9.105
		C156.446,130.173,155.656,134.878,155.593,139.403 M172.034,139.77c-0.122,5.866-4.032,11.491-10.391,11.491
		c-6.478,0-10.636-5.135-10.758-11.614c-0.12-6.051,4.036-11.736,10.695-11.736C168.062,127.909,172.156,133.719,172.034,139.77
		 M140.861,130.785v16.75c0,0.789,0.549,1.403,1.407,1.708c0.427,0.184,0.916,0.246,1.465,0.308v1.161h-9.35v-1.161
		c0.549-0.062,0.979-0.124,1.648-0.367c0.674-0.246,1.225-0.86,1.225-1.715l-0.063-16.683h-2.931c-1.772,0-2.323,0.731-2.63,1.529
		c-0.242,0.67-0.305,1.344-0.305,2.017l-1.281-0.061v-5.87h18.026v5.93h-1.342c-0.062-0.919-0.187-1.712-0.49-2.323
		c-0.429-0.856-1.101-1.222-1.956-1.222H140.861z M125.828,128.4l0.119,6.233h-1.16c-0.304-1.223-0.612-2.261-1.161-2.991
		c-0.796-1.042-1.956-1.529-3.666-1.529c-5.685,0-6.233,5.68-6.233,9.349c0,3.73,0.672,9.535,6.661,9.415
		c1.832-0.062,4.583-1.101,6.416-3.482l0.187-0.25l1.221,0.919l-0.062,0.12c-2.077,3.67-6.051,5.016-8.558,5.016
		c-7.09,0-10.694-6.3-10.694-11.555c0-4.276,2.627-11.674,9.413-11.674c2.629,0,4.584,0.611,6.234,1.467l0.243-1.04h1.041V128.4z
		 M102.295,147.714c0,0.736,0.365,1.103,1.099,1.409c0.427,0.183,1.039,0.367,1.469,0.427v1.161h-8.984v-1.161
		c0.304-0.062,1.28-0.308,1.586-0.491c0.552-0.303,0.979-0.61,0.979-1.403v-16.261c0-1.223-1.528-1.714-2.566-1.834v-1.162h8.984
		v1.162c-1.223,0.244-2.566,0.49-2.566,1.895L102.295,147.714L102.295,147.714z M81.452,145.208l5.074-13.751
		c0.306-0.918-0.124-1.589-1.772-1.834V128.4h7.576v1.223c-1.344,0.061-2.443,0.305-3.055,1.956l-7.52,19.682h-1.652l-8.372-19.804
		c-0.731-1.712-2.018-1.773-2.628-1.773v-1.283h8.742v1.223c-1.407,0.244-1.772,1.037-1.59,1.587L81.452,145.208z"/>
	<g>
		<path fill="#FFFFFF" d="M13.37,149.26c0-6.028-1.019-11.827-2.765-17.282l0.034-0.078c1.406-0.684,4.269-2.158,7.147-3.708
			c3.124-1.68,6.55-3.269,8.294-3.618c2.262-0.452,4.371,0.232,5.639,2.176c1.266-1.943,3.373-2.627,5.636-2.176
			c1.743,0.349,5.17,1.937,8.294,3.618c2.881,1.549,5.741,3.021,7.144,3.699l0.035,0.08c-1.744,5.459-2.761,11.259-2.761,17.287
			c0,5.77,1.104,11.294,2.71,16.544l-0.04,0.081c-9.603,3.556-15.44,8.019-20.961,13.772H31.68
			c-5.528-5.751-11.312-10.195-20.976-13.763l-0.039-0.082C12.269,160.555,13.37,155.03,13.37,149.26"/>
		<path fill="none" stroke="#AD1E3C" stroke-width="0.4414" stroke-miterlimit="3.864" d="M13.37,149.26
			c0-6.028-1.019-11.827-2.765-17.282l0.034-0.078c1.406-0.684,4.269-2.158,7.147-3.708c3.124-1.68,6.55-3.269,8.294-3.618
			c2.262-0.452,4.371,0.232,5.639,2.176c1.266-1.943,3.373-2.627,5.636-2.176c1.743,0.349,5.17,1.937,8.294,3.618
			c2.881,1.549,5.741,3.021,7.144,3.699l0.035,0.08c-1.744,5.459-2.761,11.259-2.761,17.287c0,5.77,1.104,11.294,2.71,16.544
			l-0.04,0.081c-9.603,3.556-15.44,8.019-20.961,13.772H31.68c-5.528-5.751-11.312-10.195-20.976-13.763l-0.039-0.082
			C12.269,160.555,13.37,155.03,13.37,149.26z"/>
		<path fill="#AD1E3C" d="M42.85,131.028c-2.419-1.204-4.921-2.353-6.268-2.623c-2.555-0.509-4.503,1.525-4.813,2.756l-0.064,0.252
			l-0.063-0.252c-0.312-1.234-2.215-3.266-4.771-2.756c-1.346,0.27-3.847,1.418-6.269,2.623c-2.376,1.185-4.666,2.415-5.687,2.907
			c1.381,4.542,2.125,9.285,2.15,14.314h3.423v-2.583h7.765v-7.763h6.788v7.763h7.764v2.583h3.583
			c0.024-5.029,0.766-9.773,2.146-14.315C47.517,133.443,45.227,132.211,42.85,131.028"/>
		<path fill="#AD1E3C" d="M31.706,174.571c4.66-4.401,10.456-8.667,16.765-10.85c-0.629-2.179-1.265-5.199-1.633-8.193
			c-0.336-2.744-0.419-5.263-0.456-5.661h-3.575v2.584h-7.761v7.765h-6.789v-7.765h-7.765v-2.583h-3.44
			c-0.114,4.632-0.896,9.741-2.092,13.853C21.266,165.903,27.046,170.172,31.706,174.571"/>
	</g>
	<g>
		<path fill="#FFFFFF" d="M147.207,161.566c0.878,0.714,1.21,1.973,1.654,3.006c1.302,3.035,2.632,6.502,4.209,9.469
			c0.178,0.522,1.323,0.08,1.201,0.902c-0.448,0.548-1.588,0.301-2.555,0.301c-0.945,0-2.078,0.118-2.706-0.151
			c-0.272-1.024,1.107-0.396,1.202-1.052c0.039-1.141-0.617-1.587-0.751-2.555c-1.655,0-3.308,0-4.961,0
			c-0.517,0.585-0.783,1.42-0.902,2.405c-0.037,0.787,1.312,0.192,1.203,1.051c-0.326,0.547-1.398,0.296-2.255,0.301
			c-0.846,0.004-1.862,0.113-2.405-0.151c-0.177-0.878,0.75-0.653,1.201-0.901c2.16-3.854,3.562-8.462,5.411-12.627
			C146.907,161.566,147.059,161.566,147.207,161.566z M144.953,170.134c1.303,0,2.604,0,3.908,0c-0.719-1.637-1.239-3.47-2.104-4.96
			C146.19,166.861,145.452,168.377,144.953,170.134z"/>
		<path fill="#FFFFFF" d="M77.467,161.716c0.646,0.349,0.364,1.437,0.45,2.255c0.085,0.795,0.444,1.729,0.151,2.255
			c-1.192,0.125-0.991-1.454-1.503-2.104c-0.767-0.976-5.192-2.455-4.51,0.902c0.361,1.773,4.658,2.828,5.862,4.51
			c0.921,1.284,0.804,3.619-0.301,4.81c-1.307,1.409-4.205,1.858-6.613,0.451c-0.78-0.127-0.232,1.071-1.054,0.903
			c-0.594-0.426-0.478-1.503-0.6-2.405c-0.112-0.82-0.394-1.784-0.151-2.405c1.02-0.137,0.957,1.043,1.353,1.654
			c1.071,1.65,4.209,2.818,5.41,0.601c0.48-3.879-5.354-3.708-6.312-6.764c-0.867-4.432,3.603-5.502,6.765-4.058
			C77.18,162.531,76.701,161.502,77.467,161.716z"/>
		<path fill="#FFFFFF" d="M117.749,161.716c0.493,0.406,0.382,1.475,0.45,2.255c0.071,0.806,0.364,1.651,0,2.255
			c-1.272-0.151-0.867-1.595-1.652-2.404c-0.939-0.967-4.218-1.636-4.36,0.601c-0.19,3.013,6.949,3.081,6.614,7.666
			c-0.229,3.115-4.392,4.597-7.817,2.705c-0.544,0.007-0.035,1.067-0.751,0.903c-0.778-0.276-0.496-1.544-0.602-2.405
			c-0.101-0.82-0.547-1.784-0.151-2.405c1.24,0.146,0.902,1.331,1.503,2.104c0.947,1.215,5.617,2.553,5.261-0.902
			c-0.221-2.154-4.216-2.889-5.562-4.358c-1.175-1.285-1.222-3.643,0-4.961c1.148-1.236,3.857-1.409,6.013-0.45
			C117.449,162.52,116.929,161.446,117.749,161.716z"/>
		<path fill="#FFFFFF" d="M130.224,161.716c0.639,0.331,0.369,1.439,0.452,2.255c0.084,0.838,0.395,1.71,0.148,2.255
			c-1.271,0.102-0.892-1.33-1.501-2.104c-0.873-1.111-5.1-2.383-4.51,0.902c0.313,1.737,4.456,2.796,5.712,4.36
			c3.016,3.755-2.696,8.249-6.764,5.41c-0.823-0.171-0.245,1.058-1.052,0.903c-0.645-0.375-0.493-1.552-0.603-2.405
			c-0.112-0.886-0.397-1.79-0.149-2.405c1.249,0.21,1.112,1.498,1.803,2.255c1.141,1.25,5.756,2.278,4.96-1.352
			c-0.423-1.932-4.654-2.655-5.861-4.51c-2.514-3.86,2.755-7.115,6.312-4.959C129.937,162.531,129.458,161.502,130.224,161.716z"/>
		<path fill="#FFFFFF" d="M85.282,162.017c0.31,1.011-0.802,0.601-1.202,0.902c0.491,3.116,1.944,5.271,2.706,8.116
			c0.862-2.235,2.65-5.053,1.353-7.666c-0.221-0.683-1.527-0.277-1.503-1.203c0.443-0.536,1.753-0.301,2.854-0.301
			c0.916,0,2.408-0.348,2.557,0.452c0.16,0.911-1.382,0.122-1.502,0.751c0.716,2.842,1.851,5.262,2.704,7.967
			c0.922-2.435,1.798-4.917,2.406-7.666c0.097-0.9-1.414-0.19-1.204-1.203c0.282-0.55,1.301-0.291,2.105-0.301
			c0.807-0.008,1.762-0.11,2.254,0.151c0.225,1.128-1.091,0.712-1.353,1.353c-1.297,3.553-2.445,7.396-3.757,10.973
			c-0.159,0.432-0.21,1.158-0.752,1.353c-0.781-0.169-0.83-1.171-1.052-1.803c-0.652-1.865-1.475-4.084-2.104-6.162
			c-0.774,1.89-1.53,4.052-2.255,6.162c-0.2,0.583-0.198,1.544-0.901,1.803c-0.668-0.061-0.725-0.927-0.903-1.353
			c-1.505-3.589-2.788-7.817-4.509-11.274c-0.32-0.28-0.958-0.244-1.202-0.601c0-0.101,0-0.201,0-0.301
			c-0.023-0.174,0.033-0.267,0.151-0.301C81.826,161.966,83.879,161.667,85.282,162.017z"/>
		<path fill="#FFFFFF" d="M106.325,162.017c0.228,1.08-1.069,0.634-1.353,1.203c-0.245,1.299-0.151,3.204-0.151,5.109
			c0,1.808-0.358,4.046,0,5.11c0.33,0.977,1.315,0.624,1.504,1.504c-0.322,0.536-1.771,0.301-2.706,0.301
			c-0.945,0-2.078,0.118-2.706-0.151c0.009-1.044,1.463-0.641,1.653-1.502c-0.095-3.362,0.194-7.108-0.15-10.221
			c-0.169-0.784-1.67-0.233-1.504-1.353C102.375,161.774,104.865,161.761,106.325,162.017z"/>
		<path fill="#FFFFFF" d="M164.945,169.833c0.549,1.555,1.645,2.563,2.255,4.059c0.37,0.48,1.396,0.307,1.502,1.051
			c-0.523,0.68-2.289,0.117-3.307,0.301c-0.931-1.676-1.859-3.351-2.857-4.961c-0.752,0-1.502,0-2.254,0
			c0.187,1.137-0.26,2.357,0,3.157c0.327,1.013,1.012,0.714,1.652,1.353c-0.083,0.781-1.781,0.452-2.705,0.452
			c-1.105,0-2.28,0.11-3.006-0.151c-0.164-0.856,1.549-0.62,1.802-1.502c0-1.413,0-3.144,0-4.961c0-1.672,0.339-3.766,0-4.81
			c-0.369-1.138-1.435-0.626-1.802-1.653c-0.024-0.174,0.032-0.267,0.15-0.301c4.528,0.024,9.791-0.639,10.973,2.707
			C168.128,166.776,166.986,169.223,164.945,169.833z M164.043,168.629c1.361-0.959,1.225-3.95,0.152-4.809
			c-0.837-0.669-2.112-0.376-3.759-0.451c0.099,1.854-0.199,4.108,0.15,5.711C161.764,168.794,162.924,169.418,164.043,168.629z"/>
		<path fill="#FFFFFF" d="M171.258,161.866c1.354,0,2.705,0,4.058,0c1.354,3.107,2.842,6.079,4.059,9.319
			c0.75-0.52,0.846-1.458,1.202-2.255c0.997-2.231,2.24-4.635,3.155-7.065c1.356,0.1,3.105-0.198,4.21,0.151
			c0.167,1.118-1.232,0.672-1.503,1.353c0.1,3.509-0.197,7.413,0.15,10.671c0.07,0.632,1.283,0.12,1.354,0.751
			c-0.066,0.782-1.661,0.452-2.556,0.452c-1.044,0-2.195,0.113-2.857-0.151c-0.196-0.998,1.105-0.498,1.354-1.052
			c0.334-2.624,0.063-5.849,0.15-8.718c-1.766,3.145-3.021,6.799-4.809,9.921c-0.999-0.264-0.997-1.497-1.354-2.255
			c-1.071-2.286-2.479-4.852-3.456-7.365c-0.258,2.364-0.238,5.75,0,8.116c0.111,0.741,1.248,0.456,1.504,1.051
			c-0.091,0.792-1.432,0.448-2.257,0.453c-0.96,0.005-1.973,0.108-2.554-0.151c-0.041-1.042,1.36-0.644,1.503-1.503
			c0-3.407,0-6.813,0-10.22c-0.064-0.688-1.22-0.285-1.354-0.902C171.258,162.268,171.258,162.066,171.258,161.866z"/>
		<path fill="#FFFFFF" d="M189.896,161.866c1.868,0.186,4.488-0.379,5.863,0.301c0.307,1.06-1.281,0.224-1.354,0.902
			c0.235,1.629,1.985,3.019,2.705,4.661c0.969-1.539,2.235-2.776,2.855-4.661c-0.108-0.59-1.537,0.133-1.202-0.902
			c0.328-0.546,1.399-0.295,2.255-0.301c0.847-0.005,1.864-0.113,2.406,0.151c0.292,0.995-0.716,0.688-1.054,1.051
			c-1.871,1.687-2.919,4.196-4.508,6.162c0.032,1.52-0.105,3.212,0.15,4.51c0.122,0.829,1.588,0.317,1.804,1.051
			c0.122,0.73-0.853,0.427-1.353,0.452c-0.998,0.049-2.151,0.038-3.308,0c-0.442-0.014-1.302,0.238-1.354-0.301
			c-0.042-0.792,1.059-0.444,1.504-0.751c0.233-1.503,0.596-3.185,0.301-4.51c-0.238-1.058-1.415-2.273-2.104-3.308
			c-0.797-1.192-1.646-2.19-2.255-3.155c-0.374-0.278-0.939-0.363-1.354-0.602C189.896,162.368,189.896,162.116,189.896,161.866z"/>
	</g>
</g>
<g>
	<path fill="#FFFFFF" d="M241.493,470.675l5.211,7.814c0.497,0.773,1.11,1.274,1.662,1.605c0.279,0.168,0.998,0.556,1.498,0.556
		v1.052h-8.646v-1.052c0.056,0,0.829-0.113,1.327-0.332c0.497-0.224,0.664-0.835,0.222-1.386l-3.49-5.266l-3.989,5.374
		c-0.722,0.83-0.111,1.495,0.887,1.608v1.052h-6.43v-1.107c1.493-0.224,2.05-0.832,2.715-1.72l5.43-7.315l-4.817-7.146
		c-0.778-1.165-1.994-1.886-3.161-1.886v-1.054h8.815v1.054c-0.999,0.109-2.44,0.444-1.719,1.608l3.048,4.543l3.436-4.543
		c0.722-0.888,0.164-1.554-0.945-1.608v-1.054h6.487v1.054c-1.053,0.056-1.607,0.5-2.219,1.109L241.493,470.675 M212.512,471.395
		c-0.055,4.156,1.275,8.646,5.431,8.646c4.213,0,5.32-4.602,5.211-8.758c-0.113-4.043-0.832-8.254-5.211-8.254
		C213.345,462.972,212.567,467.293,212.512,471.395 M227.473,471.727c-0.113,5.318-3.654,10.421-9.475,10.421
		c-5.818,0-9.644-4.657-9.756-10.531c-0.054-5.485,3.715-10.639,9.7-10.639C223.876,460.977,227.584,466.241,227.473,471.727
		 M202.256,481.702h-0.773l-12.801-14.906v12.138c0,0.496,0.334,0.938,0.887,1.329c0.551,0.332,0.999,0.332,1.495,0.388v1.052
		h-6.816v-1.052c0.334-0.056,0.776-0.113,1.166-0.279c0.664-0.223,1.164-0.719,1.164-1.438v-14.466c-0.5-1-1.607-1.94-2.882-1.94
		v-1.054h5.26l11.142,13.246v-10.474c0-1.108-1.332-1.719-2.326-1.719v-1.053h6.866v1.053c-1.16,0.11-2.382,0.445-2.382,1.664
		L202.256,481.702L202.256,481.702z M176.433,478.985c0,0.667,0.335,0.999,0.998,1.277c0.386,0.166,0.942,0.332,1.33,0.388v1.052
		h-8.146v-1.052c0.277-0.056,1.162-0.279,1.44-0.445c0.5-0.274,0.885-0.553,0.885-1.272v-14.743c0-1.108-1.383-1.554-2.325-1.663
		v-1.054h8.146v1.054c-1.107,0.222-2.328,0.444-2.328,1.718V478.985L176.433,478.985z M155.817,463.522
		c-0.166,0-0.942,0.058-2.104,0.169v8.589h3.435c2.551-0.164,3.604-1.495,3.604-4.543
		C160.751,463.968,158.476,463.522,155.817,463.522 M166.459,481.702h-4.933l-4.381-7.592h-3.489v4.822
		c0,0.774,0.555,1.495,2.492,1.717l0.058,1.052h-8.535v-1.107c0.554,0,1.054-0.112,1.552-0.333c0.499-0.222,1-0.777,1-1.389v-14.354
		c0-1.326-1.387-1.828-2.773-1.993v-1.054h9.698c3.383,0,7.484,2.274,7.484,6.154c0,1.994-0.89,4.876-4.156,5.929l3.323,5.486
		c0.557,0.888,1.275,1.495,2.607,1.606L166.459,481.702z M128.552,471.45c-0.109,4.155,1.276,8.645,5.374,8.645
		c4.267,0,5.32-4.6,5.21-8.758c-0.108-4.044-0.773-8.255-5.21-8.255C129.326,463.082,128.609,467.348,128.552,471.45
		 M143.459,471.782c-0.111,5.318-3.656,10.419-9.42,10.419c-5.874,0-9.644-4.655-9.754-10.53
		c-0.108-5.486,3.659-10.641,9.697-10.641C139.857,461.029,143.57,466.296,143.459,471.782 M115.195,463.637v15.187
		c0,0.715,0.497,1.271,1.276,1.548c0.387,0.166,0.831,0.224,1.328,0.279v1.052h-8.478v-1.052c0.498-0.056,0.888-0.113,1.495-0.332
		c0.611-0.224,1.111-0.78,1.111-1.557l-0.058-15.125h-2.656c-1.608,0-2.107,0.663-2.385,1.386c-0.22,0.608-0.277,1.219-0.277,1.828
		l-1.162-0.055v-5.322h16.344v5.377h-1.216c-0.057-0.834-0.17-1.554-0.445-2.106c-0.389-0.775-0.998-1.107-1.773-1.107H115.195z
		 M101.565,461.474l0.108,5.651h-1.052c-0.275-1.108-0.555-2.05-1.053-2.712c-0.722-0.945-1.773-1.386-3.324-1.386
		c-5.154,0-5.651,5.149-5.651,8.476c0,3.382,0.608,8.646,6.039,8.536c1.661-0.057,4.156-0.998,5.817-3.157l0.168-0.227l1.107,0.834
		l-0.057,0.107c-1.883,3.328-5.486,4.549-7.759,4.549c-6.428,0-9.697-5.712-9.697-10.477c0-3.877,2.382-10.584,8.535-10.584
		c2.383,0,4.156,0.554,5.652,1.33l0.221-0.943h0.944V461.474z M80.229,478.985c0,0.667,0.331,0.999,0.996,1.277
		c0.387,0.166,0.942,0.332,1.331,0.388v1.052h-8.146v-1.052c0.275-0.056,1.161-0.279,1.438-0.445c0.5-0.274,0.888-0.553,0.888-1.272
		v-14.743c0-1.108-1.386-1.554-2.327-1.663v-1.054h8.146v1.054c-1.109,0.222-2.328,0.444-2.328,1.718L80.229,478.985L80.229,478.985
		z M61.332,476.714l4.601-12.468c0.276-0.832-0.112-1.44-1.607-1.663v-1.109h6.869v1.109c-1.218,0.055-2.215,0.276-2.77,1.773
		l-6.817,17.845h-1.499l-7.589-17.955c-0.664-1.553-1.83-1.608-2.383-1.608v-1.163h7.926v1.109c-1.275,0.222-1.607,0.94-1.441,1.439
		L61.332,476.714z"/>
	<g>
		<path fill="#FFFFFF" d="M133.365,418.772c0-5.465-0.924-10.724-2.506-15.669l0.032-0.07c1.274-0.62,3.869-1.957,6.48-3.361
			c2.832-1.523,5.938-2.964,7.519-3.28c2.051-0.41,3.963,0.21,5.112,1.972c1.148-1.762,3.059-2.381,5.109-1.972
			c1.582,0.315,4.688,1.756,7.52,3.28c2.611,1.405,5.205,2.739,6.477,3.354l0.033,0.073c-1.58,4.949-2.504,10.208-2.504,15.673
			c0,5.231,1.002,10.24,2.457,15l-0.035,0.073c-8.707,3.225-14,7.271-19.005,12.487h-0.088c-5.012-5.215-10.256-9.244-19.016-12.479
			l-0.037-0.074C132.367,429.012,133.365,424.004,133.365,418.772"/>
		<path fill="none" stroke="#AD1E3C" stroke-width="0.4002" stroke-miterlimit="3.864" d="M133.365,418.772
			c0-5.465-0.924-10.724-2.506-15.669l0.032-0.07c1.274-0.62,3.869-1.957,6.48-3.361c2.832-1.523,5.938-2.964,7.519-3.28
			c2.051-0.41,3.963,0.21,5.112,1.972c1.148-1.762,3.059-2.381,5.109-1.972c1.582,0.315,4.688,1.756,7.52,3.28
			c2.611,1.405,5.205,2.739,6.477,3.354l0.033,0.073c-1.58,4.949-2.504,10.208-2.504,15.673c0,5.231,1.002,10.24,2.457,15
			l-0.035,0.073c-8.707,3.225-14,7.271-19.005,12.487h-0.088c-5.012-5.215-10.256-9.244-19.016-12.479l-0.037-0.074
			C132.367,429.012,133.365,424.004,133.365,418.772z"/>
		<path fill="#AD1E3C" d="M160.092,402.242c-2.191-1.091-4.461-2.133-5.682-2.377c-2.314-0.462-4.082,1.383-4.364,2.498
			l-0.059,0.229l-0.057-0.229c-0.283-1.119-2.008-2.961-4.325-2.498c-1.22,0.244-3.488,1.285-5.683,2.377
			c-2.154,1.074-4.231,2.189-5.155,2.635c1.251,4.118,1.926,8.419,1.95,12.978h3.103v-2.342h7.04v-7.038h6.154v7.038h7.039v2.342
			h3.248c0.023-4.559,0.695-8.86,1.945-12.979C164.324,404.431,162.25,403.314,160.092,402.242"/>
		<path fill="#AD1E3C" d="M149.99,441.72c4.225-3.989,9.481-7.857,15.2-9.837c-0.57-1.975-1.148-4.714-1.48-7.429
			c-0.305-2.488-0.379-4.771-0.412-5.133h-3.242v2.344h-7.037v7.039h-6.155v-7.039h-7.04v-2.342h-3.119
			c-0.104,4.2-0.812,8.832-1.897,12.56C140.524,433.862,145.765,437.732,149.99,441.72"/>
	</g>
	<g>
		<path fill="#FFFFFF" d="M159.897,491.545c0.796,0.647,1.097,1.789,1.5,2.726c1.18,2.751,2.387,5.896,3.815,8.585
			c0.162,0.475,1.199,0.073,1.089,0.817c-0.405,0.497-1.438,0.273-2.316,0.273c-0.856,0-1.884,0.106-2.452-0.137
			c-0.248-0.929,1.003-0.359,1.089-0.954c0.036-1.035-0.56-1.439-0.68-2.316c-1.501,0-3,0-4.499,0
			c-0.469,0.53-0.71,1.288-0.818,2.181c-0.033,0.713,1.189,0.175,1.092,0.952c-0.296,0.497-1.269,0.269-2.045,0.273
			c-0.767,0.004-1.689,0.103-2.181-0.137c-0.161-0.797,0.68-0.592,1.09-0.817c1.958-3.495,3.229-7.672,4.905-11.448
			C159.625,491.545,159.763,491.545,159.897,491.545z M157.854,499.312c1.181,0,2.361,0,3.544,0
			c-0.652-1.483-1.124-3.146-1.907-4.497C158.976,496.345,158.307,497.72,157.854,499.312z"/>
		<path fill="#FFFFFF" d="M96.667,491.681c0.586,0.316,0.331,1.303,0.409,2.045c0.076,0.721,0.403,1.565,0.136,2.044
			c-1.08,0.113-0.898-1.318-1.362-1.908c-0.695-0.885-4.708-2.227-4.089,0.817c0.328,1.608,4.224,2.563,5.315,4.089
			c0.834,1.164,0.729,3.281-0.272,4.361c-1.185,1.277-3.813,1.685-5.997,0.408c-0.707-0.115-0.211,0.972-0.955,0.818
			c-0.539-0.386-0.433-1.362-0.544-2.18c-0.102-0.744-0.356-1.618-0.137-2.181c0.924-0.125,0.868,0.945,1.226,1.499
			c0.972,1.496,3.816,2.555,4.906,0.546c0.435-3.519-4.854-3.363-5.724-6.133c-0.787-4.019,3.267-4.989,6.133-3.679
			C96.406,492.42,95.973,491.487,96.667,491.681z"/>
		<path fill="#FFFFFF" d="M133.189,491.681c0.447,0.367,0.347,1.338,0.409,2.045c0.064,0.73,0.33,1.496,0,2.044
			c-1.153-0.137-0.787-1.446-1.499-2.181c-0.852-0.876-3.825-1.483-3.954,0.545c-0.172,2.732,6.3,2.793,5.997,6.951
			c-0.207,2.823-3.981,4.167-7.087,2.451c-0.494,0.007-0.032,0.968-0.681,0.819c-0.706-0.251-0.45-1.401-0.546-2.181
			c-0.09-0.744-0.495-1.618-0.137-2.181c1.124,0.132,0.818,1.207,1.363,1.907c0.858,1.102,5.092,2.314,4.77-0.816
			c-0.2-1.953-3.823-2.621-5.042-3.953c-1.066-1.164-1.108-3.302,0-4.497c1.041-1.122,3.497-1.278,5.451-0.409
			C132.917,492.409,132.445,491.436,133.189,491.681z"/>
		<path fill="#FFFFFF" d="M144.499,491.681c0.58,0.299,0.335,1.305,0.41,2.045c0.076,0.759,0.358,1.55,0.135,2.044
			c-1.152,0.092-0.809-1.205-1.361-1.908c-0.792-1.008-4.624-2.161-4.089,0.817c0.284,1.575,4.04,2.534,5.179,3.952
			c2.734,3.405-2.444,7.479-6.132,4.905c-0.746-0.155-0.223,0.959-0.954,0.819c-0.584-0.34-0.446-1.407-0.546-2.181
			c-0.102-0.804-0.36-1.624-0.136-2.181c1.133,0.19,1.009,1.357,1.635,2.044c1.034,1.133,5.218,2.065,4.497-1.226
			c-0.383-1.752-4.22-2.407-5.313-4.089c-2.28-3.5,2.498-6.451,5.723-4.497C144.239,492.42,143.805,491.487,144.499,491.681z"/>
		<path fill="#FFFFFF" d="M103.753,491.953c0.281,0.917-0.727,0.545-1.09,0.817c0.445,2.825,1.763,4.779,2.453,7.358
			c0.782-2.025,2.403-4.581,1.227-6.949c-0.2-0.619-1.385-0.251-1.363-1.091c0.402-0.485,1.59-0.272,2.589-0.272
			c0.83,0,2.184-0.315,2.317,0.408c0.146,0.826-1.252,0.11-1.362,0.682c0.649,2.576,1.678,4.771,2.452,7.223
			c0.835-2.208,1.63-4.457,2.182-6.949c0.087-0.816-1.282-0.173-1.091-1.091c0.256-0.499,1.179-0.264,1.908-0.272
			c0.731-0.008,1.597-0.101,2.044,0.137c0.204,1.022-0.989,0.646-1.226,1.227c-1.176,3.222-2.217,6.705-3.407,9.948
			c-0.145,0.392-0.19,1.05-0.682,1.227c-0.708-0.153-0.753-1.062-0.953-1.635c-0.592-1.691-1.338-3.703-1.908-5.588
			c-0.702,1.715-1.388,3.675-2.044,5.588c-0.182,0.528-0.179,1.4-0.817,1.635c-0.605-0.057-0.656-0.842-0.818-1.227
			c-1.365-3.254-2.528-7.088-4.088-10.222c-0.29-0.255-0.868-0.222-1.09-0.544c0-0.092,0-0.183,0-0.273
			c-0.021-0.158,0.03-0.242,0.137-0.272C100.62,491.907,102.48,491.636,103.753,491.953z"/>
		<path fill="#FFFFFF" d="M122.832,491.953c0.207,0.979-0.97,0.574-1.227,1.09c-0.223,1.179-0.137,2.906-0.137,4.634
			c0,1.639-0.326,3.668,0,4.633c0.299,0.885,1.192,0.564,1.363,1.362c-0.293,0.486-1.607,0.273-2.454,0.273
			c-0.857,0-1.883,0.106-2.453-0.137c0.007-0.947,1.326-0.581,1.499-1.363c-0.086-3.048,0.176-6.444-0.137-9.266
			c-0.152-0.711-1.514-0.212-1.363-1.227C119.25,491.733,121.508,491.722,122.832,491.953z"/>
		<path fill="#FFFFFF" d="M175.979,499.04c0.498,1.409,1.492,2.324,2.045,3.68c0.336,0.435,1.266,0.278,1.362,0.952
			c-0.474,0.617-2.075,0.106-2.998,0.273c-0.844-1.52-1.686-3.038-2.592-4.498c-0.681,0-1.36,0-2.043,0
			c0.17,1.03-0.234,2.137,0,2.862c0.297,0.918,0.918,0.646,1.498,1.226c-0.075,0.708-1.614,0.41-2.452,0.41
			c-1.002,0-2.068,0.1-2.726-0.137c-0.148-0.777,1.404-0.562,1.635-1.363c0-1.279,0-2.85,0-4.498c0-1.517,0.307-3.414,0-4.36
			c-0.335-1.031-1.302-0.568-1.635-1.499c-0.022-0.157,0.029-0.242,0.137-0.273c4.105,0.023,8.878-0.578,9.948,2.454
			C178.865,496.268,177.83,498.486,175.979,499.04z M175.162,497.948c1.234-0.869,1.109-3.581,0.137-4.36
			c-0.758-0.605-1.915-0.341-3.407-0.408c0.089,1.681-0.181,3.724,0.136,5.178C173.096,498.098,174.146,498.663,175.162,497.948z"/>
		<path fill="#FFFFFF" d="M181.702,491.817c1.228,0,2.454,0,3.68,0c1.228,2.816,2.576,5.511,3.679,8.448
			c0.682-0.471,0.768-1.322,1.092-2.044c0.902-2.024,2.029-4.202,2.859-6.405c1.229,0.09,2.816-0.181,3.817,0.137
			c0.151,1.013-1.117,0.609-1.363,1.227c0.091,3.182-0.179,6.721,0.138,9.675c0.063,0.572,1.163,0.108,1.228,0.681
			c-0.06,0.709-1.506,0.41-2.317,0.41c-0.947,0-1.99,0.103-2.59-0.137c-0.178-0.904,1.002-0.452,1.227-0.954
			c0.303-2.38,0.057-5.304,0.136-7.904c-1.601,2.851-2.739,6.163-4.36,8.994c-0.904-0.239-0.903-1.356-1.227-2.044
			c-0.972-2.072-2.248-4.399-3.134-6.678c-0.234,2.143-0.216,5.214,0,7.358c0.101,0.672,1.131,0.414,1.363,0.954
			c-0.083,0.717-1.298,0.404-2.046,0.409c-0.87,0.005-1.788,0.098-2.315-0.137c-0.037-0.945,1.233-0.584,1.362-1.363
			c0-3.088,0-6.178,0-9.266c-0.059-0.623-1.105-0.259-1.228-0.817C181.702,492.181,181.702,491.998,181.702,491.817z"/>
		<path fill="#FFFFFF" d="M198.602,491.817c1.694,0.168,4.069-0.345,5.315,0.272c0.279,0.96-1.161,0.202-1.227,0.817
			c0.213,1.477,1.801,2.736,2.453,4.225c0.878-1.395,2.026-2.517,2.588-4.225c-0.098-0.536-1.394,0.121-1.089-0.817
			c0.296-0.495,1.268-0.269,2.044-0.272c0.768-0.005,1.689-0.104,2.182,0.137c0.265,0.901-0.649,0.623-0.955,0.953
			c-1.696,1.529-2.647,3.804-4.087,5.587c0.028,1.378-0.097,2.912,0.136,4.089c0.11,0.751,1.439,0.287,1.636,0.953
			c0.109,0.662-0.773,0.388-1.226,0.41c-0.906,0.044-1.951,0.034-3,0c-0.401-0.013-1.18,0.216-1.227-0.272
			c-0.038-0.719,0.959-0.403,1.362-0.682c0.213-1.363,0.541-2.888,0.273-4.089c-0.216-0.958-1.283-2.061-1.908-2.998
			c-0.723-1.082-1.491-1.987-2.045-2.862c-0.339-0.251-0.851-0.328-1.227-0.545C198.602,492.271,198.602,492.044,198.602,491.817z"
			/>
	</g>
</g>
</svg>
