<?xml version="1.0" encoding="utf-8"?>
<!-- Generator: Adobe Illustrator 15.0.0, SVG Export Plug-In . SVG Version: 6.00 Build 0)  -->
<!DOCTYPE svg PUBLIC "-//W3C//DTD SVG 1.1//EN" "http://www.w3.org/Graphics/SVG/1.1/DTD/svg11.dtd">
<svg version="1.1" id="Layer_1" xmlns="http://www.w3.org/2000/svg" xmlns:xlink="http://www.w3.org/1999/xlink" x="0px" y="0px"
	 width="30px" height="30px" viewBox="0 0 30 30" enable-background="new 0 0 30 30" xml:space="preserve">
<path fill="#1A1A1A" d="M22.376,9.02c0,0-1.538,0.136-2.618,0.342c-0.605-0.541-1.418-0.848-2.286-0.785
	c-1.707,0.124-2.99,1.604-2.865,3.312c0.016,0.219,0.051,0.435,0.112,0.638c-4.631,0.053-6.646-2.68-6.646-2.68
	c-2.074,5.919,3.965,8.836,3.965,8.836s-1.427,1.861-4.413,1.674c0,0,6.617,3.358,10.955-1.799c2.542-3.027,2.655-5.502,2.275-7.081
	C21.596,10.951,22.376,9.02,22.376,9.02L22.376,9.02z"/>
<g>
	<g>
		<g>
			<path fill="#1A1A1A" d="M27.123,3v24H2.877V3H27.123 M30.123,0H-0.123v30h30.246V0L30.123,0z"/>
		</g>
	</g>
</g>
</svg>
