<?xml version="1.0" encoding="utf-8"?>
<!-- Generator: Adobe Illustrator 18.1.0, SVG Export Plug-In . SVG Version: 6.00 Build 0)  -->
<svg version="1.1" id="Layer_1" xmlns="http://www.w3.org/2000/svg" xmlns:xlink="http://www.w3.org/1999/xlink" x="0px" y="0px"
	 width="300px" height="1200px" viewBox="-489 -200 300 1200" enable-background="new -489 -200 300 1200" xml:space="preserve">
<rect x="-48.6" y="-199.4" fill="none" stroke="#70706E" stroke-width="0.7484" stroke-miterlimit="10" width="299.4" height="299.4"/>
<rect x="-48.6" y="100.5" fill="none" stroke="#70706E" stroke-width="0.7484" stroke-miterlimit="10" width="299.4" height="299.4"/>
<rect x="-48.6" y="399.6" fill="none" stroke="#70706E" stroke-width="0.7484" stroke-miterlimit="10" width="299.4" height="299.4"/>
<rect x="-48.6" y="700" fill="none" stroke="#70706E" stroke-width="0.7484" stroke-miterlimit="10" width="299.4" height="299.4"/>
<g>
	<path fill="#231F20" d="M-308.1,524.7c1-5-2.8-8.9-7.3-11.8c-6.3-4-13.4-6.4-20.8-8.2l0,0v66.1l0,0c3.3-2.4,6.5-5.2,9.6-8
		c6.6-6.3,12.8-12.8,15.4-20.5c1-3.5,0.5-7.5-3-9.9C-311.2,530.3-308.5,527.8-308.1,524.7L-308.1,524.7L-308.1,524.7L-308.1,524.7z
		 M-320.8,547.5c-2.3,3.6-5.4,6.9-9.1,9.9l0,0l-0.1-18.9l0,0c2.5-1.6,5-2.9,8.2-3.2c1.2,0,2.4,0.4,3.2,1.2
		C-315.8,540.3-319,544.3-320.8,547.5L-320.8,547.5L-320.8,547.5L-320.8,547.5z M-314.5,523.2c-0.6,3-4.4,4.7-7.1,6
		c-2.7,1.2-5.5,2.1-8.3,3l0,0v-19.3l0,0c4.4,1.1,8.3,3,12,5.3C-316.1,519.4-313.8,521-314.5,523.2L-314.5,523.2L-314.5,523.2
		L-314.5,523.2z"/>
	<path fill="#231F20" d="M-341.9,570.3v-65.9l-6.2,2.7v35.3l0,0c-0.3,1,0.6,2.6-0.8,3c-0.3,0.1-0.6-0.1-0.8-0.3
		c-2.6-8.5-3.7-17.5-4.2-26.8l0,0l-0.2-8.1l-5.9,3.8v2.1l0,0c0.3,8.5,1,16.9,2.9,24.9l0,0l-2.4,2.3l0,0c-0.9-1.1-1.5-2.2-2.1-3.3
		c-3-6.8-4.1-14.3-4.5-22l0,0l-5.1,3.3l0,0c0.5,11.7,3,22.7,11.3,31.5c1.6-1.6,3.2-3.2,4.8-4.7c0.8,3.2,2,6.2,3.4,9.2
		C-349.3,562-346.7,566.7-341.9,570.3L-341.9,570.3z"/>
	<path fill="#231F20" d="M-294.8,513.1l-9.2-2l-1.7-5.4l-9.4-1.9l-1.9-5.8l-22.2-4.4L-361,498l-1.9,5.8l-9.4,1.9l0,0
		c-0.6,1.8-1.2,3.6-1.7,5.4l0,0l-9.2,1.9l0,0c-0.7,16.9,4.7,31.7,14.5,45c7.1,9.5,17.8,19.5,29.6,24.5c8-3.3,15-8.8,21.4-14.9
		C-302.4,552.2-293.9,534.2-294.8,513.1L-294.8,513.1L-294.8,513.1L-294.8,513.1z M-321.9,564.1c-5,4.9-10.7,9.7-17.1,12.5
		c-6.1-2.6-11.4-7.2-16.3-11.8c-12.6-12.7-21-26.9-22.3-43.6c-0.1-1.4-0.2-2.7-0.1-4.1l0,0l7.8-1.6l1.8-5.5l9.6-2l0.1-0.2l1.7-5.7
		l17.4-3.5l18,3.5l1.7,5.8l9.8,2l1.7,5.5l7.9,1.6l0,0C-300.4,535.4-308.8,550.6-321.9,564.1L-321.9,564.1L-321.9,564.1L-321.9,564.1
		z"/>
</g>
<g>
	<path fill="#231F20" d="M-356.1,206.4c0-1,0-1.2-0.9-1.2c-1.6,0-7.7,1.6-8.2,2.7c-0.6,1.1-0.6,7.1-0.5,9.3v0.8c0,1.7,0,3.4,0.1,5.1
		c2.9-0.4,6-0.7,9.7-1c-0.2-4-0.2-8.1-0.2-12C-356.1,208.8-356.1,207.6-356.1,206.4z"/>
	<path fill="#231F20" d="M-336.1,242.1c-0.2,0.4-0.3,2.1-0.1,5c0,0.4,0,0.7,0,0.9c0,6.2,0,12.4-0.1,18.5c0,6.1-0.1,12.4-0.1,18.5
		c0,0.2,0,0.4,0,0.7c-0.1,1.1-0.2,3.3,0.4,4c0.1,0.1,0.2,0.2,0.4,0.2c0.4,0,0.8-0.3,1.2-0.5c0.1-0.1,0.2-0.1,0.3-0.2
		c22.4-13.4,29.2-29.5,31.1-35.8c0.4-1,0.6-2.1,0.6-3.5c0-1.1-0.2-3-0.8-3.5C-305.1,244.7-331.6,242.2-336.1,242.1z M-326.3,273
		l-0.7,0.7v-1c0.1-2.2,0.1-4.3,0.2-6.5c0.2-5.4,0.4-10.5,0.2-15.7v-0.7c0.5-1.9,5.6-3.4,7-3.4c4.3,0,6.7,2.2,6.7,6.1
		C-312.8,259.8-321.9,268.7-326.3,273z"/>
	<path fill="#231F20" d="M-333.5,221.7c2.3,0.1,4.7,0.1,7,0.3c0-1.5,0.1-2.9,0.1-4.4s0.1-3.1,0.1-4.6c0-0.6,0.3-1,0.8-1
		c1.2,0,3,0.5,5.6,1.5c3.7,1.5,11.4,4.6,12,10.4c3.1,0.4,6.4,1,10.4,2c0.2-0.7,0.3-1.4,0.3-2.2c0-2.4-0.9-5-2.4-6.7
		c-5.6-6.8-26.3-15-35.1-15c-1,0-1.2,0.2-1.3,1.1c-0.1,2.8-0.1,5.8,0,8.7c0,1.5,0,2.9,0,4.3v5.5
		C-335.2,221.6-334.4,221.7-333.5,221.7z"/>
	<path fill="#231F20" d="M-351.1,242.4v2.7c0,0.8,0,1.6,0,2.4c0,2.7,0.1,5.5-0.4,8.1l-0.1,0.9l-0.5-0.7c-0.8-1-2.4-11.3-2.7-13.1
		l-0.6-0.1c-2.5,0-5.2,0.4-7.7,0.8c-0.4,0.1-0.8,0.1-1.2,0.2c0,0.2,0,0.4,0.1,0.6c0,0.3,0.1,0.6,0.1,1c0,1.2-1.1,3.1-2.4,3.1
		c-1.1,0-1.9-2.8-2.2-4.1c-3.1,0.5-6,1.1-8.7,2c1.9,6.2,6.6,18.3,9.8,18.3c1.4,0,2.4-2.2,3.2-4.1c0.6-1.3,1.1-2.5,1.8-3.1l0.3-0.3
		l0.3,0.4c0.7,1,2.5,5.4,4.3,9.9c0.3,0.8,0.6,1.5,0.8,1.9c3.2,7.3,6.7,12.8,11.2,17.9c0.1,0.1,0.3,0.3,0.5,0.5
		c0.8,0.9,2.2,2.3,3.1,2.3c0.2,0,0.6-1.3,0.6-2.6c0-7.5,0-15.2,0.1-22.7c0-7.4,0.1-15,0.1-22.6c-0.6,0-1.1,0-1.7-0.1
		C-346.1,241.9-348.7,242.1-351.1,242.4z"/>
	<path fill="#231F20" d="M-350.3,203.6c-0.3,0.8-0.2,11.1-0.2,14.4v3.7c1.5,0,3,0,4.5-0.1c1.5,0,3.1-0.1,4.6-0.1
		c0.1-0.4,0.1-0.9,0.1-1.2c0-2.8,0-5.7,0.1-8.4c0-2.8,0.1-5.6,0.1-8.4c0-1.1-0.2-1.4-1.2-1.4C-344.8,202.1-349.7,202.6-350.3,203.6z
		"/>
	<path fill="#231F20" d="M-372,215.8c0-2.7-0.6-3.1-0.9-3.1c-1.9,0-6.2,2.3-7.3,3.9c-0.3,0.5-0.5,1.9-0.5,4.2c0,1.6,0.1,3.1,0.2,4.8
		c1.2-0.3,2.5-0.5,3.7-0.7c1.6-0.3,3.2-0.6,4.8-1c-0.1-1.8,0-3.5,0-5.3C-372,217.7-372,216.7-372,215.8z"/>
	<path fill="#231F20" d="M-387.5,227.4c-0.1-1.6-0.2-3.3-0.3-4.9c-0.2-2.4-0.3-4.6-0.3-6.9c0-1.3,0-2.7,0.5-3.3
		c0.6-1.1,3.3-1.4,7.2-1.6c1.5-0.1,2.9-0.2,3.6-0.3c0.6-0.2,0.8-1.2,1-2.3c0.2-1.3,0.5-2.8,1.6-3.3c0.9-0.3,1.9-0.3,2.7-0.3h0.8
		c0.2,0,0.5,0,0.8,0s0.6,0,1,0c1.3,0,2.9,0,3.9-0.4c1.1-0.4,1.4-1.6,1.7-2.9c0.3-1.3,0.6-2.7,1.9-3.4c2.1-1.1,20.2-3.4,23-3.4
		c2.6,0,20.1,2.5,22.4,3.4c1.4,0.6,1.7,2.2,2.1,3.7c0.2,0.9,0.4,1.7,0.7,2.2c0.6,0.9,3.4,0.9,5.6,1c2.1,0,3.9,0.1,4.7,0.7
		c0.8,0.5,1,1.8,1.2,3c0.2,1,0.4,2.2,0.9,2.4c0.7,0.3,2.5,0.3,4.2,0.4c3.1,0.1,6,0.1,6.7,1.4c0.3,0.7,0.3,1.7,0.3,2.4
		c0,3.9-0.3,8-0.6,11.8l-0.1,1.2c2.9,0.9,5.8,2,9,3.4c0.6-3.8,0.9-8,0.9-12.2c0-10.6-0.5-12.2-0.7-12.4c-0.5-0.8-4.1-1.1-6.7-1.3
		c-2.1-0.2-3.9-0.3-4.8-0.7c-1.4-0.5-1.6-1.7-1.7-2.8c-0.1-0.9-0.3-1.7-1-2.1c-1.3-0.6-2.8-0.7-4.5-0.8c-1.5-0.1-3.1-0.2-4.5-0.8
		c-1.6-0.6-2-2.1-2.3-3.5c-0.3-1.2-0.6-2.3-1.6-2.8c-1.4-0.9-27.1-4.7-29.6-4.7c-3.4,0-30.3,3.6-31.7,4.7c-0.8,0.5-1.1,1.6-1.4,2.7
		c-0.3,1.2-0.6,2.4-1.6,3c-1.3,0.8-3.3,1-5.2,1.1c-1.8,0.1-3.7,0.3-4.8,1c-0.5,0.4-0.6,1.2-0.7,2.1c-0.1,1.1-0.3,2.4-1.6,2.8
		c-0.7,0.2-2.2,0.3-3.9,0.4c-2.9,0.2-7.2,0.5-7.8,1.5c-0.1,0.2-0.5,1.6-0.5,9.9c0,4.2,0.1,9.1,0.6,14.3
		C-393.2,229.3-390.4,228.3-387.5,227.4z"/>
	<path fill="#231F20" d="M-294.2,235.2c0-0.9,0-1.6-0.9-1.9v3.4c0,0,0.2,0,0.3,0C-294.2,236.6-294.2,235.5-294.2,235.2z"/>
	<path fill="#231F20" d="M-321,230.2c0-0.6,0-1.9-0.8-2.1v4.1h0.1C-321,232.2-321,230.5-321,230.2z"/>
	<path fill="#231F20" d="M-360.7,230c0-0.4,0-1.6-0.6-1.6l-0.3,0.1v3.2C-360.7,231.6-360.7,230.8-360.7,230z"/>
	<path fill="#231F20" d="M-344.8,228.9c0-0.4,0-1.6-0.6-1.5h-0.3v3.2C-344.7,230.6-344.8,229.6-344.8,228.9z"/>
	<path fill="#231F20" d="M-351.1,229c0-0.4,0-1.5-0.6-1.5h-0.2v3.3C-351.1,230.8-351.1,229.6-351.1,229z"/>
	<path fill="#231F20" d="M-351,234.1c0-0.6,0-1.9-0.7-1.9l-0.2,0.2v3.7C-351,235.9-351,234.9-351,234.1z"/>
	<path fill="#231F20" d="M-338.8,235.9c0.9,0,0.7-3.4,0.7-3.9v-1.3c0-0.6,0.2-4-0.7-4c-0.9,0-0.9,3.3-0.9,3.8v1.5
		C-339.7,232.5-339.7,235.9-338.8,235.9z"/>
	<polygon fill="#231F20" points="-386.5,236.2 -387.1,240 -385.8,239.6 	"/>
	<path fill="#231F20" d="M-379,233.6c0-0.3,0-1.3-0.4-1.3c-0.2,0-0.3,0-0.4,0v3.4C-379,235.3-379,234.5-379,233.6z"/>
	<path fill="#231F20" d="M-278.3,234.5c-5.4-2.6-10.6-4.6-15.9-6c-13.6-3.6-28.3-5.3-46.2-5.3c-9.5,0-41.9,0.8-59.9,11.7
		c-0.4,1.4-0.4,4.9-0.4,6.4c0,7.8,0.1,9.2,0.1,9.4c1.4,2.6,4.8,3.9,7.3,4.8c1.7,0.6,2.9,1.1,3.4,1.8c0.5,1,1,2.2,1.5,3.4
		c0.5,1.3,1.1,2.6,1.7,3.8c3.2,5.9,7.1,11.6,11.2,16.4c8.2,9.1,20.2,18,30.6,22.6h0.1c1.9,0.9,4,1.9,6,2.1l0.2,0.1
		c0.2,0.1,0.2,0.1,0.4,0.1c0.4,0,1.6-0.5,2.3-0.9c0.4-0.2,0.8-0.4,1-0.4c6.3-2.9,9.5-4.5,15.2-8.3c15.4-10.5,24.6-20.9,30.7-34.6
		l1.8-4.1c0.3-0.6,1-0.9,1.8-0.9h1.2c2.3,0,4.5-0.2,5.7-1.6c0.5-0.5,1.2-1.3,1.2-2.1v-18.2L-278.3,234.5z M-291.3,233.7v-0.6
		c1.3,0.4,3,1.5,4.5,1.5l0.2-0.1v3.5c-1.2-0.4,0.3-1.8-2.1-2.7v3.3c0,0,0.1,0.1,0.3,0.1c0.4,0,0.3-0.9,0.6-0.9c0.2,0,0.3,0,0.3,0.2
		v3.5c-0.9-0.3-0.1-1.2-1.2-1.6v4c0.1,0,0.8,0.3,1,0.3c0.8,0,0.6-1.9,1-1.9c0.1,0,0.3,0,0.4,0.1v3.7l-5.1-1.7c0-1.6,0.6-0.9,0.6-1.6
		v-7.6C-290.8,234.5-291.3,234.5-291.3,233.7z M-297.7,231.8v-0.6c3.1,0.9,5.5,0.8,5.5,4.4c0,0.9-0.3,2.1-1.5,2.1
		c-0.3,0-0.3,0-0.3,0c2.4,1.3,0.9,3.5,2.2,5.1c0.1,0.1,0.3,0.3,0.3,0.6v0.8l-2.2-0.6c0-0.1-0.6-5.3-1.3-5.4v3.2
		c0,0.6,0.4,0.6,0.4,1.3v0.6l-3.1-0.9c0-1.6,0.6-0.9,0.6-1.6v-7.6C-297.1,232.5-297.7,232.5-297.7,231.8z M-303.9,229.6l3.1,0.8
		c0,1.6-0.4,1-0.4,1.6v6.9c0,0.8,0.1,1.6,1,1.6c0.8,0,0.8-1,0.8-1.4v-6.6c0-0.6-0.6-0.4-0.6-1.3v-0.6l1.7,0.4c0,1.6-0.4,0.8-0.4,1.7
		v6.4c0,1,0,2.8-1.6,2.8c-2.2,0-3-1.8-3-3.8v-6.5c0-0.8-0.6-0.7-0.6-1.5V229.6z M-309.4,228.3c1,0.6,3.4,1.2,4.6,1.2h0.4v3.4
		c-1.2-0.2-0.1-1.9-1.6-2.2v8.1c0,0.6,0.6,0.4,0.6,1.3v0.6l-3.1-0.8v-0.6c0-0.9,0.6-0.4,0.6-1v-8.1c-0.1,0-0.3-0.1-0.3-0.1
		c-0.7,0-0.4,1.7-0.8,1.7c-0.2,0-0.3,0-0.3-0.1v-3.4H-309.4z M-313,227.7c1,0,1.6,0.8,1.9,0.8c0.1,0,0.4,0,0.4-0.1h0.4v3.8
		c-1.3-0.1-0.4-3.1-1.8-3.1c-0.8,0-0.8,3.7-0.8,4.1c0,0.8-0.2,4.8,1.2,4.8c0.7,0,0.9-1.6,1-2.1l0.6,0.4c0,1.2-0.3,3.1-1.9,3.1
		c-2.6,0-3.2-4.6-3.2-6.5C-315.2,231.8-314.7,227.7-313,227.7z M-318.7,237.7c0-0.9,0.6-0.4,0.6-1v-7.6c0-0.7-0.6-0.6-0.6-1.3v-0.6
		l3.1,0.4v0.6c0,0.9-0.6,0.4-0.6,1.2v7.6c0,0.6,0.6,0.4,0.6,1.2v0.6l-3.1-0.4V237.7z M-324.4,227.1v-0.6c3.5,0.4,5.3,0,5.3,4.1
		c0,1.2-0.4,3-1.9,3c-0.3,0-0.6,0-0.8,0v2.5c0,0.8,0.4,0.6,0.4,1.3v0.8l-3.1-0.4c0-1.6,0.6-0.9,0.6-1.7v-7.5
		C-323.8,227.7-324.4,228-324.4,227.1z M-329.1,234.3c0.6,0,0.8,1.2,0.8,1.7c0,0.6-0.3,1.6-0.8,1.6c-0.8,0-0.9-1.3-0.9-1.8
		S-329.9,234.3-329.1,234.3z M-335,233.7c1.2,0,0.4,2.4,1.8,2.4c0.7,0,0.8-0.8,0.8-1.3c0-2.2-2.6-2.1-2.6-5.4c0-1.3,0.3-3.5,2.1-3.5
		c0.6,0,1,0.6,1.3,0.6c0.1,0,0.3-0.3,0.4-0.3h0.3v3.3c-1,0-0.6-2.2-1.7-2.2c-0.6,0-0.8,0.6-0.8,1c0,1.6,2.8,2.1,2.8,5.6
		c0,1.5-0.6,3.7-2.4,3.7c-0.6,0-1-0.6-1.3-0.6c-0.2,0-0.3,0.1-0.4,0.3h-0.3L-335,233.7L-335,233.7z M-338.8,225.6c2.5,0,3,4,3,5.8
		c0,1.9-0.4,5.8-3,5.8s-3.1-4-3.1-5.8S-341.4,225.6-338.8,225.6z M-348.1,226.6V226c1.2,0,2.3-0.1,3.7-0.1c1.3,0,1.7,1.6,1.7,2.6
		c0,1.3-0.4,2.5-1.9,2.8v0.1c2.5,0.3,1.2,3.2,2.2,4.2c0.1,0.2,0.3,0.2,0.3,0.4v0.7l-2.2,0.2c0-0.2-0.6-5-1.2-5h-0.1v3.2
		c0,0.9,0.6,0.4,0.6,1.2v0.6l-3.1,0.1c0-1.5,0.6-1,0.6-1.9v-7.3C-347.6,227.1-348.1,227.5-348.1,226.6z M-354.5,227v-0.6
		c1.3,0,2.6-0.3,3.9-0.3c1.2,0,1.6,1.5,1.6,2.5c0,0.9-0.4,2.5-1.5,2.5v0.1c1.3,0,1.6,1.7,1.6,2.8c0,3.8-2.2,3.2-5.6,3.5
		c0-1.3,0.6-1.2,0.6-1.9v-7.3C-353.9,227.4-354.5,227.9-354.5,227z M-364,228.1v-0.6c1.2-0.1,2.4-0.6,3.7-0.6c1.3,0,1.6,1.5,1.6,2.5
		c0,1.5-0.4,2.6-1.8,3v0.1c2.5,0.1,1,3.1,2.2,4.1c0.1,0.1,0.3,0.1,0.3,0.4v0.7l-2.2,0.3c0-0.1-0.7-4.9-1.2-4.9h-0.2v3.3
		c0,0.8,0.6,0.3,0.6,1.2v0.6l-3.1,0.4c0-1.6,0.4-1.2,0.4-2.1v-7.3C-363.6,228.4-364,229-364,228.1z M-369.8,229.1v-0.5
		c1.3-0.3,3.5-0.3,4.8-1v3.4c-0.2,0-0.2,0-0.3,0c-0.3,0-0.1-1.6-1-1.6c-0.3,0-0.6,0.1-0.9,0.1v3.2c1.2-0.1,0.3-1.2,1.3-1.3v3.5
		c0,0-0.1,0.2-0.3,0.2c-0.3,0-0.1-1-0.6-1c-0.1,0-0.3,0-0.4,0v4c3.1-0.6,1.2-2.7,2.5-3v3.8l-5,0.9c0-1.3,0.6-1.3,0.6-1.9v-7.4
		C-369.1,229.5-369.8,230-369.8,229.1z M-376.1,240.4c0-0.8,0.6-0.7,0.6-1.3v-7.6c0-0.6-0.6-0.3-0.6-1v-0.6l2.4-0.6l2.1,7.4l0.1-6
		c0-0.9-0.6-0.3-0.6-1.2v-0.6l1.7-0.4v0.6c0,0.9-0.6,0.6-0.6,1.5v9.2l-1.7,0.4l-2.1-7.2v5.7c0,0.9,0.6,0.3,0.6,1.2v0.6l-1.9,0.4
		V240.4z M-382.4,232.2v-0.6c0.8-0.3,3.2-1,3.9-1c1.2,0,1.5,1.5,1.5,2.4c0,1.3-0.6,2.5-1.9,3.1v0.1c2.5-0.1,1.2,3,2.2,3.7
		c0.1,0.1,0.3,0.3,0.3,0.4v0.9l-2.2,0.6c-0.1-0.7-0.7-4.7-1-4.7c-0.1,0-0.1,0-0.3,0v3.1c0,0.9,0.6,0.3,0.6,1.2v0.6l-3.1,0.9
		c0-1.5,0.6-1.3,0.6-1.9v-7.4C-381.8,232.5-382.4,233.1-382.4,232.2z M-386.9,235.3c0.1-0.3,0.1-0.4,0.1-0.7c0-1.2,0.4-1.5,1.6-2.2
		l0.2,0.1l1.6,8.5c0.1,0.8,0.6,0.7,0.6,1v0.8l-3.2,1c0-1.7,0.6-1,0.6-1.9c0-0.4,0-0.8-0.2-1.2l-1.7,0.6c0,0.4-0.1,0.8-0.1,1.2
		c0,0.7,0.6,0.4,0.6,0.7v1.2l-2.2,0.9c0.3-2.1,0.6-1.6,0.9-3L-386.9,235.3z M-396.7,238.1v-0.9l2.8-1.2c0,0.8-0.4,1.2-0.4,1.7
		c0,1.7,0.4,3.3,0.8,4.9l0.6-4.3c0.1-0.7-0.4-1.5-0.4-1.7v-0.9l2.8-1.2c0,1-0.4,1.3-0.4,2.1c0,1.5,0.4,3.2,0.8,4.7
		c0.3-1.6,0.7-3.5,0.7-5.3c0-0.6-0.4-0.4-0.4-0.9v-0.7l1.6-0.8v0.9c0,0.4-0.3,0.9-0.4,1.3l-1.5,10.1l-1.3,0.4l-0.8-6.2l-1.2,7.4
		l-1,0.6l-1.3-9.2C-396.3,238.1-396.7,238.6-396.7,238.1z M-284.7,254.9c-1,0-1.1-0.5-1.1-0.7s0.2-0.7,0.6-2.1
		c0.1-0.2,0.1-0.3,0.1-0.5c-1.8-0.8-7.8-3.2-8.3-3.2l0,0c0,0.1-0.1,0.1-0.2,0.2l-1.3,4.1c-2.5,7.7-7.9,16.7-14.1,23.6
		c-6.7,7.2-17.9,16.5-27.9,21c-0.5,0.2-1.3,0.3-2,0.3c-2.9,0-8.1-3.4-11.8-6c-7.5-5.2-14.3-11.3-20-18.1
		c-6.8-7.8-10.4-17.3-13.1-25.5c-2,0.4-4.8,1.7-7,2.7c-0.5,0.2-1,0.4-1.4,0.6v0.1c0.1,0.7,0.3,1.3,0.5,1.9l0.2,0.5h-0.5
		c-0.1,0-0.1,0-0.2,0s-0.3,0.1-0.5,0.1c-1,0-2.6-0.5-2.6-1.7c0-1.1,2.1-2.1,4.7-3.2c0.5-0.2,1-0.4,1.3-0.6
		c16.7-6.7,36.5-8.1,50.3-8.1c14.7,0,29.7,2.2,45.9,6.8l0.6,0.2c7.3,2.3,10.6,4,10.6,5.7C-282.1,254.1-283.6,254.9-284.7,254.9z
		 M-282.5,247.5c-1.2,0-1.9-1.2-2.1-1.2s-0.3,0-0.4,0.1l-0.3-0.1v-3.4c1,0.3,0.6,3.1,1.9,3.1c0.6,0,0.7-0.6,0.7-1
		c0-2.2-2.6-3.1-2.6-6.6c0-0.8,0.1-2.8,1.5-2.8c1,0,1.7,1.2,2.1,1.2c0.1,0,0.1,0,0.3-0.1l0.3,0.1v3.4c-1-0.4-0.7-3.1-1.9-3.1
		c-0.4,0-0.6,0.6-0.6,0.9c0,1.6,2.8,3.2,2.8,6.7C-280.9,245.8-281.3,247.5-282.5,247.5z"/>
	<path fill="#231F20" d="M-329.1,237.5c0.6,0,0.8-1,0.8-1.6c0-0.4-0.3-1.7-0.8-1.7c-0.8,0-0.9,1-0.9,1.5S-329.9,237.5-329.1,237.5z"
		/>
</g>
<g>
	<g>
		<path d="M-413.1,40.2l3.9-10.1h1l3.8,10.1h-1.1l-0.9-2.4h-4.7l-0.9,2.4H-413.1z M-406.6,36.9l-2-5.4c0,0,0,0-0.1,0s-0.1,0-0.1,0.1
			l-2,5.4h4.2V36.9z"/>
		<path d="M-314.6,33.1c-0.1-1.3-0.8-2.2-2.1-2.2c-2.5,0-2.6,3.6-2.6,4.5c0,0.8,0,4.4,2.6,4.4c1.6,0,2.1-1.3,2.3-2.4l0.9,0.3
			c-0.1,0.9-0.7,3-3.1,3c-0.5,0-1.7,0-2.7-1.4c-0.6-0.9-0.9-2.1-0.9-3.5c0-1.1,0.1-2.6,0.8-3.9c1-1.7,2.5-1.7,3-1.7
			c1.6,0,2.7,1.1,2.8,2.8L-314.6,33.1z"/>
		<path d="M-308.7,40.3c-2.1,0-2.8-1.9-2.8-3.8c0-1.8,0.8-3.7,2.9-3.7c2.2,0,2.9,2,2.9,3.8C-305.8,38.7-306.5,40.3-308.7,40.3z
			 M-308.7,33.7c-1.6,0-1.9,1.9-1.9,3.1c0,1.2,0.6,2.6,2,2.6s1.8-1.5,1.8-2.7C-306.8,35.5-307.1,33.7-308.7,33.7z"/>
		<path d="M-303.8,33.4l0.9-0.5v1.6c0,0.1,0,0.2,0.1,0.2c0.5-0.5,0.9-1.7,2.4-1.7c1.6,0,1.6,1.1,1.8,1.7c0,0.1,0.1,0,0.1,0
			c0.3-0.3,0.8-1.7,2.5-1.7c1.3,0,1.7,0.9,1.7,2.1v5.2h-0.9v-5.1c0-0.7-0.1-1.4-1-1.4c-1.1,0-2.3,1.6-2.3,1.7v4.7h-0.9v-5
			c0-0.7-0.1-1.5-1-1.5s-1.4,0.7-2.3,1.8v4.7h-0.9v-6.8H-303.8z"/>
		<path d="M-291.3,32.8v1.4v0.1l0,0c0.2-0.2,0.7-1.5,2.1-1.5c1.1,0,2.5,1,2.5,3.7c0,2.2-0.9,3.7-2.5,3.7c-1.3,0-1.9-1.2-2-1.4
			c0,0,0,0-0.1,0s-0.1,0.1-0.1,0.1v3.9h-1v-9.4L-291.3,32.8z M-289.3,39.4c1.4,0,1.7-1.7,1.7-2.7c0-1.2-0.2-3-1.8-3
			c-0.9,0-1.9,0.9-1.9,3C-291.3,37.9-290.6,39.4-289.3,39.4z"/>
		<path d="M-280.6,34.9c0-0.5,0-1.2-1.4-1.2c-0.8,0-1.4,0.3-2.2,0.8l-0.4-0.9c1.2-0.6,1.7-0.7,2.6-0.7c0.3,0,1.1,0,1.6,0.4
			c0.7,0.5,0.7,1.2,0.7,1.5v4c0,0.4,0.1,0.6,0.2,0.6c0.1,0.1,0.2,0.1,0.6,0.1v0.8c-0.6,0-0.9,0-1.1-0.2c-0.4-0.2-0.6-0.8-0.6-1.1
			c0-0.1,0-0.1,0-0.2l0,0l0,0c-0.7,0.8-1.4,1.4-2.6,1.4c-0.9,0-1.3-0.3-1.5-0.6c-0.4-0.5-0.5-1.1-0.5-1.3c0-1.4,1.1-2,1.6-2.2
			c1-0.4,2-0.4,3-0.4L-280.6,34.9L-280.6,34.9z M-280.6,36.4c-0.8,0-1.6,0-2.3,0.3c-0.7,0.3-1.3,0.8-1.3,1.6c0,0.3,0.2,1.2,1.3,1.2
			c0.9,0,2-1,2.3-1.4V36.4z"/>
		<path d="M-277.3,33.4l0.9-0.5v1.6c0,0.1,0.1,0.1,0.1,0.1c0.3-0.2,0.9-1.7,2.5-1.7c1.4,0,1.7,1,1.7,2.2v5.1h-1v-5.1
			c0-0.7,0-1.4-0.9-1.4c-0.6,0-1.1,0.3-1.5,0.7s-0.7,0.8-0.9,1.2v4.6h-1L-277.3,33.4L-277.3,33.4z"/>
		<path d="M-270.4,41.2h0.3c0.1,0.2,0.2,0.4,0.7,0.4c1,0,1.2-1.2,1.4-1.9l-2.5-6.7h1.1l1.4,3.9c0.1,0.2,0.2,0.5,0.3,0.8
			c0.1,0.3,0.1,0.5,0.2,0.5s0.1-0.4,0.5-1.4l1.3-3.9h0.9l-2.6,7.4c-0.4,1.1-0.9,2.2-2.2,2.2c-0.4,0-0.6-0.1-1-0.2v-1.1H-270.4z"/>
	</g>
	<g>
		<g>
			<polygon fill="#231F20" points="-372.4,29.7 -372.4,29.9 -371.1,29.9 -367.4,40.7 -367,40.7 -364.5,33.6 -364.5,33.6 -362,40.7 
				-361.6,40.7 -357.8,29.9 -356.5,29.9 -356.5,29.7 -359.3,29.7 -359.3,29.9 -358,29.9 -360.8,37.8 -360.8,37.8 -363.5,29.9 
				-362.1,29.9 -362.1,29.7 -366.6,29.7 -366.6,29.9 -365.8,29.9 -364.6,33.3 -366.2,37.7 -366.2,37.7 -368.9,29.9 -367.8,29.9 
				-367.8,29.7 			"/>
		</g>
		<g>
			<path fill="#231F20" d="M-392,32.4h0.2v-2.7h-9.4v2.7h0.2c0.3-1,0.6-1.7,1.1-2c0.4-0.3,1-0.5,1.8-0.5h0.5v10.2h-1.4v0.2h4.9v-0.2
				h-1.4V29.9h0.5c0.8,0,1.3,0.2,1.8,0.5C-392.6,30.7-392.2,31.4-392,32.4L-392,32.4z"/>
		</g>
		<g>
			<path fill="#231F20" d="M-389.6,33.9v0.2h1v6h-1v0.2h3.7v-0.2h-0.9v-3.6c0-0.8,0.1-1.4,0.4-1.8c0.3-0.4,0.7-0.5,1.1-0.5
				c0.6,0,0.9,0.4,0.9,1.2v4.8h-0.9v0.2h3.6v-0.2h-0.9v-4.4c0-0.5,0.2-0.9,0.5-1.2c0.3-0.2,0.6-0.4,0.9-0.4c0.6,0,1,0.4,1,1.3v4.6
				h-0.9v0.2h3.7v-0.2h-1V36c0-0.6-0.1-1.1-0.3-1.4c-0.3-0.6-1-0.9-2-0.9c-0.9,0-1.6,0.4-2,1.2c-0.2-0.4-0.4-0.6-0.6-0.8
				c-0.3-0.2-0.8-0.4-1.4-0.4c-0.9,0-1.6,0.4-2.1,1.2l0,0v-1L-389.6,33.9L-389.6,33.9z"/>
		</g>
		<g>
			<polygon fill="#231F20" points="-393.6,33.9 -393.6,34.1 -392.6,34.1 -392.6,40.1 -393.6,40.1 -393.6,40.3 -389.8,40.3 
				-389.8,40.1 -390.8,40.1 -390.8,33.9 			"/>
		</g>
		<g>
			<path fill="#231F20" d="M-371.8,34.4c-0.5-0.5-1.2-0.7-2-0.7c-0.9,0-1.8,0.3-2.5,1s-1,1.4-1,2.3c0,1,0.4,1.9,1.1,2.5
				s1.6,0.9,2.6,0.9c0.8,0,1.4-0.2,1.9-0.7c0.4-0.3,0.6-0.7,0.7-1.2l-0.2-0.1c0,0.3-0.2,0.6-0.5,1c-0.4,0.5-1,0.7-1.7,0.7
				c-0.8,0-1.3-0.3-1.6-1c-0.2-0.4-0.3-1.1-0.3-2.1v-0.4h4.4C-370.8,35.6-371.1,34.9-371.8,34.4L-371.8,34.4z M-375,34.7
				c0.2-0.6,0.6-0.8,1.2-0.8s1,0.5,1,1.4v1h-2.4C-375.1,35.6-375.1,35-375,34.7L-375,34.7z"/>
		</g>
		<g>
			<path fill="#231F20" d="M-346.1,35c0-0.4-0.1-0.7-0.4-0.9s-0.6-0.3-1-0.3c-0.8,0-1.5,0.5-1.9,1.4l0,0V34h-2.8v0.2h1v6h-1v0.2h4
				v-0.2h-1.2v-3.8c0-0.6,0.2-1.1,0.5-1.5s0.5-0.5,0.8-0.5c0.2,0,0.3,0.1,0.3,0.4l-0.1,0.8c0,0.4,0.3,0.7,0.9,0.7
				C-346.4,36-346.1,35.7-346.1,35L-346.1,35z"/>
		</g>
		<g>
			<path fill="#231F20" d="M-346.3,33.9v0.2h1v6h-1v0.2h3.8v-0.2h-1v-3.2c0-0.9,0.2-1.6,0.5-2.1s0.8-0.7,1.3-0.7
				c0.6,0,0.9,0.4,0.9,1.2V40h-0.9v0.2h3.7V40h-1v-4.2c0-0.6-0.2-1.2-0.6-1.6c-0.4-0.4-0.9-0.6-1.5-0.6c-1.2,0-2,0.5-2.5,1.6l0,0
				v-1.5h-2.7V33.9z"/>
		</g>
		<g>
			<path fill="#231F20" d="M-332.3,34.4c-0.5-0.5-1.2-0.7-2-0.7c-0.9,0-1.8,0.3-2.5,1s-1,1.4-1,2.3c0,1,0.4,1.9,1.1,2.5
				s1.6,0.9,2.6,0.9c0.8,0,1.4-0.2,1.9-0.7c0.4-0.3,0.6-0.7,0.7-1.2l-0.2-0.1c0,0.3-0.2,0.6-0.5,1c-0.4,0.5-1,0.7-1.7,0.7
				c-0.8,0-1.3-0.3-1.6-1c-0.2-0.4-0.3-1.1-0.3-2.1v-0.4h4.4C-331.4,35.6-331.7,34.9-332.3,34.4L-332.3,34.4z M-334.4,33.9
				c0.6,0,1,0.5,1,1.4v1h-2.4c0-0.8,0.1-1.3,0.2-1.6C-335.3,34.2-334.9,33.9-334.4,33.9L-334.4,33.9z"/>
		</g>
		<g>
			<path fill="#231F20" d="M-331,33.9v0.2h1v6h-1v0.2h4v-0.2h-1.2v-3.8c0-0.6,0.2-1.1,0.5-1.5s0.6-0.5,0.8-0.5
				c0.3,0,0.4,0.1,0.4,0.4l-0.1,0.8c0,0.4,0.3,0.7,0.9,0.7s0.9-0.3,0.9-0.9c0-0.4-0.1-0.7-0.4-0.9s-0.6-0.3-1-0.3
				c-0.9,0-1.5,0.5-1.9,1.4l0,0v-1.2h-2.9V33.9z"/>
		</g>
		<g>
			<path fill="#231F20" d="M-356.1,33.7c-0.7,0-1.3,0.1-1.8,0.4c-0.5,0.3-0.8,0.7-0.8,1.2s0.3,0.8,0.9,0.8s0.9-0.2,0.9-0.6l-0.1-0.8
				c0-0.5,0.3-0.7,0.9-0.7s0.9,0.3,0.9,1v0.9c0,0.4-0.1,0.6-0.4,0.8c-0.2,0.1-0.7,0.3-1.6,0.6c-0.6,0.2-1.1,0.4-1.3,0.6
				c-0.4,0.3-0.6,0.7-0.6,1.2s0.2,0.9,0.7,1.2c0.4,0.2,0.9,0.3,1.4,0.3s0.9-0.1,1.2-0.2c0.3-0.1,0.5-0.4,0.7-0.8l0,0
				c0.1,0.7,0.7,1,1.6,1c0.7,0,1.2-0.1,1.3-0.5l-0.1-0.1c-0.2,0.2-0.4,0.3-0.6,0.3c-0.3,0-0.5-0.3-0.5-0.7v-3.7
				C-353.4,34.4-354.3,33.7-356.1,33.7L-356.1,33.7z M-355.2,36.6L-355.2,36.6v1.9c0,0.5-0.1,0.9-0.3,1.2c-0.2,0.3-0.4,0.4-0.7,0.4
				c-0.6,0-1-0.5-1-1.4c0-0.5,0.2-0.9,0.5-1.2c0.1-0.1,0.5-0.3,1.1-0.6C-355.4,36.8-355.3,36.7-355.2,36.6L-355.2,36.6z"/>
		</g>
	</g>
</g>
<g>
	<path fill="#231F20" d="M-360.7-110.5c0-1.3,0-1.6-1.1-1.6c-2,0-9.8,2.1-10.4,3.4c-0.8,1.4-0.7,9-0.7,11.9v1c0,2.2,0,4.3,0.1,6.4
		c3.6-0.5,7.7-0.9,12.3-1.3c-0.3-5.1-0.3-10.3-0.2-15.3C-360.8-107.5-360.7-109-360.7-110.5z"/>
	<path fill="#231F20" d="M-335.3-65c-0.3,0.5-0.3,2.7-0.2,6.4c0,0.5,0,0.9,0,1.1c0,7.9-0.1,15.9-0.1,23.6
		c-0.1,7.7-0.1,15.7-0.1,23.6c0,0.2,0,0.5,0,0.9c-0.1,1.4-0.3,4.2,0.5,5.1c0.1,0.1,0.3,0.2,0.5,0.2c0.5,0,1.1-0.3,1.5-0.6
		c0.1-0.1,0.2-0.1,0.4-0.2c28.5-17,37.2-37.6,39.6-45.6c0.5-1.3,0.7-2.6,0.7-4.5c0-1.4-0.3-3.8-1-4.5C-295.6-61.8-329.5-65-335.3-65
		z M-322.7-25.7l-0.9,0.9V-26c0.1-2.8,0.2-5.5,0.3-8.3c0.2-6.9,0.5-13.3,0.3-20v-0.9c0.7-2.5,7.1-4.3,8.9-4.3c5.5,0,8.5,2.8,8.5,7.8
		C-305.5-42.6-317.1-31.2-322.7-25.7z"/>
	<path fill="#231F20" d="M-331.9-91.1c3,0.1,6,0.2,8.9,0.4c0-1.9,0.1-3.8,0.1-5.6c0.1-1.9,0.1-3.9,0.1-5.8c0-0.8,0.4-1.3,1-1.3
		c1.5,0,3.9,0.6,7.1,1.9c4.7,1.9,14.5,5.9,15.2,13.3c3.9,0.5,8.1,1.3,13.2,2.6c0.3-0.9,0.4-1.8,0.4-2.8c0-3.1-1.2-6.4-3.1-8.6
		c-7.2-8.7-33.5-19.1-44.7-19.1c-1.3,0-1.6,0.3-1.7,1.4c-0.1,3.6-0.1,7.4,0,11.1c0,1.9,0,3.7,0,5.5v7
		C-334.1-91.2-333-91.2-331.9-91.1z"/>
	<path fill="#231F20" d="M-354.3-64.7v3.5c0,1,0,2,0,3c0.1,3.4,0.1,6.9-0.5,10.3l-0.2,1.1l-0.7-0.9c-1-1.3-3-14.3-3.4-16.7l-0.8-0.1
		c-3.2,0-6.6,0.5-9.9,1c-0.5,0.1-1,0.2-1.5,0.2c0,0.3,0,0.5,0.1,0.8c0,0.4,0.1,0.8,0.1,1.2c0,1.5-1.5,4-3.1,4
		c-1.5,0-2.4-3.5-2.8-5.2c-3.9,0.6-7.7,1.4-11.1,2.5c2.4,7.9,8.4,23.3,12.5,23.3c1.8,0,3-2.8,4.1-5.3c0.7-1.6,1.4-3.2,2.3-3.9
		l0.4-0.4l0.3,0.5c0.9,1.3,3.2,6.9,5.4,12.6c0.4,1,0.8,1.9,1,2.5c4.1,9.3,8.5,16.4,14.3,22.8c0.2,0.2,0.4,0.4,0.6,0.6
		c1.1,1.1,2.8,3,3.9,3c0.3,0,0.7-1.6,0.7-3.3c0-9.6,0.1-19.4,0.1-28.9c0.1-9.4,0.1-19.2,0.1-28.8c-0.7,0-1.4,0-2.1-0.1
		C-347.9-65.3-351.3-65.1-354.3-64.7z"/>
	<path fill="#231F20" d="M-353.3-114.2c-0.4,1-0.3,14.1-0.3,18.4v4.7c1.9,0,3.8,0,5.8-0.1c2,0,3.9-0.1,5.9-0.1
		c0.1-0.6,0.1-1.1,0.1-1.6c0-3.6,0.1-7.2,0.1-10.8c0.1-3.5,0.1-7.2,0.1-10.7c0-1.4-0.2-1.8-1.6-1.8
		C-346.3-116.1-352.6-115.5-353.3-114.2z"/>
	<path fill="#231F20" d="M-380.9-98.6c0-3.5-0.7-4-1.1-4c-2.5,0-7.9,3-9.3,5c-0.4,0.7-0.7,2.5-0.7,5.4c0,2,0.1,4,0.3,6.1
		c1.6-0.3,3.2-0.7,4.7-0.9c2-0.4,4.1-0.8,6.1-1.3c-0.1-2.2-0.1-4.5,0-6.7C-381-96.3-380.9-97.4-380.9-98.6z"/>
	<path fill="#231F20" d="M-400.8-83.8c-0.1-2.1-0.2-4.2-0.3-6.2c-0.2-3-0.4-5.9-0.4-8.7c0-1.7,0.1-3.4,0.7-4.2
		c0.7-1.4,4.2-1.7,9.1-2c1.9-0.1,3.7-0.2,4.6-0.4c0.7-0.2,1-1.6,1.2-2.9c0.3-1.7,0.6-3.6,2.1-4.2c1.1-0.4,2.5-0.4,3.4-0.4h1
		c0.3,0,0.6,0,1,0s0.8,0,1.2,0c1.6,0,3.7-0.1,4.9-0.6c1.4-0.5,1.8-2,2.2-3.7c0.4-1.7,0.8-3.5,2.5-4.3c2.7-1.4,25.8-4.4,29.3-4.4
		c3.3,0,25.6,3.2,28.6,4.4c1.7,0.8,2.2,2.8,2.6,4.7c0.2,1.1,0.5,2.1,0.9,2.8c0.8,1.1,4.3,1.2,7.2,1.3c2.7,0.1,5,0.1,6,0.8
		c1,0.7,1.3,2.3,1.5,3.8c0.2,1.3,0.5,2.8,1.2,3.1c0.9,0.4,3.1,0.4,5.3,0.5c3.9,0.1,7.6,0.2,8.6,1.8c0.4,0.9,0.4,2.2,0.4,3
		c0,5-0.4,10.1-0.8,15.1l-0.1,1.6c3.7,1.2,7.4,2.6,11.4,4.4c0.8-4.9,1.2-10.2,1.2-15.6c0-13.4-0.7-15.5-0.9-15.8
		c-0.7-1-5.2-1.4-8.6-1.7c-2.7-0.2-5-0.4-6.1-0.9c-1.8-0.6-2-2.2-2.2-3.5c-0.2-1.2-0.3-2.2-1.3-2.7c-1.6-0.8-3.6-0.9-5.7-1
		c-2-0.1-4-0.2-5.8-1c-2-0.8-2.5-2.7-2.9-4.5c-0.4-1.5-0.7-2.9-2-3.6c-1.7-1.1-34.5-6-37.7-6c-4.3,0-38.6,4.6-40.4,6
		c-1,0.7-1.4,2-1.7,3.5c-0.4,1.5-0.8,3.1-2.1,3.9c-1.7,1.1-4.2,1.3-6.6,1.5c-2.3,0.2-4.7,0.4-6.1,1.3c-0.6,0.5-0.8,1.6-0.9,2.7
		c-0.2,1.5-0.4,3.1-2,3.6c-0.9,0.3-2.8,0.4-4.9,0.5c-3.7,0.2-9.2,0.6-9.9,1.9c-0.2,0.3-0.7,2-0.7,12.6c0,5.3,0.1,11.7,0.8,18.2
		C-407.9-81.4-404.3-82.7-400.8-83.8z"/>
	<path fill="#231F20" d="M-281.8-73.9c0-1.1,0-2-1.1-2.5v4.3c0,0,0.2,0,0.4,0C-281.8-72.1-281.8-73.5-281.8-73.9z"/>
	<path fill="#231F20" d="M-316-80.3c0-0.7,0-2.4-1-2.6v5.2h0.2C-316-77.7-316-79.9-316-80.3z"/>
	<path fill="#231F20" d="M-366.5-80.5c0-0.6,0-2-0.7-2l-0.4,0.2v4.1C-366.5-78.4-366.5-79.5-366.5-80.5z"/>
	<path fill="#231F20" d="M-346.3-81.9c0-0.6,0-2-0.7-1.9h-0.3v4.1C-346.1-79.7-346.3-81-346.3-81.9z"/>
	<path fill="#231F20" d="M-354.3-81.8c0-0.6,0-1.9-0.7-1.9h-0.2v4.2C-354.3-79.5-354.3-81-354.3-81.8z"/>
	<path fill="#231F20" d="M-354.2-75.2c0-0.7,0-2.5-0.9-2.5l-0.2,0.2v4.7C-354.2-73-354.2-74.3-354.2-75.2z"/>
	<path fill="#231F20" d="M-338.6-73c1.1,0,0.9-4.3,0.9-4.9v-1.6c0-0.8,0.2-5.1-0.9-5.1s-1.1,4.3-1.1,4.8v1.9
		C-339.8-77.3-339.8-73-338.6-73z"/>
	<polygon fill="#231F20" points="-399.4,-72.6 -400.2,-67.8 -398.5,-68.3 	"/>
	<path fill="#231F20" d="M-389.9-76c0-0.4,0-1.7-0.5-1.7c-0.2,0-0.4,0-0.6,0v4.3C-389.9-73.8-389.9-74.8-389.9-76z"/>
	<path fill="#231F20" d="M-261.5-74.8c-6.9-3.4-13.5-5.9-20.3-7.7c-17.4-4.6-36.1-6.7-58.9-6.7c-12.1,0-53.4,1.1-76.4,15
		c-0.5,1.7-0.5,6.3-0.5,8.2c0,9.9,0.1,11.7,0.1,12c1.8,3.3,6.2,5,9.3,6.2c2.2,0.8,3.8,1.4,4.3,2.3c0.7,1.3,1.3,2.8,1.9,4.4
		c0.7,1.6,1.4,3.3,2.2,4.8c4,7.6,9,14.8,14.3,20.9c10.5,11.6,25.8,22.9,38.9,28.8h0.1c2.4,1.1,5.1,2.4,7.6,2.7l0.2,0.1
		c0.3,0.2,0.3,0.2,0.6,0.2c0.5,0,2-0.7,3-1.1c0.5-0.2,1-0.5,1.3-0.6c8-3.7,12.1-5.7,19.4-10.6c19.6-13.4,31.3-26.6,39.1-44.1
		l2.3-5.2c0.4-0.7,1.2-1.1,2.3-1.1h1.5c2.9,0,5.8-0.2,7.3-2c0.6-0.6,1.5-1.7,1.5-2.7v-23.2L-261.5-74.8z M-278.2-75.8v-0.7
		c1.6,0.6,3.8,1.9,5.7,1.9l0.2-0.2v4.5c-1.6-0.6,0.3-2.3-2.6-3.4v4.2c0,0,0.2,0.2,0.3,0.2c0.6,0,0.4-1.1,0.7-1.1
		c0.2,0,0.4,0,0.4,0.2v4.4c-1.1-0.3-0.2-1.5-1.5-2v5.1c0.2,0,1.1,0.4,1.3,0.4c1.1,0,0.7-2.5,1.3-2.5c0.2,0,0.3,0,0.5,0.2v4.7
		l-6.5-2.2c0-2,0.7-1.1,0.7-2v-9.7C-277.4-74.8-278.2-74.8-278.2-75.8z M-286.3-78.3V-79c3.9,1.1,7,1,7,5.6c0,1.1-0.4,2.6-1.9,2.6
		c-0.4,0-0.4,0-0.4,0c3,1.7,1.1,4.5,2.9,6.5c0.2,0.2,0.3,0.3,0.3,0.7v1l-2.8-0.8c0-0.2-0.7-6.7-1.7-6.9v4.1c0,0.7,0.6,0.7,0.6,1.7
		v0.7l-3.9-1.1c0-2,0.7-1.1,0.7-2v-9.7C-285.5-77.3-286.3-77.3-286.3-78.3z M-294.1-81l3.9,1c0,2-0.6,1.3-0.6,2v8.8c0,1,0.2,2,1.3,2
		c1,0,1-1.2,1-1.8v-8.4c0-0.8-0.7-0.6-0.7-1.7v-0.7l2.2,0.6c0,2-0.6,1.1-0.6,2.2v8.1c0,1.2,0,3.5-2,3.5c-2.8,0-3.8-2.3-3.8-4.8v-8.2
		c0-1.1-0.7-0.9-0.7-1.9L-294.1-81L-294.1-81z M-301.2-82.7c1.3,0.7,4.3,1.5,5.8,1.5h0.6v4.3c-1.5-0.2-0.2-2.5-2-2.9v10.4
		c0,0.7,0.7,0.6,0.7,1.6v0.8l-3.9-1v-0.7c0-1.1,0.7-0.6,0.7-1.3v-10.3c-0.2,0-0.4-0.2-0.4-0.2c-0.9,0-0.5,2.2-1.1,2.2
		c-0.2,0-0.4,0-0.4-0.2L-301.2-82.7L-301.2-82.7z M-305.7-83.4c1.3,0,2,1.1,2.5,1.1c0.2,0,0.6,0,0.6-0.2h0.6v4.8
		c-1.7-0.2-0.6-3.9-2.3-3.9c-1.1,0-1.1,4.7-1.1,5.2c0,1-0.2,6.1,1.5,6.1c0.9,0,1.1-2,1.3-2.6l0.7,0.6c0,1.5-0.4,3.9-2.5,3.9
		c-3.4,0-4.1-5.9-4.1-8.3C-308.5-78.3-307.9-83.4-305.7-83.4z M-313-70.7c0-1.1,0.7-0.6,0.7-1.3v-9.7c0-0.9-0.7-0.7-0.7-1.6v-0.8
		l3.9,0.6v0.7c0,1.1-0.7,0.6-0.7,1.6v9.7c0,0.8,0.7,0.6,0.7,1.6v0.7l-3.9-0.6V-70.7z M-320.3-84.2v-0.7c4.5,0.6,6.7,0,6.7,5.2
		c0,1.5-0.6,3.8-2.4,3.8c-0.4,0-0.8,0-1,0v3.2c0,1.1,0.6,0.7,0.6,1.6v1l-3.9-0.6c0-2,0.7-1.1,0.7-2.2v-9.5
		C-319.6-83.4-320.3-83.1-320.3-84.2z M-326.3-75.1c0.7,0,1.1,1.6,1.1,2.1c0,0.7-0.3,2-1.1,2c-1,0-1.1-1.7-1.1-2.3
		S-327.2-75.1-326.3-75.1z M-333.8-75.8c1.6,0,0.6,3,2.3,3c0.9,0,1.1-1,1.1-1.7c0-2.8-3.4-2.6-3.4-6.9c0-1.7,0.4-4.5,2.6-4.5
		c0.7,0,1.3,0.7,1.7,0.7c0.2,0,0.4-0.4,0.6-0.4h0.3v4.2c-1.3,0-0.7-2.9-2.2-2.9c-0.7,0-1,0.8-1,1.3c0,2,3.6,2.6,3.6,7.1
		c0,1.9-0.7,4.7-3,4.7c-0.7,0-1.3-0.7-1.6-0.7c-0.2,0-0.4,0.2-0.6,0.4h-0.4V-75.8z M-338.6-86.1c3.2,0,3.8,5.1,3.8,7.4
		c0,2.4-0.6,7.4-3.8,7.4c-3.4,0-3.9-5.1-3.9-7.4S-342-86.1-338.6-86.1z M-350.6-84.8v-0.7c1.5,0,2.9-0.2,4.7-0.2
		c1.6,0,2.2,2,2.2,3.4c0,1.7-0.6,3.2-2.5,3.6v0.2c3.2,0.3,1.6,4.1,2.9,5.4c0.2,0.2,0.3,0.2,0.3,0.6v0.9l-2.8,0.2
		c0-0.2-0.7-6.4-1.5-6.4h-0.2v4.1c0,1.1,0.7,0.6,0.7,1.6v0.7l-3.9,0.2c0-1.9,0.7-1.3,0.7-2.5V-83C-349.8-84.2-350.6-83.7-350.6-84.8
		z M-358.7-84.4v-0.7c1.7,0,3.4-0.4,4.9-0.4s2,1.9,2,3.2c0,1.1-0.6,3.2-1.9,3.2v0.2c1.7,0,2,2.1,2,3.6c0,4.8-2.8,4.1-7.1,4.5
		c0-1.7,0.7-1.5,0.7-2.5v-9.3C-357.9-83.8-358.7-83.3-358.7-84.4z M-370.8-82.9v-0.7c1.5-0.2,3.1-0.7,4.7-0.7s2,1.9,2,3.2
		c0,1.9-0.6,3.4-2.3,3.8v0.2c3.2,0.2,1.3,3.9,2.9,5.2c0.2,0.2,0.3,0.2,0.3,0.6v0.9L-366-70c0-0.2-0.9-6.2-1.5-6.2h-0.2v4.2
		c0,1.1,0.8,0.3,0.8,1.5v0.7l-3.9,0.6c0-2,0.5-1.5,0.5-2.6v-9.6C-370.3-82.5-370.8-81.8-370.8-82.9z M-378.1-81.6v-0.8
		c1.7-0.3,4.5-0.3,6.1-1.3v4.3c-0.2,0-0.2,0-0.4,0c-0.4,0-0.2-2-1.3-2c-0.4,0-0.7,0.2-1.1,0.2v4.1c1.6-0.2,0.4-1.5,1.7-1.6v4.4
		c0,0-0.2,0.2-0.4,0.2c-0.3,0-0.2-1.3-0.7-1.3c-0.2,0-0.3,0-0.6,0v5.1c3.9-0.8,1.6-3.4,3.2-3.8v4.8l-6.4,1.1c0-1.7,0.8-1.7,0.8-2.5
		v-9.5C-377.3-81.2-378.1-80.5-378.1-81.6z M-386.1-67.2c0-1.1,0.7-0.9,0.7-1.6v-9.7c0-0.7-0.7-0.4-0.7-1.3v-0.7l3-0.7l2.6,9.5
		l0.2-7.6c0-1.1-0.7-0.4-0.7-1.6v-0.7l2.2-0.6v0.7c0,1.1-0.7,0.7-0.7,1.9v11.8l-2.2,0.6l-2.6-9.2v7.3c0,1.1,0.7,0.4,0.7,1.5v0.8
		l-2.5,0.6V-67.2z M-394.2-77.7v-0.7c1.1-0.3,4.1-1.3,5-1.3c1.6,0,1.9,1.9,1.9,3c0,1.6-0.7,3.2-2.4,3.9v0.2c3.2-0.2,1.5,3.8,2.8,4.7
		c0.2,0.2,0.4,0.4,0.4,0.6v1.1l-2.9,0.7c-0.2-0.9-0.9-6-1.3-6c-0.2,0-0.2,0-0.3,0v3.9c0,1.1,0.7,0.3,0.7,1.5v0.7l-3.9,1.1
		c0-1.9,0.7-1.7,0.7-2.5v-9.5C-393.4-77.3-394.2-76.6-394.2-77.7z M-400-73.8c0.2-0.3,0.2-0.6,0.2-0.9c0-1.5,0.6-1.9,2-2.8l0.2,0.2
		l2,10.9c0.2,1.1,0.7,0.9,0.7,1.3v1.1l-4.1,1.3c0-2.2,0.7-1.3,0.7-2.4c0-0.6,0-1-0.2-1.6l-2.2,0.7c0,0.6-0.2,1-0.2,1.6
		c0,0.9,0.7,0.5,0.7,0.9v1.5l-2.9,1.1c0.4-2.6,0.8-2,1.1-3.8L-400-73.8z M-412.5-70.2v-1.1l3.5-1.5c0,1.1-0.6,1.5-0.6,2.2
		c0,2.1,0.6,4.2,1,6.2l0.7-5.5c0.2-0.9-0.6-1.9-0.6-2.2v-1.1l3.5-1.5c0,1.3-0.6,1.7-0.6,2.6c0,1.9,0.6,4.1,1,6
		c0.4-2,0.9-4.5,0.9-6.7c0-0.7-0.5-0.6-0.5-1.1v-0.9l2-1v1.1c0,0.6-0.4,1.1-0.6,1.7l-1.9,12.8l-1.7,0.6l-1.1-7.9l-1.6,9.4l-1.3,0.7
		l-1.6-11.8C-411.9-70.2-412.5-69.6-412.5-70.2z M-269.7-48.8c-1.3,0-1.4-0.6-1.4-0.9c0-0.3,0.2-0.9,0.8-2.7
		c0.1-0.2,0.1-0.4,0.2-0.6c-2.3-1-9.9-4-10.6-4.1c0,0,0,0-0.1,0c-0.1,0.1-0.1,0.2-0.3,0.3l-1.7,5.2c-3.1,9.8-10,21.3-18,30.1
		c-8.5,9.2-22.8,21-35.5,26.7c-0.7,0.2-1.6,0.4-2.5,0.4c-3.7,0-10.4-4.4-15-7.7c-9.6-6.7-18.2-14.4-25.5-23.1
		c-8.6-10-13.3-22-16.6-32.6c-2.6,0.5-6.1,2.1-9,3.4c-0.6,0.3-1.2,0.6-1.7,0.8v0.2c0.2,0.9,0.3,1.6,0.6,2.4l0.2,0.6h-0.7
		c-0.1,0-0.1,0-0.3,0.1c-0.2,0-0.4,0.1-0.6,0.1c-1.3,0-3.3-0.6-3.3-2.2c0-1.4,2.7-2.7,5.9-4.1c0.7-0.3,1.3-0.6,1.6-0.7
		c21.2-8.6,46.6-10.4,64-10.4c18.7,0,37.8,2.8,58.5,8.6l0.7,0.2c9.3,2.9,13.5,5.1,13.5,7.2C-266.4-49.8-268.4-48.8-269.7-48.8z
		 M-267-58.2c-1.6,0-2.5-1.5-2.6-1.5c-0.2,0-0.4,0-0.6,0.2l-0.4-0.2V-64c1.3,0.4,0.7,3.9,2.5,3.9c0.7,0,0.9-0.7,0.9-1.3
		c0-2.8-3.4-3.9-3.4-8.4c0-1.1,0.2-3.5,1.9-3.5c1.3,0,2.2,1.5,2.6,1.5c0.2,0,0.2,0,0.4-0.2l0.3,0.2v4.3c-1.3-0.6-0.9-3.9-2.4-3.9
		c-0.6,0-0.8,0.7-0.8,1.1c0,2,3.6,4.1,3.6,8.6C-264.9-60.4-265.3-58.2-267-58.2z"/>
	<path fill="#231F20" d="M-326.3-70.9c0.7,0,1.1-1.3,1.1-2c0-0.6-0.3-2.1-1.1-2.1c-1,0-1.1,1.3-1.1,1.9S-327.2-70.9-326.3-70.9z"/>
</g>
<path fill="#231F20" d="M-610.5,869c-3.6,3.6-7.8,7.1-12.5,9.1c-4.4-1.9-8.3-5.2-11.9-8.6c-9.2-9.3-15.3-19.6-16.2-31.8
	c-0.1-1-0.1-2-0.1-3l0,0l5.7-1.2l1.3-4l7-1.5l0.1-0.1l1.2-4.2l12.7-2.6l13.1,2.6l1.2,4.2l7.1,1.5l1.2,4l5.8,1.2l0,0
	C-594.8,848.1-601,859.2-610.5,869L-610.5,869L-610.5,869L-610.5,869z"/>
<g>
	<path fill="#FFFFFF" d="M-602,841.3c0.6-2.9-1-5.6-4.9-8c-3.5-2.2-7.6-3.9-13.4-5.4l-0.7-0.2v44l0.8-0.6c1.9-1.4,4-3.2,6.2-5.2
		c4.1-3.9,8.2-8.2,9.9-13.4c0.8-2.6,0.2-4.9-1.6-6.5C-603.4,844.5-602.3,843-602,841.3z M-615.9,845.4v-11.2
		c2.2,0.7,4.4,1.7,6.8,3.1l0.2,0.1c1,0.7,2.2,1.6,1.8,2.7c-0.3,1.7-2.6,2.7-4.3,3.5C-612.9,844.4-614.5,845-615.9,845.4z
		 M-610.5,854.7c-0.2,0.4-0.4,0.7-0.6,1c-1.2,1.9-2.8,3.7-4.8,5.5v-10.8c1.3-0.8,2.9-1.7,4.7-1.8c0.7,0,1.2,0.2,1.6,0.6
		C-608.3,850.9-609.4,852.8-610.5,854.7z"/>
	<path fill="#FFFFFF" d="M-629.5,852.6c-0.1,0.3,0,0.6,0,0.8c0,0.3,0,0.5,0,0.6c-1.4-4.7-2.2-10.1-2.6-16.9l-0.2-6l-4.7,3.1v1.6
		c0.2,4.5,0.5,10.3,1.8,15.8l-0.9,0.9c-0.3-0.4-0.5-0.8-0.7-1.3l-0.2-0.3c-1.6-3.7-2.5-8.2-2.8-14v-0.8l-4.2,2.7v0.2
		c0.4,9,2.7,15.5,7.3,20.5l0.4,0.4l1.4-1.4c0.5-0.5,0.9-0.9,1.4-1.3c0.5,1.6,1.1,3.3,2,5.2c1.5,3,3.1,6,6.3,8.4l0.8,0.6v-44
		l-4.9,2.2v23H-629.5z"/>
</g>
<g>
	<path fill="#231F20" d="M-328.9,848.2c-1.9,0.2-3.4,0.9-4.9,1.9l0.1,11.2c2.2-1.8,4-3.7,5.4-5.9c1.1-1.9,3-4.3,1.3-6.5
		C-327.4,848.4-328.1,848.2-328.9,848.2z"/>
	<path fill="#231F20" d="M-326.5,838c-2.2-1.4-4.5-2.5-7.1-3.1v11.5c1.7-0.5,3.3-1.1,4.9-1.8c1.6-0.8,3.9-1.8,4.2-3.6
		C-324.1,839.7-325.5,838.7-326.5,838z"/>
	<path fill="#231F20" d="M-318.7,835.1l-1.1-3.6l-6.4-1.3l-1.1-3.8l-11.8-2.3l-11.4,2.3l-1.1,3.7l-0.1,0.1l-6.3,1.3l-1.2,3.6
		l-5.1,1.1c-0.1,0.9,0,1.8,0.1,2.7c0.9,11,6.4,20.3,14.7,28.7c3.2,3,6.7,6.1,10.7,7.8c4.2-1.8,8-5,11.2-8.2
		c8.6-8.9,14.1-18.9,14.3-31L-318.7,835.1z M-340.8,868.9c-2.8-2.1-4.4-4.9-5.8-7.7c-0.8-1.8-1.5-3.6-2-5.5
		c-0.9,0.9-1.9,1.8-2.8,2.8c-4.9-5.2-6.4-11.7-6.7-18.7l3-2c0.2,4.6,0.9,9,2.7,13.1c0.4,0.7,0.7,1.3,1.2,2l1.4-1.4
		c-1.1-4.7-1.5-9.7-1.7-14.8v-1.2l3.5-2.3l0.1,4.8c0.3,5.5,0.9,10.9,2.5,15.9c0.1,0.1,0.3,0.2,0.5,0.2c0.8-0.2,0.3-1.2,0.5-1.8
		v-20.9l3.7-1.6V868.9z M-320.7,841.9c-0.2,1.8-1.8,3.3-3.6,4.6c2.1,1.4,2.4,3.8,1.8,5.9c-1.5,4.6-5.2,8.4-9.1,12.2
		c-1.8,1.7-3.7,3.3-5.7,4.7V830c4.4,1.1,8.6,2.5,12.3,4.9C-322.4,836.6-320.1,838.9-320.7,841.9z"/>
</g>
</svg>
